%FSLAX24Y24*%
%MOIN*%
%SFA1B1*%

%IPPOS*%
%ADD24C,0.009800*%
%ADD26R,0.059100X0.059100*%
%ADD27C,0.059100*%
%ADD28R,0.059100X0.059100*%
%ADD29C,0.049200*%
%ADD30C,0.039400*%
%ADD31C,0.196900*%
%LNdeploy(58mm)-1*%
%LPD*%
G36*
X1345Y22799D02*
X2239Y22729D01*
X3129Y22624*
X4015Y22483*
X4895Y22308*
X5767Y22099*
X6630Y21856*
X7483Y21578*
X8324Y21268*
X9153Y20925*
X9967Y20549*
X10766Y20142*
X11549Y19704*
X12313Y19235*
X13059Y18737*
X13785Y18210*
X14489Y17655*
X15171Y17072*
X15829Y16464*
X16464Y15829*
X17072Y15171*
X17655Y14489*
X18210Y13785*
X18737Y13059*
X19235Y12313*
X19704Y11549*
X20142Y10766*
X20549Y9967*
X20925Y9153*
X21268Y8324*
X21578Y7483*
X21856Y6630*
X22099Y5767*
X22308Y4895*
X22483Y4015*
X22624Y3129*
X22729Y2239*
X22799Y1345*
X22835Y448*
Y0*
X0*
Y22835*
X448*
X1345Y22799*
G37*
%LNdeploy(58mm)-2*%
%LPC*%
G36*
X12041Y1217D02*
Y876D01*
X12383*
X12376Y930*
X12336Y1025*
X12273Y1108*
X12191Y1171*
X12095Y1210*
X12041Y1217*
G37*
G36*
X10041D02*
Y876D01*
X10383*
X10376Y930*
X10336Y1025*
X10273Y1108*
X10191Y1171*
X10095Y1210*
X10041Y1217*
G37*
G36*
X8041D02*
Y876D01*
X8383*
X8376Y930*
X8336Y1025*
X8273Y1108*
X8191Y1171*
X8095Y1210*
X8041Y1217*
G37*
G36*
X3992Y2204D02*
X3895Y2191D01*
X3804Y2153*
X3725Y2094*
X3665Y2015*
X3628Y1924*
X3615Y1827*
X3628Y1729*
X3665Y1638*
X3725Y1560*
X3804Y1500*
X3895Y1462*
X3992Y1450*
X4090Y1462*
X4181Y1500*
X4259Y1560*
X4319Y1638*
X4357Y1729*
X4369Y1827*
X4357Y1924*
X4319Y2015*
X4259Y2094*
X4181Y2153*
X4090Y2191*
X3992Y2204*
G37*
G36*
X11041Y1217D02*
Y876D01*
X11383*
X11376Y930*
X11336Y1025*
X11273Y1108*
X11191Y1171*
X11095Y1210*
X11041Y1217*
G37*
G36*
X7041D02*
Y876D01*
X7383*
X7376Y930*
X7336Y1025*
X7273Y1108*
X7191Y1171*
X7095Y1210*
X7041Y1217*
G37*
G36*
X6041D02*
Y876D01*
X6383*
X6376Y930*
X6336Y1025*
X6273Y1108*
X6191Y1171*
X6095Y1210*
X6041Y1217*
G37*
G36*
X10943D02*
X10889Y1210D01*
X10794Y1171*
X10711Y1108*
X10648Y1025*
X10609Y930*
X10602Y876*
X10943*
Y1217*
G37*
G36*
X11943D02*
X11889Y1210D01*
X11794Y1171*
X11711Y1108*
X11648Y1025*
X11609Y930*
X11602Y876*
X11943*
Y1217*
G37*
G36*
X9943D02*
X9889Y1210D01*
X9794Y1171*
X9711Y1108*
X9648Y1025*
X9609Y930*
X9602Y876*
X9943*
Y1217*
G37*
G36*
X4041D02*
Y876D01*
X4383*
X4376Y930*
X4336Y1025*
X4273Y1108*
X4191Y1171*
X4095Y1210*
X4041Y1217*
G37*
G36*
X9041D02*
Y876D01*
X9383*
X9376Y930*
X9336Y1025*
X9273Y1108*
X9191Y1171*
X9095Y1210*
X9041Y1217*
G37*
G36*
X5041D02*
Y876D01*
X5383*
X5376Y930*
X5336Y1025*
X5273Y1108*
X5191Y1171*
X5095Y1210*
X5041Y1217*
G37*
G36*
X4992Y2204D02*
X4895Y2191D01*
X4804Y2153*
X4725Y2094*
X4665Y2015*
X4628Y1924*
X4615Y1827*
X4628Y1729*
X4665Y1638*
X4725Y1560*
X4804Y1500*
X4895Y1462*
X4992Y1450*
X5090Y1462*
X5181Y1500*
X5259Y1560*
X5319Y1638*
X5357Y1729*
X5369Y1827*
X5357Y1924*
X5319Y2015*
X5259Y2094*
X5181Y2153*
X5090Y2191*
X4992Y2204*
G37*
G36*
X3835Y4281D02*
X3593D01*
Y4039*
X3620Y4043*
X3692Y4073*
X3754Y4120*
X3801Y4182*
X3831Y4254*
X3835Y4281*
G37*
G36*
X3494D02*
X3252D01*
X3256Y4254*
X3285Y4182*
X3333Y4120*
X3394Y4073*
X3466Y4043*
X3494Y4039*
Y4281*
G37*
G36*
X12992Y3674D02*
X6888D01*
X6838Y3664*
X6796Y3636*
X6773Y3613*
X6765Y3616*
X6693Y3626*
X6621Y3616*
X6554Y3589*
X6496Y3544*
X6452Y3487*
X6424Y3420*
X6415Y3348*
X6424Y3276*
X6452Y3209*
X6496Y3151*
X6554Y3107*
X6621Y3079*
X6693Y3070*
X6765Y3079*
X6773Y3083*
X6838Y3018*
Y2168*
X6804Y2153*
X6725Y2094*
X6665Y2015*
X6628Y1924*
X6615Y1827*
X6628Y1729*
X6665Y1638*
X6725Y1560*
X6804Y1500*
X6895Y1462*
X6992Y1450*
X7090Y1462*
X7181Y1500*
X7259Y1560*
X7319Y1638*
X7357Y1729*
X7369Y1827*
X7357Y1924*
X7319Y2015*
X7259Y2094*
X7181Y2153*
X7099Y2187*
Y3072*
X7089Y3122*
X7061Y3164*
X6958Y3267*
X6961Y3276*
X6971Y3348*
X6967Y3375*
X7000Y3413*
X12938*
X13096Y3255*
X13093Y3205*
X13071Y3189*
X13027Y3131*
X12999Y3064*
X12990Y2992*
X12999Y2920*
X13027Y2853*
X13071Y2796*
X13129Y2751*
X13196Y2724*
X13268Y2714*
X13340Y2724*
X13407Y2751*
X13464Y2796*
X13508Y2853*
X13536Y2920*
X13546Y2992*
X13536Y3064*
X13508Y3131*
X13464Y3189*
X13407Y3233*
X13398Y3236*
Y3268*
X13388Y3318*
X13360Y3360*
X13084Y3636*
X13042Y3664*
X13034Y3665*
X12992Y3674*
G37*
G36*
X14843Y5834D02*
X14745Y5821D01*
X14654Y5783*
X14576Y5723*
X14516Y5645*
X14478Y5554*
X14465Y5457*
X14478Y5359*
X14516Y5268*
X14576Y5190*
X14654Y5130*
X14745Y5092*
X14843Y5079*
X14940Y5092*
X15031Y5130*
X15109Y5190*
X15169Y5268*
X15207Y5359*
X15220Y5457*
X15207Y5554*
X15169Y5645*
X15109Y5723*
X15031Y5783*
X14940Y5821*
X14843Y5834*
G37*
G36*
X3593Y4622D02*
Y4380D01*
X3835*
X3831Y4408*
X3801Y4480*
X3754Y4541*
X3692Y4589*
X3620Y4618*
X3593Y4622*
G37*
G36*
X3494D02*
X3466Y4618D01*
X3394Y4589*
X3333Y4541*
X3285Y4480*
X3256Y4408*
X3252Y4380*
X3494*
Y4622*
G37*
G36*
X1624Y3333D02*
Y3041D01*
X1916*
X1910Y3082*
X1876Y3166*
X1820Y3238*
X1749Y3293*
X1665Y3328*
X1624Y3333*
G37*
G36*
X1526Y2943D02*
X1234D01*
X1239Y2902*
X1274Y2818*
X1329Y2746*
X1401Y2691*
X1485Y2657*
X1526Y2651*
Y2943*
G37*
G36*
X7992Y2204D02*
X7894Y2191D01*
X7804Y2153*
X7725Y2094*
X7665Y2015*
X7628Y1924*
X7615Y1827*
X7628Y1729*
X7665Y1638*
X7725Y1560*
X7804Y1500*
X7894Y1462*
X7992Y1450*
X8090Y1462*
X8181Y1500*
X8259Y1560*
X8319Y1638*
X8357Y1729*
X8369Y1827*
X8357Y1924*
X8319Y2015*
X8259Y2094*
X8181Y2153*
X8090Y2191*
X7992Y2204*
G37*
G36*
X5992D02*
X5895Y2191D01*
X5804Y2153*
X5725Y2094*
X5665Y2015*
X5628Y1924*
X5615Y1827*
X5628Y1729*
X5665Y1638*
X5725Y1560*
X5804Y1500*
X5895Y1462*
X5992Y1450*
X6090Y1462*
X6181Y1500*
X6259Y1560*
X6319Y1638*
X6357Y1729*
X6369Y1827*
X6357Y1924*
X6319Y2015*
X6259Y2094*
X6181Y2153*
X6090Y2191*
X5992Y2204*
G37*
G36*
X1526Y3333D02*
X1485Y3328D01*
X1401Y3293*
X1329Y3238*
X1274Y3166*
X1239Y3082*
X1234Y3041*
X1526*
Y3333*
G37*
G36*
X12480Y3270D02*
X12408Y3261D01*
X12341Y3233*
X12284Y3189*
X12240Y3131*
X12212Y3064*
X12202Y2992*
X12212Y2920*
X12215Y2912*
X11993Y2690*
X11885*
X11868Y2740*
X11889Y2756*
X11934Y2814*
X11961Y2881*
X11971Y2953*
X11961Y3025*
X11934Y3092*
X11889Y3149*
X11832Y3193*
X11765Y3221*
X11693Y3231*
X11621Y3221*
X11554Y3193*
X11496Y3149*
X11452Y3092*
X11449Y3083*
X9646*
X9596Y3073*
X9553Y3045*
X8900Y2391*
X8872Y2349*
X8862Y2299*
Y2178*
X8804Y2153*
X8725Y2094*
X8665Y2015*
X8628Y1924*
X8615Y1827*
X8628Y1729*
X8665Y1638*
X8725Y1560*
X8804Y1500*
X8895Y1462*
X8992Y1450*
X9090Y1462*
X9181Y1500*
X9259Y1560*
X9319Y1638*
X9357Y1729*
X9369Y1827*
X9357Y1924*
X9319Y2015*
X9259Y2094*
X9181Y2153*
X9123Y2178*
Y2245*
X9700Y2822*
X11449*
X11452Y2814*
X11496Y2756*
X11518Y2740*
X11501Y2690*
X10276*
X10226Y2680*
X10183Y2651*
X9900Y2368*
X9872Y2326*
X9862Y2276*
Y2178*
X9804Y2153*
X9725Y2094*
X9665Y2015*
X9628Y1924*
X9615Y1827*
X9628Y1729*
X9665Y1638*
X9725Y1560*
X9804Y1500*
X9894Y1462*
X9992Y1450*
X10090Y1462*
X10181Y1500*
X10259Y1560*
X10319Y1638*
X10357Y1729*
X10369Y1827*
X10357Y1924*
X10319Y2015*
X10259Y2094*
X10181Y2153*
X10130Y2175*
X10125Y2224*
X10330Y2429*
X11391*
X11410Y2382*
X11181Y2153*
X11090Y2191*
X10992Y2204*
X10895Y2191*
X10804Y2153*
X10725Y2094*
X10665Y2015*
X10628Y1924*
X10615Y1827*
X10628Y1729*
X10665Y1638*
X10725Y1560*
X10804Y1500*
X10895Y1462*
X10992Y1450*
X11090Y1462*
X11181Y1500*
X11259Y1560*
X11319Y1638*
X11357Y1729*
X11369Y1827*
X11357Y1924*
X11346Y1949*
X11629Y2232*
X11862*
X11872Y2182*
X11804Y2153*
X11725Y2094*
X11665Y2015*
X11628Y1924*
X11615Y1827*
X11628Y1729*
X11665Y1638*
X11725Y1560*
X11804Y1500*
X11895Y1462*
X11992Y1450*
X12090Y1462*
X12181Y1500*
X12259Y1560*
X12319Y1638*
X12357Y1729*
X12369Y1827*
X12357Y1924*
X12319Y2015*
X12259Y2094*
X12181Y2153*
X12112Y2182*
X12122Y2232*
X12581*
X12618Y2201*
Y1453*
X13366*
Y2196*
X13396Y2202*
X13439Y2231*
X13478Y2270*
X13896Y2688*
X13904Y2684*
X13976Y2675*
X14048Y2684*
X14115Y2712*
X14173Y2756*
X14217Y2814*
X14245Y2881*
X14254Y2953*
X14245Y3025*
X14217Y3092*
X14173Y3149*
X14115Y3193*
X14048Y3221*
X13976Y3231*
X13904Y3221*
X13837Y3193*
X13780Y3149*
X13736Y3092*
X13708Y3025*
X13698Y2953*
X13708Y2881*
X13711Y2872*
X13332Y2493*
X12231*
X12212Y2539*
X12400Y2727*
X12408Y2724*
X12480Y2714*
X12552Y2724*
X12619Y2751*
X12677Y2796*
X12721Y2853*
X12749Y2920*
X12758Y2992*
X12749Y3064*
X12721Y3131*
X12677Y3189*
X12619Y3233*
X12552Y3261*
X12480Y3270*
G37*
G36*
X1916Y2943D02*
X1624D01*
Y2651*
X1665Y2657*
X1749Y2691*
X1820Y2746*
X1876Y2818*
X1910Y2902*
X1916Y2943*
G37*
G36*
X10943Y778D02*
X10602D01*
X10609Y724*
X10648Y628*
X10711Y546*
X10794Y483*
X10889Y443*
X10943Y436*
Y778*
G37*
G36*
X9943D02*
X9602D01*
X9609Y724*
X9648Y628*
X9711Y546*
X9794Y483*
X9889Y443*
X9943Y436*
Y778*
G37*
G36*
X8943D02*
X8602D01*
X8609Y724*
X8648Y628*
X8711Y546*
X8794Y483*
X8889Y443*
X8943Y436*
Y778*
G37*
G36*
X5383D02*
X5041D01*
Y436*
X5095Y443*
X5191Y483*
X5273Y546*
X5336Y628*
X5376Y724*
X5383Y778*
G37*
G36*
X4383D02*
X4041D01*
Y436*
X4095Y443*
X4191Y483*
X4273Y546*
X4336Y628*
X4376Y724*
X4383Y778*
G37*
G36*
X11943D02*
X11602D01*
X11609Y724*
X11648Y628*
X11711Y546*
X11794Y483*
X11889Y443*
X11943Y436*
Y778*
G37*
G36*
X7943D02*
X7602D01*
X7609Y724*
X7648Y628*
X7711Y546*
X7794Y483*
X7889Y443*
X7943Y436*
Y778*
G37*
G36*
X3943D02*
X3602D01*
X3609Y724*
X3648Y628*
X3711Y546*
X3794Y483*
X3889Y443*
X3943Y436*
Y778*
G37*
G36*
X21102Y2444D02*
X20936Y2431D01*
X20773Y2392*
X20618Y2328*
X20476Y2241*
X20348Y2132*
X20240Y2005*
X20152Y1862*
X20088Y1707*
X20049Y1545*
X20036Y1378*
X20049Y1211*
X20088Y1048*
X20152Y894*
X20240Y751*
X20348Y624*
X20476Y515*
X20618Y428*
X20773Y364*
X20936Y325*
X21102Y312*
X21269Y325*
X21432Y364*
X21586Y428*
X21729Y515*
X21856Y624*
X21965Y751*
X22052Y894*
X22116Y1048*
X22156Y1211*
X22169Y1378*
X22156Y1545*
X22116Y1707*
X22052Y1862*
X21965Y2005*
X21856Y2132*
X21729Y2241*
X21586Y2328*
X21432Y2392*
X21269Y2431*
X21102Y2444*
G37*
G36*
X1378D02*
X1211Y2431D01*
X1048Y2392*
X894Y2328*
X751Y2241*
X624Y2132*
X515Y2005*
X428Y1862*
X364Y1707*
X325Y1545*
X312Y1378*
X325Y1211*
X364Y1048*
X428Y894*
X515Y751*
X624Y624*
X751Y515*
X894Y428*
X1048Y364*
X1211Y325*
X1378Y312*
X1545Y325*
X1707Y364*
X1862Y428*
X2005Y515*
X2132Y624*
X2241Y751*
X2328Y894*
X2392Y1048*
X2431Y1211*
X2444Y1378*
X2431Y1545*
X2392Y1707*
X2328Y1862*
X2241Y2005*
X2132Y2132*
X2005Y2241*
X1862Y2328*
X1707Y2392*
X1545Y2431*
X1378Y2444*
G37*
G36*
X6943Y778D02*
X6602D01*
X6609Y724*
X6648Y628*
X6711Y546*
X6794Y483*
X6889Y443*
X6943Y436*
Y778*
G37*
G36*
X5943D02*
X5602D01*
X5609Y724*
X5648Y628*
X5711Y546*
X5794Y483*
X5889Y443*
X5943Y436*
Y778*
G37*
G36*
X4943D02*
X4602D01*
X4609Y724*
X4648Y628*
X4711Y546*
X4794Y483*
X4889Y443*
X4943Y436*
Y778*
G37*
G36*
X6383D02*
X6041D01*
Y436*
X6095Y443*
X6191Y483*
X6273Y546*
X6336Y628*
X6376Y724*
X6383Y778*
G37*
G36*
X5943Y1217D02*
X5889Y1210D01*
X5794Y1171*
X5711Y1108*
X5648Y1025*
X5609Y930*
X5602Y876*
X5943*
Y1217*
G37*
G36*
X3943D02*
X3889Y1210D01*
X3794Y1171*
X3711Y1108*
X3648Y1025*
X3609Y930*
X3602Y876*
X3943*
Y1217*
G37*
G36*
X4943D02*
X4889Y1210D01*
X4794Y1171*
X4711Y1108*
X4648Y1025*
X4609Y930*
X4602Y876*
X4943*
Y1217*
G37*
G36*
X6943D02*
X6889Y1210D01*
X6794Y1171*
X6711Y1108*
X6648Y1025*
X6609Y930*
X6602Y876*
X6943*
Y1217*
G37*
G36*
X8943D02*
X8889Y1210D01*
X8794Y1171*
X8711Y1108*
X8648Y1025*
X8609Y930*
X8602Y876*
X8943*
Y1217*
G37*
G36*
X7943D02*
X7889Y1210D01*
X7794Y1171*
X7711Y1108*
X7648Y1025*
X7609Y930*
X7602Y876*
X7943*
Y1217*
G37*
G36*
X12992Y1204D02*
X12895Y1191D01*
X12804Y1153*
X12725Y1094*
X12665Y1015*
X12628Y924*
X12615Y827*
X12628Y729*
X12665Y638*
X12725Y560*
X12804Y500*
X12895Y462*
X12992Y450*
X13090Y462*
X13181Y500*
X13259Y560*
X13319Y638*
X13357Y729*
X13369Y827*
X13357Y924*
X13319Y1015*
X13259Y1094*
X13181Y1153*
X13090Y1191*
X12992Y1204*
G37*
G36*
X9383Y778D02*
X9041D01*
Y436*
X9095Y443*
X9191Y483*
X9273Y546*
X9336Y628*
X9376Y724*
X9383Y778*
G37*
G36*
X8383D02*
X8041D01*
Y436*
X8095Y443*
X8191Y483*
X8273Y546*
X8336Y628*
X8376Y724*
X8383Y778*
G37*
G36*
X7383D02*
X7041D01*
Y436*
X7095Y443*
X7191Y483*
X7273Y546*
X7336Y628*
X7376Y724*
X7383Y778*
G37*
G36*
X12383D02*
X12041D01*
Y436*
X12095Y443*
X12191Y483*
X12273Y546*
X12336Y628*
X12376Y724*
X12383Y778*
G37*
G36*
X11383D02*
X11041D01*
Y436*
X11095Y443*
X11191Y483*
X11273Y546*
X11336Y628*
X11376Y724*
X11383Y778*
G37*
G36*
X10383D02*
X10041D01*
Y436*
X10095Y443*
X10191Y483*
X10273Y546*
X10336Y628*
X10376Y724*
X10383Y778*
G37*
G36*
X16053Y14346D02*
X16025Y14343D01*
X15953Y14313*
X15892Y14266*
X15844Y14204*
X15815Y14132*
X15811Y14104*
X16053*
Y14346*
G37*
G36*
X14380D02*
Y14104D01*
X14622*
X14618Y14132*
X14589Y14204*
X14541Y14266*
X14480Y14313*
X14408Y14343*
X14380Y14346*
G37*
G36*
X14282D02*
X14254Y14343D01*
X14182Y14313*
X14120Y14266*
X14073Y14204*
X14043Y14132*
X14039Y14104*
X14282*
Y14346*
G37*
G36*
X9217Y14902D02*
X8469D01*
Y14154*
X9217*
Y14902*
G37*
G36*
X9843Y14905D02*
X9745Y14892D01*
X9654Y14854*
X9576Y14794*
X9516Y14716*
X9478Y14625*
X9465Y14528*
X9478Y14430*
X9516Y14339*
X9576Y14261*
X9654Y14201*
X9745Y14163*
X9843Y14150*
X9940Y14163*
X10031Y14201*
X10109Y14261*
X10169Y14339*
X10207Y14430*
X10220Y14528*
X10207Y14625*
X10169Y14716*
X10109Y14794*
X10031Y14854*
X9940Y14892*
X9843Y14905*
G37*
G36*
X16152Y14346D02*
Y14104D01*
X16394*
X16390Y14132*
X16360Y14204*
X16313Y14266*
X16251Y14313*
X16179Y14343*
X16152Y14346*
G37*
G36*
X4331Y14648D02*
X4259Y14639D01*
X4192Y14611*
X4134Y14567*
X4090Y14509*
X4062Y14442*
X4053Y14370*
X4062Y14298*
X4090Y14231*
X4134Y14174*
X4192Y14129*
X4259Y14102*
X4331Y14092*
X4403Y14102*
X4470Y14129*
X4527Y14174*
X4571Y14231*
X4599Y14298*
X4609Y14370*
X4599Y14442*
X4571Y14509*
X4527Y14567*
X4470Y14611*
X4403Y14639*
X4331Y14648*
G37*
G36*
X16394Y14006D02*
X16152D01*
Y13764*
X16179Y13767*
X16251Y13797*
X16313Y13845*
X16360Y13906*
X16390Y13978*
X16394Y14006*
G37*
G36*
X16053D02*
X15811D01*
X15815Y13978*
X15844Y13906*
X15892Y13845*
X15953Y13797*
X16025Y13767*
X16053Y13764*
Y14006*
G37*
G36*
X14622D02*
X14380D01*
Y13764*
X14408Y13767*
X14480Y13797*
X14541Y13845*
X14589Y13906*
X14618Y13978*
X14622Y14006*
G37*
G36*
X394Y14648D02*
X322Y14639D01*
X255Y14611*
X197Y14567*
X153Y14509*
X125Y14442*
X116Y14370*
X125Y14298*
X153Y14231*
X197Y14174*
X255Y14129*
X322Y14102*
X394Y14092*
X466Y14102*
X533Y14129*
X590Y14174*
X634Y14231*
X662Y14298*
X672Y14370*
X662Y14442*
X634Y14509*
X590Y14567*
X533Y14611*
X466Y14639*
X394Y14648*
G37*
G36*
X6118Y14085D02*
X5876D01*
Y13843*
X5904Y13846*
X5976Y13876*
X6037Y13923*
X6085Y13985*
X6114Y14057*
X6118Y14085*
G37*
G36*
X5778D02*
X5535D01*
X5539Y14057*
X5569Y13985*
X5616Y13923*
X5678Y13876*
X5750Y13846*
X5778Y13843*
Y14085*
G37*
G36*
Y14425D02*
X5750Y14422D01*
X5678Y14392*
X5616Y14344*
X5569Y14283*
X5539Y14211*
X5535Y14183*
X5778*
Y14425*
G37*
G36*
X11270Y18362D02*
Y18120D01*
X11512*
X11508Y18148*
X11478Y18220*
X11431Y18281*
X11369Y18329*
X11298Y18359*
X11270Y18362*
G37*
G36*
X11171D02*
X11143Y18359D01*
X11072Y18329*
X11010Y18281*
X10963Y18220*
X10933Y18148*
X10929Y18120*
X11171*
Y18362*
G37*
G36*
X11512Y18022D02*
X11270D01*
Y17780*
X11298Y17783*
X11369Y17813*
X11431Y17860*
X11478Y17922*
X11508Y17994*
X11512Y18022*
G37*
G36*
X7083Y21043D02*
X6335D01*
Y20295*
X7083*
Y21043*
G37*
G36*
X5709Y21047D02*
X5611Y21034D01*
X5520Y20996*
X5442Y20936*
X5382Y20858*
X5344Y20767*
X5331Y20669*
X5344Y20572*
X5382Y20481*
X5442Y20403*
X5520Y20343*
X5611Y20305*
X5709Y20292*
X5806Y20305*
X5897Y20343*
X5975Y20403*
X6035Y20481*
X6073Y20572*
X6086Y20669*
X6073Y20767*
X6035Y20858*
X5975Y20936*
X5897Y20996*
X5806Y21034*
X5709Y21047*
G37*
G36*
X1378Y22169D02*
X1211Y22156D01*
X1048Y22116*
X894Y22052*
X751Y21965*
X624Y21856*
X515Y21729*
X428Y21586*
X364Y21432*
X325Y21269*
X312Y21102*
X325Y20936*
X364Y20773*
X428Y20618*
X515Y20476*
X624Y20348*
X751Y20240*
X894Y20152*
X1048Y20088*
X1211Y20049*
X1378Y20036*
X1545Y20049*
X1707Y20088*
X1862Y20152*
X2005Y20240*
X2132Y20348*
X2241Y20476*
X2328Y20618*
X2392Y20773*
X2431Y20936*
X2444Y21102*
X2431Y21269*
X2392Y21432*
X2328Y21586*
X2241Y21729*
X2132Y21856*
X2005Y21965*
X1862Y22052*
X1707Y22116*
X1545Y22156*
X1378Y22169*
G37*
G36*
X11171Y18022D02*
X10929D01*
X10933Y17994*
X10963Y17922*
X11010Y17860*
X11072Y17813*
X11143Y17783*
X11171Y17780*
Y18022*
G37*
G36*
X4281Y17077D02*
X4039D01*
X4043Y17049*
X4073Y16977*
X4120Y16915*
X4182Y16868*
X4254Y16838*
X4281Y16835*
Y17077*
G37*
G36*
X5315Y17601D02*
X5243Y17591D01*
X5176Y17564*
X5118Y17519*
X5074Y17462*
X5046Y17395*
X5037Y17323*
X5046Y17251*
X5074Y17184*
X5118Y17126*
X5176Y17082*
X5185Y17079*
Y13189*
X5194Y13139*
X5223Y13097*
X6784Y11535*
X6770Y11501*
X6759Y11490*
X6693Y11498*
X6621Y11489*
X6554Y11461*
X6496Y11417*
X6452Y11359*
X6449Y11351*
X1629*
X659Y12321*
X662Y12330*
X672Y12402*
X662Y12474*
X634Y12541*
X590Y12598*
X533Y12642*
X466Y12670*
X394Y12680*
X322Y12670*
X255Y12642*
X197Y12598*
X153Y12541*
X125Y12474*
X116Y12402*
X125Y12330*
X153Y12263*
X197Y12205*
X255Y12161*
X263Y12157*
Y3543*
X273Y3493*
X301Y3451*
X498Y3254*
X541Y3226*
X591Y3216*
X1181*
X1231Y3226*
X1273Y3254*
X1629Y3610*
X2165*
X2215Y3620*
X2258Y3648*
X3597Y4988*
X4677*
X4681Y4979*
X4725Y4922*
X4782Y4877*
X4849Y4850*
X4921Y4840*
X4993Y4850*
X5060Y4877*
X5118Y4922*
X5162Y4979*
X5170Y4999*
X5210Y5026*
X7101Y6917*
X9867*
X10129Y6655*
X10125Y6647*
X10116Y6575*
X10125Y6503*
X10153Y6436*
X10197Y6378*
X10255Y6334*
X10322Y6306*
X10394Y6297*
X10466Y6306*
X10533Y6334*
X10590Y6378*
X10634Y6436*
X10638Y6444*
X11240*
X11260Y6418*
X11318Y6373*
X11385Y6346*
X11457Y6336*
X11529Y6346*
X11596Y6373*
X11653Y6418*
X11697Y6475*
X11725Y6542*
X11735Y6614*
X11725Y6686*
X11711Y6720*
X11753Y6748*
X13889Y4612*
X13932Y4584*
X13982Y4574*
X18012*
X18062Y4584*
X18104Y4612*
X19486Y5995*
X19495Y5991*
X19567Y5982*
X19639Y5991*
X19706Y6019*
X19763Y6063*
X19808Y6121*
X19835Y6188*
X19845Y6260*
X19835Y6332*
X19808Y6399*
X19763Y6456*
X19706Y6501*
X19639Y6528*
X19567Y6538*
X19495Y6528*
X19428Y6501*
X19370Y6456*
X19326Y6399*
X19298Y6332*
X19289Y6260*
X19298Y6188*
X19302Y6179*
X17958Y4835*
X16817*
X16798Y4881*
X18109Y6192*
X18117Y6188*
X18189Y6179*
X18261Y6188*
X18328Y6216*
X18386Y6260*
X18430Y6318*
X18457Y6385*
X18467Y6457*
X18457Y6529*
X18430Y6596*
X18386Y6653*
X18328Y6697*
X18261Y6725*
X18189Y6735*
X18117Y6725*
X18050Y6697*
X17992Y6653*
X17948Y6596*
X17920Y6529*
X17911Y6457*
X17920Y6385*
X17924Y6376*
X16560Y5012*
X14109*
X11621Y7501*
X11640Y7547*
X13750*
X13760Y7537*
X13786Y7505*
X13777Y7441*
X13787Y7369*
X13814Y7302*
X13859Y7244*
X13916Y7200*
X13983Y7172*
X14055Y7163*
X14127Y7172*
X14194Y7200*
X14252Y7244*
X14296Y7302*
X14324Y7369*
X14333Y7441*
X14324Y7513*
X14296Y7580*
X14252Y7638*
X14194Y7682*
X14127Y7709*
X14055Y7719*
X13983Y7709*
X13975Y7706*
X13911Y7769*
X13869Y7798*
X13819Y7808*
X6693*
X6683Y7806*
X6658Y7852*
X8400Y9594*
X16089*
X16139Y9604*
X16182Y9632*
X18163Y11614*
X18191Y11656*
X18201Y11706*
Y11976*
X18239Y12009*
X18268Y12005*
X18340Y12015*
X18407Y12043*
X18464Y12087*
X18508Y12144*
X18536Y12212*
X18546Y12283*
X18536Y12355*
X18508Y12422*
X18464Y12480*
X18407Y12524*
X18340Y12552*
X18268Y12561*
X18196Y12552*
X18129Y12524*
X18071Y12480*
X18027Y12422*
X17999Y12355*
X17990Y12283*
X17999Y12212*
X18003Y12203*
X17979Y12179*
X17950Y12137*
X17940Y12087*
Y11977*
X17890Y11960*
X17880Y11974*
X17822Y12018*
X17755Y12046*
X17683Y12056*
X17611Y12046*
X17544Y12018*
X17487Y11974*
X17442Y11917*
X17415Y11849*
X17405Y11778*
X17415Y11706*
X17418Y11697*
X15812Y10091*
X13477*
X13467Y10141*
X13535Y10169*
X13613Y10229*
X13673Y10307*
X13711Y10398*
X13724Y10496*
X13711Y10594*
X13673Y10685*
X13613Y10763*
X13535Y10823*
X13444Y10860*
X13346Y10873*
X13249Y10860*
X13158Y10823*
X13080Y10763*
X13020Y10685*
X12982Y10594*
X12969Y10496*
X12982Y10398*
X13020Y10307*
X13080Y10229*
X13158Y10169*
X13226Y10141*
X13216Y10091*
X8189*
X8139Y10081*
X8097Y10053*
X6111Y8067*
X1335*
X1311Y8126*
X1251Y8204*
X1173Y8264*
X1082Y8301*
X984Y8314*
X887Y8301*
X796Y8264*
X718Y8204*
X658Y8126*
X620Y8035*
X607Y7937*
X620Y7839*
X658Y7748*
X718Y7670*
X796Y7610*
X887Y7573*
X984Y7560*
X1082Y7573*
X1173Y7610*
X1251Y7670*
X1311Y7748*
X1335Y7807*
X6165*
X6175Y7809*
X6200Y7762*
X5505Y7067*
X1335*
X1311Y7126*
X1251Y7204*
X1173Y7264*
X1082Y7301*
X984Y7314*
X887Y7301*
X796Y7264*
X718Y7204*
X658Y7126*
X620Y7035*
X607Y6937*
X620Y6839*
X658Y6748*
X718Y6670*
X796Y6610*
X887Y6573*
X984Y6560*
X1082Y6573*
X1173Y6610*
X1251Y6670*
X1311Y6748*
X1335Y6807*
X5559*
X5569Y6809*
X5594Y6762*
X5458Y6627*
X1969*
X1919Y6617*
X1876Y6588*
X1379Y6091*
X1320Y6103*
X1311Y6126*
X1251Y6204*
X1173Y6264*
X1082Y6301*
X984Y6314*
X887Y6301*
X796Y6264*
X718Y6204*
X658Y6126*
X620Y6035*
X607Y5937*
X620Y5839*
X658Y5748*
X718Y5670*
X796Y5610*
X887Y5573*
X984Y5560*
X1082Y5573*
X1173Y5610*
X1251Y5670*
X1311Y5748*
X1335Y5807*
X1409*
X1459Y5816*
X1502Y5845*
X2023Y6366*
X2376*
X2395Y6319*
X1277Y5202*
X1251Y5204*
X1173Y5264*
X1082Y5301*
X984Y5314*
X887Y5301*
X796Y5264*
X718Y5204*
X658Y5126*
X620Y5035*
X607Y4937*
X620Y4839*
X658Y4748*
X718Y4670*
X796Y4610*
X887Y4573*
X984Y4560*
X1082Y4573*
X1173Y4610*
X1251Y4670*
X1311Y4748*
X1349Y4839*
X1358Y4914*
X2633Y6188*
X2986*
X3005Y6142*
X1174Y4311*
X610*
Y3609*
Y3582*
X561Y3560*
X524Y3597*
Y12021*
X570Y12040*
X1483Y11128*
X1525Y11100*
X1575Y11090*
X6449*
X6452Y11081*
X6496Y11024*
X6518Y11007*
X6501Y10957*
X1359*
X1349Y11035*
X1311Y11126*
X1251Y11204*
X1173Y11264*
X1082Y11301*
X984Y11314*
X887Y11301*
X796Y11264*
X718Y11204*
X658Y11126*
X620Y11035*
X607Y10937*
X620Y10839*
X658Y10748*
X718Y10670*
X796Y10610*
X887Y10573*
X984Y10560*
X1082Y10573*
X1173Y10610*
X1251Y10670*
X1271Y10696*
X6706*
X6725Y10650*
X6143Y10067*
X1335*
X1311Y10126*
X1251Y10204*
X1173Y10264*
X1082Y10301*
X984Y10314*
X887Y10301*
X796Y10264*
X718Y10204*
X658Y10126*
X620Y10035*
X607Y9937*
X620Y9839*
X658Y9748*
X718Y9670*
X796Y9610*
X887Y9573*
X984Y9560*
X1082Y9573*
X1173Y9610*
X1251Y9670*
X1311Y9748*
X1335Y9807*
X6197*
X6207Y9809*
X6232Y9762*
X6048Y9579*
X1575*
X1525Y9569*
X1483Y9541*
X1191Y9250*
X1173Y9264*
X1082Y9301*
X984Y9314*
X887Y9301*
X796Y9264*
X718Y9204*
X658Y9126*
X620Y9035*
X607Y8937*
X620Y8839*
X658Y8748*
X718Y8670*
X796Y8610*
X887Y8573*
X984Y8560*
X1082Y8573*
X1173Y8610*
X1251Y8670*
X1311Y8748*
X1349Y8839*
X1361Y8937*
X1349Y9035*
X1348Y9037*
X1629Y9318*
X6102*
X6152Y9328*
X6195Y9357*
X9188Y12350*
X13674*
X13678Y12341*
X13722Y12284*
X13779Y12240*
X13846Y12212*
X13918Y12202*
X13990Y12212*
X14057Y12240*
X14115Y12284*
X14159Y12341*
X14187Y12408*
X14196Y12480*
X14187Y12552*
X14159Y12619*
X14115Y12677*
X14057Y12721*
X13990Y12749*
X13918Y12758*
X13846Y12749*
X13779Y12721*
X13722Y12677*
X13678Y12619*
X13674Y12611*
X9134*
X9084Y12601*
X9042Y12573*
X9001Y12532*
X8966Y12549*
X8711*
Y12294*
X8728Y12259*
X7444Y10975*
X7394Y10996*
Y15123*
X8637Y16366*
X9598*
X9602Y16357*
X9646Y16300*
X9704Y16255*
X9771Y16228*
X9843Y16218*
X9914Y16228*
X9981Y16255*
X10039Y16300*
X10083Y16357*
X10111Y16424*
X10120Y16496*
X10111Y16568*
X10083Y16635*
X10039Y16693*
X9981Y16737*
X9914Y16765*
X9843Y16774*
X9771Y16765*
X9704Y16737*
X9646Y16693*
X9602Y16635*
X9598Y16627*
X8583*
X8533Y16617*
X8490Y16588*
X7172Y15269*
X7143Y15227*
X7133Y15177*
Y11620*
X7087Y11601*
X5445Y13243*
Y17079*
X5454Y17082*
X5512Y17126*
X5556Y17184*
X5583Y17251*
X5593Y17323*
X5583Y17395*
X5556Y17462*
X5512Y17519*
X5454Y17564*
X5387Y17591*
X5315Y17601*
G37*
G36*
X5876Y14425D02*
Y14183D01*
X6118*
X6114Y14211*
X6085Y14283*
X6037Y14344*
X5976Y14392*
X5904Y14422*
X5876Y14425*
G37*
G36*
X4380Y17417D02*
Y17175D01*
X4622*
X4618Y17203*
X4589Y17275*
X4541Y17337*
X4480Y17384*
X4408Y17414*
X4380Y17417*
G37*
G36*
X4281D02*
X4254Y17414D01*
X4182Y17384*
X4120Y17337*
X4073Y17275*
X4043Y17203*
X4039Y17175*
X4281*
Y17417*
G37*
G36*
X4622Y17077D02*
X4380D01*
Y16835*
X4408Y16838*
X4480Y16868*
X4541Y16915*
X4589Y16977*
X4618Y17049*
X4622Y17077*
G37*
G36*
X14282Y14006D02*
X14039D01*
X14043Y13978*
X14073Y13906*
X14120Y13845*
X14182Y13797*
X14254Y13767*
X14282Y13764*
Y14006*
G37*
G36*
X6447Y9006D02*
X6205D01*
X6208Y8978*
X6238Y8906*
X6285Y8845*
X6347Y8797*
X6419Y8767*
X6447Y8764*
Y9006*
G37*
G36*
X18087Y8770D02*
X17844D01*
Y8528*
X17872Y8531*
X17944Y8561*
X18006Y8608*
X18053Y8670*
X18083Y8742*
X18087Y8770*
G37*
G36*
X17746D02*
X17504D01*
X17508Y8742*
X17537Y8670*
X17585Y8608*
X17646Y8561*
X17718Y8531*
X17746Y8528*
Y8770*
G37*
G36*
X15679Y9110D02*
Y8868D01*
X15921*
X15918Y8896*
X15888Y8968*
X15841Y9029*
X15779Y9077*
X15707Y9107*
X15679Y9110*
G37*
G36*
X15581D02*
X15553Y9107D01*
X15481Y9077*
X15419Y9029*
X15372Y8968*
X15342Y8896*
X15339Y8868*
X15581*
Y9110*
G37*
G36*
X6787Y9006D02*
X6545D01*
Y8764*
X6573Y8767*
X6645Y8797*
X6707Y8845*
X6754Y8906*
X6784Y8978*
X6787Y9006*
G37*
G36*
X15921Y8770D02*
X15679D01*
Y8528*
X15707Y8531*
X15779Y8561*
X15841Y8608*
X15888Y8670*
X15918Y8742*
X15921Y8770*
G37*
G36*
X15217Y6831D02*
X14469D01*
Y6083*
X15217*
Y6831*
G37*
G36*
X8520Y6211D02*
X8278D01*
Y5968*
X8305Y5972*
X8377Y6002*
X8439Y6049*
X8486Y6111*
X8516Y6183*
X8520Y6211*
G37*
G36*
X8179D02*
X7937D01*
X7941Y6183*
X7970Y6111*
X8018Y6049*
X8079Y6002*
X8151Y5972*
X8179Y5968*
Y6211*
G37*
G36*
X15581Y8770D02*
X15339D01*
X15342Y8742*
X15372Y8670*
X15419Y8608*
X15481Y8561*
X15553Y8531*
X15581Y8528*
Y8770*
G37*
G36*
X8278Y6551D02*
Y6309D01*
X8520*
X8516Y6337*
X8486Y6409*
X8439Y6470*
X8377Y6518*
X8305Y6548*
X8278Y6551*
G37*
G36*
X8179D02*
X8151Y6548D01*
X8079Y6518*
X8018Y6470*
X7970Y6409*
X7941Y6337*
X7937Y6309*
X8179*
Y6551*
G37*
G36*
X17746Y9110D02*
X17718Y9107D01*
X17646Y9077*
X17585Y9029*
X17537Y8968*
X17508Y8896*
X17504Y8868*
X17746*
Y9110*
G37*
G36*
X4622Y13337D02*
X4380D01*
Y13094*
X4408Y13098*
X4480Y13128*
X4541Y13175*
X4589Y13237*
X4618Y13309*
X4622Y13337*
G37*
G36*
X4281D02*
X4039D01*
X4043Y13309*
X4073Y13237*
X4120Y13175*
X4182Y13128*
X4254Y13098*
X4281Y13094*
Y13337*
G37*
G36*
X8711Y12890D02*
Y12648D01*
X8953*
X8949Y12676*
X8919Y12747*
X8872Y12809*
X8810Y12856*
X8738Y12886*
X8711Y12890*
G37*
G36*
X4380Y13677D02*
Y13435D01*
X4622*
X4618Y13463*
X4589Y13535*
X4541Y13596*
X4480Y13644*
X4408Y13673*
X4380Y13677*
G37*
G36*
X4281D02*
X4254Y13673D01*
X4182Y13644*
X4120Y13596*
X4073Y13535*
X4043Y13463*
X4039Y13435*
X4281*
Y13677*
G37*
G36*
X394Y13664D02*
X322Y13654D01*
X255Y13627*
X197Y13582*
X153Y13525*
X125Y13458*
X116Y13386*
X125Y13314*
X153Y13247*
X197Y13189*
X255Y13145*
X322Y13117*
X394Y13108*
X466Y13117*
X533Y13145*
X590Y13189*
X634Y13247*
X662Y13314*
X672Y13386*
X662Y13458*
X634Y13525*
X590Y13582*
X533Y13627*
X466Y13654*
X394Y13664*
G37*
G36*
X8612Y12890D02*
X8584Y12886D01*
X8512Y12856*
X8451Y12809*
X8403Y12747*
X8374Y12676*
X8370Y12648*
X8612*
Y12890*
G37*
G36*
X6545Y9346D02*
Y9104D01*
X6787*
X6784Y9132*
X6754Y9204*
X6707Y9266*
X6645Y9313*
X6573Y9343*
X6545Y9346*
G37*
G36*
X6447D02*
X6419Y9343D01*
X6347Y9313*
X6285Y9266*
X6238Y9204*
X6208Y9132*
X6205Y9104*
X6447*
Y9346*
G37*
G36*
X17844Y9110D02*
Y8868D01*
X18087*
X18083Y8896*
X18053Y8968*
X18006Y9029*
X17944Y9077*
X17872Y9107*
X17844Y9110*
G37*
G36*
X8612Y12549D02*
X8370D01*
X8374Y12521*
X8403Y12450*
X8451Y12388*
X8512Y12341*
X8584Y12311*
X8612Y12307*
Y12549*
G37*
G36*
X4331Y12664D02*
X4259Y12654D01*
X4192Y12627*
X4134Y12582*
X4090Y12525*
X4062Y12458*
X4053Y12386*
X4062Y12314*
X4090Y12247*
X4134Y12189*
X4192Y12145*
X4259Y12117*
X4331Y12108*
X4403Y12117*
X4470Y12145*
X4527Y12189*
X4571Y12247*
X4599Y12314*
X4609Y12386*
X4599Y12458*
X4571Y12525*
X4527Y12582*
X4470Y12627*
X4403Y12654*
X4331Y12664*
G37*
G36*
X13720Y11870D02*
X12972D01*
Y11122*
X13720*
Y11870*
G37*
%LNdeploy(58mm)-3*%
%LPD*%
G54D24*
X6969Y1787D02*
Y3072D01*
X6693Y3348D02*
X6969Y3072D01*
X9646Y2953D02*
X11693D01*
X8992Y2299D02*
X9646Y2953D01*
X8992Y1827D02*
Y2299D01*
X9992Y2276D02*
X10276Y2559D01*
X13386Y2362D02*
X13976Y2953D01*
X13346Y2323D02*
X13386Y2362D01*
X11575D02*
X13386D01*
X13918Y12480D02*
X13958D01*
X9134D02*
X13918D01*
X6102Y9449D02*
X9134Y12480D01*
X18071Y12087D02*
X18268Y12283D01*
X18071Y11706D02*
Y12087D01*
X16089Y9724D02*
X18071Y11706D01*
X15866Y9961D02*
X17683Y11778D01*
X8346Y9724D02*
X16089D01*
X8189Y9961D02*
X15866D01*
X6165Y7937D02*
X8189Y9961D01*
X5559Y6937D02*
X8346Y9724D01*
X13819Y7677D02*
X14055Y7441D01*
X11370Y7317D02*
X13982Y4705D01*
X6834Y7317D02*
X11370D01*
X11443Y7494D02*
X14055Y4882D01*
X6760Y7494D02*
X11443D01*
X7264Y15177D02*
X8583Y16496D01*
X984Y4937D02*
X1197D01*
X984Y5937D02*
X1409D01*
X1969Y6496*
X5512*
X984Y6937D02*
X5559D01*
X984Y7937D02*
X6165D01*
X13918Y12480D02*
D01*
X8583Y16496D02*
X9843D01*
X984Y8937D02*
X1063D01*
X1575Y9449*
X6102*
X984Y9937D02*
X6197D01*
X6909Y10650*
X6963*
X7264Y10950*
Y15177*
X984Y10937D02*
X1094Y10827D01*
X6890*
X7087Y11024*
X1575Y3740D02*
X2165D01*
X1181Y3346D02*
X1575Y3740D01*
X591Y3346D02*
X1181D01*
X394Y3543D02*
X591Y3346D01*
X3543Y5118D02*
X4921D01*
X2165Y3740D02*
X3543Y5118D01*
X394Y3543D02*
Y12402D01*
X7087Y11024D02*
Y11417D01*
X5315Y13189D02*
X7087Y11417D01*
X5315Y13189D02*
Y17323D01*
X394Y12402D02*
X1575Y11220D01*
X12992Y1827D02*
Y2008D01*
X1575Y11220D02*
X6693D01*
X5512Y6496D02*
X6693Y7677D01*
X13819*
X1197Y4937D02*
X2579Y6319D01*
X5585*
X6760Y7494*
X16614Y4882D02*
X18189Y6457D01*
X14055Y4882D02*
X16614D01*
X984Y3937D02*
X3189Y6142D01*
X5659*
X6834Y7317*
X13982Y4705D02*
X18012D01*
X19567Y6260*
X10394Y6575D02*
X11417D01*
X11457Y6614*
X4921Y5118D02*
X5118D01*
X7047Y7047*
X9921*
X10394Y6575*
X9992Y1827D02*
Y2276D01*
X10276Y2559D02*
X12047D01*
X12480Y2992*
X10992Y1827D02*
X11039D01*
X11575Y2362*
X13268Y2992D02*
Y3268D01*
X6693Y3348D02*
X6888Y3543D01*
X12992*
X13268Y3268*
G54D26*
X8843Y14528D03*
X6709Y20669D03*
X12992Y1827D03*
G54D27*
X9843Y14528D03*
X5709Y20669D03*
X14843Y5457D03*
X13346Y10496D03*
X12992Y827D03*
X11992Y1827D03*
Y827D03*
X10992Y1827D03*
Y827D03*
X9992Y1827D03*
Y827D03*
X8992Y1827D03*
Y827D03*
X7992Y1827D03*
Y827D03*
X6992Y1827D03*
Y827D03*
X5992Y1827D03*
Y827D03*
X4992Y1827D03*
Y827D03*
X3992Y1827D03*
Y827D03*
X984Y4937D03*
Y5937D03*
Y6937D03*
Y7937D03*
Y8937D03*
Y9937D03*
Y10937D03*
G54D28*
X14843Y6457D03*
X13346Y11496D03*
X984Y3937D03*
G54D29*
X1575Y2992D03*
G54D30*
X11693Y2953D03*
X8661Y12598D03*
X19567Y6260D03*
X18189Y6457D03*
X14055Y7441D03*
X18268Y12283D03*
X17683Y11778D03*
X13918Y12480D03*
X9843Y16496D03*
X5315Y17323D03*
X4331Y17126D03*
Y13386D03*
Y12386D03*
X394Y12402D03*
X11220Y18071D03*
X14331Y14055D03*
X16102D03*
X17795Y8819D03*
X15630D03*
X6496Y9055D03*
X6693Y11220D03*
X3543Y4331D03*
X4921Y5118D03*
X394Y14370D03*
Y13386D03*
X11457Y6614D03*
X10394Y6575D03*
X8228Y6260D03*
X6693Y3348D03*
X13976Y2953D03*
X13268Y2992D03*
X12480D03*
X5827Y14134D03*
X4331Y14370D03*
G54D31*
X1378Y1378D03*
Y21102D03*
X21102Y1378D03*
M02*