%FSLAX24Y24*%
%MOIN*%
%SFA1B1*%

%IPPOS*%
%ADD24C,0.009800*%
%ADD32C,0.023600*%
%ADD33C,0.007900*%
%ADD34C,0.008000*%
%LNdeploy(58mm)-1*%
%LPD*%
G54D24*
X5640Y17657D02*
D01*
D01*
G75*
G03X5542I-49J0D01*
G74*G01*
D01*
G75*
G03X5640I49J0D01*
G74*G01*
X3081Y20571D02*
D01*
D01*
G75*
G03X2983I-49J0D01*
G74*G01*
D01*
G75*
G03X3081I49J0D01*
G74*G01*
X17844Y12736D02*
D01*
D01*
G75*
G03X17746I-49J0D01*
G74*G01*
D01*
G75*
G03X17844I49J0D01*
G74*G01*
X15600Y8287D02*
D01*
D01*
G75*
G03X15502I-49J0D01*
G74*G01*
D01*
G75*
G03X15600I49J0D01*
G74*G01*
X14104Y13327D02*
D01*
D01*
G75*
G03X14006I-49J0D01*
G74*G01*
D01*
G75*
G03X14104I49J0D01*
G74*G01*
X3462Y11636D02*
D01*
D01*
G75*
G03X3364I-49J0D01*
G74*G01*
D01*
G75*
G03X3462I49J0D01*
G74*G01*
X9715Y4646D02*
D01*
D01*
G75*
G03X9617I-49J0D01*
G74*G01*
D01*
G75*
G03X9715I49J0D01*
G74*G01*
X10280Y17847D02*
D01*
D01*
G75*
G03X10182I-49J0D01*
G74*G01*
D01*
G75*
G03X10280I49J0D01*
G74*G01*
X5301Y17336D02*
D01*
D01*
G75*
G03X5203I-49J0D01*
G74*G01*
D01*
G75*
G03X5301I49J0D01*
G74*G01*
X14183Y13057D02*
D01*
D01*
G75*
G03X14085I-49J0D01*
G74*G01*
D01*
G75*
G03X14183I49J0D01*
G74*G01*
X19537Y7500D02*
D01*
D01*
G75*
G03X19439I-49J0D01*
G74*G01*
D01*
G75*
G03X19537I49J0D01*
G74*G01*
X15748Y7906D02*
D01*
D01*
G75*
G03X15650I-49J0D01*
G74*G01*
D01*
G75*
G03X15748I49J0D01*
G74*G01*
X12293Y14469D02*
D01*
D01*
G75*
G03X12195I-49J0D01*
G74*G01*
D01*
G75*
G03X12293I49J0D01*
G74*G01*
X7766Y11317D02*
D01*
D01*
G75*
G03X7668I-49J0D01*
G74*G01*
D01*
G75*
G03X7766I49J0D01*
G74*G01*
X9616Y17146D02*
D01*
D01*
G75*
G03X9518I-49J0D01*
G74*G01*
D01*
G75*
G03X9616I49J0D01*
G74*G01*
G54D32*
X8878Y5217D02*
D01*
D01*
G75*
G03X8642I-118J0D01*
G74*G01*
D01*
G75*
G03X8878I118J0D01*
G74*G01*
X6929Y11811D02*
D01*
D01*
G75*
G03X6693I-118J0D01*
G74*G01*
D01*
G75*
G03X6929I118J0D01*
G74*G01*
G54D33*
X10343Y14028D02*
Y15028D01*
X8343Y14028D02*
X10343D01*
X8343D02*
Y15028D01*
X10343*
X6575Y18386D02*
X6890D01*
Y18032D02*
Y18386D01*
X5709D02*
X6024D01*
X5709Y18032D02*
Y18386D01*
X5209Y20169D02*
Y21169D01*
X7209*
Y20169D02*
Y21169D01*
X5209Y20169D02*
X7209D01*
X3150Y20935D02*
Y21289D01*
X3465*
X4331Y20935D02*
Y21289D01*
X4016D02*
X4331D01*
X11732Y18524D02*
X11890D01*
X11732Y18799D02*
X11890D01*
X15630Y13327D02*
X15787D01*
X15630Y13602D02*
X15787D01*
X14449Y13327D02*
X14606D01*
X14449Y13602D02*
X14606D01*
X16496Y12008D02*
X16811D01*
X16496D02*
Y12362D01*
X17362Y12008D02*
X17677D01*
Y12362*
X17421Y13583D02*
Y13740D01*
X17146Y13583D02*
Y13740D01*
X16831Y13583D02*
Y13740D01*
X16555Y13583D02*
Y13740D01*
X16831Y10827D02*
Y10984D01*
X16555Y10827D02*
Y10984D01*
X18524Y8346D02*
Y8504D01*
X18248Y8346D02*
Y8504D01*
X19114Y8346D02*
Y8504D01*
X18839Y8346D02*
Y8504D01*
X14343Y4957D02*
X15343D01*
X14343D02*
Y6957D01*
X15343*
Y4957D02*
Y6957D01*
X14252Y7559D02*
X14567D01*
X14252D02*
Y7913D01*
X15118Y7559D02*
X15433D01*
Y7913*
X16732Y8957D02*
X16890D01*
X16732Y8681D02*
X16890D01*
X12846Y9996D02*
X13846D01*
X12846D02*
Y11996D01*
X13846*
Y9996D02*
Y11996D01*
X12756Y12598D02*
X13071D01*
X12756D02*
Y12953D01*
X13622Y12598D02*
X13937D01*
Y12953*
X4843Y16398D02*
X5000D01*
X4843Y16673D02*
X5000D01*
X3661D02*
X3819D01*
X3661Y16398D02*
X3819D01*
X2500Y2874D02*
Y3031D01*
X2224Y2874D02*
Y3031D01*
X1362Y14886D02*
X3362D01*
Y14768D02*
Y14886D01*
X1362Y14768D02*
Y14886D01*
X3362Y11886D02*
Y12004D01*
X1362Y11886D02*
Y12004D01*
Y11886D02*
X3362D01*
X9154Y4823D02*
Y9744D01*
X4232Y4823D02*
Y9744D01*
Y4823D02*
X9154D01*
X4232Y9744D02*
X9154D01*
X10551Y18799D02*
X10709D01*
X10551Y18524D02*
X10709D01*
X5768Y16654D02*
Y16811D01*
X6043Y16654D02*
Y16811D01*
X3268Y2894D02*
X3425D01*
X3268Y2618D02*
X3425D01*
X17323Y8091D02*
X17480D01*
X17323Y8366D02*
X17480D01*
X18524Y5591D02*
Y5748D01*
X18248Y5591D02*
Y5748D01*
X16142Y8091D02*
X16299D01*
X16142Y8366D02*
X16299D01*
X18189Y6772D02*
X18504D01*
X18189D02*
Y7126D01*
X19055Y6772D02*
X19370D01*
Y7126*
X3492Y327D02*
Y2327D01*
X12742D02*
X13492D01*
Y327D02*
Y2327D01*
X12742Y327D02*
X13492D01*
X3492D02*
X12742D01*
X3492Y2327D02*
X12742D01*
X12126Y13750D02*
Y14104D01*
X11811Y13750D02*
X12126D01*
X10945D02*
Y14104D01*
Y13750D02*
X11260D01*
X6181Y13386D02*
X7205D01*
X6181Y11417D02*
X7205D01*
X6181D02*
Y13386D01*
X7205Y11417D02*
Y13386D01*
X6732Y13878D02*
X7047D01*
X6732Y14469D02*
X7047D01*
X3169Y3484D02*
X3327D01*
X3169Y3209D02*
X3327D01*
X2264Y4764D02*
Y5079D01*
X2854Y4764D02*
Y5079D01*
X9390Y17992D02*
Y18150D01*
X9114Y17992D02*
Y18150D01*
X8268Y16417D02*
X8583D01*
X8268D02*
Y16772D01*
X9134Y16417D02*
X9449D01*
Y16772*
X15039Y14193D02*
X15197D01*
X15039Y13917D02*
X15197D01*
X484Y11437D02*
X1484D01*
Y3437D02*
Y11437D01*
X484Y3437D02*
X1484D01*
X484D02*
Y11437D01*
X10532Y3661D02*
Y3819D01*
X10256Y3661D02*
Y3819D01*
X11831Y3858D02*
Y4016D01*
X11555Y3858D02*
Y4016D01*
X12618Y3858D02*
Y4016D01*
X12343Y3858D02*
Y4016D01*
X14075Y3858D02*
Y4016D01*
X13799Y3858D02*
Y4016D01*
X13366Y3858D02*
Y4016D01*
X13091Y3858D02*
Y4016D01*
X8583Y13346D02*
Y13609D01*
X8714Y13740*
X8845Y13609*
Y13346*
Y13543*
X8583*
X9239Y13674D02*
X9173Y13740D01*
X9042*
X8976Y13674*
Y13412*
X9042Y13346*
X9173*
X9239Y13412*
X9370Y13740D02*
X9632D01*
X9501*
Y13346*
X10026D02*
X9763D01*
X10026Y13609*
Y13674*
X9960Y13740*
X9829*
X9763Y13674*
X6719Y16837D02*
Y17100D01*
X6653Y17165*
X6522*
X6457Y17100*
Y16837*
X6522Y16772*
X6653*
X6588Y16903D02*
X6719Y16772D01*
X6653D02*
X6719Y16837D01*
X6850Y16772D02*
Y17034D01*
X6916*
X6981Y16968*
Y16772*
Y16968*
X7047Y17034*
X7113Y16968*
Y16772*
X7244Y17100D02*
X7309Y17165D01*
X7441*
X7506Y17100*
Y17034*
X7441Y16968*
X7375*
X7441*
X7506Y16903*
Y16837*
X7441Y16772*
X7309*
X7244Y16837*
X7637Y17165D02*
Y16772D01*
X7834*
X7900Y16837*
Y16903*
X7834Y16968*
X7637*
X7834*
X7900Y17034*
Y17100*
X7834Y17165*
X7637*
X5512Y19567D02*
Y19829D01*
X5643Y19961*
X5774Y19829*
Y19567*
Y19764*
X5512*
X6168Y19895D02*
X6102Y19961D01*
X5971*
X5905Y19895*
Y19633*
X5971Y19567*
X6102*
X6168Y19633*
X6299Y19961D02*
X6561D01*
X6430*
Y19567*
X6693D02*
X6824D01*
X6758*
Y19961*
X6693Y19895*
X2835Y21929D02*
Y21535D01*
X3031*
X3097Y21601*
Y21863*
X3031Y21929*
X2835*
X3228Y21535D02*
X3359D01*
X3294*
Y21929*
X3228Y21863*
X997Y15653D02*
X932Y15719D01*
X801*
X735Y15653*
Y15391*
X801Y15325*
X932*
X997Y15391*
X1129Y15325D02*
Y15587D01*
X1260Y15719*
X1391Y15587*
Y15325*
Y15522*
X1129*
X1522Y15325D02*
Y15719D01*
X1784Y15325*
Y15719*
X1916Y15259D02*
X2178D01*
X2309Y15325D02*
Y15719D01*
X2506*
X2572Y15653*
Y15522*
X2506Y15456*
X2309*
X2703Y15719D02*
Y15325D01*
X2834Y15456*
X2965Y15325*
Y15719*
X3096Y15325D02*
Y15719D01*
X3293*
X3359Y15653*
Y15522*
X3293Y15456*
X3096*
X3228D02*
X3359Y15325D01*
X10079Y19094D02*
Y19488D01*
X10276*
X10341Y19422*
Y19291*
X10276Y19226*
X10079*
X10210D02*
X10341Y19094D01*
X10669D02*
Y19488D01*
X10472Y19291*
X10735*
X11128Y19422D02*
X11063Y19488D01*
X10931*
X10866Y19422*
Y19160*
X10931Y19094*
X11063*
X11128Y19160*
X8425Y18898D02*
Y19291D01*
X8622*
X8688Y19226*
Y19094*
X8622Y19029*
X8425*
X8556D02*
X8688Y18898D01*
X9016D02*
Y19291D01*
X8819Y19094*
X9081*
X9212Y18898D02*
Y19160D01*
X9344Y19291*
X9475Y19160*
Y18898*
Y19094*
X9212*
X1969Y3543D02*
Y3937D01*
X2165*
X2231Y3871*
Y3740*
X2165Y3674*
X1969*
X2100D02*
X2231Y3543D01*
X2362Y3871D02*
X2428Y3937D01*
X2559*
X2624Y3871*
Y3806*
X2559Y3740*
X2493*
X2559*
X2624Y3674*
Y3609*
X2559Y3543*
X2428*
X2362Y3609*
X1969Y16339D02*
Y16732D01*
X2165*
X2231Y16667*
Y16535*
X2165Y16470*
X1969*
X2100D02*
X2231Y16339D01*
X2362Y16667D02*
X2428Y16732D01*
X2559*
X2624Y16667*
Y16601*
X2559Y16535*
X2493*
X2559*
X2624Y16470*
Y16404*
X2559Y16339*
X2428*
X2362Y16404*
X3018Y16667D02*
X2952Y16732D01*
X2821*
X2756Y16667*
Y16404*
X2821Y16339*
X2952*
X3018Y16404*
X4331Y15748D02*
Y16142D01*
X4527*
X4593Y16076*
Y15945*
X4527Y15879*
X4331*
X4462D02*
X4593Y15748D01*
X4724Y16076D02*
X4790Y16142D01*
X4921*
X4987Y16076*
Y16010*
X4921Y15945*
X4855*
X4921*
X4987Y15879*
Y15814*
X4921Y15748*
X4790*
X4724Y15814*
X5118Y16142D02*
Y15748D01*
X5315*
X5380Y15814*
Y15879*
X5315Y15945*
X5118*
X5315*
X5380Y16010*
Y16076*
X5315Y16142*
X5118*
X14094Y14449D02*
Y14842D01*
X14291*
X14357Y14777*
Y14646*
X14291Y14580*
X14094*
X14226D02*
X14357Y14449D01*
X14750D02*
X14488D01*
X14750Y14711*
Y14777*
X14685Y14842*
X14554*
X14488Y14777*
X15144Y14842D02*
X14882D01*
Y14449*
X15144*
X14882Y14646D02*
X15013D01*
X15512Y14449D02*
Y14842D01*
X15709*
X15774Y14777*
Y14646*
X15709Y14580*
X15512*
X15643D02*
X15774Y14449D01*
X16168D02*
X15905D01*
X16168Y14711*
Y14777*
X16102Y14842*
X15971*
X15905Y14777*
X16299Y14842D02*
Y14449D01*
X16496*
X16561Y14514*
Y14777*
X16496Y14842*
X16299*
X17087Y10906D02*
Y11299D01*
X17283*
X17349Y11233*
Y11102*
X17283Y11037*
X17087*
X17218D02*
X17349Y10906D01*
X17743D02*
X17480D01*
X17743Y11168*
Y11233*
X17677Y11299*
X17546*
X17480Y11233*
X17874Y11299D02*
Y10906D01*
X18071*
X18136Y10971*
Y11037*
X18071Y11102*
X17874*
X18071*
X18136Y11168*
Y11233*
X18071Y11299*
X17874*
X12756Y13858D02*
Y14252D01*
X12953*
X13018Y14186*
Y14055*
X12953Y13989*
X12756*
X12887D02*
X13018Y13858D01*
X13412D02*
X13149D01*
X13412Y14121*
Y14186*
X13346Y14252*
X13215*
X13149Y14186*
X13543Y13858D02*
Y14121D01*
X13674Y14252*
X13805Y14121*
Y13858*
Y14055*
X13543*
X3937Y3150D02*
Y3543D01*
X4134*
X4199Y3478*
Y3346*
X4134Y3281*
X3937*
X4068D02*
X4199Y3150D01*
X4331D02*
X4462D01*
X4396*
Y3543*
X4331Y3478*
X18032Y9173D02*
Y9567D01*
X18228*
X18294Y9501*
Y9370*
X18228Y9304*
X18032*
X18163D02*
X18294Y9173D01*
X18425D02*
X18556D01*
X18491*
Y9567*
X18425Y9501*
X19015Y9567D02*
X18753D01*
Y9370*
X18884*
X18753*
Y9173*
X16417Y9213D02*
Y9606D01*
X16614*
X16680Y9541*
Y9409*
X16614Y9344*
X16417*
X16549D02*
X16680Y9213D01*
X16811D02*
X16942D01*
X16876*
Y9606*
X16811Y9541*
X17401Y9606D02*
X17139D01*
Y9213*
X17401*
X17139Y9409D02*
X17270D01*
X19370Y8228D02*
Y8622D01*
X19567*
X19632Y8556*
Y8425*
X19567Y8360*
X19370*
X19501D02*
X19632Y8228D01*
X19764D02*
X19895D01*
X19829*
Y8622*
X19764Y8556*
X20354D02*
X20288Y8622D01*
X20157*
X20092Y8556*
Y8294*
X20157Y8228*
X20288*
X20354Y8294*
X7546Y17546D02*
Y17808D01*
X7480Y17874*
X7349*
X7283Y17808*
Y17546*
X7349Y17480*
X7480*
X7415Y17612D02*
X7546Y17480D01*
X7480D02*
X7546Y17546D01*
X7677Y17480D02*
Y17743D01*
X7743*
X7808Y17677*
Y17480*
Y17677*
X7874Y17743*
X7939Y17677*
Y17480*
X8267D02*
Y17874D01*
X8071Y17677*
X8333*
X8464Y17874D02*
Y17480D01*
X8661*
X8727Y17546*
Y17612*
X8661Y17677*
X8464*
X8661*
X8727Y17743*
Y17808*
X8661Y17874*
X8464*
X11247Y12310D02*
Y12572D01*
X11181Y12638*
X11050*
X10984Y12572*
Y12310*
X11050Y12244*
X11181*
X11115Y12375D02*
X11247Y12244D01*
X11181D02*
X11247Y12310D01*
X11378Y12244D02*
Y12506D01*
X11443*
X11509Y12441*
Y12244*
Y12441*
X11575Y12506*
X11640Y12441*
Y12244*
X12034D02*
X11771D01*
X12034Y12506*
Y12572*
X11968Y12638*
X11837*
X11771Y12572*
X12165Y12638D02*
Y12244D01*
X12362*
X12427Y12310*
Y12375*
X12362Y12441*
X12165*
X12362*
X12427Y12506*
Y12572*
X12362Y12638*
X12165*
X14121Y8688D02*
Y8950D01*
X14055Y9016*
X13924*
X13858Y8950*
Y8688*
X13924Y8622*
X14055*
X13989Y8753D02*
X14121Y8622D01*
X14055D02*
X14121Y8688D01*
X14252Y8622D02*
Y8884D01*
X14317*
X14383Y8819*
Y8622*
Y8819*
X14449Y8884*
X14514Y8819*
Y8622*
X14645D02*
X14777D01*
X14711*
Y9016*
X14645Y8950*
X14973Y9016D02*
Y8622D01*
X15170*
X15236Y8688*
Y8753*
X15170Y8819*
X14973*
X15170*
X15236Y8884*
Y8950*
X15170Y9016*
X14973*
X11575Y11102D02*
X11706D01*
X11640*
Y10709*
X11575*
X11706*
X12165Y11037D02*
X12100Y11102D01*
X11968*
X11903Y11037*
Y10774*
X11968Y10709*
X12100*
X12165Y10774*
Y10905*
X12034*
X12559Y10709D02*
X12296D01*
X12559Y10971*
Y11037*
X12493Y11102*
X12362*
X12296Y11037*
X13268Y5866D02*
X13399D01*
X13333*
Y5472*
X13268*
X13399*
X13858Y5800D02*
X13792Y5866D01*
X13661*
X13596Y5800*
Y5538*
X13661Y5472*
X13792*
X13858Y5538*
Y5669*
X13727*
X13989Y5472D02*
X14120D01*
X14055*
Y5866*
X13989Y5800*
X6427Y15173D02*
X6362Y15239D01*
X6231*
X6165Y15173*
Y14911*
X6231Y14845*
X6362*
X6427Y14911*
X6821Y14845D02*
X6559D01*
X6821Y15107*
Y15173*
X6755Y15239*
X6624*
X6559Y15173*
X2625Y6627D02*
X2559Y6693D01*
X2428*
X2362Y6627*
Y6365*
X2428Y6299*
X2559*
X2625Y6365*
X2756Y6299D02*
X2887D01*
X2821*
Y6693*
X2756Y6627*
X11260Y4606D02*
Y5000D01*
X11457*
X11522Y4934*
Y4803*
X11457Y4737*
X11260*
X11391D02*
X11522Y4606D01*
X11850D02*
Y5000D01*
X11653Y4803*
X11916*
X12165Y4606D02*
Y5000D01*
X12362*
X12428Y4934*
Y4803*
X12362Y4737*
X12165*
X12297D02*
X12428Y4606D01*
X12821Y5000D02*
X12559D01*
Y4803*
X12690Y4869*
X12756*
X12821Y4803*
Y4672*
X12756Y4606*
X12625*
X12559Y4672*
X13071Y4606D02*
Y5000D01*
X13268*
X13333Y4934*
Y4803*
X13268Y4737*
X13071*
X13202D02*
X13333Y4606D01*
X13727Y5000D02*
X13596Y4934D01*
X13464Y4803*
Y4672*
X13530Y4606*
X13661*
X13727Y4672*
Y4737*
X13661Y4803*
X13464*
X14370Y3740D02*
Y4134D01*
X14567*
X14632Y4068*
Y3937*
X14567Y3871*
X14370*
X14501D02*
X14632Y3740D01*
X14764Y4134D02*
X15026D01*
Y4068*
X14764Y3806*
Y3740*
X9016Y3189D02*
Y3583D01*
X9213*
X9278Y3517*
Y3386*
X9213Y3320*
X9016*
X9147D02*
X9278Y3189D01*
X9409Y3517D02*
X9475Y3583D01*
X9606*
X9672Y3517*
Y3451*
X9606Y3386*
X9672Y3320*
Y3255*
X9606Y3189*
X9475*
X9409Y3255*
Y3320*
X9475Y3386*
X9409Y3451*
Y3517*
X9475Y3386D02*
X9606D01*
G54D34*
X13992Y2027D02*
X13826D01*
X13909*
Y1527*
X13992Y1610*
X13659Y1027D02*
X13992D01*
X13659Y694*
Y610*
X13742Y527*
X13909*
X13992Y610*
M02*