M48
;Layer_Color=9474304
;FILE_FORMAT=2:4
INCH,TZ
;TYPE=PLATED
T1F00S00C0.0197
T2F00S00C0.0295
T3F00S00C0.0354
T4F00S00C0.1358
T5F00S00C0.1394
%
T01
X11693Y2953
X12480Y2992
X13268
X13976Y2953
X12795Y9055
X14370Y10433
X16535
X16929Y8071
X18307Y7874
X11457Y6614
X10394Y6575
X8228Y6260
X6693Y3348
X4921Y5118
X3543Y4331
X6496Y9055
X6693Y11220
X8661Y12598
X5827Y14134
X4331Y14370
Y13386
Y12386
X394Y12402
Y13386
Y14370
X4331Y17126
X5315Y17323
X9843
X11220Y18898
X14370Y15157
X16142
X13958Y13583
X17717Y12874
X18307Y13386
T02
X1575Y3150
T03
X12008Y787
Y1787
X13583Y7071
Y8071
X11008Y1787
X10008
X9008
X8008
X7008
X6008
X5008
X4008
X3008
Y787
X4008
X5008
X6008
X7008
X8008
X9008
X10008
X11008
X984Y3937
Y4937
Y5937
Y6937
Y7937
Y8937
Y9937
Y10937
X8843Y15354
X9843
X6709Y20669
X5709
X13386Y12598
Y11598
T04
X22047Y1378
X1378Y22047
T05
X1378Y1378
M30
