%FSLAX24Y24*%
%MOIN*%
%SFA1B1*%

%IPPOS*%
%ADD10R,0.023600X0.041300*%
%ADD11R,0.023600X0.045300*%
%ADD12R,0.027600X0.035400*%
%ADD13R,0.035400X0.027600*%
%ADD14R,0.125000X0.044900*%
%ADD15O,0.070900X0.011800*%
%ADD16O,0.011800X0.070900*%
%ADD17R,0.181900X0.166100*%
%ADD18R,0.021300X0.013800*%
%ADD19R,0.022000X0.033900*%
%ADD20R,0.022000X0.041700*%
%ADD21O,0.070900X0.023600*%
%ADD22R,0.043300X0.066900*%
%ADD23R,0.066900X0.043300*%
%ADD24C,0.009800*%
%ADD25C,0.019700*%
%ADD26R,0.059100X0.059100*%
%ADD27C,0.059100*%
%ADD28R,0.059100X0.059100*%
%ADD29C,0.049200*%
%ADD30C,0.039400*%
%ADD31C,0.196900*%
%LNdeploy(58mm)-1*%
%LPD*%
G36*
X18455Y7785D02*
X18457Y7768D01*
X18459Y7753*
X18463Y7740*
X18467Y7729*
X18472Y7720*
X18479Y7713*
X18486Y7708*
X18495Y7705*
X18504Y7704*
X18307*
X18316Y7705*
X18325Y7708*
X18332Y7713*
X18339Y7720*
X18344Y7729*
X18348Y7740*
X18352Y7753*
X18354Y7768*
X18356Y7785*
Y7804*
X18455*
Y7785*
G37*
G36*
X19203D02*
X19205Y7768D01*
X19207Y7753*
X19211Y7740*
X19215Y7729*
X19220Y7720*
X19227Y7713*
X19234Y7708*
X19243Y7705*
X19252Y7704*
X19055*
X19064Y7705*
X19073Y7708*
X19080Y7713*
X19087Y7720*
X19092Y7729*
X19096Y7740*
X19100Y7753*
X19102Y7768*
X19104Y7785*
Y7804*
X19203*
Y7785*
G37*
G36*
X1225Y8114D02*
X1283Y8063D01*
X1310Y8043*
X1337Y8026*
X1362Y8011*
X1386Y8000*
X1409Y7993*
X1431Y7988*
X1453Y7986*
Y7888*
X1431Y7886*
X1409Y7882*
X1386Y7874*
X1362Y7863*
X1337Y7848*
X1310Y7831*
X1283Y7811*
X1225Y7760*
X1195Y7730*
Y8144*
X1225Y8114*
G37*
G36*
X14308Y7624D02*
X14297Y7612D01*
X14288Y7599*
X14279Y7584*
X14272Y7568*
X14265Y7550*
X14260Y7531*
X14257Y7511*
X14254Y7490*
X14252Y7467*
Y7443*
X14057Y7638*
X14081*
X14126Y7642*
X14146Y7646*
X14164Y7651*
X14182Y7657*
X14198Y7665*
X14213Y7673*
X14226Y7683*
X14239Y7694*
X14308Y7624*
G37*
G36*
X18495Y7294D02*
X18486Y7291D01*
X18479Y7286*
X18472Y7279*
X18467Y7270*
X18463Y7259*
X18459Y7246*
X18457Y7232*
X18455Y7215*
Y7196*
X18356*
Y7215*
X18354Y7232*
X18352Y7246*
X18348Y7259*
X18344Y7270*
X18339Y7279*
X18332Y7286*
X18325Y7291*
X18316Y7294*
X18307Y7295*
X18504*
X18495Y7294*
G37*
G36*
X19243D02*
X19234Y7291D01*
X19227Y7286*
X19220Y7279*
X19215Y7270*
X19211Y7259*
X19207Y7246*
X19205Y7232*
X19203Y7215*
Y7196*
X19104*
Y7215*
X19102Y7232*
X19100Y7246*
X19096Y7259*
X19092Y7270*
X19087Y7279*
X19080Y7286*
X19073Y7291*
X19064Y7294*
X19055Y7295*
X19252*
X19243Y7294*
G37*
G36*
X9986Y7534D02*
X9990Y7533D01*
X9996Y7532*
X10014Y7531*
X10090Y7530*
Y7431*
X9983Y7426*
Y7535*
X9986Y7534*
G37*
G36*
X16491Y7441D02*
X16489Y7460D01*
X16483Y7476*
X16473Y7491*
X16459Y7504*
X16441Y7515*
X16419Y7524*
X16394Y7531*
X16364Y7535*
X16348Y7537*
X16333Y7535*
X16303Y7531*
X16278Y7524*
X16256Y7515*
X16238Y7504*
X16224Y7491*
X16214Y7476*
X16208Y7460*
X16206Y7441*
Y7835*
X16208Y7816*
X16214Y7799*
X16224Y7784*
X16238Y7772*
X16256Y7761*
X16278Y7752*
X16303Y7745*
X16333Y7740*
X16348Y7739*
X16364Y7740*
X16394Y7745*
X16419Y7752*
X16441Y7761*
X16459Y7772*
X16473Y7784*
X16483Y7799*
X16489Y7816*
X16491Y7835*
Y7441*
G37*
G36*
X19151Y8034D02*
Y8032D01*
X19152Y8030*
X19154Y8026*
X19157Y8022*
X19161Y8017*
X19173Y8004*
X19188Y7988*
X19113Y7924*
X19099Y7937*
X19038Y7991*
X19034Y7993*
X19032*
X19152Y8035*
X19151Y8034*
G37*
G36*
X17786Y8053D02*
X17778Y8050D01*
X17770Y8045*
X17764Y8038*
X17758Y8029*
X17754Y8018*
X17751Y8005*
X17748Y7990*
X17747Y7973*
X17746Y7954*
X17648*
X17647Y7973*
X17646Y7990*
X17643Y8005*
X17640Y8018*
X17635Y8029*
X17630Y8038*
X17624Y8045*
X17616Y8050*
X17608Y8053*
X17598Y8054*
X17795*
X17786Y8053*
G37*
G36*
X15333Y8317D02*
X15336Y8309D01*
X15341Y8302*
X15348Y8295*
X15357Y8290*
X15368Y8285*
X15381Y8282*
X15396Y8280*
X15413Y8278*
X15432*
Y8179*
X15413*
X15396Y8177*
X15381Y8175*
X15368Y8171*
X15357Y8167*
X15348Y8161*
X15341Y8155*
X15336Y8148*
X15333Y8139*
X15332Y8130*
Y8327*
X15333Y8317*
G37*
G36*
X18495Y7992D02*
X18486Y7989D01*
X18479Y7984*
X18472Y7978*
X18467Y7969*
X18463Y7958*
X18459Y7945*
X18457Y7930*
X18455Y7914*
Y7895*
X18356*
Y7914*
X18354Y7930*
X18352Y7945*
X18348Y7958*
X18344Y7969*
X18339Y7978*
X18332Y7984*
X18325Y7989*
X18316Y7992*
X18307Y7993*
X18504*
X18495Y7992*
G37*
G36*
X16991Y7441D02*
X16989Y7460D01*
X16983Y7476*
X16973Y7491*
X16959Y7504*
X16941Y7515*
X16919Y7524*
X16894Y7531*
X16864Y7535*
X16848Y7537*
X16833Y7535*
X16803Y7531*
X16778Y7524*
X16756Y7515*
X16738Y7504*
X16724Y7491*
X16714Y7476*
X16708Y7460*
X16706Y7441*
Y7835*
X16708Y7816*
X16714Y7799*
X16724Y7784*
X16738Y7772*
X16756Y7761*
X16778Y7752*
X16803Y7745*
X16833Y7740*
X16848Y7739*
X16864Y7740*
X16894Y7745*
X16919Y7752*
X16941Y7761*
X16959Y7772*
X16973Y7784*
X16983Y7799*
X16989Y7816*
X16991Y7835*
Y7441*
G37*
G36*
X17707Y7845D02*
X17598Y7844D01*
X17608Y7845*
X17616Y7848*
X17624Y7853*
X17630Y7860*
X17635Y7869*
X17640Y7880*
X17643Y7893*
X17646Y7908*
X17647Y7925*
X17648Y7944*
X17746*
X17707Y7845*
G37*
G36*
X16645Y8050D02*
X16639Y8045D01*
X16633Y8035*
X16628Y8021*
X16624Y8003*
X16620Y7982*
X16619Y7966*
X16623Y7942*
X16629Y7916*
X16638Y7894*
X16648Y7877*
X16660Y7863*
X16674Y7853*
X16690Y7847*
X16707Y7845*
X16489*
X16476Y7847*
X16463Y7853*
X16461Y7856*
X16417*
Y7893*
X16411Y7982*
X16408Y8003*
X16404Y8021*
X16399Y8035*
X16393Y8045*
X16386Y8050*
X16379Y8052*
X16652*
X16645Y8050*
G37*
G36*
X1323Y7266D02*
X1308Y7249D01*
X1296Y7230*
X1286Y7208*
X1278Y7183*
X1272Y7156*
X1268Y7126*
X1267Y7094*
X1268Y7059*
X1271Y7022*
X1276Y6982*
X945Y7230*
X990Y7236*
X1105Y7260*
X1136Y7269*
X1164Y7279*
X1189Y7290*
X1211Y7301*
X1229Y7313*
X1243Y7326*
X1323Y7266*
G37*
G36*
X19396Y6502D02*
X19409Y6492D01*
X19424Y6484*
X19440Y6476*
X19458Y6470*
X19476Y6465*
X19497Y6461*
X19518Y6459*
X19541Y6457*
X19565*
X19370Y6262*
Y6286*
X19366Y6330*
X19362Y6350*
X19357Y6369*
X19350Y6387*
X19343Y6403*
X19334Y6418*
X19325Y6431*
X19314Y6443*
X19383Y6513*
X19396Y6502*
G37*
G36*
X10515Y6417D02*
X10486Y6383D01*
X10475Y6366*
X10465Y6349*
X10457Y6332*
X10451Y6315*
X10446Y6299*
X10444Y6282*
X10443Y6266*
X10344*
Y6282*
X10341Y6299*
X10337Y6315*
X10330Y6332*
X10322Y6349*
X10313Y6366*
X10301Y6383*
X10288Y6400*
X10273Y6417*
X10256Y6434*
X10532*
X10515Y6417*
G37*
G36*
X11455D02*
X11431D01*
X11386Y6413*
X11366Y6409*
X11347Y6404*
X11330Y6398*
X11314Y6390*
X11299Y6382*
X11285Y6372*
X11273Y6361*
X11204Y6431*
X11215Y6443*
X11224Y6456*
X11233Y6471*
X11240Y6487*
X11246Y6505*
X11251Y6524*
X11255Y6544*
X11258Y6565*
X11260Y6588*
Y6612*
X11455Y6417*
G37*
G36*
X14550Y6260D02*
X14548Y6279D01*
X14542Y6295*
X14532Y6310*
X14518Y6323*
X14500Y6334*
X14478Y6343*
X14453Y6349*
X14423Y6354*
X14389Y6357*
X14352Y6358*
Y6555*
X14389Y6556*
X14423Y6559*
X14453Y6564*
X14478Y6571*
X14500Y6580*
X14518Y6591*
X14532Y6603*
X14542Y6618*
X14548Y6635*
X14550Y6654*
Y6260*
G37*
G36*
X8359Y6111D02*
X8352Y6101D01*
X8346Y6090*
X8341Y6077*
X8337Y6063*
X8333Y6047*
X8330Y6031*
X8328Y6012*
X8327Y5971*
X8130*
Y5992*
X8126Y6031*
X8124Y6047*
X8120Y6063*
X8116Y6077*
X8111Y6090*
X8105Y6101*
X8098Y6111*
X8091Y6119*
X8366*
X8359Y6111*
G37*
G36*
X18631Y6141D02*
X18610Y6118D01*
X18577Y6080*
X18565Y6063*
X18556Y6048*
X18551Y6035*
X18549Y6024*
Y6015*
X18553Y6007*
X18561Y6001*
X18383Y6100*
X18393Y6096*
X18403Y6095*
X18414Y6096*
X18427Y6100*
X18440Y6105*
X18454Y6114*
X18470Y6124*
X18486Y6137*
X18504Y6153*
X18522Y6171*
X18631Y6141*
G37*
G36*
X8327Y6527D02*
X8330Y6489D01*
X8333Y6472*
X8337Y6457*
X8341Y6443*
X8346Y6430*
X8352Y6419*
X8359Y6409*
X8360Y6407*
X8363Y6406*
X8371Y6403*
X8380*
X8390Y6405*
X8401Y6409*
X8412Y6415*
X8425Y6424*
X8439Y6434*
X8453Y6447*
X8469Y6462*
X8577Y6292*
X8394Y6153*
X8357Y6400*
X8091*
X8098Y6409*
X8105Y6419*
X8111Y6430*
X8116Y6443*
X8120Y6457*
X8124Y6472*
X8126Y6489*
X8128Y6507*
X8130Y6548*
X8327*
Y6527*
G37*
G36*
X10222Y6817D02*
X10236Y6807D01*
X10251Y6799*
X10267Y6791*
X10284Y6785*
X10303Y6780*
X10323Y6776*
X10345Y6773*
X10368Y6772*
X10392*
X10197Y6577*
Y6601*
X10192Y6645*
X10188Y6665*
X10183Y6684*
X10177Y6702*
X10170Y6718*
X10161Y6733*
X10152Y6746*
X10141Y6758*
X10210Y6828*
X10222Y6817*
G37*
G36*
X11507Y6907D02*
X11509Y6890D01*
X11514Y6874*
X11520Y6857*
X11528Y6840*
X11538Y6823*
X11549Y6806*
X11563Y6789*
X11578Y6772*
X11594Y6755*
X11319*
X11336Y6772*
X11364Y6806*
X11376Y6823*
X11385Y6840*
X11393Y6857*
X11400Y6874*
X11404Y6890*
X11407Y6907*
Y6923*
X11506*
X11507Y6907*
G37*
G36*
X9986Y6943D02*
X9990Y6942D01*
X9995*
X10011Y6940*
X10062Y6939*
X10079*
Y6841*
X9983Y6835*
Y6944*
X9986Y6943*
G37*
G36*
X14956Y7174D02*
X14953Y7169D01*
X14950Y7159*
X14948Y7145*
X14946Y7127*
X14942Y7050*
X14941Y6980*
X14744*
Y7017*
X14735Y7159*
X14732Y7169*
X14729Y7174*
X14726Y7176*
X14959*
X14956Y7174*
G37*
G36*
X14942Y6910D02*
X14945Y6876D01*
X14950Y6847*
X14957Y6821*
X14966Y6799*
X14976Y6781*
X14989Y6767*
X15004Y6757*
X15021Y6752*
X15039Y6750*
X14646*
X14664Y6752*
X14681Y6757*
X14696Y6767*
X14709Y6781*
X14719Y6799*
X14728Y6821*
X14735Y6847*
X14740Y6876*
X14743Y6910*
X14744Y6948*
X14941*
X14942Y6910*
G37*
G36*
X8915Y6759D02*
X8924Y6755D01*
X8936Y6752*
X8953Y6749*
X8995Y6745*
X9085Y6742*
X9121*
Y6644*
X9085Y6643*
X8936Y6634*
X8924Y6631*
X8915Y6627*
X8909Y6623*
Y6763*
X8915Y6759*
G37*
G36*
X9348Y6638D02*
X9345Y6639D01*
X9341Y6640*
X9335Y6641*
X9317Y6642*
X9241Y6644*
Y6742*
X9348Y6747*
Y6638*
G37*
G36*
X18440D02*
X18428Y6625D01*
X18418Y6612*
X18409Y6597*
X18401Y6581*
X18395Y6565*
X18390Y6548*
X18387Y6530*
X18385Y6512*
X18384Y6493*
X18385Y6472*
X18205Y6653*
X18225Y6652*
X18244*
X18263Y6654*
X18281Y6658*
X18298Y6663*
X18314Y6669*
X18329Y6676*
X18344Y6686*
X18358Y6696*
X18371Y6708*
X18440Y6638*
G37*
G36*
X6355Y8917D02*
X6347Y8925D01*
X6337Y8931*
X6326Y8937*
X6313Y8943*
X6299Y8947*
X6284Y8950*
X6267Y8953*
X6248Y8955*
X6207Y8957*
Y9154*
X6229*
X6267Y9157*
X6284Y9160*
X6299Y9163*
X6313Y9168*
X6326Y9173*
X6337Y9179*
X6347Y9185*
X6355Y9193*
Y8917*
G37*
G36*
X6645Y9185D02*
X6655Y9179D01*
X6666Y9173*
X6679Y9168*
X6693Y9163*
X6708Y9160*
X6725Y9157*
X6744Y9155*
X6785Y9154*
Y8957*
X6763Y8956*
X6725Y8953*
X6708Y8950*
X6693Y8947*
X6679Y8943*
X6666Y8937*
X6655Y8931*
X6645Y8925*
X6637Y8917*
Y9193*
X6645Y9185*
G37*
G36*
X3403Y9001D02*
Y9000D01*
X3402Y8999*
X3399Y8998*
X3394*
X3379Y8997*
X3327Y8996*
X3284Y9094*
X3302Y9095*
X3362Y9098*
X3373Y9100*
X3391Y9104*
X3397Y9107*
X3403Y9110*
Y9001*
G37*
G36*
X18800Y8584D02*
X18798Y8591D01*
X18793Y8598*
X18783Y8603*
X18769Y8608*
X18751Y8613*
X18730Y8616*
X18704Y8619*
X18687*
X18633Y8616*
X18611Y8613*
X18593Y8608*
X18580Y8603*
X18570Y8598*
X18564Y8591*
X18562Y8584*
Y8857*
X18564Y8850*
X18570Y8843*
X18580Y8838*
X18593Y8833*
X18611Y8828*
X18633Y8825*
X18658Y8822*
X18675*
X18730Y8825*
X18751Y8828*
X18769Y8833*
X18783Y8838*
X18793Y8843*
X18798Y8850*
X18800Y8857*
Y8584*
G37*
G36*
X3403Y8804D02*
X3400Y8805D01*
X3396Y8806*
X3390*
X3372Y8808*
X3296Y8809*
Y8907*
X3403Y8913*
Y8804*
G37*
G36*
X9986Y8912D02*
X9990Y8911D01*
X9996Y8910*
X10014Y8909*
X10090Y8907*
Y8809*
X9983Y8804*
Y8913*
X9986Y8912*
G37*
G36*
X16952Y9043D02*
X16991Y9010D01*
X17008Y8998*
X17023Y8989*
X17036Y8984*
X17047Y8982*
X17056*
X17064Y8986*
X17070Y8994*
X16971Y8816*
X16975Y8826*
X16976Y8836*
X16975Y8847*
X16971Y8860*
X16965Y8873*
X16957Y8888*
X16946Y8903*
X16933Y8919*
X16918Y8937*
X16900Y8955*
X16930Y9064*
X16952Y9043*
G37*
G36*
X9986Y9109D02*
X9990Y9108D01*
X9996Y9107*
X10014Y9106*
X10090Y9104*
Y9006*
X9983Y9001*
Y9110*
X9986Y9109*
G37*
G36*
X4577Y10069D02*
X4587Y9921D01*
X4590Y9908*
X4593Y9899*
X4597Y9893*
X4578*
X4577Y9832*
X4478*
X4475Y9893*
X4458*
X4462Y9899*
X4465Y9908*
X4468Y9921*
X4471Y9937*
X4475Y9979*
X4478Y10069*
Y10106*
X4577*
Y10069*
G37*
G36*
X8908D02*
X8917Y9921D01*
X8921Y9908*
X8924Y9899*
X8928Y9893*
X8909*
X8907Y9832*
X8809*
X8806Y9893*
X8789*
X8793Y9899*
X8796Y9908*
X8799Y9921*
X8802Y9937*
X8806Y9979*
X8809Y10069*
Y10106*
X8907*
X8908Y10069*
G37*
G36*
X13570Y10695D02*
X13664Y10628D01*
X13692Y10612*
X13719Y10598*
X13744Y10588*
X13767Y10581*
X13788Y10576*
X13808Y10575*
X13818Y10476*
X13796Y10475*
X13774Y10470*
X13751Y10462*
X13727Y10450*
X13703Y10435*
X13679Y10417*
X13654Y10396*
X13629Y10371*
X13603Y10343*
X13577Y10311*
X13536Y10723*
X13570Y10695*
G37*
G36*
X1225Y10114D02*
X1283Y10063D01*
X1310Y10043*
X1337Y10026*
X1362Y10011*
X1386Y10000*
X1409Y9993*
X1431Y9988*
X1453Y9986*
Y9888*
X1431Y9886*
X1409Y9882*
X1386Y9874*
X1362Y9863*
X1337Y9848*
X1310Y9831*
X1283Y9811*
X1225Y9760*
X1195Y9730*
Y10144*
X1225Y10114*
G37*
G36*
X3403Y9197D02*
D01*
X3402Y9196*
X3399Y9195*
X3394*
X3379Y9194*
X3327Y9193*
X3284Y9291*
X3302*
X3362Y9295*
X3373Y9297*
X3391Y9301*
X3397Y9304*
X3403Y9306*
Y9197*
G37*
G36*
Y9394D02*
X3400Y9395D01*
X3396Y9396*
X3390Y9397*
X3372Y9398*
X3296Y9400*
Y9498*
X3403Y9503*
Y9394*
G37*
G36*
Y9591D02*
X3400Y9592D01*
X3396Y9593*
X3390Y9594*
X3372Y9595*
X3296Y9596*
Y9695*
X3403Y9700*
Y9591*
G37*
G36*
X1225Y9114D02*
X1283Y9063D01*
X1310Y9043*
X1337Y9026*
X1362Y9011*
X1386Y9000*
X1409Y8993*
X1431Y8988*
X1453Y8986*
Y8888*
X1431Y8886*
X1409Y8881*
X1386Y8874*
X1362Y8863*
X1337Y8848*
X1310Y8831*
X1283Y8811*
X1225Y8760*
X1195Y8730*
Y9144*
X1225Y9114*
G37*
G36*
X16379Y8643D02*
X16652D01*
X16645Y8641*
X16639Y8635*
X16633Y8625*
X16628Y8611*
X16624Y8594*
X16620Y8572*
X16618Y8546*
X16617Y8529*
X16620Y8475*
X16624Y8454*
X16628Y8436*
X16633Y8422*
X16639Y8412*
X16645Y8406*
X16652Y8404*
X16379*
X16386Y8406*
X16393Y8412*
X16399Y8422*
X16404Y8436*
X16408Y8454*
X16411Y8475*
X16414Y8501*
X16415Y8518*
X16411Y8572*
X16408Y8594*
X16404Y8611*
X16399Y8625*
X16393Y8635*
X16386Y8641*
X16379Y8643*
X16377Y8658*
X16371Y8671*
X16361Y8682*
X16348Y8693*
X16330Y8701*
X16308Y8708*
X16283Y8713*
X16253Y8717*
X16220Y8720*
X16182*
Y8917*
X16220Y8918*
X16283Y8924*
X16308Y8930*
X16330Y8937*
X16348Y8945*
X16361Y8955*
X16371Y8967*
X16377Y8980*
X16379Y8995*
Y8643*
G37*
G36*
X3403Y8410D02*
Y8409D01*
X3402Y8408*
X3399*
X3394Y8407*
X3379Y8406*
X3327*
X3284Y8504*
X3302*
X3362Y8508*
X3373Y8509*
X3391Y8514*
X3397Y8516*
X3403Y8519*
Y8410*
G37*
G36*
X9986Y8518D02*
X9990Y8517D01*
X9996Y8516*
X10014Y8515*
X10090Y8514*
Y8415*
X9983Y8410*
Y8519*
X9986Y8518*
G37*
G36*
X17156Y8484D02*
X17157Y8467D01*
X17160Y8452*
X17163Y8439*
X17168Y8428*
X17173Y8419*
X17180Y8412*
X17187Y8407*
X17195Y8404*
X17205Y8403*
X17008*
X17017Y8404*
X17026Y8407*
X17033Y8412*
X17039Y8419*
X17045Y8428*
X17049Y8439*
X17053Y8452*
X17055Y8467*
X17057Y8484*
Y8503*
X17156*
Y8484*
G37*
G36*
X15789Y8130D02*
X15788Y8139D01*
X15785Y8148*
X15780Y8155*
X15773Y8161*
X15764Y8167*
X15753Y8171*
X15740Y8175*
X15726Y8177*
X15709Y8179*
X15690*
Y8278*
X15709*
X15726Y8280*
X15740Y8282*
X15753Y8285*
X15764Y8290*
X15773Y8295*
X15780Y8302*
X15785Y8309*
X15788Y8317*
X15789Y8327*
Y8130*
G37*
G36*
X3403Y8213D02*
X3400Y8214D01*
X3396Y8215*
X3390Y8216*
X3372Y8217*
X3296Y8219*
Y8317*
X3403Y8322*
Y8213*
G37*
G36*
X15101Y8237D02*
X15100D01*
X15099*
X15096Y8238*
X15059*
X15049*
Y8337*
X15101Y8338*
Y8237*
G37*
G36*
X10482Y8387D02*
X10483Y8367D01*
X10485Y8348*
X10489Y8330*
X10493Y8312*
X10500Y8295*
X10507Y8279*
X10516Y8263*
X10527Y8248*
X10539Y8233*
X10552Y8219*
X10398Y8233*
X10314Y8456*
X10327Y8444*
X10339Y8435*
X10350Y8429*
X10359Y8427*
X10366Y8429*
X10373Y8433*
X10378Y8441*
X10381Y8452*
X10383Y8467*
X10384Y8485*
X10482Y8387*
G37*
G36*
X3403Y8607D02*
Y8606D01*
X3402Y8605*
X3399*
X3394Y8604*
X3379Y8603*
X3327Y8602*
X3284Y8701*
X3302*
X3362Y8705*
X3373Y8706*
X3391Y8710*
X3397Y8713*
X3403Y8716*
Y8607*
G37*
G36*
X15779Y8949D02*
X15789Y8943D01*
X15800Y8937*
X15813Y8931*
X15827Y8927*
X15842Y8924*
X15859Y8921*
X15878Y8919*
X15919Y8917*
Y8720*
X15897*
X15859Y8717*
X15842Y8714*
X15827Y8711*
X15813Y8706*
X15800Y8701*
X15789Y8695*
X15779Y8689*
X15770Y8681*
Y8957*
X15779Y8949*
G37*
G36*
X10433Y8858D02*
X10384Y8711D01*
X10383Y8729*
X10380Y8746*
X10375Y8761*
X10368Y8774*
X10359Y8784*
X10348Y8793*
X10336Y8800*
X10321Y8805*
X10304Y8808*
X10285Y8809*
X10216Y8907*
X10234Y8908*
X10248Y8910*
X10260Y8914*
X10268Y8919*
X10272Y8925*
X10273Y8933*
X10271Y8942*
X10266Y8952*
X10257Y8964*
X10245Y8977*
X10433Y8858*
G37*
G36*
X9308Y8727D02*
X9317Y8724D01*
X9330Y8721*
X9346Y8718*
X9389Y8714*
X9478Y8711*
X9515*
Y8612*
X9478*
X9330Y8602*
X9317Y8599*
X9308Y8596*
X9302Y8592*
Y8611*
X9241Y8612*
Y8711*
X9302Y8714*
Y8731*
X9308Y8727*
G37*
G36*
X14655Y8404D02*
X14642Y8390D01*
X14630Y8376*
X14619Y8362*
X14610Y8348*
X14602Y8334*
X14596Y8320*
X14591Y8307*
X14587Y8293*
X14585Y8279*
X14584Y8265*
X14585Y8493*
X14586Y8490*
X14588Y8489*
X14592*
X14597Y8492*
X14603Y8496*
X14610Y8502*
X14630Y8519*
X14655Y8544*
Y8404*
G37*
G36*
X17195Y8643D02*
X17187Y8640D01*
X17180Y8635*
X17173Y8628*
X17168Y8619*
X17163Y8608*
X17160Y8595*
X17157Y8580*
X17156Y8563*
Y8545*
X17057*
Y8563*
X17055Y8580*
X17053Y8595*
X17049Y8608*
X17045Y8619*
X17039Y8628*
X17033Y8635*
X17026Y8640*
X17017Y8643*
X17008Y8644*
X17205*
X17195Y8643*
G37*
G36*
X17989Y8859D02*
X17995Y8850D01*
X18002Y8843*
X18012Y8837*
X18023Y8831*
X18037Y8827*
X18052Y8823*
X18070Y8821*
X18072*
X18139Y8825*
X18161Y8828*
X18178Y8833*
X18192Y8838*
X18202Y8843*
X18208Y8850*
X18210Y8857*
Y8584*
X18208Y8591*
X18202Y8598*
X18192Y8603*
X18178Y8608*
X18161Y8613*
X18139Y8616*
X18113Y8619*
X18050Y8622*
X18013*
Y8625*
X17857Y8632*
X17986Y8868*
X17989Y8859*
G37*
G36*
X10218Y3308D02*
X10217Y3306D01*
X10214Y3304*
X10209Y3303*
X10202Y3301*
X10193Y3300*
X10170Y3298*
X10119Y3297*
Y3396*
X10138*
X10155Y3398*
X10170Y3400*
X10183Y3404*
X10194Y3408*
X10203Y3413*
X10210Y3420*
X10215Y3427*
X10218Y3436*
X10219Y3445*
X10218Y3308*
G37*
G36*
X11782Y3505D02*
X11774Y3502D01*
X11766Y3497*
X11760Y3490*
X11754Y3481*
X11750Y3470*
X11747Y3458*
X11744Y3443*
X11743Y3426*
X11742Y3407*
X11644*
X11643Y3426*
X11642Y3443*
X11639Y3458*
X11636Y3470*
X11631Y3481*
X11626Y3490*
X11620Y3497*
X11612Y3502*
X11604Y3505*
X11594Y3506*
X11791*
X11782Y3505*
G37*
G36*
X12569D02*
X12561Y3502D01*
X12554Y3497*
X12547Y3490*
X12542Y3481*
X12537Y3470*
X12534Y3458*
X12531Y3443*
X12530Y3426*
Y3407*
X12431*
Y3426*
X12429Y3443*
X12427Y3458*
X12423Y3470*
X12419Y3481*
X12413Y3490*
X12407Y3497*
X12400Y3502*
X12391Y3505*
X12382Y3506*
X12579*
X12569Y3505*
G37*
G36*
X3681Y3436D02*
X3684Y3427D01*
X3689Y3420*
X3696Y3413*
X3704Y3408*
X3715Y3404*
X3728Y3400*
X3743Y3398*
X3760Y3396*
X3778*
Y3297*
X3760*
X3743Y3295*
X3728Y3293*
X3715Y3289*
X3704Y3285*
X3696Y3280*
X3689Y3273*
X3684Y3266*
X3681Y3257*
X3680Y3248*
Y3445*
X3681Y3436*
G37*
G36*
X12530Y3285D02*
X12533Y3268D01*
X12537Y3252*
X12544Y3235*
X12552Y3218*
X12561Y3201*
X12573Y3184*
X12586Y3167*
X12601Y3150*
X12618Y3133*
X12343*
X12359Y3150*
X12388Y3184*
X12399Y3201*
X12409Y3218*
X12417Y3235*
X12423Y3252*
X12428Y3268*
X12430Y3285*
X12431Y3301*
X12530*
Y3285*
G37*
G36*
X13318D02*
X13320Y3268D01*
X13325Y3252*
X13331Y3235*
X13339Y3218*
X13349Y3201*
X13360Y3184*
X13374Y3167*
X13389Y3150*
X13406Y3133*
X13130*
X13147Y3150*
X13175Y3184*
X13187Y3201*
X13196Y3218*
X13204Y3235*
X13211Y3252*
X13215Y3268*
X13218Y3285*
X13219Y3301*
X13317*
X13318Y3285*
G37*
G36*
X10483Y3308D02*
X10474Y3305D01*
X10467Y3301*
X10461Y3294*
X10455Y3285*
X10451Y3274*
X10447Y3261*
X10445Y3246*
X10443Y3229*
Y3210*
X10344*
Y3229*
X10343Y3246*
X10340Y3261*
X10337Y3274*
X10332Y3285*
X10327Y3294*
X10320Y3301*
X10313Y3305*
X10305Y3308*
X10295Y3309*
X10492*
X10483Y3308*
G37*
G36*
X13357Y3505D02*
X13348Y3502D01*
X13341Y3497*
X13335Y3490*
X13329Y3481*
X13325Y3470*
X13321Y3458*
X13319Y3443*
X13317Y3426*
Y3407*
X13219*
X13218Y3426*
X13217Y3443*
X13214Y3458*
X13211Y3470*
X13206Y3481*
X13201Y3490*
X13194Y3497*
X13187Y3502*
X13179Y3505*
X13169Y3506*
X13366*
X13357Y3505*
G37*
G36*
X4581Y3991D02*
X4580Y3986D01*
X4579Y3980*
X4578Y3963*
X4577Y3887*
X4478*
X4473Y3993*
X4582*
X4581Y3991*
G37*
G36*
X6943D02*
X6942Y3986D01*
Y3980*
X6940Y3963*
X6939Y3887*
X6841*
X6835Y3993*
X6944*
X6943Y3991*
G37*
G36*
X10156Y4205D02*
X10172Y4192D01*
X10179Y4187*
X10186Y4182*
X10193Y4179*
X10199Y4176*
X10206Y4174*
X10212Y4172*
X10218*
X10219Y3934*
X10218Y3948*
X10216Y3962*
X10212Y3976*
X10207Y3990*
X10201Y4004*
X10193Y4018*
X10184Y4031*
X10174Y4045*
X10162Y4060*
X10148Y4074*
Y4213*
X10156Y4205*
G37*
G36*
X4384Y3991D02*
X4383Y3986D01*
Y3980*
X4381Y3963*
X4380Y3887*
X4282*
X4276Y3993*
X4385*
X4384Y3991*
G37*
G36*
X14065Y3505D02*
X14057Y3502D01*
X14050Y3497*
X14043Y3490*
X14038Y3481*
X14033Y3470*
X14030Y3458*
X14028Y3443*
X14026Y3426*
Y3407*
X13927*
Y3426*
X13925Y3443*
X13923Y3458*
X13919Y3470*
X13915Y3481*
X13909Y3490*
X13903Y3497*
X13896Y3502*
X13887Y3505*
X13878Y3506*
X14075*
X14065Y3505*
G37*
G36*
X6924Y3509D02*
X6913Y3498D01*
X6904Y3487*
X6896Y3476*
X6890Y3465*
X6885Y3455*
X6881Y3444*
X6879Y3434*
Y3424*
X6880Y3414*
X6882Y3404*
X6749Y3537*
X6759Y3534*
X6769*
X6779*
X6789Y3536*
X6800Y3540*
X6810Y3545*
X6821Y3551*
X6832Y3559*
X6843Y3568*
X6854Y3579*
X6924Y3509*
G37*
G36*
X11192Y4097D02*
X11194Y4082D01*
X11197Y4071*
X11202Y4063*
X11208Y4058*
X11216Y4057*
X11225Y4059*
X11235Y4065*
X11247Y4074*
X11261Y4086*
Y3947*
X11247Y3933*
X11235Y3918*
X11225Y3902*
X11216Y3887*
X11208Y3870*
X11202Y3853*
X11197Y3835*
X11194Y3817*
X11192Y3798*
X11191Y3779*
X11093Y3898*
X11191Y4115*
X11192Y4097*
G37*
G36*
X2186Y3111D02*
X2184Y3119D01*
X2178Y3125*
X2169Y3131*
X2155Y3136*
X2137Y3140*
X2115Y3143*
X2090Y3146*
X2027Y3149*
X1989Y3150*
Y3346*
X2027Y3347*
X2115Y3353*
X2137Y3356*
X2155Y3360*
X2169Y3365*
X2178Y3371*
X2184Y3377*
X2186Y3385*
Y3111*
G37*
G36*
X11720Y1712D02*
X11714Y1724D01*
X11706Y1736*
X11698Y1745*
X11687Y1754*
X11676Y1761*
X11663Y1767*
X11649Y1772*
X11633Y1775*
X11617Y1777*
X11598Y1778*
Y1876*
X11617Y1877*
X11633Y1879*
X11649Y1882*
X11663Y1886*
X11676Y1892*
X11687Y1900*
X11698Y1908*
X11706Y1918*
X11714Y1929*
X11720Y1942*
Y1712*
G37*
G36*
X6277Y1907D02*
X6282Y1900D01*
X6287Y1895*
X6294Y1890*
X6302Y1885*
X6312Y1882*
X6322Y1879*
X6334Y1878*
X6348Y1876*
X6362*
Y1778*
X6348Y1777*
X6334Y1776*
X6322Y1774*
X6312Y1771*
X6302Y1768*
X6294Y1764*
X6287Y1759*
X6282Y1753*
X6277Y1747*
X6274Y1740*
Y1914*
X6277Y1907*
G37*
G36*
X4712Y2179D02*
X4731Y2167D01*
X4753Y2156*
X4778Y2146*
X4806Y2139*
X4836Y2132*
X4870Y2127*
X4947Y2122*
X4989*
X4697Y1830*
Y1872*
X4691Y1949*
X4687Y1983*
X4680Y2013*
X4672Y2041*
X4663Y2066*
X4652Y2088*
X4640Y2107*
X4626Y2123*
X4696Y2193*
X4712Y2179*
G37*
G36*
X3781Y1620D02*
X3751Y1650D01*
X3693Y1700*
X3666Y1721*
X3640Y1738*
X3614Y1752*
X3590Y1763*
X3567Y1771*
X3545Y1776*
X3524Y1778*
Y1876*
X3545Y1878*
X3567Y1882*
X3590Y1890*
X3614Y1901*
X3640Y1915*
X3666Y1933*
X3693Y1953*
X3751Y2004*
X3781Y2033*
Y1620*
G37*
G36*
X13043Y1274D02*
X13048Y1252D01*
X13056Y1229*
X13067Y1204*
X13081Y1179*
X13098Y1153*
X13119Y1126*
X13169Y1068*
X13199Y1038*
X12785*
X12815Y1068*
X12866Y1126*
X12886Y1153*
X12904Y1179*
X12918Y1204*
X12929Y1229*
X12937Y1252*
X12941Y1274*
X12943Y1295*
X13041*
X13043Y1274*
G37*
G36*
X13081Y1532D02*
X13073Y1529D01*
X13065Y1524*
X13059Y1517*
X13054Y1508*
X13049Y1497*
X13046Y1484*
X13043Y1470*
X13042Y1453*
X13041Y1434*
X12943*
X12942Y1453*
X12941Y1470*
X12938Y1484*
X12935Y1497*
X12931Y1508*
X12925Y1517*
X12919Y1524*
X12911Y1529*
X12903Y1532*
X12894Y1533*
X13091*
X13081Y1532*
G37*
G36*
X9812Y1593D02*
X9785Y1612D01*
X9760Y1626*
X9736Y1637*
X9712Y1644*
X9689Y1647*
X9667*
X9646Y1642*
X9626Y1633*
X9606Y1621*
X9588Y1605*
X9540Y1696*
X9554Y1711*
X9587Y1751*
X9624Y1802*
X9714Y1939*
X9740Y1980*
X9812Y1593*
G37*
G36*
X7712Y2179D02*
X7731Y2167D01*
X7753Y2156*
X7778Y2146*
X7806Y2139*
X7836Y2132*
X7870Y2127*
X7947Y2122*
X7989*
X7697Y1830*
Y1872*
X7691Y1949*
X7687Y1983*
X7680Y2013*
X7672Y2041*
X7663Y2066*
X7652Y2088*
X7640Y2107*
X7626Y2123*
X7696Y2193*
X7712Y2179*
G37*
G36*
X3779Y2806D02*
X3782Y2797D01*
X3787Y2790*
X3794Y2783*
X3803Y2778*
X3814Y2774*
X3827Y2770*
X3841Y2768*
X3858Y2766*
X3877*
Y2667*
X3858*
X3841Y2665*
X3827Y2663*
X3814Y2659*
X3803Y2655*
X3794Y2650*
X3787Y2643*
X3782Y2636*
X3779Y2627*
X3778Y2618*
Y2815*
X3779Y2806*
G37*
G36*
X2816Y3170D02*
X3089D01*
X3082Y3169*
X3076Y3163*
X3070Y3153*
X3065Y3139*
X3061Y3121*
X3057Y3100*
X3055Y3074*
X3054Y3067*
X3055Y3058*
X3060Y3028*
X3067Y3002*
X3076Y2980*
X3087Y2963*
X3099Y2949*
X3114Y2939*
X3131Y2933*
X3150Y2931*
X2915Y2932*
X2903Y2934*
X2893Y2940*
X2884Y2950*
X2876Y2963*
X2872Y2974*
X2854*
Y3011*
X2848Y3100*
X2845Y3121*
X2841Y3139*
X2836Y3153*
X2830Y3163*
X2823Y3169*
X2816Y3170*
X2814Y3185*
X2808Y3198*
X2798Y3210*
X2785Y3220*
X2767Y3229*
X2745Y3236*
X2720Y3241*
X2690Y3245*
X2681Y3246*
X2664Y3244*
X2634Y3239*
X2609Y3232*
X2587Y3223*
X2569Y3213*
X2555Y3200*
X2545Y3185*
X2539Y3168*
X2537Y3150*
X2538Y3385*
X2540Y3396*
X2546Y3406*
X2556Y3415*
X2570Y3423*
X2587Y3430*
X2609Y3435*
X2619Y3437*
Y3445*
X2657Y3446*
X2720Y3452*
X2745Y3457*
X2767Y3464*
X2785Y3473*
X2798Y3483*
X2808Y3495*
X2814Y3508*
X2816Y3522*
Y3170*
G37*
G36*
X14026Y3245D02*
X14029Y3229D01*
X14034Y3212*
X14040Y3196*
X14048Y3179*
X14057Y3162*
X14069Y3145*
X14082Y3128*
X14097Y3111*
X14114Y3093*
X13839*
X13855Y3111*
X13884Y3145*
X13895Y3162*
X13905Y3179*
X13913Y3196*
X13919Y3212*
X13924Y3229*
X13926Y3245*
X13927Y3261*
X14026*
Y3245*
G37*
G36*
X2531Y2615D02*
X2527Y2607D01*
X2526Y2598*
X2528Y2586*
X2533Y2573*
X2542Y2559*
X2554Y2542*
X2568Y2524*
X2608Y2482*
X2499Y2451*
X2480Y2469*
X2447Y2497*
X2431Y2508*
X2417Y2516*
X2403Y2522*
X2391Y2525*
X2379Y2526*
X2369Y2525*
X2360Y2521*
X2538Y2621*
X2531Y2615*
G37*
G36*
X10712Y2179D02*
X10731Y2167D01*
X10753Y2156*
X10778Y2146*
X10806Y2139*
X10836Y2132*
X10870Y2127*
X10947Y2122*
X10989*
X10697Y1830*
Y1872*
X10691Y1949*
X10687Y1983*
X10680Y2013*
X10672Y2041*
X10663Y2066*
X10652Y2088*
X10640Y2107*
X10626Y2123*
X10696Y2193*
X10712Y2179*
G37*
G36*
X9073Y2288D02*
X9074Y2268D01*
X9079Y2247*
X9086Y2224*
X9096Y2199*
X9110Y2172*
X9126Y2144*
X9167Y2083*
X9192Y2049*
X9220Y2014*
X8809Y2058*
X8841Y2084*
X8893Y2135*
X8915Y2160*
X8933Y2184*
X8948Y2208*
X8960Y2231*
X8968Y2254*
X8973Y2277*
X8974Y2299*
X9073Y2288*
G37*
G36*
X13042Y2200D02*
X13043Y2183D01*
X13046Y2168*
X13049Y2156*
X13054Y2145*
X13059Y2136*
X13065Y2129*
X13073Y2124*
X13081Y2121*
X13091Y2120*
X12894*
X12903Y2121*
X12911Y2124*
X12919Y2129*
X12925Y2136*
X12931Y2145*
X12935Y2156*
X12938Y2168*
X12941Y2183*
X12942Y2200*
X12943Y2219*
X13041*
X13042Y2200*
G37*
G36*
X15991Y5276D02*
X15990Y5285D01*
X15987Y5293*
X15982Y5301*
X15975Y5307*
X15966Y5312*
X15955Y5317*
X15942Y5320*
X15927Y5323*
X15910Y5324*
X15891Y5325*
Y5423*
X15910Y5424*
X15927Y5425*
X15942Y5428*
X15955Y5431*
X15966Y5436*
X15975Y5441*
X15982Y5447*
X15987Y5455*
X15990Y5463*
X15991Y5472*
Y5276*
G37*
G36*
X16207Y5463D02*
X16210Y5455D01*
X16215Y5447*
X16222Y5441*
X16231Y5436*
X16242Y5431*
X16255Y5428*
X16270Y5425*
X16287Y5424*
X16306Y5423*
Y5325*
X16287Y5324*
X16270Y5323*
X16255Y5320*
X16242Y5317*
X16231Y5312*
X16222Y5307*
X16215Y5301*
X16210Y5293*
X16207Y5285*
X16206Y5276*
Y5472*
X16207Y5463*
G37*
G36*
X16491Y5276D02*
X16490Y5285D01*
X16487Y5293*
X16482Y5301*
X16475Y5307*
X16466Y5312*
X16455Y5317*
X16442Y5320*
X16427Y5323*
X16410Y5324*
X16391Y5325*
Y5423*
X16410Y5424*
X16427Y5425*
X16442Y5428*
X16455Y5431*
X16466Y5436*
X16475Y5441*
X16482Y5447*
X16487Y5455*
X16490Y5463*
X16491Y5472*
Y5276*
G37*
G36*
X3403Y5260D02*
X3400Y5261D01*
X3396Y5262*
X3390Y5263*
X3372Y5264*
X3296Y5266*
Y5364*
X3403Y5369*
Y5260*
G37*
G36*
X1350Y5233D02*
X1336Y5217D01*
X1324Y5198*
X1313Y5176*
X1304Y5151*
X1296Y5124*
X1290Y5093*
X1285Y5059*
X1280Y4983*
Y4940*
X987Y5232*
X1030Y5233*
X1106Y5238*
X1140Y5243*
X1171Y5249*
X1199Y5257*
X1224Y5266*
X1246Y5277*
X1265Y5289*
X1281Y5303*
X1350Y5233*
G37*
G36*
X8367Y5111D02*
X8372Y5102D01*
X8378Y5091*
X8388Y5078*
X8415Y5045*
X8476Y4980*
X8502Y4953*
X8432Y4884*
X8406Y4910*
X8295Y5007*
X8291Y5009*
X8282Y5012*
X8268Y5014*
X8254Y5012*
X8244Y5009*
X8241Y5007*
X8228Y4998*
X8195Y4971*
X8129Y4910*
X8103Y4884*
X8033Y4953*
X8059Y4980*
X8157Y5091*
X8164Y5102*
X8168Y5111*
X8169Y5118*
X8191Y5097*
X8268Y5118*
X8301Y5053*
X8366Y5118*
X8367Y5111*
G37*
G36*
X15122Y5563D02*
X15141Y5534D01*
X15161Y5508*
X15181Y5485*
X15202Y5466*
X15223Y5451*
X15245Y5439*
X15267Y5430*
X15290Y5425*
X15313Y5423*
X15284Y5325*
X15268Y5324*
X15249Y5320*
X15226Y5314*
X15201Y5305*
X15142Y5280*
X15071Y5244*
X14987Y5199*
X15103Y5596*
X15122Y5563*
G37*
G36*
X16707Y5463D02*
X16710Y5455D01*
X16715Y5447*
X16722Y5441*
X16731Y5436*
X16742Y5431*
X16755Y5428*
X16770Y5425*
X16787Y5424*
X16806Y5423*
Y5325*
X16787Y5324*
X16770Y5323*
X16755Y5320*
X16742Y5317*
X16731Y5312*
X16722Y5307*
X16715Y5301*
X16710Y5293*
X16707Y5285*
X16706Y5276*
Y5472*
X16707Y5463*
G37*
G36*
X18211Y5276D02*
X18210Y5285D01*
X18207Y5293*
X18202Y5301*
X18195Y5307*
X18186Y5312*
X18175Y5317*
X18162Y5320*
X18147Y5323*
X18130Y5324*
X18111Y5325*
Y5423*
X18130Y5424*
X18147Y5425*
X18162Y5428*
X18175Y5431*
X18186Y5436*
X18195Y5441*
X18202Y5447*
X18207Y5455*
X18210Y5463*
X18211Y5472*
Y5276*
G37*
G36*
X2892Y5542D02*
X2895Y5533D01*
X2900Y5526*
X2907Y5520*
X2916Y5514*
X2927Y5510*
X2940Y5506*
X2955Y5504*
X2972Y5502*
X2991*
Y5404*
X2972Y5403*
X2955Y5402*
X2940Y5399*
X2927Y5396*
X2916Y5391*
X2907Y5386*
X2900Y5379*
X2895Y5372*
X2892Y5364*
X2891Y5354*
Y5551*
X2892Y5542*
G37*
G36*
X1250Y6069D02*
X1264Y6052D01*
X1279Y6036*
X1295Y6023*
X1311Y6012*
X1329Y6003*
X1348Y5995*
X1367Y5990*
X1388Y5987*
X1409Y5986*
Y5888*
X1388Y5887*
X1367Y5884*
X1348Y5879*
X1329Y5871*
X1311Y5862*
X1295Y5851*
X1279Y5838*
X1264Y5822*
X1250Y5805*
X1238Y5785*
Y6089*
X1250Y6069*
G37*
G36*
X17707Y5463D02*
X17710Y5455D01*
X17715Y5447*
X17722Y5441*
X17731Y5436*
X17742Y5431*
X17755Y5428*
X17770Y5425*
X17787Y5424*
X17806Y5423*
Y5325*
X17787Y5324*
X17770Y5323*
X17755Y5320*
X17742Y5317*
X17731Y5312*
X17722Y5307*
X17715Y5301*
X17710Y5293*
X17707Y5285*
X17706Y5276*
Y5472*
X17707Y5463*
G37*
G36*
X16991Y5276D02*
X16990Y5285D01*
X16987Y5293*
X16982Y5301*
X16975Y5307*
X16966Y5312*
X16955Y5317*
X16942Y5320*
X16927Y5323*
X16910Y5324*
X16891Y5325*
Y5423*
X16910Y5424*
X16927Y5425*
X16942Y5428*
X16955Y5431*
X16966Y5436*
X16975Y5441*
X16982Y5447*
X16987Y5455*
X16990Y5463*
X16991Y5472*
Y5276*
G37*
G36*
X17207Y5463D02*
X17210Y5455D01*
X17215Y5447*
X17222Y5441*
X17231Y5436*
X17242Y5431*
X17255Y5428*
X17270Y5425*
X17287Y5424*
X17306Y5423*
Y5325*
X17287Y5324*
X17270Y5323*
X17255Y5320*
X17242Y5317*
X17231Y5312*
X17222Y5307*
X17215Y5301*
X17210Y5293*
X17207Y5285*
X17206Y5276*
Y5472*
X17207Y5463*
G37*
G36*
X17491Y5276D02*
X17490Y5285D01*
X17487Y5293*
X17482Y5301*
X17475Y5307*
X17466Y5312*
X17455Y5317*
X17442Y5320*
X17427Y5323*
X17410Y5324*
X17391Y5325*
Y5423*
X17410Y5424*
X17427Y5425*
X17442Y5428*
X17455Y5431*
X17466Y5436*
X17475Y5441*
X17482Y5447*
X17487Y5455*
X17490Y5463*
X17491Y5472*
Y5276*
G37*
G36*
X4867Y4929D02*
X4857Y4931D01*
X4846Y4932*
X4836Y4931*
X4825Y4929*
X4815Y4926*
X4804Y4921*
X4793Y4914*
X4782Y4906*
X4771Y4897*
X4759Y4886*
X4690Y4956*
X4700Y4967*
X4710Y4979*
X4717Y4990*
X4724Y5001*
X4729Y5011*
X4732Y5022*
X4734Y5033*
X4735Y5043*
X4734Y5053*
X4732Y5064*
X4867Y4929*
G37*
G36*
X13404Y4321D02*
X13407Y4313D01*
X13412Y4306*
X13419Y4299*
X13428Y4294*
X13439Y4289*
X13452Y4286*
X13467Y4283*
X13484Y4282*
X13503Y4281*
Y4183*
X13484*
X13467Y4181*
X13452Y4179*
X13439Y4175*
X13428Y4171*
X13419Y4165*
X13412Y4159*
X13407Y4152*
X13404Y4143*
X13403Y4134*
Y4331*
X13404Y4321*
G37*
G36*
X13762Y4134D02*
X13761Y4143D01*
X13758Y4152*
X13753Y4159*
X13746Y4165*
X13737Y4171*
X13726Y4175*
X13713Y4179*
X13698Y4181*
X13682Y4183*
X13663*
Y4281*
X13682Y4282*
X13698Y4283*
X13713Y4286*
X13726Y4289*
X13737Y4294*
X13746Y4299*
X13753Y4306*
X13758Y4313*
X13761Y4321*
X13762Y4331*
Y4134*
G37*
G36*
X10120Y4381D02*
X10107Y4367D01*
X10097Y4353*
X10090Y4339*
X10086Y4325*
X10085Y4311*
X10086Y4297*
X10090Y4283*
X10097Y4269*
X10107Y4255*
X10120Y4241*
X10030Y4192*
X10015Y4205*
X10001Y4217*
X9985Y4228*
X9969Y4237*
X9953Y4244*
X9936Y4251*
X9918Y4256*
X9900Y4259*
X9881Y4261*
X9862Y4262*
Y4360*
X9881Y4361*
X9900Y4363*
X9918Y4367*
X9936Y4371*
X9953Y4378*
X9969Y4385*
X9985Y4394*
X10001Y4405*
X10015Y4417*
X10030Y4430*
X10120Y4381*
G37*
G36*
X13054Y4134D02*
X13053Y4143D01*
X13050Y4152*
X13045Y4159*
X13038Y4165*
X13029Y4171*
X13018Y4175*
X13005Y4179*
X12990Y4181*
X12973Y4183*
X12954*
Y4281*
X12973Y4282*
X12990Y4283*
X13005Y4286*
X13018Y4289*
X13029Y4294*
X13038Y4299*
X13045Y4306*
X13050Y4313*
X13053Y4321*
X13054Y4331*
Y4134*
G37*
G36*
X11869Y4321D02*
X11872Y4313D01*
X11877Y4306*
X11884Y4299*
X11893Y4294*
X11904Y4289*
X11916Y4286*
X11931Y4283*
X11948Y4282*
X11967Y4281*
Y4183*
X11948*
X11931Y4181*
X11916Y4179*
X11904Y4175*
X11893Y4171*
X11884Y4165*
X11877Y4159*
X11872Y4152*
X11869Y4143*
X11868Y4134*
Y4331*
X11869Y4321*
G37*
G36*
X12306Y4134D02*
X12305Y4143D01*
X12302Y4152*
X12297Y4159*
X12290Y4165*
X12281Y4171*
X12270Y4175*
X12257Y4179*
X12242Y4181*
X12225Y4183*
X12206*
Y4281*
X12225Y4282*
X12242Y4283*
X12257Y4286*
X12270Y4289*
X12281Y4294*
X12290Y4299*
X12297Y4306*
X12302Y4313*
X12305Y4321*
X12306Y4331*
Y4134*
G37*
G36*
X12656Y4321D02*
X12659Y4313D01*
X12664Y4306*
X12671Y4299*
X12680Y4294*
X12691Y4289*
X12704Y4286*
X12719Y4283*
X12736Y4282*
X12755Y4281*
Y4183*
X12736*
X12719Y4181*
X12704Y4179*
X12691Y4175*
X12680Y4171*
X12671Y4165*
X12664Y4159*
X12659Y4152*
X12656Y4143*
X12655Y4134*
Y4331*
X12656Y4321*
G37*
G36*
X9114Y4400D02*
X9117Y4392D01*
X9122Y4384*
X9129Y4378*
X9138Y4373*
X9149Y4368*
X9162Y4365*
X9177Y4362*
X9194Y4361*
X9213Y4360*
Y4262*
X9194Y4261*
X9177Y4260*
X9162Y4257*
X9149Y4254*
X9138Y4250*
X9129Y4244*
X9122Y4238*
X9117Y4230*
X9114Y4222*
X9113Y4213*
Y4409*
X9114Y4400*
G37*
G36*
X5566Y4629D02*
X5457D01*
X5458Y4631*
X5459Y4636*
X5460Y4642*
X5461Y4659*
X5463Y4735*
X5561*
X5566Y4629*
G37*
G36*
X7929D02*
X7820D01*
X7821Y4631*
Y4635*
X7822Y4641*
X7823Y4657*
X7825Y4708*
Y4724*
X7923*
X7929Y4629*
G37*
G36*
X4041Y4975D02*
X4045Y4974D01*
X4051Y4973*
X4069Y4972*
X4145Y4970*
Y4872*
X4038Y4867*
Y4976*
X4041Y4975*
G37*
G36*
X5369Y4629D02*
X5260D01*
X5261Y4631*
X5262Y4636*
X5263Y4642*
X5264Y4659*
X5266Y4735*
X5364*
X5369Y4629*
G37*
G36*
X1208Y4287D02*
X1198Y4275D01*
X1191Y4265*
X1187Y4255*
X1185Y4248*
X1187Y4241*
X1191Y4236*
X1198Y4233*
X1208Y4231*
X1221Y4230*
X942*
X956Y4231*
X970Y4233*
X984Y4236*
X997Y4241*
X1011Y4248*
X1025Y4255*
X1039Y4265*
X1053Y4275*
X1067Y4287*
X1081Y4301*
X1221*
X1208Y4287*
G37*
G36*
X3250Y4589D02*
X3256Y4555D01*
X3266Y4526*
X3280Y4500*
X3297Y4478*
X3319Y4461*
X3344Y4447*
X3358Y4442*
X3361Y4443*
X3373Y4448*
X3384Y4454*
X3394Y4461*
X3403Y4469*
Y4432*
X3407Y4431*
X3445Y4429*
X3403Y4401*
Y4193*
X3394Y4200*
X3384Y4207*
X3373Y4213*
X3361Y4218*
X3346Y4222*
X3331Y4226*
X3314Y4229*
X3296Y4231*
X3255Y4232*
Y4302*
X3150Y4232*
X3089Y4272*
Y4232*
X3052*
X2989Y4227*
X2963Y4223*
X2942Y4218*
X2924Y4211*
X2910Y4204*
X2900Y4195*
X2894Y4185*
X2893Y4174*
X2892Y4404*
X2854Y4429*
X2892Y4431*
X2891Y4528*
X2893Y4509*
X2899Y4492*
X2909Y4477*
X2923Y4465*
X2941Y4454*
X2956Y4448*
X2980Y4461*
X3002Y4478*
X3020Y4500*
X3033Y4526*
X3043Y4555*
X3049Y4589*
X3051Y4626*
X3248*
X3250Y4589*
G37*
G36*
X8898Y4729D02*
X8901Y4670D01*
X8903Y4659*
X8907Y4641*
X8910Y4634*
X8913Y4629*
X8804*
X8803Y4628*
X8802Y4630*
X8801Y4633*
Y4638*
X8800Y4653*
X8799Y4705*
X8898Y4748*
Y4729*
G37*
G36*
X3495Y16791D02*
X3496Y16774D01*
X3499Y16759*
X3502Y16746*
X3506Y16735*
X3512Y16726*
X3518Y16719*
X3526Y16714*
X3534Y16711*
X3543Y16710*
X3346*
X3356Y16711*
X3364Y16714*
X3372Y16719*
X3378Y16726*
X3383Y16735*
X3388Y16746*
X3391Y16759*
X3394Y16774*
X3395Y16791*
X3396Y16810*
X3494*
X3495Y16791*
G37*
G36*
X5315Y16808D02*
X5320Y16740D01*
X5322Y16729*
X5325Y16721*
X5328Y16715*
X5332Y16711*
X5336Y16710*
X5097*
X5101Y16711*
X5105Y16715*
X5108Y16721*
X5111Y16729*
X5113Y16740*
X5115Y16754*
X5117Y16787*
X5118Y16831*
X5315*
Y16808*
G37*
G36*
X9349Y17154D02*
X9351Y17140D01*
X9355Y17127*
X9359Y17113*
X9366Y17099*
X9374Y17085*
X9383Y17071*
X9393Y17057*
X9405Y17043*
X9419Y17029*
Y16890*
X9409Y16899*
X9376Y16928*
X9369Y16932*
X9363Y16936*
X9358Y16938*
X9353Y16940*
X9349*
X9348Y17168*
X9349Y17154*
G37*
G36*
X9697Y16752D02*
X9710Y16742D01*
X9724Y16733*
X9741Y16725*
X9758Y16718*
X9777Y16711*
X9798Y16705*
X9843Y16695*
X9868Y16691*
X9648Y16526*
X9651Y16549*
X9652Y16570*
Y16591*
X9650Y16610*
X9646Y16628*
X9641Y16646*
X9635Y16662*
X9627Y16676*
X9617Y16690*
X9606Y16703*
X9685Y16762*
X9697Y16752*
G37*
G36*
X4489Y16437D02*
X4488Y16446D01*
X4485Y16455*
X4481Y16462*
X4474Y16468*
X4465Y16474*
X4454Y16478*
X4441Y16482*
X4426Y16484*
X4410Y16486*
X4391*
Y16585*
X4410*
X4426Y16587*
X4441Y16589*
X4454Y16593*
X4465Y16597*
X4474Y16602*
X4481Y16609*
X4485Y16616*
X4488Y16625*
X4489Y16634*
Y16437*
G37*
G36*
X7580Y16931D02*
X7584Y16893D01*
X7591Y16857*
X7601Y16822*
X7614Y16787*
X7629Y16754*
X7647Y16723*
X7668Y16692*
X7691Y16662*
X7718Y16634*
X7620Y16454*
X7592Y16479*
X7564Y16498*
X7536Y16512*
X7508Y16521*
X7480Y16523*
X7452Y16521*
X7425Y16512*
X7397Y16498*
X7369Y16479*
X7341Y16454*
X7243Y16634*
X7269Y16662*
X7293Y16692*
X7314Y16723*
X7332Y16754*
X7347Y16787*
X7360Y16822*
X7369Y16857*
X7376Y16893*
X7380Y16931*
X7382Y16970*
X7579*
X7580Y16931*
G37*
G36*
X4173Y16625D02*
X4176Y16616D01*
X4181Y16609*
X4188Y16602*
X4197Y16597*
X4207Y16593*
X4220Y16589*
X4235Y16587*
X4252Y16585*
X4270*
Y16486*
X4252*
X4235Y16484*
X4220Y16482*
X4207Y16478*
X4197Y16474*
X4188Y16468*
X4185Y16466*
X4196Y16451*
X4209Y16435*
X4224Y16417*
X4242Y16399*
X4211Y16290*
X4189Y16311*
X4151Y16344*
X4134Y16356*
X4119Y16364*
X4106Y16370*
X4095Y16372*
X4086Y16371*
X4078Y16367*
X4072Y16359*
X4172Y16538*
X4168Y16529*
X4167Y16518*
X4168Y16507*
X4171Y16494*
X4172Y16492*
Y16634*
X4173Y16625*
G37*
G36*
X5731Y16929D02*
X5730Y16939D01*
X5727Y16947*
X5722Y16954*
X5715Y16961*
X5706Y16966*
X5695Y16970*
X5682Y16974*
X5667Y16976*
X5650Y16978*
X5631*
Y17077*
X5650*
X5667Y17079*
X5682Y17081*
X5695Y17085*
X5706Y17089*
X5715Y17095*
X5722Y17101*
X5727Y17108*
X5730Y17117*
X5731Y17126*
Y16929*
G37*
G36*
X8514Y17431D02*
X8516Y17414D01*
X8518Y17399*
X8522Y17386*
X8526Y17375*
X8532Y17366*
X8538Y17359*
X8545Y17354*
X8554Y17351*
X8563Y17350*
X8367Y17351*
X8376Y17352*
X8385Y17355*
X8392Y17360*
X8398Y17367*
X8403Y17376*
X8408Y17387*
X8411Y17399*
X8413Y17414*
X8415Y17431*
Y17450*
X8514*
Y17431*
G37*
G36*
X9272D02*
X9274Y17414D01*
X9276Y17399*
X9279Y17386*
X9284Y17375*
X9289Y17366*
X9296Y17359*
X9303Y17354*
X9311Y17351*
X9321Y17350*
X9124*
X9133Y17351*
X9142Y17354*
X9149Y17359*
X9155Y17366*
X9161Y17375*
X9165Y17386*
X9169Y17399*
X9171Y17414*
X9173Y17431*
Y17450*
X9272*
Y17431*
G37*
G36*
X6014Y17452D02*
X6006Y17449D01*
X5999Y17444*
X5992Y17437*
X5987Y17428*
X5982Y17417*
X5979Y17404*
X5976Y17389*
X5975Y17372*
X5974Y17354*
X5876*
X5875Y17372*
X5874Y17389*
X5872Y17404*
X5868Y17417*
X5864Y17428*
X5858Y17437*
X5852Y17444*
X5844Y17449*
X5836Y17452*
X5827Y17453*
X6024*
X6014Y17452*
G37*
G36*
X3461Y17397D02*
X3468Y17396D01*
X3473Y17393*
X3478Y17388*
X3482Y17381*
X3486Y17372*
X3489Y17361*
X3491Y17349*
X3493Y17334*
X3494Y17298*
X3396*
X3395Y17317*
X3394Y17334*
X3391Y17349*
X3388Y17362*
X3383Y17373*
X3378Y17382*
X3372Y17389*
X3364Y17394*
X3356Y17397*
X3346Y17398*
X3461Y17397*
G37*
G36*
X5512Y17297D02*
X5516Y17252D01*
X5520Y17232*
X5525Y17213*
X5531Y17196*
X5539Y17180*
X5547Y17165*
X5557Y17152*
X5568Y17139*
X5498Y17070*
X5486Y17081*
X5473Y17090*
X5458Y17099*
X5442Y17106*
X5424Y17113*
X5406Y17118*
X5385Y17121*
X5364Y17124*
X5341Y17126*
X5317*
X5512Y17321*
Y17297*
G37*
G36*
X5975Y17244D02*
X5976Y17227D01*
X5979Y17212*
X5982Y17200*
X5987Y17189*
X5992Y17180*
X5999Y17173*
X6006Y17168*
X6014Y17165*
X6024Y17164*
X5827*
X5836Y17165*
X5844Y17168*
X5852Y17173*
X5858Y17180*
X5864Y17189*
X5868Y17200*
X5872Y17212*
X5874Y17227*
X5875Y17244*
X5876Y17263*
X5974*
X5975Y17244*
G37*
G36*
X4959Y17395D02*
X4958Y17389D01*
X4956Y17379*
X4955Y17365*
X4952Y17300*
X4951Y17200*
X4754*
X4743Y17397*
X4961*
X4959Y17395*
G37*
G36*
X5355Y16697D02*
X5361Y16683D01*
X5371Y16672*
X5385Y16662*
X5402Y16653*
X5424Y16646*
X5450Y16641*
X5479Y16637*
X5513Y16635*
X5550Y16634*
Y16629*
X5730Y16574*
X5731Y16339*
X5729Y16357*
X5723Y16374*
X5713Y16389*
X5699Y16402*
X5681Y16412*
X5659Y16421*
X5634Y16428*
X5604Y16433*
X5570Y16436*
X5540Y16437*
X5513Y16436*
X5450Y16430*
X5424Y16425*
X5402Y16418*
X5385Y16409*
X5371Y16399*
X5361Y16387*
X5355Y16374*
X5353Y16359*
Y16711*
X5355Y16697*
G37*
G36*
X8942Y14981D02*
X8945Y14947D01*
X8950Y14917*
X8957Y14892*
X8966Y14870*
X8976Y14852*
X8989Y14838*
X9004Y14828*
X9021Y14822*
X9039Y14820*
X8646*
X8664Y14822*
X8681Y14828*
X8696Y14838*
X8709Y14852*
X8719Y14870*
X8728Y14892*
X8735Y14917*
X8740Y14947*
X8743Y14981*
X8744Y15018*
X8941*
X8942Y14981*
G37*
G36*
X12219Y15147D02*
X12211Y15144D01*
X12203Y15139*
X12197Y15132*
X12191Y15123*
X12187Y15112*
X12184Y15099*
X12181Y15084*
X12180Y15067*
X12179Y15048*
X12081*
X12080Y15067*
X12079Y15084*
X12076Y15099*
X12073Y15112*
X12068Y15123*
X12063Y15132*
X12057Y15139*
X12049Y15144*
X12041Y15147*
X12032Y15148*
X12228*
X12219Y15147*
G37*
G36*
X10601Y15148D02*
X10596Y15156D01*
X10589Y15161*
X10580Y15162*
X10569Y15160*
X10556Y15155*
X10542Y15146*
X10525Y15134*
X10506Y15118*
X10462Y15077*
X10451Y15206*
X10468Y15224*
X10496Y15256*
X10506Y15272*
X10514Y15286*
X10520Y15299*
X10524Y15312*
X10526Y15324*
X10525Y15335*
X10522Y15345*
X10601Y15148*
G37*
G36*
X12096Y14585D02*
X12083Y14571D01*
X12071Y14557*
X12060Y14543*
X12051Y14529*
X12043Y14515*
X12037Y14501*
X12032Y14488*
X12028Y14474*
X12026Y14460*
X12025Y14446*
X12026Y14694*
X12027Y14687*
X12029Y14683*
X12033Y14680*
X12037*
X12044Y14682*
X12051Y14686*
X12060Y14692*
X12070Y14701*
X12095Y14724*
X12096Y14585*
G37*
G36*
X715Y14189D02*
X713Y14208D01*
X707Y14224*
X697Y14239*
X684Y14252*
X666Y14263*
X644Y14272*
X618Y14279*
X611Y14280*
X599Y14277*
X586Y14272*
X573Y14266*
X562Y14260*
X553Y14252*
X545Y14244*
X541Y14287*
X517*
Y14484*
X526*
X523Y14519*
X531Y14512*
X541Y14506*
X553Y14501*
X566Y14497*
X580Y14493*
X596Y14490*
X597*
X618Y14493*
X644Y14500*
X666Y14509*
X684Y14520*
X697Y14532*
X707Y14547*
X713Y14564*
X715Y14583*
Y14189*
G37*
G36*
X10208Y14824D02*
X10195Y14808D01*
X10182Y14789*
X10171Y14767*
X10162Y14742*
X10154Y14714*
X10148Y14683*
X10143Y14650*
X10138Y14573*
Y14531*
X9845Y14823*
X9888*
X9964Y14828*
X9998Y14833*
X10029Y14839*
X10057Y14847*
X10082Y14857*
X10104Y14867*
X10123Y14880*
X10139Y14893*
X10208Y14824*
G37*
G36*
X1437Y14768D02*
X1440Y14735D01*
X1445Y14705*
X1452Y14679*
X1461Y14657*
X1472Y14640*
X1484Y14626*
X1499Y14616*
X1516Y14610*
X1535Y14608*
X1141*
X1160Y14610*
X1176Y14616*
X1191Y14626*
X1204Y14640*
X1215Y14657*
X1224Y14679*
X1231Y14705*
X1235Y14735*
X1238Y14768*
X1239Y14806*
X1436*
X1437Y14768*
G37*
G36*
X10739Y15410D02*
X10742Y15402D01*
X10747Y15395*
X10754Y15388*
X10763Y15383*
X10774Y15378*
X10787Y15375*
X10802Y15372*
X10818Y15371*
X10837Y15370*
Y15272*
X10818Y15271*
X10802Y15270*
X10787Y15268*
X10774Y15264*
X10763Y15260*
X10754Y15254*
X10747Y15248*
X10742Y15240*
X10739Y15232*
X10738Y15223*
Y15420*
X10739Y15410*
G37*
G36*
X12022Y15223D02*
X12021Y15232D01*
X12018Y15240*
X12013Y15248*
X12006Y15254*
X11997Y15260*
X11986Y15264*
X11973Y15268*
X11958Y15270*
X11941Y15271*
X11922Y15272*
Y15370*
X11941Y15371*
X11958Y15372*
X11973Y15375*
X11986Y15378*
X11997Y15383*
X12006Y15388*
X12013Y15395*
X12018Y15402*
X12021Y15410*
X12022Y15420*
Y15223*
G37*
G36*
X8941Y15370D02*
X8744Y15132D01*
X8743Y15171*
X8739Y15209*
X8732Y15245*
X8722Y15281*
X8709Y15315*
X8694Y15348*
X8676Y15380*
X8655Y15411*
X8631Y15440*
X8605Y15468*
Y15747*
X8631Y15722*
X8655Y15705*
X8676Y15694*
X8694Y15689*
X8709Y15692*
X8722Y15701*
X8732Y15717*
X8739Y15739*
X8743Y15769*
X8744Y15805*
X8941Y15370*
G37*
G36*
X8969Y16033D02*
X8963Y16027D01*
X8958Y16017*
X8953Y16003*
X8949Y15985*
X8946Y15964*
X8942Y15909*
X8941Y15838*
X8744*
X8741Y16035*
X8975*
X8969Y16033*
G37*
G36*
X11739Y15410D02*
X11742Y15402D01*
X11747Y15395*
X11754Y15388*
X11763Y15383*
X11774Y15378*
X11787Y15375*
X11802Y15372*
X11818Y15371*
X11837Y15370*
Y15272*
X11818Y15271*
X11802Y15270*
X11787Y15268*
X11774Y15264*
X11763Y15260*
X11754Y15254*
X11747Y15248*
X11742Y15240*
X11739Y15232*
X11738Y15223*
Y15420*
X11739Y15410*
G37*
G36*
X11022Y15223D02*
X11021Y15232D01*
X11018Y15240*
X11013Y15248*
X11006Y15254*
X10997Y15260*
X10986Y15264*
X10973Y15268*
X10958Y15270*
X10941Y15271*
X10922Y15272*
Y15370*
X10941Y15371*
X10958Y15372*
X10973Y15375*
X10986Y15378*
X10997Y15383*
X11006Y15388*
X11013Y15395*
X11018Y15402*
X11021Y15410*
X11022Y15420*
Y15223*
G37*
G36*
X11239Y15410D02*
X11242Y15402D01*
X11247Y15395*
X11254Y15388*
X11263Y15383*
X11274Y15378*
X11287Y15375*
X11302Y15372*
X11318Y15371*
X11337Y15370*
Y15272*
X11318Y15271*
X11302Y15270*
X11287Y15268*
X11274Y15264*
X11263Y15260*
X11254Y15254*
X11247Y15248*
X11242Y15240*
X11239Y15232*
X11238Y15223*
Y15420*
X11239Y15410*
G37*
G36*
X11522Y15223D02*
X11521Y15232D01*
X11518Y15240*
X11513Y15248*
X11506Y15254*
X11497Y15260*
X11486Y15264*
X11473Y15268*
X11458Y15270*
X11441Y15271*
X11422Y15272*
Y15370*
X11441Y15371*
X11458Y15372*
X11473Y15375*
X11486Y15378*
X11497Y15383*
X11506Y15388*
X11513Y15395*
X11518Y15402*
X11521Y15410*
X11522Y15420*
Y15223*
G37*
G36*
X3961Y19957D02*
X3964Y19949D01*
X3969Y19941*
X3976Y19935*
X3985Y19930*
X3996Y19925*
X4009Y19922*
X4024Y19919*
X4041Y19918*
X4060Y19917*
Y19819*
X4041Y19818*
X4024Y19817*
X4009Y19814*
X3996Y19811*
X3985Y19807*
X3976Y19801*
X3969Y19795*
X3964Y19787*
X3961Y19779*
X3960Y19770*
Y19967*
X3961Y19957*
G37*
G36*
X4245Y19770D02*
X4244Y19779D01*
X4241Y19787*
X4236Y19795*
X4229Y19801*
X4220Y19807*
X4209Y19811*
X4196Y19814*
X4181Y19817*
X4164Y19818*
X4145Y19819*
Y19917*
X4164Y19918*
X4181Y19919*
X4196Y19922*
X4209Y19925*
X4220Y19930*
X4229Y19935*
X4236Y19941*
X4241Y19949*
X4244Y19957*
X4245Y19967*
Y19770*
G37*
G36*
X4461Y19957D02*
X4464Y19949D01*
X4469Y19941*
X4476Y19935*
X4485Y19930*
X4496Y19925*
X4509Y19922*
X4524Y19919*
X4541Y19918*
X4560Y19917*
Y19819*
X4541Y19818*
X4524Y19817*
X4509Y19814*
X4496Y19811*
X4485Y19807*
X4476Y19801*
X4469Y19795*
X4464Y19787*
X4461Y19779*
X4460Y19770*
Y19967*
X4461Y19957*
G37*
G36*
X3745Y19770D02*
X3744Y19779D01*
X3741Y19787*
X3736Y19795*
X3729Y19801*
X3720Y19807*
X3709Y19811*
X3696Y19814*
X3681Y19817*
X3664Y19818*
X3645Y19819*
Y19917*
X3664Y19918*
X3681Y19919*
X3696Y19922*
X3709Y19925*
X3720Y19930*
X3729Y19935*
X3736Y19941*
X3741Y19949*
X3744Y19957*
X3745Y19967*
Y19770*
G37*
G36*
X10771Y18886D02*
X10810Y18852D01*
X10827Y18841*
X10841Y18832*
X10854Y18826*
X10866Y18824*
X10875Y18825*
X10883Y18829*
X10888Y18836*
X10790Y18659*
X10793Y18668*
X10795Y18678*
X10794Y18690*
X10790Y18702*
X10784Y18716*
X10776Y18730*
X10765Y18745*
X10752Y18762*
X10737Y18779*
X10719Y18798*
X10749Y18907*
X10771Y18886*
G37*
G36*
X3902Y19777D02*
X3904Y19760D01*
X3906Y19745*
X3909Y19732*
X3914Y19721*
X3919Y19712*
X3926Y19705*
X3933Y19700*
X3934*
X3951*
X3941Y19699*
X3939Y19698*
X3941Y19697*
X3951Y19696*
X3934*
X3933*
X3926Y19691*
X3919Y19684*
X3914Y19675*
X3909Y19665*
X3906Y19652*
X3904Y19637*
X3902Y19620*
Y19602*
X3803*
Y19620*
X3801Y19637*
X3799Y19652*
X3795Y19665*
X3791Y19675*
X3785Y19684*
X3779Y19691*
X3772Y19696*
X3771*
X3754*
X3763Y19697*
X3766Y19698*
X3763Y19699*
X3754Y19700*
X3771*
X3772*
X3779Y19705*
X3785Y19712*
X3791Y19721*
X3795Y19732*
X3799Y19745*
X3801Y19760*
X3803Y19777*
Y19796*
X3902*
Y19777*
G37*
G36*
X3461Y19957D02*
X3464Y19949D01*
X3469Y19941*
X3476Y19935*
X3485Y19930*
X3496Y19925*
X3509Y19922*
X3524Y19919*
X3541Y19918*
X3560Y19917*
Y19819*
X3541Y19818*
X3524Y19817*
X3509Y19814*
X3496Y19811*
X3485Y19807*
X3476Y19801*
X3469Y19795*
X3464Y19787*
X3461Y19779*
X3460Y19770*
Y19967*
X3461Y19957*
G37*
G36*
X4745Y19770D02*
X4744Y19779D01*
X4741Y19787*
X4736Y19795*
X4729Y19801*
X4720Y19807*
X4709Y19811*
X4696Y19814*
X4681Y19817*
X4664Y19818*
X4645Y19819*
Y19917*
X4664Y19918*
X4681Y19919*
X4696Y19922*
X4709Y19925*
X4720Y19930*
X4729Y19935*
X4736Y19941*
X4741Y19949*
X4744Y19957*
X4745Y19967*
Y19770*
G37*
G36*
X5706Y20374D02*
X5663D01*
X5587Y20369*
X5553Y20364*
X5522Y20357*
X5494Y20350*
X5469Y20340*
X5447Y20329*
X5428Y20317*
X5412Y20303*
X5343Y20373*
X5357Y20389*
X5369Y20408*
X5380Y20430*
X5389Y20455*
X5397Y20483*
X5403Y20514*
X5408Y20547*
X5413Y20624*
Y20666*
X5706Y20374*
G37*
G36*
X6455Y21063D02*
X6528Y21002D01*
X6560Y20980*
X6589Y20963*
X6615Y20952*
X6639Y20946*
X6660*
X6678Y20951*
X6693Y20962*
X6416Y20685*
X6427Y20700*
X6432Y20718*
Y20739*
X6426Y20763*
X6415Y20789*
X6398Y20818*
X6376Y20850*
X6348Y20885*
X6275Y20963*
X6415Y21103*
X6455Y21063*
G37*
G36*
X3858Y21635D02*
X3864Y21618D01*
X3874Y21603*
X3888Y21591*
X3905Y21580*
X3927Y21571*
X3953Y21564*
X3983Y21559*
X4016Y21556*
X4054Y21555*
Y21358*
X4016Y21357*
X3983Y21354*
X3953Y21349*
X3927Y21343*
X3905Y21334*
X3888Y21323*
X3874Y21310*
X3864Y21295*
X3858Y21279*
X3856Y21260*
Y21654*
X3858Y21635*
G37*
G36*
X3455Y20346D02*
X3447Y20343D01*
X3439Y20338*
X3433Y20331*
X3428Y20322*
X3423Y20311*
X3420Y20298*
X3417Y20283*
X3416Y20266*
X3415Y20247*
X3317*
X3316Y20266*
X3315Y20283*
X3313Y20298*
X3309Y20311*
X3305Y20322*
X3299Y20331*
X3293Y20338*
X3285Y20343*
X3277Y20346*
X3268Y20347*
X3465*
X3455Y20346*
G37*
G36*
X5031Y19922D02*
X5018Y19908D01*
X5006Y19894*
X4995Y19880*
X4986Y19866*
X4978Y19852*
X4972Y19838*
X4967Y19824*
X4963Y19810*
X4961Y19797*
X4960Y19783*
X4961Y20036*
X4962Y20028*
X4964Y20023*
X4968Y20020*
X4973Y20019*
X4979Y20020*
X4986Y20024*
X4996Y20030*
X5006Y20038*
X5018Y20048*
X5031Y20061*
Y19922*
G37*
G36*
X3416Y20116D02*
X3417Y20099D01*
X3419Y20084*
X3423Y20072*
X3427Y20061*
X3432Y20052*
X3438Y20045*
X3445Y20040*
X3453Y20037*
X3461Y20036*
X3268Y20035*
X3277Y20036*
X3285Y20039*
X3293Y20044*
X3299Y20051*
X3305Y20060*
X3309Y20071*
X3313Y20084*
X3315Y20099*
X3316Y20116*
X3317Y20135*
X3415*
X3416Y20116*
G37*
G36*
X7000Y20373D02*
X6998Y20367D01*
X6995Y20357*
X6993Y20344*
X6991Y20304*
X6988Y20178*
X6791*
X6790Y20216*
X6787Y20249*
X6782Y20279*
X6776Y20304*
X6767Y20326*
X6756Y20344*
X6743Y20357*
X6728Y20367*
X6712Y20373*
X6693Y20375*
X7003*
X7000Y20373*
G37*
G36*
X6990Y19096D02*
X6994Y19059D01*
X7001Y19022*
X7010Y18987*
X7023Y18953*
X7038Y18920*
X7056Y18888*
X7077Y18857*
X7101Y18828*
X7127Y18799*
X7029Y18619*
X7001Y18644*
X6973Y18664*
X6945Y18678*
X6918Y18686*
X6890Y18689*
X6862Y18686*
X6834Y18678*
X6806Y18664*
X6778Y18644*
X6751Y18619*
X6652Y18799*
X6679Y18828*
X6702Y18857*
X6723Y18888*
X6741Y18920*
X6757Y18953*
X6769Y18987*
X6779Y19022*
X6786Y19059*
X6790Y19096*
X6791Y19135*
X6988*
X6990Y19096*
G37*
G36*
X4245Y17415D02*
X4429D01*
Y17397*
X4461*
X4455Y17395*
X4450Y17389*
X4445Y17379*
X4441Y17365*
X4437Y17348*
X4436Y17337*
X4439Y17323*
X4443Y17309*
X4448Y17296*
X4454Y17285*
X4461Y17275*
X4469Y17267*
X4430*
X4429Y17200*
X4232*
X4236Y17267*
X4193*
X4200Y17275*
X4207Y17285*
X4213Y17296*
X4218Y17309*
X4222Y17323*
X4226Y17338*
X4229Y17355*
X4231Y17374*
X4232Y17415*
X4244*
X4243Y17426*
X4237Y17443*
X4227Y17458*
X4213Y17470*
X4195Y17481*
X4173Y17490*
X4147Y17497*
X4118Y17502*
X4102Y17503*
X4087Y17502*
X4057Y17497*
X4031Y17490*
X4010Y17481*
X3992Y17470*
X3978Y17458*
X3968Y17443*
X3962Y17426*
X3960Y17407*
Y17801*
X3962Y17782*
X3968Y17766*
X3978Y17751*
X3992Y17738*
X4010Y17727*
X4031Y17719*
X4057Y17712*
X4087Y17707*
X4102Y17705*
X4118Y17707*
X4147Y17712*
X4173Y17719*
X4195Y17727*
X4213Y17738*
X4227Y17751*
X4237Y17766*
X4243Y17782*
X4245Y17801*
Y17415*
G37*
G36*
X4745Y17407D02*
X4743Y17426D01*
X4737Y17443*
X4727Y17458*
X4713Y17470*
X4695Y17481*
X4673Y17490*
X4647Y17497*
X4618Y17502*
X4602Y17503*
X4587Y17502*
X4557Y17497*
X4531Y17490*
X4510Y17481*
X4492Y17470*
X4478Y17458*
X4468Y17443*
X4462Y17426*
X4460Y17407*
Y17801*
X4462Y17782*
X4468Y17766*
X4478Y17751*
X4492Y17738*
X4510Y17727*
X4531Y17719*
X4557Y17712*
X4587Y17707*
X4602Y17705*
X4618Y17707*
X4647Y17712*
X4673Y17719*
X4695Y17727*
X4713Y17738*
X4727Y17751*
X4737Y17766*
X4743Y17782*
X4745Y17801*
Y17407*
G37*
G36*
X11083Y17980D02*
X11228D01*
X11232Y17906*
X11278Y17883*
X11269Y17879*
X11260Y17873*
X11253Y17865*
X11246Y17855*
X11241Y17843*
X11237Y17830*
X11239Y17786*
X11230*
X11229Y17777*
X11228Y17756*
X11032Y17778*
Y17786*
X11021*
X11023Y17788*
X11025Y17794*
X11026Y17804*
X11028Y17817*
X11031Y17881*
X11032Y17980*
X11035*
Y18004*
X11083Y17980*
G37*
G36*
X11522Y17382D02*
X11520Y17401D01*
X11514Y17417*
X11504Y17432*
X11490Y17445*
X11473Y17456*
X11451Y17465*
X11425Y17471*
X11395Y17476*
X11380Y17478*
X11365Y17476*
X11335Y17471*
X11309Y17465*
X11287Y17456*
X11269Y17445*
X11256Y17432*
X11246Y17417*
X11240Y17401*
X11238Y17382*
Y17776*
X11240Y17757*
X11246Y17740*
X11256Y17725*
X11269Y17713*
X11287Y17702*
X11309Y17693*
X11335Y17686*
X11365Y17681*
X11380Y17680*
X11395Y17681*
X11425Y17686*
X11451Y17693*
X11473Y17702*
X11490Y17713*
X11504Y17725*
X11514Y17740*
X11520Y17757*
X11522Y17776*
Y17382*
G37*
G36*
X6762Y17452D02*
X6754Y17449D01*
X6747Y17444*
X6740Y17437*
X6735Y17428*
X6730Y17417*
X6727Y17404*
X6724Y17389*
X6723Y17372*
X6722Y17354*
X6624*
Y17372*
X6622Y17389*
X6620Y17404*
X6616Y17417*
X6612Y17428*
X6606Y17437*
X6600Y17444*
X6593Y17449*
X6584Y17452*
X6575Y17453*
X6772*
X6762Y17452*
G37*
G36*
X9311Y17638D02*
X9303Y17635D01*
X9296Y17630*
X9289Y17623*
X9284Y17614*
X9279Y17604*
X9276Y17591*
X9274Y17576*
X9272Y17559*
Y17541*
X9173*
Y17559*
X9171Y17576*
X9169Y17591*
X9165Y17604*
X9161Y17614*
X9155Y17623*
X9149Y17630*
X9142Y17635*
X9133Y17638*
X9124Y17639*
X9321*
X9311Y17638*
G37*
G36*
X11022Y17382D02*
X11020Y17401D01*
X11014Y17417*
X11004Y17432*
X10990Y17445*
X10973Y17456*
X10951Y17465*
X10925Y17471*
X10895Y17476*
X10880Y17478*
X10865Y17476*
X10835Y17471*
X10809Y17465*
X10787Y17456*
X10769Y17445*
X10756Y17432*
X10746Y17417*
X10740Y17401*
X10738Y17382*
Y17776*
X10740Y17757*
X10746Y17740*
X10756Y17725*
X10769Y17713*
X10787Y17702*
X10809Y17693*
X10835Y17686*
X10865Y17681*
X10880Y17680*
X10895Y17681*
X10925Y17686*
X10951Y17693*
X10973Y17702*
X10990Y17713*
X11004Y17725*
X11014Y17740*
X11020Y17757*
X11022Y17776*
Y17382*
G37*
G36*
X12180Y17866D02*
X12181Y17849D01*
X12184Y17834*
X12187Y17821*
X12191Y17810*
X12197Y17801*
X12203Y17794*
X12211Y17789*
X12219Y17786*
X12228Y17785*
X12032*
X12041Y17786*
X12049Y17789*
X12057Y17794*
X12063Y17801*
X12068Y17810*
X12073Y17821*
X12076Y17834*
X12079Y17849*
X12080Y17866*
X12081Y17885*
X12179*
X12180Y17866*
G37*
G36*
X9567Y18542D02*
X9526Y18500D01*
X9462Y18425*
X9439Y18392*
X9422Y18363*
X9411Y18337*
X9406Y18314*
X9407Y18294*
X9414Y18277*
X9427Y18264*
X9110Y18502*
X9127Y18492*
X9147Y18488*
X9168Y18489*
X9193Y18496*
X9219Y18507*
X9248Y18524*
X9280Y18545*
X9314Y18572*
X9350Y18605*
X9389Y18642*
X9567Y18542*
G37*
G36*
X11063Y18750D02*
X11066Y18742D01*
X11071Y18735*
X11078Y18728*
X11086Y18723*
X11097Y18719*
X11110Y18715*
X11125Y18713*
X11142Y18711*
X11160*
Y18612*
X11142*
X11125Y18610*
X11110Y18608*
X11097Y18604*
X11086Y18600*
X11078Y18594*
X11071Y18588*
X11066Y18581*
X11063Y18572*
X11062Y18563*
Y18760*
X11063Y18750*
G37*
G36*
X11379Y18563D02*
X11378Y18572D01*
X11375Y18581*
X11370Y18588*
X11363Y18594*
X11355Y18600*
X11344Y18604*
X11331Y18608*
X11316Y18610*
X11299Y18612*
X11281*
Y18711*
X11299*
X11316Y18713*
X11331Y18715*
X11344Y18719*
X11355Y18723*
X11363Y18728*
X11370Y18735*
X11375Y18742*
X11378Y18750*
X11379Y18760*
Y18563*
G37*
G36*
X10198Y18485D02*
X10196Y18500D01*
X10190Y18513*
X10180Y18525*
X10167Y18535*
X10149Y18544*
X10127Y18551*
X10102Y18556*
X10072Y18560*
X10039Y18562*
X10001Y18563*
Y18760*
X10039Y18761*
X10102Y18767*
X10127Y18772*
X10149Y18779*
X10167Y18788*
X10180Y18798*
X10190Y18809*
X10196Y18823*
X10198Y18837*
Y18485*
G37*
G36*
X10739Y17786D02*
X10521D01*
X10523Y17788*
X10525Y17794*
X10526Y17804*
X10528Y17818*
X10531Y17883*
X10532Y17983*
X10728*
X10739Y17786*
G37*
G36*
X5010Y18396D02*
X5013Y18388D01*
X5018Y18380*
X5025Y18374*
X5034Y18369*
X5045Y18364*
X5058Y18361*
X5073Y18358*
X5090Y18357*
X5109Y18356*
Y18258*
X5090Y18257*
X5073Y18256*
X5058Y18253*
X5045Y18250*
X5034Y18246*
X5025Y18240*
X5018Y18234*
X5013Y18226*
X5010Y18218*
X5009Y18209*
Y18246*
X5004Y18249*
X4997Y18251*
X4988Y18253*
X4978Y18255*
X4950Y18257*
X4915Y18258*
Y18356*
X4933*
X4978Y18359*
X4988Y18361*
X4997Y18363*
X5004Y18365*
X5009Y18368*
Y18406*
X5010Y18396*
G37*
G36*
X6416Y18694D02*
X6421Y18687D01*
X6428Y18681*
X6437Y18676*
X6450Y18672*
X6465Y18668*
X6484Y18665*
X6505Y18663*
X6555Y18661*
Y18465*
X6528Y18464*
X6484Y18461*
X6465Y18458*
X6450Y18454*
X6437Y18450*
X6428Y18445*
X6421Y18439*
X6416Y18432*
X6415Y18424*
Y18702*
X6416Y18694*
G37*
G36*
X18127Y12146D02*
X18110Y12162D01*
X18076Y12191*
X18059Y12202*
X18042Y12212*
X18025Y12220*
X18008Y12226*
X17992Y12231*
X17975Y12233*
X17959Y12234*
Y12333*
X17975Y12334*
X17992Y12336*
X18008Y12341*
X18025Y12347*
X18042Y12355*
X18059Y12365*
X18076Y12376*
X18093Y12389*
X18110Y12404*
X18127Y12421*
Y12146*
G37*
G36*
X12274Y12668D02*
X12312Y12352D01*
X12303Y12164*
X12106Y12361*
X12105Y12400*
X12101Y12437*
X12094Y12474*
X12084Y12509*
X12071Y12543*
X12056Y12576*
X12038Y12608*
X12017Y12639*
X11994Y12668*
X11967Y12697*
X12274Y12668*
G37*
G36*
X13231Y12224D02*
X13229Y12243D01*
X13223Y12260*
X13213Y12275*
X13199Y12287*
X13181Y12298*
X13159Y12307*
X13134Y12314*
X13104Y12319*
X13070Y12322*
X13033Y12323*
Y12520*
X13070Y12521*
X13104Y12524*
X13134Y12529*
X13159Y12535*
X13181Y12544*
X13199Y12555*
X13213Y12568*
X13223Y12583*
X13229Y12599*
X13231Y12618*
Y12224*
G37*
G36*
X8017Y12240D02*
X8021Y12232D01*
X8029Y12224*
X8038Y12218*
X8051Y12213*
X8067Y12209*
X8085Y12205*
X8106Y12203*
X8130Y12201*
X8157*
Y12102*
X8130*
X8085Y12098*
X8067Y12095*
X8051Y12090*
X8038Y12085*
X8029Y12079*
X8021Y12071*
X8017Y12063*
X8016Y12054*
Y12249*
X8017Y12240*
G37*
G36*
X17510Y12019D02*
X17524Y12009D01*
X17539Y12001*
X17555Y11993*
X17572Y11987*
X17591Y11982*
X17611Y11979*
X17633Y11976*
X17656Y11975*
X17680Y11974*
X17486Y11778*
Y11802*
X17481Y11847*
X17477Y11867*
X17472Y11886*
X17466Y11903*
X17458Y11919*
X17450Y11934*
X17440Y11947*
X17429Y11960*
X17498Y12030*
X17510Y12019*
G37*
G36*
X13446Y11949D02*
X13449Y11916D01*
X13454Y11886*
X13461Y11860*
X13469Y11838*
X13480Y11821*
X13493Y11807*
X13508Y11797*
X13525Y11791*
X13543Y11789*
X13150*
X13168Y11791*
X13185Y11797*
X13200Y11807*
X13213Y11821*
X13223Y11838*
X13232Y11860*
X13239Y11886*
X13244Y11916*
X13247Y11949*
X13248Y11987*
X13445*
X13446Y11949*
G37*
G36*
X13460Y12214D02*
X13457Y12208D01*
X13454Y12198*
X13452Y12184*
X13449Y12167*
X13446Y12090*
X13445Y12019*
X13248*
Y12056*
X13239Y12198*
X13236Y12208*
X13233Y12214*
X13230Y12216*
X13463*
X13460Y12214*
G37*
G36*
X4489Y12507D02*
X4523Y12478D01*
X4540Y12467*
X4557Y12457*
X4573Y12449*
X4590Y12443*
X4607Y12439*
X4623Y12436*
X4639Y12435*
Y12337*
X4623Y12336*
X4607Y12333*
X4590Y12329*
X4573Y12322*
X4557Y12314*
X4540Y12305*
X4523Y12293*
X4506Y12280*
X4489Y12265*
X4471Y12248*
Y12524*
X4489Y12507*
G37*
G36*
X17577Y12745D02*
X17579Y12731D01*
X17583Y12717*
X17588Y12703*
X17594Y12689*
X17602Y12675*
X17611Y12661*
X17622Y12647*
X17634Y12633*
X17647Y12619*
Y12480*
X17637Y12490*
X17604Y12518*
X17598Y12523*
X17592Y12526*
X17586Y12529*
X17582Y12530*
X17578Y12531*
X17576Y12759*
X17577Y12745*
G37*
G36*
X16829D02*
X16831Y12732D01*
X16835Y12718*
X16840Y12704*
X16846Y12690*
X16854Y12676*
X16863Y12663*
X16874Y12649*
X16886Y12635*
X16900Y12621*
Y12482*
X16890Y12492*
X16865Y12513*
X16858Y12519*
X16851Y12523*
X16845Y12526*
X16839Y12529*
X16834Y12530*
X16830Y12531*
X16828Y12759*
X16829Y12745*
G37*
G36*
X2066Y12429D02*
X2046Y12409D01*
X2013Y12370*
X1999Y12352*
X1988Y12334*
X1978Y12317*
X1971Y12300*
X1966Y12285*
X1963Y12270*
X1962Y12255*
Y12534*
Y12521*
X1964Y12512*
X1968Y12505*
X1973Y12500*
X1979Y12499*
X1987Y12500*
X1996Y12505*
X2006Y12512*
X2018Y12521*
X2031Y12534*
X2066Y12429*
G37*
G36*
X4190Y12248D02*
X4173Y12265D01*
X4139Y12293*
X4122Y12305*
X4105Y12314*
X4088Y12322*
X4071Y12329*
X4059Y12332*
X4046Y12329*
X4035Y12324*
X4027Y12319*
X4020Y12312*
X4015Y12305*
X4012Y12297*
X4011Y12287*
Y12484*
X4012Y12475*
X4015Y12467*
X4020Y12459*
X4027Y12453*
X4035Y12447*
X4046Y12443*
X4059Y12440*
X4071Y12443*
X4088Y12449*
X4105Y12457*
X4122Y12467*
X4139Y12478*
X4156Y12492*
X4173Y12507*
X4190Y12524*
Y12248*
G37*
G36*
X5566Y12326D02*
X5580Y12313D01*
X5594Y12303*
X5608Y12293*
X5622Y12286*
X5636Y12279*
X5650Y12274*
X5663Y12271*
X5677Y12269*
X5691Y12268*
X5415Y12266*
X5427Y12267*
X5437Y12269*
X5444Y12273*
X5448Y12278*
X5449Y12284*
X5447Y12293*
X5443Y12302*
X5436Y12313*
X5425Y12325*
X5412Y12339*
X5551*
X5566Y12326*
G37*
G36*
X552Y12523D02*
X586Y12494D01*
X603Y12483*
X620Y12473*
X636Y12465*
X653Y12459*
X666Y12455*
X679Y12459*
X690Y12463*
X699Y12469*
X706Y12475*
X711Y12482*
X714Y12491*
X715Y12500*
Y12303*
X714Y12313*
X711Y12321*
X706Y12328*
X699Y12335*
X690Y12340*
X679Y12344*
X666Y12348*
X653Y12344*
X636Y12338*
X620Y12330*
X603Y12320*
X586Y12309*
X569Y12296*
X552Y12281*
X534Y12264*
Y12539*
X552Y12523*
G37*
G36*
X8659Y12402D02*
X8635Y12401D01*
X8591Y12397*
X8571Y12393*
X8552Y12388*
X8535Y12382*
X8518Y12375*
X8504Y12366*
X8490Y12356*
X8478Y12345*
X8408Y12415*
X8419Y12427*
X8429Y12441*
X8438Y12455*
X8445Y12472*
X8451Y12489*
X8456Y12508*
X8460Y12528*
X8463Y12550*
X8464Y12572*
X8465Y12596*
X8659Y12402*
G37*
G36*
X16970Y11625D02*
X16966D01*
X16961Y11623*
X16955Y11621*
X16949Y11617*
X16943Y11613*
X16928Y11600*
X16910Y11584*
X16900Y11575*
Y11714*
X16913Y11728*
X16925Y11742*
X16936Y11756*
X16945Y11770*
X16953Y11784*
X16959Y11798*
X16964Y11812*
X16968Y11825*
X16970Y11839*
X16971Y11853*
X16970Y11625*
G37*
G36*
X15426Y10427D02*
X15425Y10437D01*
X15422Y10445*
X15417Y10452*
X15410Y10459*
X15401Y10464*
X15390Y10469*
X15377Y10472*
X15362Y10474*
X15345Y10476*
X15326*
Y10575*
X15345*
X15362Y10577*
X15377Y10579*
X15390Y10583*
X15401Y10587*
X15410Y10593*
X15417Y10599*
X15422Y10606*
X15425Y10615*
X15426Y10624*
Y10427*
G37*
G36*
X15642Y10615D02*
X15645Y10606D01*
X15650Y10599*
X15657Y10593*
X15666Y10587*
X15677Y10583*
X15690Y10579*
X15705Y10577*
X15722Y10575*
X15741*
Y10476*
X15722*
X15705Y10474*
X15690Y10472*
X15677Y10469*
X15666Y10464*
X15657Y10459*
X15650Y10452*
X15645Y10445*
X15642Y10437*
X15641Y10427*
Y10624*
X15642Y10615*
G37*
G36*
X15926Y10427D02*
X15925Y10437D01*
X15922Y10445*
X15917Y10452*
X15910Y10459*
X15901Y10464*
X15890Y10469*
X15877Y10472*
X15862Y10474*
X15845Y10476*
X15826*
Y10575*
X15845*
X15862Y10577*
X15877Y10579*
X15890Y10583*
X15901Y10587*
X15910Y10593*
X15917Y10599*
X15922Y10606*
X15925Y10615*
X15926Y10624*
Y10427*
G37*
G36*
X15142Y10615D02*
X15145Y10606D01*
X15150Y10599*
X15157Y10593*
X15166Y10587*
X15177Y10583*
X15190Y10579*
X15205Y10577*
X15222Y10575*
X15241*
Y10476*
X15222*
X15205Y10474*
X15190Y10472*
X15177Y10469*
X15166Y10464*
X15157Y10459*
X15150Y10452*
X15145Y10445*
X15142Y10437*
X15141Y10427*
Y10624*
X15142Y10615*
G37*
G36*
X14426Y10427D02*
X14425Y10437D01*
X14422Y10445*
X14417Y10452*
X14410Y10459*
X14401Y10464*
X14390Y10469*
X14377Y10472*
X14362Y10474*
X14345Y10476*
X14326*
Y10575*
X14345*
X14362Y10577*
X14377Y10579*
X14390Y10583*
X14401Y10587*
X14410Y10593*
X14417Y10599*
X14422Y10606*
X14425Y10615*
X14426Y10624*
Y10427*
G37*
G36*
X14642Y10615D02*
X14645Y10606D01*
X14650Y10599*
X14657Y10593*
X14666Y10587*
X14677Y10583*
X14690Y10579*
X14705Y10577*
X14722Y10575*
X14741*
Y10476*
X14722*
X14705Y10474*
X14690Y10472*
X14677Y10469*
X14666Y10464*
X14657Y10459*
X14650Y10452*
X14645Y10445*
X14642Y10437*
X14641Y10427*
Y10624*
X14642Y10615*
G37*
G36*
X14926Y10427D02*
X14925Y10437D01*
X14922Y10445*
X14917Y10452*
X14910Y10459*
X14901Y10464*
X14890Y10469*
X14877Y10472*
X14862Y10474*
X14845Y10476*
X14826*
Y10575*
X14845*
X14862Y10577*
X14877Y10579*
X14890Y10583*
X14901Y10587*
X14910Y10593*
X14917Y10599*
X14922Y10606*
X14925Y10615*
X14926Y10624*
Y10427*
G37*
G36*
X16143Y10686D02*
X16146Y10680D01*
X16151Y10674*
X16158Y10669*
X16167Y10665*
X16178Y10662*
X16191Y10659*
X16206Y10657*
X16222Y10656*
X16241*
Y10557*
X16222*
X16205Y10555*
X16190Y10553*
X16177Y10549*
X16166Y10545*
X16157Y10539*
X16150Y10533*
X16145Y10526*
X16142Y10517*
X16141Y10508*
X16143Y10694*
Y10686*
G37*
G36*
X16743Y11417D02*
X16744Y11400D01*
X16747Y11385*
X16750Y11372*
X16754Y11361*
X16760Y11352*
X16766Y11345*
X16774Y11340*
X16782Y11337*
X16791Y11336*
X16594*
X16604Y11337*
X16612Y11340*
X16620Y11345*
X16626Y11352*
X16631Y11361*
X16636Y11372*
X16639Y11385*
X16642Y11400*
X16643Y11417*
X16644Y11436*
X16742*
X16743Y11417*
G37*
G36*
X5967Y11753D02*
X5973Y11752D01*
X5995Y11751*
X6140Y11750*
Y11553*
X5964Y11549*
Y11754*
X5967Y11753*
G37*
G36*
X8017Y11740D02*
X8021Y11732D01*
X8029Y11724*
X8038Y11718*
X8051Y11713*
X8067Y11709*
X8085Y11705*
X8106Y11703*
X8130Y11701*
X8157*
Y11602*
X8130*
X8085Y11598*
X8067Y11595*
X8051Y11590*
X8038Y11585*
X8029Y11579*
X8021Y11571*
X8017Y11563*
X8016Y11554*
Y11749*
X8017Y11740*
G37*
G36*
X6706Y10932D02*
X6697Y10921D01*
X6691Y10910*
X6689Y10901*
X6690Y10893*
X6695Y10887*
X6703Y10882*
X6714Y10879*
X6729Y10877*
X6747Y10876*
X6529Y10778*
X6411Y10876*
X6430Y10877*
X6449Y10879*
X6467Y10882*
X6485Y10887*
X6502Y10893*
X6518Y10901*
X6534Y10910*
X6550Y10921*
X6564Y10932*
X6579Y10946*
X6718*
X6706Y10932*
G37*
G36*
X16518Y10508D02*
X16517Y10517D01*
X16514Y10526*
X16509Y10533*
X16502Y10539*
X16493Y10545*
X16482Y10549*
X16469Y10553*
X16454Y10555*
X16437Y10557*
X16419*
Y10656*
X16437*
X16454Y10657*
X16469Y10660*
X16482Y10663*
X16493Y10668*
X16502Y10673*
X16509Y10680*
X16514Y10687*
X16517Y10695*
X16518Y10705*
Y10508*
G37*
G36*
X4390Y10650D02*
Y10634D01*
X4386Y10573*
X4385Y10574*
X4276*
X4279Y10579*
X4282Y10586*
X4284Y10594*
X4286Y10604*
X4289Y10627*
X4291Y10657*
Y10693*
X4390Y10650*
G37*
G36*
X1225Y11114D02*
X1283Y11063D01*
X1310Y11043*
X1337Y11026*
X1362Y11011*
X1386Y11000*
X1409Y10993*
X1431Y10988*
X1453Y10986*
Y10888*
X1431Y10886*
X1409Y10882*
X1386Y10874*
X1362Y10863*
X1337Y10848*
X1310Y10831*
X1283Y10811*
X1225Y10760*
X1195Y10730*
Y11144*
X1225Y11114*
G37*
G36*
X15502Y13879D02*
X15494Y13876D01*
X15487Y13871*
X15480Y13864*
X15475Y13855*
X15470Y13844*
X15467Y13832*
X15465Y13817*
X15463Y13800*
Y13781*
X15364*
Y13800*
X15362Y13817*
X15360Y13832*
X15356Y13844*
X15352Y13855*
X15346Y13864*
X15340Y13871*
X15333Y13876*
X15324Y13879*
X15315Y13880*
X15512*
X15502Y13879*
G37*
G36*
X7637Y14083D02*
X7639Y14069D01*
X7643Y14055*
X7648Y14041*
X7654Y14028*
X7662Y14014*
X7671Y14000*
X7681Y13986*
X7693Y13972*
X7706Y13958*
Y13819*
X7693Y13831*
X7671Y13850*
X7662Y13855*
X7654Y13859*
X7648Y13860*
X7643Y13858*
X7639Y13854*
X7637Y13848*
Y13840*
Y14097*
Y14083*
G37*
G36*
X16297Y14095D02*
X16302Y14087D01*
X16309Y14079*
X16319Y14073*
X16330Y14067*
X16344Y14063*
X16359Y14060*
X16377Y14057*
X16379*
X16446Y14061*
X16468Y14065*
X16485Y14069*
X16499Y14074*
X16509Y14080*
X16515Y14086*
X16517Y14093*
Y13820*
X16515Y13827*
X16509Y13834*
X16499Y13840*
X16485Y13845*
X16468Y13849*
X16446Y13852*
X16420Y13855*
X16358Y13858*
X16320*
Y13861*
X16164Y13868*
X16293Y14104*
X16297Y14095*
G37*
G36*
X6536Y13839D02*
X6520Y13833D01*
X6505Y13823*
X6492Y13809*
X6481Y13791*
X6472Y13770*
X6466Y13744*
X6461Y13714*
X6458Y13681*
X6457Y13643*
X6260*
X6259Y13681*
X6256Y13714*
X6251Y13744*
X6244Y13770*
X6235Y13791*
X6224Y13809*
X6212Y13823*
X6197Y13833*
X6180Y13839*
X6161Y13841*
X6555*
X6536Y13839*
G37*
G36*
X13159Y13444D02*
X13146Y13430D01*
X13134Y13416*
X13123Y13402*
X13114Y13388*
X13106Y13374*
X13100Y13360*
X13095Y13346*
X13091Y13332*
X13089Y13318*
X13088Y13304*
X13089Y13532*
X13090Y13529*
X13092Y13528*
X13096Y13529*
X13100Y13531*
X13107Y13535*
X13114Y13541*
X13134Y13559*
X13159Y13583*
Y13444*
G37*
G36*
X1924Y13665D02*
X1915Y13653D01*
X1907Y13643*
X1903Y13633*
X1902Y13626*
X1903Y13619*
X1907Y13614*
X1915Y13611*
X1924Y13609*
X1937Y13608*
X1659*
X1673Y13609*
X1686Y13611*
X1700Y13614*
X1714Y13619*
X1728Y13626*
X1742Y13633*
X1756Y13643*
X1770Y13653*
X1784Y13665*
X1798Y13679*
X1937*
X1924Y13665*
G37*
G36*
X15463Y13720D02*
X15465Y13703D01*
X15467Y13688*
X15470Y13675*
X15475Y13664*
X15480Y13655*
X15487Y13648*
X15494Y13643*
X15502Y13640*
X15512Y13639*
X15315*
X15324Y13640*
X15333Y13643*
X15340Y13648*
X15346Y13655*
X15352Y13664*
X15356Y13675*
X15360Y13688*
X15362Y13703*
X15364Y13720*
Y13739*
X15463*
Y13720*
G37*
G36*
X5985Y14255D02*
X6019Y14226D01*
X6036Y14215*
X6053Y14205*
X6070Y14197*
X6086Y14191*
X6097Y14188*
X6108Y14191*
X6119Y14195*
X6128Y14201*
X6135Y14207*
X6140Y14215*
X6143Y14223*
X6144Y14232*
Y14035*
X6143Y14045*
X6140Y14053*
X6135Y14061*
X6128Y14067*
X6119Y14072*
X6108Y14077*
X6097Y14080*
X6086Y14077*
X6070Y14070*
X6053Y14062*
X6036Y14053*
X6019Y14041*
X6002Y14028*
X5985Y14013*
X5967Y13996*
Y14272*
X5985Y14255*
G37*
G36*
X14686Y13879D02*
X14959D01*
X14952Y13877*
X14946Y13871*
X14940Y13861*
X14935Y13848*
X14931Y13830*
X14927Y13808*
X14925Y13783*
X14924Y13766*
X14927Y13711*
X14931Y13690*
X14935Y13672*
X14940Y13658*
X14946Y13648*
X14952Y13642*
X14959Y13641*
X14686*
X14693Y13642*
X14700Y13648*
X14706Y13658*
X14711Y13672*
X14715Y13690*
X14718Y13711*
X14721Y13737*
X14722Y13754*
X14718Y13808*
X14715Y13830*
X14711Y13848*
X14706Y13861*
X14700Y13871*
X14693Y13877*
X14686Y13879*
X14684Y13894*
X14678Y13907*
X14669Y13919*
X14655Y13929*
X14637Y13937*
X14615Y13944*
X14590Y13950*
X14562Y13953*
X14560*
X14543Y13950*
X14528Y13947*
X14513Y13943*
X14501Y13937*
X14490Y13931*
X14480Y13925*
X14471Y13917*
Y14193*
X14480Y14185*
X14490Y14179*
X14501Y14173*
X14513Y14168*
X14528Y14163*
X14543Y14160*
X14558Y14157*
X14590Y14161*
X14615Y14166*
X14637Y14173*
X14655Y14181*
X14669Y14192*
X14678Y14203*
X14684Y14216*
X14686Y14231*
Y13879*
G37*
G36*
X7141Y14524D02*
X7146Y14520D01*
X7151Y14517*
X7158Y14514*
X7164Y14512*
X7171Y14510*
X7179Y14509*
X7188Y14508*
X7196Y14507*
X7206*
X7207Y14249*
X7206Y14263*
X7204Y14277*
X7201Y14291*
X7196Y14305*
X7189Y14319*
X7181Y14332*
X7172Y14346*
X7162Y14360*
X7150Y14374*
X7136Y14389*
Y14528*
X7141Y14524*
G37*
G36*
X4190Y14232D02*
X4173Y14249D01*
X4139Y14277*
X4122Y14289*
X4105Y14299*
X4088Y14307*
X4071Y14313*
X4059Y14316*
X4046Y14313*
X4035Y14309*
X4027Y14303*
X4020Y14297*
X4015Y14289*
X4012Y14281*
X4011Y14272*
Y14468*
X4012Y14459*
X4015Y14451*
X4020Y14443*
X4027Y14437*
X4035Y14432*
X4046Y14427*
X4059Y14424*
X4071Y14427*
X4088Y14433*
X4105Y14441*
X4122Y14451*
X4139Y14463*
X4156Y14476*
X4173Y14491*
X4190Y14508*
Y14232*
G37*
G36*
X9125Y14497D02*
X9120Y14478D01*
Y14458*
X9125Y14434*
X9137Y14407*
X9153Y14378*
X9176Y14346*
X9203Y14311*
X9276Y14233*
X9137Y14094*
X9096Y14133*
X9024Y14195*
X8992Y14217*
X8963Y14233*
X8936Y14245*
X8912Y14250*
X8892*
X8874Y14245*
X8858Y14233*
X9137Y14512*
X9125Y14497*
G37*
G36*
X15259Y14279D02*
X15298Y14246D01*
X15315Y14234*
X15330Y14226*
X15343Y14220*
X15354Y14218*
X15363Y14219*
X15371Y14223*
X15377Y14230*
X15278Y14053*
X15282Y14062*
X15283Y14072*
X15282Y14084*
X15278Y14096*
X15273Y14109*
X15264Y14124*
X15254Y14139*
X15241Y14156*
X15225Y14173*
X15207Y14192*
X15237Y14301*
X15259Y14279*
G37*
G36*
X17107Y13820D02*
X17106Y13827D01*
X17100Y13834*
X17090Y13840*
X17076Y13845*
X17058Y13849*
X17037Y13852*
X17011Y13855*
X16994Y13856*
X16940Y13852*
X16918Y13849*
X16900Y13845*
X16887Y13840*
X16877Y13834*
X16871Y13827*
X16869Y13820*
Y14093*
X16871Y14086*
X16877Y14080*
X16887Y14074*
X16900Y14069*
X16918Y14065*
X16940Y14061*
X16965Y14059*
X16982Y14058*
X17037Y14061*
X17058Y14065*
X17076Y14069*
X17090Y14074*
X17100Y14080*
X17106Y14086*
X17107Y14093*
Y13820*
G37*
G36*
X4452Y14212D02*
X4423Y14178D01*
X4412Y14161*
X4402Y14144*
X4394Y14127*
X4388Y14111*
X4383Y14094*
X4381Y14078*
X4380Y14061*
X4281*
Y14078*
X4278Y14094*
X4274Y14111*
X4267Y14127*
X4259Y14144*
X4250Y14161*
X4238Y14178*
X4225Y14195*
X4210Y14212*
X4193Y14230*
X4469*
X4452Y14212*
G37*
G36*
X11419Y13357D02*
X11417Y13374D01*
X11411Y13389*
X11401Y13402*
X11387Y13413*
X11369Y13423*
X11348Y13431*
X11322Y13437*
X11293Y13441*
X11259Y13444*
X11222Y13445*
Y13642*
X11259Y13643*
X11293Y13646*
X11323Y13651*
X11348Y13657*
X11370Y13666*
X11388Y13677*
X11402Y13690*
X11412Y13705*
X11418Y13721*
X11420Y13740*
X11419Y13357*
G37*
G36*
X16762Y13021D02*
X16764Y13004D01*
X16766Y12989*
X16770Y12976*
X16774Y12965*
X16780Y12956*
X16786Y12949*
X16793Y12945*
X16802Y12942*
X16811Y12941*
X16614*
X16624Y12942*
X16632Y12945*
X16639Y12949*
X16646Y12956*
X16651Y12965*
X16656Y12976*
X16659Y12989*
X16661Y13004*
X16663Y13021*
Y13040*
X16762*
Y13021*
G37*
G36*
X14952Y13287D02*
X14946Y13281D01*
X14940Y13271*
X14935Y13257*
X14931Y13239*
X14927Y13218*
X14925Y13192*
X14922Y13129*
X14921Y13092*
X14749*
X14782Y12898*
X14775Y12891*
X14783Y12890*
X14799Y12892*
X14829Y12897*
X14854Y12904*
X14876Y12912*
X14894Y12923*
X14908Y12936*
X14918Y12951*
X14924Y12968*
X14926Y12986*
Y12593*
X14924Y12611*
X14918Y12628*
X14908Y12643*
X14894Y12656*
X14876Y12666*
X14854Y12675*
X14829Y12682*
X14799Y12687*
X14783Y12688*
X14768Y12687*
X14738Y12682*
X14713Y12675*
X14691Y12666*
X14673Y12656*
X14659Y12643*
X14649Y12628*
X14643Y12611*
X14641Y12593*
Y12706*
X14635Y12684*
X14633Y12661*
X14635Y12640*
X14641Y12620*
X14463Y12996*
X14473Y12980*
X14488Y12971*
X14506Y12969*
X14528Y12973*
X14554Y12984*
X14584Y13001*
X14618Y13025*
X14655Y13056*
X14724Y13120*
Y13129*
X14718Y13218*
X14715Y13239*
X14711Y13257*
X14706Y13271*
X14700Y13281*
X14693Y13287*
X14686Y13289*
X14959*
X14952Y13287*
G37*
G36*
X16054Y13076D02*
X16055Y13060D01*
X16058Y13045*
X16061Y13032*
X16065Y13021*
X16071Y13012*
X16077Y13005*
X16085Y13000*
X16093Y12997*
X16102Y12996*
X15924Y12997*
X15930Y12998*
X15935Y13001*
X15940Y13006*
X15944Y13013*
X15947Y13021*
X15950Y13032*
X15952Y13045*
X15954Y13060*
X15955Y13095*
X16053*
X16054Y13076*
G37*
G36*
X15426Y12593D02*
X15424Y12611D01*
X15418Y12628*
X15408Y12643*
X15394Y12656*
X15376Y12666*
X15354Y12675*
X15329Y12682*
X15299Y12687*
X15283Y12688*
X15268Y12687*
X15238Y12682*
X15213Y12675*
X15191Y12666*
X15173Y12656*
X15159Y12643*
X15149Y12628*
X15143Y12611*
X15141Y12593*
Y12986*
X15143Y12968*
X15149Y12951*
X15159Y12936*
X15173Y12923*
X15191Y12912*
X15213Y12904*
X15238Y12897*
X15268Y12892*
X15283Y12890*
X15299Y12892*
X15329Y12897*
X15354Y12904*
X15376Y12912*
X15394Y12923*
X15408Y12936*
X15418Y12951*
X15424Y12968*
X15426Y12986*
Y12593*
G37*
G36*
X17320Y12947D02*
X17321Y12946D01*
X17323Y12945*
X17325Y12944*
X17328Y12943*
X17331*
X17333Y12942*
X17340*
X17344*
X17345Y12733*
X17344Y12743*
X17342Y12753*
X17338Y12764*
X17333Y12776*
X17327Y12788*
X17319Y12800*
X17310Y12813*
X17300Y12826*
X17274Y12853*
X17318Y12948*
X17320Y12947*
G37*
G36*
X5483Y12824D02*
X5512Y12800D01*
X5527Y12790*
X5541Y12782*
X5555Y12776*
X5568Y12772*
X5581Y12769*
X5594Y12768*
X5606*
X5358Y12740*
X5369Y12742*
X5377Y12746*
X5382Y12751*
X5384Y12758*
X5383Y12767*
X5379Y12777*
X5372Y12789*
X5361Y12803*
X5348Y12818*
X5332Y12835*
X5467Y12839*
X5483Y12824*
G37*
G36*
X8125Y12780D02*
X8107Y12761D01*
X8079Y12728*
X8070Y12713*
X8063Y12700*
X8058Y12689*
X8057Y12678*
X8058Y12669*
X8062Y12662*
X8069Y12655*
X7906Y12768*
X7915Y12764*
X7924Y12762*
X7935Y12763*
X7947Y12766*
X7960Y12771*
X7974Y12779*
X7990Y12790*
X8006Y12803*
X8024Y12818*
X8042Y12836*
X8125Y12780*
G37*
G36*
X13810Y13120D02*
X13801Y13117D01*
X13794Y13112*
X13787Y13106*
X13782Y13097*
X13778Y13086*
X13774Y13073*
X13772Y13058*
X13770Y13042*
Y13023*
X13671*
Y13042*
X13669Y13058*
X13667Y13073*
X13663Y13086*
X13659Y13097*
X13654Y13106*
X13647Y13112*
X13640Y13117*
X13631Y13120*
X13622Y13121*
X13819*
X13810Y13120*
G37*
G36*
X4013Y13564D02*
X4019Y13547D01*
X4029Y13532*
X4042Y13520*
X4060Y13509*
X4082Y13500*
X4107Y13493*
X4120Y13491*
X4134Y13494*
X4148Y13498*
X4161Y13504*
X4172Y13509*
X4182Y13516*
X4190Y13524*
Y13485*
X4208Y13484*
Y13287*
X4190*
Y13248*
X4182Y13256*
X4172Y13262*
X4161Y13268*
X4148Y13273*
X4134Y13278*
X4120Y13281*
X4107Y13279*
X4082Y13272*
X4060Y13263*
X4042Y13252*
X4029Y13239*
X4019Y13224*
X4013Y13208*
X4011Y13189*
Y13583*
X4013Y13564*
G37*
G36*
X5566Y13326D02*
X5580Y13313D01*
X5594Y13303*
X5608Y13293*
X5622Y13286*
X5636Y13279*
X5650Y13274*
X5663Y13271*
X5677Y13269*
X5691Y13268*
X5415Y13266*
X5427Y13267*
X5437Y13269*
X5444Y13273*
X5448Y13278*
X5449Y13284*
X5447Y13293*
X5443Y13302*
X5436Y13313*
X5425Y13325*
X5412Y13339*
X5551*
X5566Y13326*
G37*
G36*
X552Y13507D02*
X586Y13478D01*
X603Y13467*
X620Y13457*
X636Y13449*
X653Y13443*
X666Y13439*
X679Y13443*
X690Y13447*
X699Y13453*
X706Y13459*
X711Y13467*
X714Y13475*
X715Y13484*
Y13287*
X714Y13297*
X711Y13305*
X706Y13312*
X699Y13319*
X690Y13324*
X679Y13329*
X666Y13332*
X653Y13329*
X636Y13322*
X620Y13314*
X603Y13305*
X586Y13293*
X569Y13280*
X552Y13265*
X534Y13248*
Y13524*
X552Y13507*
G37*
G36*
X13837Y13416D02*
X13840Y13407D01*
X13845Y13400*
X13852Y13394*
X13861Y13388*
X13872Y13384*
X13885Y13380*
X13900Y13378*
X13917Y13376*
X13936*
Y13278*
X13917Y13277*
X13900Y13276*
X13885Y13273*
X13872Y13270*
X13861Y13265*
X13852Y13260*
X13845Y13253*
X13840Y13246*
X13837Y13238*
X13836Y13228*
Y13425*
X13837Y13416*
G37*
G36*
X16802Y13229D02*
X16793Y13226D01*
X16786Y13221*
X16780Y13214*
X16774Y13205*
X16770Y13194*
X16766Y13181*
X16764Y13167*
X16762Y13150*
Y13131*
X16663*
Y13150*
X16661Y13167*
X16659Y13181*
X16656Y13194*
X16651Y13205*
X16646Y13214*
X16639Y13221*
X16632Y13226*
X16624Y13229*
X16614Y13230*
X16811*
X16802Y13229*
G37*
G36*
X17373D02*
X17364Y13226D01*
X17357Y13221*
X17350Y13214*
X17345Y13205*
X17341Y13194*
X17337Y13181*
X17335Y13167*
X17333Y13150*
Y13131*
X17234*
Y13150*
X17232Y13167*
X17230Y13181*
X17226Y13194*
X17222Y13205*
X17217Y13214*
X17210Y13221*
X17203Y13226*
X17194Y13229*
X17185Y13230*
X17382*
X17373Y13229*
G37*
G36*
X16093Y13289D02*
X16085Y13286D01*
X16077Y13281*
X16071Y13274*
X16065Y13265*
X16061Y13254*
X16058Y13241*
X16055Y13226*
X16054Y13209*
X16053Y13190*
X15955*
X15954Y13209*
X15953Y13226*
X15950Y13241*
X15947Y13254*
X15942Y13265*
X15937Y13274*
X15931Y13281*
X15923Y13286*
X15915Y13289*
X15906Y13290*
X16102*
X16093Y13289*
G37*
G54D10*
X6299Y18563D03*
X6673Y17657D03*
X5925D03*
X17087Y11831D03*
X16713Y12736D03*
X17461D03*
X14843Y7382D03*
X14468Y8287D03*
X15217D03*
X13346Y12421D03*
X12972Y13327D03*
X13720D03*
X18780Y6594D03*
X18406Y7500D03*
X19154D03*
X8858Y16240D03*
X8484Y17146D03*
X9232D03*
G54D11*
X3366Y20571D03*
X4114D03*
X3740Y21457D03*
X11909Y14469D03*
X11161D03*
X11535Y13583D03*
G54D12*
X12106Y18661D03*
X11516D03*
X16004Y13465D03*
X15413D03*
X14823D03*
X14232D03*
X16516Y8819D03*
X17106D03*
X5217Y16535D03*
X4626D03*
X3445D03*
X4035D03*
X10335Y18661D03*
X10925D03*
X3051Y2756D03*
X3642D03*
X17697Y8228D03*
X17106D03*
X16516D03*
X15925D03*
X2953Y3346D03*
X3543D03*
X14823Y14055D03*
X15413D03*
G54D13*
X17283Y13957D03*
Y13366D03*
X16693Y13957D03*
Y13366D03*
Y11201D03*
Y10610D03*
X18386Y8720D03*
Y8130D03*
X18976Y8720D03*
Y8130D03*
X2362Y3248D03*
Y2657D03*
X5906Y16437D03*
Y17028D03*
X18386Y5965D03*
Y5374D03*
X9252Y18366D03*
Y17776D03*
X10394Y4035D03*
Y3445D03*
X11693Y4232D03*
Y3642D03*
X12480Y4232D03*
Y3642D03*
X13937Y4232D03*
Y3642D03*
X13228Y4232D03*
Y3642D03*
G54D14*
X3387Y14386D03*
X1338D03*
X3387Y13386D03*
X1338D03*
Y12386D03*
X3387D03*
G54D15*
X9665Y4921D03*
Y5118D03*
Y5315D03*
Y5512D03*
Y5709D03*
Y5906D03*
Y6102D03*
Y6299D03*
Y6496D03*
Y6693D03*
Y6890D03*
Y7087D03*
Y7283D03*
Y7480D03*
Y7677D03*
Y7874D03*
Y8071D03*
Y8268D03*
Y8465D03*
Y8661D03*
Y8858D03*
Y9055D03*
Y9252D03*
Y9449D03*
Y9646D03*
X3720D03*
Y9449D03*
Y9252D03*
Y9055D03*
Y8858D03*
Y8661D03*
Y8465D03*
Y8268D03*
Y8071D03*
Y7874D03*
Y7677D03*
Y7480D03*
Y7283D03*
Y7087D03*
Y6890D03*
Y6693D03*
Y6496D03*
Y6299D03*
Y6102D03*
Y5906D03*
Y5709D03*
Y5512D03*
Y5315D03*
Y5118D03*
Y4921D03*
G54D16*
X9055Y10256D03*
X8858D03*
X8661D03*
X8465D03*
X8268D03*
X8071D03*
X7874D03*
X7677D03*
X7480D03*
X7283D03*
X7087D03*
X6890D03*
X6693D03*
X6496D03*
X6299D03*
X6102D03*
X5906D03*
X5709D03*
X5512D03*
X5315D03*
X5118D03*
X4921D03*
X4724D03*
X4528D03*
X4331D03*
Y4311D03*
X4528D03*
X4724D03*
X4921D03*
X5118D03*
X5315D03*
X5512D03*
X5709D03*
X5906D03*
X6102D03*
X6299D03*
X6496D03*
X6693D03*
X6890D03*
X7087D03*
X7283D03*
X7480D03*
X7677D03*
X7874D03*
X8071D03*
X8268D03*
X8465D03*
X8661D03*
X8858D03*
X9055D03*
G54D17*
X11380Y16315D03*
X4102Y18868D03*
X15283Y11526D03*
X16848Y6374D03*
G54D18*
X12396Y16876D03*
X10364D03*
X3087Y18307D03*
X5118D03*
X16299Y12087D03*
X14268D03*
X17864Y6935D03*
X15833D03*
G54D19*
X10630Y15315D03*
X11130D03*
X11630D03*
X12130D03*
X4852Y19868D03*
X4352D03*
X3852D03*
X3352D03*
X14533Y10526D03*
X15033D03*
X15533D03*
X16033D03*
X16098Y5374D03*
X16598D03*
X17098D03*
X17598D03*
G54D20*
X12130Y17579D03*
X11630D03*
X11130D03*
X10630D03*
X3352Y17604D03*
X3852D03*
X4352D03*
X4852D03*
X16033Y12789D03*
X15533D03*
X15033D03*
X14533D03*
X17598Y7638D03*
X17098D03*
X16598D03*
X16098D03*
G54D21*
X5669Y13152D03*
Y12652D03*
Y12152D03*
Y11652D03*
X7717Y13152D03*
Y12652D03*
Y12152D03*
Y11652D03*
G54D22*
X7421Y14173D03*
X6358D03*
G54D23*
X2559Y4390D03*
Y5453D03*
G54D24*
X9024Y1811D02*
Y2433D01*
X9724Y1811D02*
X10024D01*
X10630Y15321D02*
X12130D01*
X394Y13386D02*
X1575D01*
X4102Y18868D02*
X4663Y18307D01*
X5118*
X3852Y19118D02*
X4102Y18868D01*
X3852Y19118D02*
Y19868D01*
X4848Y2382D02*
X7437D01*
X7992Y1827*
X8110Y2559D02*
X8504Y2165D01*
X5315Y2756D02*
X8701D01*
X9024Y2433*
X9866Y2953D02*
X10992Y1827D01*
X10394Y3031D02*
Y3445D01*
Y3031D02*
X11598Y1827D01*
X11992*
X7707Y404D02*
X8566D01*
X7407Y703D02*
X7707Y404D01*
X8566D02*
X8743Y226D01*
X10827Y2899D02*
X11364Y2362D01*
X11417Y2559D02*
X12717D01*
X11162Y2814D02*
X11417Y2559D01*
X11162Y2814D02*
Y2829D01*
X11142Y2849D02*
X11162Y2829D01*
X11142Y2849D02*
Y3898D01*
X11772Y1339D02*
X12244D01*
X11496Y1063D02*
X11772Y1339D01*
X11496Y551D02*
Y1063D01*
X11171Y226D02*
X11496Y551D01*
X8743Y226D02*
X11171D01*
X12244Y2362D02*
X12480Y2126D01*
X11364Y2362D02*
X12244D01*
X10827Y2899D02*
Y6890D01*
X12992Y1827D02*
Y2283D01*
X12717Y2559D02*
X12992Y2283D01*
X6939Y1250D02*
X7167D01*
X6362Y1827D02*
X6939Y1250D01*
X5992Y1827D02*
X6362D01*
X3642Y2756D02*
X3681Y2717D01*
X4102*
X4992Y1827*
X3193D02*
X3992D01*
X11909Y14469D02*
X12130Y14689D01*
Y15315*
X7717Y12152D02*
X8215D01*
X8661Y12598*
X19154Y6673D02*
X19567Y6260D01*
X19154Y6673D02*
Y7500D01*
X18189Y6457D02*
X18406Y6673D01*
Y7500*
X14055Y7441D02*
X14567Y7953D01*
X14715*
X15049Y8287*
X15217*
X17913Y12283D02*
X18268D01*
X17461Y12736D02*
X17913Y12283D01*
X16713Y12736D02*
X17683Y11778D01*
X13918Y12480D02*
Y12696D01*
X13720Y12894D02*
X13918Y12696D01*
X13720Y12894D02*
Y13327D01*
X9843Y16496D02*
Y16535D01*
X9232Y17146D02*
X9843Y16535D01*
X3711Y9242D02*
X3720Y9252D01*
X2728Y9242D02*
X3711D01*
X2423Y8937D02*
X2728Y9242D01*
X984Y8937D02*
X2423D01*
X3711Y9045D02*
X3720Y9055D01*
X2782Y9045D02*
X3711D01*
X1674Y7937D02*
X2782Y9045D01*
X984Y7937D02*
X1674D01*
X3720Y8858D02*
D01*
X2845D02*
X3720D01*
X984Y6997D02*
X2845Y8858D01*
X984Y6937D02*
Y6997D01*
X3720Y8652D02*
Y8661D01*
X2889Y8652D02*
X3720D01*
X2008Y7770D02*
X2889Y8652D01*
X2008Y6535D02*
Y7770D01*
X1409Y5937D02*
X2008Y6535D01*
X984Y5937D02*
X1409D01*
X984Y4937D02*
X1378Y5331D01*
Y5655*
X2185Y6462*
Y7697*
X2943Y8455*
X3711*
X3006Y8268D02*
X3720D01*
X2362Y7623D02*
X3006Y8268D01*
X984Y4134D02*
X1771Y4921D01*
X984Y3937D02*
Y4134D01*
X2953Y9449D02*
X3720D01*
X2465Y9937D02*
X2953Y9449D01*
X984Y9937D02*
X2465D01*
X984Y10937D02*
X1858D01*
X3150Y9646*
X3720*
X5315Y17323D02*
X5610Y17028D01*
X5906*
X12992Y827D02*
Y1827D01*
X4528Y3794D02*
Y4311D01*
Y3794D02*
X5369Y2953D01*
X3543Y3346D02*
X3883D01*
X7415Y703D02*
Y1002D01*
X7167Y1250D02*
X7415Y1002D01*
X3711Y5108D02*
X3720Y5118D01*
X3328Y5108D02*
X3711D01*
X3328Y5089D02*
Y5108D01*
X3258Y5089D02*
X3328D01*
X7874Y4311D02*
D01*
X9665Y6693D02*
D01*
X8839D02*
X9665D01*
Y8661D02*
D01*
X9233D02*
X9665D01*
Y8465D02*
X10236D01*
X10531Y19055D02*
X10925Y18661D01*
X8858Y19055D02*
X10531D01*
X8465Y18661D02*
X8858Y19055D01*
X10925Y18661D02*
X11516D01*
X8858Y10256D02*
D01*
Y9823D02*
Y10256D01*
X4528Y9823D02*
Y10256D01*
Y9823D02*
D01*
X8652Y10266D02*
X8661Y10256D01*
X8652Y10266D02*
Y10629D01*
X8465Y10816D02*
X8652Y10629D01*
X8465Y10816D02*
Y10827D01*
X4341Y10714D02*
X4453Y10827D01*
X4341Y10266D02*
Y10714D01*
X4331Y10256D02*
X4341Y10266D01*
X7321Y13152D02*
X7717D01*
X6102Y11220D02*
X6693Y11811D01*
Y12524*
X7321Y13152*
X5585Y12652D02*
X5669D01*
X4331Y13906D02*
X5585Y12652D01*
X7717D02*
X7927D01*
X8268Y12992*
Y13327*
X7421Y14173D02*
X8268Y13327D01*
X3366Y19882D02*
Y20571D01*
X3352Y19868D02*
X3366Y19882D01*
X4907Y19868D02*
X5709Y20669D01*
X4852Y19868D02*
X4907D01*
X3352D02*
X3852D01*
X4352D02*
X4852D01*
X3852D02*
X4352D01*
X10992Y1827D02*
X11024Y1811D01*
X9992Y1827D02*
X10024Y1811D01*
X4331Y3740D02*
Y4311D01*
Y3740D02*
X5315Y2756D01*
X8992Y1827D02*
X9024Y1811D01*
X6992Y1827D02*
X7024Y1811D01*
X9665Y7480D02*
X10236D01*
X5992Y1827D02*
X6024Y1811D01*
X3352Y17604D02*
X3445Y17512D01*
Y16535D02*
Y17512D01*
X5925Y17036D02*
Y17657D01*
X4035Y16535D02*
X4626D01*
X6673Y16654D02*
Y17657D01*
X6164Y16145D02*
X6673Y16654D01*
X4426Y16145D02*
X6164D01*
X4035Y16535D02*
X4426Y16145D01*
X9232Y17146D02*
Y17231D01*
X9222Y17241D02*
X9232Y17231D01*
X9222Y17241D02*
Y17776D01*
X9252*
X12130Y17579D02*
Y17911D01*
X12106Y17935D02*
X12130Y17911D01*
X12106Y17935D02*
Y18465D01*
X8465Y17165D02*
Y18661D01*
Y17165D02*
X8484Y17146D01*
X9843Y14528D02*
X10630Y15315D01*
Y15321*
X19154Y7500D02*
Y7953D01*
X18976Y8130D02*
X19154Y7953D01*
X18406Y7500D02*
Y8110D01*
X18386Y8130D02*
X18406Y8110D01*
X18780Y6358D02*
Y6594D01*
X18386Y5965D02*
X18780Y6358D01*
X17106Y8228D02*
Y8819D01*
Y8228D02*
D01*
X15276D02*
X15925D01*
X15217Y8287D02*
X15276Y8228D01*
X14468Y8287D02*
X15394Y9213D01*
X16713*
X17106Y8819*
X14843Y5457D02*
X14925Y5374D01*
X16098*
X16598*
X17098*
X17598*
X18386*
X17697Y7736D02*
Y8228D01*
X17598Y7638D02*
X17697Y7736D01*
X17283Y12913D02*
Y13366D01*
Y12913D02*
X17461Y12736D01*
X16713D02*
Y13346D01*
X16693Y13366D02*
X16713Y13346D01*
X16693Y11437D02*
X17087Y11831D01*
X16693Y11201D02*
Y11437D01*
X16689Y10606D02*
X16693Y10610D01*
X16114Y10606D02*
X16689D01*
X16033Y10526D02*
X16114Y10606D01*
X14533Y10526D02*
X15033D01*
X15533*
X16033*
X13376D02*
X14533D01*
X13346Y10496D02*
X13376Y10526D01*
X13720Y13327D02*
X14094D01*
X14232Y13465*
X15413D02*
Y14055D01*
X12972Y13327D02*
X14094Y14449D01*
X15020*
X15413Y14055*
X16004Y12819D02*
Y13465D01*
Y12819D02*
X16033Y12789D01*
X3387Y14386D02*
X3935D01*
X3387D02*
X3403Y14370D01*
X3387Y12386D02*
X4331D01*
X5435*
X5669Y12152*
X394Y12402D02*
X1322D01*
X1338Y12386*
X3992Y1827D02*
Y2051D01*
X2362Y2657D02*
X3193Y1827D01*
X5512Y4311D02*
Y5512D01*
X4331Y10256D02*
Y10563D01*
X6693Y10990D02*
Y11220D01*
X6529Y10827D02*
X6693Y10990D01*
X4453Y10827D02*
X6529D01*
X8465*
X3720Y4921D02*
X4724D01*
X4921Y5118*
X9665Y9055D02*
X10236D01*
X10433Y8858*
Y8268D02*
Y8858D01*
X10236Y8465D02*
X10433Y8268D01*
X9665Y8858D02*
X10433D01*
X9665D02*
D01*
X7717Y11652D02*
X8821D01*
X3346Y5512D02*
X3720D01*
X1771Y4921D02*
Y5797D01*
X2362Y6389*
Y7623*
X1969Y3937D02*
Y5709D01*
X2362Y6102*
X2756*
X3346Y5512*
X3150Y5315D02*
X3720D01*
X3012Y5453D02*
X3150Y5315D01*
X2559Y5453D02*
X3012D01*
X1969Y3937D02*
X2165Y3740D01*
X3740*
X7874Y4311D02*
Y4724D01*
X8848Y4321D02*
Y4769D01*
X8824Y4793D02*
X8848Y4769D01*
X8593Y4793D02*
X8824D01*
X8268Y5118D02*
X8593Y4793D01*
X8848Y4321D02*
X8858Y4311D01*
X7874Y4724D02*
X8268Y5118D01*
X9449Y9989D02*
Y11024D01*
X8821Y11652D02*
X9449Y11024D01*
X5512Y5512D02*
X8858Y8858D01*
Y9398*
X9449Y9989*
X3740Y10186D02*
X5315Y8611D01*
Y4311D02*
Y8611D01*
X3740Y10186D02*
Y10630D01*
X4331Y11220*
X6102*
X10433Y8268D02*
X11457Y7244D01*
Y6614D02*
Y7244D01*
X11142Y6299D02*
X11457Y6614D01*
X9665Y6890D02*
X10079D01*
X10394Y6575*
Y4724D02*
Y6575D01*
X10236Y7480D02*
X10827Y6890D01*
X9055Y4311D02*
X9980D01*
X10394Y4724*
X6889Y3544D02*
Y3740D01*
X6693Y3348D02*
X6889Y3544D01*
X9252Y1339D02*
X9724Y1811D01*
X8780Y1339D02*
X9252D01*
X8504Y1614D02*
X8780Y1339D01*
X8504Y1614D02*
Y2165D01*
X11992Y1827D02*
Y1984D01*
X12244Y1339D02*
X12480Y1575D01*
Y2126*
X3883Y3346D02*
X4848Y2382D01*
X3740Y3740D02*
X4921Y2559D01*
X6890Y3740D02*
Y4311D01*
X4921Y2559D02*
X8110D01*
X5369Y2953D02*
X9866D01*
X7087Y3937D02*
Y4311D01*
Y3937D02*
X7677Y3346D01*
X10295*
X10394Y3445*
X10256Y4035D02*
X10394D01*
X9980Y4311D02*
X10256Y4035D01*
X11142Y3898D02*
X11476Y4232D01*
X11693*
X11142Y3898D02*
Y6299D01*
X11693Y4232D02*
X12480D01*
X13228*
X13937*
X11693Y3189D02*
Y3642D01*
X13937D02*
X13976Y3602D01*
Y2953D02*
Y3602D01*
X13228Y3642D02*
X13268Y3602D01*
Y2992D02*
Y3602D01*
X12480Y3642D02*
D01*
Y2992D02*
Y3642D01*
X5827Y14134D02*
X6319D01*
X6358Y14173*
X1575Y13386D02*
X2126Y13937D01*
Y14606*
X2598Y15079*
X6516*
X7421Y14173*
X1338Y12386D02*
X1953D01*
X2402Y12835*
Y14488*
X2815Y14902*
X3403Y14370D02*
X4331D01*
Y13906D02*
Y14370D01*
X2815Y14902D02*
X4705D01*
X5039Y14567*
Y13782D02*
Y14567D01*
Y13782D02*
X5669Y13152D01*
G54D25*
X1575Y2992D02*
X1614D01*
X1673Y3051*
X1575Y2992D02*
Y3150D01*
X1673Y3248*
X12382Y12421D02*
X13346D01*
X12205Y12598D02*
X12382Y12421D01*
X11535Y13543D02*
Y13583D01*
Y13268D02*
Y13543D01*
Y13268D02*
X12205Y12598D01*
Y8307D02*
Y12598D01*
X3150Y4331D02*
X3543D01*
X2697D02*
X3150D01*
Y4980D02*
X3258Y5089D01*
X3150Y4331D02*
Y4980D01*
X10335Y18465D02*
X10630Y18169D01*
X10335Y18465D02*
Y18661D01*
D01*
X9547D02*
X10335D01*
X9252Y18366D02*
X9547Y18661D01*
X5669Y11652D02*
X6140D01*
X6358Y11870*
Y14173*
X1338Y14386D02*
Y14920D01*
X7480Y16732D02*
Y18307D01*
X6890Y18898D02*
X7480Y18307D01*
X6890Y18898D02*
Y20488D01*
X6299Y18563D02*
X6555D01*
X6890Y18898*
X7480Y16732D02*
X8843Y15370D01*
Y14528D02*
X9827Y13543D01*
X11535*
X8843Y14543D02*
Y16224D01*
X12205Y8307D02*
X14055Y6457D01*
X14843*
X13346Y11496D02*
Y12421D01*
X14843Y6457D02*
Y7382D01*
X6102Y15354D02*
X7480Y16732D01*
X1338Y14920D02*
X1772Y15354D01*
X6102*
X5921Y21457D02*
X6709Y20669D01*
X3740Y21457D02*
X5921D01*
X1673Y3248D02*
X2362D01*
X14823Y13079D02*
Y13465D01*
X14533Y12789D02*
X14823Y13079D01*
Y13465D02*
Y14055D01*
Y13465D02*
D01*
X14331Y14055D02*
X14823D01*
X14331D02*
D01*
X16693Y13957D02*
X17283D01*
X16201D02*
X16693D01*
X16102Y14055D02*
X16201Y13957D01*
X18386Y8720D02*
X18976D01*
X17894D02*
X18386D01*
X17795Y8819D02*
X17894Y8720D01*
X16516Y8228D02*
Y8819D01*
Y8228D02*
D01*
Y7720D02*
Y8228D01*
Y7720D02*
X16598Y7638D01*
X16098D02*
X16598D01*
X17098*
X14533Y12789D02*
X15033D01*
X15533*
X10630Y17579D02*
X11130D01*
X11630*
X10630D02*
Y18169D01*
X11130Y17579D02*
Y17980D01*
X11220Y18071*
X4331Y17126D02*
Y17583D01*
X4352Y17604*
X3852D02*
X4352D01*
X4843*
X4852Y17195D02*
X5217Y16831D01*
Y16535D02*
Y16831D01*
X4852Y17195D02*
Y17595D01*
X5217Y16535D02*
X5807D01*
X5906Y16437*
X15630Y8819D02*
X16516D01*
X3387Y13386D02*
X4331D01*
X3387D02*
D01*
X3287D02*
X3387D01*
X409Y14386D02*
X1338D01*
X394Y14370D02*
X409Y14386D01*
X6496Y9055D02*
X8090D01*
X8858Y9823*
X4528D02*
X5296Y9055D01*
X6496*
X2953Y2854D02*
X3051Y2756D01*
X2953Y2854D02*
Y3346D01*
X2362Y3248D02*
X2461Y3346D01*
X2953*
X8406Y6260D02*
X8839Y6693D01*
X8228Y6260D02*
X8406D01*
X8228D02*
Y7657D01*
Y5157D02*
X8268Y5118D01*
X8228Y5157D02*
Y6260D01*
Y7657D02*
X9233Y8661D01*
G54D26*
X8843Y14528D03*
X6709Y20669D03*
X12992Y1827D03*
G54D27*
X9843Y14528D03*
X5709Y20669D03*
X14843Y5457D03*
X13346Y10496D03*
X12992Y827D03*
X11992Y1827D03*
Y827D03*
X10992Y1827D03*
Y827D03*
X9992Y1827D03*
Y827D03*
X8992Y1827D03*
Y827D03*
X7992Y1827D03*
Y827D03*
X6992Y1827D03*
Y827D03*
X5992Y1827D03*
Y827D03*
X4992Y1827D03*
Y827D03*
X3992Y1827D03*
Y827D03*
X984Y4937D03*
Y5937D03*
Y6937D03*
Y7937D03*
Y8937D03*
Y9937D03*
Y10937D03*
G54D28*
X14843Y6457D03*
X13346Y11496D03*
X984Y3937D03*
G54D29*
X1575Y2992D03*
G54D30*
X11693Y2953D03*
X8661Y12598D03*
X19567Y6260D03*
X18189Y6457D03*
X14055Y7441D03*
X18268Y12283D03*
X17683Y11778D03*
X13918Y12480D03*
X9843Y16496D03*
X5315Y17323D03*
X4331Y17126D03*
Y13386D03*
Y12386D03*
X394Y12402D03*
X11220Y18071D03*
X14331Y14055D03*
X16102D03*
X17795Y8819D03*
X15630D03*
X6496Y9055D03*
X6693Y11220D03*
X3543Y4331D03*
X4921Y5118D03*
X394Y14370D03*
Y13386D03*
X11457Y6614D03*
X10394Y6575D03*
X8228Y6260D03*
X6693Y3348D03*
X13976Y2953D03*
X13268Y2992D03*
X12480D03*
X5827Y14134D03*
X4331Y14370D03*
G54D31*
X1378Y1378D03*
Y21102D03*
X21102Y1378D03*
M02*