%FSLAX24Y24*%
%MOIN*%
%SFA1B1*%

%IPPOS*%
%ADD49R,0.066900X0.066900*%
%ADD50C,0.066900*%
%ADD51R,0.066900X0.066900*%
%ADD52C,0.057100*%
%ADD53C,0.047200*%
%ADD54C,0.204700*%
%LNdeploy(58mm)-1*%
%LPD*%
G54D49*
X8843Y14528D03*
X6709Y20669D03*
X12992Y1827D03*
G54D50*
X9843Y14528D03*
X5709Y20669D03*
X14843Y5457D03*
X13346Y10496D03*
X12992Y827D03*
X11992Y1827D03*
Y827D03*
X10992Y1827D03*
Y827D03*
X9992Y1827D03*
Y827D03*
X8992Y1827D03*
Y827D03*
X7992Y1827D03*
Y827D03*
X6992Y1827D03*
Y827D03*
X5992Y1827D03*
Y827D03*
X4992Y1827D03*
Y827D03*
X3992Y1827D03*
Y827D03*
X984Y4937D03*
Y5937D03*
Y6937D03*
Y7937D03*
Y8937D03*
Y9937D03*
Y10937D03*
G54D51*
X14843Y6457D03*
X13346Y11496D03*
X984Y3937D03*
G54D52*
X1575Y2992D03*
G54D53*
X11693Y2953D03*
X8661Y12598D03*
X19567Y6260D03*
X18189Y6457D03*
X14055Y7441D03*
X18268Y12283D03*
X17683Y11778D03*
X13918Y12480D03*
X9843Y16496D03*
X5315Y17323D03*
X4331Y17126D03*
Y13386D03*
Y12386D03*
X394Y12402D03*
X11220Y18071D03*
X14331Y14055D03*
X16102D03*
X17795Y8819D03*
X15630D03*
X6496Y9055D03*
X6693Y11220D03*
X3543Y4331D03*
X4921Y5118D03*
X394Y14370D03*
Y13386D03*
X11457Y6614D03*
X10394Y6575D03*
X8228Y6260D03*
X6693Y3348D03*
X13976Y2953D03*
X13268Y2992D03*
X12480D03*
X5827Y14134D03*
X4331Y14370D03*
G54D54*
X1378Y1378D03*
Y21102D03*
X21102Y1378D03*
M02*