%FSLAX24Y24*%
%MOIN*%
%SFA1B1*%

%IPPOS*%
%ADD10O,0.011800X0.070900*%
%ADD11O,0.070900X0.011800*%
%ADD12O,0.023600X0.070900*%
%ADD13R,0.066900X0.043300*%
%ADD14R,0.027600X0.035400*%
%ADD15R,0.043300X0.066900*%
%ADD16R,0.013800X0.009800*%
%ADD17R,0.009800X0.013800*%
%ADD18R,0.043300X0.023600*%
%ADD19R,0.035400X0.027600*%
%ADD20C,0.010000*%
%ADD21C,0.000000*%
%ADD22C,0.059100*%
%ADD23R,0.059100X0.059100*%
%ADD24R,0.059100X0.059100*%
%ADD25C,0.196900*%
%ADD26C,0.050000*%
%LNapdet-1*%
%LPD*%
G36*
X10425Y5414D02*
X10426Y5397D01*
X10429Y5382*
X10432Y5369*
X10437Y5358*
X10442Y5348*
X10449Y5341*
X10456Y5336*
X10465Y5333*
X10474Y5332*
X10274*
X10284Y5333*
X10292Y5336*
X10300Y5341*
X10306Y5348*
X10312Y5358*
X10316Y5369*
X10320Y5382*
X10322Y5397*
X10324Y5414*
Y5433*
X10424*
X10425Y5414*
G37*
G36*
X11015D02*
X11017Y5397D01*
X11019Y5382*
X11023Y5369*
X11027Y5358*
X11033Y5348*
X11039Y5341*
X11047Y5336*
X11055Y5333*
X11065Y5332*
X10865*
X10874Y5333*
X10883Y5336*
X10890Y5341*
X10897Y5348*
X10902Y5358*
X10907Y5369*
X10910Y5382*
X10913Y5397*
X10914Y5414*
X10915Y5433*
X11015*
Y5414*
G37*
G36*
X13398Y5494D02*
X13401Y5474D01*
X13408Y5454*
X13416Y5433*
X13428Y5412*
X13441Y5390*
X13458Y5368*
X13476Y5345*
X13521Y5297*
X13171*
X13195Y5321*
X13235Y5368*
X13251Y5390*
X13265Y5412*
X13276Y5433*
X13285Y5454*
X13291Y5474*
X13295Y5494*
X13296Y5513*
X13396*
X13398Y5494*
G37*
G36*
X15427Y5560D02*
X15466Y5526D01*
X15483Y5514*
X15498Y5505*
X15512Y5500*
X15523Y5497*
X15533Y5498*
X15540Y5502*
X15546Y5509*
X15445Y5330*
X15449Y5339*
X15450Y5350*
X15449Y5361*
X15446Y5374*
X15440Y5387*
X15431Y5402*
X15421Y5418*
X15407Y5435*
X15392Y5452*
X15373Y5471*
X15405Y5581*
X15427Y5560*
G37*
G36*
X9158Y5944D02*
X9139Y5943D01*
X9125Y5941*
X9113Y5938*
X9105Y5933*
X9100Y5926*
X9099Y5919*
X9101Y5909*
X9107Y5899*
X9116Y5887*
X9128Y5873*
X8987*
X8973Y5887*
X8958Y5899*
X8942Y5909*
X8926Y5919*
X8909Y5926*
X8892Y5933*
X8874Y5938*
X8855Y5941*
X8836Y5943*
X8816Y5944*
X8937Y6044*
X9158Y5944*
G37*
G36*
X10132D02*
X10114Y5943D01*
X10099Y5941*
X10087Y5938*
X10079Y5933*
X10075Y5926*
X10074Y5919*
X10076Y5909*
X10081Y5899*
X10090Y5887*
X10103Y5873*
X9961*
X9947Y5887*
X9932Y5899*
X9916Y5909*
X9900Y5919*
X9883Y5926*
X9866Y5933*
X9848Y5938*
X9830Y5941*
X9810Y5943*
X9791Y5944*
X9911Y6044*
X10132Y5944*
G37*
G36*
X14350Y5707D02*
X14337Y5692D01*
X14326Y5676*
X14316Y5657*
X14308Y5636*
X14301Y5613*
X14295Y5588*
X14290Y5560*
X14287Y5531*
X14285Y5465*
X14038Y5713*
X14072*
X14133Y5718*
X14161Y5722*
X14186Y5728*
X14209Y5735*
X14230Y5744*
X14248Y5753*
X14265Y5765*
X14279Y5777*
X14350Y5707*
G37*
G36*
X16222Y5591D02*
X16223Y5574D01*
X16226Y5559*
X16229Y5546*
X16234Y5535*
X16239Y5526*
X16246Y5518*
X16253Y5513*
X16261Y5510*
X16271Y5509*
X16072*
X16081Y5510*
X16089Y5513*
X16097Y5518*
X16103Y5526*
X16109Y5535*
X16113Y5546*
X16117Y5559*
X16119Y5574*
X16121Y5591*
Y5610*
X16221*
X16222Y5591*
G37*
G36*
X6764Y4595D02*
X6763Y4604D01*
X6760Y4613*
X6755Y4620*
X6748Y4627*
X6739Y4632*
X6728Y4637*
X6715Y4640*
X6699Y4643*
X6682Y4644*
X6663Y4645*
Y4745*
X6682*
X6699Y4747*
X6715Y4749*
X6728Y4753*
X6739Y4757*
X6748Y4763*
X6755Y4769*
X6760Y4777*
X6763Y4785*
X6764Y4795*
Y4595*
G37*
G36*
X7115Y4795D02*
X7118Y4787D01*
X7123Y4779*
X7130Y4773*
X7139Y4767*
X7150Y4763*
X7163Y4759*
X7179Y4757*
X7196Y4755*
X7215*
Y4655*
X7196Y4654*
X7179Y4653*
X7163Y4650*
X7150Y4647*
X7139Y4642*
X7130Y4637*
X7123Y4630*
X7118Y4623*
X7115Y4614*
X7114Y4605*
Y4805*
X7115Y4795*
G37*
G36*
X10790Y4300D02*
X10789Y4309D01*
X10786Y4318*
X10781Y4325*
X10774Y4332*
X10765Y4337*
X10753Y4342*
X10740Y4345*
X10725Y4348*
X10708Y4349*
X10689Y4350*
Y4450*
X10708*
X10725Y4452*
X10740Y4454*
X10753Y4458*
X10765Y4462*
X10774Y4468*
X10781Y4474*
X10786Y4482*
X10789Y4490*
X10790Y4500*
Y4300*
G37*
G36*
X9499Y4499D02*
X9501Y4482D01*
X9503Y4467*
X9507Y4454*
X9511Y4443*
X9517Y4434*
X9523Y4427*
X9531Y4422*
X9539Y4419*
X9549Y4418*
X9349*
X9358Y4419*
X9367Y4422*
X9374Y4427*
X9381Y4434*
X9386Y4443*
X9391Y4454*
X9394Y4467*
X9397Y4482*
X9398Y4499*
X9399Y4518*
X9499*
Y4499*
G37*
G36*
X15671Y5159D02*
X15663Y5156D01*
X15655Y5151*
X15649Y5144*
X15643Y5135*
X15639Y5123*
X15635Y5110*
X15633Y5095*
X15632Y5089*
X15636Y5071*
X15642Y5051*
X15651Y5030*
X15662Y5008*
X15676Y4987*
X15692Y4964*
X15711Y4941*
X15756Y4893*
X15406*
X15429Y4917*
X15469Y4964*
X15486Y4987*
X15499Y5008*
X15511Y5030*
X15519Y5051*
X15526Y5071*
X15529Y5089*
Y5095*
X15526Y5110*
X15523Y5123*
X15518Y5135*
X15513Y5144*
X15506Y5151*
X15499Y5156*
X15490Y5159*
X15481Y5160*
X15681*
X15671Y5159*
G37*
G36*
X16308D02*
X16299Y5158D01*
X16291Y5155*
X16284Y5150*
X16278Y5143*
X16272Y5134*
X16268Y5123*
X16265Y5110*
X16262Y5095*
X16261Y5078*
Y5059*
X16161*
X16160Y5078*
X16159Y5095*
X16156Y5110*
X16153Y5123*
X16148Y5134*
X16143Y5144*
X16136Y5151*
X16129Y5156*
X16120Y5159*
X16111Y5160*
X16308Y5159*
G37*
G36*
X7748Y4605D02*
X7747Y4614D01*
X7744Y4623*
X7739Y4630*
X7732Y4637*
X7723Y4642*
X7712Y4647*
X7699Y4650*
X7684Y4653*
X7667Y4654*
X7647Y4655*
Y4755*
X7667*
X7684Y4757*
X7699Y4759*
X7712Y4763*
X7723Y4767*
X7732Y4773*
X7739Y4779*
X7744Y4787*
X7747Y4795*
X7748Y4805*
Y4605*
G37*
G36*
X849Y4806D02*
X847Y4803D01*
X845Y4799*
X843Y4793*
X841Y4786*
X840Y4778*
X839Y4769*
X838Y4747*
X837Y4734*
X737*
Y4745*
X736Y4763*
X735Y4770*
X733Y4776*
X731Y4782*
X729Y4786*
X727Y4789*
X724Y4791*
X720Y4792*
X852Y4808*
X849Y4806*
G37*
G36*
X11653Y6217D02*
X11641Y6202D01*
X11630Y6186*
X11621Y6170*
X11613Y6153*
X11607Y6136*
X11602Y6118*
X11598Y6099*
X11596Y6080*
X11595Y6060*
X11495Y5960*
Y5979*
X11492Y5994*
X11489Y6005*
X11484Y6013*
X11478Y6018*
X11470Y6019*
X11461Y6017*
X11450Y6011*
X11438Y6002*
X11425Y5990*
X11545Y6181*
X11666Y6231*
X11653Y6217*
G37*
G36*
X14591Y6629D02*
X14590Y6625D01*
Y6619*
X14588Y6589*
X14587Y6524*
X14487*
X14483Y6631*
X14592*
X14591Y6629*
G37*
G36*
X14788D02*
X14787Y6625D01*
X14786Y6619*
X14785Y6589*
X14784Y6524*
X14684*
X14680Y6631*
X14789*
X14788Y6629*
G37*
G36*
X13016D02*
X13015Y6625D01*
Y6619*
X13013Y6589*
Y6524*
X12913*
X12908Y6631*
X13017*
X13016Y6629*
G37*
G36*
X13213D02*
X13212Y6625D01*
Y6619*
X13210Y6589*
X13209Y6524*
X13109*
X13105Y6631*
X13214*
X13213Y6629*
G37*
G36*
X16560D02*
X16559Y6625D01*
X16558Y6619*
X16557Y6589*
X16556Y6524*
X16456*
X16451Y6631*
X16560*
Y6629*
G37*
G36*
X16756D02*
Y6625D01*
X16755Y6619*
X16753Y6589*
Y6524*
X16653*
X16648Y6631*
X16757*
X16756Y6629*
G37*
G36*
X15182D02*
X15181Y6625D01*
X15180Y6619*
X15179Y6589*
X15178Y6524*
X15078*
X15073Y6631*
X15182*
Y6629*
G37*
G36*
X15378D02*
Y6625D01*
X15377Y6619*
X15376Y6589*
X15375Y6524*
X15275*
X15270Y6631*
X15379*
X15378Y6629*
G37*
G36*
X15575D02*
Y6625D01*
X15574Y6619*
X15572Y6590*
Y6547*
X15578Y6542*
X15594Y6531*
X15613Y6521*
X15634Y6513*
X15657Y6505*
X15682Y6500*
X15709Y6495*
X15739Y6492*
X15805Y6490*
X15557Y6243*
Y6277*
X15552Y6338*
X15548Y6365*
X15542Y6391*
X15535Y6414*
X15526Y6434*
X15516Y6453*
X15505Y6470*
X15492Y6484*
X15534Y6526*
X15472*
X15467Y6631*
X15576*
X15575Y6629*
G37*
G36*
X4968Y6581D02*
X4959Y6577D01*
X4952Y6570*
X4946Y6560*
X4940Y6546*
X4936Y6531*
X4932Y6512*
X4930Y6490*
X4928Y6465*
Y6438*
X4828*
X4827Y6465*
X4824Y6512*
X4820Y6531*
X4816Y6546*
X4810Y6560*
X4804Y6570*
X4797Y6577*
X4788Y6581*
X4779Y6583*
X4977*
X4968Y6581*
G37*
G36*
X13013Y6286D02*
Y6274D01*
X13016Y6258*
X13020Y6240*
X13033Y6195*
X13066Y6105*
X13095Y6030*
X12774Y6168*
X12800Y6179*
X12824Y6192*
X12845Y6205*
X12863Y6220*
X12878Y6236*
X12890Y6252*
X12900Y6270*
X12907Y6289*
X12911Y6309*
X12913Y6330*
X13013Y6286*
G37*
G36*
X16010Y6391D02*
X16057Y6351D01*
X16079Y6335*
X16101Y6321*
X16122Y6310*
X16143Y6301*
X16163Y6295*
X16183Y6291*
X16202Y6290*
Y6190*
X16183Y6189*
X16163Y6185*
X16143Y6179*
X16122Y6170*
X16101Y6159*
X16079Y6145*
X16057Y6129*
X16033Y6110*
X15986Y6065*
Y6415*
X16010Y6391*
G37*
G36*
X12001Y6599D02*
X12008D01*
X12011Y6597*
X12012Y6593*
X12009Y6586*
X12003Y6576*
X11994Y6564*
X11982Y6550*
X11927Y6492*
X11853Y6560*
X11872Y6579*
X11901Y6614*
X11911Y6629*
X11919Y6643*
X11925Y6656*
X11928Y6668*
Y6679*
X11926Y6688*
X11921Y6697*
X12001Y6599*
G37*
G36*
X12229Y6629D02*
X12228Y6625D01*
X12227Y6619*
X12226Y6589*
X12225Y6524*
X12125*
X12121Y6631*
X12230*
X12229Y6629*
G37*
G36*
X5468Y6581D02*
X5459Y6577D01*
X5452Y6570*
X5446Y6560*
X5440Y6546*
X5436Y6531*
X5432Y6512*
X5430Y6490*
X5428Y6465*
Y6438*
X5328*
X5327Y6465*
X5324Y6512*
X5320Y6531*
X5316Y6546*
X5310Y6560*
X5304Y6570*
X5297Y6577*
X5288Y6581*
X5279Y6583*
X5477*
X5468Y6581*
G37*
G36*
X1283Y6692D02*
X1233Y6635D01*
X1213Y6607*
X1195Y6581*
X1181Y6556*
X1170Y6532*
X1163Y6508*
X1158Y6486*
X1156Y6465*
X1056*
X1055Y6486*
X1050Y6508*
X1042Y6532*
X1031Y6556*
X1017Y6581*
X1000Y6607*
X980Y6635*
X929Y6692*
X900Y6722*
X1313*
X1283Y6692*
G37*
G36*
X16261Y4302D02*
X16263Y4285D01*
X16265Y4270*
X16269Y4256*
X16273Y4245*
X16279Y4236*
X16285Y4229*
X16293Y4224*
X16301Y4221*
X16311Y4220*
X16111*
X16120Y4221*
X16129Y4224*
X16136Y4229*
X16143Y4236*
X16148Y4245*
X16153Y4256*
X16156Y4270*
X16159Y4285*
X16160Y4302*
X16161Y4321*
X16261*
Y4302*
G37*
G36*
X7995Y2536D02*
X8000Y2514D01*
X8008Y2491*
X8020Y2468*
X8035Y2444*
X8053Y2421*
X8074Y2397*
X8099Y2373*
X8128Y2349*
X8159Y2324*
X7750Y2266*
X7777Y2303*
X7842Y2400*
X7857Y2429*
X7870Y2456*
X7880Y2481*
X7887Y2504*
X7891Y2525*
X7893Y2545*
X7993Y2559*
X7995Y2536*
G37*
G36*
X7010D02*
X7015Y2513D01*
X7023Y2490*
X7035Y2467*
X7049Y2443*
X7067Y2418*
X7089Y2393*
X7113Y2367*
X7141Y2341*
X7172Y2315*
X6760Y2279*
X6788Y2313*
X6855Y2405*
X6872Y2433*
X6885Y2459*
X6895Y2484*
X6903Y2507*
X6907Y2529*
X6909Y2549*
X7009Y2558*
X7010Y2536*
G37*
G36*
X14705Y2439D02*
X14724Y2427D01*
X14746Y2416*
X14771Y2406*
X14798Y2399*
X14829Y2392*
X14863Y2387*
X14939Y2382*
X14981*
X14689Y2090*
Y2132*
X14684Y2208*
X14679Y2242*
X14672Y2272*
X14664Y2300*
X14655Y2325*
X14644Y2347*
X14632Y2366*
X14618Y2382*
X14689Y2453*
X14705Y2439*
G37*
G36*
X15633Y2391D02*
X15656Y2372D01*
X15665Y2366*
X15673Y2363*
X15679Y2362*
X15684Y2363*
X15687Y2366*
X15689Y2372*
X15690Y2381*
X15691Y2121*
Y2135*
X15688Y2149*
X15685Y2163*
X15680Y2177*
X15673Y2191*
X15665Y2206*
X15656Y2220*
X15645Y2234*
X15633Y2248*
X15619Y2263*
Y2404*
X15633Y2391*
G37*
G36*
X14036Y2534D02*
X14041Y2511D01*
X14048Y2488*
X14059Y2464*
X14073Y2439*
X14091Y2412*
X14111Y2385*
X14161Y2328*
X14191Y2297*
X13778*
X13807Y2328*
X13857Y2385*
X13878Y2412*
X13895Y2439*
X13909Y2464*
X13920Y2488*
X13928Y2511*
X13933Y2534*
X13934Y2555*
X14034*
X14036Y2534*
G37*
G36*
X12036Y2531D02*
X12040Y2508D01*
X12048Y2484*
X12058Y2460*
X12072Y2435*
X12088Y2410*
X12108Y2384*
X12130Y2358*
X12156Y2331*
X12184Y2304*
X11784*
X11813Y2331*
X11861Y2384*
X11880Y2410*
X11897Y2435*
X11910Y2460*
X11921Y2484*
X11928Y2508*
X11933Y2531*
X11934Y2553*
X12034*
X12036Y2531*
G37*
G36*
X11044Y2553D02*
X11046Y2532D01*
X11050Y2510*
X11058Y2487*
X11069Y2462*
X11083Y2437*
X11099Y2410*
X11119Y2382*
X11169Y2322*
X11198Y2290*
X10785Y2304*
X10815Y2333*
X10866Y2388*
X10887Y2415*
X10904Y2440*
X10919Y2465*
X10930Y2489*
X10938Y2512*
X10943Y2535*
X10944Y2556*
X11044Y2553*
G37*
G36*
X13036Y2534D02*
X13041Y2511D01*
X13048Y2488*
X13059Y2464*
X13073Y2439*
X13091Y2412*
X13111Y2385*
X13161Y2328*
X13191Y2297*
X12778*
X12807Y2328*
X12857Y2385*
X12878Y2412*
X12895Y2439*
X12909Y2464*
X12920Y2488*
X12928Y2511*
X12933Y2534*
X12934Y2555*
X13034*
X13036Y2534*
G37*
G36*
X16072Y804D02*
X16064Y798D01*
X16057Y792*
X16051Y784*
X16046Y775*
X16042Y764*
X16038Y752*
X16036Y739*
X16035Y725*
X16034Y709*
X15934*
Y725*
X15932Y739*
X15930Y752*
X15927Y764*
X15923Y775*
X15918Y784*
X15911Y792*
X15905Y798*
X15897Y804*
X15888Y808*
X16081*
X16072Y804*
G37*
G36*
X6705Y1439D02*
X6724Y1427D01*
X6746Y1416*
X6771Y1406*
X6798Y1399*
X6829Y1392*
X6863Y1387*
X6939Y1382*
X6981*
X6689Y1090*
Y1132*
X6684Y1208*
X6679Y1242*
X6672Y1272*
X6664Y1300*
X6655Y1325*
X6644Y1347*
X6632Y1366*
X6618Y1382*
X6689Y1453*
X6705Y1439*
G37*
G36*
X12315Y511D02*
X12306Y499D01*
X12300Y488*
X12298Y479*
X12299Y471*
X12304Y465*
X12312Y460*
X12323Y456*
X12338Y454*
X12357*
X12136Y354*
X12015Y454*
X12035*
X12054Y456*
X12072Y460*
X12090Y465*
X12108Y471*
X12125Y479*
X12141Y488*
X12156Y499*
X12171Y511*
X12186Y524*
X12327*
X12315Y511*
G37*
G36*
X13279D02*
X13270Y499D01*
X13265Y488*
X13263Y479*
X13264Y471*
X13268Y465*
X13276Y460*
X13288Y456*
X13303Y454*
X13321*
X13100Y354*
X12980Y454*
X12999*
X13019Y456*
X13037Y460*
X13055Y465*
X13072Y471*
X13089Y479*
X13105Y488*
X13121Y499*
X13136Y511*
X13150Y524*
X13292*
X13279Y511*
G37*
G36*
X16075Y1792D02*
X16066Y1789D01*
X16059Y1784*
X16052Y1777*
X16047Y1768*
X16042Y1757*
X16039Y1744*
X16036Y1729*
X16035Y1712*
X16034Y1693*
X15934*
Y1712*
X15932Y1729*
X15930Y1744*
X15926Y1757*
X15922Y1768*
X15916Y1777*
X15910Y1784*
X15902Y1789*
X15894Y1792*
X15884Y1793*
X16084*
X16075Y1792*
G37*
G36*
X9705Y2439D02*
X9724Y2427D01*
X9746Y2416*
X9771Y2406*
X9798Y2399*
X9829Y2392*
X9863Y2387*
X9939Y2382*
X9981*
X9689Y2090*
Y2132*
X9684Y2208*
X9679Y2242*
X9672Y2272*
X9664Y2300*
X9655Y2325*
X9644Y2347*
X9632Y2366*
X9618Y2382*
X9689Y2453*
X9705Y2439*
G37*
G36*
X16036Y1534D02*
X16041Y1511D01*
X16048Y1488*
X16059Y1464*
X16073Y1439*
X16091Y1412*
X16111Y1385*
X16161Y1328*
X16191Y1297*
X15778*
X15807Y1328*
X15857Y1385*
X15878Y1412*
X15895Y1439*
X15909Y1464*
X15920Y1488*
X15928Y1511*
X15933Y1534*
X15934Y1555*
X16034*
X16036Y1534*
G37*
G36*
X17854Y1838D02*
X17841Y1824D01*
X17830Y1807*
X17820Y1789*
X17812Y1768*
X17805Y1745*
X17799Y1720*
X17794Y1692*
X17791Y1663*
X17789Y1597*
X17542Y1844*
X17576Y1845*
X17637Y1850*
X17665Y1854*
X17690Y1860*
X17713Y1867*
X17734Y1875*
X17752Y1885*
X17769Y1897*
X17783Y1909*
X17854Y1838*
G37*
G36*
X16261Y2462D02*
X16265Y2406D01*
X16267Y2397*
X16269Y2390*
X16272Y2385*
X16275Y2382*
X16278Y2381*
X16111Y2379*
X16120Y2381*
X16129Y2384*
X16136Y2389*
X16143Y2396*
X16148Y2405*
X16153Y2416*
X16156Y2429*
X16159Y2444*
X16160Y2462*
X16161Y2481*
X16261*
Y2462*
G37*
G36*
X13701Y3828D02*
X13680Y3805D01*
X13646Y3766*
X13634Y3749*
X13625Y3734*
X13620Y3721*
X13617Y3709*
X13618Y3700*
X13622Y3692*
X13629Y3686*
X13450Y3787*
X13459Y3783*
X13470Y3782*
X13481Y3783*
X13494Y3786*
X13508Y3792*
X13522Y3801*
X13538Y3812*
X13555Y3825*
X13572Y3841*
X13591Y3859*
X13701Y3828*
G37*
G36*
X7049Y3967D02*
X7041Y3964D01*
X7033Y3959*
X7027Y3952*
X7021Y3943*
X7017Y3932*
X7013Y3919*
X7011Y3904*
X7009Y3887*
Y3868*
X6909*
X6908Y3887*
X6907Y3904*
X6904Y3919*
X6901Y3932*
X6896Y3943*
X6891Y3952*
X6884Y3959*
X6877Y3964*
X6868Y3967*
X6859Y3968*
X7059*
X7049Y3967*
G37*
G36*
X15711Y3870D02*
X15702Y3866D01*
X15695Y3861*
X15688Y3854*
X15683Y3845*
X15678Y3834*
X15675Y3821*
X15672Y3806*
X15671Y3789*
X15670Y3769*
X15570*
Y3789*
X15568Y3806*
X15566Y3821*
X15562Y3834*
X15558Y3845*
X15552Y3854*
X15546Y3861*
X15538Y3866*
X15530Y3870*
X15520Y3871*
X15720*
X15711Y3870*
G37*
G36*
X16301D02*
X16293Y3866D01*
X16285Y3861*
X16279Y3854*
X16273Y3845*
X16269Y3834*
X16265Y3821*
X16263Y3806*
X16261Y3789*
Y3769*
X16161*
X16160Y3789*
X16159Y3806*
X16156Y3821*
X16153Y3834*
X16148Y3845*
X16143Y3854*
X16136Y3861*
X16129Y3866*
X16120Y3870*
X16111Y3871*
X16311*
X16301Y3870*
G37*
G36*
X15392Y4256D02*
X15408Y4242D01*
X15415Y4237*
X15422Y4232*
X15429Y4228*
X15436Y4225*
X15442Y4223*
X15448Y4222*
X15454Y4221*
X15455Y3981*
X15454Y3996*
X15451Y4011*
X15445Y4027*
X15438Y4043*
X15428Y4061*
X15416Y4079*
X15402Y4097*
X15368Y4137*
X15348Y4158*
X15383Y4264*
X15392Y4256*
G37*
G36*
X10551Y4338D02*
X10538Y4324D01*
X10527Y4308*
X10517Y4289*
X10509Y4268*
X10501Y4245*
X10496Y4220*
X10491Y4192*
X10488Y4163*
X10486Y4097*
X10239Y4344*
X10273Y4345*
X10334Y4350*
X10361Y4354*
X10387Y4360*
X10410Y4367*
X10431Y4375*
X10449Y4385*
X10466Y4397*
X10480Y4409*
X10551Y4338*
G37*
G36*
X8033Y3977D02*
X8025Y3974D01*
X8017Y3969*
X8011Y3962*
X8005Y3953*
X8001Y3942*
X7997Y3929*
X7995Y3914*
X7993Y3897*
Y3878*
X7893*
X7892Y3897*
X7891Y3914*
X7888Y3929*
X7885Y3942*
X7880Y3953*
X7875Y3962*
X7868Y3969*
X7861Y3974*
X7852Y3977*
X7843Y3978*
X8043*
X8033Y3977*
G37*
G36*
X12780Y4245D02*
X12785Y4184D01*
X12789Y4156*
X12795Y4131*
X12802Y4108*
X12810Y4087*
X12820Y4068*
X12832Y4052*
X12844Y4038*
X12773Y3967*
X12759Y3979*
X12743Y3991*
X12724Y4001*
X12703Y4009*
X12680Y4016*
X12655Y4022*
X12627Y4026*
X12598Y4029*
X12532Y4032*
X12780Y4279*
Y4245*
G37*
G36*
X14965Y3115D02*
X14964Y3104D01*
X14965Y3092*
X14969Y3080*
X14975Y3066*
X14983Y3051*
X14994Y3036*
X15007Y3019*
X15022Y3002*
X15040Y2983*
X15018Y2864*
X14996Y2886*
X14956Y2920*
X14939Y2932*
X14924Y2941*
X14911Y2946*
X14899Y2949*
X14890Y2948*
X14883Y2943*
X14877Y2935*
X14968Y3125*
X14965Y3115*
G37*
G36*
X15671Y3476D02*
X15675Y3457D01*
X15681Y3436*
X15690Y3416*
X15701Y3394*
X15715Y3372*
X15731Y3350*
X15750Y3327*
X15795Y3279*
X15445*
X15469Y3303*
X15509Y3350*
X15525Y3372*
X15539Y3394*
X15550Y3416*
X15559Y3436*
X15565Y3457*
X15569Y3476*
X15570Y3495*
X15670*
X15671Y3476*
G37*
G36*
X12433Y2904D02*
X12425Y2901D01*
X12417Y2896*
X12411Y2889*
X12405Y2880*
X12401Y2869*
X12397Y2856*
X12395Y2841*
X12393Y2824*
Y2805*
X12293*
X12292Y2824*
X12291Y2841*
X12288Y2856*
X12285Y2869*
X12280Y2880*
X12275Y2889*
X12268Y2896*
X12261Y2901*
X12252Y2904*
X12243Y2905*
X12443*
X12433Y2904*
G37*
G36*
X13545Y2923D02*
X13537Y2920D01*
X13529Y2915*
X13523Y2908*
X13517Y2899*
X13513Y2888*
X13509Y2875*
X13507Y2860*
X13505Y2843*
Y2824*
X13405*
X13404Y2843*
X13403Y2860*
X13400Y2875*
X13397Y2888*
X13392Y2899*
X13387Y2908*
X13380Y2915*
X13373Y2920*
X13364Y2923*
X13355Y2924*
X13555*
X13545Y2923*
G37*
G36*
X14676Y3851D02*
X14710Y3822D01*
X14726Y3811*
X14741Y3802*
X14754Y3796*
X14767Y3793*
X14778Y3792*
X14789Y3793*
X14798Y3797*
X14619Y3696*
X14626Y3702*
X14630Y3710*
X14631Y3719*
X14628Y3731*
X14623Y3744*
X14614Y3759*
X14602Y3776*
X14587Y3794*
X14547Y3837*
X14657Y3869*
X14676Y3851*
G37*
G36*
X12393Y3849D02*
X12395Y3832D01*
X12397Y3817*
X12401Y3804*
X12405Y3793*
X12411Y3783*
X12417Y3776*
X12425Y3771*
X12433Y3768*
X12443Y3767*
X12243*
X12252Y3768*
X12261Y3771*
X12268Y3776*
X12275Y3783*
X12280Y3793*
X12285Y3804*
X12288Y3817*
X12291Y3832*
X12292Y3849*
X12293Y3868*
X12393*
Y3849*
G37*
G36*
X9539Y3555D02*
X9531Y3552D01*
X9523Y3546*
X9517Y3539*
X9511Y3530*
X9507Y3519*
X9503Y3506*
X9501Y3491*
X9499Y3474*
Y3454*
X9399*
X9398Y3474*
X9397Y3491*
X9394Y3506*
X9391Y3519*
X9386Y3530*
X9381Y3539*
X9374Y3546*
X9367Y3552*
X9358Y3555*
X9349Y3556*
X9549*
X9539Y3555*
G37*
G36*
X11085Y3671D02*
X11076Y3668D01*
X11069Y3663*
X11062Y3656*
X11057Y3647*
X11052Y3636*
X11049Y3623*
X11046Y3608*
X11045Y3591*
X11044Y3572*
X10944*
Y3591*
X10942Y3608*
X10940Y3623*
X10936Y3636*
X10932Y3647*
X10926Y3656*
X10920Y3663*
X10912Y3668*
X10904Y3671*
X10894Y3672*
X11094*
X11085Y3671*
G37*
G36*
X17633Y11353D02*
X17637Y11352D01*
X17643Y11351*
X17672Y11350*
X17738Y11349*
Y11249*
X17631Y11245*
Y11354*
X17633Y11353*
G37*
G36*
X18237Y11203D02*
X18213Y11227D01*
X18166Y11267*
X18143Y11283*
X18121Y11297*
X18100Y11308*
X18079Y11317*
X18059Y11323*
X18039Y11327*
X18020Y11328*
Y11428*
X18039Y11429*
X18059Y11433*
X18079Y11439*
X18100Y11448*
X18121Y11459*
X18143Y11473*
X18166Y11489*
X18189Y11508*
X18237Y11553*
Y11203*
G37*
G36*
X16995Y11048D02*
X16993Y11049D01*
X16989*
X16983Y11050*
X16953Y11052*
X16888*
Y11152*
X16995Y11157*
Y11048*
G37*
G36*
X8945Y11262D02*
X8921Y11286D01*
X8875Y11326*
X8852Y11342*
X8830Y11356*
X8809Y11367*
X8788Y11376*
X8768Y11382*
X8748Y11386*
X8729Y11387*
Y11487*
X8748Y11488*
X8768Y11492*
X8788Y11498*
X8809Y11507*
X8830Y11518*
X8852Y11532*
X8875Y11548*
X8898Y11567*
X8945Y11612*
Y11262*
G37*
G36*
X16995Y11638D02*
X16993Y11639D01*
X16989Y11640*
X16983Y11641*
X16953Y11642*
X16888Y11643*
Y11743*
X16995Y11747*
Y11638*
G37*
G36*
X17363Y11636D02*
X17364Y11635D01*
X17413*
X17403Y11634*
X17395Y11631*
X17387Y11626*
X17381Y11619*
X17375Y11610*
X17371Y11599*
X17370Y11594*
X17371Y11590*
X17375Y11579*
X17381Y11570*
X17387Y11563*
X17395Y11558*
X17403Y11555*
X17413Y11554*
X17364*
X17363Y11553*
Y11534*
X17263*
X17262Y11553*
Y11554*
X17213*
X17222Y11555*
X17231Y11558*
X17238Y11563*
X17245Y11570*
X17250Y11579*
X17255Y11590*
X17256Y11594*
X17255Y11599*
X17250Y11610*
X17245Y11619*
X17238Y11626*
X17231Y11631*
X17222Y11634*
X17213Y11635*
X17262*
Y11636*
X17263Y11655*
X17363*
Y11636*
G37*
G36*
X10683Y11608D02*
X10643Y11562D01*
X10626Y11539*
X10613Y11517*
X10602Y11496*
X10593Y11475*
X10587Y11455*
X10583Y11435*
X10582Y11416*
X10481*
X10480Y11435*
X10476Y11455*
X10470Y11475*
X10461Y11496*
X10450Y11517*
X10437Y11539*
X10420Y11562*
X10402Y11585*
X10357Y11632*
X10706*
X10683Y11608*
G37*
G36*
X9780Y11180D02*
X10018D01*
X9994Y11156*
X9954Y11109*
X9938Y11086*
X9924Y11064*
X9913Y11043*
X9904Y11022*
X9898Y11002*
X9894Y10982*
X9893Y10963*
X9793*
X9791Y10982*
X9788Y11002*
X9781Y11022*
X9773Y11043*
X9761Y11064*
X9748Y11086*
X9746Y11089*
X9741Y11088*
X9715Y11080*
X9692Y11072*
X9671Y11062*
X9653Y11052*
X9637Y11041*
X9624Y11029*
X9545Y11092*
X9558Y11107*
X9569Y11124*
X9579Y11142*
X9586Y11163*
X9592Y11186*
X9596Y11210*
X9598Y11237*
X9599Y11265*
X9598Y11296*
X9594Y11328*
X9780Y11180*
G37*
G36*
X6232Y9881D02*
X6209Y9906D01*
X6164Y9946*
X6143Y9963*
X6121Y9977*
X6100Y9989*
X6080Y9998*
X6060Y10004*
X6040Y10008*
X6021Y10009*
X6025Y10109*
X6043Y10110*
X6063Y10114*
X6083Y10120*
X6104Y10129*
X6126Y10140*
X6148Y10153*
X6172Y10169*
X6196Y10187*
X6246Y10231*
X6232Y9881*
G37*
G36*
X7214Y9960D02*
X7179Y9954D01*
X7086Y9931*
X7060Y9923*
X7037Y9914*
X7016Y9904*
X6998Y9894*
X6983Y9883*
X6970Y9871*
X6887Y9930*
X6900Y9945*
X6911Y9962*
X6920Y9981*
X6928Y10001*
X6933Y10024*
X6936Y10048*
X6937Y10074*
Y10102*
X6934Y10131*
X6929Y10162*
X7214Y9960*
G37*
G36*
X18827Y9962D02*
X18828D01*
X18878Y9961*
Y9861*
X18826*
Y9962*
X18827*
G37*
G36*
X5875Y10150D02*
X5878Y10141D01*
X5883Y10134*
X5890Y10127*
X5899Y10122*
X5910Y10117*
X5923Y10114*
X5938Y10111*
X5956Y10110*
X5975Y10109*
Y10009*
X5956*
X5938Y10007*
X5923Y10005*
X5910Y10001*
X5899Y9997*
X5890Y9991*
X5883Y9985*
X5878Y9977*
X5875Y9969*
X5874Y9959*
Y10159*
X5875Y10150*
G37*
G36*
X6953Y11180D02*
X6968Y11168D01*
X6983Y11157*
X6999Y11148*
X7016Y11141*
X7034Y11134*
X7052Y11129*
X7070Y11126*
X7089Y11124*
X7109Y11123*
X7209Y11023*
X7191Y11022*
X7176Y11020*
X7164Y11016*
X7156Y11012*
X7152Y11005*
X7150Y10997*
X7153Y10988*
X7158Y10978*
X7167Y10966*
X7180Y10952*
X6953Y11037*
X6938Y11194*
X6953Y11180*
G37*
G36*
X6330Y10718D02*
X6308Y10742D01*
X6263Y10783*
X6241Y10800*
X6220Y10814*
X6199Y10825*
X6178Y10834*
X6158Y10841*
X6138Y10844*
X6119Y10846*
X6123Y10946*
X6142Y10947*
X6161Y10951*
X6181Y10957*
X6202Y10965*
X6224Y10976*
X6247Y10990*
X6270Y11005*
X6294Y11024*
X6344Y11068*
X6330Y10718*
G37*
G36*
X17633Y10172D02*
X17637Y10171D01*
X17643Y10170*
X17672Y10169*
X17738Y10168*
Y10068*
X17631Y10064*
Y10173*
X17633Y10172*
G37*
G36*
Y11747D02*
X17637Y11746D01*
X17642Y11745*
X17658Y11744*
X17726Y11743*
Y11643*
X17631Y11638*
Y11747*
X17633*
G37*
G36*
X12033Y13212D02*
X11924D01*
X11925Y13214*
Y13218*
X11926Y13224*
X11928Y13253*
Y13318*
X12028*
X12033Y13212*
G37*
G36*
X17295Y13319D02*
X17299Y13299D01*
X17305Y13279*
X17314Y13258*
X17325Y13237*
X17339Y13215*
X17355Y13192*
X17374Y13169*
X17419Y13121*
X17069*
X17093Y13146*
X17133Y13192*
X17149Y13215*
X17163Y13237*
X17174Y13258*
X17183Y13279*
X17189Y13299*
X17193Y13319*
X17194Y13338*
X17294*
X17295Y13319*
G37*
G36*
X7588Y13202D02*
X7589Y13201D01*
X7592*
X7595*
X7612Y13200*
X7638*
Y13100*
X7628*
X7588Y13097*
X7587*
Y13202*
X7588*
G37*
G36*
X12230Y13212D02*
X12121D01*
X12122Y13214*
Y13218*
X12123Y13224*
X12124Y13253*
X12125Y13318*
X12225*
X12230Y13212*
G37*
G36*
X16826Y13780D02*
X16806Y13735D01*
X16752*
X16705Y13725*
X16665Y13699*
X16549Y13583*
X14331*
X12868*
X12846Y13615*
X12842Y13633*
X12852Y13711*
X12841Y13794*
X12809Y13872*
X12758Y13939*
X12691Y13990*
X12613Y14022*
X12530Y14033*
X12446Y14022*
X12368Y13990*
X12301Y13939*
X12250Y13872*
X12218Y13794*
X12207Y13711*
X12217Y13633*
X12215Y13623*
X12182Y13583*
X9587*
X8886Y13292*
X8882Y13301*
X8831Y13368*
X8764Y13419*
X8686Y13452*
X8602Y13463*
X8519Y13452*
X8441Y13419*
X8374Y13368*
X8358Y13346*
X8310Y13366*
X8315Y13406*
X8304Y13489*
X8272Y13567*
X8220Y13634*
X8154Y13685*
X8076Y13717*
X7992Y13728*
X7909Y13717*
X7831Y13685*
X7764Y13634*
X7713Y13567*
X7680Y13489*
X7669Y13406*
X7676Y13357*
X7634Y13310*
X7625Y13311*
X7619Y13314*
X7571Y13378*
X7504Y13429*
X7426Y13461*
X7343Y13472*
X7259Y13461*
X7181Y13429*
X7114Y13378*
X7063Y13311*
X7031Y13233*
X7020Y13150*
X7031Y13066*
X7063Y12988*
X7114Y12921*
X7181Y12870*
X7259Y12838*
X7343Y12827*
X7426Y12838*
X7504Y12870*
X7571Y12921*
X7593Y12951*
X7659Y12955*
X7742Y12873*
X7732Y12815*
X7711Y12806*
X7607*
Y12763*
X2069Y10470*
X2028Y10498*
Y11821*
X9144Y14813*
X15929*
X16826Y13780*
G37*
G36*
X16560Y13212D02*
X16451D01*
X16452Y13214*
X16453Y13218*
X16454Y13224*
X16455Y13253*
X16456Y13318*
X16556*
X16560Y13212*
G37*
G36*
X16364D02*
X16255D01*
Y13214*
X16256Y13218*
X16257Y13224*
X16258Y13253*
X16259Y13318*
X16359*
X16364Y13212*
G37*
G36*
X8219Y13293D02*
X8172Y13109D01*
X8171Y13093*
X8170Y13080*
X8070Y13018*
X8069Y13039*
X8065Y13059*
X8058Y13078*
X8048Y13095*
X8036Y13110*
X8021Y13123*
X8003Y13136*
X7982Y13146*
X7959Y13155*
X7933Y13163*
X8230Y13330*
X8219Y13293*
G37*
G36*
X11050Y12229D02*
X11048Y12230D01*
X11044Y12231*
X11038*
X11009Y12233*
X10944*
Y12333*
X11050Y12338*
Y12229*
G37*
G36*
X7272Y11926D02*
X7264Y11917D01*
X7255Y11904*
X7245Y11888*
X7222Y11846*
X7182Y11760*
X7150Y11686*
X7019Y12011*
X7046Y12000*
X7071Y11992*
X7095Y11987*
X7118Y11984*
X7140*
X7160Y11987*
X7179Y11992*
X7197Y12000*
X7213Y12010*
X7228Y12024*
X7272Y11926*
G37*
G36*
X10336Y11655D02*
X10319Y11675D01*
X10302Y11693*
X10284Y11709*
X10265Y11723*
X10247Y11734*
X10228Y11744*
X10208Y11751*
X10188Y11757*
X10168Y11760*
X10148Y11761*
Y11861*
X10168Y11862*
X10188Y11865*
X10208Y11871*
X10228Y11878*
X10247Y11888*
X10265Y11899*
X10284Y11913*
X10302Y11929*
X10319Y11947*
X10336Y11967*
Y11655*
G37*
G36*
X7702Y12333D02*
X7699Y12330D01*
X7696Y12325*
X7694Y12318*
X7692Y12309*
X7691Y12298*
X7690Y12288*
X7692Y12258*
X7694Y12249*
X7696Y12242*
X7699Y12237*
X7702Y12234*
X7706Y12233*
X7570*
X7573Y12234*
X7576Y12237*
X7579Y12242*
X7581Y12249*
X7583Y12258*
X7585Y12269*
X7586Y12278*
X7583Y12309*
X7581Y12318*
X7579Y12325*
X7576Y12330*
X7573Y12333*
X7570Y12334*
X7706*
X7702Y12333*
G37*
G36*
X8402Y12990D02*
X8398Y12994D01*
X8395Y12997*
X8391Y12998*
X8386Y12999*
X8381Y12998*
X8376Y12996*
X8371Y12994*
X8365Y12990*
X8359Y12984*
X8352Y12978*
X8282Y13049*
X8295Y13063*
X8341Y13116*
X8346Y13124*
X8350Y13130*
X8352Y13136*
Y13141*
X8402Y12990*
G37*
G36*
X7875Y12600D02*
X7874Y12603D01*
X7871Y12606*
X7866Y12609*
X7859Y12611*
X7850Y12613*
X7839Y12615*
X7830*
X7799Y12613*
X7790Y12611*
X7783Y12609*
X7778Y12606*
X7775Y12603*
X7774Y12600*
Y12735*
X7775Y12732*
X7778Y12729*
X7783Y12726*
X7790Y12724*
X7799Y12722*
X7810Y12720*
X7820Y12719*
X7850Y12722*
X7859Y12724*
X7866Y12726*
X7871Y12729*
X7874Y12732*
X7875Y12735*
Y12600*
G37*
G36*
X10792Y12572D02*
X10796Y12511D01*
X10801Y12483*
X10807Y12458*
X10814Y12435*
X10822Y12414*
X10832Y12395*
X10843Y12379*
X10856Y12364*
X10785Y12294*
X10771Y12306*
X10754Y12317*
X10736Y12327*
X10715Y12336*
X10692Y12343*
X10666Y12349*
X10639Y12353*
X10610Y12356*
X10544Y12358*
X10791Y12606*
X10792Y12572*
G37*
G36*
X18162Y9811D02*
X18161Y9821D01*
X18158Y9829*
X18153Y9837*
X18146Y9843*
X18137Y9849*
X18125Y9853*
X18112Y9857*
X18097Y9859*
X18080Y9861*
X18061*
Y9961*
X18080Y9962*
X18097Y9963*
X18112Y9966*
X18125Y9969*
X18137Y9974*
X18146Y9979*
X18153Y9986*
X18158Y9993*
X18161Y10002*
X18162Y10011*
Y9811*
G37*
G36*
X2347Y8110D02*
X2405Y8060D01*
X2432Y8039*
X2458Y8022*
X2484Y8008*
X2508Y7997*
X2531Y7989*
X2553Y7985*
X2574Y7983*
Y7883*
X2553Y7882*
X2531Y7877*
X2508Y7869*
X2484Y7858*
X2458Y7844*
X2432Y7827*
X2405Y7806*
X2347Y7756*
X2317Y7726*
Y8140*
X2347Y8110*
G37*
G36*
X11050Y7701D02*
X11048Y7702D01*
X11044Y7703*
X11038Y7704*
X11009Y7705*
X10944Y7706*
Y7806*
X11050Y7810*
Y7701*
G37*
G36*
X11459Y7500D02*
X11450Y7497D01*
X11443Y7492*
X11436Y7485*
X11431Y7476*
X11426Y7465*
X11423Y7452*
X11420Y7436*
X11419Y7419*
X11418Y7400*
X11318*
Y7419*
X11316Y7436*
X11314Y7452*
X11310Y7465*
X11306Y7476*
X11300Y7485*
X11294Y7492*
X11286Y7497*
X11278Y7500*
X11268Y7501*
X11468*
X11459Y7500*
G37*
G36*
X10304Y8033D02*
X10307Y8025D01*
X10312Y8017*
X10319Y8011*
X10328Y8005*
X10339Y8001*
X10352Y7997*
X10367Y7995*
X10385Y7993*
X10404*
Y7893*
X10385Y7892*
X10367Y7891*
X10352Y7888*
X10339Y7885*
X10328Y7880*
X10319Y7875*
X10312Y7868*
X10307Y7861*
X10304Y7852*
X10303Y7843*
Y8043*
X10304Y8033*
G37*
G36*
X18585Y8633D02*
X18576Y8630D01*
X18569Y8625*
X18562Y8618*
X18557Y8609*
X18552Y8598*
X18549Y8585*
X18546Y8570*
X18545Y8552*
X18544Y8536*
X18545Y8517*
X18549Y8497*
X18556Y8477*
X18565Y8457*
X18576Y8436*
X18590Y8414*
X18607Y8393*
X18626Y8371*
X18648Y8348*
X18672Y8325*
X18322Y8311*
X18345Y8337*
X18384Y8386*
X18400Y8409*
X18414Y8431*
X18425Y8453*
X18433Y8474*
X18439Y8494*
X18443Y8514*
X18444Y8533*
X18459*
X18444*
Y8552*
X18442Y8570*
X18440Y8585*
X18436Y8598*
X18432Y8609*
X18426Y8618*
X18420Y8625*
X18412Y8630*
X18404Y8633*
X18394Y8634*
X18594*
X18585Y8633*
G37*
G36*
X11050Y8095D02*
X11048Y8096D01*
X11044Y8097*
X11039*
X11023Y8098*
X10955Y8100*
Y8200*
X11050Y8204*
Y8095*
G37*
G36*
Y7898D02*
Y7897D01*
X11047Y7896*
X11042*
X11033Y7895*
X10943Y7893*
X10916*
X10930Y7993*
X10949*
X11021Y7998*
X11030Y8000*
X11039Y8002*
X11045Y8005*
X11050Y8007*
Y7898*
G37*
G36*
X5928Y7294D02*
X5932Y7248D01*
X5936Y7229*
X5940Y7213*
X5946Y7200*
X5952Y7190*
X5959Y7183*
X5968Y7179*
X5977Y7177*
X5779*
X5788Y7179*
X5797Y7183*
X5804Y7190*
X5810Y7200*
X5816Y7213*
X5820Y7229*
X5824Y7248*
X5826Y7270*
X5827Y7294*
X5828Y7322*
X5928*
Y7294*
G37*
G36*
X8667Y7110D02*
X8714Y7070D01*
X8737Y7054*
X8758Y7040*
X8780Y7029*
X8801Y7020*
X8821Y7014*
X8840Y7010*
X8860Y7009*
Y6909*
X8840Y6907*
X8821Y6904*
X8801Y6897*
X8780Y6889*
X8758Y6877*
X8737Y6864*
X8714Y6847*
X8691Y6829*
X8643Y6784*
Y7134*
X8667Y7110*
G37*
G36*
X4261Y6780D02*
X4260Y6789D01*
X4257Y6798*
X4252Y6805*
X4245Y6812*
X4236Y6817*
X4225Y6822*
X4212Y6825*
X4196Y6828*
X4179Y6829*
X4160Y6830*
Y6930*
X4179*
X4196Y6932*
X4212Y6934*
X4225Y6938*
X4236Y6942*
X4245Y6948*
X4252Y6954*
X4257Y6962*
X4260Y6970*
X4261Y6980*
Y6780*
G37*
G36*
X3872Y6979D02*
X4056Y6932D01*
X4072Y6931*
X4085Y6930*
X4147Y6830*
X4126Y6829*
X4106Y6824*
X4088Y6818*
X4071Y6808*
X4056Y6796*
X4042Y6781*
X4030Y6763*
X4019Y6742*
X4010Y6719*
X4003Y6693*
X3836Y6990*
X3872Y6979*
G37*
G36*
X16762Y7039D02*
X16765Y7031D01*
X16770Y7023*
X16777Y7017*
X16786Y7011*
X16797Y7007*
X16810Y7003*
X16825Y7001*
X16843Y6999*
X16862*
Y6899*
X16843Y6898*
X16825Y6897*
X16810Y6894*
X16797Y6891*
X16786Y6886*
X16777Y6881*
X16770Y6874*
X16765Y6867*
X16762Y6858*
X16761Y6849*
Y7049*
X16762Y7039*
G37*
G36*
X10375Y6928D02*
X10361Y6914D01*
X10349Y6899*
X10338Y6885*
X10329Y6871*
X10321Y6857*
X10314Y6842*
X10309Y6828*
X10306Y6814*
X10303Y6800*
Y6787*
Y7069*
Y7056*
X10306Y7046*
X10309Y7039*
X10314Y7035*
X10321Y7033*
X10329Y7035*
X10338Y7039*
X10349Y7046*
X10361Y7056*
X10375Y7069*
Y6928*
G37*
G36*
X8235Y7261D02*
X8252Y7249D01*
X8270Y7240*
X8291Y7231*
X8314Y7224*
X8339Y7218*
X8367Y7214*
X8396Y7211*
X8462Y7209*
X8215Y6961*
X8214Y6995*
X8209Y7056*
X8205Y7084*
X8199Y7109*
X8192Y7132*
X8184Y7153*
X8174Y7172*
X8163Y7188*
X8150Y7203*
X8221Y7273*
X8235Y7261*
G37*
G36*
X9638Y6859D02*
X9637Y6868D01*
X9634Y6877*
X9629Y6884*
X9622Y6891*
X9613Y6896*
X9602Y6901*
X9589Y6904*
X9573Y6907*
X9556Y6908*
X9537Y6909*
Y7009*
X9556*
X9573Y7011*
X9589Y7013*
X9602Y7017*
X9613Y7021*
X9622Y7027*
X9629Y7033*
X9634Y7041*
X9637Y7049*
X9638Y7059*
Y6859*
G37*
G36*
X10713Y8605D02*
X10718Y8544D01*
X10722Y8517*
X10728Y8491*
X10735Y8468*
X10744Y8447*
X10753Y8429*
X10765Y8412*
X10777Y8398*
X10707Y8327*
X10692Y8340*
X10676Y8351*
X10657Y8361*
X10636Y8369*
X10613Y8376*
X10588Y8382*
X10560Y8387*
X10531Y8390*
X10465Y8392*
X10713Y8639*
Y8605*
G37*
G36*
X4928Y9342D02*
X4932Y9295D01*
X4936Y9276*
X4940Y9261*
X4946Y9248*
X4952Y9237*
X4959Y9230*
X4968Y9226*
X4977Y9224*
X4779*
X4788Y9226*
X4797Y9230*
X4804Y9237*
X4810Y9248*
X4816Y9261*
X4820Y9276*
X4824Y9295*
X4826Y9317*
X4827Y9342*
X4828Y9369*
X4928*
Y9342*
G37*
G36*
X4306Y9337D02*
X4332Y9316D01*
X4344Y9307*
X4355Y9299*
X4367Y9292*
X4378Y9287*
X4388Y9282*
X4399Y9279*
X4408Y9277*
X4262Y9170*
X4269Y9177*
X4273Y9185*
X4274Y9194*
X4273Y9204*
X4268Y9216*
X4262Y9229*
X4252Y9244*
X4240Y9260*
X4225Y9277*
X4207Y9295*
X4293Y9350*
X4306Y9337*
G37*
G36*
X2158Y9380D02*
X2163Y9358D01*
X2170Y9335*
X2181Y9310*
X2195Y9285*
X2213Y9259*
X2233Y9232*
X2283Y9174*
X2313Y9144*
X1900*
X1929Y9174*
X1980Y9232*
X2000Y9259*
X2017Y9285*
X2031Y9310*
X2042Y9335*
X2050Y9358*
X2055Y9380*
X2056Y9401*
X2156*
X2158Y9380*
G37*
G36*
X5428Y9342D02*
X5432Y9295D01*
X5436Y9276*
X5440Y9261*
X5446Y9248*
X5452Y9237*
X5459Y9230*
X5468Y9226*
X5477Y9224*
X5279*
X5288Y9226*
X5297Y9230*
X5304Y9237*
X5310Y9248*
X5316Y9261*
X5320Y9276*
X5324Y9295*
X5326Y9317*
X5327Y9342*
X5328Y9369*
X5428*
Y9342*
G37*
G36*
X8072Y9735D02*
X8074Y9718D01*
X8076Y9703*
X8080Y9690*
X8084Y9678*
X8090Y9669*
X8096Y9662*
X8104Y9657*
X8112Y9654*
X8122Y9653*
X7922*
X7931Y9654*
X7940Y9657*
X7947Y9662*
X7954Y9669*
X7959Y9678*
X7964Y9690*
X7967Y9703*
X7970Y9718*
X7971Y9735*
X7972Y9754*
X8072*
Y9735*
G37*
G36*
X9209Y9601D02*
X9189Y9580D01*
X9155Y9540*
X9141Y9521*
X9129Y9503*
X9119Y9486*
X9112Y9470*
X9106Y9454*
X9103Y9439*
X9102Y9424*
X9103Y9654*
X9104Y9652*
X9106Y9651*
X9110Y9652*
X9114Y9654*
X9121Y9659*
X9129Y9665*
X9148Y9682*
X9174Y9707*
X9209Y9601*
G37*
G36*
X7806Y9437D02*
X7805Y9447D01*
X7802Y9455*
X7797Y9463*
X7790Y9469*
X7781Y9475*
X7770Y9479*
X7757Y9483*
X7742Y9485*
X7725Y9487*
X7706*
Y9587*
X7725Y9588*
X7742Y9589*
X7757Y9592*
X7770Y9595*
X7781Y9600*
X7790Y9605*
X7797Y9612*
X7802Y9619*
X7805Y9628*
X7806Y9637*
Y9437*
G37*
G36*
X6067Y8968D02*
X6053Y8954D01*
X6041Y8940*
X6030Y8925*
X6021Y8911*
X6013Y8897*
X6006Y8883*
X6001Y8869*
X5998Y8855*
X5995Y8841*
Y8827*
Y9110*
Y9097*
X5998Y9087*
X6001Y9080*
X6006Y9075*
X6013Y9074*
X6021Y9075*
X6030Y9080*
X6041Y9087*
X6053Y9097*
X6067Y9110*
Y8968*
G37*
G36*
X4968Y8628D02*
X4959Y8624D01*
X4952Y8617*
X4946Y8607*
X4940Y8594*
X4936Y8578*
X4932Y8559*
X4930Y8537*
X4928Y8513*
Y8485*
X4828*
X4827Y8513*
X4824Y8559*
X4820Y8578*
X4816Y8594*
X4810Y8607*
X4804Y8617*
X4797Y8624*
X4788Y8628*
X4779Y8630*
X4977*
X4968Y8628*
G37*
G36*
X7806Y8436D02*
Y8441D01*
X7804Y8443*
X7800Y8444*
X7795Y8443*
X7789Y8439*
X7781Y8434*
X7772Y8427*
X7749Y8406*
X7736Y8393*
X7700Y8499*
X7720Y8520*
X7754Y8559*
X7768Y8578*
X7780Y8595*
X7789Y8612*
X7797Y8628*
X7802Y8643*
X7805Y8657*
X7806Y8670*
Y8436*
G37*
G36*
X19433Y8596D02*
X19393Y8550D01*
X19376Y8527*
X19363Y8505*
X19352Y8484*
X19343Y8463*
X19337Y8443*
X19333Y8423*
X19332Y8404*
X19231*
X19230Y8423*
X19226Y8443*
X19220Y8463*
X19211Y8484*
X19200Y8505*
X19187Y8527*
X19170Y8550*
X19152Y8573*
X19107Y8621*
X19456*
X19433Y8596*
G37*
G36*
X5468Y8628D02*
X5459Y8624D01*
X5452Y8617*
X5446Y8607*
X5440Y8594*
X5436Y8578*
X5432Y8559*
X5430Y8537*
X5428Y8513*
Y8485*
X5328*
X5327Y8513*
X5324Y8559*
X5320Y8578*
X5316Y8594*
X5310Y8607*
X5304Y8617*
X5297Y8624*
X5288Y8628*
X5279Y8630*
X5477*
X5468Y8628*
G37*
G36*
X19333Y9175D02*
X19337Y9155D01*
X19343Y9135*
X19352Y9114*
X19363Y9093*
X19376Y9071*
X19393Y9049*
X19411Y9026*
X19456Y8978*
X19107*
X19130Y9002*
X19170Y9049*
X19187Y9071*
X19200Y9093*
X19211Y9114*
X19220Y9135*
X19226Y9155*
X19230Y9175*
X19231Y9194*
X19332*
X19333Y9175*
G37*
G36*
X18134Y9112D02*
X18174Y9078D01*
X18191Y9066*
X18206Y9057*
X18219Y9052*
X18231Y9049*
X18240Y9050*
X18247Y9055*
X18253Y9063*
X18162Y8873*
X18165Y8883*
X18166Y8894*
X18165Y8906*
X18161Y8918*
X18155Y8932*
X18147Y8947*
X18136Y8962*
X18123Y8979*
X18108Y8996*
X18090Y9015*
X18111Y9134*
X18134Y9112*
G37*
G36*
X954Y8639D02*
X946Y8645D01*
X937Y8647*
X926*
X914Y8645*
X901Y8639*
X886Y8631*
X869Y8619*
X852Y8605*
X812Y8568*
X742Y8639*
X761Y8659*
X792Y8696*
X804Y8713*
X812Y8727*
X818Y8741*
X821Y8753*
Y8763*
X818Y8773*
X812Y8780*
X954Y8639*
G37*
%LNapdet-2*%
%LPC*%
G36*
X15521Y14667D02*
X15480Y14662D01*
X15394Y14627*
X15321Y14570*
X15265Y14497*
X15230Y14412*
X15224Y14371*
X15521*
Y14667*
G37*
G36*
X15621D02*
Y14371D01*
X15917*
X15912Y14412*
X15877Y14497*
X15820Y14570*
X15747Y14627*
X15662Y14662*
X15621Y14667*
G37*
G36*
X15521Y14271D02*
X15224D01*
X15230Y14230*
X15265Y14144*
X15321Y14071*
X15394Y14015*
X15480Y13980*
X15521Y13974*
Y14271*
G37*
G36*
X15917D02*
X15621D01*
Y13974*
X15662Y13980*
X15747Y14015*
X15820Y14071*
X15877Y14144*
X15912Y14230*
X15917Y14271*
G37*
%LNapdet-3*%
%LPD*%
G54D10*
X16703Y6949D03*
X16506D03*
X16309D03*
X16112D03*
X15915D03*
X15719D03*
X15522D03*
X15325D03*
X15128D03*
X14931D03*
X14734D03*
X14537D03*
X14341D03*
X14144D03*
X13947D03*
X13750D03*
X13553D03*
X13356D03*
X13159D03*
X12963D03*
X12766D03*
X12569D03*
X12372D03*
X12175D03*
X11978D03*
Y12894D03*
X12175D03*
X12372D03*
X12569D03*
X12766D03*
X12963D03*
X13159D03*
X13356D03*
X13553D03*
X13750D03*
X13947D03*
X14144D03*
X14341D03*
X14537D03*
X14734D03*
X14931D03*
X15128D03*
X15325D03*
X15522D03*
X15719D03*
X15915D03*
X16112D03*
X16309D03*
X16506D03*
X16703D03*
G54D11*
X11368Y7559D03*
Y7756D03*
Y7953D03*
Y8150D03*
Y8346D03*
Y8543D03*
Y8740D03*
Y8937D03*
Y9134D03*
Y9331D03*
Y9528D03*
Y9724D03*
Y9921D03*
Y10118D03*
Y10315D03*
Y10512D03*
Y10709D03*
Y10906D03*
Y11102D03*
Y11299D03*
Y11496D03*
Y11693D03*
Y11890D03*
Y12087D03*
Y12283D03*
X17313D03*
Y12087D03*
Y11890D03*
Y11693D03*
Y11496D03*
Y11299D03*
Y11102D03*
Y10906D03*
Y10709D03*
Y10512D03*
Y10315D03*
Y10118D03*
Y9921D03*
Y9724D03*
Y9528D03*
Y9331D03*
Y9134D03*
Y8937D03*
Y8740D03*
Y8543D03*
Y8346D03*
Y8150D03*
Y7953D03*
Y7756D03*
Y7559D03*
G54D12*
X5878Y8927D03*
X5378D03*
X4878D03*
X4378D03*
X5878Y6880D03*
X5378D03*
X4878D03*
X4378D03*
G54D13*
X9970Y7943D03*
Y6880D03*
X18494Y8848D03*
Y9911D03*
G54D14*
X16171Y5335D03*
X15581D03*
X16181Y4045D03*
X15591D03*
X10374Y5157D03*
X10965D03*
G54D15*
X5659Y10059D03*
X4596D03*
G54D16*
X7638Y11988D03*
Y12185D03*
Y12382D03*
X8602D03*
Y12185D03*
Y11988D03*
G54D17*
X7726Y12667D03*
X7923D03*
X8120D03*
X8317D03*
X8514D03*
Y11703D03*
X8317D03*
X8120D03*
X7923D03*
X7726D03*
G54D18*
X8888Y9537D03*
Y9045D03*
Y8553D03*
Y8061D03*
X8022D03*
Y8553D03*
Y9045D03*
Y9537D03*
G54D19*
X7923Y4114D03*
Y4705D03*
X10965Y3809D03*
Y4400D03*
X6939Y4104D03*
Y4695D03*
X13455Y3061D03*
Y3652D03*
X9449Y4281D03*
Y3691D03*
X12343Y3041D03*
Y3632D03*
X14793Y3071D03*
Y3661D03*
G54D20*
X15620Y3100D02*
Y4075D01*
X12835Y5945D02*
X12963Y6073D01*
X16211Y2313D02*
Y5295D01*
X8888Y9537D02*
X9075D01*
X9843Y10305*
X7913Y4104D02*
X7923Y4114D01*
X6929Y4094D02*
X6939Y4104D01*
X14537Y5965D02*
Y6949D01*
X14035Y5463D02*
X14537Y5965D01*
X16909Y14104D02*
X17943Y13071D01*
X16388Y14104D02*
X16909D01*
X2106Y8933D02*
Y10906D01*
X12175Y13356D02*
X12530Y13711D01*
X12175Y12894D02*
Y13356D01*
X19282Y7579D02*
Y8799D01*
X18652Y6949D02*
X19282Y7579D01*
X16703Y6949D02*
X18652D01*
X19282Y8799D02*
Y9508D01*
X18878Y9911D02*
X19282Y9508D01*
X18494Y9911D02*
X18878D01*
X18494Y8150D02*
X18504Y8140D01*
X18494Y8150D02*
Y8848D01*
X18937Y10423D02*
X19813Y9547D01*
X18002Y11378D02*
X18415D01*
X17923Y11299D02*
X18002Y11378D01*
X17313Y11693D02*
X17726D01*
X17943Y11909*
Y13071*
X16673Y11102D02*
X17313D01*
X16506Y11270D02*
X16673Y11102D01*
X16506Y11270D02*
Y11535D01*
X16663Y11693D02*
X17313D01*
X16506Y11535D02*
X16663Y11693D01*
X17244Y12943D02*
Y13376D01*
X17008Y13612D02*
X17244Y13376D01*
X16752Y13612D02*
X17008D01*
X16506Y13366D02*
X16752Y13612D01*
X16506Y12894D02*
Y13366D01*
X16309Y12894D02*
Y13878D01*
X11978Y12894D02*
Y14478D01*
X9970Y11988D02*
X10148Y11811D01*
X10532*
Y10433D02*
Y11811D01*
X9144Y9045D02*
X10532Y10433D01*
X8888Y9045D02*
X9144D01*
X9843Y10305D02*
Y11319D01*
X8022Y9537D02*
Y10039D01*
X4272Y10896D02*
X6506D01*
X6516Y10886*
X16161Y5620D02*
X16171Y5610D01*
Y5335D02*
Y5610D01*
X15581Y4715D02*
Y5335D01*
X8602Y11988D02*
X9970D01*
X8317Y11250D02*
Y11703D01*
X16161Y5620D02*
X16703Y6161D01*
X7638Y9537D02*
X8022D01*
X6969Y8868D02*
X7638Y9537D01*
X6969Y7205D02*
Y8868D01*
Y7205D02*
X8179Y5994D01*
X10394D02*
X11368Y6969D01*
Y7559*
X17313Y11299D02*
X17923D01*
X5878Y8927D02*
X5955D01*
X3907Y10532D02*
X4272Y10896D01*
X3907Y9665D02*
Y10532D01*
Y9665D02*
X4378Y9195D01*
Y8927D02*
Y9195D01*
X8593Y11437D02*
X9124D01*
X8514Y11516D02*
X8593Y11437D01*
X8514Y11516D02*
Y11703D01*
X6919Y11782D02*
X7057D01*
X7264Y11988*
X7638*
X6801Y12382D02*
X7638D01*
X8602D02*
X8888D01*
X9163Y12657*
Y13563*
X7638Y12185D02*
Y12382D01*
X4878Y8392D02*
Y8927D01*
X4419Y7933D02*
X4878Y8392D01*
X2106Y7933D02*
X4419D01*
X453Y8280D02*
X1106Y8933D01*
X453Y6329D02*
Y8280D01*
Y6329D02*
X1437Y5344D01*
X4498*
X5378Y6224*
Y6880*
X4878Y6187D02*
Y6880D01*
X4429Y5738D02*
X4878Y6187D01*
X1713Y5738D02*
X4429D01*
X1106Y6344D02*
X1713Y5738D01*
X1106Y6344D02*
Y6933D01*
X10541Y4400D02*
X10965D01*
X10236Y4094D02*
X10541Y4400D01*
X18061Y10423D02*
X18937D01*
X17756Y10118D02*
X18061Y10423D01*
X17313Y10118D02*
X17756D01*
X6407Y10059D02*
X6417Y10049D01*
X5659Y10059D02*
X6407D01*
X9892Y6959D02*
X9970Y6880D01*
X8465Y6959D02*
X9892D01*
X7569Y7854D02*
X8465Y6959D01*
X7569Y7854D02*
Y8297D01*
X7825Y8553*
X8022*
X10463Y8642D02*
X10955Y8150D01*
X11368*
X10787Y7756D02*
X11368D01*
X10650Y7618D02*
X10787Y7756D01*
X10650Y7274D02*
Y7618D01*
X10256Y6880D02*
X10650Y7274D01*
X9970Y6880D02*
X10256D01*
X11358Y7943D02*
X11368Y7953D01*
X9970Y7943D02*
X11358D01*
X17313Y11496D02*
Y11693D01*
X12963Y6073D02*
Y6949D01*
X13159D02*
X13177Y6931D01*
X15472Y4104D02*
X15591D01*
X16506Y6467D02*
Y6949D01*
X16280Y6240D02*
X16506Y6467D01*
X15807Y6240D02*
X16280D01*
X15522Y6526D02*
X15807Y6240D01*
X15522Y6526D02*
Y6949D01*
X11955Y6925D02*
X11978Y6949D01*
X15984Y1087D02*
Y2087D01*
X16211Y2313*
X15325Y5591D02*
X15581Y5335D01*
X15325Y5591D02*
Y6949D01*
X5378Y7929D02*
Y8927D01*
Y7929D02*
X5878Y7429D01*
Y6880D02*
Y7429D01*
X4878Y8927D02*
Y9413D01*
X4596Y9695D02*
X4878Y9413D01*
X4596Y9695D02*
Y10059D01*
X5378Y8927D02*
Y9423D01*
X5659Y9705*
Y10059*
X17665Y9528D02*
X18048Y9911D01*
X17313Y9528D02*
X17665D01*
X18048Y9911D02*
X18494D01*
X18327Y8848D02*
X18494D01*
X17844Y9331D02*
X18327Y8848D01*
X17313Y9331D02*
X17844D01*
X16703Y6161D02*
Y6949D01*
X10984Y2087D02*
X10994Y2096D01*
X5807Y2264D02*
X6984Y1087D01*
X6417Y4695D02*
X6939D01*
X6949Y4705*
X7923*
X7943Y2128D02*
X7984Y2087D01*
X6959Y2112D02*
X6984Y2087D01*
X5955Y8927D02*
X7175Y10148D01*
Y10207*
X6988Y11073D02*
X8022Y10039D01*
X6988Y11073D02*
X7490D01*
X7726Y11309*
Y11703*
X15984Y709D02*
Y1087D01*
X15679Y404D02*
X15984Y709D01*
X787Y4734D02*
X5118Y404D01*
X3888Y6880D02*
X4378D01*
X3760Y6752D02*
X3888Y6880D01*
X14734Y5246D02*
Y6949D01*
X14282Y2789D02*
X14984Y2087D01*
X16171Y5335D02*
X16211Y5295D01*
X15591Y4104D02*
X15620Y4075D01*
X12984Y2087D02*
Y3827D01*
X12530Y4281D02*
X12984Y3827D01*
X10994Y2096D02*
Y3780D01*
X10965Y3809D02*
X10994Y3780D01*
X17539Y1594D02*
X19813Y3868D01*
Y9547*
X5807Y2264D02*
Y4085D01*
X6417Y4695*
X6959Y2112D02*
Y4065D01*
X6929Y4094D02*
X6959Y4065D01*
X7943Y2128D02*
Y4075D01*
X7913Y4104D02*
X7943Y4075D01*
X787Y4734D02*
Y5010D01*
X758Y5039D02*
X787Y5010D01*
X12835Y5945D02*
X12844Y5935D01*
X12864*
X13159Y6348D02*
Y6949D01*
Y6348D02*
X13346Y6161D01*
Y5118D02*
Y6161D01*
X12175Y5650D02*
Y6949D01*
X13984Y2087D02*
Y3841D01*
X11984Y2087D02*
Y2553D01*
X11545Y2992D02*
X11984Y2553D01*
X11545Y2992D02*
Y6181D01*
X11978Y6614*
Y6949*
X15128Y4449D02*
X15472Y4104D01*
X15128Y4449D02*
Y6949D01*
X14793Y3071D02*
X14882D01*
X15866Y2087*
X15984*
X14282Y4793D02*
X14734Y5246D01*
X14331Y4124D02*
X14793Y3661D01*
X14282Y4124D02*
X14331D01*
X14282Y2789D02*
Y4124D01*
Y4793*
X13455Y3652D02*
X13809Y4006D01*
X13819*
X12175Y5650D02*
X13819Y4006D01*
X13984Y3841*
X13455Y758D02*
Y3061D01*
X13100Y404D02*
X13455Y758D01*
X13100Y404D02*
X15679D01*
X12343Y3632D02*
Y4094D01*
X12530Y4281*
X12343Y2608D02*
Y3041D01*
Y2608D02*
X12500Y2451D01*
Y768D02*
Y2451D01*
X12136Y404D02*
X12500Y768D01*
X5118Y404D02*
X12136D01*
X13100*
X10374Y5157D02*
Y5531D01*
X9911Y5994D02*
X10374Y5531D01*
X9911Y5994D02*
X10394D01*
X10965Y5157D02*
Y5600D01*
X11545Y6181*
X9449Y2622D02*
Y3691D01*
Y2622D02*
X9984Y2087D01*
X9449Y4281D02*
Y5482D01*
X8937Y5994D02*
X9449Y5482D01*
X8179Y5994D02*
X8937D01*
X9911*
X7638Y13150D02*
X7884Y12903D01*
X7726Y12667D02*
X7884D01*
Y12903*
X7343Y13150D02*
X7638D01*
X8443Y13140D02*
X8602D01*
X8317Y12667D02*
Y13014D01*
X8443Y13140*
X8120Y12667D02*
Y13278D01*
X7992Y13406D02*
X8120Y13278D01*
X8317Y11250D02*
X8780Y10787D01*
X9311*
X9843Y11319*
X10866Y12283D02*
X11368D01*
X10541Y12608D02*
X10866Y12283D01*
X5856Y12205D02*
X6988Y11073D01*
X6585Y12598D02*
X6801Y12382D01*
G54D21*
X21634Y1240D02*
X21673Y1280D01*
G54D22*
X6984Y1087D03*
Y2087D03*
X7984Y1087D03*
Y2087D03*
X8984Y1087D03*
Y2087D03*
X9984Y1087D03*
Y2087D03*
X10984Y1087D03*
Y2087D03*
X11984Y1087D03*
Y2087D03*
X12984Y1087D03*
Y2087D03*
X13984Y1087D03*
Y2087D03*
X14984Y1087D03*
Y2087D03*
X15984Y1087D03*
X2106Y8933D03*
X1106Y7933D03*
X2106D03*
X1106Y6933D03*
X2106D03*
G54D23*
X15984Y2087D03*
G54D24*
X1106Y8933D03*
G54D25*
X21102Y1496D03*
X1378Y1378D03*
Y21260D03*
G54D26*
X14035Y5463D03*
X12530Y13711D03*
X15571Y14321D03*
X19282Y8799D03*
X18504Y8140D03*
X18415Y11378D03*
X17244Y12943D03*
X9843Y11358D03*
X15581Y4715D03*
X15807Y6240D03*
X15620Y3100D03*
X10532Y11811D03*
X6516Y10886D03*
X9124Y11437D03*
X6919Y11782D03*
X10236Y4094D03*
X17539Y1594D03*
X6417Y10049D03*
X10463Y8642D03*
X12530Y4281D03*
X7175Y10207D03*
X8465Y6959D03*
X758Y5039D03*
X3760Y6752D03*
X12864Y5935D03*
X13346Y5118D03*
X7343Y13150D03*
X8602Y13140D03*
X7992Y13406D03*
X10541Y12608D03*
M02*