%FSLAX24Y24*%
%MOIN*%
%SFA1B1*%

%IPPOS*%
%ADD20C,0.010000*%
%ADD22C,0.059100*%
%ADD23R,0.059100X0.059100*%
%ADD24R,0.059100X0.059100*%
%ADD25C,0.196900*%
%ADD26C,0.050000*%
%LNapdet-1*%
%LPD*%
G36*
X1345Y22799D02*
X2239Y22729D01*
X3129Y22624*
X4015Y22483*
X4895Y22308*
X5767Y22099*
X6630Y21856*
X7483Y21578*
X8324Y21268*
X9153Y20925*
X9967Y20549*
X10766Y20142*
X11549Y19704*
X12313Y19235*
X13059Y18737*
X13785Y18210*
X14489Y17655*
X15171Y17072*
X15829Y16464*
X16464Y15829*
X17072Y15171*
X17655Y14489*
X18210Y13785*
X18737Y13059*
X19235Y12313*
X19704Y11549*
X20142Y10766*
X20549Y9967*
X20925Y9153*
X21268Y8324*
X21578Y7483*
X21856Y6630*
X22099Y5767*
X22308Y4895*
X22483Y4015*
X22624Y3129*
X22729Y2239*
X22799Y1345*
X22835Y448*
Y0*
X0*
Y22835*
X448*
X1345Y22799*
G37*
%LNapdet-2*%
%LPC*%
G36*
X9843Y11681D02*
X9759Y11670D01*
X9681Y11638*
X9614Y11586*
X9563Y11520*
X9531Y11442*
X9520Y11358*
X9531Y11275*
X9563Y11197*
X9614Y11130*
X9681Y11079*
X9759Y11047*
X9843Y11036*
X9926Y11047*
X10004Y11079*
X10071Y11130*
X10122Y11197*
X10138Y11236*
X10245*
X11994Y9487*
Y8159*
X12003Y8113*
X12030Y8073*
X14612Y5491*
Y3986*
X14621Y3939*
X14648Y3900*
X15324Y3223*
X15308Y3184*
X15297Y3100*
X15308Y3017*
X15341Y2939*
X15392Y2872*
X15459Y2821*
X15537Y2789*
X15620Y2778*
X15704Y2789*
X15781Y2821*
X15848Y2872*
X15900Y2939*
X15932Y3017*
X15943Y3100*
X15932Y3184*
X15900Y3262*
X15848Y3329*
X15781Y3380*
X15704Y3412*
X15620Y3423*
X15537Y3412*
X15498Y3396*
X14857Y4037*
Y5541*
X14847Y5588*
X14821Y5628*
X12238Y8210*
Y9537*
X12229Y9584*
X12203Y9624*
X10382Y11445*
X10342Y11471*
X10295Y11481*
X10138*
X10122Y11520*
X10071Y11586*
X10004Y11638*
X9926Y11670*
X9843Y11681*
G37*
G36*
X14035Y5785D02*
X13952Y5774D01*
X13874Y5742*
X13807Y5691*
X13756Y5624*
X13724Y5546*
X13713Y5463*
X13724Y5379*
X13756Y5301*
X13807Y5234*
X13874Y5183*
X13913Y5167*
Y4401*
X12705Y3193*
X10969*
X10922Y3184*
X10882Y3157*
X10141Y2417*
X10080Y2442*
X9984Y2455*
X9889Y2442*
X9800Y2406*
X9724Y2347*
X9665Y2271*
X9628Y2182*
X9616Y2087*
X9628Y1991*
X9665Y1902*
X9724Y1826*
X9800Y1768*
X9802Y1767*
X9792Y1717*
X9527*
X9315Y1929*
X9340Y1991*
X9353Y2087*
X9340Y2182*
X9303Y2271*
X9245Y2347*
X9168Y2406*
X9080Y2442*
X8984Y2455*
X8889Y2442*
X8800Y2406*
X8724Y2347*
X8665Y2271*
X8628Y2182*
X8616Y2087*
X8628Y1991*
X8665Y1902*
X8724Y1826*
X8800Y1768*
X8889Y1731*
X8984Y1718*
X9080Y1731*
X9141Y1756*
X9390Y1508*
X9430Y1481*
X9476Y1472*
X9757*
X9772Y1422*
X9702Y1369*
X9639Y1286*
X9599Y1190*
X9592Y1137*
X9984*
X10376*
X10369Y1190*
X10330Y1286*
X10266Y1369*
X10196Y1422*
X10212Y1472*
X10757*
X10772Y1422*
X10702Y1369*
X10639Y1286*
X10599Y1190*
X10592Y1137*
X10984*
X11376*
X11369Y1190*
X11330Y1286*
X11266Y1369*
X11196Y1422*
X11212Y1472*
X11757*
X11772Y1422*
X11702Y1369*
X11639Y1286*
X11599Y1190*
X11592Y1137*
X11984*
X12376*
X12369Y1190*
X12330Y1286*
X12266Y1369*
X12196Y1422*
X12212Y1472*
X12757*
X12772Y1422*
X12702Y1369*
X12639Y1286*
X12599Y1190*
X12592Y1137*
X12984*
X13376*
X13369Y1190*
X13330Y1286*
X13266Y1369*
X13196Y1422*
X13212Y1472*
X13757*
X13772Y1422*
X13702Y1369*
X13639Y1286*
X13599Y1190*
X13592Y1137*
X13984*
Y1087*
Y1137*
X14376*
X14369Y1190*
X14330Y1286*
X14266Y1369*
X14196Y1422*
X14212Y1472*
X14757*
X14772Y1422*
X14702Y1369*
X14639Y1286*
X14599Y1190*
X14592Y1137*
X14984*
Y1087*
Y1137*
X15376*
X15369Y1190*
X15330Y1286*
X15266Y1369*
X15196Y1422*
X15212Y1472*
X15830*
X15840Y1422*
X15800Y1406*
X15724Y1347*
X15665Y1271*
X15628Y1182*
X15616Y1087*
X15628Y991*
X15665Y902*
X15724Y826*
X15800Y768*
X15889Y731*
X15984Y718*
X16080Y731*
X16168Y768*
X16245Y826*
X16303Y902*
X16340Y991*
X16353Y1087*
X16340Y1182*
X16303Y1271*
X16245Y1347*
X16168Y1406*
X16129Y1422*
X16139Y1472*
X17244*
X17260Y1433*
X17311Y1366*
X17378Y1315*
X17456Y1283*
X17539Y1272*
X17623Y1283*
X17701Y1315*
X17768Y1366*
X17819Y1433*
X17851Y1511*
X17862Y1594*
X17851Y1678*
X17819Y1756*
X17768Y1823*
X17701Y1874*
X17623Y1906*
X17539Y1917*
X17456Y1906*
X17378Y1874*
X17311Y1823*
X17260Y1756*
X17244Y1717*
X16398*
X16350Y1721*
Y1767*
Y2452*
X15619*
Y1721*
X15571Y1717*
X15177*
X15167Y1767*
X15168Y1768*
X15245Y1826*
X15303Y1902*
X15340Y1991*
X15353Y2087*
X15340Y2182*
X15303Y2271*
X15245Y2347*
X15168Y2406*
X15080Y2442*
X14984Y2455*
X14889Y2442*
X14800Y2406*
X14724Y2347*
X14665Y2271*
X14628Y2182*
X14616Y2087*
X14628Y1991*
X14665Y1902*
X14724Y1826*
X14800Y1768*
X14802Y1767*
X14792Y1717*
X14177*
X14167Y1767*
X14168Y1768*
X14245Y1826*
X14303Y1902*
X14340Y1991*
X14353Y2087*
X14340Y2182*
X14303Y2271*
X14245Y2347*
X14168Y2406*
X14080Y2442*
X13984Y2455*
X13889Y2442*
X13800Y2406*
X13724Y2347*
X13665Y2271*
X13628Y2182*
X13616Y2087*
X13628Y1991*
X13665Y1902*
X13724Y1826*
X13800Y1768*
X13802Y1767*
X13792Y1717*
X13177*
X13167Y1767*
X13168Y1768*
X13245Y1826*
X13303Y1902*
X13340Y1991*
X13353Y2087*
X13340Y2182*
X13303Y2271*
X13245Y2347*
X13168Y2406*
X13080Y2442*
X12984Y2455*
X12889Y2442*
X12800Y2406*
X12724Y2347*
X12665Y2271*
X12628Y2182*
X12616Y2087*
X12628Y1991*
X12665Y1902*
X12724Y1826*
X12800Y1768*
X12802Y1767*
X12792Y1717*
X12177*
X12167Y1767*
X12168Y1768*
X12245Y1826*
X12303Y1902*
X12340Y1991*
X12353Y2087*
X12340Y2182*
X12303Y2271*
X12245Y2347*
X12168Y2406*
X12080Y2442*
X11984Y2455*
X11889Y2442*
X11800Y2406*
X11724Y2347*
X11665Y2271*
X11628Y2182*
X11616Y2087*
X11628Y1991*
X11665Y1902*
X11724Y1826*
X11800Y1768*
X11802Y1767*
X11792Y1717*
X11177*
X11167Y1767*
X11168Y1768*
X11245Y1826*
X11303Y1902*
X11340Y1991*
X11353Y2087*
X11340Y2182*
X11303Y2271*
X11245Y2347*
X11168Y2406*
X11080Y2442*
X10984Y2455*
X10889Y2442*
X10800Y2406*
X10724Y2347*
X10665Y2271*
X10628Y2182*
X10616Y2087*
X10628Y1991*
X10665Y1902*
X10724Y1826*
X10800Y1768*
X10802Y1767*
X10792Y1717*
X10177*
X10167Y1767*
X10168Y1768*
X10245Y1826*
X10303Y1902*
X10340Y1991*
X10353Y2087*
X10340Y2182*
X10315Y2244*
X11019Y2949*
X12756*
X12803Y2958*
X12842Y2984*
X14122Y4264*
X14148Y4304*
X14158Y4350*
Y5167*
X14197Y5183*
X14264Y5234*
X14315Y5301*
X14347Y5379*
X14358Y5463*
X14347Y5546*
X14315Y5624*
X14264Y5691*
X14197Y5742*
X14119Y5774*
X14035Y5785*
G37*
G36*
X10186Y4044D02*
X9890D01*
X9895Y4003*
X9930Y3918*
X9987Y3845*
X10060Y3789*
X10145Y3753*
X10186Y3748*
Y4044*
G37*
G36*
X10463Y8964D02*
X10379Y8953D01*
X10301Y8921*
X10234Y8870*
X10183Y8803*
X10151Y8725*
X10140Y8642*
X10151Y8558*
X10183Y8480*
X10234Y8414*
X10301Y8362*
X10340Y8346*
Y6348*
X10350Y6302*
X10376Y6262*
X12234Y4404*
X12218Y4365*
X12207Y4281*
X12218Y4198*
X12250Y4120*
X12301Y4053*
X12368Y4002*
X12446Y3970*
X12530Y3959*
X12613Y3970*
X12691Y4002*
X12758Y4053*
X12809Y4120*
X12841Y4198*
X12852Y4281*
X12841Y4365*
X12809Y4443*
X12758Y4510*
X12691Y4561*
X12613Y4593*
X12530Y4604*
X12446Y4593*
X12407Y4577*
X10585Y6399*
Y8346*
X10624Y8362*
X10691Y8414*
X10742Y8480*
X10774Y8558*
X10785Y8642*
X10774Y8725*
X10742Y8803*
X10691Y8870*
X10624Y8921*
X10546Y8953*
X10463Y8964*
G37*
G36*
X10583Y4044D02*
X10286D01*
Y3748*
X10328Y3753*
X10413Y3789*
X10486Y3845*
X10542Y3918*
X10577Y4003*
X10583Y4044*
G37*
G36*
X7984Y2455D02*
X7889Y2442D01*
X7800Y2406*
X7724Y2347*
X7665Y2271*
X7628Y2182*
X7616Y2087*
X7628Y1991*
X7665Y1902*
X7724Y1826*
X7800Y1768*
X7889Y1731*
X7984Y1718*
X8080Y1731*
X8168Y1768*
X8245Y1826*
X8303Y1902*
X8340Y1991*
X8353Y2087*
X8340Y2182*
X8303Y2271*
X8245Y2347*
X8168Y2406*
X8080Y2442*
X7984Y2455*
G37*
G36*
X7034Y1479D02*
Y1137D01*
X7376*
X7369Y1190*
X7330Y1286*
X7266Y1369*
X7184Y1432*
X7087Y1472*
X7034Y1479*
G37*
G36*
X8934D02*
X8881Y1472D01*
X8785Y1432*
X8702Y1369*
X8639Y1286*
X8599Y1190*
X8592Y1137*
X8934*
Y1479*
G37*
G36*
X8034D02*
Y1137D01*
X8376*
X8369Y1190*
X8330Y1286*
X8266Y1369*
X8184Y1432*
X8087Y1472*
X8034Y1479*
G37*
G36*
X6984Y2455D02*
X6889Y2442D01*
X6800Y2406*
X6724Y2347*
X6665Y2271*
X6628Y2182*
X6616Y2087*
X6628Y1991*
X6665Y1902*
X6724Y1826*
X6800Y1768*
X6889Y1731*
X6984Y1718*
X7080Y1731*
X7168Y1768*
X7245Y1826*
X7303Y1902*
X7340Y1991*
X7353Y2087*
X7340Y2182*
X7303Y2271*
X7245Y2347*
X7168Y2406*
X7080Y2442*
X6984Y2455*
G37*
G36*
X9034Y1479D02*
Y1137D01*
X9376*
X9369Y1190*
X9330Y1286*
X9266Y1369*
X9184Y1432*
X9087Y1472*
X9034Y1479*
G37*
G36*
X15857Y6587D02*
Y6290D01*
X16154*
X16148Y6332*
X16113Y6417*
X16057Y6490*
X15984Y6546*
X15898Y6581*
X15857Y6587*
G37*
G36*
X15757D02*
X15716Y6581D01*
X15631Y6546*
X15557Y6490*
X15501Y6417*
X15466Y6332*
X15461Y6290*
X15757*
Y6587*
G37*
G36*
X1106Y7301D02*
X1011Y7289D01*
X922Y7252*
X846Y7194*
X787Y7117*
X750Y7028*
X738Y6933*
X750Y6838*
X787Y6749*
X846Y6673*
X922Y6614*
X1011Y6577*
X1106Y6565*
X1202Y6577*
X1291Y6614*
X1367Y6673*
X1425Y6749*
X1462Y6838*
X1475Y6933*
X1462Y7028*
X1425Y7117*
X1367Y7194*
X1291Y7252*
X1202Y7289*
X1106Y7301*
G37*
G36*
X8415Y6909D02*
X8118D01*
X8124Y6867*
X8159Y6782*
X8215Y6709*
X8288Y6653*
X8373Y6618*
X8415Y6612*
Y6909*
G37*
G36*
X2106Y7301D02*
X2011Y7289D01*
X1922Y7252*
X1846Y7194*
X1787Y7117*
X1750Y7028*
X1738Y6933*
X1750Y6838*
X1787Y6749*
X1846Y6673*
X1922Y6614*
X2011Y6577*
X2106Y6565*
X2202Y6577*
X2291Y6614*
X2367Y6673*
X2425Y6749*
X2462Y6838*
X2475Y6933*
X2462Y7028*
X2425Y7117*
X2367Y7194*
X2291Y7252*
X2202Y7289*
X2106Y7301*
G37*
G36*
X16154Y6190D02*
X15857D01*
Y5894*
X15898Y5899*
X15984Y5934*
X16057Y5991*
X16113Y6064*
X16148Y6149*
X16154Y6190*
G37*
G36*
X10286Y4441D02*
Y4144D01*
X10583*
X10577Y4186*
X10542Y4271*
X10486Y4344*
X10413Y4400*
X10328Y4435*
X10286Y4441*
G37*
G36*
X10186D02*
X10145Y4435D01*
X10060Y4400*
X9987Y4344*
X9930Y4271*
X9895Y4186*
X9890Y4144*
X10186*
Y4441*
G37*
G36*
X10532Y12134D02*
X10448Y12123D01*
X10370Y12091*
X10303Y12039*
X10252Y11972*
X10220Y11895*
X10209Y11811*
X10220Y11727*
X10252Y11650*
X10303Y11583*
X10370Y11531*
X10448Y11499*
X10532Y11488*
X10615Y11499*
X10654Y11515*
X12338Y9831*
Y8484*
X12348Y8437*
X12374Y8398*
X14907Y5865*
Y5266*
X14916Y5219*
X14943Y5179*
X15285Y4837*
X15269Y4798*
X15258Y4715*
X15269Y4631*
X15301Y4553*
X15352Y4486*
X15419Y4435*
X15497Y4403*
X15581Y4392*
X15664Y4403*
X15742Y4435*
X15809Y4486*
X15860Y4553*
X15892Y4631*
X15903Y4715*
X15892Y4798*
X15860Y4876*
X15809Y4943*
X15742Y4994*
X15664Y5026*
X15581Y5037*
X15497Y5026*
X15458Y5010*
X15152Y5316*
Y5915*
X15143Y5962*
X15116Y6002*
X12583Y8535*
Y9882*
X12574Y9929*
X12547Y9968*
X10827Y11688*
X10843Y11727*
X10854Y11811*
X10843Y11895*
X10811Y11972*
X10760Y12039*
X10693Y12091*
X10615Y12123*
X10532Y12134*
G37*
G36*
X15757Y6190D02*
X15461D01*
X15466Y6149*
X15501Y6064*
X15557Y5991*
X15631Y5934*
X15716Y5899*
X15757Y5894*
Y6190*
G37*
G36*
X6516Y11209D02*
X6432Y11198D01*
X6354Y11165*
X6288Y11114*
X6236Y11047*
X6204Y10969*
X6193Y10886*
X6204Y10802*
X6236Y10724*
X6288Y10658*
X6354Y10606*
X6432Y10574*
X6516Y10563*
X6599Y10574*
X6642Y10592*
X6666Y10576*
X6713Y10567*
X7083*
X7092Y10518*
X7014Y10486*
X6947Y10435*
X6896Y10368*
X6863Y10290*
X6852Y10207*
X6863Y10123*
X6896Y10045*
X6947Y9978*
X7014Y9927*
X7092Y9895*
X7175Y9884*
X7259Y9895*
X7337Y9927*
X7403Y9978*
X7455Y10045*
X7471Y10084*
X9693*
X11118Y8660*
Y6467*
X11127Y6420*
X11154Y6380*
X12502Y5032*
X12542Y5005*
X12589Y4996*
X13051*
X13067Y4957*
X13118Y4890*
X13185Y4839*
X13263Y4806*
X13346Y4795*
X13430Y4806*
X13508Y4839*
X13575Y4890*
X13626Y4957*
X13658Y5035*
X13669Y5118*
X13658Y5202*
X13626Y5279*
X13575Y5346*
X13508Y5398*
X13430Y5430*
X13346Y5441*
X13263Y5430*
X13185Y5398*
X13118Y5346*
X13067Y5279*
X13051Y5240*
X12639*
X11363Y6517*
Y8711*
X11353Y8757*
X11327Y8797*
X9831Y10293*
X9791Y10320*
X9744Y10329*
X7471*
X7455Y10368*
X7403Y10435*
X7337Y10486*
X7259Y10518*
X7268Y10567*
X10117*
X11571Y9113*
Y6939*
X11580Y6892*
X11606Y6852*
X12544Y5915*
X12552Y5852*
X12585Y5774*
X12636Y5707*
X12703Y5656*
X12781Y5623*
X12864Y5612*
X12948Y5623*
X13026Y5656*
X13092Y5707*
X13144Y5774*
X13176Y5852*
X13187Y5935*
X13176Y6019*
X13144Y6096*
X13092Y6163*
X13026Y6215*
X12948Y6247*
X12864Y6258*
X12781Y6247*
X12703Y6215*
X12639Y6166*
X11815Y6990*
Y9163*
X11806Y9210*
X11779Y9250*
X10254Y10775*
X10214Y10802*
X10167Y10811*
X6867*
X6834Y10849*
X6839Y10886*
X6828Y10969*
X6795Y11047*
X6744Y11114*
X6677Y11165*
X6599Y11198*
X6516Y11209*
G37*
G36*
X11934Y1037D02*
X11592D01*
X11599Y983*
X11639Y887*
X11702Y805*
X11785Y741*
X11881Y702*
X11934Y695*
Y1037*
G37*
G36*
X10934D02*
X10592D01*
X10599Y983*
X10639Y887*
X10702Y805*
X10785Y741*
X10881Y702*
X10934Y695*
Y1037*
G37*
G36*
X12934D02*
X12592D01*
X12599Y983*
X12639Y887*
X12702Y805*
X12785Y741*
X12881Y702*
X12934Y695*
Y1037*
G37*
G36*
X14934D02*
X14592D01*
X14599Y983*
X14639Y887*
X14702Y805*
X14785Y741*
X14881Y702*
X14934Y695*
Y1037*
G37*
G36*
X13934D02*
X13592D01*
X13599Y983*
X13639Y887*
X13702Y805*
X13785Y741*
X13881Y702*
X13934Y695*
Y1037*
G37*
G36*
X9934D02*
X9592D01*
X9599Y983*
X9639Y887*
X9702Y805*
X9785Y741*
X9881Y702*
X9934Y695*
Y1037*
G37*
G36*
X21102Y2554D02*
X20937Y2541D01*
X20776Y2502*
X20622Y2438*
X20481Y2352*
X20355Y2244*
X20247Y2118*
X20160Y1976*
X20097Y1823*
X20058Y1661*
X20045Y1496*
X20058Y1331*
X20097Y1169*
X20160Y1016*
X20247Y874*
X20355Y748*
X20481Y641*
X20622Y554*
X20776Y490*
X20937Y452*
X21102Y439*
X21268Y452*
X21429Y490*
X21582Y554*
X21724Y641*
X21850Y748*
X21958Y874*
X22045Y1016*
X22108Y1169*
X22147Y1331*
X22160Y1496*
X22147Y1661*
X22108Y1823*
X22045Y1976*
X21958Y2118*
X21850Y2244*
X21724Y2352*
X21582Y2438*
X21429Y2502*
X21268Y2541*
X21102Y2554*
G37*
G36*
X1378Y2435D02*
X1213Y2422D01*
X1051Y2384*
X898Y2320*
X756Y2234*
X630Y2126*
X522Y2000*
X436Y1858*
X372Y1705*
X333Y1543*
X320Y1378*
X333Y1213*
X372Y1051*
X436Y898*
X522Y756*
X630Y630*
X756Y522*
X898Y436*
X1051Y372*
X1213Y333*
X1378Y320*
X1543Y333*
X1705Y372*
X1858Y436*
X2000Y522*
X2126Y630*
X2234Y756*
X2320Y898*
X2384Y1051*
X2422Y1213*
X2435Y1378*
X2422Y1543*
X2384Y1705*
X2320Y1858*
X2234Y2000*
X2126Y2126*
X2000Y2234*
X1858Y2320*
X1705Y2384*
X1543Y2422*
X1378Y2435*
G37*
G36*
X6934Y1037D02*
X6592D01*
X6599Y983*
X6639Y887*
X6702Y805*
X6785Y741*
X6881Y702*
X6934Y695*
Y1037*
G37*
G36*
X8934D02*
X8592D01*
X8599Y983*
X8639Y887*
X8702Y805*
X8785Y741*
X8881Y702*
X8934Y695*
Y1037*
G37*
G36*
X7934D02*
X7592D01*
X7599Y983*
X7639Y887*
X7702Y805*
X7785Y741*
X7881Y702*
X7934Y695*
Y1037*
G37*
G36*
X14376D02*
X14034D01*
Y695*
X14087Y702*
X14184Y741*
X14266Y805*
X14330Y887*
X14369Y983*
X14376Y1037*
G37*
G36*
X13376D02*
X13034D01*
Y695*
X13087Y702*
X13184Y741*
X13266Y805*
X13330Y887*
X13369Y983*
X13376Y1037*
G37*
G36*
X15376D02*
X15034D01*
Y695*
X15087Y702*
X15184Y741*
X15266Y805*
X15330Y887*
X15369Y983*
X15376Y1037*
G37*
G36*
X7934Y1479D02*
X7881Y1472D01*
X7785Y1432*
X7702Y1369*
X7639Y1286*
X7599Y1190*
X7592Y1137*
X7934*
Y1479*
G37*
G36*
X6934D02*
X6881Y1472D01*
X6785Y1432*
X6702Y1369*
X6639Y1286*
X6599Y1190*
X6592Y1137*
X6934*
Y1479*
G37*
G36*
X12376Y1037D02*
X12034D01*
Y695*
X12087Y702*
X12184Y741*
X12266Y805*
X12330Y887*
X12369Y983*
X12376Y1037*
G37*
G36*
X8376D02*
X8034D01*
Y695*
X8087Y702*
X8184Y741*
X8266Y805*
X8330Y887*
X8369Y983*
X8376Y1037*
G37*
G36*
X7376D02*
X7034D01*
Y695*
X7087Y702*
X7184Y741*
X7266Y805*
X7330Y887*
X7369Y983*
X7376Y1037*
G37*
G36*
X9376D02*
X9034D01*
Y695*
X9087Y702*
X9184Y741*
X9266Y805*
X9330Y887*
X9369Y983*
X9376Y1037*
G37*
G36*
X11376D02*
X11034D01*
Y695*
X11087Y702*
X11184Y741*
X11266Y805*
X11330Y887*
X11369Y983*
X11376Y1037*
G37*
G36*
X10376D02*
X10034D01*
Y695*
X10087Y702*
X10184Y741*
X10266Y805*
X10330Y887*
X10369Y983*
X10376Y1037*
G37*
G36*
X8811Y6909D02*
X8515D01*
Y6612*
X8556Y6618*
X8641Y6653*
X8714Y6709*
X8770Y6782*
X8806Y6867*
X8811Y6909*
G37*
G36*
X17194Y12893D02*
X16898D01*
X16903Y12852*
X16938Y12766*
X16994Y12693*
X17068Y12637*
X17153Y12602*
X17194Y12596*
Y12893*
G37*
G36*
X6969Y12128D02*
Y11832D01*
X7266*
X7260Y11873*
X7225Y11958*
X7169Y12031*
X7096Y12087*
X7011Y12122*
X6969Y12128*
G37*
G36*
X17591Y12893D02*
X17294D01*
Y12596*
X17335Y12602*
X17421Y12637*
X17494Y12693*
X17550Y12766*
X17585Y12852*
X17591Y12893*
G37*
G36*
X7293Y13100D02*
X6996D01*
X7002Y13058*
X7037Y12973*
X7093Y12900*
X7166Y12844*
X7251Y12809*
X7293Y12803*
Y13100*
G37*
G36*
X8949Y13090D02*
X8652D01*
Y12793*
X8694Y12799*
X8779Y12834*
X8852Y12890*
X8908Y12963*
X8943Y13048*
X8949Y13090*
G37*
G36*
X6869Y12128D02*
X6828Y12122D01*
X6743Y12087*
X6670Y12031*
X6614Y11958*
X6578Y11873*
X6573Y11832*
X6869*
Y12128*
G37*
G36*
Y11731D02*
X6573D01*
X6578Y11690*
X6614Y11605*
X6670Y11532*
X6743Y11476*
X6828Y11441*
X6869Y11435*
Y11731*
G37*
G36*
X18465Y11724D02*
Y11428D01*
X18762*
X18756Y11469*
X18721Y11554*
X18665Y11628*
X18592Y11684*
X18507Y11719*
X18465Y11724*
G37*
G36*
X7266Y11731D02*
X6969D01*
Y11435*
X7011Y11441*
X7096Y11476*
X7169Y11532*
X7225Y11605*
X7260Y11690*
X7266Y11731*
G37*
G36*
X9174Y11783D02*
Y11487D01*
X9470*
X9465Y11528*
X9430Y11614*
X9374Y11687*
X9301Y11743*
X9215Y11778*
X9174Y11783*
G37*
G36*
X9074D02*
X9033Y11778D01*
X8948Y11743*
X8874Y11687*
X8818Y11614*
X8783Y11528*
X8778Y11487*
X9074*
Y11783*
G37*
G36*
X12876Y13661D02*
X12580D01*
Y13364*
X12621Y13370*
X12706Y13405*
X12779Y13461*
X12835Y13534*
X12871Y13619*
X12876Y13661*
G37*
G36*
X12480D02*
X12183D01*
X12189Y13619*
X12224Y13534*
X12280Y13461*
X12353Y13405*
X12438Y13370*
X12480Y13364*
Y13661*
G37*
G36*
Y14057D02*
X12438Y14052D01*
X12353Y14016*
X12280Y13960*
X12224Y13887*
X12189Y13802*
X12183Y13761*
X12480*
Y14057*
G37*
G36*
X1378Y22317D02*
X1213Y22304D01*
X1051Y22266*
X898Y22202*
X756Y22115*
X630Y22008*
X522Y21881*
X436Y21740*
X372Y21587*
X333Y21425*
X320Y21260*
X333Y21094*
X372Y20933*
X436Y20780*
X522Y20638*
X630Y20512*
X756Y20404*
X898Y20318*
X1051Y20254*
X1213Y20215*
X1378Y20202*
X1543Y20215*
X1705Y20254*
X1858Y20318*
X2000Y20404*
X2126Y20512*
X2234Y20638*
X2320Y20780*
X2384Y20933*
X2422Y21094*
X2435Y21260*
X2422Y21425*
X2384Y21587*
X2320Y21740*
X2234Y21881*
X2126Y22008*
X2000Y22115*
X1858Y22202*
X1705Y22266*
X1543Y22304*
X1378Y22317*
G37*
G36*
X12580Y14057D02*
Y13761D01*
X12876*
X12871Y13802*
X12835Y13887*
X12779Y13960*
X12706Y14016*
X12621Y14052*
X12580Y14057*
G37*
G36*
X7992Y13728D02*
X7909Y13717D01*
X7831Y13685*
X7764Y13634*
X7713Y13567*
X7680Y13489*
X7669Y13406*
X7673Y13376*
X7625Y13356*
X7592Y13399*
X7519Y13455*
X7434Y13491*
X7393Y13496*
Y13200*
X7710*
X7738Y13211*
X7764Y13177*
X7831Y13126*
X7870Y13110*
Y12953*
X7879Y12906*
X7906Y12866*
X8250Y12522*
X8290Y12495*
X8337Y12486*
X10246*
X10262Y12447*
X10313Y12380*
X10380Y12329*
X10458Y12297*
X10541Y12286*
X10625Y12297*
X10703Y12329*
X10770Y12380*
X10821Y12447*
X10853Y12525*
X10864Y12608*
X10853Y12692*
X10821Y12770*
X10770Y12836*
X10703Y12888*
X10625Y12920*
X10541Y12931*
X10458Y12920*
X10380Y12888*
X10313Y12836*
X10262Y12770*
X10246Y12731*
X8387*
X8114Y13003*
Y13110*
X8154Y13126*
X8202Y13163*
X8240Y13144*
X8250Y13137*
X8261Y13048*
X8297Y12963*
X8353Y12890*
X8426Y12834*
X8511Y12799*
X8552Y12793*
Y13140*
Y13486*
X8511Y13481*
X8426Y13445*
X8364Y13398*
X8345Y13401*
X8328Y13408*
X8313Y13420*
X8304Y13489*
X8272Y13567*
X8220Y13634*
X8154Y13685*
X8076Y13717*
X7992Y13728*
G37*
G36*
X17194Y13289D02*
X17153Y13284D01*
X17068Y13249*
X16994Y13193*
X16938Y13119*
X16903Y13034*
X16898Y12993*
X17194*
Y13289*
G37*
G36*
X7689Y13100D02*
X7393D01*
Y12803*
X7434Y12809*
X7519Y12844*
X7592Y12900*
X7648Y12973*
X7684Y13058*
X7689Y13100*
G37*
G36*
X17294Y13289D02*
Y12993D01*
X17591*
X17585Y13034*
X17550Y13119*
X17494Y13193*
X17421Y13249*
X17335Y13284*
X17294Y13289*
G37*
G36*
X7293Y13496D02*
X7251Y13491D01*
X7166Y13455*
X7093Y13399*
X7037Y13326*
X7002Y13241*
X6996Y13200*
X7293*
Y13496*
G37*
G36*
X8652Y13486D02*
Y13190D01*
X8949*
X8943Y13231*
X8908Y13316*
X8852Y13389*
X8779Y13445*
X8694Y13481*
X8652Y13486*
G37*
G36*
X18365Y11724D02*
X18324Y11719D01*
X18239Y11684*
X18166Y11628*
X18110Y11554*
X18074Y11469*
X18069Y11428*
X18365*
Y11724*
G37*
G36*
X1056Y8325D02*
X1003Y8318D01*
X907Y8278*
X824Y8215*
X761Y8132*
X721Y8036*
X714Y7983*
X1056*
Y8325*
G37*
G36*
X18850Y8090D02*
X18554D01*
Y7793*
X18595Y7799*
X18680Y7834*
X18754Y7890*
X18810Y7963*
X18845Y8048*
X18850Y8090*
G37*
G36*
X1156Y8325D02*
Y7983D01*
X1498*
X1491Y8036*
X1452Y8132*
X1388Y8215*
X1306Y8278*
X1209Y8318*
X1156Y8325*
G37*
G36*
X18554Y8486D02*
Y8190D01*
X18850*
X18845Y8231*
X18810Y8316*
X18754Y8389*
X18680Y8445*
X18595Y8481*
X18554Y8486*
G37*
G36*
X18454D02*
X18413Y8481D01*
X18327Y8445*
X18254Y8389*
X18198Y8316*
X18163Y8231*
X18158Y8190*
X18454*
Y8486*
G37*
G36*
Y8090D02*
X18158D01*
X18163Y8048*
X18198Y7963*
X18254Y7890*
X18327Y7834*
X18413Y7799*
X18454Y7793*
Y8090*
G37*
G36*
X8515Y7305D02*
Y7009D01*
X8811*
X8806Y7050*
X8770Y7135*
X8714Y7208*
X8641Y7264*
X8556Y7300*
X8515Y7305*
G37*
G36*
X8415D02*
X8373Y7300D01*
X8288Y7264*
X8215Y7208*
X8159Y7135*
X8124Y7050*
X8118Y7009*
X8415*
Y7305*
G37*
G36*
X1056Y7883D02*
X714D01*
X721Y7830*
X761Y7734*
X824Y7651*
X907Y7588*
X1003Y7548*
X1056Y7541*
Y7883*
G37*
G36*
X2106Y8302D02*
X2011Y8289D01*
X1922Y8252*
X1846Y8194*
X1787Y8117*
X1750Y8028*
X1738Y7933*
X1750Y7838*
X1787Y7749*
X1846Y7673*
X1922Y7614*
X2011Y7577*
X2106Y7565*
X2202Y7577*
X2291Y7614*
X2367Y7673*
X2425Y7749*
X2462Y7838*
X2475Y7933*
X2462Y8028*
X2425Y8117*
X2367Y8194*
X2291Y8252*
X2202Y8289*
X2106Y8302*
G37*
G36*
X1498Y7883D02*
X1156D01*
Y7541*
X1209Y7548*
X1306Y7588*
X1388Y7651*
X1452Y7734*
X1491Y7830*
X1498Y7883*
G37*
G36*
X18365Y11328D02*
X18069D01*
X18074Y11287*
X18110Y11201*
X18166Y11128*
X18239Y11072*
X18324Y11037*
X18365Y11032*
Y11328*
G37*
G36*
X6467Y10396D02*
Y10099D01*
X6764*
X6758Y10141*
X6723Y10226*
X6667Y10299*
X6594Y10355*
X6509Y10390*
X6467Y10396*
G37*
G36*
X18762Y11328D02*
X18465D01*
Y11032*
X18507Y11037*
X18592Y11072*
X18665Y11128*
X18721Y11201*
X18756Y11287*
X18762Y11328*
G37*
G36*
X9470Y11387D02*
X9174D01*
Y11091*
X9215Y11096*
X9301Y11131*
X9374Y11187*
X9430Y11260*
X9465Y11346*
X9470Y11387*
G37*
G36*
X9074D02*
X8778D01*
X8783Y11346*
X8818Y11260*
X8874Y11187*
X8948Y11131*
X9033Y11096*
X9074Y11091*
Y11387*
G37*
G36*
X6367Y10396D02*
X6326Y10390D01*
X6241Y10355*
X6168Y10299*
X6112Y10226*
X6076Y10141*
X6071Y10099*
X6367*
Y10396*
G37*
G36*
X1565Y10024D02*
X679D01*
X632Y10015*
X593Y9988*
X248Y9644*
X222Y9604*
X212Y9557*
Y5463*
X222Y5416*
X248Y5376*
X462Y5162*
X446Y5123*
X435Y5039*
X446Y4956*
X478Y4878*
X530Y4811*
X597Y4760*
X674Y4728*
X758Y4717*
X841Y4728*
X919Y4760*
X986Y4811*
X1037Y4878*
X1054Y4917*
X2047*
X2094Y4926*
X2134Y4953*
X3637Y6456*
X3676Y6440*
X3760Y6429*
X3843Y6440*
X3921Y6472*
X3988Y6524*
X4039Y6591*
X4072Y6668*
X4083Y6752*
X4072Y6836*
X4039Y6913*
X3988Y6980*
X3921Y7031*
X3843Y7064*
X3760Y7075*
X3676Y7064*
X3598Y7031*
X3532Y6980*
X3480Y6913*
X3448Y6836*
X3437Y6752*
X3448Y6668*
X3464Y6629*
X1997Y5162*
X1054*
X1037Y5201*
X986Y5268*
X919Y5319*
X841Y5351*
X758Y5362*
X674Y5351*
X635Y5335*
X457Y5513*
Y9506*
X730Y9779*
X1514*
X1970Y9324*
X1962Y9269*
X1922Y9252*
X1846Y9194*
X1787Y9117*
X1750Y9028*
X1738Y8933*
X1750Y8838*
X1787Y8749*
X1846Y8673*
X1922Y8614*
X2011Y8577*
X2106Y8565*
X2202Y8577*
X2291Y8614*
X2367Y8673*
X2425Y8749*
X2462Y8838*
X2475Y8933*
X2462Y9028*
X2425Y9117*
X2367Y9194*
X2291Y9252*
X2229Y9278*
Y9360*
X2219Y9407*
X2193Y9447*
X1651Y9988*
X1612Y10015*
X1565Y10024*
G37*
G36*
X15571Y14644D02*
X15487Y14633D01*
X15409Y14600*
X15343Y14549*
X15291Y14482*
X15259Y14404*
X15248Y14321*
X15259Y14237*
X15291Y14159*
X15343Y14093*
X15409Y14041*
X15487Y14009*
X15571Y13998*
X15654Y14009*
X15732Y14041*
X15799Y14093*
X15850Y14159*
X15867Y14199*
X16603*
X18145Y12656*
Y12274*
X18155Y12227*
X18181Y12187*
X19159Y11209*
Y9095*
X19120Y9079*
X19053Y9027*
X19002Y8961*
X18970Y8883*
X18959Y8799*
X18970Y8716*
X19002Y8638*
X19053Y8571*
X19120Y8520*
X19198Y8487*
X19282Y8476*
X19365Y8487*
X19443Y8520*
X19510Y8571*
X19561Y8638*
X19593Y8716*
X19604Y8799*
X19593Y8883*
X19561Y8961*
X19510Y9027*
X19443Y9079*
X19404Y9095*
Y11260*
X19395Y11307*
X19368Y11346*
X18390Y12324*
Y12707*
X18381Y12754*
X18354Y12793*
X16740Y14407*
X16700Y14434*
X16654Y14443*
X15867*
X15850Y14482*
X15799Y14549*
X15732Y14600*
X15654Y14633*
X15571Y14644*
G37*
G36*
X1472Y9298D02*
X741D01*
Y8568*
X1472*
Y9298*
G37*
G36*
X6764Y9999D02*
X6467D01*
Y9703*
X6509Y9708*
X6594Y9743*
X6667Y9800*
X6723Y9873*
X6758Y9958*
X6764Y9999*
G37*
G36*
X6367D02*
X6071D01*
X6076Y9958*
X6112Y9873*
X6168Y9800*
X6241Y9743*
X6326Y9708*
X6367Y9703*
Y9999*
G37*
%LNapdet-3*%
%LPD*%
G54D20*
X11693Y6939D02*
X12864Y5768D01*
X14035Y4350D02*
Y5463D01*
X9843Y11358D02*
X10295D01*
X12116Y9537*
X10532Y11811D02*
X12461Y9882D01*
Y8484D02*
Y9882D01*
Y8484D02*
X15030Y5915D01*
Y5266D02*
Y5915D01*
Y5266D02*
X15581Y4715D01*
X14734Y3986D02*
X15620Y3100D01*
X14734Y3986D02*
Y5541D01*
X12116Y8159D02*
X14734Y5541D01*
X12116Y8159D02*
Y9537D01*
X6516Y10886D02*
X6713Y10689D01*
X10167*
X11693Y9163*
X9476Y1594D02*
X17539D01*
X8984Y2087D02*
X9476Y1594D01*
X10463Y6348D02*
Y8642D01*
Y6348D02*
X12530Y4281D01*
X10969Y3071D02*
X12756D01*
X9984Y2087D02*
X10969Y3071D01*
X7175Y10207D02*
X9744D01*
X11240Y8711*
X2106Y8933D02*
Y9360D01*
X335Y5463D02*
X758Y5039D01*
X1565Y9902D02*
X2106Y9360D01*
X335Y5463D02*
Y9557D01*
X679Y9902*
X1565*
X2047Y5039D02*
X3760Y6752D01*
X758Y5039D02*
X2047D01*
X12864Y5768D02*
Y5935D01*
X11693Y6939D02*
Y9163D01*
X12589Y5118D02*
X13346D01*
X11240Y6467D02*
Y8711D01*
Y6467D02*
X12589Y5118D01*
X12756Y3071D02*
X14035Y4350D01*
X18268Y12274D02*
X19282Y11260D01*
Y8799D02*
Y11260D01*
X15571Y14321D02*
X16654D01*
X18268Y12707*
Y12274D02*
Y12707D01*
X7992Y12953D02*
Y13406D01*
Y12953D02*
X8337Y12608D01*
X10541*
G54D22*
X6984Y1087D03*
Y2087D03*
X7984Y1087D03*
Y2087D03*
X8984Y1087D03*
Y2087D03*
X9984Y1087D03*
Y2087D03*
X10984Y1087D03*
Y2087D03*
X11984Y1087D03*
Y2087D03*
X12984Y1087D03*
Y2087D03*
X13984Y1087D03*
Y2087D03*
X14984Y1087D03*
Y2087D03*
X15984Y1087D03*
X2106Y8933D03*
X1106Y7933D03*
X2106D03*
X1106Y6933D03*
X2106D03*
G54D23*
X15984Y2087D03*
G54D24*
X1106Y8933D03*
G54D25*
X21102Y1496D03*
X1378Y1378D03*
Y21260D03*
G54D26*
X14035Y5463D03*
X12530Y13711D03*
X15571Y14321D03*
X19282Y8799D03*
X18504Y8140D03*
X18415Y11378D03*
X17244Y12943D03*
X9843Y11358D03*
X15581Y4715D03*
X15807Y6240D03*
X15620Y3100D03*
X10532Y11811D03*
X6516Y10886D03*
X9124Y11437D03*
X6919Y11782D03*
X10236Y4094D03*
X17539Y1594D03*
X6417Y10049D03*
X10463Y8642D03*
X12530Y4281D03*
X7175Y10207D03*
X8465Y6959D03*
X758Y5039D03*
X3760Y6752D03*
X12864Y5935D03*
X13346Y5118D03*
X7343Y13150D03*
X8602Y13140D03*
X7992Y13406D03*
X10541Y12608D03*
M02*