%FSLAX24Y24*%
%MOIN*%
%SFA1B1*%

%IPPOS*%
%ADD20C,0.010000*%
%ADD27C,0.023600*%
%ADD28C,0.009800*%
%ADD29C,0.007900*%
%ADD30C,0.008000*%
%LNapdet-1*%
%LPD*%
G54D20*
X7551Y9854D02*
Y9929D01*
X7626*
Y9854*
X7551*
X7413Y11527D02*
Y11602D01*
X7488*
Y11527*
X7413*
G54D27*
X16526Y7854D02*
D01*
D01*
G75*
G03X16290I-118J0D01*
G74*G01*
D01*
G75*
G03X16526I118J0D01*
G74*G01*
X5837Y8022D02*
D01*
D01*
G75*
G03X5601I-118J0D01*
G74*G01*
D01*
G75*
G03X5837I118J0D01*
G74*G01*
G54D28*
X17362Y7283D02*
D01*
D01*
G75*
G03X17264I-49J0D01*
G74*G01*
D01*
G75*
G03X17362I49J0D01*
G74*G01*
X6262Y8927D02*
D01*
D01*
G75*
G03X6164I-49J0D01*
G74*G01*
D01*
G75*
G03X6262I49J0D01*
G74*G01*
G54D29*
X9085Y9774D02*
Y9872D01*
X8839D02*
X9085D01*
X11880Y12382D02*
X16801D01*
X11880Y7461D02*
X16801D01*
X11880D02*
Y12382D01*
X16801Y7461D02*
Y12382D01*
X4144Y8415D02*
X6112D01*
X4144Y7392D02*
X6112D01*
Y8415*
X4144Y7392D02*
Y8415D01*
X10266Y7254D02*
Y7569D01*
X9675Y7254D02*
Y7569D01*
X18199Y9222D02*
Y9537D01*
X18789Y9222D02*
Y9537D01*
X6484Y2587D02*
X15734D01*
X6484Y587D02*
X15734D01*
X16484*
Y2587*
X15734D02*
X16484D01*
X6484Y587D02*
Y2587D01*
X606Y6433D02*
X2606D01*
X606Y9433D02*
X2606D01*
Y6433D02*
Y9433D01*
X606Y6433D02*
Y9433D01*
Y6433D02*
Y8350D01*
X4970Y9764D02*
X5285D01*
X4970Y10354D02*
X5285D01*
X9085Y7736D02*
Y7825D01*
X8327Y7736D02*
X9085D01*
X7844D02*
X8327D01*
X7844D02*
Y7825D01*
Y9774D02*
Y9872D01*
X8317*
X8839*
X10915Y13386D02*
Y13058D01*
X10981Y12992*
X11112*
X11178Y13058*
Y13386*
X11309Y12992D02*
X11440D01*
X11375*
Y13386*
X11309Y13320*
X6798Y3238D02*
X6667D01*
X6732*
Y2910*
X6667Y2844*
X6601*
X6535Y2910*
X6929Y3238D02*
X7191D01*
X7060*
Y2844*
X7323D02*
Y3107D01*
X7454Y3238*
X7585Y3107*
Y2844*
Y3041*
X7323*
X7979Y3172D02*
X7913Y3238D01*
X7782*
X7716Y3172*
Y2910*
X7782Y2844*
X7913*
X7979Y2910*
Y3041*
X7847*
X8110Y2779D02*
X8372D01*
X8766Y2844D02*
X8503D01*
X8766Y3107*
Y3172*
X8700Y3238*
X8569*
X8503Y3172*
X8897D02*
X8962Y3238D01*
X9094*
X9159Y3172*
Y2910*
X9094Y2844*
X8962*
X8897Y2910*
Y3172*
X2868Y9315D02*
X3262D01*
Y9118*
X3196Y9053*
X3065*
X2999Y9118*
Y9315*
X2868Y8921D02*
Y8790D01*
Y8856*
X3262*
X3196Y8921*
X9006Y12530D02*
Y12792D01*
X9137Y12923*
X9268Y12792*
Y12530*
Y12726*
X9006*
X9399Y12530D02*
X9531D01*
X9465*
Y12923*
X9399Y12858*
X7569Y8376D02*
X7175D01*
Y8179*
X7241Y8114*
X7306*
X7372Y8179*
Y8376*
Y8179*
X7438Y8114*
X7503*
X7569Y8179*
Y8376*
X7175Y7982D02*
Y7851D01*
Y7917*
X7569*
X7503Y7982*
X9967Y6371D02*
X9902Y6437D01*
X9770*
X9705Y6371*
Y6109*
X9770Y6043*
X9902*
X9967Y6109*
X10098Y6043D02*
X10229D01*
X10164*
Y6437*
X10098Y6371*
X4701Y10958D02*
X4636Y11023D01*
X4505*
X4439Y10958*
Y10696*
X4505Y10630*
X4636*
X4701Y10696*
X5095Y10630D02*
X4833D01*
X5095Y10892*
Y10958*
X5029Y11023*
X4898*
X4833Y10958*
X18481Y10663D02*
X18415Y10728D01*
X18284*
X18218Y10663*
Y10400*
X18284Y10335*
X18415*
X18481Y10400*
X18874Y10663D02*
X18809Y10728D01*
X18678*
X18612Y10663*
Y10597*
X18678Y10531*
X18809*
X18874Y10466*
Y10400*
X18809Y10335*
X18678*
X18612Y10400*
X19006Y10335D02*
X19137D01*
X19071*
Y10728*
X19006Y10663*
X10098Y3130D02*
Y3523D01*
X10295*
X10361Y3458*
Y3327*
X10295Y3261*
X10098*
X10230D02*
X10361Y3130D01*
X10492D02*
X10623D01*
X10558*
Y3523*
X10492Y3458*
X7677Y5098D02*
Y5492D01*
X7874*
X7940Y5426*
Y5295*
X7874Y5230*
X7677*
X7808D02*
X7940Y5098D01*
X8333D02*
X8071D01*
X8333Y5361*
Y5426*
X8268Y5492*
X8136*
X8071Y5426*
X6614Y5108D02*
Y5502D01*
X6811*
X6877Y5436*
Y5305*
X6811Y5239*
X6614*
X6745D02*
X6877Y5108D01*
X7008Y5436D02*
X7073Y5502D01*
X7205*
X7270Y5436*
Y5371*
X7205Y5305*
X7139*
X7205*
X7270Y5239*
Y5174*
X7205Y5108*
X7073*
X7008Y5174*
X16526Y3839D02*
Y4232D01*
X16722*
X16788Y4167*
Y4035*
X16722Y3970*
X16526*
X16657D02*
X16788Y3839D01*
X17182Y4167D02*
X17116Y4232D01*
X16985*
X16919Y4167*
Y4101*
X16985Y4035*
X17116*
X17182Y3970*
Y3904*
X17116Y3839*
X16985*
X16919Y3904*
X17313Y3839D02*
X17444D01*
X17378*
Y4232*
X17313Y4167*
X16506Y5128D02*
Y5522D01*
X16703*
X16768Y5456*
Y5325*
X16703Y5259*
X16506*
X16637D02*
X16768Y5128D01*
X17162Y5456D02*
X17096Y5522D01*
X16965*
X16899Y5456*
Y5390*
X16965Y5325*
X17096*
X17162Y5259*
Y5194*
X17096Y5128*
X16965*
X16899Y5194*
X17555Y5128D02*
X17293D01*
X17555Y5390*
Y5456*
X17490Y5522*
X17359*
X17293Y5456*
X9281Y4990D02*
Y5384D01*
X9478*
X9544Y5318*
Y5187*
X9478Y5121*
X9281*
X9413D02*
X9544Y4990D01*
X9872D02*
Y5384D01*
X9675Y5187*
X9937*
X11693Y4764D02*
Y5157D01*
X11890*
X11955Y5092*
Y4961*
X11890Y4895*
X11693*
X11824D02*
X11955Y4764D01*
X12349Y5157D02*
X12086D01*
Y4961*
X12218Y5026*
X12283*
X12349Y4961*
Y4829*
X12283Y4764*
X12152*
X12086Y4829*
X8474Y3848D02*
Y4242D01*
X8671*
X8737Y4176*
Y4045*
X8671Y3980*
X8474*
X8606D02*
X8737Y3848D01*
X9130Y4242D02*
X8999Y4176D01*
X8868Y4045*
Y3914*
X8934Y3848*
X9065*
X9130Y3914*
Y3980*
X9065Y4045*
X8868*
X13294Y4124D02*
Y4518D01*
X13491*
X13556Y4452*
Y4321*
X13491Y4255*
X13294*
X13425D02*
X13556Y4124D01*
X13688Y4518D02*
X13950D01*
Y4452*
X13688Y4190*
Y4124*
X14282D02*
Y4518D01*
X14478*
X14544Y4452*
Y4321*
X14478Y4255*
X14282*
X14413D02*
X14544Y4124D01*
X14675Y4452D02*
X14741Y4518D01*
X14872*
X14937Y4452*
Y4386*
X14872Y4321*
X14937Y4255*
Y4190*
X14872Y4124*
X14741*
X14675Y4190*
Y4255*
X14741Y4321*
X14675Y4386*
Y4452*
X14741Y4321D02*
X14872D01*
G54D30*
X17072Y821D02*
X16772D01*
X17072Y1121*
Y1196*
X16997Y1271*
X16847*
X16772Y1196*
X16831Y1874D02*
X16981D01*
X16906*
Y2324*
X16831Y2249*
X5581Y1884D02*
X5731D01*
X5656*
Y2334*
X5581Y2259*
X5956Y1959D02*
X6031Y1884D01*
X6181*
X6255Y1959*
Y2259*
X6181Y2334*
X6031*
X5956Y2259*
Y2184*
X6031Y2109*
X6255*
X5841Y801D02*
X5541D01*
X5841Y1101*
Y1176*
X5766Y1251*
X5616*
X5541Y1176*
X5991D02*
X6066Y1251D01*
X6216*
X6291Y1176*
Y876*
X6216Y801*
X6066*
X5991Y876*
Y1176*
X2353Y5934D02*
X2278Y6084D01*
X2128Y6234*
X1979*
X1904Y6159*
Y6009*
X1979Y5934*
X2053*
X2128Y6009*
Y6234*
X1359Y5915D02*
Y6215D01*
X1134*
X1209Y6065*
Y5990*
X1134Y5915*
X984*
X909Y5990*
Y6140*
X984Y6215*
X1904Y9645D02*
Y9945D01*
X2203Y9645*
X2278*
X2353Y9720*
Y9870*
X2278Y9945*
X909Y9787D02*
Y9637D01*
Y9712*
X1359*
X1284Y9787*
M02*