%FSLAX24Y24*%
%MOIN*%
%SFA1B1*%

%IPPOS*%
%ADD41C,0.067100*%
%ADD42R,0.067100X0.067100*%
%ADD43R,0.067100X0.067100*%
%ADD44C,0.204900*%
%ADD45C,0.058000*%
%LNapdet-1*%
%LPD*%
G54D41*
X6984Y1087D03*
Y2087D03*
X7984Y1087D03*
Y2087D03*
X8984Y1087D03*
Y2087D03*
X9984Y1087D03*
Y2087D03*
X10984Y1087D03*
Y2087D03*
X11984Y1087D03*
Y2087D03*
X12984Y1087D03*
Y2087D03*
X13984Y1087D03*
Y2087D03*
X14984Y1087D03*
Y2087D03*
X15984Y1087D03*
X2106Y8933D03*
X1106Y7933D03*
X2106D03*
X1106Y6933D03*
X2106D03*
G54D42*
X15984Y2087D03*
G54D43*
X1106Y8933D03*
G54D44*
X21102Y1496D03*
X1378Y1378D03*
Y21260D03*
G54D45*
X14035Y5463D03*
X12530Y13711D03*
X15571Y14321D03*
X19282Y8799D03*
X18504Y8140D03*
X18415Y11378D03*
X17244Y12943D03*
X9843Y11358D03*
X15581Y4715D03*
X15807Y6240D03*
X15620Y3100D03*
X10532Y11811D03*
X6516Y10886D03*
X9124Y11437D03*
X6919Y11782D03*
X10236Y4094D03*
X17539Y1594D03*
X6417Y10049D03*
X10463Y8642D03*
X12530Y4281D03*
X7175Y10207D03*
X8465Y6959D03*
X758Y5039D03*
X3760Y6752D03*
X12864Y5935D03*
X13346Y5118D03*
X7343Y13150D03*
X8602Y13140D03*
X7992Y13406D03*
X10541Y12608D03*
M02*