%FSLAX24Y24*%
%MOIN*%
%SFA1B1*%

%IPPOS*%
%ADD10R,0.035400X0.027600*%
%ADD11R,0.027600X0.035400*%
%ADD12R,0.043300X0.066900*%
%ADD13R,0.066900X0.043300*%
%ADD14O,0.023600X0.070900*%
%ADD15O,0.070900X0.011800*%
%ADD16O,0.011800X0.070900*%
%ADD17R,0.043300X0.023600*%
%ADD18R,0.009800X0.013800*%
%ADD19R,0.013800X0.009800*%
%LNapdet-1*%
%LPD*%
G54D10*
X14793Y3661D03*
Y3071D03*
X12343Y3632D03*
Y3041D03*
X9449Y3691D03*
Y4281D03*
X13455Y3652D03*
Y3061D03*
X6939Y4695D03*
Y4104D03*
X10965Y4400D03*
Y3809D03*
X7923Y4705D03*
Y4114D03*
G54D11*
X10965Y5157D03*
X10374D03*
X15581Y5335D03*
X16171D03*
X15591Y4045D03*
X16181D03*
G54D12*
X4596Y10059D03*
X5659D03*
G54D13*
X9970Y6880D03*
Y7943D03*
X18494Y9911D03*
Y8848D03*
G54D14*
X4378Y6880D03*
X4878D03*
X5378D03*
X5878D03*
X4378Y8927D03*
X4878D03*
X5378D03*
X5878D03*
G54D15*
X17313Y7559D03*
Y7756D03*
Y7953D03*
Y8150D03*
Y8346D03*
Y8543D03*
Y8740D03*
Y8937D03*
Y9134D03*
Y9331D03*
Y9528D03*
Y9724D03*
Y9921D03*
Y10118D03*
Y10315D03*
Y10512D03*
Y10709D03*
Y10906D03*
Y11102D03*
Y11299D03*
Y11496D03*
Y11693D03*
Y11890D03*
Y12087D03*
Y12283D03*
X11368D03*
Y12087D03*
Y11890D03*
Y11693D03*
Y11496D03*
Y11299D03*
Y11102D03*
Y10906D03*
Y10709D03*
Y10512D03*
Y10315D03*
Y10118D03*
Y9921D03*
Y9724D03*
Y9528D03*
Y9331D03*
Y9134D03*
Y8937D03*
Y8740D03*
Y8543D03*
Y8346D03*
Y8150D03*
Y7953D03*
Y7756D03*
Y7559D03*
G54D16*
X16703Y12894D03*
X16506D03*
X16309D03*
X16112D03*
X15915D03*
X15719D03*
X15522D03*
X15325D03*
X15128D03*
X14931D03*
X14734D03*
X14537D03*
X14341D03*
X14144D03*
X13947D03*
X13750D03*
X13553D03*
X13356D03*
X13159D03*
X12963D03*
X12766D03*
X12569D03*
X12372D03*
X12175D03*
X11978D03*
Y6949D03*
X12175D03*
X12372D03*
X12569D03*
X12766D03*
X12963D03*
X13159D03*
X13356D03*
X13553D03*
X13750D03*
X13947D03*
X14144D03*
X14341D03*
X14537D03*
X14734D03*
X14931D03*
X15128D03*
X15325D03*
X15522D03*
X15719D03*
X15915D03*
X16112D03*
X16309D03*
X16506D03*
X16703D03*
G54D17*
X8022Y9537D03*
Y9045D03*
Y8553D03*
Y8061D03*
X8888D03*
Y8553D03*
Y9045D03*
Y9537D03*
G54D18*
X7726Y11703D03*
X7923D03*
X8120D03*
X8317D03*
X8514D03*
Y12667D03*
X8317D03*
X8120D03*
X7923D03*
X7726D03*
G54D19*
X8602Y11988D03*
Y12185D03*
Y12382D03*
X7638D03*
Y12185D03*
Y11988D03*
M02*