M48
;Layer_Color=9474304
;FILE_FORMAT=2:4
INCH,TZ
;TYPE=PLATED
T1F00S00C0.0280
T2F00S00C0.0354
T3F00S00C0.1358
%
T01
X10236Y4094
X12530Y4281
X15581Y4715
X15620Y3100
X17539Y1594
X3760Y6752
X758Y5039
X6417Y10049
X7175Y10207
X6516Y10886
X6919Y11782
X7343Y13150
X7992Y13406
X8602Y13140
X9124Y11437
X9843Y11358
X10532Y11811
X10541Y12608
X12530Y13711
X15571Y14321
X17244Y12943
X18415Y11378
X18504Y8140
X19282Y8799
X15807Y6240
X14035Y5463
X13346Y5118
X12864Y5935
X10463Y8642
X8465Y6959
T02
X7984Y1087
Y2087
X8984
Y1087
X9984
Y2087
X10984
Y1087
X11984
Y2087
X12984
Y1087
X13984
Y2087
X14984
Y1087
X15984
Y2087
X6984
Y1087
X2106Y6933
Y7933
Y8933
X1106
Y7933
Y6933
T03
X21102Y1496
X1378Y1378
Y21260
M30
