%FSLAX24Y24*%
%MOIN*%
%SFA1B1*%

%IPPOS*%
%ADD24C,0.009840*%
%ADD26C,0.059060*%
%ADD27R,0.059060X0.059060*%
%ADD28R,0.059060X0.059060*%
%ADD29C,0.039370*%
%ADD30C,0.049210*%
%ADD31C,0.196850*%
%LNdeploy-1*%
%LPD*%
G36*
X1390Y23585D02*
X2315Y23512D01*
X3237Y23403*
X4153Y23258*
X5063Y23077*
X5965Y22861*
X6858Y22609*
X7740Y22322*
X8611Y22001*
X9468Y21646*
X10310Y21258*
X11137Y20836*
X11947Y20383*
X12738Y19898*
X13509Y19383*
X14260Y18838*
X14988Y18263*
X15694Y17661*
X16375Y17031*
X17031Y16375*
X17661Y15694*
X18263Y14988*
X18838Y14260*
X19383Y13509*
X19898Y12738*
X20383Y11947*
X20836Y11137*
X21258Y10310*
X21646Y9468*
X22001Y8611*
X22322Y7740*
X22609Y6858*
X22861Y5965*
X23077Y5063*
X23258Y4153*
X23403Y3237*
X23512Y2315*
X23585Y1390*
X23622Y463*
X23622Y0*
X0*
Y23622*
X463*
X1390Y23585*
G37*
%LNdeploy-2*%
%LPC*%
G36*
X8057Y1178D02*
Y836D01*
X8398*
X8391Y890*
X8351Y986*
X8288Y1068*
X8206Y1131*
X8110Y1171*
X8057Y1178*
G37*
G36*
X6057D02*
Y836D01*
X6398*
X6391Y890*
X6351Y986*
X6288Y1068*
X6206Y1131*
X6110Y1171*
X6057Y1178*
G37*
G36*
X3057D02*
Y836D01*
X3398*
X3391Y890*
X3351Y986*
X3288Y1068*
X3206Y1131*
X3110Y1171*
X3057Y1178*
G37*
G36*
X11057D02*
Y836D01*
X11398*
X11391Y890*
X11351Y986*
X11288Y1068*
X11206Y1131*
X11110Y1171*
X11057Y1178*
G37*
G36*
X7057D02*
Y836D01*
X7398*
X7391Y890*
X7351Y986*
X7288Y1068*
X7206Y1131*
X7110Y1171*
X7057Y1178*
G37*
G36*
X10057D02*
Y836D01*
X10398*
X10391Y890*
X10351Y986*
X10288Y1068*
X10206Y1131*
X10110Y1171*
X10057Y1178*
G37*
G36*
X9057D02*
Y836D01*
X9398*
X9391Y890*
X9351Y986*
X9288Y1068*
X9206Y1131*
X9110Y1171*
X9057Y1178*
G37*
G36*
X6958D02*
X6905Y1171D01*
X6809Y1131*
X6727Y1068*
X6664Y986*
X6624Y890*
X6617Y836*
X6958*
Y1178*
G37*
G36*
X2958D02*
X2905Y1171D01*
X2809Y1131*
X2727Y1068*
X2664Y986*
X2624Y890*
X2617Y836*
X2958*
Y1178*
G37*
G36*
X9958D02*
X9905Y1171D01*
X9809Y1131*
X9727Y1068*
X9664Y986*
X9624Y890*
X9617Y836*
X9958*
Y1178*
G37*
G36*
X5057D02*
Y836D01*
X5398*
X5391Y890*
X5351Y986*
X5288Y1068*
X5206Y1131*
X5110Y1171*
X5057Y1178*
G37*
G36*
X4057D02*
Y836D01*
X4398*
X4391Y890*
X4351Y986*
X4288Y1068*
X4206Y1131*
X4110Y1171*
X4057Y1178*
G37*
G36*
X10958D02*
X10905Y1171D01*
X10809Y1131*
X10727Y1068*
X10664Y986*
X10624Y890*
X10617Y836*
X10958*
Y1178*
G37*
G36*
X3834Y4281D02*
X3592D01*
Y4039*
X3620Y4043*
X3692Y4072*
X3753Y4120*
X3801Y4181*
X3831Y4253*
X3834Y4281*
G37*
G36*
X3494D02*
X3252D01*
X3255Y4253*
X3285Y4181*
X3332Y4120*
X3394Y4072*
X3466Y4043*
X3494Y4039*
Y4281*
G37*
G36*
X12992Y3673D02*
X6888D01*
X6838Y3663*
X6796Y3635*
X6773Y3612*
X6764Y3616*
X6692Y3625*
X6621Y3616*
X6553Y3588*
X6496Y3544*
X6452Y3486*
X6424Y3419*
X6414Y3347*
X6424Y3275*
X6428Y3267*
X5915Y2755*
X5887Y2712*
X5877Y2662*
Y2138*
X5819Y2114*
X5741Y2054*
X5681Y1976*
X5643Y1885*
X5630Y1787*
X5643Y1689*
X5681Y1598*
X5741Y1520*
X5819Y1460*
X5910Y1423*
X6007Y1410*
X6105Y1423*
X6196Y1460*
X6274Y1520*
X6334Y1598*
X6372Y1689*
X6385Y1787*
X6372Y1885*
X6334Y1976*
X6274Y2054*
X6196Y2114*
X6138Y2138*
Y2608*
X6612Y3082*
X6621Y3079*
X6692Y3069*
X6764Y3079*
X6831Y3107*
X6889Y3151*
X6933Y3208*
X6961Y3275*
X6970Y3347*
X6967Y3375*
X7000Y3412*
X12938*
X13095Y3255*
X13092Y3205*
X13071Y3188*
X13027Y3131*
X12999Y3064*
X12989Y2992*
X12999Y2920*
X13027Y2853*
X13071Y2795*
X13128Y2751*
X13195Y2723*
X13267Y2714*
X13339Y2723*
X13406Y2751*
X13464Y2795*
X13508Y2853*
X13536Y2920*
X13545Y2992*
X13536Y3064*
X13508Y3131*
X13464Y3188*
X13406Y3232*
X13398Y3236*
Y3267*
X13388Y3317*
X13360Y3360*
X13084Y3635*
X13042Y3663*
X13033Y3665*
X12992Y3673*
G37*
G36*
X8179Y6210D02*
X7937D01*
X7940Y6182*
X7970Y6110*
X8017Y6049*
X8079Y6001*
X8151Y5972*
X8179Y5968*
Y6210*
G37*
G36*
X3592Y4622D02*
Y4379D01*
X3834*
X3831Y4407*
X3801Y4479*
X3753Y4541*
X3692Y4588*
X3620Y4618*
X3592Y4622*
G37*
G36*
X3494D02*
X3466Y4618D01*
X3394Y4588*
X3332Y4541*
X3285Y4479*
X3255Y4407*
X3252Y4379*
X3494*
Y4622*
G37*
G36*
X1915Y3100D02*
X1624D01*
Y2808*
X1664Y2814*
X1748Y2848*
X1820Y2903*
X1875Y2975*
X1910Y3059*
X1915Y3100*
G37*
G36*
X5007Y2164D02*
X4910Y2151D01*
X4819Y2114*
X4741Y2054*
X4681Y1976*
X4643Y1885*
X4630Y1787*
X4643Y1689*
X4681Y1598*
X4741Y1520*
X4819Y1460*
X4910Y1423*
X5007Y1410*
X5105Y1423*
X5196Y1460*
X5274Y1520*
X5334Y1598*
X5372Y1689*
X5385Y1787*
X5372Y1885*
X5334Y1976*
X5274Y2054*
X5196Y2114*
X5105Y2151*
X5007Y2164*
G37*
G36*
X4007D02*
X3910Y2151D01*
X3819Y2114*
X3741Y2054*
X3681Y1976*
X3643Y1885*
X3630Y1787*
X3643Y1689*
X3681Y1598*
X3741Y1520*
X3819Y1460*
X3910Y1423*
X4007Y1410*
X4105Y1423*
X4196Y1460*
X4274Y1520*
X4334Y1598*
X4372Y1689*
X4385Y1787*
X4372Y1885*
X4334Y1976*
X4274Y2054*
X4196Y2114*
X4105Y2151*
X4007Y2164*
G37*
G36*
X3007D02*
X2910Y2151D01*
X2819Y2114*
X2741Y2054*
X2681Y1976*
X2643Y1885*
X2630Y1787*
X2643Y1689*
X2681Y1598*
X2741Y1520*
X2819Y1460*
X2910Y1423*
X3007Y1410*
X3105Y1423*
X3196Y1460*
X3274Y1520*
X3334Y1598*
X3372Y1689*
X3385Y1787*
X3372Y1885*
X3334Y1976*
X3274Y2054*
X3196Y2114*
X3105Y2151*
X3007Y2164*
G37*
G36*
X1525Y3100D02*
X1233D01*
X1239Y3059*
X1273Y2975*
X1329Y2903*
X1401Y2848*
X1484Y2814*
X1525Y2808*
Y3100*
G37*
G36*
X12480Y3270D02*
X12408Y3260D01*
X12341Y3232*
X12283Y3188*
X12239Y3131*
X12211Y3064*
X12202Y2992*
X12211Y2920*
X12215Y2911*
X11993Y2689*
X11884*
X11867Y2739*
X11889Y2756*
X11933Y2813*
X11961Y2880*
X11970Y2952*
X11961Y3024*
X11933Y3091*
X11889Y3149*
X11831Y3193*
X11764Y3221*
X11692Y3230*
X11621Y3221*
X11553Y3193*
X11496Y3149*
X11452Y3091*
X11448Y3083*
X8622*
X8572Y3073*
X8529Y3045*
X7915Y2430*
X7887Y2388*
X7877Y2338*
Y2138*
X7819Y2114*
X7741Y2054*
X7681Y1976*
X7643Y1885*
X7630Y1787*
X7643Y1689*
X7681Y1598*
X7741Y1520*
X7819Y1460*
X7910Y1423*
X8007Y1410*
X8105Y1423*
X8196Y1460*
X8274Y1520*
X8334Y1598*
X8372Y1689*
X8385Y1787*
X8372Y1885*
X8334Y1976*
X8274Y2054*
X8196Y2114*
X8138Y2138*
Y2284*
X8676Y2822*
X11448*
X11452Y2813*
X11496Y2756*
X11518Y2739*
X11501Y2689*
X9330*
X9280Y2679*
X9238Y2651*
X8915Y2328*
X8887Y2286*
X8877Y2236*
Y2138*
X8819Y2114*
X8741Y2054*
X8681Y1976*
X8643Y1885*
X8630Y1787*
X8643Y1689*
X8681Y1598*
X8741Y1520*
X8819Y1460*
X8910Y1423*
X9007Y1410*
X9105Y1423*
X9196Y1460*
X9274Y1520*
X9334Y1598*
X9372Y1689*
X9385Y1787*
X9372Y1885*
X9334Y1976*
X9274Y2054*
X9196Y2114*
X9145Y2135*
X9140Y2184*
X9384Y2428*
X10441*
X10461Y2378*
X10197Y2113*
X10196Y2114*
X10105Y2151*
X10007Y2164*
X9910Y2151*
X9819Y2114*
X9741Y2054*
X9681Y1976*
X9643Y1885*
X9630Y1787*
X9643Y1689*
X9681Y1598*
X9741Y1520*
X9819Y1460*
X9910Y1423*
X10007Y1410*
X10105Y1423*
X10196Y1460*
X10274Y1520*
X10334Y1598*
X10372Y1689*
X10385Y1787*
X10372Y1885*
X10362Y1909*
X10644Y2192*
X10877*
X10887Y2142*
X10819Y2114*
X10741Y2054*
X10681Y1976*
X10643Y1885*
X10630Y1787*
X10643Y1689*
X10681Y1598*
X10741Y1520*
X10819Y1460*
X10910Y1423*
X11007Y1410*
X11105Y1423*
X11196Y1460*
X11274Y1520*
X11334Y1598*
X11372Y1689*
X11385Y1787*
X11372Y1885*
X11334Y1976*
X11274Y2054*
X11196Y2114*
X11128Y2142*
X11138Y2192*
X11596*
X11633Y2161*
Y2142*
Y1413*
X12381*
Y2142*
Y2161*
X12419Y2192*
X13346*
X13396Y2202*
X13438Y2230*
X13895Y2687*
X13904Y2684*
X13976Y2674*
X14048Y2684*
X14115Y2712*
X14172Y2756*
X14217Y2813*
X14244Y2880*
X14254Y2952*
X14244Y3024*
X14217Y3091*
X14172Y3149*
X14115Y3193*
X14048Y3221*
X13976Y3230*
X13904Y3221*
X13837Y3193*
X13779Y3149*
X13735Y3091*
X13707Y3024*
X13698Y2952*
X13707Y2880*
X13711Y2872*
X13292Y2453*
X12196*
X12176Y2503*
X12399Y2727*
X12408Y2723*
X12480Y2714*
X12552Y2723*
X12619Y2751*
X12676Y2795*
X12721Y2853*
X12748Y2920*
X12758Y2992*
X12748Y3064*
X12721Y3131*
X12676Y3188*
X12619Y3232*
X12552Y3260*
X12480Y3270*
G37*
G36*
X7007Y2164D02*
X6910Y2151D01*
X6819Y2114*
X6741Y2054*
X6681Y1976*
X6643Y1885*
X6630Y1787*
X6643Y1689*
X6681Y1598*
X6741Y1520*
X6819Y1460*
X6910Y1423*
X7007Y1410*
X7105Y1423*
X7196Y1460*
X7274Y1520*
X7334Y1598*
X7372Y1689*
X7385Y1787*
X7372Y1885*
X7334Y1976*
X7274Y2054*
X7196Y2114*
X7105Y2151*
X7007Y2164*
G37*
G36*
X9958Y738D02*
X9617D01*
X9624Y684*
X9664Y588*
X9727Y506*
X9809Y443*
X9905Y403*
X9958Y396*
Y738*
G37*
G36*
X8958D02*
X8617D01*
X8624Y684*
X8664Y588*
X8727Y506*
X8809Y443*
X8905Y403*
X8958Y396*
Y738*
G37*
G36*
X7958D02*
X7617D01*
X7624Y684*
X7664Y588*
X7727Y506*
X7809Y443*
X7905Y403*
X7958Y396*
Y738*
G37*
G36*
X4398D02*
X4057D01*
Y396*
X4110Y403*
X4206Y443*
X4288Y506*
X4351Y588*
X4391Y684*
X4398Y738*
G37*
G36*
X3398D02*
X3057D01*
Y396*
X3110Y403*
X3206Y443*
X3288Y506*
X3351Y588*
X3391Y684*
X3398Y738*
G37*
G36*
X10958D02*
X10617D01*
X10624Y684*
X10664Y588*
X10727Y506*
X10809Y443*
X10905Y403*
X10958Y396*
Y738*
G37*
G36*
X6958D02*
X6617D01*
X6624Y684*
X6664Y588*
X6727Y506*
X6809Y443*
X6905Y403*
X6958Y396*
Y738*
G37*
G36*
X2958D02*
X2617D01*
X2624Y684*
X2664Y588*
X2727Y506*
X2809Y443*
X2905Y403*
X2958Y396*
Y738*
G37*
G36*
X22047Y2444D02*
X21880Y2431D01*
X21717Y2392*
X21563Y2328*
X21420Y2240*
X21293Y2131*
X21184Y2004*
X21097Y1862*
X21033Y1707*
X20994Y1544*
X20981Y1378*
X20994Y1211*
X21033Y1048*
X21097Y893*
X21184Y751*
X21293Y624*
X21420Y515*
X21563Y427*
X21717Y363*
X21880Y324*
X22047Y311*
X22214Y324*
X22376Y363*
X22531Y427*
X22674Y515*
X22801Y624*
X22909Y751*
X22997Y893*
X23061Y1048*
X23100Y1211*
X23113Y1378*
X23100Y1544*
X23061Y1707*
X22997Y1862*
X22909Y2004*
X22801Y2131*
X22674Y2240*
X22531Y2328*
X22376Y2392*
X22214Y2431*
X22047Y2444*
G37*
G36*
X1378D02*
X1211Y2431D01*
X1048Y2392*
X893Y2328*
X751Y2240*
X624Y2131*
X515Y2004*
X427Y1862*
X363Y1707*
X324Y1544*
X311Y1378*
X324Y1211*
X363Y1048*
X427Y893*
X515Y751*
X624Y624*
X751Y515*
X893Y427*
X1048Y363*
X1211Y324*
X1378Y311*
X1544Y324*
X1707Y363*
X1862Y427*
X2004Y515*
X2131Y624*
X2240Y751*
X2328Y893*
X2392Y1048*
X2431Y1211*
X2444Y1378*
X2431Y1544*
X2392Y1707*
X2328Y1862*
X2240Y2004*
X2131Y2131*
X2004Y2240*
X1862Y2328*
X1707Y2392*
X1544Y2431*
X1378Y2444*
G37*
G36*
X5958Y738D02*
X5617D01*
X5624Y684*
X5664Y588*
X5727Y506*
X5809Y443*
X5905Y403*
X5958Y396*
Y738*
G37*
G36*
X4958D02*
X4617D01*
X4624Y684*
X4664Y588*
X4727Y506*
X4809Y443*
X4905Y403*
X4958Y396*
Y738*
G37*
G36*
X3958D02*
X3617D01*
X3624Y684*
X3664Y588*
X3727Y506*
X3809Y443*
X3905Y403*
X3958Y396*
Y738*
G37*
G36*
X8958Y1178D02*
X8905Y1171D01*
X8809Y1131*
X8727Y1068*
X8664Y986*
X8624Y890*
X8617Y836*
X8958*
Y1178*
G37*
G36*
X4958D02*
X4905Y1171D01*
X4809Y1131*
X4727Y1068*
X4664Y986*
X4624Y890*
X4617Y836*
X4958*
Y1178*
G37*
G36*
X12007Y1164D02*
X11910Y1151D01*
X11819Y1114*
X11741Y1054*
X11681Y976*
X11643Y885*
X11630Y787*
X11643Y689*
X11681Y598*
X11741Y520*
X11819Y460*
X11910Y423*
X12007Y410*
X12105Y423*
X12196Y460*
X12274Y520*
X12334Y598*
X12372Y689*
X12385Y787*
X12372Y885*
X12334Y976*
X12274Y1054*
X12196Y1114*
X12105Y1151*
X12007Y1164*
G37*
G36*
X7958Y1178D02*
X7905Y1171D01*
X7809Y1131*
X7727Y1068*
X7664Y986*
X7624Y890*
X7617Y836*
X7958*
Y1178*
G37*
G36*
X5958D02*
X5905Y1171D01*
X5809Y1131*
X5727Y1068*
X5664Y986*
X5624Y890*
X5617Y836*
X5958*
Y1178*
G37*
G36*
X3958D02*
X3905Y1171D01*
X3809Y1131*
X3727Y1068*
X3664Y986*
X3624Y890*
X3617Y836*
X3958*
Y1178*
G37*
G36*
X11398Y738D02*
X11057D01*
Y396*
X11110Y403*
X11206Y443*
X11288Y506*
X11351Y588*
X11391Y684*
X11398Y738*
G37*
G36*
X7398D02*
X7057D01*
Y396*
X7110Y403*
X7206Y443*
X7288Y506*
X7351Y588*
X7391Y684*
X7398Y738*
G37*
G36*
X6398D02*
X6057D01*
Y396*
X6110Y403*
X6206Y443*
X6288Y506*
X6351Y588*
X6391Y684*
X6398Y738*
G37*
G36*
X5398D02*
X5057D01*
Y396*
X5110Y403*
X5206Y443*
X5288Y506*
X5351Y588*
X5391Y684*
X5398Y738*
G37*
G36*
X10398D02*
X10057D01*
Y396*
X10110Y403*
X10206Y443*
X10288Y506*
X10351Y588*
X10391Y684*
X10398Y738*
G37*
G36*
X9398D02*
X9057D01*
Y396*
X9110Y403*
X9206Y443*
X9288Y506*
X9351Y588*
X9391Y684*
X9398Y738*
G37*
G36*
X8398D02*
X8057D01*
Y396*
X8110Y403*
X8206Y443*
X8288Y506*
X8351Y588*
X8391Y684*
X8398Y738*
G37*
G36*
X9842Y15731D02*
X9744Y15718D01*
X9653Y15681*
X9575Y15621*
X9515Y15542*
X9478Y15452*
X9465Y15354*
X9478Y15256*
X9515Y15165*
X9575Y15087*
X9653Y15027*
X9744Y14989*
X9842Y14977*
X9940Y14989*
X10031Y15027*
X10109Y15087*
X10169Y15165*
X10206Y15256*
X10219Y15354*
X10206Y15452*
X10169Y15542*
X10109Y15621*
X10031Y15681*
X9940Y15718*
X9842Y15731*
G37*
G36*
X16433Y15108D02*
X16190D01*
Y14866*
X16218Y14869*
X16290Y14899*
X16352Y14946*
X16399Y15008*
X16429Y15080*
X16433Y15108*
G37*
G36*
X16092D02*
X15850D01*
X15854Y15080*
X15883Y15008*
X15931Y14946*
X15992Y14899*
X16064Y14869*
X16092Y14866*
Y15108*
G37*
G36*
X14419Y15448D02*
Y15206D01*
X14661*
X14657Y15234*
X14628Y15306*
X14580Y15368*
X14519Y15415*
X14447Y15445*
X14419Y15448*
G37*
G36*
X14320D02*
X14293Y15445D01*
X14221Y15415*
X14159Y15368*
X14112Y15306*
X14082Y15234*
X14078Y15206*
X14320*
Y15448*
G37*
G36*
X9216Y15728D02*
X8468D01*
Y14980*
X9216*
Y15728*
G37*
G36*
X14661Y15108D02*
X14419D01*
Y14866*
X14447Y14869*
X14519Y14899*
X14580Y14946*
X14628Y15008*
X14657Y15080*
X14661Y15108*
G37*
G36*
X4330Y14648D02*
X4258Y14638D01*
X4191Y14610*
X4134Y14566*
X4090Y14509*
X4062Y14442*
X4052Y14370*
X4062Y14298*
X4090Y14231*
X4134Y14173*
X4191Y14129*
X4258Y14101*
X4330Y14092*
X4402Y14101*
X4469Y14129*
X4527Y14173*
X4571Y14231*
X4599Y14298*
X4608Y14370*
X4599Y14442*
X4571Y14509*
X4527Y14566*
X4469Y14610*
X4402Y14638*
X4330Y14648*
G37*
G36*
X393D02*
X321Y14638D01*
X254Y14610*
X197Y14566*
X153Y14509*
X125Y14442*
X115Y14370*
X125Y14298*
X153Y14231*
X197Y14173*
X254Y14129*
X321Y14101*
X393Y14092*
X465Y14101*
X532Y14129*
X590Y14173*
X634Y14231*
X662Y14298*
X671Y14370*
X662Y14442*
X634Y14509*
X590Y14566*
X532Y14610*
X465Y14638*
X393Y14648*
G37*
G36*
X6118Y14084D02*
X5876D01*
Y13842*
X5903Y13846*
X5975Y13875*
X6037Y13923*
X6084Y13984*
X6114Y14056*
X6118Y14084*
G37*
G36*
X14320Y15108D02*
X14078D01*
X14082Y15080*
X14112Y15008*
X14159Y14946*
X14221Y14899*
X14293Y14869*
X14320Y14866*
Y15108*
G37*
G36*
X5876Y14425D02*
Y14183D01*
X6118*
X6114Y14210*
X6084Y14282*
X6037Y14344*
X5975Y14391*
X5903Y14421*
X5876Y14425*
G37*
G36*
X5777D02*
X5749Y14421D01*
X5677Y14391*
X5616Y14344*
X5568Y14282*
X5539Y14210*
X5535Y14183*
X5777*
Y14425*
G37*
G36*
X11269Y19189D02*
Y18946D01*
X11511*
X11508Y18974*
X11478Y19046*
X11431Y19108*
X11369Y19155*
X11297Y19185*
X11269Y19189*
G37*
G36*
X11171D02*
X11143Y19185D01*
X11071Y19155*
X11009Y19108*
X10962Y19046*
X10932Y18974*
X10929Y18946*
X11171*
Y19189*
G37*
G36*
X11511Y18848D02*
X11269D01*
Y18606*
X11297Y18610*
X11369Y18639*
X11431Y18687*
X11478Y18748*
X11508Y18820*
X11511Y18848*
G37*
G36*
X1378Y23113D02*
X1211Y23100D01*
X1048Y23061*
X893Y22997*
X751Y22909*
X624Y22801*
X515Y22674*
X427Y22531*
X363Y22376*
X324Y22214*
X311Y22047*
X324Y21880*
X363Y21717*
X427Y21563*
X515Y21420*
X624Y21293*
X751Y21184*
X893Y21097*
X1048Y21033*
X1211Y20994*
X1378Y20981*
X1544Y20994*
X1707Y21033*
X1862Y21097*
X2004Y21184*
X2131Y21293*
X2240Y21420*
X2328Y21563*
X2392Y21717*
X2431Y21880*
X2444Y22047*
X2431Y22214*
X2392Y22376*
X2328Y22531*
X2240Y22674*
X2131Y22801*
X2004Y22909*
X1862Y22997*
X1707Y23061*
X1544Y23100*
X1378Y23113*
G37*
G36*
X7082Y21043D02*
X6334D01*
Y20295*
X7082*
Y21043*
G37*
G36*
X5708Y21046D02*
X5611Y21033D01*
X5520Y20996*
X5441Y20936*
X5382Y20857*
X5344Y20766*
X5331Y20669*
X5344Y20571*
X5382Y20480*
X5441Y20402*
X5520Y20342*
X5611Y20304*
X5708Y20292*
X5806Y20304*
X5897Y20342*
X5975Y20402*
X6035Y20480*
X6073Y20571*
X6085Y20669*
X6073Y20766*
X6035Y20857*
X5975Y20936*
X5897Y20996*
X5806Y21033*
X5708Y21046*
G37*
G36*
X11171Y18848D02*
X10929D01*
X10932Y18820*
X10962Y18748*
X11009Y18687*
X11071Y18639*
X11143Y18610*
X11171Y18606*
Y18848*
G37*
G36*
X4281Y17076D02*
X4039D01*
X4043Y17048*
X4072Y16977*
X4120Y16915*
X4181Y16868*
X4253Y16838*
X4281Y16834*
Y17076*
G37*
G36*
X16190Y15448D02*
Y15206D01*
X16433*
X16429Y15234*
X16399Y15306*
X16352Y15368*
X16290Y15415*
X16218Y15445*
X16190Y15448*
G37*
G36*
X16092D02*
X16064Y15445D01*
X15992Y15415*
X15931Y15368*
X15883Y15306*
X15854Y15234*
X15850Y15206*
X16092*
Y15448*
G37*
G36*
X4379Y17417D02*
Y17175D01*
X4622*
X4618Y17203*
X4588Y17274*
X4541Y17336*
X4479Y17383*
X4407Y17413*
X4379Y17417*
G37*
G36*
X4281D02*
X4253Y17413D01*
X4181Y17383*
X4120Y17336*
X4072Y17274*
X4043Y17203*
X4039Y17175*
X4281*
Y17417*
G37*
G36*
X4622Y17076D02*
X4379D01*
Y16834*
X4407Y16838*
X4479Y16868*
X4541Y16915*
X4588Y16977*
X4618Y17048*
X4622Y17076*
G37*
G36*
X5777Y14084D02*
X5535D01*
X5539Y14056*
X5568Y13984*
X5616Y13923*
X5677Y13875*
X5749Y13846*
X5777Y13842*
Y14084*
G37*
G36*
X14320Y10383D02*
X14078D01*
X14082Y10356*
X14112Y10284*
X14159Y10222*
X14221Y10175*
X14293Y10145*
X14320Y10141*
Y10383*
G37*
G36*
X6545Y9346D02*
Y9104D01*
X6787*
X6783Y9132*
X6754Y9204*
X6706Y9265*
X6645Y9313*
X6573Y9342*
X6545Y9346*
G37*
G36*
X6446D02*
X6419Y9342D01*
X6347Y9313*
X6285Y9265*
X6238Y9204*
X6208Y9132*
X6204Y9104*
X6446*
Y9346*
G37*
G36*
X16826Y10383D02*
X16584D01*
Y10141*
X16612Y10145*
X16684Y10175*
X16746Y10222*
X16793Y10284*
X16823Y10356*
X16826Y10383*
G37*
G36*
X16486D02*
X16244D01*
X16247Y10356*
X16277Y10284*
X16324Y10222*
X16386Y10175*
X16458Y10145*
X16486Y10141*
Y10383*
G37*
G36*
X14661D02*
X14419D01*
Y10141*
X14447Y10145*
X14519Y10175*
X14580Y10222*
X14628Y10284*
X14657Y10356*
X14661Y10383*
G37*
G36*
X6787Y9005D02*
X6545D01*
Y8763*
X6573Y8767*
X6645Y8797*
X6706Y8844*
X6754Y8906*
X6783Y8978*
X6787Y9005*
G37*
G36*
X8277Y6551D02*
Y6309D01*
X8519*
X8516Y6336*
X8486Y6408*
X8438Y6470*
X8377Y6517*
X8305Y6547*
X8277Y6551*
G37*
G36*
X8179D02*
X8151Y6547D01*
X8079Y6517*
X8017Y6470*
X7970Y6408*
X7940Y6336*
X7937Y6309*
X8179*
Y6551*
G37*
G36*
X8519Y6210D02*
X8277D01*
Y5968*
X8305Y5972*
X8377Y6001*
X8438Y6049*
X8486Y6110*
X8516Y6182*
X8519Y6210*
G37*
G36*
X6446Y9005D02*
X6204D01*
X6208Y8978*
X6238Y8906*
X6285Y8844*
X6347Y8797*
X6419Y8767*
X6446Y8763*
Y9005*
G37*
G36*
X13956Y8444D02*
X13208D01*
Y7696*
X13956*
Y8444*
G37*
G36*
X13582Y7448D02*
X13485Y7435D01*
X13394Y7397*
X13315Y7337*
X13256Y7259*
X13218Y7168*
X13205Y7070*
X13218Y6973*
X13256Y6882*
X13315Y6804*
X13394Y6744*
X13485Y6706*
X13582Y6693*
X13680Y6706*
X13771Y6744*
X13849Y6804*
X13909Y6882*
X13947Y6973*
X13959Y7070*
X13947Y7168*
X13909Y7259*
X13849Y7337*
X13771Y7397*
X13680Y7435*
X13582Y7448*
G37*
G36*
X4622Y13336D02*
X4379D01*
Y13094*
X4407Y13098*
X4479Y13127*
X4541Y13175*
X4588Y13236*
X4618Y13308*
X4622Y13336*
G37*
G36*
X4281D02*
X4039D01*
X4043Y13308*
X4072Y13236*
X4120Y13175*
X4181Y13127*
X4253Y13098*
X4281Y13094*
Y13336*
G37*
G36*
X8710Y12889D02*
Y12647D01*
X8952*
X8949Y12675*
X8919Y12747*
X8872Y12809*
X8810Y12856*
X8738Y12886*
X8710Y12889*
G37*
G36*
X4379Y13677D02*
Y13435D01*
X4622*
X4618Y13462*
X4588Y13534*
X4541Y13596*
X4479Y13643*
X4407Y13673*
X4379Y13677*
G37*
G36*
X4281D02*
X4253Y13673D01*
X4181Y13643*
X4120Y13596*
X4072Y13534*
X4043Y13462*
X4039Y13435*
X4281*
Y13677*
G37*
G36*
X393Y13663D02*
X321Y13654D01*
X254Y13626*
X197Y13582*
X153Y13524*
X125Y13457*
X115Y13385*
X125Y13313*
X153Y13246*
X197Y13189*
X254Y13145*
X321Y13117*
X393Y13107*
X465Y13117*
X532Y13145*
X590Y13189*
X634Y13246*
X662Y13313*
X671Y13385*
X662Y13457*
X634Y13524*
X590Y13582*
X532Y13626*
X465Y13654*
X393Y13663*
G37*
G36*
X8612Y12889D02*
X8584Y12886D01*
X8512Y12856*
X8450Y12809*
X8403Y12747*
X8373Y12675*
X8370Y12647*
X8612*
Y12889*
G37*
G36*
X9842Y17600D02*
X9770Y17591D01*
X9703Y17563*
X9646Y17519*
X9601Y17461*
X9598Y17453*
X9409*
X9359Y17443*
X9317Y17415*
X7171Y15269*
X7143Y15227*
X7133Y15177*
Y11620*
X7087Y11601*
X5445Y13243*
Y17078*
X5453Y17082*
X5511Y17126*
X5555Y17183*
X5583Y17250*
X5592Y17322*
X5583Y17394*
X5555Y17461*
X5511Y17519*
X5453Y17563*
X5386Y17591*
X5315Y17600*
X5243Y17591*
X5176Y17563*
X5118Y17519*
X5074Y17461*
X5046Y17394*
X5037Y17322*
X5046Y17250*
X5074Y17183*
X5118Y17126*
X5176Y17082*
X5184Y17078*
Y13189*
X5194Y13139*
X5222Y13096*
X6784Y11535*
X6770Y11501*
X6759Y11489*
X6692Y11498*
X6621Y11489*
X6553Y11461*
X6496Y11417*
X6452Y11359*
X6448Y11350*
X1628*
X658Y12321*
X662Y12329*
X671Y12401*
X662Y12473*
X634Y12540*
X590Y12598*
X532Y12642*
X465Y12670*
X393Y12679*
X321Y12670*
X254Y12642*
X197Y12598*
X153Y12540*
X125Y12473*
X115Y12401*
X125Y12329*
X153Y12262*
X197Y12205*
X254Y12160*
X263Y12157*
Y3543*
X273Y3493*
X301Y3451*
X498Y3254*
X540Y3225*
X590Y3216*
X1181*
X1185Y3216*
X1205Y3198*
X1915*
X1910Y3239*
X1875Y3323*
X1820Y3395*
X1748Y3450*
X1664Y3485*
X1585Y3495*
X1560Y3541*
X1628Y3609*
X2165*
X2215Y3619*
X2257Y3647*
X3597Y4987*
X4677*
X4680Y4979*
X4724Y4921*
X4782Y4877*
X4849Y4849*
X4921Y4840*
X4993Y4849*
X5060Y4877*
X5117Y4921*
X5162Y4979*
X5170Y4999*
X5210Y5025*
X7101Y6916*
X9867*
X10128Y6655*
X10125Y6646*
X10115Y6574*
X10125Y6502*
X10153Y6435*
X10197Y6378*
X10254Y6334*
X10321Y6306*
X10393Y6296*
X10465Y6306*
X10532Y6334*
X10590Y6378*
X10634Y6435*
X10638Y6444*
X11239*
X11260Y6417*
X11317Y6373*
X11384Y6345*
X11456Y6336*
X11528Y6345*
X11595Y6373*
X11653Y6417*
X11697Y6475*
X11725Y6542*
X11734Y6614*
X11725Y6686*
X11697Y6753*
X11653Y6810*
X11595Y6854*
X11528Y6882*
X11456Y6892*
X11384Y6882*
X11317Y6854*
X11260Y6810*
X11216Y6753*
X11196Y6705*
X10638*
X10634Y6713*
X10590Y6771*
X10532Y6815*
X10465Y6843*
X10393Y6852*
X10321Y6843*
X10313Y6839*
X10016Y7136*
X10017Y7149*
X10033Y7186*
X11669*
X12629Y6226*
X12672Y6198*
X12721Y6188*
X16752*
X16801Y6198*
X16844Y6226*
X18226Y7609*
X18235Y7605*
X18307Y7596*
X18379Y7605*
X18446Y7633*
X18503Y7677*
X18547Y7735*
X18575Y7802*
X18585Y7874*
X18575Y7946*
X18547Y8013*
X18503Y8070*
X18446Y8114*
X18379Y8142*
X18307Y8152*
X18235Y8142*
X18168Y8114*
X18110Y8070*
X18066Y8013*
X18038Y7946*
X18029Y7874*
X18038Y7802*
X18042Y7793*
X16697Y6449*
X15557*
X15538Y6495*
X16848Y7805*
X16857Y7802*
X16929Y7792*
X17001Y7802*
X17068Y7830*
X17125Y7874*
X17169Y7931*
X17197Y7998*
X17207Y8070*
X17197Y8142*
X17169Y8209*
X17125Y8267*
X17068Y8311*
X17001Y8339*
X16929Y8348*
X16857Y8339*
X16790Y8311*
X16732Y8267*
X16688Y8209*
X16660Y8142*
X16651Y8070*
X16660Y7998*
X16664Y7990*
X15300Y6626*
X12849*
X11889Y7586*
X11847Y7614*
X11797Y7624*
X11614*
X11595Y7670*
X12714Y8790*
X12723Y8786*
X12795Y8777*
X12867Y8786*
X12934Y8814*
X12991Y8858*
X13036Y8916*
X13063Y8983*
X13073Y9055*
X13063Y9127*
X13036Y9194*
X12991Y9251*
X12934Y9295*
X12867Y9323*
X12795Y9333*
X12723Y9323*
X12656Y9295*
X12598Y9251*
X12554Y9194*
X12526Y9127*
X12517Y9055*
X12526Y8983*
X12530Y8974*
X11363Y7807*
X6692*
X6682Y7805*
X6658Y7851*
X9502Y10696*
X14146*
X14162Y10646*
X14159Y10643*
X14112Y10582*
X14082Y10510*
X14078Y10482*
X14661*
X14657Y10510*
X14628Y10582*
X14580Y10643*
X14577Y10646*
X14594Y10696*
X16128*
X16178Y10706*
X16220Y10734*
X18133Y12647*
X18161Y12689*
X18171Y12739*
Y13066*
X18226Y13120*
X18235Y13117*
X18307Y13107*
X18379Y13117*
X18446Y13145*
X18503Y13189*
X18547Y13246*
X18575Y13313*
X18585Y13385*
X18575Y13457*
X18547Y13524*
X18503Y13582*
X18446Y13626*
X18379Y13654*
X18307Y13663*
X18235Y13654*
X18168Y13626*
X18110Y13582*
X18066Y13524*
X18038Y13457*
X18029Y13385*
X18038Y13313*
X18042Y13305*
X17949Y13212*
X17920Y13170*
X17913Y13133*
X17866Y13106*
X17855Y13114*
X17788Y13142*
X17716Y13152*
X17644Y13142*
X17577Y13114*
X17520Y13070*
X17475Y13013*
X17448Y12946*
X17438Y12874*
X17448Y12802*
X17451Y12793*
X15963Y11305*
X13695*
X13671Y11355*
X13712Y11409*
X13750Y11500*
X13763Y11598*
X13750Y11696*
X13712Y11787*
X13652Y11865*
X13574Y11925*
X13483Y11962*
X13385Y11975*
X13288Y11962*
X13197Y11925*
X13119Y11865*
X13059Y11787*
X13021Y11696*
X13008Y11598*
X13021Y11500*
X13059Y11409*
X13100Y11355*
X13076Y11305*
X9403*
X9353Y11295*
X9311Y11267*
X6111Y8067*
X1335*
X1311Y8125*
X1251Y8203*
X1172Y8263*
X1081Y8301*
X984Y8314*
X886Y8301*
X795Y8263*
X717Y8203*
X657Y8125*
X619Y8034*
X607Y7937*
X619Y7839*
X657Y7748*
X717Y7670*
X795Y7610*
X886Y7572*
X984Y7559*
X1081Y7572*
X1172Y7610*
X1251Y7670*
X1311Y7748*
X1335Y7806*
X6165*
X6175Y7808*
X6200Y7762*
X5505Y7067*
X1335*
X1311Y7125*
X1251Y7203*
X1172Y7263*
X1081Y7301*
X984Y7314*
X886Y7301*
X795Y7263*
X717Y7203*
X657Y7125*
X619Y7034*
X607Y6937*
X619Y6839*
X657Y6748*
X717Y6670*
X795Y6610*
X886Y6572*
X984Y6559*
X1081Y6572*
X1172Y6610*
X1251Y6670*
X1311Y6748*
X1335Y6806*
X5559*
X5569Y6808*
X5593Y6762*
X5457Y6626*
X1968*
X1918Y6616*
X1876Y6588*
X1379Y6091*
X1320Y6103*
X1311Y6125*
X1251Y6203*
X1172Y6263*
X1081Y6301*
X984Y6314*
X886Y6301*
X795Y6263*
X717Y6203*
X657Y6125*
X619Y6034*
X607Y5937*
X619Y5839*
X657Y5748*
X717Y5670*
X795Y5610*
X886Y5572*
X984Y5559*
X1081Y5572*
X1172Y5610*
X1251Y5670*
X1311Y5748*
X1335Y5806*
X1409*
X1459Y5816*
X1501Y5844*
X2022Y6365*
X2375*
X2394Y6319*
X1277Y5202*
X1251Y5203*
X1172Y5263*
X1081Y5301*
X984Y5314*
X886Y5301*
X795Y5263*
X717Y5203*
X657Y5125*
X619Y5034*
X607Y4937*
X619Y4839*
X657Y4748*
X717Y4670*
X795Y4610*
X886Y4572*
X984Y4559*
X1081Y4572*
X1172Y4610*
X1251Y4670*
X1311Y4748*
X1348Y4839*
X1358Y4914*
X2632Y6188*
X2985*
X3005Y6142*
X1173Y4311*
X610*
Y3608*
Y3582*
X561Y3560*
X524Y3597*
Y12021*
X570Y12040*
X1482Y11128*
X1524Y11099*
X1574Y11090*
X6448*
X6452Y11081*
X6496Y11023*
X6518Y11007*
X6501Y10957*
X1358*
X1348Y11034*
X1311Y11125*
X1251Y11203*
X1172Y11263*
X1081Y11301*
X984Y11314*
X886Y11301*
X795Y11263*
X717Y11203*
X657Y11125*
X619Y11034*
X607Y10937*
X619Y10839*
X657Y10748*
X717Y10670*
X795Y10610*
X886Y10572*
X984Y10559*
X1081Y10572*
X1172Y10610*
X1251Y10670*
X1271Y10696*
X6706*
X6725Y10650*
X6142Y10067*
X1335*
X1311Y10125*
X1251Y10203*
X1172Y10263*
X1081Y10301*
X984Y10314*
X886Y10301*
X795Y10263*
X717Y10203*
X657Y10125*
X619Y10034*
X607Y9937*
X619Y9839*
X657Y9748*
X717Y9670*
X795Y9610*
X886Y9572*
X984Y9559*
X1081Y9572*
X1172Y9610*
X1251Y9670*
X1311Y9748*
X1335Y9806*
X6196*
X6206Y9808*
X6231Y9762*
X6048Y9579*
X1574*
X1524Y9569*
X1482Y9541*
X1191Y9249*
X1172Y9263*
X1081Y9301*
X984Y9314*
X886Y9301*
X795Y9263*
X717Y9203*
X657Y9125*
X619Y9034*
X607Y8937*
X619Y8839*
X657Y8748*
X717Y8670*
X795Y8610*
X886Y8572*
X984Y8559*
X1081Y8572*
X1172Y8610*
X1251Y8670*
X1311Y8748*
X1348Y8839*
X1361Y8937*
X1348Y9034*
X1347Y9037*
X1628Y9318*
X6102*
X6152Y9328*
X6194Y9356*
X10290Y13452*
X13713*
X13717Y13443*
X13761Y13386*
X13818Y13341*
X13885Y13314*
X13957Y13304*
X14029Y13314*
X14096Y13341*
X14154Y13386*
X14198Y13443*
X14226Y13510*
X14235Y13582*
X14226Y13654*
X14198Y13721*
X14154Y13779*
X14096Y13823*
X14029Y13851*
X13957Y13860*
X13885Y13851*
X13818Y13823*
X13761Y13779*
X13717Y13721*
X13713Y13713*
X10236*
X10186Y13703*
X10144Y13674*
X9000Y12531*
X8965Y12549*
X8710*
Y12294*
X8728Y12258*
X7444Y10975*
X7394Y10995*
Y15123*
X9463Y17192*
X9598*
X9601Y17183*
X9646Y17126*
X9703Y17082*
X9770Y17054*
X9842Y17044*
X9914Y17054*
X9981Y17082*
X10039Y17126*
X10083Y17183*
X10111Y17250*
X10120Y17322*
X10111Y17394*
X10083Y17461*
X10039Y17519*
X9981Y17563*
X9914Y17591*
X9842Y17600*
G37*
G36*
X16584Y10724D02*
Y10482D01*
X16826*
X16823Y10510*
X16793Y10582*
X16746Y10643*
X16684Y10691*
X16612Y10720*
X16584Y10724*
G37*
G36*
X16486D02*
X16458Y10720D01*
X16386Y10691*
X16324Y10643*
X16277Y10582*
X16247Y10510*
X16244Y10482*
X16486*
Y10724*
G37*
G36*
X8612Y12549D02*
X8370D01*
X8373Y12521*
X8403Y12449*
X8450Y12387*
X8512Y12340*
X8584Y12310*
X8612Y12307*
Y12549*
G37*
G36*
X13759Y12972D02*
X13011D01*
Y12224*
X13759*
Y12972*
G37*
G36*
X4330Y12663D02*
X4258Y12654D01*
X4191Y12626*
X4134Y12582*
X4090Y12524*
X4062Y12457*
X4052Y12385*
X4062Y12313*
X4090Y12246*
X4134Y12189*
X4191Y12145*
X4258Y12117*
X4330Y12107*
X4402Y12117*
X4469Y12145*
X4527Y12189*
X4571Y12246*
X4599Y12313*
X4608Y12385*
X4599Y12457*
X4571Y12524*
X4527Y12582*
X4469Y12626*
X4402Y12654*
X4330Y12663*
G37*
%LNdeploy-3*%
%LPD*%
G54D24*
X12992Y3543D02*
X13267Y3267D01*
X6888Y3543D02*
X12992D01*
X6692Y3347D02*
X6888Y3543D01*
X13267Y2992D02*
Y3267D01*
X13346Y2322D02*
X13976Y2952D01*
X10590Y2322D02*
X13346D01*
X10055Y1787D02*
X10590Y2322D01*
X10007Y1787D02*
X10055D01*
X12047Y2559D02*
X12480Y2992D01*
X9330Y2559D02*
X12047D01*
X9007Y2236D02*
X9330Y2559D01*
X9007Y1787D02*
Y2236D01*
X8622Y2952D02*
X11692D01*
X8007Y2338D02*
X8622Y2952D01*
X8007Y1787D02*
Y2338D01*
X6007Y2662D02*
X6692Y3347D01*
X6007Y1787D02*
Y2662D01*
X9921Y7047D02*
X10393Y6574D01*
X7047Y7047D02*
X9921D01*
X5118Y5118D02*
X7047Y7047D01*
X4921Y5118D02*
X5118D01*
X11417Y6574D02*
X11456Y6614D01*
X10393Y6574D02*
X11417D01*
X16752Y6318D02*
X18307Y7874D01*
X12721Y6318D02*
X16752D01*
X11723Y7316D02*
X12721Y6318D01*
X6833Y7316D02*
X11723D01*
X5658Y6141D02*
X6833Y7316D01*
X3189Y6141D02*
X5658D01*
X984Y3937D02*
X3189Y6141D01*
X12795Y6496D02*
X15354D01*
X11797Y7494D02*
X12795Y6496D01*
X6760Y7494D02*
X11797D01*
X15354Y6496D02*
X16929Y8070D01*
X5585Y6318D02*
X6760Y7494D01*
X2578Y6318D02*
X5585D01*
X1196Y4937D02*
X2578Y6318D01*
X11417Y7677D02*
X12795Y9055D01*
X6692Y7677D02*
X11417D01*
X5511Y6496D02*
X6692Y7677D01*
X1574Y11220D02*
X6692D01*
X12007Y1787D02*
Y1968D01*
X393Y12401D02*
X1574Y11220D01*
X5315Y13189D02*
Y17322D01*
Y13189D02*
X7086Y11417D01*
Y11023D02*
Y11417D01*
X393Y3543D02*
Y12401D01*
X2165Y3740D02*
X3543Y5118D01*
X4921*
X393Y3543D02*
X590Y3346D01*
X1181*
X1574Y3740*
X2165*
X6889Y10826D02*
X7086Y11023D01*
X1094Y10826D02*
X6889D01*
X984Y10937D02*
X1094Y10826D01*
X7263Y10950D02*
Y15177D01*
X6963Y10649D02*
X7263Y10950D01*
X6909Y10649D02*
X6963D01*
X6196Y9937D02*
X6909Y10649D01*
X984Y9937D02*
X6196D01*
X6102Y9448D02*
X10236Y13582D01*
X1574Y9448D02*
X6102D01*
X1063Y8937D02*
X1574Y9448D01*
X984Y8937D02*
X1063D01*
X7263Y15177D02*
X9409Y17322D01*
X9842*
X10236Y13582D02*
X13957D01*
X16017Y11175D02*
X17716Y12874D01*
X9403Y11175D02*
X16017D01*
X6165Y7937D02*
X9403Y11175D01*
X984Y7937D02*
X6165D01*
X18041Y13120D02*
X18307Y13385D01*
X18041Y12739D02*
Y13120D01*
X16128Y10826D02*
X18041Y12739D01*
X9448Y10826D02*
X16128D01*
X5559Y6937D02*
X9448Y10826D01*
X984Y6937D02*
X5559D01*
X1968Y6496D02*
X5511D01*
X1409Y5937D02*
X1968Y6496D01*
X984Y5937D02*
X1409D01*
X984Y4937D02*
X1196D01*
G54D26*
X984Y10937D03*
Y9937D03*
Y8937D03*
Y7937D03*
Y6937D03*
Y5937D03*
Y4937D03*
X5708Y20669D03*
X9842Y15354D03*
X3007Y787D03*
Y1787D03*
X4007Y787D03*
Y1787D03*
X5007Y787D03*
Y1787D03*
X6007Y787D03*
Y1787D03*
X7007Y787D03*
Y1787D03*
X8007Y787D03*
Y1787D03*
X9007Y787D03*
Y1787D03*
X10007Y787D03*
Y1787D03*
X11007Y787D03*
Y1787D03*
X12007Y787D03*
X13385Y11598D03*
X13582Y7070D03*
G54D27*
X984Y3937D03*
X13385Y12598D03*
X13582Y8070D03*
G54D28*
X6708Y20669D03*
X8842Y15354D03*
X12007Y1787D03*
G54D29*
X4330Y14370D03*
X5826Y14133D03*
X11692Y2952D03*
X12480Y2992D03*
X13267D03*
X13976Y2952D03*
X6692Y3347D03*
X8228Y6259D03*
X10393Y6574D03*
X11456Y6614D03*
X393Y13385D03*
Y14370D03*
X4921Y5118D03*
X3543Y4330D03*
X6692Y11220D03*
X6496Y9055D03*
X14370Y10433D03*
X16535D03*
X16141Y15157D03*
X14370D03*
X11220Y18897D03*
X393Y12401D03*
X4330Y12385D03*
Y13385D03*
Y17126D03*
X5315Y17322D03*
X9842D03*
X13957Y13582D03*
X17716Y12874D03*
X18307Y13385D03*
X12795Y9055D03*
X16929Y8070D03*
X18307Y7874D03*
X8661Y12598D03*
G54D30*
X1574Y3149D03*
G54D31*
X22047Y1378D03*
X1378Y22047D03*
Y1378D03*
M02*