%FSLAX24Y24*%
%MOIN*%
%SFA1B1*%

%IPPOS*%
%ADD35R,0.043310X0.035430*%
%ADD36R,0.035430X0.043310*%
%ADD37R,0.031500X0.049210*%
%ADD38R,0.074800X0.051180*%
%ADD39R,0.051180X0.074800*%
%ADD40O,0.078740X0.031500*%
%ADD41R,0.031500X0.053150*%
%ADD42R,0.029920X0.049610*%
%ADD43R,0.029920X0.041730*%
%ADD44R,0.029130X0.021650*%
%ADD45R,0.189760X0.174020*%
%ADD46O,0.019690X0.078740*%
%ADD47O,0.078740X0.019690*%
%ADD48R,0.132870X0.052760*%
%ADD49C,0.066930*%
%ADD50R,0.066930X0.066930*%
%ADD51R,0.066930X0.066930*%
%ADD52C,0.047240*%
%ADD53C,0.057090*%
%ADD54C,0.204720*%
%LNdeploy-1*%
%LPD*%
G54D35*
X13228Y3641D03*
Y4232D03*
X13937Y3641D03*
Y4232D03*
X12480Y3641D03*
Y4232D03*
X11692Y3641D03*
Y4232D03*
X10393Y3444D03*
Y4035D03*
X9252Y18602D03*
Y19192D03*
X17126Y6988D03*
Y7578D03*
X5905Y17027D03*
Y16437D03*
X2362Y2657D03*
Y3248D03*
X17716Y9744D03*
Y10334D03*
X17126Y9744D03*
Y10334D03*
X16732Y11712D03*
Y12303D03*
Y14468D03*
Y15059D03*
X17322Y14468D03*
Y15059D03*
G54D36*
X15452Y15157D03*
X14862D03*
X3543Y3346D03*
X2952D03*
X14665Y9842D03*
X15255D03*
X15846D03*
X16437D03*
X3641Y2755D03*
X3051D03*
X10925Y19488D03*
X10334D03*
X4035Y16535D03*
X3444D03*
X4626D03*
X5216D03*
X15846Y10433D03*
X15255D03*
X14271Y14566D03*
X14862D03*
X15452D03*
X16043D03*
X11515Y19488D03*
X12106D03*
G54D37*
X9232Y17972D03*
X8484D03*
X8858Y17066D03*
X17893Y9114D03*
X17145D03*
X17519Y8208D03*
X5925Y17657D03*
X6673D03*
X6299Y18563D03*
X13759Y14429D03*
X13011D03*
X13385Y13523D03*
X13956Y9901D03*
X13208D03*
X13582Y8996D03*
X17500Y13838D03*
X16752D03*
X17126Y12933D03*
G54D38*
X2559Y5452D03*
Y4389D03*
G54D39*
X6358Y14173D03*
X7421D03*
G54D40*
X7716Y11651D03*
Y12151D03*
Y12651D03*
Y13151D03*
X5669Y11651D03*
Y12151D03*
Y12651D03*
Y13151D03*
G54D41*
X3740Y21456D03*
X4114Y20570D03*
X3366D03*
X11614Y14370D03*
X11240Y15255D03*
X11988D03*
G54D42*
X14838Y9252D03*
X15338D03*
X15838D03*
X16338D03*
X14572Y13891D03*
X15072D03*
X15572D03*
X16072D03*
X4852Y17604D03*
X4352D03*
X3852D03*
X3352D03*
X10629Y18405D03*
X11129D03*
X11629D03*
X12129D03*
G54D43*
X16338Y6988D03*
X15838D03*
X15338D03*
X14838D03*
X16072Y11628D03*
X15572D03*
X15072D03*
X14572D03*
X3352Y19868D03*
X3852D03*
X4352D03*
X4852D03*
X12129Y16141D03*
X11629D03*
X11129D03*
X10629D03*
G54D44*
X14572Y8549D03*
X16604D03*
X14307Y13189D03*
X16338D03*
X5118Y18307D03*
X3086D03*
X10364Y17702D03*
X12395D03*
G54D45*
X15588Y7988D03*
X15322Y12628D03*
X4102Y18868D03*
X11379Y17141D03*
G54D46*
X9055Y4311D03*
X8858D03*
X8661D03*
X8464D03*
X8267D03*
X8070D03*
X7874D03*
X7677D03*
X7480D03*
X7283D03*
X7086D03*
X6889D03*
X6692D03*
X6496D03*
X6299D03*
X6102D03*
X5905D03*
X5708D03*
X5511D03*
X5315D03*
X5118D03*
X4921D03*
X4724D03*
X4527D03*
X4330D03*
Y10255D03*
X4527D03*
X4724D03*
X4921D03*
X5118D03*
X5315D03*
X5511D03*
X5708D03*
X5905D03*
X6102D03*
X6299D03*
X6496D03*
X6692D03*
X6889D03*
X7086D03*
X7283D03*
X7480D03*
X7677D03*
X7874D03*
X8070D03*
X8267D03*
X8464D03*
X8661D03*
X8858D03*
X9055D03*
G54D47*
X3720Y4921D03*
Y5118D03*
Y5315D03*
Y5511D03*
Y5708D03*
Y5905D03*
Y6102D03*
Y6299D03*
Y6496D03*
Y6692D03*
Y6889D03*
Y7086D03*
Y7283D03*
Y7480D03*
Y7677D03*
Y7874D03*
Y8070D03*
Y8267D03*
Y8464D03*
Y8661D03*
Y8858D03*
Y9055D03*
Y9252D03*
Y9448D03*
Y9645D03*
X9665D03*
Y9448D03*
Y9252D03*
Y9055D03*
Y8858D03*
Y8661D03*
Y8464D03*
Y8267D03*
Y8070D03*
Y7874D03*
Y7677D03*
Y7480D03*
Y7283D03*
Y7086D03*
Y6889D03*
Y6692D03*
Y6496D03*
Y6299D03*
Y6102D03*
Y5905D03*
Y5708D03*
Y5511D03*
Y5315D03*
Y5118D03*
Y4921D03*
G54D48*
X3387Y12385D03*
X1337D03*
Y13385D03*
X3387D03*
X1337Y14385D03*
X3387D03*
G54D49*
X984Y10937D03*
Y9937D03*
Y8937D03*
Y7937D03*
Y6937D03*
Y5937D03*
Y4937D03*
X5708Y20669D03*
X9842Y15354D03*
X3007Y787D03*
Y1787D03*
X4007Y787D03*
Y1787D03*
X5007Y787D03*
Y1787D03*
X6007Y787D03*
Y1787D03*
X7007Y787D03*
Y1787D03*
X8007Y787D03*
Y1787D03*
X9007Y787D03*
Y1787D03*
X10007Y787D03*
Y1787D03*
X11007Y787D03*
Y1787D03*
X12007Y787D03*
X13385Y11598D03*
X13582Y7070D03*
G54D50*
X984Y3937D03*
X13385Y12598D03*
X13582Y8070D03*
G54D51*
X6708Y20669D03*
X8842Y15354D03*
X12007Y1787D03*
G54D52*
X4330Y14370D03*
X5826Y14133D03*
X11692Y2952D03*
X12480Y2992D03*
X13267D03*
X13976Y2952D03*
X6692Y3347D03*
X8228Y6259D03*
X10393Y6574D03*
X11456Y6614D03*
X393Y13385D03*
Y14370D03*
X4921Y5118D03*
X3543Y4330D03*
X6692Y11220D03*
X6496Y9055D03*
X14370Y10433D03*
X16535D03*
X16141Y15157D03*
X14370D03*
X11220Y18897D03*
X393Y12401D03*
X4330Y12385D03*
Y13385D03*
Y17126D03*
X5315Y17322D03*
X9842D03*
X13957Y13582D03*
X17716Y12874D03*
X18307Y13385D03*
X12795Y9055D03*
X16929Y8070D03*
X18307Y7874D03*
X8661Y12598D03*
G54D53*
X1574Y3149D03*
G54D54*
X22047Y1378D03*
X1378Y22047D03*
Y1378D03*
M02*