%FSLAX24Y24*%
%MOIN*%
%SFA1B1*%

%IPPOS*%
%ADD10R,0.035430X0.027560*%
%ADD11R,0.027560X0.035430*%
%ADD12R,0.023620X0.041340*%
%ADD13R,0.066930X0.043310*%
%ADD14R,0.043310X0.066930*%
%ADD15O,0.070870X0.023620*%
%ADD16R,0.023620X0.045280*%
%ADD17R,0.022050X0.041730*%
%ADD18R,0.022050X0.033860*%
%ADD19R,0.021260X0.013780*%
%ADD20R,0.181890X0.166140*%
%ADD21O,0.011810X0.070870*%
%ADD22O,0.070870X0.011810*%
%ADD23R,0.125000X0.044880*%
%ADD24C,0.009840*%
%ADD25C,0.019690*%
%ADD26C,0.059060*%
%ADD27R,0.059060X0.059060*%
%ADD28R,0.059060X0.059060*%
%ADD29C,0.039370*%
%ADD30C,0.049210*%
%ADD31C,0.196850*%
%LNdeploy-1*%
%LPD*%
G36*
X13682Y8524D02*
X13685Y8490D01*
X13690Y8460*
X13696Y8435*
X13705Y8413*
X13716Y8395*
X13729Y8381*
X13744Y8371*
X13760Y8365*
X13779Y8363*
X13385*
X13404Y8365*
X13421Y8371*
X13436Y8381*
X13448Y8395*
X13459Y8413*
X13468Y8435*
X13475Y8460*
X13480Y8490*
X13483Y8524*
X13484Y8561*
X13681*
X13682Y8524*
G37*
G36*
X3402Y8410D02*
X3403Y8409D01*
X3401Y8408*
X3398Y8407*
X3393Y8407*
X3378Y8406*
X3326Y8405*
X3283Y8503*
X3302Y8504*
X3361Y8507*
X3372Y8509*
X3390Y8513*
X3397Y8516*
X3402Y8519*
Y8410*
G37*
G36*
X9985Y8518D02*
X9990Y8517D01*
X9996Y8516*
X10013Y8515*
X10089Y8513*
Y8415*
X9983Y8410*
Y8519*
X9985Y8518*
G37*
G36*
X17180Y8252D02*
X17168Y8239D01*
X17158Y8225*
X17148Y8211*
X17141Y8195*
X17135Y8179*
X17130Y8162*
X17126Y8144*
X17124Y8126*
X17124Y8106*
X17125Y8086*
X16944Y8267*
X16965Y8266*
X16984Y8266*
X17002Y8268*
X17020Y8271*
X17037Y8276*
X17053Y8283*
X17069Y8290*
X17084Y8299*
X17097Y8310*
X17110Y8322*
X17180Y8252*
G37*
G36*
X13289Y7874D02*
X13287Y7892D01*
X13281Y7909*
X13272Y7924*
X13258Y7937*
X13240Y7947*
X13218Y7956*
X13192Y7963*
X13163Y7968*
X13129Y7971*
X13091Y7972*
Y8169*
X13129Y8170*
X13163Y8173*
X13192Y8178*
X13218Y8185*
X13240Y8193*
X13258Y8204*
X13272Y8217*
X13281Y8232*
X13287Y8249*
X13289Y8267*
Y7874*
G37*
G36*
X18135Y8116D02*
X18149Y8106D01*
X18164Y8097*
X18180Y8090*
X18197Y8084*
X18216Y8079*
X18236Y8075*
X18258Y8072*
X18281Y8071*
X18305Y8070*
X18110Y7876*
X18109Y7900*
X18105Y7944*
X18101Y7964*
X18096Y7983*
X18090Y8000*
X18083Y8017*
X18074Y8031*
X18064Y8045*
X18054Y8057*
X18123Y8127*
X18135Y8116*
G37*
G36*
X3402Y8213D02*
X3400Y8214D01*
X3395Y8215*
X3389Y8215*
X3372Y8217*
X3296Y8218*
Y8316*
X3402Y8322*
Y8213*
G37*
G36*
X10482Y8386D02*
X10483Y8367D01*
X10485Y8348*
X10488Y8330*
X10493Y8312*
X10499Y8295*
X10507Y8278*
X10516Y8262*
X10526Y8247*
X10538Y8232*
X10551Y8218*
X10398Y8232*
X10314Y8456*
X10327Y8443*
X10339Y8435*
X10349Y8429*
X10358Y8427*
X10366Y8428*
X10372Y8433*
X10377Y8441*
X10381Y8452*
X10383Y8467*
X10383Y8485*
X10482Y8386*
G37*
G36*
X1225Y9113D02*
X1283Y9063D01*
X1310Y9042*
X1336Y9025*
X1361Y9011*
X1386Y9000*
X1409Y8992*
X1431Y8987*
X1452Y8986*
Y8887*
X1431Y8886*
X1409Y8881*
X1386Y8873*
X1361Y8862*
X1336Y8848*
X1310Y8831*
X1283Y8810*
X1225Y8760*
X1195Y8730*
Y9143*
X1225Y9113*
G37*
G36*
X3402Y8803D02*
X3400Y8804D01*
X3395Y8805*
X3389Y8806*
X3372Y8807*
X3296Y8809*
Y8907*
X3402Y8912*
Y8803*
G37*
G36*
X9985Y8911D02*
X9990Y8910D01*
X9996Y8910*
X10013Y8908*
X10089Y8907*
Y8809*
X9983Y8803*
Y8912*
X9985Y8911*
G37*
G36*
X10433Y8858D02*
X10383Y8710D01*
X10382Y8729*
X10379Y8746*
X10375Y8760*
X10368Y8773*
X10359Y8784*
X10348Y8793*
X10335Y8800*
X10320Y8805*
X10304Y8808*
X10285Y8809*
X10215Y8907*
X10233Y8908*
X10248Y8910*
X10259Y8913*
X10267Y8918*
X10272Y8924*
X10273Y8932*
X10271Y8941*
X10265Y8952*
X10256Y8963*
X10244Y8977*
X10433Y8858*
G37*
G36*
X9308Y8727D02*
X9317Y8723D01*
X9330Y8720*
X9346Y8718*
X9388Y8713*
X9478Y8710*
X9515Y8710*
Y8612*
X9478Y8612*
X9330Y8602*
X9317Y8599*
X9308Y8595*
X9302Y8591*
Y8611*
X9241Y8612*
Y8710*
X9302Y8713*
Y8731*
X9308Y8727*
G37*
G36*
X13696Y8788D02*
X13692Y8782D01*
X13690Y8772*
X13687Y8759*
X13685Y8741*
X13681Y8664*
X13681Y8593*
X13484*
X13484Y8631*
X13475Y8772*
X13472Y8782*
X13469Y8788*
X13465Y8790*
X13699*
X13696Y8788*
G37*
G36*
X3402Y8606D02*
X3403Y8606D01*
X3401Y8605*
X3398Y8604*
X3393Y8604*
X3378Y8603*
X3326Y8602*
X3283Y8700*
X3302Y8700*
X3361Y8704*
X3372Y8706*
X3390Y8710*
X3397Y8713*
X3402Y8715*
Y8606*
G37*
G36*
X15230Y6889D02*
X15229Y6899D01*
X15226Y6907*
X15221Y6914*
X15214Y6921*
X15205Y6926*
X15194Y6931*
X15181Y6934*
X15167Y6937*
X15150Y6938*
X15131Y6939*
Y7037*
X15150Y7037*
X15167Y7039*
X15181Y7041*
X15194Y7045*
X15205Y7049*
X15214Y7055*
X15221Y7061*
X15226Y7068*
X15229Y7077*
X15230Y7086*
Y6889*
G37*
G36*
X15447Y7077D02*
X15450Y7068D01*
X15455Y7061*
X15462Y7055*
X15471Y7049*
X15482Y7045*
X15495Y7041*
X15510Y7039*
X15527Y7037*
X15546Y7037*
Y6939*
X15527Y6938*
X15510Y6937*
X15495Y6934*
X15482Y6931*
X15471Y6926*
X15462Y6921*
X15455Y6914*
X15450Y6907*
X15447Y6899*
X15446Y6889*
Y7086*
X15447Y7077*
G37*
G36*
X15730Y6889D02*
X15729Y6899D01*
X15726Y6907*
X15721Y6914*
X15714Y6921*
X15705Y6926*
X15694Y6931*
X15681Y6934*
X15667Y6937*
X15650Y6938*
X15631Y6939*
Y7037*
X15650Y7037*
X15667Y7039*
X15681Y7041*
X15694Y7045*
X15705Y7049*
X15714Y7055*
X15721Y7061*
X15726Y7068*
X15729Y7077*
X15730Y7086*
Y6889*
G37*
G36*
X14947Y7077D02*
X14950Y7068D01*
X14955Y7061*
X14962Y7055*
X14971Y7049*
X14982Y7045*
X14995Y7041*
X15010Y7039*
X15027Y7037*
X15046Y7037*
Y6939*
X15027Y6938*
X15010Y6937*
X14995Y6934*
X14982Y6931*
X14971Y6926*
X14962Y6921*
X14955Y6914*
X14950Y6907*
X14947Y6899*
X14946Y6889*
Y7086*
X14947Y7077*
G37*
G36*
X13861Y7177D02*
X13881Y7148D01*
X13900Y7122*
X13921Y7099*
X13941Y7080*
X13963Y7065*
X13984Y7053*
X14007Y7044*
X14029Y7039*
X14053Y7037*
X14024Y6939*
X14007Y6937*
X13988Y6934*
X13966Y6927*
X13941Y6918*
X13882Y6893*
X13810Y6858*
X13727Y6813*
X13843Y7210*
X13861Y7177*
G37*
G36*
X9985Y6943D02*
X9989Y6942D01*
X9995Y6941*
X10011Y6940*
X10062Y6939*
X10078*
Y6840*
X9983Y6835*
Y6944*
X9985Y6943*
G37*
G36*
X14730Y6889D02*
X14729Y6899D01*
X14726Y6907*
X14721Y6914*
X14714Y6921*
X14705Y6926*
X14694Y6931*
X14681Y6934*
X14667Y6937*
X14650Y6938*
X14631Y6939*
Y7037*
X14650Y7037*
X14667Y7039*
X14681Y7041*
X14694Y7045*
X14705Y7049*
X14714Y7055*
X14721Y7061*
X14726Y7068*
X14729Y7077*
X14730Y7086*
Y6889*
G37*
G36*
X15947Y7077D02*
X15950Y7068D01*
X15955Y7061*
X15962Y7055*
X15971Y7049*
X15982Y7045*
X15995Y7041*
X16010Y7039*
X16027Y7037*
X16046Y7037*
Y6939*
X16027Y6938*
X16010Y6937*
X15995Y6934*
X15982Y6931*
X15971Y6926*
X15962Y6921*
X15955Y6914*
X15950Y6907*
X15947Y6899*
X15946Y6889*
Y7086*
X15947Y7077*
G37*
G36*
X9985Y7533D02*
X9990Y7532D01*
X9996Y7532*
X10013Y7530*
X10089Y7529*
X10089Y7431*
X9983Y7425*
Y7534*
X9985Y7533*
G37*
G36*
X17371Y7754D02*
X17350Y7732D01*
X17317Y7694*
X17305Y7677*
X17296Y7662*
X17291Y7649*
X17288Y7638*
X17289Y7628*
X17293Y7621*
X17300Y7615*
X17123Y7714*
X17132Y7710*
X17143Y7709*
X17154Y7710*
X17166Y7713*
X17180Y7719*
X17194Y7727*
X17210Y7738*
X17226Y7751*
X17244Y7767*
X17262Y7784*
X17371Y7754*
G37*
G36*
X1225Y8113D02*
X1283Y8063D01*
X1310Y8042*
X1336Y8025*
X1361Y8011*
X1386Y8000*
X1409Y7992*
X1431Y7987*
X1452Y7986*
Y7887*
X1431Y7886*
X1409Y7881*
X1386Y7873*
X1361Y7862*
X1336Y7848*
X1310Y7831*
X1283Y7810*
X1225Y7760*
X1195Y7730*
Y8143*
X1225Y8113*
G37*
G36*
X1323Y7266D02*
X1308Y7249D01*
X1295Y7229*
X1285Y7207*
X1277Y7183*
X1271Y7155*
X1268Y7126*
X1266Y7094*
X1267Y7059*
X1270Y7022*
X1276Y6982*
X944Y7229*
X989Y7236*
X1104Y7260*
X1136Y7269*
X1164Y7279*
X1189Y7290*
X1210Y7301*
X1228Y7313*
X1243Y7325*
X1323Y7266*
G37*
G36*
X16230Y6889D02*
X16229Y6899D01*
X16226Y6907*
X16221Y6914*
X16214Y6921*
X16205Y6926*
X16194Y6931*
X16181Y6934*
X16167Y6937*
X16150Y6938*
X16131Y6939*
Y7037*
X16150Y7037*
X16167Y7039*
X16181Y7041*
X16194Y7045*
X16205Y7049*
X16214Y7055*
X16221Y7061*
X16226Y7068*
X16229Y7077*
X16230Y7086*
Y6889*
G37*
G36*
X16447Y7077D02*
X16450Y7068D01*
X16455Y7061*
X16462Y7055*
X16471Y7049*
X16482Y7045*
X16495Y7041*
X16510Y7039*
X16527Y7037*
X16546Y7037*
Y6939*
X16527Y6938*
X16510Y6937*
X16495Y6934*
X16482Y6931*
X16471Y6926*
X16462Y6921*
X16455Y6914*
X16450Y6907*
X16447Y6899*
X16446Y6889*
Y7086*
X16447Y7077*
G37*
G36*
X16951Y6889D02*
X16950Y6899D01*
X16947Y6907*
X16942Y6914*
X16935Y6921*
X16926Y6926*
X16915Y6931*
X16902Y6934*
X16887Y6937*
X16870Y6938*
X16851Y6939*
Y7037*
X16870Y7037*
X16887Y7039*
X16902Y7041*
X16915Y7045*
X16926Y7049*
X16935Y7055*
X16942Y7061*
X16947Y7068*
X16950Y7077*
X16951Y7086*
Y6889*
G37*
G36*
X1225Y10113D02*
X1283Y10063D01*
X1310Y10042*
X1336Y10025*
X1361Y10011*
X1386Y10000*
X1409Y9992*
X1431Y9987*
X1452Y9986*
Y9887*
X1431Y9886*
X1409Y9881*
X1386Y9873*
X1361Y9862*
X1336Y9848*
X1310Y9831*
X1283Y9810*
X1225Y9760*
X1195Y9730*
Y10143*
X1225Y10113*
G37*
G36*
X14073Y9931D02*
X14076Y9923D01*
X14081Y9915*
X14088Y9909*
X14097Y9904*
X14108Y9899*
X14121Y9896*
X14136Y9893*
X14153Y9892*
X14172Y9891*
Y9793*
X14153Y9792*
X14136Y9791*
X14121Y9788*
X14108Y9785*
X14097Y9781*
X14088Y9775*
X14081Y9769*
X14076Y9761*
X14073Y9753*
X14072Y9744*
Y9941*
X14073Y9931*
G37*
G36*
X14528Y9744D02*
X14527Y9753D01*
X14524Y9761*
X14519Y9769*
X14513Y9775*
X14504Y9781*
X14493Y9785*
X14480Y9788*
X14465Y9791*
X14449Y9792*
X14430Y9793*
Y9891*
X14449Y9892*
X14465Y9893*
X14480Y9896*
X14493Y9899*
X14504Y9904*
X14513Y9909*
X14519Y9915*
X14524Y9923*
X14527Y9931*
X14528Y9941*
Y9744*
G37*
G36*
X3402Y9591D02*
X3400Y9592D01*
X3395Y9593*
X3389Y9593*
X3372Y9595*
X3296Y9596*
Y9694*
X3402Y9700*
Y9591*
G37*
G36*
X17234Y9606D02*
X17226Y9603D01*
X17219Y9598*
X17212Y9591*
X17207Y9582*
X17202Y9572*
X17199Y9559*
X17196Y9544*
X17195Y9527*
X17194Y9509*
X17096*
X17096Y9527*
X17094Y9544*
X17092Y9559*
X17088Y9572*
X17084Y9582*
X17078Y9591*
X17072Y9598*
X17065Y9603*
X17056Y9606*
X17047Y9607*
X17244*
X17234Y9606*
G37*
G36*
X17891Y9648D02*
X17891Y9646D01*
X17892Y9643*
X17894Y9640*
X17897Y9635*
X17901Y9630*
X17912Y9617*
X17928Y9601*
X17853Y9537*
X17839Y9551*
X17778Y9605*
X17774Y9607*
X17772Y9607*
X17892Y9649*
X17891Y9648*
G37*
G36*
X16526Y9666D02*
X16517Y9663D01*
X16510Y9658*
X16503Y9651*
X16498Y9642*
X16494Y9631*
X16490Y9618*
X16488Y9604*
X16486Y9587*
X16486Y9568*
X16387*
X16387Y9587*
X16385Y9604*
X16383Y9618*
X16379Y9631*
X16375Y9642*
X16370Y9651*
X16363Y9658*
X16356Y9663*
X16347Y9666*
X16338Y9667*
X16535*
X16526Y9666*
G37*
G36*
X4577Y10068D02*
X4586Y9920D01*
X4589Y9908*
X4593Y9898*
X4597Y9893*
X4577*
X4576Y9831*
X4478*
X4475Y9893*
X4457*
X4461Y9898*
X4465Y9908*
X4468Y9920*
X4471Y9936*
X4475Y9979*
X4478Y10068*
X4478Y10105*
X4576*
X4577Y10068*
G37*
G36*
X13395Y10018D02*
X13381Y10004D01*
X13369Y9990*
X13359Y9976*
X13350Y9962*
X13342Y9948*
X13335Y9934*
X13330Y9920*
X13327Y9906*
X13325Y9893*
X13324Y9879*
X13325Y10107*
X13326Y10104*
X13328Y10103*
X13331Y10103*
X13336Y10106*
X13343Y10110*
X13350Y10116*
X13370Y10133*
X13395Y10157*
Y10018*
G37*
G36*
X15935Y10257D02*
X15927Y10254D01*
X15919Y10249*
X15913Y10242*
X15908Y10233*
X15903Y10222*
X15900Y10209*
X15897Y10194*
X15896Y10177*
X15895Y10158*
X15797*
X15796Y10177*
X15795Y10194*
X15792Y10209*
X15789Y10222*
X15785Y10233*
X15779Y10242*
X15773Y10249*
X15765Y10254*
X15757Y10257*
X15748Y10258*
X15944*
X15935Y10257*
G37*
G36*
X16729Y10472D02*
X16735Y10464D01*
X16742Y10457*
X16752Y10450*
X16763Y10445*
X16776Y10440*
X16792Y10437*
X16809Y10435*
X16812Y10434*
X16879Y10439*
X16900Y10442*
X16918Y10446*
X16932Y10451*
X16942Y10457*
X16948Y10464*
X16950Y10471*
Y10198*
X16948Y10205*
X16942Y10211*
X16932Y10217*
X16918Y10222*
X16900Y10226*
X16879Y10230*
X16853Y10232*
X16790Y10235*
X16753Y10236*
Y10239*
X16596Y10246*
X16726Y10482*
X16729Y10472*
G37*
G36*
X15119Y10257D02*
X15392D01*
X15385Y10255*
X15378Y10249*
X15373Y10239*
X15368Y10225*
X15363Y10207*
X15360Y10186*
X15357Y10160*
X15356Y10143*
X15360Y10089*
X15363Y10067*
X15368Y10050*
X15373Y10036*
X15378Y10026*
X15385Y10020*
X15392Y10018*
X15119*
X15126Y10020*
X15133Y10026*
X15138Y10036*
X15143Y10050*
X15147Y10067*
X15151Y10089*
X15154Y10114*
X15154Y10132*
X15151Y10186*
X15147Y10207*
X15143Y10225*
X15138Y10239*
X15133Y10249*
X15126Y10255*
X15119Y10257*
X15117Y10271*
X15111Y10285*
X15101Y10296*
X15087Y10306*
X15070Y10315*
X15048Y10322*
X15022Y10327*
X14993Y10331*
X14959Y10333*
X14922Y10334*
Y10531*
X14959Y10532*
X15022Y10538*
X15048Y10543*
X15070Y10550*
X15087Y10559*
X15101Y10569*
X15111Y10581*
X15117Y10594*
X15119Y10609*
Y10257*
G37*
G36*
X8907Y10068D02*
X8917Y9920D01*
X8920Y9908*
X8924Y9898*
X8927Y9893*
X8908*
X8907Y9831*
X8809*
X8806Y9893*
X8788*
X8792Y9898*
X8796Y9908*
X8799Y9920*
X8801Y9936*
X8805Y9979*
X8808Y10068*
X8809Y10105*
X8907*
X8907Y10068*
G37*
G36*
X13841Y9851D02*
X13840Y9851D01*
X13838Y9851*
X13836Y9851*
X13799Y9852*
X13789Y9852*
Y9950*
X13841Y9952*
Y9851*
G37*
G36*
X15896Y10098D02*
X15897Y10081D01*
X15900Y10066*
X15903Y10053*
X15908Y10042*
X15913Y10033*
X15919Y10026*
X15927Y10021*
X15935Y10018*
X15944Y10017*
X15748*
X15757Y10018*
X15765Y10021*
X15773Y10026*
X15779Y10033*
X15785Y10042*
X15789Y10053*
X15792Y10066*
X15795Y10081*
X15796Y10098*
X15797Y10116*
X15895*
X15896Y10098*
G37*
G36*
X3402Y9000D02*
X3403Y8999D01*
X3401Y8999*
X3398Y8998*
X3393Y8997*
X3378Y8996*
X3326Y8996*
X3283Y9094*
X3302Y9094*
X3361Y9098*
X3372Y9099*
X3390Y9104*
X3397Y9106*
X3402Y9109*
Y9000*
G37*
G36*
X9985Y9108D02*
X9990Y9107D01*
X9996Y9106*
X10013Y9105*
X10089Y9104*
Y9005*
X9983Y9000*
Y9109*
X9985Y9108*
G37*
G36*
X13048Y9238D02*
X13037Y9226D01*
X13027Y9212*
X13019Y9198*
X13011Y9182*
X13005Y9164*
X13000Y9145*
X12996Y9125*
X12994Y9104*
X12992Y9081*
X12992Y9057*
X12797Y9252*
X12821Y9252*
X12865Y9256*
X12885Y9260*
X12904Y9265*
X12922Y9271*
X12938Y9279*
X12953Y9287*
X12966Y9297*
X12978Y9308*
X13048Y9238*
G37*
G36*
X6645Y9185D02*
X6654Y9178D01*
X6666Y9172*
X6678Y9167*
X6692Y9163*
X6708Y9159*
X6725Y9157*
X6743Y9155*
X6784Y9153*
Y8956*
X6763Y8956*
X6725Y8953*
X6708Y8950*
X6692Y8946*
X6678Y8942*
X6666Y8937*
X6654Y8931*
X6645Y8924*
X6636Y8917*
Y9192*
X6645Y9185*
G37*
G36*
X17234Y8907D02*
X17226Y8904D01*
X17219Y8899*
X17212Y8892*
X17207Y8884*
X17202Y8873*
X17199Y8860*
X17196Y8845*
X17195Y8829*
X17194Y8810*
X17096*
X17096Y8829*
X17094Y8845*
X17092Y8860*
X17088Y8873*
X17084Y8884*
X17078Y8892*
X17072Y8899*
X17065Y8904*
X17056Y8907*
X17047Y8908*
X17244*
X17234Y8907*
G37*
G36*
X17982D02*
X17974Y8904D01*
X17967Y8899*
X17960Y8892*
X17955Y8884*
X17950Y8873*
X17947Y8860*
X17944Y8845*
X17943Y8829*
X17942Y8810*
X17844*
X17844Y8829*
X17842Y8845*
X17840Y8860*
X17836Y8873*
X17832Y8884*
X17826Y8892*
X17820Y8899*
X17813Y8904*
X17804Y8907*
X17795Y8908*
X17992*
X17982Y8907*
G37*
G36*
X6355Y8917D02*
X6347Y8924D01*
X6337Y8931*
X6326Y8937*
X6313Y8942*
X6299Y8946*
X6283Y8950*
X6266Y8953*
X6248Y8955*
X6207Y8956*
Y9153*
X6228Y9153*
X6266Y9157*
X6283Y9159*
X6299Y9163*
X6313Y9167*
X6326Y9172*
X6337Y9178*
X6347Y9185*
X6355Y9192*
Y8917*
G37*
G36*
X3402Y9197D02*
X3403Y9196D01*
X3401Y9195*
X3398Y9195*
X3393Y9194*
X3378Y9193*
X3326Y9193*
X3283Y9291*
X3302Y9291*
X3361Y9295*
X3372Y9296*
X3390Y9301*
X3397Y9303*
X3402Y9306*
Y9197*
G37*
G36*
Y9394D02*
X3400Y9395D01*
X3395Y9396*
X3389Y9397*
X3372Y9398*
X3296Y9399*
Y9498*
X3402Y9503*
Y9394*
G37*
G36*
X16447Y9459D02*
X16338Y9458D01*
X16347Y9459*
X16356Y9462*
X16363Y9467*
X16370Y9474*
X16375Y9483*
X16379Y9494*
X16383Y9507*
X16385Y9522*
X16387Y9539*
X16387Y9557*
X16486*
X16447Y9459*
G37*
G36*
X15385Y9664D02*
X15378Y9658D01*
X15373Y9648*
X15368Y9635*
X15363Y9617*
X15360Y9595*
X15358Y9580*
X15362Y9555*
X15369Y9530*
X15377Y9508*
X15387Y9490*
X15400Y9477*
X15414Y9467*
X15429Y9461*
X15447Y9459*
X15229*
X15215Y9461*
X15203Y9467*
X15201Y9469*
X15157*
X15157Y9507*
X15151Y9595*
X15147Y9617*
X15143Y9635*
X15138Y9648*
X15133Y9658*
X15126Y9664*
X15119Y9666*
X15392*
X15385Y9664*
G37*
G36*
X15730Y9055D02*
X15728Y9073D01*
X15722Y9090*
X15712Y9105*
X15699Y9118*
X15681Y9128*
X15659Y9137*
X15633Y9144*
X15604Y9149*
X15588Y9151*
X15573Y9149*
X15543Y9144*
X15517Y9137*
X15495Y9128*
X15478Y9118*
X15464Y9105*
X15454Y9090*
X15448Y9073*
X15446Y9055*
Y9448*
X15448Y9430*
X15454Y9413*
X15464Y9398*
X15478Y9385*
X15495Y9375*
X15517Y9366*
X15543Y9359*
X15573Y9354*
X15588Y9353*
X15604Y9354*
X15633Y9359*
X15659Y9366*
X15681Y9375*
X15699Y9385*
X15712Y9398*
X15722Y9413*
X15728Y9430*
X15730Y9448*
Y9055*
G37*
G36*
X17195Y9399D02*
X17196Y9382D01*
X17199Y9367*
X17202Y9354*
X17207Y9343*
X17212Y9334*
X17219Y9327*
X17226Y9322*
X17234Y9319*
X17244Y9318*
X17047*
X17056Y9319*
X17065Y9322*
X17072Y9327*
X17078Y9334*
X17084Y9343*
X17088Y9354*
X17092Y9367*
X17094Y9382*
X17096Y9399*
X17096Y9418*
X17194*
X17195Y9399*
G37*
G36*
X17943D02*
X17944Y9382D01*
X17947Y9367*
X17950Y9354*
X17955Y9343*
X17960Y9334*
X17967Y9327*
X17974Y9322*
X17982Y9319*
X17992Y9318*
X17795*
X17804Y9319*
X17813Y9322*
X17820Y9327*
X17826Y9334*
X17832Y9343*
X17836Y9354*
X17840Y9367*
X17842Y9382*
X17844Y9399*
X17844Y9418*
X17942*
X17943Y9399*
G37*
G36*
X15230Y9055D02*
X15228Y9073D01*
X15222Y9090*
X15212Y9105*
X15199Y9118*
X15181Y9128*
X15159Y9137*
X15133Y9144*
X15104Y9149*
X15088Y9151*
X15073Y9149*
X15043Y9144*
X15017Y9137*
X14995Y9128*
X14978Y9118*
X14964Y9105*
X14954Y9090*
X14948Y9073*
X14946Y9055*
Y9448*
X14948Y9430*
X14954Y9413*
X14964Y9398*
X14978Y9385*
X14995Y9375*
X15017Y9366*
X15043Y9359*
X15073Y9354*
X15088Y9353*
X15104Y9354*
X15133Y9359*
X15159Y9366*
X15181Y9375*
X15199Y9385*
X15212Y9398*
X15222Y9413*
X15228Y9430*
X15230Y9448*
Y9055*
G37*
G36*
X3680Y3435D02*
X3683Y3427D01*
X3688Y3419*
X3695Y3413*
X3704Y3408*
X3715Y3403*
X3728Y3400*
X3742Y3397*
X3759Y3396*
X3778Y3395*
Y3297*
X3759Y3296*
X3742Y3295*
X3728Y3292*
X3715Y3289*
X3704Y3284*
X3695Y3279*
X3688Y3273*
X3683Y3265*
X3680Y3257*
X3679Y3248*
Y3444*
X3680Y3435*
G37*
G36*
X10217Y3308D02*
X10216Y3306D01*
X10213Y3304*
X10208Y3302*
X10202Y3301*
X10193Y3300*
X10169Y3298*
X10119Y3297*
Y3395*
X10138Y3396*
X10155Y3397*
X10169Y3400*
X10182Y3403*
X10193Y3408*
X10202Y3413*
X10209Y3419*
X10214Y3427*
X10217Y3435*
X10218Y3444*
X10217Y3308*
G37*
G36*
X11782Y3505D02*
X11773Y3502D01*
X11766Y3497*
X11759Y3490*
X11754Y3481*
X11750Y3470*
X11746Y3457*
X11744Y3442*
X11742Y3425*
X11742Y3406*
X11643*
X11643Y3425*
X11641Y3442*
X11639Y3457*
X11635Y3470*
X11631Y3481*
X11626Y3490*
X11619Y3497*
X11612Y3502*
X11603Y3505*
X11594Y3506*
X11791*
X11782Y3505*
G37*
G36*
X9823Y3297D02*
X9805Y3296D01*
X9790Y3294*
X9779Y3291*
X9771Y3286*
X9767Y3279*
X9765Y3272*
X9768Y3263*
X9773Y3252*
X9782Y3240*
X9794Y3227*
X9655*
X9641Y3240*
X9626Y3252*
X9611Y3263*
X9595Y3272*
X9578Y3279*
X9561Y3286*
X9543Y3291*
X9525Y3294*
X9506Y3296*
X9487Y3297*
X9606Y3395*
X9823Y3297*
G37*
G36*
X2186Y3111D02*
X2184Y3118D01*
X2178Y3125*
X2168Y3130*
X2154Y3135*
X2137Y3140*
X2115Y3143*
X2089Y3146*
X2026Y3149*
X1989Y3149*
Y3346*
X2026Y3346*
X2115Y3352*
X2137Y3356*
X2154Y3360*
X2168Y3365*
X2178Y3370*
X2184Y3377*
X2186Y3384*
Y3111*
G37*
G36*
X12530Y3284D02*
X12533Y3268D01*
X12537Y3251*
X12543Y3234*
X12551Y3218*
X12561Y3201*
X12572Y3184*
X12586Y3167*
X12601Y3150*
X12618Y3132*
X12342*
X12359Y3150*
X12387Y3184*
X12399Y3201*
X12409Y3218*
X12416Y3234*
X12423Y3251*
X12427Y3268*
X12430Y3284*
X12431Y3300*
X12529*
X12530Y3284*
G37*
G36*
X13317D02*
X13320Y3268D01*
X13324Y3251*
X13331Y3234*
X13339Y3218*
X13348Y3201*
X13360Y3184*
X13373Y3167*
X13388Y3150*
X13405Y3132*
X13129*
X13146Y3150*
X13175Y3184*
X13186Y3201*
X13196Y3218*
X13204Y3234*
X13210Y3251*
X13215Y3268*
X13217Y3284*
X13218Y3300*
X13316*
X13317Y3284*
G37*
G36*
X12569Y3505D02*
X12561Y3502D01*
X12553Y3497*
X12547Y3490*
X12541Y3481*
X12537Y3470*
X12534Y3457*
X12531Y3442*
X12530Y3425*
X12529Y3406*
X12431*
X12430Y3425*
X12429Y3442*
X12426Y3457*
X12423Y3470*
X12418Y3481*
X12413Y3490*
X12407Y3497*
X12399Y3502*
X12391Y3505*
X12381Y3506*
X12578*
X12569Y3505*
G37*
G36*
X4384Y3990D02*
X4383Y3986D01*
X4382Y3980*
X4381Y3962*
X4379Y3886*
X4281*
X4276Y3993*
X4385*
X4384Y3990*
G37*
G36*
X4581D02*
X4580Y3986D01*
X4579Y3980*
X4578Y3962*
X4576Y3886*
X4478*
X4473Y3993*
X4582*
X4581Y3990*
G37*
G36*
X6943D02*
X6942Y3986D01*
X6941Y3980*
X6940Y3962*
X6939Y3886*
X6840*
X6835Y3993*
X6944*
X6943Y3990*
G37*
G36*
X11191Y4096D02*
X11193Y4082D01*
X11197Y4070*
X11202Y4063*
X11208Y4058*
X11216Y4057*
X11225Y4059*
X11235Y4064*
X11247Y4073*
X11260Y4086*
Y3946*
X11247Y3932*
X11235Y3917*
X11225Y3902*
X11216Y3886*
X11208Y3870*
X11202Y3853*
X11197Y3835*
X11193Y3817*
X11191Y3798*
X11190Y3778*
X11092Y3897*
X11190Y4114*
X11191Y4096*
G37*
G36*
X13356Y3505D02*
X13348Y3502D01*
X13341Y3497*
X13334Y3490*
X13329Y3481*
X13324Y3470*
X13321Y3457*
X13318Y3442*
X13317Y3425*
X13316Y3406*
X13218*
X13218Y3425*
X13216Y3442*
X13214Y3457*
X13210Y3470*
X13206Y3481*
X13200Y3490*
X13194Y3497*
X13187Y3502*
X13178Y3505*
X13169Y3506*
X13366*
X13356Y3505*
G37*
G36*
X14065D02*
X14057Y3502D01*
X14049Y3497*
X14043Y3490*
X14037Y3481*
X14033Y3470*
X14030Y3457*
X14027Y3442*
X14026Y3425*
X14025Y3406*
X13927*
X13926Y3425*
X13925Y3442*
X13922Y3457*
X13919Y3470*
X13914Y3481*
X13909Y3490*
X13903Y3497*
X13895Y3502*
X13887Y3505*
X13877Y3506*
X14074*
X14065Y3505*
G37*
G36*
X6923Y3509D02*
X6913Y3498D01*
X6904Y3486*
X6896Y3475*
X6889Y3465*
X6885Y3454*
X6881Y3444*
X6879Y3433*
X6878Y3423*
X6879Y3413*
X6881Y3403*
X6748Y3536*
X6758Y3534*
X6768Y3533*
X6778Y3534*
X6789Y3536*
X6799Y3539*
X6810Y3544*
X6821Y3551*
X6831Y3559*
X6843Y3568*
X6854Y3578*
X6923Y3509*
G37*
G36*
X6727Y2139D02*
X6746Y2127D01*
X6768Y2116*
X6793Y2107*
X6821Y2099*
X6852Y2092*
X6885Y2088*
X6962Y2083*
X7004Y2082*
X6712Y1790*
X6712Y1833*
X6707Y1909*
X6702Y1943*
X6696Y1973*
X6688Y2001*
X6678Y2026*
X6668Y2048*
X6655Y2067*
X6641Y2083*
X6711Y2153*
X6727Y2139*
G37*
G36*
X9736Y2146D02*
X9755Y2133D01*
X9777Y2123*
X9802Y2113*
X9830Y2105*
X9861Y2097*
X9895Y2092*
X9972Y2084*
X10016Y2082*
X9712Y1801*
X9714Y1843*
X9711Y1918*
X9707Y1952*
X9702Y1982*
X9694Y2010*
X9685Y2035*
X9675Y2057*
X9662Y2076*
X9648Y2092*
X9720Y2159*
X9736Y2146*
G37*
G36*
X10830Y2193D02*
X10844Y2183D01*
X10863Y2173*
X10913Y2147*
X11022Y2100*
X11116Y2062*
X10735Y1901*
X10748Y1935*
X10758Y1967*
X10764Y1997*
X10768Y2026*
X10768Y2053*
X10765Y2078*
X10759Y2101*
X10750Y2122*
X10738Y2142*
X10722Y2160*
X10820Y2201*
X10830Y2193*
G37*
G36*
X3727Y2139D02*
X3746Y2127D01*
X3768Y2116*
X3793Y2107*
X3821Y2099*
X3852Y2092*
X3885Y2088*
X3962Y2083*
X4004Y2082*
X3712Y1790*
X3712Y1833*
X3707Y1909*
X3702Y1943*
X3696Y1973*
X3688Y2001*
X3678Y2026*
X3668Y2048*
X3655Y2067*
X3641Y2083*
X3711Y2153*
X3727Y2139*
G37*
G36*
X12058Y1234D02*
X12063Y1212D01*
X12071Y1189*
X12082Y1165*
X12096Y1139*
X12113Y1113*
X12134Y1086*
X12184Y1028*
X12214Y998*
X11801*
X11831Y1028*
X11881Y1086*
X11902Y1113*
X11919Y1139*
X11933Y1165*
X11944Y1189*
X11952Y1212*
X11957Y1234*
X11958Y1255*
X12057*
X12058Y1234*
G37*
G36*
X12097Y1492D02*
X12088Y1489D01*
X12081Y1484*
X12074Y1477*
X12069Y1468*
X12065Y1457*
X12061Y1445*
X12059Y1430*
X12057Y1413*
X12057Y1394*
X11958*
X11958Y1413*
X11956Y1430*
X11954Y1445*
X11950Y1457*
X11946Y1468*
X11941Y1477*
X11934Y1484*
X11927Y1489*
X11918Y1492*
X11909Y1493*
X12106*
X12097Y1492*
G37*
G36*
X8827Y1553D02*
X8801Y1572D01*
X8775Y1587*
X8751Y1597*
X8727Y1604*
X8705Y1608*
X8683Y1607*
X8661Y1602*
X8641Y1594*
X8622Y1581*
X8603Y1565*
X8555Y1656*
X8569Y1671*
X8602Y1711*
X8640Y1762*
X8730Y1899*
X8755Y1940*
X8827Y1553*
G37*
G36*
X2890Y2199D02*
X2903Y2190D01*
X2941Y2165*
X3063Y2093*
X3148Y2047*
X2760Y1948*
X2777Y1977*
X2791Y2004*
X2800Y2031*
X2807Y2056*
X2809Y2080*
X2808Y2103*
X2803Y2125*
X2794Y2146*
X2782Y2165*
X2766Y2184*
X2881Y2208*
X2890Y2199*
G37*
G36*
X2816Y3170D02*
X3089D01*
X3082Y3168*
X3075Y3162*
X3069Y3152*
X3064Y3139*
X3060Y3121*
X3057Y3099*
X3054Y3074*
X3054Y3067*
X3055Y3057*
X3060Y3027*
X3066Y3002*
X3075Y2980*
X3086Y2962*
X3099Y2948*
X3114Y2938*
X3130Y2932*
X3149Y2930*
X2914Y2931*
X2903Y2933*
X2892Y2939*
X2883Y2949*
X2876Y2963*
X2872Y2973*
X2854*
X2853Y3011*
X2848Y3099*
X2844Y3121*
X2840Y3139*
X2835Y3152*
X2829Y3162*
X2823Y3168*
X2816Y3170*
X2814Y3185*
X2808Y3198*
X2798Y3210*
X2784Y3220*
X2767Y3228*
X2745Y3235*
X2719Y3241*
X2690Y3244*
X2680Y3245*
X2663Y3244*
X2634Y3239*
X2608Y3232*
X2586Y3223*
X2568Y3212*
X2555Y3199*
X2545Y3185*
X2539Y3168*
X2537Y3149*
X2538Y3384*
X2540Y3396*
X2546Y3406*
X2555Y3415*
X2569Y3423*
X2587Y3429*
X2609Y3435*
X2619Y3436*
Y3444*
X2656Y3445*
X2719Y3451*
X2745Y3457*
X2767Y3464*
X2784Y3472*
X2798Y3482*
X2808Y3494*
X2814Y3507*
X2816Y3522*
Y3170*
G37*
G36*
X1683Y3371D02*
X1700Y3366D01*
X1736Y3357*
X1756Y3354*
X1798Y3349*
X1845Y3346*
X1870Y3346*
X1968Y3149*
X1943Y3148*
X1920Y3146*
X1899Y3141*
X1879Y3135*
X1862Y3127*
X1847Y3118*
X1833Y3106*
X1822Y3093*
X1812Y3078*
X1804Y3062*
X1667Y3377*
X1683Y3371*
G37*
G36*
X14026Y3245D02*
X14029Y3228D01*
X14033Y3212*
X14039Y3195*
X14047Y3178*
X14057Y3161*
X14069Y3144*
X14082Y3127*
X14097Y3110*
X14114Y3093*
X13838*
X13855Y3110*
X13883Y3144*
X13895Y3161*
X13905Y3178*
X13913Y3195*
X13919Y3212*
X13923Y3228*
X13926Y3245*
X13927Y3261*
X14025*
X14026Y3245*
G37*
G36*
X3730Y2580D02*
X3722Y2577D01*
X3715Y2572*
X3708Y2565*
X3703Y2556*
X3698Y2545*
X3695Y2532*
X3692Y2517*
X3691Y2500*
X3690Y2481*
X3592*
X3592Y2500*
X3590Y2517*
X3588Y2532*
X3584Y2545*
X3580Y2556*
X3574Y2565*
X3568Y2572*
X3561Y2577*
X3552Y2580*
X3543Y2581*
X3740*
X3730Y2580*
G37*
G36*
X8088Y2248D02*
X8090Y2228D01*
X8094Y2207*
X8101Y2184*
X8112Y2159*
X8125Y2132*
X8141Y2104*
X8182Y2043*
X8207Y2010*
X8235Y1975*
X7824Y2019*
X7856Y2045*
X7909Y2095*
X7930Y2120*
X7948Y2144*
X7963Y2168*
X7975Y2191*
X7983Y2214*
X7988Y2237*
X7990Y2259*
X8088Y2248*
G37*
G36*
X11909Y2137D02*
X11923Y2125D01*
X11937Y2115*
X11951Y2105*
X11965Y2098*
X11979Y2091*
X11992Y2086*
X12006Y2083*
X12020Y2081*
X12034Y2080*
X11755*
X11768Y2081*
X11778Y2083*
X11785Y2086*
X11789Y2091*
X11791Y2098*
X11789Y2105*
X11785Y2115*
X11778Y2125*
X11768Y2137*
X11755Y2151*
X11894*
X11909Y2137*
G37*
G36*
X2530Y2614D02*
X2526Y2607D01*
X2525Y2597*
X2527Y2586*
X2533Y2573*
X2541Y2558*
X2553Y2542*
X2568Y2523*
X2607Y2481*
X2498Y2451*
X2480Y2469*
X2446Y2497*
X2431Y2507*
X2416Y2515*
X2403Y2521*
X2390Y2525*
X2379Y2526*
X2369Y2524*
X2359Y2520*
X2538Y2620*
X2530Y2614*
G37*
G36*
X3402Y5260D02*
X3400Y5261D01*
X3395Y5262*
X3389Y5263*
X3372Y5264*
X3296Y5265*
Y5364*
X3402Y5369*
Y5260*
G37*
G36*
X2892Y5541D02*
X2895Y5533D01*
X2900Y5526*
X2907Y5519*
X2916Y5514*
X2927Y5509*
X2940Y5506*
X2955Y5503*
X2972Y5502*
X2990Y5502*
Y5403*
X2972Y5403*
X2955Y5401*
X2940Y5399*
X2927Y5395*
X2916Y5391*
X2907Y5385*
X2900Y5379*
X2895Y5372*
X2892Y5363*
X2891Y5354*
Y5551*
X2892Y5541*
G37*
G36*
X1250Y6069D02*
X1264Y6051D01*
X1278Y6036*
X1294Y6023*
X1311Y6011*
X1328Y6002*
X1347Y5995*
X1367Y5990*
X1387Y5987*
X1409Y5986*
Y5887*
X1387Y5886*
X1367Y5883*
X1347Y5878*
X1328Y5871*
X1311Y5862*
X1294Y5850*
X1278Y5837*
X1264Y5822*
X1250Y5804*
X1237Y5785*
Y6088*
X1250Y6069*
G37*
G36*
X8367Y5111D02*
X8371Y5102D01*
X8378Y5091*
X8387Y5077*
X8415Y5045*
X8476Y4979*
X8502Y4953*
X8432Y4883*
X8406Y4909*
X8294Y5007*
X8291Y5009*
X8281Y5012*
X8267Y5013*
X8253Y5012*
X8244Y5009*
X8240Y5007*
X8227Y4997*
X8194Y4970*
X8129Y4909*
X8103Y4883*
X8033Y4953*
X8059Y4979*
X8157Y5091*
X8163Y5102*
X8167Y5111*
X8169Y5118*
X8190Y5096*
X8267Y5118*
X8300Y5052*
X8366Y5118*
X8367Y5111*
G37*
G36*
X4040Y4974D02*
X4045Y4973D01*
X4051Y4973*
X4068Y4971*
X4144Y4970*
Y4872*
X4038Y4866*
Y4975*
X4040Y4974*
G37*
G36*
X4866Y4929D02*
X4856Y4931D01*
X4846Y4931*
X4835Y4931*
X4825Y4929*
X4814Y4925*
X4803Y4920*
X4792Y4914*
X4781Y4906*
X4770Y4897*
X4759Y4886*
X4689Y4956*
X4700Y4967*
X4709Y4978*
X4717Y4989*
X4723Y5000*
X4728Y5011*
X4732Y5022*
X4734Y5032*
X4735Y5043*
X4734Y5053*
X4732Y5063*
X4866Y4929*
G37*
G36*
X1350Y5233D02*
X1336Y5217D01*
X1324Y5198*
X1313Y5176*
X1303Y5151*
X1296Y5123*
X1289Y5092*
X1284Y5059*
X1279Y4982*
X1279Y4940*
X987Y5232*
X1029Y5232*
X1106Y5237*
X1140Y5242*
X1170Y5248*
X1198Y5256*
X1223Y5266*
X1245Y5276*
X1264Y5289*
X1280Y5303*
X1350Y5233*
G37*
G36*
X8358Y6110D02*
X8352Y6101D01*
X8346Y6089*
X8340Y6077*
X8336Y6063*
X8333Y6047*
X8330Y6030*
X8328Y6012*
X8326Y5971*
X8129*
X8129Y5992*
X8126Y6030*
X8123Y6047*
X8120Y6063*
X8115Y6077*
X8110Y6089*
X8104Y6101*
X8098Y6110*
X8090Y6119*
X8366*
X8358Y6110*
G37*
G36*
X8914Y6758D02*
X8923Y6755D01*
X8936Y6752*
X8952Y6749*
X8995Y6745*
X9084Y6742*
X9121Y6742*
Y6643*
X9084Y6643*
X8936Y6633*
X8923Y6630*
X8914Y6627*
X8908Y6623*
Y6762*
X8914Y6758*
G37*
G36*
X9347Y6638D02*
X9345Y6639D01*
X9340Y6640*
X9334Y6641*
X9317Y6642*
X9241Y6643*
Y6742*
X9347Y6747*
Y6638*
G37*
G36*
X11506Y6906D02*
X11509Y6890D01*
X11513Y6873*
X11520Y6857*
X11528Y6840*
X11537Y6823*
X11549Y6806*
X11562Y6789*
X11577Y6772*
X11594Y6754*
X11318*
X11335Y6772*
X11364Y6806*
X11375Y6823*
X11385Y6840*
X11393Y6857*
X11399Y6873*
X11403Y6890*
X11406Y6906*
X11407Y6922*
X11505*
X11506Y6906*
G37*
G36*
X10222Y6817D02*
X10235Y6807D01*
X10250Y6798*
X10266Y6791*
X10284Y6785*
X10303Y6780*
X10323Y6776*
X10344Y6773*
X10367Y6772*
X10391Y6771*
X10196Y6576*
X10196Y6600*
X10192Y6645*
X10188Y6665*
X10183Y6684*
X10177Y6701*
X10169Y6717*
X10161Y6732*
X10151Y6746*
X10140Y6758*
X10210Y6827*
X10222Y6817*
G37*
G36*
X8327Y6527D02*
X8330Y6489D01*
X8333Y6472*
X8336Y6456*
X8340Y6442*
X8346Y6429*
X8352Y6418*
X8358Y6408*
X8360Y6407*
X8362Y6405*
X8370Y6403*
X8379Y6402*
X8389Y6404*
X8400Y6408*
X8412Y6415*
X8425Y6423*
X8438Y6434*
X8453Y6447*
X8469Y6461*
X8577Y6292*
X8393Y6152*
X8357Y6400*
X8090*
X8098Y6408*
X8104Y6418*
X8110Y6429*
X8115Y6442*
X8120Y6456*
X8123Y6472*
X8126Y6489*
X8128Y6507*
X8129Y6548*
X8326*
X8327Y6527*
G37*
G36*
X10514Y6416D02*
X10486Y6382D01*
X10474Y6365*
X10465Y6348*
X10457Y6332*
X10450Y6315*
X10446Y6298*
X10443Y6282*
X10442Y6266*
X10344*
X10343Y6282*
X10340Y6298*
X10336Y6315*
X10330Y6332*
X10322Y6348*
X10312Y6365*
X10301Y6382*
X10287Y6399*
X10272Y6416*
X10255Y6434*
X10531*
X10514Y6416*
G37*
G36*
X11454Y6417D02*
X11430Y6417D01*
X11386Y6412*
X11366Y6408*
X11347Y6403*
X11329Y6397*
X11313Y6390*
X11298Y6381*
X11285Y6372*
X11273Y6361*
X11203Y6430*
X11214Y6442*
X11224Y6456*
X11232Y6471*
X11240Y6487*
X11246Y6504*
X11251Y6523*
X11255Y6543*
X11258Y6565*
X11259Y6588*
X11259Y6612*
X11454Y6417*
G37*
G36*
X13053Y4133D02*
X13052Y4143D01*
X13049Y4151*
X13044Y4159*
X13037Y4165*
X13028Y4170*
X13017Y4175*
X13004Y4178*
X12989Y4181*
X12972Y4182*
X12954Y4183*
Y4281*
X12972Y4282*
X12989Y4283*
X13004Y4285*
X13017Y4289*
X13028Y4293*
X13037Y4299*
X13044Y4305*
X13049Y4313*
X13052Y4321*
X13053Y4330*
Y4133*
G37*
G36*
X13404Y4321D02*
X13407Y4313D01*
X13412Y4305*
X13419Y4299*
X13428Y4293*
X13439Y4289*
X13451Y4285*
X13466Y4283*
X13483Y4282*
X13502Y4281*
Y4183*
X13483Y4182*
X13466Y4181*
X13451Y4178*
X13439Y4175*
X13428Y4170*
X13419Y4165*
X13412Y4159*
X13407Y4151*
X13404Y4143*
X13403Y4133*
Y4330*
X13404Y4321*
G37*
G36*
X13762Y4133D02*
X13761Y4143D01*
X13758Y4151*
X13753Y4159*
X13746Y4165*
X13737Y4170*
X13726Y4175*
X13713Y4178*
X13698Y4181*
X13681Y4182*
X13662Y4183*
Y4281*
X13681Y4282*
X13698Y4283*
X13713Y4285*
X13726Y4289*
X13737Y4293*
X13746Y4299*
X13753Y4305*
X13758Y4313*
X13761Y4321*
X13762Y4330*
Y4133*
G37*
G36*
X12656Y4321D02*
X12659Y4313D01*
X12664Y4305*
X12671Y4299*
X12680Y4293*
X12690Y4289*
X12703Y4285*
X12718Y4283*
X12735Y4282*
X12754Y4281*
Y4183*
X12735Y4182*
X12718Y4181*
X12703Y4178*
X12690Y4175*
X12680Y4170*
X12671Y4165*
X12664Y4159*
X12659Y4151*
X12656Y4143*
X12655Y4133*
Y4330*
X12656Y4321*
G37*
G36*
X10156Y4205D02*
X10171Y4192D01*
X10178Y4186*
X10185Y4182*
X10192Y4178*
X10199Y4175*
X10205Y4173*
X10211Y4172*
X10217Y4172*
X10218Y3934*
X10218Y3948*
X10216Y3962*
X10212Y3975*
X10207Y3989*
X10201Y4003*
X10193Y4017*
X10184Y4031*
X10173Y4045*
X10161Y4059*
X10148Y4073*
Y4212*
X10156Y4205*
G37*
G36*
X11868Y4321D02*
X11871Y4313D01*
X11876Y4305*
X11883Y4299*
X11892Y4293*
X11903Y4289*
X11916Y4285*
X11931Y4283*
X11948Y4282*
X11967Y4281*
Y4183*
X11948Y4182*
X11931Y4181*
X11916Y4178*
X11903Y4175*
X11892Y4170*
X11883Y4165*
X11876Y4159*
X11871Y4151*
X11868Y4143*
X11867Y4133*
Y4330*
X11868Y4321*
G37*
G36*
X12305Y4133D02*
X12304Y4143D01*
X12301Y4151*
X12296Y4159*
X12289Y4165*
X12280Y4170*
X12269Y4175*
X12256Y4178*
X12241Y4181*
X12224Y4182*
X12205Y4183*
Y4281*
X12224Y4282*
X12241Y4283*
X12256Y4285*
X12269Y4289*
X12280Y4293*
X12289Y4299*
X12296Y4305*
X12301Y4313*
X12304Y4321*
X12305Y4330*
Y4133*
G37*
G36*
X10119Y4380D02*
X10107Y4366D01*
X10097Y4352*
X10090Y4338*
X10086Y4324*
X10084Y4311*
X10086Y4297*
X10090Y4283*
X10097Y4269*
X10107Y4255*
X10119Y4241*
X10029Y4192*
X10015Y4205*
X10000Y4217*
X9985Y4227*
X9969Y4236*
X9952Y4244*
X9935Y4250*
X9918Y4255*
X9899Y4259*
X9880Y4261*
X9861Y4261*
Y4360*
X9880Y4360*
X9899Y4363*
X9918Y4366*
X9935Y4371*
X9952Y4377*
X9969Y4385*
X9985Y4394*
X10000Y4404*
X10015Y4416*
X10029Y4429*
X10119Y4380*
G37*
G36*
X5369Y4628D02*
X5260D01*
X5261Y4631*
X5262Y4635*
X5263Y4641*
X5264Y4659*
X5265Y4735*
X5364*
X5369Y4628*
G37*
G36*
X5566D02*
X5457D01*
X5458Y4631*
X5459Y4635*
X5460Y4641*
X5461Y4659*
X5462Y4735*
X5561*
X5566Y4628*
G37*
G36*
X7928D02*
X7819D01*
X7820Y4631*
X7821Y4635*
X7822Y4640*
X7823Y4656*
X7824Y4707*
Y4724*
X7923*
X7928Y4628*
G37*
G36*
X8897Y4729D02*
X8901Y4670D01*
X8903Y4658*
X8907Y4640*
X8909Y4634*
X8912Y4628*
X8803*
X8802Y4628*
X8802Y4629*
X8801Y4632*
X8800Y4637*
X8800Y4652*
X8799Y4704*
X8897Y4748*
X8897Y4729*
G37*
G36*
X9113Y4400D02*
X9116Y4391D01*
X9121Y4384*
X9128Y4378*
X9137Y4372*
X9148Y4368*
X9161Y4364*
X9176Y4362*
X9193Y4360*
X9212Y4360*
Y4261*
X9193Y4261*
X9176Y4259*
X9161Y4257*
X9148Y4253*
X9137Y4249*
X9128Y4244*
X9121Y4237*
X9116Y4230*
X9113Y4221*
X9112Y4212*
Y4409*
X9113Y4400*
G37*
G36*
X1207Y4287D02*
X1198Y4275D01*
X1190Y4264*
X1186Y4255*
X1185Y4247*
X1186Y4241*
X1190Y4236*
X1198Y4232*
X1207Y4230*
X1220Y4229*
X942*
X956Y4230*
X969Y4232*
X983Y4236*
X997Y4241*
X1011Y4247*
X1025Y4255*
X1039Y4264*
X1053Y4275*
X1067Y4287*
X1081Y4300*
X1220*
X1207Y4287*
G37*
G36*
X3250Y4588D02*
X3255Y4555D01*
X3265Y4525*
X3279Y4500*
X3297Y4478*
X3318Y4460*
X3344Y4446*
X3357Y4442*
X3360Y4443*
X3373Y4448*
X3384Y4454*
X3394Y4461*
X3402Y4468*
Y4431*
X3407Y4431*
X3444Y4429*
X3402Y4401*
Y4192*
X3394Y4200*
X3384Y4207*
X3373Y4213*
X3360Y4218*
X3346Y4222*
X3330Y4226*
X3314Y4228*
X3295Y4230*
X3254Y4232*
Y4302*
X3149Y4232*
X3089Y4272*
Y4232*
X3052Y4231*
X2989Y4227*
X2963Y4223*
X2941Y4217*
X2924Y4211*
X2910Y4203*
X2900Y4195*
X2894Y4185*
X2892Y4174*
X2891Y4404*
X2854Y4429*
X2891Y4431*
X2891Y4527*
X2893Y4508*
X2899Y4492*
X2909Y4477*
X2923Y4464*
X2941Y4453*
X2956Y4447*
X2980Y4460*
X3002Y4478*
X3019Y4500*
X3033Y4525*
X3043Y4555*
X3049Y4588*
X3051Y4626*
X3248*
X3250Y4588*
G37*
G36*
X5315Y16807D02*
X5320Y16740D01*
X5322Y16729*
X5325Y16721*
X5328Y16715*
X5331Y16711*
X5335Y16710*
X5097*
X5101Y16711*
X5104Y16715*
X5107Y16721*
X5110Y16729*
X5112Y16740*
X5114Y16753*
X5117Y16787*
X5118Y16830*
X5314*
X5315Y16807*
G37*
G36*
X5730Y16929D02*
X5729Y16938D01*
X5726Y16946*
X5721Y16954*
X5714Y16960*
X5705Y16966*
X5694Y16970*
X5681Y16973*
X5667Y16976*
X5650Y16977*
X5631Y16978*
Y17076*
X5650Y17077*
X5667Y17078*
X5681Y17081*
X5694Y17084*
X5705Y17089*
X5714Y17094*
X5721Y17100*
X5726Y17108*
X5729Y17116*
X5730Y17126*
Y16929*
G37*
G36*
X5512Y17296D02*
X5516Y17252D01*
X5520Y17232*
X5525Y17213*
X5531Y17196*
X5538Y17179*
X5547Y17165*
X5557Y17151*
X5568Y17139*
X5498Y17069*
X5486Y17080*
X5472Y17090*
X5458Y17099*
X5441Y17106*
X5424Y17112*
X5405Y17117*
X5385Y17121*
X5363Y17124*
X5341Y17125*
X5316Y17126*
X5511Y17320*
X5512Y17296*
G37*
G36*
X3494Y16790D02*
X3496Y16774D01*
X3498Y16759*
X3502Y16746*
X3506Y16735*
X3511Y16726*
X3518Y16719*
X3525Y16714*
X3533Y16711*
X3543Y16710*
X3346*
X3355Y16711*
X3364Y16714*
X3371Y16719*
X3377Y16726*
X3383Y16735*
X3387Y16746*
X3391Y16759*
X3393Y16774*
X3395Y16790*
X3395Y16809*
X3494*
X3494Y16790*
G37*
G36*
X7580Y16931D02*
X7584Y16893D01*
X7591Y16857*
X7601Y16821*
X7613Y16787*
X7628Y16754*
X7646Y16722*
X7667Y16691*
X7691Y16662*
X7717Y16633*
X7619Y16453*
X7591Y16478*
X7563Y16498*
X7536Y16512*
X7508Y16520*
X7480Y16523*
X7452Y16520*
X7424Y16512*
X7396Y16498*
X7369Y16478*
X7341Y16453*
X7242Y16633*
X7269Y16662*
X7292Y16691*
X7313Y16722*
X7331Y16754*
X7347Y16787*
X7359Y16821*
X7369Y16857*
X7376Y16893*
X7380Y16931*
X7381Y16969*
X7578*
X7580Y16931*
G37*
G36*
X4173Y16624D02*
X4176Y16616D01*
X4180Y16608*
X4187Y16602*
X4196Y16597*
X4207Y16592*
X4220Y16589*
X4235Y16586*
X4251Y16585*
X4270Y16584*
Y16486*
X4251Y16485*
X4235Y16484*
X4220Y16481*
X4207Y16478*
X4196Y16473*
X4187Y16468*
X4185Y16466*
X4195Y16451*
X4208Y16434*
X4223Y16417*
X4241Y16398*
X4211Y16289*
X4189Y16311*
X4150Y16344*
X4134Y16355*
X4119Y16364*
X4106Y16369*
X4095Y16371*
X4085Y16371*
X4078Y16366*
X4072Y16359*
X4172Y16538*
X4168Y16528*
X4166Y16518*
X4167Y16506*
X4171Y16494*
X4172Y16492*
Y16633*
X4173Y16624*
G37*
G36*
X8968Y16859D02*
X8962Y16853D01*
X8957Y16843*
X8953Y16829*
X8949Y16812*
X8946Y16790*
X8942Y16735*
X8941Y16664*
X8744*
X8741Y16861*
X8975*
X8968Y16859*
G37*
G36*
X6014Y17452D02*
X6005Y17449D01*
X5998Y17444*
X5992Y17437*
X5986Y17428*
X5982Y17417*
X5978Y17404*
X5976Y17389*
X5974Y17372*
X5974Y17353*
X5876*
X5875Y17372*
X5874Y17389*
X5871Y17404*
X5868Y17417*
X5863Y17428*
X5858Y17437*
X5851Y17444*
X5844Y17449*
X5836Y17452*
X5826Y17453*
X6023*
X6014Y17452*
G37*
G36*
X6762D02*
X6753Y17449D01*
X6746Y17444*
X6740Y17437*
X6734Y17428*
X6730Y17417*
X6726Y17404*
X6724Y17389*
X6722Y17372*
X6722Y17353*
X6624*
X6623Y17372*
X6622Y17389*
X6619Y17404*
X6616Y17417*
X6611Y17428*
X6606Y17437*
X6599Y17444*
X6592Y17449*
X6584Y17452*
X6574Y17453*
X6771*
X6762Y17452*
G37*
G36*
X4244Y17414D02*
X4429D01*
X4429Y17396*
X4461*
X4455Y17394*
X4449Y17389*
X4444Y17379*
X4440Y17365*
X4437Y17347*
X4435Y17336*
X4439Y17322*
X4443Y17308*
X4448Y17296*
X4454Y17284*
X4461Y17275*
X4468Y17266*
X4430*
X4429Y17200*
X4232*
X4236Y17266*
X4192*
X4200Y17275*
X4207Y17284*
X4213Y17296*
X4218Y17308*
X4222Y17322*
X4226Y17338*
X4228Y17355*
X4230Y17373*
X4232Y17414*
X4243*
X4242Y17426*
X4236Y17442*
X4226Y17457*
X4212Y17470*
X4195Y17481*
X4173Y17490*
X4147Y17497*
X4117Y17502*
X4102Y17503*
X4087Y17502*
X4057Y17497*
X4031Y17490*
X4009Y17481*
X3991Y17470*
X3978Y17457*
X3968Y17442*
X3962Y17426*
X3960Y17407*
Y17801*
X3962Y17782*
X3968Y17765*
X3978Y17751*
X3991Y17738*
X4009Y17727*
X4031Y17718*
X4057Y17711*
X4087Y17706*
X4102Y17705*
X4117Y17706*
X4147Y17711*
X4173Y17718*
X4195Y17727*
X4212Y17738*
X4226Y17751*
X4236Y17765*
X4242Y17782*
X4244Y17801*
Y17414*
G37*
G36*
X9696Y17578D02*
X9709Y17568D01*
X9724Y17559*
X9740Y17551*
X9758Y17544*
X9777Y17537*
X9797Y17531*
X9843Y17521*
X9868Y17518*
X9647Y17352*
X9650Y17375*
X9652Y17397*
X9651Y17417*
X9649Y17437*
X9646Y17455*
X9641Y17472*
X9634Y17488*
X9626Y17503*
X9616Y17517*
X9605Y17529*
X9685Y17588*
X9696Y17578*
G37*
G36*
X5974Y17243D02*
X5976Y17227D01*
X5978Y17212*
X5982Y17199*
X5986Y17188*
X5992Y17179*
X5998Y17173*
X6005Y17168*
X6014Y17165*
X6023Y17164*
X5826*
X5836Y17165*
X5844Y17168*
X5851Y17173*
X5858Y17179*
X5863Y17188*
X5868Y17199*
X5871Y17212*
X5874Y17227*
X5875Y17243*
X5876Y17262*
X5974*
X5974Y17243*
G37*
G36*
X4959Y17394D02*
X4957Y17389D01*
X4956Y17379*
X4954Y17365*
X4951Y17300*
X4950Y17200*
X4753*
X4743Y17396*
X4961*
X4959Y17394*
G37*
G36*
X3461Y17396D02*
X3467Y17395D01*
X3473Y17392*
X3478Y17388*
X3482Y17381*
X3485Y17372*
X3488Y17361*
X3491Y17348*
X3492Y17333*
X3494Y17298*
X3395*
X3395Y17317*
X3393Y17334*
X3391Y17349*
X3387Y17362*
X3383Y17372*
X3377Y17381*
X3371Y17388*
X3364Y17393*
X3355Y17397*
X3346Y17398*
X3461Y17396*
G37*
G36*
X4489Y16437D02*
X4488Y16446D01*
X4485Y16454*
X4480Y16462*
X4473Y16468*
X4464Y16473*
X4453Y16478*
X4441Y16481*
X4426Y16484*
X4409Y16485*
X4391Y16486*
Y16584*
X4409Y16585*
X4426Y16586*
X4441Y16589*
X4453Y16592*
X4464Y16597*
X4473Y16602*
X4480Y16608*
X4485Y16616*
X4488Y16624*
X4489Y16633*
Y16437*
G37*
G36*
X12037Y15560D02*
X12039Y15543D01*
X12041Y15528*
X12045Y15515*
X12049Y15504*
X12055Y15495*
X12061Y15488*
X12068Y15483*
X12077Y15480*
X12086Y15479*
X11889*
X11899Y15480*
X11907Y15483*
X11914Y15488*
X11921Y15495*
X11926Y15504*
X11931Y15515*
X11934Y15528*
X11937Y15543*
X11938Y15560*
X11939Y15579*
X12037*
X12037Y15560*
G37*
G36*
X8941Y15807D02*
X8944Y15774D01*
X8949Y15744*
X8956Y15718*
X8965Y15696*
X8976Y15678*
X8989Y15665*
X9003Y15655*
X9020Y15649*
X9039Y15647*
X8842*
X8549Y15385*
X8561Y15400*
X8567Y15417*
X8567Y15438*
X8562Y15461*
X8551Y15487*
X8534Y15517*
X8511Y15549*
X8483Y15584*
X8409Y15664*
X8564Y15787*
X8604Y15749*
X8675Y15688*
X8701Y15670*
X8708Y15678*
X8719Y15696*
X8728Y15718*
X8735Y15744*
X8740Y15774*
X8743Y15807*
X8744Y15845*
X8941*
X8941Y15807*
G37*
G36*
X10601Y15974D02*
X10596Y15982D01*
X10589Y15987*
X10580Y15989*
X10569Y15987*
X10556Y15981*
X10541Y15972*
X10524Y15960*
X10505Y15945*
X10461Y15904*
X10451Y16032*
X10468Y16050*
X10495Y16083*
X10506Y16098*
X10514Y16112*
X10520Y16126*
X10523Y16138*
X10525Y16150*
X10524Y16161*
X10522Y16171*
X10601Y15974*
G37*
G36*
X10208Y15650D02*
X10194Y15634D01*
X10182Y15615*
X10171Y15593*
X10162Y15568*
X10154Y15540*
X10148Y15510*
X10143Y15476*
X10138Y15399*
X10137Y15357*
X9845Y15649*
X9888Y15649*
X9964Y15655*
X9998Y15659*
X10029Y15666*
X10056Y15674*
X10081Y15683*
X10103Y15694*
X10122Y15706*
X10138Y15720*
X10208Y15650*
G37*
G36*
X15298Y15381D02*
X15337Y15348D01*
X15354Y15336*
X15369Y15328*
X15382Y15322*
X15393Y15320*
X15402Y15321*
X15410Y15325*
X15416Y15332*
X15317Y15154*
X15321Y15164*
X15322Y15174*
X15321Y15185*
X15317Y15198*
X15311Y15211*
X15303Y15226*
X15292Y15241*
X15279Y15258*
X15264Y15275*
X15246Y15294*
X15276Y15403*
X15298Y15381*
G37*
G36*
X17146Y14922D02*
X17144Y14929D01*
X17139Y14936*
X17129Y14941*
X17115Y14946*
X17097Y14951*
X17076Y14954*
X17050Y14957*
X17033Y14958*
X16979Y14954*
X16957Y14951*
X16939Y14946*
X16926Y14941*
X16916Y14936*
X16910Y14929*
X16908Y14922*
Y15195*
X16910Y15188*
X16916Y15181*
X16926Y15176*
X16939Y15171*
X16957Y15167*
X16979Y15163*
X17004Y15160*
X17021Y15160*
X17076Y15163*
X17097Y15167*
X17115Y15171*
X17129Y15176*
X17139Y15181*
X17144Y15188*
X17146Y15195*
Y14922*
G37*
G36*
X14725Y14981D02*
X14998D01*
X14991Y14979*
X14985Y14973*
X14979Y14963*
X14974Y14950*
X14970Y14932*
X14966Y14910*
X14964Y14885*
X14963Y14867*
X14966Y14813*
X14970Y14792*
X14974Y14774*
X14979Y14760*
X14985Y14750*
X14991Y14744*
X14998Y14742*
X14725*
X14732Y14744*
X14739Y14750*
X14745Y14760*
X14750Y14774*
X14754Y14792*
X14757Y14813*
X14760Y14839*
X14761Y14856*
X14757Y14910*
X14754Y14932*
X14750Y14950*
X14745Y14963*
X14739Y14973*
X14732Y14979*
X14725Y14981*
X14723Y14996*
X14717Y15009*
X14707Y15021*
X14694Y15031*
X14676Y15039*
X14654Y15046*
X14629Y15052*
X14601Y15055*
X14599Y15055*
X14582Y15052*
X14567Y15049*
X14552Y15044*
X14540Y15039*
X14528Y15033*
X14519Y15027*
X14510Y15019*
Y15295*
X14519Y15287*
X14528Y15281*
X14540Y15275*
X14552Y15270*
X14567Y15265*
X14582Y15262*
X14597Y15259*
X14629Y15262*
X14654Y15268*
X14676Y15275*
X14694Y15283*
X14707Y15293*
X14717Y15305*
X14723Y15318*
X14725Y15333*
Y14981*
G37*
G36*
X11738Y16237D02*
X11741Y16228D01*
X11746Y16221*
X11753Y16214*
X11762Y16209*
X11773Y16205*
X11786Y16201*
X11801Y16199*
X11818Y16197*
X11837Y16197*
Y16098*
X11818Y16098*
X11801Y16096*
X11786Y16094*
X11773Y16090*
X11762Y16086*
X11753Y16081*
X11746Y16074*
X11741Y16067*
X11738Y16058*
X11737Y16049*
Y16246*
X11738Y16237*
G37*
G36*
X12022Y16049D02*
X12021Y16053D01*
X12020Y15973*
X12022*
X12024Y15973*
X12025Y15972*
X12026Y15972*
X12026Y15971*
Y15970*
X12026Y15969*
X12025Y15968*
X12024Y15966*
X12023Y15965*
X11953Y16034*
X12004Y16082*
X11997Y16086*
X11986Y16090*
X11973Y16094*
X11958Y16096*
X11941Y16098*
X11922Y16098*
Y16197*
X11941Y16197*
X11958Y16199*
X11973Y16201*
X11986Y16205*
X11997Y16209*
X12006Y16214*
X12013Y16221*
X12018Y16228*
X12021Y16237*
X12022Y16246*
Y16049*
G37*
G36*
X5355Y16696D02*
X5361Y16683D01*
X5370Y16671*
X5384Y16661*
X5402Y16653*
X5424Y16646*
X5449Y16640*
X5479Y16637*
X5512Y16634*
X5550Y16633*
Y16628*
X5729Y16573*
X5730Y16338*
X5728Y16357*
X5722Y16374*
X5712Y16388*
X5698Y16401*
X5681Y16412*
X5659Y16421*
X5633Y16428*
X5603Y16433*
X5570Y16436*
X5540Y16436*
X5512Y16436*
X5449Y16430*
X5424Y16424*
X5402Y16417*
X5384Y16409*
X5370Y16399*
X5361Y16387*
X5355Y16374*
X5353Y16359*
Y16711*
X5355Y16696*
G37*
G36*
X11522Y16049D02*
X11521Y16058D01*
X11518Y16067*
X11513Y16074*
X11506Y16081*
X11497Y16086*
X11486Y16090*
X11473Y16094*
X11458Y16096*
X11441Y16098*
X11422Y16098*
Y16197*
X11441Y16197*
X11458Y16199*
X11473Y16201*
X11486Y16205*
X11497Y16209*
X11506Y16214*
X11513Y16221*
X11518Y16228*
X11521Y16237*
X11522Y16246*
Y16049*
G37*
G36*
X10738Y16237D02*
X10741Y16228D01*
X10746Y16221*
X10753Y16214*
X10762Y16209*
X10773Y16205*
X10786Y16201*
X10801Y16199*
X10818Y16197*
X10837Y16197*
Y16098*
X10818Y16098*
X10801Y16096*
X10786Y16094*
X10773Y16090*
X10762Y16086*
X10753Y16081*
X10746Y16074*
X10741Y16067*
X10738Y16058*
X10737Y16049*
Y16246*
X10738Y16237*
G37*
G36*
X11022Y16049D02*
X11021Y16058D01*
X11018Y16067*
X11013Y16074*
X11006Y16081*
X10997Y16086*
X10986Y16090*
X10973Y16094*
X10958Y16096*
X10941Y16098*
X10922Y16098*
Y16197*
X10941Y16197*
X10958Y16199*
X10973Y16201*
X10986Y16205*
X10997Y16209*
X11006Y16214*
X11013Y16221*
X11018Y16228*
X11021Y16237*
X11022Y16246*
Y16049*
G37*
G36*
X11238Y16237D02*
X11241Y16228D01*
X11246Y16221*
X11253Y16214*
X11262Y16209*
X11273Y16205*
X11286Y16201*
X11301Y16199*
X11318Y16197*
X11337Y16197*
Y16098*
X11318Y16098*
X11301Y16096*
X11286Y16094*
X11273Y16090*
X11262Y16086*
X11253Y16081*
X11246Y16074*
X11241Y16067*
X11238Y16058*
X11237Y16049*
Y16246*
X11238Y16237*
G37*
G36*
X4744Y17407D02*
X4742Y17426D01*
X4736Y17442*
X4726Y17457*
X4712Y17470*
X4695Y17481*
X4673Y17490*
X4647Y17497*
X4617Y17502*
X4602Y17503*
X4586Y17502*
X4557Y17497*
X4531Y17490*
X4509Y17481*
X4491Y17470*
X4478Y17457*
X4468Y17442*
X4462Y17426*
X4460Y17407*
Y17801*
X4462Y17782*
X4468Y17765*
X4478Y17751*
X4491Y17738*
X4509Y17727*
X4531Y17718*
X4557Y17711*
X4586Y17706*
X4602Y17705*
X4617Y17706*
X4647Y17711*
X4673Y17718*
X4695Y17727*
X4712Y17738*
X4726Y17751*
X4736Y17765*
X4742Y17782*
X4744Y17801*
Y17407*
G37*
G36*
X4244Y19769D02*
X4243Y19779D01*
X4240Y19787*
X4235Y19794*
X4228Y19801*
X4219Y19806*
X4208Y19811*
X4195Y19814*
X4180Y19816*
X4163Y19818*
X4144Y19818*
Y19917*
X4163Y19917*
X4180Y19919*
X4195Y19921*
X4208Y19925*
X4219Y19929*
X4228Y19935*
X4235Y19941*
X4240Y19948*
X4243Y19957*
X4244Y19966*
Y19769*
G37*
G36*
X4461Y19957D02*
X4464Y19948D01*
X4469Y19941*
X4476Y19935*
X4485Y19929*
X4496Y19925*
X4509Y19921*
X4524Y19919*
X4540Y19917*
X4559Y19917*
Y19818*
X4540Y19818*
X4524Y19816*
X4509Y19814*
X4496Y19811*
X4485Y19806*
X4476Y19801*
X4469Y19794*
X4464Y19787*
X4461Y19779*
X4460Y19769*
Y19966*
X4461Y19957*
G37*
G36*
X4744Y19769D02*
X4743Y19779D01*
X4740Y19787*
X4735Y19794*
X4728Y19801*
X4719Y19806*
X4708Y19811*
X4695Y19814*
X4680Y19816*
X4663Y19818*
X4644Y19818*
Y19917*
X4663Y19917*
X4680Y19919*
X4695Y19921*
X4708Y19925*
X4719Y19929*
X4728Y19935*
X4735Y19941*
X4740Y19948*
X4743Y19957*
X4744Y19966*
Y19769*
G37*
G36*
X3961Y19957D02*
X3964Y19948D01*
X3969Y19941*
X3976Y19935*
X3985Y19929*
X3996Y19925*
X4009Y19921*
X4024Y19919*
X4040Y19917*
X4059Y19917*
Y19818*
X4040Y19818*
X4024Y19816*
X4009Y19814*
X3996Y19811*
X3985Y19806*
X3976Y19801*
X3969Y19794*
X3964Y19787*
X3961Y19779*
X3960Y19769*
Y19966*
X3961Y19957*
G37*
G36*
X10771Y19712D02*
X10810Y19679D01*
X10826Y19667*
X10841Y19658*
X10854Y19653*
X10865Y19650*
X10875Y19651*
X10882Y19655*
X10888Y19663*
X10789Y19485*
X10793Y19494*
X10794Y19505*
X10793Y19516*
X10790Y19529*
X10784Y19542*
X10776Y19556*
X10765Y19572*
X10752Y19588*
X10736Y19606*
X10719Y19624*
X10749Y19733*
X10771Y19712*
G37*
G36*
X3461Y19957D02*
X3464Y19948D01*
X3469Y19941*
X3476Y19935*
X3485Y19929*
X3496Y19925*
X3509Y19921*
X3524Y19919*
X3540Y19917*
X3559Y19917*
Y19818*
X3540Y19818*
X3524Y19816*
X3509Y19814*
X3496Y19811*
X3485Y19806*
X3476Y19801*
X3469Y19794*
X3464Y19787*
X3461Y19779*
X3460Y19769*
Y19966*
X3461Y19957*
G37*
G36*
X3744Y19769D02*
X3743Y19779D01*
X3740Y19787*
X3735Y19794*
X3728Y19801*
X3719Y19806*
X3708Y19811*
X3695Y19814*
X3680Y19816*
X3663Y19818*
X3644Y19818*
Y19917*
X3663Y19917*
X3680Y19919*
X3695Y19921*
X3708Y19925*
X3719Y19929*
X3728Y19935*
X3735Y19941*
X3740Y19948*
X3743Y19957*
X3744Y19966*
Y19769*
G37*
G36*
X5705Y20374D02*
X5663Y20373D01*
X5586Y20368*
X5552Y20363*
X5522Y20357*
X5494Y20349*
X5469Y20340*
X5447Y20329*
X5428Y20317*
X5412Y20303*
X5342Y20373*
X5356Y20389*
X5368Y20408*
X5379Y20430*
X5389Y20454*
X5396Y20482*
X5403Y20513*
X5408Y20547*
X5413Y20623*
X5413Y20666*
X5705Y20374*
G37*
G36*
X6455Y21063D02*
X6527Y21002D01*
X6559Y20979*
X6588Y20962*
X6615Y20951*
X6638Y20945*
X6659Y20945*
X6677Y20951*
X6693Y20962*
X6415Y20685*
X6426Y20700*
X6432Y20718*
X6432Y20739*
X6426Y20762*
X6415Y20789*
X6398Y20818*
X6376Y20850*
X6348Y20885*
X6275Y20963*
X6414Y21102*
X6455Y21063*
G37*
G36*
X3857Y21634D02*
X3863Y21618D01*
X3873Y21603*
X3887Y21590*
X3905Y21579*
X3927Y21570*
X3952Y21564*
X3982Y21559*
X4016Y21556*
X4053Y21555*
Y21358*
X4016Y21357*
X3982Y21354*
X3952Y21349*
X3927Y21342*
X3905Y21333*
X3887Y21322*
X3873Y21310*
X3863Y21295*
X3857Y21278*
X3855Y21259*
Y21653*
X3857Y21634*
G37*
G36*
X3455Y20345D02*
X3446Y20342D01*
X3439Y20337*
X3433Y20330*
X3427Y20322*
X3423Y20311*
X3419Y20298*
X3417Y20283*
X3415Y20266*
X3415Y20247*
X3316*
X3316Y20266*
X3315Y20283*
X3312Y20298*
X3309Y20311*
X3304Y20322*
X3299Y20330*
X3292Y20337*
X3285Y20342*
X3277Y20345*
X3267Y20346*
X3464*
X3455Y20345*
G37*
G36*
X5031Y19922D02*
X5017Y19908D01*
X5005Y19893*
X4995Y19879*
X4985Y19865*
X4978Y19852*
X4971Y19838*
X4966Y19824*
X4963Y19810*
X4961Y19796*
X4960Y19782*
X4961Y20036*
X4962Y20028*
X4964Y20022*
X4967Y20019*
X4972Y20018*
X4978Y20020*
X4986Y20023*
X4995Y20029*
X5005Y20037*
X5017Y20048*
X5031Y20061*
Y19922*
G37*
G36*
X3415Y20115D02*
X3417Y20099D01*
X3419Y20084*
X3422Y20071*
X3426Y20060*
X3431Y20051*
X3437Y20045*
X3444Y20040*
X3452Y20037*
X3461Y20036*
X3267Y20035*
X3277Y20036*
X3285Y20039*
X3292Y20044*
X3299Y20051*
X3304Y20060*
X3309Y20071*
X3312Y20083*
X3315Y20098*
X3316Y20115*
X3316Y20134*
X3415*
X3415Y20115*
G37*
G36*
X7000Y20373D02*
X6997Y20367D01*
X6995Y20357*
X6993Y20343*
X6990Y20304*
X6988Y20178*
X6791*
X6790Y20215*
X6787Y20249*
X6782Y20278*
X6775Y20304*
X6766Y20326*
X6755Y20343*
X6743Y20357*
X6728Y20367*
X6711Y20373*
X6692Y20375*
X7002*
X7000Y20373*
G37*
G36*
X11379Y19389D02*
X11378Y19399D01*
X11375Y19407*
X11370Y19414*
X11363Y19421*
X11354Y19426*
X11343Y19431*
X11330Y19434*
X11316Y19437*
X11299Y19438*
X11280Y19439*
Y19537*
X11299Y19537*
X11316Y19539*
X11330Y19541*
X11343Y19545*
X11354Y19549*
X11363Y19555*
X11370Y19561*
X11375Y19568*
X11378Y19577*
X11379Y19586*
Y19389*
G37*
G36*
X6416Y18694D02*
X6420Y18687D01*
X6427Y18681*
X6437Y18676*
X6450Y18671*
X6465Y18667*
X6483Y18665*
X6504Y18663*
X6555Y18661*
Y18464*
X6528Y18464*
X6483Y18460*
X6465Y18458*
X6450Y18454*
X6437Y18450*
X6427Y18444*
X6420Y18438*
X6416Y18431*
X6414Y18424*
Y18702*
X6416Y18694*
G37*
G36*
X11022Y18208D02*
X11020Y18227D01*
X11014Y18244*
X11004Y18258*
X10990Y18271*
X10972Y18282*
X10950Y18291*
X10925Y18298*
X10895Y18303*
X10879Y18304*
X10864Y18303*
X10834Y18298*
X10809Y18291*
X10787Y18282*
X10769Y18271*
X10755Y18258*
X10745Y18244*
X10739Y18227*
X10737Y18208*
Y18602*
X10739Y18583*
X10745Y18566*
X10755Y18552*
X10769Y18539*
X10787Y18528*
X10809Y18519*
X10834Y18512*
X10864Y18507*
X10879Y18506*
X10895Y18507*
X10925Y18512*
X10950Y18519*
X10972Y18528*
X10990Y18539*
X11004Y18552*
X11014Y18566*
X11020Y18583*
X11022Y18602*
Y18208*
G37*
G36*
X11522D02*
X11520Y18227D01*
X11514Y18244*
X11504Y18258*
X11490Y18271*
X11472Y18282*
X11450Y18291*
X11425Y18298*
X11395Y18303*
X11379Y18304*
X11364Y18303*
X11334Y18298*
X11309Y18291*
X11287Y18282*
X11269Y18271*
X11255Y18258*
X11245Y18244*
X11239Y18227*
X11237Y18208*
Y18602*
X11239Y18583*
X11245Y18566*
X11255Y18552*
X11269Y18539*
X11287Y18528*
X11309Y18519*
X11334Y18512*
X11364Y18507*
X11379Y18506*
X11395Y18507*
X11425Y18512*
X11450Y18519*
X11472Y18528*
X11490Y18539*
X11504Y18552*
X11514Y18566*
X11520Y18583*
X11522Y18602*
Y18208*
G37*
G36*
X9311Y18464D02*
X9303Y18461D01*
X9295Y18456*
X9289Y18450*
X9283Y18441*
X9279Y18430*
X9276Y18417*
X9273Y18402*
X9272Y18386*
X9271Y18367*
X9173*
X9172Y18386*
X9171Y18402*
X9168Y18417*
X9165Y18430*
X9160Y18441*
X9155Y18450*
X9149Y18456*
X9141Y18461*
X9133Y18464*
X9123Y18465*
X9320*
X9311Y18464*
G37*
G36*
X9348Y17981D02*
X9350Y17967D01*
X9354Y17953*
X9359Y17939*
X9365Y17925*
X9373Y17911*
X9382Y17897*
X9393Y17883*
X9405Y17869*
X9418Y17855*
Y17716*
X9409Y17726*
X9376Y17754*
X9369Y17758*
X9363Y17762*
X9358Y17764*
X9353Y17766*
X9349Y17767*
X9348Y17994*
X9348Y17981*
G37*
G36*
X8514Y18257D02*
X8515Y18240D01*
X8518Y18225*
X8521Y18212*
X8526Y18201*
X8531Y18192*
X8537Y18185*
X8545Y18180*
X8553Y18177*
X8563Y18176*
X8367Y18177*
X8376Y18178*
X8384Y18181*
X8391Y18186*
X8398Y18193*
X8403Y18202*
X8407Y18213*
X8411Y18226*
X8413Y18240*
X8414Y18257*
X8415Y18276*
X8513*
X8514Y18257*
G37*
G36*
X9272Y18257D02*
X9273Y18240D01*
X9276Y18225*
X9279Y18212*
X9283Y18201*
X9289Y18192*
X9295Y18185*
X9303Y18180*
X9311Y18177*
X9320Y18176*
X9123*
X9133Y18177*
X9141Y18180*
X9149Y18185*
X9155Y18192*
X9160Y18201*
X9165Y18212*
X9168Y18225*
X9171Y18240*
X9172Y18257*
X9173Y18276*
X9271*
X9272Y18257*
G37*
G36*
X10198Y19312D02*
X10196Y19327D01*
X10190Y19340*
X10180Y19351*
X10166Y19361*
X10148Y19370*
X10127Y19377*
X10101Y19382*
X10072Y19386*
X10038Y19389*
X10001Y19389*
Y19586*
X10038Y19587*
X10101Y19593*
X10127Y19599*
X10148Y19606*
X10166Y19614*
X10180Y19624*
X10190Y19636*
X10196Y19649*
X10198Y19664*
Y19312*
G37*
G36*
X9567Y19368D02*
X9526Y19326D01*
X9462Y19251*
X9439Y19219*
X9422Y19189*
X9411Y19163*
X9406Y19140*
X9407Y19120*
X9413Y19103*
X9426Y19090*
X9110Y19328*
X9127Y19319*
X9146Y19315*
X9168Y19316*
X9192Y19322*
X9219Y19333*
X9248Y19350*
X9279Y19372*
X9313Y19399*
X9349Y19431*
X9388Y19468*
X9567Y19368*
G37*
G36*
X11062Y19577D02*
X11065Y19568D01*
X11070Y19561*
X11077Y19555*
X11086Y19549*
X11097Y19545*
X11110Y19541*
X11124Y19539*
X11141Y19537*
X11160Y19537*
Y19439*
X11141Y19438*
X11124Y19437*
X11110Y19434*
X11097Y19431*
X11086Y19426*
X11077Y19421*
X11070Y19414*
X11065Y19407*
X11062Y19399*
X11061Y19389*
Y19586*
X11062Y19577*
G37*
G36*
X6989Y19096D02*
X6993Y19058D01*
X7000Y19022*
X7010Y18987*
X7023Y18952*
X7038Y18919*
X7056Y18887*
X7077Y18857*
X7100Y18827*
X7127Y18799*
X7029Y18619*
X7001Y18644*
X6973Y18663*
X6945Y18677*
X6917Y18686*
X6889Y18688*
X6861Y18686*
X6834Y18677*
X6806Y18663*
X6778Y18644*
X6750Y18619*
X6652Y18799*
X6678Y18827*
X6702Y18857*
X6723Y18887*
X6741Y18919*
X6756Y18952*
X6769Y18987*
X6778Y19022*
X6785Y19058*
X6790Y19096*
X6791Y19135*
X6988*
X6989Y19096*
G37*
G36*
X11083Y18807D02*
X11228D01*
X11232Y18732*
X11278Y18709*
X11268Y18705*
X11260Y18699*
X11252Y18691*
X11246Y18681*
X11240Y18670*
X11236Y18657*
X11239Y18613*
X11229*
X11228Y18604*
X11228Y18582*
X11031Y18604*
X11031Y18613*
X11020*
X11022Y18614*
X11024Y18620*
X11026Y18630*
X11027Y18644*
X11030Y18708*
X11031Y18807*
X11034*
X11035Y18831*
X11083Y18807*
G37*
G36*
X12179Y18692D02*
X12181Y18675D01*
X12183Y18660*
X12187Y18647*
X12191Y18636*
X12196Y18627*
X12203Y18620*
X12210Y18615*
X12219Y18612*
X12228Y18611*
X12031*
X12040Y18612*
X12049Y18615*
X12056Y18620*
X12063Y18627*
X12068Y18636*
X12072Y18647*
X12076Y18660*
X12078Y18675*
X12080Y18692*
X12080Y18711*
X12179*
X12179Y18692*
G37*
G36*
X10739Y18613D02*
X10520D01*
X10522Y18614*
X10524Y18620*
X10526Y18630*
X10527Y18644*
X10530Y18709*
X10531Y18809*
X10728*
X10739Y18613*
G37*
G36*
X16335Y15197D02*
X16341Y15188D01*
X16348Y15181*
X16358Y15175*
X16369Y15169*
X16383Y15165*
X16398Y15161*
X16416Y15159*
X16418Y15159*
X16485Y15163*
X16507Y15167*
X16524Y15171*
X16538Y15176*
X16548Y15181*
X16554Y15188*
X16556Y15195*
Y14922*
X16554Y14929*
X16548Y14936*
X16538Y14941*
X16524Y14946*
X16507Y14951*
X16485Y14954*
X16459Y14957*
X16396Y14960*
X16359Y14960*
Y14963*
X16203Y14970*
X16332Y15206*
X16335Y15197*
G37*
G36*
X4488Y12506D02*
X4522Y12478D01*
X4539Y12466*
X4556Y12457*
X4573Y12449*
X4590Y12443*
X4606Y12438*
X4623Y12435*
X4639Y12435*
Y12336*
X4623Y12335*
X4606Y12333*
X4590Y12328*
X4573Y12322*
X4556Y12314*
X4539Y12304*
X4522Y12293*
X4505Y12279*
X4488Y12264*
X4471Y12248*
Y12523*
X4488Y12506*
G37*
G36*
X5565Y12325D02*
X5579Y12313D01*
X5593Y12302*
X5607Y12293*
X5621Y12285*
X5635Y12279*
X5649Y12274*
X5663Y12270*
X5677Y12268*
X5690Y12268*
X5414Y12265*
X5427Y12266*
X5437Y12269*
X5444Y12272*
X5448Y12277*
X5449Y12284*
X5447Y12292*
X5442Y12302*
X5435Y12312*
X5425Y12325*
X5412Y12339*
X5551*
X5565Y12325*
G37*
G36*
X551Y12522D02*
X585Y12494D01*
X602Y12482*
X619Y12472*
X636Y12465*
X653Y12458*
X666Y12455*
X679Y12458*
X690Y12463*
X699Y12468*
X706Y12474*
X711Y12482*
X714Y12490*
X715Y12500*
Y12303*
X714Y12312*
X711Y12320*
X706Y12328*
X699Y12334*
X690Y12340*
X679Y12344*
X666Y12347*
X653Y12344*
X636Y12338*
X619Y12330*
X602Y12320*
X585Y12309*
X568Y12295*
X551Y12280*
X534Y12263*
Y12539*
X551Y12522*
G37*
G36*
X8017Y12239D02*
X8021Y12231D01*
X8028Y12224*
X8038Y12218*
X8051Y12212*
X8066Y12208*
X8085Y12205*
X8106Y12202*
X8130Y12201*
X8157Y12200*
Y12102*
X8130Y12101*
X8085Y12098*
X8066Y12094*
X8051Y12090*
X8038Y12085*
X8028Y12078*
X8021Y12071*
X8017Y12063*
X8015Y12054*
Y12249*
X8017Y12239*
G37*
G36*
Y11739D02*
X8021Y11731D01*
X8028Y11724*
X8038Y11718*
X8051Y11712*
X8066Y11708*
X8085Y11705*
X8106Y11702*
X8130Y11701*
X8157Y11700*
Y11602*
X8130Y11601*
X8085Y11598*
X8066Y11594*
X8051Y11590*
X8038Y11585*
X8028Y11578*
X8021Y11571*
X8017Y11563*
X8015Y11554*
Y11749*
X8017Y11739*
G37*
G36*
X16182Y11788D02*
X16185Y11782D01*
X16190Y11776*
X16197Y11771*
X16206Y11767*
X16217Y11764*
X16230Y11761*
X16244Y11759*
X16261Y11758*
X16280Y11757*
Y11659*
X16261Y11659*
X16244Y11657*
X16229Y11655*
X16216Y11651*
X16205Y11647*
X16196Y11641*
X16189Y11635*
X16184Y11628*
X16181Y11619*
X16180Y11610*
X16181Y11796*
X16182Y11788*
G37*
G36*
X16557Y11610D02*
X16556Y11619D01*
X16553Y11628*
X16548Y11635*
X16541Y11641*
X16532Y11647*
X16521Y11651*
X16508Y11655*
X16493Y11657*
X16476Y11659*
X16457Y11659*
Y11757*
X16476Y11758*
X16493Y11759*
X16508Y11762*
X16521Y11765*
X16532Y11770*
X16541Y11775*
X16548Y11782*
X16553Y11789*
X16556Y11797*
X16557Y11807*
Y11610*
G37*
G36*
X12134Y12809D02*
X12164Y12785D01*
X12195Y12765*
X12226Y12747*
X12259Y12731*
X12294Y12719*
X12329Y12709*
X12365Y12702*
X12403Y12698*
X12442Y12696*
X12500Y12500*
X12462Y12498*
X12429Y12492*
X12399Y12482*
X12374Y12468*
X12352Y12450*
X12334Y12429*
X12320Y12403*
X12311Y12374*
X12305Y12340*
X12303Y12303*
X12106Y12360*
X12104Y12399*
X12100Y12437*
X12093Y12473*
X12084Y12509*
X12071Y12543*
X12056Y12576*
X12038Y12608*
X12017Y12638*
X11993Y12668*
X11967Y12696*
X12106Y12836*
X12134Y12809*
G37*
G36*
X17009Y12727D02*
X17005Y12727D01*
X17000Y12725*
X16994Y12723*
X16988Y12719*
X16982Y12714*
X16967Y12702*
X16949Y12686*
X16939Y12677*
Y12816*
X16952Y12830*
X16964Y12844*
X16975Y12858*
X16984Y12872*
X16992Y12886*
X16998Y12900*
X17003Y12913*
X17007Y12927*
X17009Y12941*
X17010Y12955*
X17009Y12727*
G37*
G36*
X5482Y12824D02*
X5512Y12800D01*
X5526Y12790*
X5540Y12782*
X5554Y12776*
X5568Y12771*
X5581Y12768*
X5593Y12767*
X5606Y12768*
X5357Y12739*
X5368Y12741*
X5376Y12745*
X5381Y12751*
X5383Y12758*
X5382Y12767*
X5378Y12777*
X5371Y12789*
X5361Y12802*
X5348Y12818*
X5332Y12834*
X5467Y12839*
X5482Y12824*
G37*
G36*
X8124Y12779D02*
X8106Y12761D01*
X8079Y12727*
X8069Y12713*
X8062Y12700*
X8058Y12688*
X8057Y12678*
X8058Y12669*
X8062Y12661*
X8069Y12655*
X7905Y12768*
X7914Y12763*
X7924Y12762*
X7935Y12762*
X7947Y12765*
X7960Y12771*
X7974Y12779*
X7989Y12789*
X8006Y12803*
X8023Y12818*
X8042Y12836*
X8124Y12779*
G37*
G36*
X4190Y12248D02*
X4172Y12264D01*
X4138Y12293*
X4121Y12304*
X4104Y12314*
X4087Y12322*
X4071Y12328*
X4058Y12332*
X4046Y12328*
X4035Y12324*
X4026Y12318*
X4019Y12312*
X4014Y12305*
X4011Y12296*
X4010Y12287*
Y12484*
X4011Y12474*
X4014Y12466*
X4019Y12459*
X4026Y12452*
X4035Y12447*
X4046Y12442*
X4058Y12439*
X4071Y12443*
X4087Y12449*
X4104Y12457*
X4121Y12466*
X4138Y12478*
X4155Y12491*
X4172Y12506*
X4190Y12523*
Y12248*
G37*
G36*
X8659Y12401D02*
X8635Y12401D01*
X8591Y12397*
X8570Y12393*
X8552Y12388*
X8534Y12381*
X8518Y12374*
X8503Y12366*
X8490Y12356*
X8477Y12345*
X8408Y12414*
X8419Y12427*
X8429Y12440*
X8437Y12455*
X8444Y12471*
X8451Y12489*
X8456Y12507*
X8460Y12528*
X8462Y12549*
X8464Y12572*
X8464Y12596*
X8659Y12401*
G37*
G36*
X13093D02*
X13091Y12420D01*
X13085Y12437*
X13075Y12451*
X13061Y12464*
X13043Y12475*
X13021Y12484*
X12995Y12491*
X12966Y12496*
X12932Y12499*
X12894Y12500*
Y12696*
X12932Y12697*
X12966Y12700*
X12995Y12705*
X13021Y12712*
X13043Y12721*
X13061Y12732*
X13075Y12745*
X13085Y12759*
X13091Y12776*
X13093Y12795*
Y12401*
G37*
G36*
X16782Y12519D02*
X16783Y12502D01*
X16785Y12487*
X16789Y12474*
X16793Y12463*
X16799Y12454*
X16805Y12447*
X16813Y12442*
X16821Y12439*
X16830Y12438*
X16633*
X16643Y12439*
X16651Y12442*
X16659Y12447*
X16665Y12454*
X16670Y12463*
X16675Y12474*
X16678Y12487*
X16681Y12502*
X16682Y12519*
X16683Y12538*
X16781*
X16782Y12519*
G37*
G36*
X1225Y11113D02*
X1283Y11063D01*
X1310Y11042*
X1336Y11025*
X1361Y11011*
X1386Y11000*
X1409Y10992*
X1431Y10987*
X1452Y10986*
Y10887*
X1431Y10886*
X1409Y10881*
X1386Y10873*
X1361Y10862*
X1336Y10848*
X1310Y10831*
X1283Y10810*
X1225Y10760*
X1195Y10730*
Y11143*
X1225Y11113*
G37*
G36*
X6705Y10932D02*
X6696Y10920D01*
X6691Y10910*
X6689Y10901*
X6690Y10893*
X6694Y10887*
X6702Y10882*
X6714Y10878*
X6728Y10876*
X6746Y10876*
X6529Y10777*
X6410Y10876*
X6430Y10876*
X6448Y10878*
X6467Y10882*
X6484Y10887*
X6501Y10893*
X6518Y10901*
X6534Y10910*
X6549Y10920*
X6564Y10932*
X6578Y10945*
X6717*
X6705Y10932*
G37*
G36*
X13609Y11797D02*
X13703Y11730D01*
X13731Y11714*
X13758Y11700*
X13783Y11690*
X13806Y11683*
X13827Y11678*
X13847Y11677*
X13857Y11578*
X13835Y11577*
X13813Y11572*
X13790Y11563*
X13766Y11552*
X13742Y11537*
X13718Y11519*
X13693Y11498*
X13668Y11473*
X13642Y11445*
X13616Y11413*
X13575Y11825*
X13609Y11797*
G37*
G36*
X4389Y10649D02*
Y10634D01*
X4386Y10573*
X4385Y10573*
X4276*
X4279Y10579*
X4281Y10585*
X4283Y10594*
X4285Y10603*
X4288Y10627*
X4290Y10657*
X4291Y10692*
X4389Y10649*
G37*
G36*
X14519Y10563D02*
X14528Y10556D01*
X14540Y10550*
X14552Y10545*
X14567Y10541*
X14582Y10537*
X14599Y10535*
X14617Y10533*
X14658Y10531*
Y10334*
X14637Y10334*
X14599Y10331*
X14582Y10328*
X14567Y10324*
X14552Y10320*
X14540Y10315*
X14528Y10309*
X14519Y10302*
X14510Y10295*
Y10570*
X14519Y10563*
G37*
G36*
X15692Y10657D02*
X15731Y10624D01*
X15747Y10612*
X15762Y10603*
X15775Y10598*
X15786Y10595*
X15796Y10596*
X15803Y10600*
X15809Y10607*
X15711Y10430*
X15714Y10439*
X15716Y10450*
X15715Y10461*
X15711Y10473*
X15705Y10487*
X15697Y10501*
X15686Y10517*
X15673Y10533*
X15658Y10551*
X15640Y10569*
X15670Y10678*
X15692Y10657*
G37*
G36*
X17540Y10198D02*
X17538Y10205D01*
X17532Y10211*
X17522Y10217*
X17509Y10222*
X17491Y10226*
X17469Y10230*
X17444Y10232*
X17427Y10233*
X17372Y10230*
X17351Y10226*
X17333Y10222*
X17319Y10217*
X17309Y10211*
X17303Y10205*
X17302Y10198*
Y10471*
X17303Y10464*
X17309Y10457*
X17319Y10451*
X17333Y10446*
X17351Y10442*
X17372Y10439*
X17398Y10436*
X17415Y10435*
X17469Y10439*
X17491Y10442*
X17509Y10446*
X17522Y10451*
X17532Y10457*
X17538Y10464*
X17540Y10471*
Y10198*
G37*
G36*
X14465Y11529D02*
X14464Y11538D01*
X14461Y11547*
X14456Y11554*
X14449Y11561*
X14440Y11566*
X14429Y11570*
X14416Y11574*
X14401Y11576*
X14384Y11578*
X14365Y11578*
Y11677*
X14384Y11677*
X14401Y11679*
X14416Y11681*
X14429Y11685*
X14440Y11689*
X14449Y11694*
X14456Y11701*
X14461Y11708*
X14464Y11717*
X14465Y11726*
Y11529*
G37*
G36*
X15681Y11717D02*
X15684Y11708D01*
X15689Y11701*
X15696Y11694*
X15705Y11689*
X15716Y11685*
X15729Y11681*
X15744Y11679*
X15761Y11677*
X15780Y11677*
Y11578*
X15761Y11578*
X15744Y11576*
X15729Y11574*
X15716Y11570*
X15705Y11566*
X15696Y11561*
X15689Y11554*
X15684Y11547*
X15681Y11538*
X15680Y11529*
Y11726*
X15681Y11717*
G37*
G36*
X15965Y11529D02*
X15964Y11538D01*
X15961Y11547*
X15956Y11554*
X15949Y11561*
X15940Y11566*
X15929Y11570*
X15916Y11574*
X15901Y11576*
X15884Y11578*
X15865Y11578*
Y11677*
X15884Y11677*
X15901Y11679*
X15916Y11681*
X15929Y11685*
X15940Y11689*
X15949Y11694*
X15956Y11701*
X15961Y11708*
X15964Y11717*
X15965Y11726*
Y11529*
G37*
G36*
X5967Y11753D02*
X5973Y11752D01*
X5994Y11751*
X6139Y11750*
Y11553*
X5964Y11549*
Y11753*
X5967Y11753*
G37*
G36*
X15465Y11529D02*
X15464Y11538D01*
X15461Y11547*
X15456Y11554*
X15449Y11561*
X15440Y11566*
X15429Y11570*
X15416Y11574*
X15401Y11576*
X15384Y11578*
X15365Y11578*
Y11677*
X15384Y11677*
X15401Y11679*
X15416Y11681*
X15429Y11685*
X15440Y11689*
X15449Y11694*
X15456Y11701*
X15461Y11708*
X15464Y11717*
X15465Y11726*
Y11529*
G37*
G36*
X14681Y11717D02*
X14684Y11708D01*
X14689Y11701*
X14696Y11694*
X14705Y11689*
X14716Y11685*
X14729Y11681*
X14744Y11679*
X14761Y11677*
X14780Y11677*
Y11578*
X14761Y11578*
X14744Y11576*
X14729Y11574*
X14716Y11570*
X14705Y11566*
X14696Y11561*
X14689Y11554*
X14684Y11547*
X14681Y11538*
X14680Y11529*
Y11726*
X14681Y11717*
G37*
G36*
X14965Y11529D02*
X14964Y11538D01*
X14961Y11547*
X14956Y11554*
X14949Y11561*
X14940Y11566*
X14929Y11570*
X14916Y11574*
X14901Y11576*
X14884Y11578*
X14865Y11578*
Y11677*
X14884Y11677*
X14901Y11679*
X14916Y11681*
X14929Y11685*
X14940Y11689*
X14949Y11694*
X14956Y11701*
X14961Y11708*
X14964Y11717*
X14965Y11726*
Y11529*
G37*
G36*
X15181Y11717D02*
X15184Y11708D01*
X15189Y11701*
X15196Y11694*
X15205Y11689*
X15216Y11685*
X15229Y11681*
X15244Y11679*
X15261Y11677*
X15280Y11677*
Y11578*
X15261Y11578*
X15244Y11576*
X15229Y11574*
X15216Y11570*
X15205Y11566*
X15196Y11561*
X15189Y11554*
X15184Y11547*
X15181Y11538*
X15180Y11529*
Y11726*
X15181Y11717*
G37*
G36*
X17411Y14330D02*
X17403Y14328D01*
X17396Y14323*
X17389Y14316*
X17384Y14307*
X17379Y14296*
X17376Y14283*
X17374Y14268*
X17372Y14252*
X17372Y14233*
X17273*
X17273Y14252*
X17271Y14268*
X17269Y14283*
X17265Y14296*
X17261Y14307*
X17255Y14316*
X17249Y14323*
X17242Y14328*
X17233Y14330*
X17224Y14331*
X17421*
X17411Y14330*
G37*
G36*
X16132Y14391D02*
X16124Y14388D01*
X16116Y14383*
X16110Y14376*
X16104Y14367*
X16100Y14356*
X16096Y14343*
X16094Y14328*
X16093Y14311*
X16092Y14292*
X15994*
X15993Y14311*
X15992Y14328*
X15989Y14343*
X15986Y14356*
X15981Y14367*
X15976Y14376*
X15970Y14383*
X15962Y14388*
X15954Y14391*
X15944Y14392*
X16141*
X16132Y14391*
G37*
G36*
X13876Y14518D02*
X13879Y14509D01*
X13884Y14502*
X13891Y14496*
X13900Y14490*
X13911Y14486*
X13924Y14482*
X13939Y14480*
X13956Y14478*
X13975Y14478*
Y14379*
X13956Y14379*
X13939Y14378*
X13924Y14375*
X13911Y14372*
X13900Y14367*
X13891Y14362*
X13884Y14355*
X13879Y14348*
X13876Y14340*
X13875Y14330*
Y14527*
X13876Y14518*
G37*
G36*
X16841Y14330D02*
X16832Y14328D01*
X16825Y14323*
X16818Y14316*
X16813Y14307*
X16809Y14296*
X16805Y14283*
X16803Y14268*
X16801Y14252*
X16801Y14233*
X16702*
X16702Y14252*
X16700Y14268*
X16698Y14283*
X16694Y14296*
X16690Y14307*
X16685Y14316*
X16678Y14323*
X16671Y14328*
X16662Y14330*
X16653Y14331*
X16850*
X16841Y14330*
G37*
G36*
X16093Y14178D02*
X16094Y14161D01*
X16096Y14147*
X16100Y14134*
X16104Y14123*
X16110Y14114*
X16116Y14107*
X16124Y14102*
X16132Y14099*
X16141Y14098*
X15963Y14099*
X15969Y14100*
X15974Y14103*
X15979Y14108*
X15983Y14114*
X15986Y14123*
X15989Y14134*
X15991Y14147*
X15992Y14162*
X15994Y14197*
X16092*
X16093Y14178*
G37*
G36*
X13848Y14222D02*
X13840Y14219D01*
X13833Y14214*
X13826Y14207*
X13821Y14199*
X13816Y14188*
X13813Y14175*
X13811Y14160*
X13809Y14143*
X13809Y14125*
X13710*
X13710Y14143*
X13708Y14160*
X13706Y14175*
X13702Y14188*
X13698Y14199*
X13692Y14207*
X13686Y14214*
X13679Y14219*
X13670Y14222*
X13661Y14223*
X13858*
X13848Y14222*
G37*
G36*
X11498Y14173D02*
X11496Y14191D01*
X11490Y14208*
X11480Y14223*
X11466Y14236*
X11448Y14247*
X11427Y14255*
X11401Y14262*
X11371Y14267*
X11338Y14270*
X11300Y14271*
Y14468*
X11338Y14469*
X11371Y14472*
X11401Y14477*
X11427Y14484*
X11448Y14493*
X11466Y14503*
X11480Y14516*
X11490Y14531*
X11496Y14548*
X11498Y14566*
Y14173*
G37*
G36*
X15502Y14822D02*
X15503Y14805D01*
X15506Y14790*
X15509Y14777*
X15514Y14766*
X15519Y14757*
X15526Y14750*
X15533Y14745*
X15541Y14742*
X15551Y14741*
X15354*
X15363Y14742*
X15372Y14745*
X15379Y14750*
X15385Y14757*
X15391Y14766*
X15395Y14777*
X15399Y14790*
X15401Y14805*
X15403Y14822*
X15403Y14841*
X15502*
X15502Y14822*
G37*
G36*
X15541Y14981D02*
X15533Y14978D01*
X15526Y14973*
X15519Y14966*
X15514Y14957*
X15509Y14946*
X15506Y14933*
X15503Y14919*
X15502Y14902*
X15502Y14883*
X15403*
X15403Y14902*
X15401Y14919*
X15399Y14933*
X15395Y14946*
X15391Y14957*
X15385Y14966*
X15379Y14973*
X15372Y14978*
X15363Y14981*
X15354Y14982*
X15551*
X15541Y14981*
G37*
G36*
X9125Y15323D02*
X9119Y15305D01*
Y15284*
X9125Y15260*
X9136Y15234*
X9153Y15205*
X9175Y15173*
X9203Y15138*
X9275Y15060*
X9136Y14921*
X9096Y14960*
X9023Y15021*
X8991Y15043*
X8962Y15060*
X8936Y15071*
X8912Y15077*
X8891*
X8873Y15071*
X8858Y15060*
X9136Y15338*
X9125Y15323*
G37*
G36*
X13198Y14546D02*
X13184Y14532D01*
X13172Y14517*
X13162Y14503*
X13153Y14490*
X13145Y14476*
X13139Y14462*
X13134Y14448*
X13130Y14434*
X13128Y14420*
X13127Y14406*
X13128Y14634*
X13129Y14631*
X13131Y14630*
X13135Y14631*
X13139Y14633*
X13146Y14637*
X13153Y14643*
X13173Y14660*
X13198Y14685*
Y14546*
G37*
G36*
X4190Y14232D02*
X4172Y14249D01*
X4138Y14277*
X4121Y14289*
X4104Y14298*
X4087Y14306*
X4071Y14312*
X4058Y14316*
X4046Y14313*
X4035Y14308*
X4026Y14303*
X4019Y14296*
X4014Y14289*
X4011Y14281*
X4010Y14271*
Y14468*
X4011Y14459*
X4014Y14450*
X4019Y14443*
X4026Y14437*
X4035Y14431*
X4046Y14427*
X4058Y14423*
X4071Y14427*
X4087Y14433*
X4104Y14441*
X4121Y14451*
X4138Y14462*
X4155Y14476*
X4172Y14491*
X4190Y14507*
Y14232*
G37*
G36*
X715Y14189D02*
X713Y14207D01*
X707Y14224*
X697Y14239*
X683Y14252*
X665Y14262*
X643Y14271*
X618Y14278*
X611Y14279*
X599Y14276*
X585Y14271*
X573Y14266*
X562Y14259*
X552Y14252*
X544Y14244*
X541Y14286*
X517Y14287*
Y14484*
X525Y14484*
X522Y14518*
X531Y14512*
X541Y14506*
X552Y14501*
X565Y14496*
X580Y14492*
X595Y14489*
X596Y14489*
X618Y14493*
X643Y14500*
X665Y14508*
X683Y14519*
X697Y14532*
X707Y14547*
X713Y14564*
X715Y14582*
Y14189*
G37*
G36*
X1437Y14768D02*
X1440Y14734D01*
X1445Y14704*
X1452Y14679*
X1460Y14657*
X1471Y14639*
X1484Y14625*
X1499Y14615*
X1515Y14609*
X1534Y14607*
X1140*
X1159Y14609*
X1176Y14615*
X1191Y14625*
X1203Y14639*
X1214Y14657*
X1223Y14679*
X1230Y14704*
X1235Y14734*
X1238Y14768*
X1239Y14805*
X1436*
X1437Y14768*
G37*
G36*
X14991Y14389D02*
X14985Y14383D01*
X14979Y14373*
X14974Y14359*
X14970Y14341*
X14966Y14320*
X14964Y14294*
X14961Y14231*
X14960Y14194*
X14787*
X14821Y14000*
X14814Y13993*
X14822Y13992*
X14838Y13994*
X14868Y13999*
X14893Y14005*
X14915Y14014*
X14933Y14025*
X14947Y14038*
X14957Y14053*
X14963Y14069*
X14965Y14088*
Y13694*
X14963Y13713*
X14957Y13730*
X14947Y13745*
X14933Y13757*
X14915Y13768*
X14893Y13777*
X14868Y13784*
X14838Y13789*
X14822Y13790*
X14807Y13789*
X14777Y13784*
X14752Y13777*
X14730Y13768*
X14712Y13757*
X14698Y13745*
X14688Y13730*
X14682Y13713*
X14680Y13694*
Y13807*
X14674Y13786*
X14672Y13763*
X14674Y13742*
X14680Y13722*
X14501Y14098*
X14512Y14082*
X14527Y14073*
X14545Y14071*
X14567Y14075*
X14593Y14086*
X14623Y14103*
X14657Y14127*
X14694Y14157*
X14763Y14222*
X14763Y14231*
X14757Y14320*
X14754Y14341*
X14750Y14359*
X14745Y14373*
X14739Y14383*
X14732Y14389*
X14725Y14391*
X14998*
X14991Y14389*
G37*
G36*
X18166Y13248D02*
X18149Y13264D01*
X18114Y13293*
X18097Y13304*
X18081Y13314*
X18064Y13322*
X18047Y13328*
X18031Y13333*
X18014Y13335*
X17998Y13336*
Y13435*
X18014Y13435*
X18031Y13438*
X18047Y13443*
X18064Y13449*
X18081Y13457*
X18097Y13466*
X18114Y13478*
X18132Y13491*
X18149Y13506*
X18166Y13523*
Y13248*
G37*
G36*
X16868Y13847D02*
X16870Y13833D01*
X16874Y13819*
X16879Y13805*
X16885Y13791*
X16893Y13777*
X16902Y13763*
X16913Y13749*
X16925Y13735*
X16938Y13721*
Y13582*
X16928Y13592*
X16895Y13620*
X16889Y13625*
X16883Y13628*
X16877Y13631*
X16873Y13632*
X16868Y13633*
X16867Y13860*
X16868Y13847*
G37*
G36*
X17616D02*
X17618Y13833D01*
X17622Y13819*
X17627Y13805*
X17633Y13791*
X17641Y13777*
X17650Y13763*
X17661Y13749*
X17673Y13735*
X17686Y13721*
Y13582*
X17676Y13592*
X17643Y13620*
X17637Y13625*
X17631Y13628*
X17625Y13631*
X17621Y13632*
X17616Y13633*
X17615Y13860*
X17616Y13847*
G37*
G36*
X4012Y13564D02*
X4018Y13547D01*
X4028Y13532*
X4042Y13519*
X4060Y13508*
X4081Y13500*
X4107Y13493*
X4120Y13491*
X4133Y13494*
X4147Y13498*
X4160Y13503*
X4171Y13509*
X4181Y13516*
X4190Y13523*
Y13484*
X4207Y13484*
Y13287*
X4190Y13286*
Y13248*
X4181Y13255*
X4171Y13262*
X4160Y13268*
X4147Y13273*
X4133Y13277*
X4120Y13280*
X4107Y13278*
X4081Y13271*
X4060Y13262*
X4042Y13252*
X4028Y13239*
X4018Y13224*
X4012Y13207*
X4010Y13189*
Y13582*
X4012Y13564*
G37*
G36*
X17545Y13116D02*
X17558Y13106D01*
X17573Y13097*
X17589Y13090*
X17607Y13084*
X17626Y13079*
X17646Y13075*
X17667Y13072*
X17690Y13071*
X17714Y13070*
X17519Y12876*
X17519Y12900*
X17515Y12944*
X17511Y12964*
X17506Y12983*
X17500Y13000*
X17492Y13017*
X17484Y13031*
X17474Y13045*
X17463Y13057*
X17533Y13127*
X17545Y13116*
G37*
G36*
X13485Y13051D02*
X13488Y13018D01*
X13493Y12988*
X13500Y12962*
X13508Y12940*
X13519Y12923*
X13532Y12909*
X13547Y12899*
X13564Y12893*
X13582Y12891*
X13189*
X13207Y12893*
X13224Y12899*
X13239Y12909*
X13252Y12923*
X13262Y12940*
X13271Y12962*
X13278Y12988*
X13283Y13018*
X13286Y13051*
X13287Y13089*
X13484*
X13485Y13051*
G37*
G36*
X13499Y13316D02*
X13496Y13310D01*
X13493Y13300*
X13490Y13286*
X13488Y13268*
X13485Y13192*
X13484Y13121*
X13287*
X13287Y13158*
X13278Y13300*
X13275Y13310*
X13272Y13316*
X13268Y13318*
X13502*
X13499Y13316*
G37*
G36*
X15465Y13694D02*
X15463Y13713D01*
X15457Y13730*
X15447Y13745*
X15433Y13757*
X15415Y13768*
X15393Y13777*
X15368Y13784*
X15338Y13789*
X15322Y13790*
X15307Y13789*
X15277Y13784*
X15252Y13777*
X15230Y13768*
X15212Y13757*
X15198Y13745*
X15188Y13730*
X15182Y13713*
X15180Y13694*
Y14088*
X15182Y14069*
X15188Y14053*
X15198Y14038*
X15212Y14025*
X15230Y14014*
X15252Y14005*
X15277Y13999*
X15307Y13994*
X15322Y13992*
X15338Y13994*
X15368Y13999*
X15393Y14005*
X15415Y14014*
X15433Y14025*
X15447Y14038*
X15457Y14053*
X15463Y14069*
X15465Y14088*
Y13694*
G37*
G36*
X11727Y14142D02*
X11724Y14137D01*
X11721Y14127*
X11719Y14113*
X11717Y14095*
X11713Y14018*
X11712Y13948*
X11515*
X11515Y13985*
X11506Y14127*
X11503Y14137*
X11500Y14142*
X11497Y14144*
X11731*
X11727Y14142*
G37*
G36*
X4451Y14212D02*
X4423Y14177D01*
X4411Y14160*
X4402Y14144*
X4394Y14127*
X4387Y14110*
X4383Y14094*
X4380Y14077*
X4379Y14061*
X4281*
X4280Y14077*
X4277Y14094*
X4273Y14110*
X4267Y14127*
X4259Y14144*
X4249Y14160*
X4238Y14177*
X4224Y14195*
X4209Y14212*
X4192Y14229*
X4468*
X4451Y14212*
G37*
G36*
X16801Y14123D02*
X16803Y14106D01*
X16805Y14091*
X16809Y14078*
X16813Y14067*
X16818Y14058*
X16825Y14051*
X16832Y14046*
X16841Y14043*
X16850Y14042*
X16653*
X16662Y14043*
X16671Y14046*
X16678Y14051*
X16685Y14058*
X16690Y14067*
X16694Y14078*
X16698Y14091*
X16700Y14106*
X16702Y14123*
X16702Y14142*
X16801*
X16801Y14123*
G37*
G36*
X7637Y14083D02*
X7639Y14069D01*
X7642Y14055*
X7647Y14041*
X7654Y14027*
X7661Y14013*
X7670Y13999*
X7681Y13985*
X7693Y13971*
X7706Y13957*
Y13818*
X7693Y13831*
X7670Y13849*
X7661Y13855*
X7654Y13858*
X7647Y13859*
X7642Y13858*
X7639Y13854*
X7637Y13848*
X7636Y13839*
Y14097*
X7637Y14083*
G37*
G36*
X6536Y13839D02*
X6519Y13833D01*
X6504Y13823*
X6492Y13809*
X6481Y13791*
X6472Y13769*
X6465Y13744*
X6460Y13714*
X6457Y13680*
X6456Y13642*
X6259*
X6258Y13680*
X6255Y13714*
X6251Y13744*
X6244Y13769*
X6235Y13791*
X6224Y13809*
X6211Y13823*
X6196Y13833*
X6180Y13839*
X6161Y13841*
X6555*
X6536Y13839*
G37*
G36*
X17359Y14049D02*
X17360Y14048D01*
X17362Y14047*
X17364Y14046*
X17367Y14045*
X17369Y14045*
X17372Y14044*
X17379Y14044*
X17383Y14044*
X17384Y13835*
X17383Y13845*
X17381Y13855*
X17377Y13866*
X17372Y13878*
X17366Y13890*
X17358Y13902*
X17349Y13915*
X17338Y13928*
X17313Y13955*
X17357Y14050*
X17359Y14049*
G37*
%LNdeploy-2*%
%LPC*%
G36*
X8842Y15647D02*
X8742D01*
X8763Y15638*
X8786Y15632*
X8808Y15632*
X8826Y15636*
X8842Y15647*
G37*
%LNdeploy-3*%
%LPD*%
G54D10*
X13228Y3641D03*
Y4232D03*
X13937Y3641D03*
Y4232D03*
X12480Y3641D03*
Y4232D03*
X11692Y3641D03*
Y4232D03*
X10393Y3444D03*
Y4035D03*
X9252Y18602D03*
Y19192D03*
X17126Y6988D03*
Y7578D03*
X5905Y17027D03*
Y16437D03*
X2362Y2657D03*
Y3248D03*
X17716Y9744D03*
Y10334D03*
X17126Y9744D03*
Y10334D03*
X16732Y11712D03*
Y12303D03*
Y14468D03*
Y15059D03*
X17322Y14468D03*
Y15059D03*
G54D11*
X15452Y15157D03*
X14862D03*
X3543Y3346D03*
X2952D03*
X14665Y9842D03*
X15255D03*
X15846D03*
X16437D03*
X3641Y2755D03*
X3051D03*
X10925Y19488D03*
X10334D03*
X4035Y16535D03*
X3444D03*
X4626D03*
X5216D03*
X15846Y10433D03*
X15255D03*
X14271Y14566D03*
X14862D03*
X15452D03*
X16043D03*
X11515Y19488D03*
X12106D03*
G54D12*
X9232Y17972D03*
X8484D03*
X8858Y17066D03*
X17893Y9114D03*
X17145D03*
X17519Y8208D03*
X5925Y17657D03*
X6673D03*
X6299Y18563D03*
X13759Y14429D03*
X13011D03*
X13385Y13523D03*
X13956Y9901D03*
X13208D03*
X13582Y8996D03*
X17500Y13838D03*
X16752D03*
X17126Y12933D03*
G54D13*
X2559Y5452D03*
Y4389D03*
G54D14*
X6358Y14173D03*
X7421D03*
G54D15*
X7716Y11651D03*
Y12151D03*
Y12651D03*
Y13151D03*
X5669Y11651D03*
Y12151D03*
Y12651D03*
Y13151D03*
G54D16*
X3740Y21456D03*
X4114Y20570D03*
X3366D03*
X11614Y14370D03*
X11240Y15255D03*
X11988D03*
G54D17*
X14838Y9252D03*
X15338D03*
X15838D03*
X16338D03*
X14572Y13891D03*
X15072D03*
X15572D03*
X16072D03*
X4852Y17604D03*
X4352D03*
X3852D03*
X3352D03*
X10629Y18405D03*
X11129D03*
X11629D03*
X12129D03*
G54D18*
X16338Y6988D03*
X15838D03*
X15338D03*
X14838D03*
X16072Y11628D03*
X15572D03*
X15072D03*
X14572D03*
X3352Y19868D03*
X3852D03*
X4352D03*
X4852D03*
X12129Y16141D03*
X11629D03*
X11129D03*
X10629D03*
G54D19*
X14572Y8549D03*
X16604D03*
X14307Y13189D03*
X16338D03*
X5118Y18307D03*
X3086D03*
X10364Y17702D03*
X12395D03*
G54D20*
X15588Y7988D03*
X15322Y12628D03*
X4102Y18868D03*
X11379Y17141D03*
G54D21*
X9055Y4311D03*
X8858D03*
X8661D03*
X8464D03*
X8267D03*
X8070D03*
X7874D03*
X7677D03*
X7480D03*
X7283D03*
X7086D03*
X6889D03*
X6692D03*
X6496D03*
X6299D03*
X6102D03*
X5905D03*
X5708D03*
X5511D03*
X5315D03*
X5118D03*
X4921D03*
X4724D03*
X4527D03*
X4330D03*
Y10255D03*
X4527D03*
X4724D03*
X4921D03*
X5118D03*
X5315D03*
X5511D03*
X5708D03*
X5905D03*
X6102D03*
X6299D03*
X6496D03*
X6692D03*
X6889D03*
X7086D03*
X7283D03*
X7480D03*
X7677D03*
X7874D03*
X8070D03*
X8267D03*
X8464D03*
X8661D03*
X8858D03*
X9055D03*
G54D22*
X3720Y4921D03*
Y5118D03*
Y5315D03*
Y5511D03*
Y5708D03*
Y5905D03*
Y6102D03*
Y6299D03*
Y6496D03*
Y6692D03*
Y6889D03*
Y7086D03*
Y7283D03*
Y7480D03*
Y7677D03*
Y7874D03*
Y8070D03*
Y8267D03*
Y8464D03*
Y8661D03*
Y8858D03*
Y9055D03*
Y9252D03*
Y9448D03*
Y9645D03*
X9665D03*
Y9448D03*
Y9252D03*
Y9055D03*
Y8858D03*
Y8661D03*
Y8464D03*
Y8267D03*
Y8070D03*
Y7874D03*
Y7677D03*
Y7480D03*
Y7283D03*
Y7086D03*
Y6889D03*
Y6692D03*
Y6496D03*
Y6299D03*
Y6102D03*
Y5905D03*
Y5708D03*
Y5511D03*
Y5315D03*
Y5118D03*
Y4921D03*
G54D23*
X3387Y12385D03*
X1337D03*
Y13385D03*
X3387D03*
X1337Y14385D03*
X3387D03*
G54D24*
X5039Y13781D02*
X5669Y13151D01*
X5039Y13781D02*
Y14566D01*
X4704Y14901D02*
X5039Y14566D01*
X2815Y14901D02*
X4704D01*
X4330Y13906D02*
Y14370D01*
X3402D02*
X4330D01*
X2401Y14488D02*
X2815Y14901D01*
X2401Y12834D02*
Y14488D01*
X1952Y12385D02*
X2401Y12834D01*
X1337Y12385D02*
X1952D01*
X393Y13385D02*
X1574D01*
X6515Y15078D02*
X7421Y14173D01*
X2598Y15078D02*
X6515D01*
X2126Y14606D02*
X2598Y15078D01*
X2126Y13937D02*
Y14606D01*
X1574Y13385D02*
X2126Y13937D01*
X6318Y14133D02*
X6358Y14173D01*
X5826Y14133D02*
X6318D01*
X8740Y1771D02*
X9039D01*
X8039D02*
Y2393D01*
X8858Y2952D02*
X10039Y1771D01*
X12480Y2992D02*
Y3641D01*
D01*
X13267Y2992D02*
Y3602D01*
X13228Y3641D02*
X13267Y3602D01*
X13976Y2952D02*
Y3602D01*
X13937Y3641D02*
X13976Y3602D01*
X11692Y3189D02*
Y3641D01*
X13228Y4232D02*
X13937D01*
X12480D02*
X13228D01*
X11692D02*
X12480D01*
X11141Y3897D02*
Y6299D01*
Y2834D02*
Y3897D01*
X11476Y4232D02*
X11692D01*
X11141Y3897D02*
X11476Y4232D01*
X9980Y4311D02*
X10255Y4035D01*
X10393*
X10295Y3346D02*
X10393Y3444D01*
X9606Y3346D02*
X10295D01*
X9606D02*
X11007Y1944D01*
X7677Y3346D02*
X9606D01*
X7086Y3937D02*
X7677Y3346D01*
X7086Y3937D02*
Y4311D01*
X5368Y2952D02*
X8858D01*
X5315Y2755D02*
X7677D01*
X6889Y2559D02*
X7519Y1929D01*
X4921Y2559D02*
X6889D01*
X6413Y2381D02*
X7007Y1787D01*
X4847Y2381D02*
X6413D01*
X6889Y3740D02*
Y4311D01*
X3740Y3740D02*
X4921Y2559D01*
X3883Y3346D02*
X4847Y2381D01*
X10826Y2755D02*
X11496Y2086D01*
Y1535D02*
Y2086D01*
X11259Y1299D02*
X11496Y1535D01*
X10921Y1299D02*
X11259D01*
X10431Y809D02*
X10921Y1299D01*
X11007Y1787D02*
Y1944D01*
X7519Y1574D02*
Y1929D01*
Y1574D02*
X7795Y1299D01*
X8267*
X8740Y1771*
X6692Y3347D02*
X6889Y3544D01*
Y3740*
X9980Y4311D02*
X10393Y4724D01*
X9055Y4311D02*
X9980D01*
X10826Y2755D02*
Y6889D01*
X10236Y7480D02*
X10826Y6889D01*
X10393Y4724D02*
Y6574D01*
X10078Y6889D02*
X10393Y6574D01*
X9665Y6889D02*
X10078D01*
X11141Y2834D02*
X12007Y1968D01*
X11141Y6299D02*
X11456Y6614D01*
Y7244*
X10433Y8267D02*
X11456Y7244D01*
X10183Y364D02*
X10431Y612D01*
X8433Y364D02*
X10183D01*
X8256Y187D02*
X8433Y364D01*
X7759Y187D02*
X8256D01*
X7582Y364D02*
X7759Y187D01*
X6722Y364D02*
X7582D01*
X6423Y663D02*
X6722Y364D01*
X4330Y11220D02*
X6102D01*
X3740Y10629D02*
X4330Y11220D01*
X3740Y10185D02*
Y10629D01*
X5315Y4311D02*
Y8610D01*
X3740Y10185D02*
X5315Y8610D01*
X8858Y9398D02*
X9448Y9988D01*
X8858Y8858D02*
Y9398D01*
X5511Y5511D02*
X8858Y8858D01*
X8820Y11651D02*
X9448Y11023D01*
Y9988D02*
Y11023D01*
X7874Y4724D02*
X8267Y5118D01*
X8848Y4320D02*
X8858Y4311D01*
X8267Y5118D02*
X8592Y4793D01*
X8824*
X8848Y4769*
Y4320D02*
Y4769D01*
X7874Y4311D02*
Y4724D01*
X2165Y3740D02*
X3740D01*
X1968Y3937D02*
X2165Y3740D01*
X2559Y5452D02*
X3011D01*
X3149Y5315*
X3720*
X2755Y6102D02*
X3346Y5511D01*
X2362Y6102D02*
X2755D01*
X1968Y5708D02*
X2362Y6102D01*
X1968Y3937D02*
Y5708D01*
X2362Y6388D02*
Y7623D01*
X1770Y5797D02*
X2362Y6388D01*
X1770Y4920D02*
Y5797D01*
X3346Y5511D02*
X3720D01*
X7716Y11651D02*
X8820D01*
X9665Y8858D02*
D01*
X10433*
X10236Y8464D02*
X10433Y8267D01*
Y8858*
X10236Y9055D02*
X10433Y8858D01*
X9665Y9055D02*
X10236D01*
X4724Y4921D02*
X4921Y5118D01*
X3720Y4921D02*
X4724D01*
X6529Y10826D02*
X8464D01*
X4453D02*
X6529D01*
X6692Y10990*
Y11220*
X4330Y10255D02*
Y10563D01*
X5511Y4311D02*
Y5511D01*
X2362Y2657D02*
X3007Y2011D01*
Y1787D02*
Y2011D01*
X3641Y2153D02*
X4007Y1787D01*
X3641Y2153D02*
Y2755D01*
X7677D02*
X8039Y2393D01*
X1322Y12401D02*
X1337Y12385D01*
X393Y12401D02*
X1322D01*
X5435Y12385D02*
X5669Y12151D01*
X4330Y12385D02*
X5435D01*
X3387D02*
X4330D01*
X3387Y14385D02*
X3402Y14370D01*
X3387Y14385D02*
X3935D01*
X16043Y13921D02*
X16072Y13891D01*
X16043Y13921D02*
Y14566D01*
X15059Y15551D02*
X15452Y15157D01*
X14133Y15551D02*
X15059D01*
X13011Y14429D02*
X14133Y15551D01*
X15452Y15157D02*
X15452D01*
X15452Y14566D02*
Y15157D01*
X14133Y14429D02*
X14271Y14566D01*
X13759Y14429D02*
X14133D01*
X13385Y11598D02*
X13415Y11628D01*
X14572*
X15572D02*
X16072D01*
X15072D02*
X15572D01*
X14572D02*
X15072D01*
X16072D02*
X16153Y11708D01*
X16728*
X16732Y11712*
Y12303D02*
Y12539D01*
X17126Y12933*
X16732Y14468D02*
X16752Y14448D01*
Y13838D02*
Y14448D01*
X17322Y14015D02*
X17500Y13838D01*
X17322Y14015D02*
Y14468D01*
X16338Y9252D02*
X16437Y9350D01*
Y9842*
X17126Y6988D02*
D01*
X16338D02*
X17126D01*
X15838D02*
X16338D01*
X15338D02*
X15838D01*
X14838D02*
X15338D01*
X13665D02*
X14838D01*
X13582Y7070D02*
X13665Y6988D01*
X15452Y10826D02*
X15846Y10433D01*
X14133Y10826D02*
X15452D01*
X13208Y9901D02*
X14133Y10826D01*
X13956Y9901D02*
X14015Y9842D01*
X14665*
X15846D02*
D01*
Y10433*
X17126Y7578D02*
X17519Y7972D01*
Y8208*
X17126Y9744D02*
X17145Y9724D01*
Y9114D02*
Y9724D01*
X17716Y9744D02*
X17893Y9566D01*
Y9114D02*
Y9566D01*
X11988Y16000D02*
X12129Y16141D01*
X11988Y15255D02*
Y16000D01*
X10629Y16141D02*
Y16147D01*
X9842Y15354D02*
X10629Y16141D01*
X8464Y17992D02*
X8484Y17972D01*
X8464Y17992D02*
Y19488D01*
X10629Y16147D02*
X11129D01*
Y16141D02*
Y16147D01*
X11629*
Y16141D02*
Y16147D01*
X12129*
Y16141D02*
Y16147D01*
X12106Y18761D02*
Y19291D01*
Y18761D02*
X12129Y18738D01*
Y18405D02*
Y18738D01*
X9222Y18602D02*
X9252D01*
X9222Y18067D02*
Y18602D01*
Y18067D02*
X9232Y18057D01*
Y17972D02*
Y18057D01*
X4035Y16535D02*
X4426Y16144D01*
X6163*
X6673Y16654*
Y17657*
X4035Y16535D02*
X4626D01*
X5925Y17036D02*
Y17657D01*
X3444Y16535D02*
Y17511D01*
X3352Y17604D02*
X3444Y17511D01*
X5007Y1787D02*
X5039Y1771D01*
X9665Y7480D02*
X10236D01*
X6007Y1787D02*
X6039Y1771D01*
X8007Y1787D02*
X8039Y1771D01*
X4330Y3740D02*
X5315Y2755D01*
X4330Y3740D02*
Y4311D01*
X9007Y1787D02*
X9039Y1771D01*
X10007Y1787D02*
X10039Y1771D01*
X3852Y19868D02*
X4352D01*
X4852*
X3352D02*
X3852D01*
X4852D02*
X4907D01*
X5708Y20669*
X3352Y19868D02*
X3366Y19881D01*
Y20570*
X7421Y14173D02*
X8267Y13326D01*
Y12992D02*
Y13326D01*
X7927Y12651D02*
X8267Y12992D01*
X7716Y12651D02*
X7927D01*
X4330Y13906D02*
X5585Y12651D01*
X5669*
X6692Y12523D02*
X7320Y13151D01*
X6692Y11811D02*
Y12523D01*
X6102Y11220D02*
X6692Y11811D01*
X7320Y13151D02*
X7716D01*
X4330Y10255D02*
X4340Y10265D01*
Y10714*
X4453Y10826*
X8464Y10815D02*
Y10826D01*
Y10815D02*
X8651Y10628D01*
Y10265D02*
Y10628D01*
Y10265D02*
X8661Y10255D01*
X4527Y9823D02*
D01*
Y10255D01*
X8858Y9823D02*
Y10255D01*
X10925Y19488D02*
X11515D01*
X8464D02*
X8858Y19881D01*
X10531*
X10925Y19488*
X12007Y1787D02*
Y1968D01*
X9665Y8464D02*
X10236D01*
X9232Y8661D02*
X9665D01*
X9665*
X8839Y6692D02*
X9665D01*
X9665*
X7874Y4311D02*
D01*
X3258Y5088D02*
X3328D01*
Y5108*
X3710*
X3720Y5118*
X10431Y612D02*
Y809D01*
X5007Y1787D02*
X5307D01*
X5883Y1210*
X6183*
X6431Y962*
Y663D02*
Y962D01*
X3543Y3346D02*
X3883D01*
X4527Y3793D02*
X5368Y2952D01*
X4527Y3793D02*
Y4311D01*
X12007Y787D02*
Y1787D01*
X5610Y17027D02*
X5905D01*
X5315Y17322D02*
X5610Y17027D01*
X3149Y9645D02*
X3720D01*
X1858Y10937D02*
X3149Y9645D01*
X984Y10937D02*
X1858D01*
X984Y9937D02*
X2464D01*
X2952Y9448*
X3720*
X984Y3937D02*
Y4133D01*
X1770Y4920*
X2362Y7623D02*
X3006Y8267D01*
X3720*
X2942Y8454D02*
X3710D01*
X2185Y7696D02*
X2942Y8454D01*
X2185Y6462D02*
Y7696D01*
X1378Y5655D02*
X2185Y6462D01*
X1378Y5330D02*
Y5655D01*
X984Y4937D02*
X1378Y5330D01*
X984Y5937D02*
X1409D01*
X2007Y6535*
Y7770*
X2889Y8651*
X3720*
Y8661*
X984Y6937D02*
Y6997D01*
X2845Y8858*
X3720*
X984Y7937D02*
X1673D01*
X2781Y9045*
X3710*
X3720Y9055*
X984Y8937D02*
X2423D01*
X2728Y9242*
X3710*
X3720Y9252*
X9232Y17972D02*
X9842Y17362D01*
Y17322D02*
Y17362D01*
X13759Y13996D02*
Y14429D01*
Y13996D02*
X13957Y13798D01*
Y13582D02*
Y13798D01*
X16752Y13838D02*
X17716Y12874D01*
X17500Y13838D02*
X17952Y13385D01*
X18307*
X13789Y9901D02*
X13956D01*
X13454Y9566D02*
X13789Y9901D01*
X13307Y9566D02*
X13454D01*
X12795Y9055D02*
X13307Y9566D01*
X17145Y8287D02*
Y9114D01*
X16929Y8070D02*
X17145Y8287D01*
X17893D02*
Y9114D01*
Y8287D02*
X18307Y7874D01*
X8214Y12151D02*
X8661Y12598D01*
X7716Y12151D02*
X8214D01*
G54D25*
X8228Y7656D02*
X9232Y8661D01*
X8228Y5157D02*
Y6259D01*
Y5157D02*
X8267Y5118D01*
X8228Y6259D02*
Y7656D01*
Y6259D02*
X8406D01*
X8839Y6692*
X2460Y3346D02*
X2952D01*
X2362Y3248D02*
X2460Y3346D01*
X2952Y2854D02*
Y3346D01*
Y2854D02*
X3051Y2755D01*
X5295Y9055D02*
X6496D01*
X4527Y9823D02*
X5295Y9055D01*
X8090D02*
X8858Y9823D01*
X6496Y9055D02*
X8090D01*
X393Y14370D02*
X409Y14385D01*
X1337*
X3287Y13385D02*
X3387D01*
X4330*
X14370Y10433D02*
X15255D01*
X5807Y16535D02*
X5905Y16437D01*
X5216Y16535D02*
X5807D01*
X4852Y17194D02*
Y17594D01*
X5216Y16535D02*
Y16830D01*
X4852Y17194D02*
X5216Y16830D01*
X4352Y17604D02*
X4842D01*
X3852D02*
X4352D01*
X4330Y17582D02*
X4352Y17604D01*
X4330Y17126D02*
Y17582D01*
X11129Y18807D02*
X11220Y18897D01*
X11129Y18405D02*
Y18807D01*
X10629Y18405D02*
Y18996D01*
X11129Y18405D02*
X11629D01*
X10629D02*
X11129D01*
X15072Y13891D02*
X15572D01*
X14572D02*
X15072D01*
X15338Y9252D02*
X15838D01*
X14838D02*
X15338D01*
X15255Y9334D02*
X15338Y9252D01*
X15255Y9334D02*
Y9842D01*
D01*
Y10433D01*
X16535D02*
X16633Y10334D01*
X17126*
X17716*
X16141Y15157D02*
X16240Y15059D01*
X16732*
X17322*
X14370Y15157D02*
D01*
X14862*
Y14566D02*
D01*
Y15157D01*
X14572Y13891D02*
X14862Y14181D01*
Y14566*
X1574Y3149D02*
X1673Y3248D01*
X2362*
X1574Y3149D02*
X1673Y3051D01*
X3740Y21456D02*
X5921D01*
X6708Y20669*
X1771Y15354D02*
X6102D01*
X1337Y14920D02*
X1771Y15354D01*
X6102D02*
X7480Y16732D01*
X13582Y8070D02*
Y8996D01*
X13385Y12598D02*
Y13523D01*
X12795Y8070D02*
X13582D01*
X12204Y8661D02*
X12795Y8070D01*
X12204Y8661D02*
Y12598D01*
X13385*
X11614Y13189D02*
X12204Y12598D01*
X11614Y13189D02*
Y14370D01*
X8842Y15370D02*
Y17051D01*
X9826Y14370D02*
X11614D01*
X8842Y15354D02*
X9826Y14370D01*
X7480Y16732D02*
X8842Y15370D01*
X6555Y18563D02*
X6889Y18897D01*
X6299Y18563D02*
X6555D01*
X6889Y18897D02*
Y20488D01*
Y18897D02*
X7480Y18307D01*
Y16732D02*
Y18307D01*
X1337Y14385D02*
Y14920D01*
X6358Y11870D02*
Y14173D01*
X6139Y11651D02*
X6358Y11870D01*
X5669Y11651D02*
X6139D01*
X9252Y19192D02*
X9547Y19488D01*
X10334*
Y19291D02*
Y19488D01*
Y19291D02*
X10629Y18996D01*
X3149Y4330D02*
Y4979D01*
X3258Y5088*
X2696Y4330D02*
X3149D01*
X3543*
G54D26*
X984Y10937D03*
Y9937D03*
Y8937D03*
Y7937D03*
Y6937D03*
Y5937D03*
Y4937D03*
X5708Y20669D03*
X9842Y15354D03*
X3007Y787D03*
Y1787D03*
X4007Y787D03*
Y1787D03*
X5007Y787D03*
Y1787D03*
X6007Y787D03*
Y1787D03*
X7007Y787D03*
Y1787D03*
X8007Y787D03*
Y1787D03*
X9007Y787D03*
Y1787D03*
X10007Y787D03*
Y1787D03*
X11007Y787D03*
Y1787D03*
X12007Y787D03*
X13385Y11598D03*
X13582Y7070D03*
G54D27*
X984Y3937D03*
X13385Y12598D03*
X13582Y8070D03*
G54D28*
X6708Y20669D03*
X8842Y15354D03*
X12007Y1787D03*
G54D29*
X4330Y14370D03*
X5826Y14133D03*
X11692Y2952D03*
X12480Y2992D03*
X13267D03*
X13976Y2952D03*
X6692Y3347D03*
X8228Y6259D03*
X10393Y6574D03*
X11456Y6614D03*
X393Y13385D03*
Y14370D03*
X4921Y5118D03*
X3543Y4330D03*
X6692Y11220D03*
X6496Y9055D03*
X14370Y10433D03*
X16535D03*
X16141Y15157D03*
X14370D03*
X11220Y18897D03*
X393Y12401D03*
X4330Y12385D03*
Y13385D03*
Y17126D03*
X5315Y17322D03*
X9842D03*
X13957Y13582D03*
X17716Y12874D03*
X18307Y13385D03*
X12795Y9055D03*
X16929Y8070D03*
X18307Y7874D03*
X8661Y12598D03*
G54D30*
X1574Y3149D03*
G54D31*
X22047Y1378D03*
X1378Y22047D03*
Y1378D03*
M02*