%FSLAX24Y24*%
%MOIN*%
%SFA1B1*%

%IPPOS*%
%ADD24C,0.009840*%
%ADD32C,0.023620*%
%ADD33C,0.007870*%
%ADD34C,0.008000*%
%LNdeploy-1*%
%LPD*%
G54D24*
X9616Y17972D02*
D01*
D01*
G75*
G03X9517I-49J0D01*
G74*G01*
D01*
G75*
G03X9616I49J0D01*
G74*G01*
X7765Y11316D02*
D01*
D01*
G75*
G03X7667I-49J0D01*
G74*G01*
D01*
G75*
G03X7765I49J0D01*
G74*G01*
X3080Y20570D02*
D01*
D01*
G75*
G03X2982I-49J0D01*
G74*G01*
D01*
G75*
G03X3080I49J0D01*
G74*G01*
X12372Y15255D02*
D01*
D01*
G75*
G03X12273I-49J0D01*
G74*G01*
D01*
G75*
G03X12372I49J0D01*
G74*G01*
X14488Y9520D02*
D01*
D01*
G75*
G03X14390I-49J0D01*
G74*G01*
D01*
G75*
G03X14488I49J0D01*
G74*G01*
X18277Y9114D02*
D01*
D01*
G75*
G03X18179I-49J0D01*
G74*G01*
D01*
G75*
G03X18277I49J0D01*
G74*G01*
X14222Y14159D02*
D01*
D01*
G75*
G03X14124I-49J0D01*
G74*G01*
D01*
G75*
G03X14222I49J0D01*
G74*G01*
X5300Y17336D02*
D01*
D01*
G75*
G03X5202I-49J0D01*
G74*G01*
D01*
G75*
G03X5300I49J0D01*
G74*G01*
X5639Y17657D02*
D01*
D01*
G75*
G03X5541I-49J0D01*
G74*G01*
D01*
G75*
G03X5639I49J0D01*
G74*G01*
X10279Y18673D02*
D01*
D01*
G75*
G03X10181I-49J0D01*
G74*G01*
D01*
G75*
G03X10279I49J0D01*
G74*G01*
X9714Y4645D02*
D01*
D01*
G75*
G03X9616I-49J0D01*
G74*G01*
D01*
G75*
G03X9714I49J0D01*
G74*G01*
X3461Y11635D02*
D01*
D01*
G75*
G03X3363I-49J0D01*
G74*G01*
D01*
G75*
G03X3461I49J0D01*
G74*G01*
X14143Y14429D02*
D01*
D01*
G75*
G03X14045I-49J0D01*
G74*G01*
D01*
G75*
G03X14143I49J0D01*
G74*G01*
X14340Y9901D02*
D01*
D01*
G75*
G03X14242I-49J0D01*
G74*G01*
D01*
G75*
G03X14340I49J0D01*
G74*G01*
X17883Y13838D02*
D01*
D01*
G75*
G03X17785I-49J0D01*
G74*G01*
D01*
G75*
G03X17883I49J0D01*
G74*G01*
G54D32*
X6929Y11811D02*
D01*
D01*
G75*
G03X6692I-118J0D01*
G74*G01*
D01*
G75*
G03X6929I118J0D01*
G74*G01*
X8877Y5216D02*
D01*
D01*
G75*
G03X8641I-118J0D01*
G74*G01*
D01*
G75*
G03X8877I118J0D01*
G74*G01*
G54D33*
X13090Y3858D02*
Y4015D01*
X13366Y3858D02*
Y4015D01*
X13799Y3858D02*
Y4015D01*
X14074Y3858D02*
Y4015D01*
X12342Y3858D02*
Y4015D01*
X12618Y3858D02*
Y4015D01*
X11555Y3858D02*
Y4015D01*
X11830Y3858D02*
Y4015D01*
X10255Y3661D02*
Y3818D01*
X10531Y3661D02*
Y3818D01*
X484Y3437D02*
Y11437D01*
Y3437D02*
X1484D01*
Y11437*
X484D02*
X1484D01*
X15078Y15019D02*
X15236D01*
X15078Y15295D02*
X15236D01*
X9448Y17244D02*
Y17598D01*
X9133Y17244D02*
X9448D01*
X8267D02*
Y17598D01*
Y17244D02*
X8582D01*
X9114Y18818D02*
Y18976D01*
X9389Y18818D02*
Y18976D01*
X2854Y4763D02*
Y5078D01*
X2263Y4763D02*
Y5078D01*
X3169Y3208D02*
X3326D01*
X3169Y3484D02*
X3326D01*
X5208Y20169D02*
X7208D01*
Y21169*
X5208D02*
X7208D01*
X5208Y20169D02*
Y21169D01*
X8342Y15854D02*
X10342D01*
X8342Y14854D02*
Y15854D01*
Y14854D02*
X10342D01*
Y15854*
X6732Y14468D02*
X7047D01*
X6732Y13878D02*
X7047D01*
X7204Y11417D02*
Y13385D01*
X6181Y11417D02*
Y13385D01*
Y11417D02*
X7204D01*
X6181Y13385D02*
X7204D01*
X4015Y21289D02*
X4330D01*
Y20935D02*
Y21289D01*
X3149D02*
X3464D01*
X3149Y20935D02*
Y21289D01*
X11023Y14537D02*
X11338D01*
X11023D02*
Y14891D01*
X11889Y14537D02*
X12204D01*
Y14891*
X2507Y2287D02*
X11757D01*
X2507Y287D02*
X11757D01*
X12507*
Y2287*
X11757D02*
X12507D01*
X2507Y287D02*
Y2287D01*
X18110Y8385D02*
Y8740D01*
X17795Y8385D02*
X18110D01*
X16929D02*
Y8740D01*
Y8385D02*
X17244D01*
X5708Y18031D02*
Y18385D01*
X6023*
X6889Y18031D02*
Y18385D01*
X6574D02*
X6889D01*
X14881Y9980D02*
X15039D01*
X14881Y9704D02*
X15039D01*
X16988Y7204D02*
Y7362D01*
X17263Y7204D02*
Y7362D01*
X16063Y9980D02*
X16220D01*
X16063Y9704D02*
X16220D01*
X3267Y2618D02*
X3425D01*
X3267Y2893D02*
X3425D01*
X6043Y16653D02*
Y16811D01*
X5767Y16653D02*
Y16811D01*
X10551Y19350D02*
X10708D01*
X10551Y19626D02*
X10708D01*
X4232Y9744D02*
X9153D01*
X4232Y4822D02*
X9153D01*
X4232D02*
Y9744D01*
X9153Y4822D02*
Y9744D01*
X1362Y11885D02*
X3362D01*
X1362D02*
Y12003D01*
X3362Y11885D02*
Y12003D01*
X1362Y14767D02*
Y14885D01*
X3362Y14767D02*
Y14885D01*
X1362D02*
X3362D01*
X2224Y2874D02*
Y3031D01*
X2500Y2874D02*
Y3031D01*
X3661Y16397D02*
X3818D01*
X3661Y16673D02*
X3818D01*
X4842D02*
X5000D01*
X4842Y16397D02*
X5000D01*
X13976Y13700D02*
Y14055D01*
X13661Y13700D02*
X13976D01*
X12795D02*
Y14055D01*
Y13700D02*
X13110D01*
X13885Y11098D02*
Y13098D01*
X12885D02*
X13885D01*
X12885Y11098D02*
Y13098D01*
Y11098D02*
X13885D01*
X15472Y10295D02*
X15629D01*
X15472Y10570D02*
X15629D01*
X14173Y9173D02*
Y9527D01*
X13858Y9173D02*
X14173D01*
X12992D02*
Y9527D01*
Y9173D02*
X13307D01*
X14082Y6570D02*
Y8570D01*
X13082D02*
X14082D01*
X13082Y6570D02*
Y8570D01*
Y6570D02*
X14082D01*
X17578Y9960D02*
Y10118D01*
X17854Y9960D02*
Y10118D01*
X16988Y9960D02*
Y10118D01*
X17263Y9960D02*
Y10118D01*
X16594Y11929D02*
Y12086D01*
X16870Y11929D02*
Y12086D01*
X16594Y14685D02*
Y14842D01*
X16870Y14685D02*
Y14842D01*
X17185Y14685D02*
Y14842D01*
X17460Y14685D02*
Y14842D01*
X17716Y13110D02*
Y13464D01*
X17401Y13110D02*
X17716D01*
X16535D02*
Y13464D01*
Y13110D02*
X16850D01*
X14488Y14704D02*
X14645D01*
X14488Y14429D02*
X14645D01*
X15669Y14704D02*
X15826D01*
X15669Y14429D02*
X15826D01*
X11732Y19626D02*
X11889D01*
X11732Y19350D02*
X11889D01*
X13070Y4606D02*
Y4999D01*
X13267*
X13333Y4934*
Y4803*
X13267Y4737*
X13070*
X13202D02*
X13333Y4606D01*
X13726Y4999D02*
X13595Y4934D01*
X13464Y4803*
Y4671*
X13530Y4606*
X13661*
X13726Y4671*
Y4737*
X13661Y4803*
X13464*
X14370Y3740D02*
Y4133D01*
X14566*
X14632Y4068*
Y3936*
X14566Y3871*
X14370*
X14501D02*
X14632Y3740D01*
X14763Y4133D02*
X15026D01*
Y4068*
X14763Y3805*
Y3740*
X12165Y4606D02*
Y4999D01*
X12362*
X12427Y4934*
Y4803*
X12362Y4737*
X12165*
X12296D02*
X12427Y4606D01*
X12821Y4999D02*
X12558D01*
Y4803*
X12690Y4868*
X12755*
X12821Y4803*
Y4671*
X12755Y4606*
X12624*
X12558Y4671*
X11259Y4606D02*
Y4999D01*
X11456*
X11522Y4934*
Y4803*
X11456Y4737*
X11259*
X11391D02*
X11522Y4606D01*
X11850D02*
Y4999D01*
X11653Y4803*
X11915*
X9015Y3189D02*
Y3582D01*
X9212*
X9278Y3517*
Y3385*
X9212Y3320*
X9015*
X9146D02*
X9278Y3189D01*
X9409Y3517D02*
X9474Y3582D01*
X9606*
X9671Y3517*
Y3451*
X9606Y3385*
X9671Y3320*
Y3254*
X9606Y3189*
X9474*
X9409Y3254*
Y3320*
X9474Y3385*
X9409Y3451*
Y3517*
X9474Y3385D02*
X9606D01*
X14133Y15551D02*
Y15944D01*
X14330*
X14396Y15879*
Y15748*
X14330Y15682*
X14133*
X14265D02*
X14396Y15551D01*
X14789D02*
X14527D01*
X14789Y15813*
Y15879*
X14724Y15944*
X14593*
X14527Y15879*
X15183Y15944D02*
X14921D01*
Y15551*
X15183*
X14921Y15748D02*
X15052D01*
X7545Y18372D02*
Y18635D01*
X7480Y18700*
X7349*
X7283Y18635*
Y18372*
X7349Y18307*
X7480*
X7414Y18438D02*
X7545Y18307D01*
X7480D02*
X7545Y18372D01*
X7677Y18307D02*
Y18569D01*
X7742*
X7808Y18503*
Y18307*
Y18503*
X7873Y18569*
X7939Y18503*
Y18307*
X8267D02*
Y18700D01*
X8070Y18503*
X8333*
X8464Y18700D02*
Y18307D01*
X8661*
X8726Y18372*
Y18438*
X8661Y18503*
X8464*
X8661*
X8726Y18569*
Y18635*
X8661Y18700*
X8464*
X8661Y19685D02*
Y20078D01*
X8858*
X8923Y20013*
Y19881*
X8858Y19816*
X8661*
X8792D02*
X8923Y19685D01*
X9251D02*
Y20078D01*
X9055Y19881*
X9317*
X9448Y19685D02*
Y19947D01*
X9579Y20078*
X9711Y19947*
Y19685*
Y19881*
X9448*
X2624Y6627D02*
X2559Y6692D01*
X2427*
X2362Y6627*
Y6364*
X2427Y6299*
X2559*
X2624Y6364*
X2755Y6299D02*
X2887D01*
X2821*
Y6692*
X2755Y6627*
X3937Y3149D02*
Y3543D01*
X4133*
X4199Y3477*
Y3346*
X4133Y3280*
X3937*
X4068D02*
X4199Y3149D01*
X4330D02*
X4461D01*
X4396*
Y3543*
X4330Y3477*
X5245Y21485D02*
Y21747D01*
X5376Y21878*
X5507Y21747*
Y21485*
Y21681*
X5245*
X5900Y21812D02*
X5835Y21878D01*
X5704*
X5638Y21812*
Y21550*
X5704Y21485*
X5835*
X5900Y21550*
X6032Y21878D02*
X6294D01*
X6163*
Y21485*
X6425D02*
X6556D01*
X6491*
Y21878*
X6425Y21812*
X8385Y16175D02*
Y16437D01*
X8516Y16568*
X8647Y16437*
Y16175*
Y16371*
X8385*
X9040Y16502D02*
X8975Y16568D01*
X8844*
X8778Y16502*
Y16240*
X8844Y16175*
X8975*
X9040Y16240*
X9172Y16568D02*
X9434D01*
X9303*
Y16175*
X9828D02*
X9565D01*
X9828Y16437*
Y16502*
X9762Y16568*
X9631*
X9565Y16502*
X6427Y15172D02*
X6361Y15238D01*
X6230*
X6165Y15172*
Y14910*
X6230Y14845*
X6361*
X6427Y14910*
X6820Y14845D02*
X6558D01*
X6820Y15107*
Y15172*
X6755Y15238*
X6624*
X6558Y15172*
X3015Y22468D02*
Y22075D01*
X3211*
X3277Y22140*
Y22402*
X3211Y22468*
X3015*
X3408Y22075D02*
X3539D01*
X3474*
Y22468*
X3408Y22402*
X12007Y7480D02*
X12139D01*
X12073*
Y7086*
X12007*
X12139*
X12598Y7414D02*
X12532Y7480D01*
X12401*
X12335Y7414*
Y7152*
X12401Y7086*
X12532*
X12598Y7152*
Y7283*
X12467*
X12729Y7086D02*
X12860D01*
X12795*
Y7480*
X12729Y7414*
X11614Y12204D02*
X11745D01*
X11679*
Y11811*
X11614*
X11745*
X12204Y12139D02*
X12138Y12204D01*
X12007*
X11942Y12139*
Y11876*
X12007Y11811*
X12138*
X12204Y11876*
Y12007*
X12073*
X12598Y11811D02*
X12335D01*
X12598Y12073*
Y12139*
X12532Y12204*
X12401*
X12335Y12139*
X12860Y10301D02*
Y10564D01*
X12795Y10629*
X12664*
X12598Y10564*
Y10301*
X12664Y10236*
X12795*
X12729Y10367D02*
X12860Y10236D01*
X12795D02*
X12860Y10301D01*
X12992Y10236D02*
Y10498D01*
X13057*
X13123Y10433*
Y10236*
Y10433*
X13188Y10498*
X13254Y10433*
Y10236*
X13385D02*
X13516D01*
X13451*
Y10629*
X13385Y10564*
X13713Y10629D02*
Y10236D01*
X13910*
X13975Y10301*
Y10367*
X13910Y10433*
X13713*
X13910*
X13975Y10498*
Y10564*
X13910Y10629*
X13713*
X11286Y13451D02*
Y13713D01*
X11220Y13779*
X11089*
X11023Y13713*
Y13451*
X11089Y13385*
X11220*
X11154Y13517D02*
X11286Y13385D01*
X11220D02*
X11286Y13451D01*
X11417Y13385D02*
Y13648D01*
X11482*
X11548Y13582*
Y13385*
Y13582*
X11614Y13648*
X11679Y13582*
Y13385*
X12073D02*
X11810D01*
X12073Y13648*
Y13713*
X12007Y13779*
X11876*
X11810Y13713*
X12204Y13779D02*
Y13385D01*
X12401*
X12466Y13451*
Y13517*
X12401Y13582*
X12204*
X12401*
X12466Y13648*
Y13713*
X12401Y13779*
X12204*
X5837Y19220D02*
Y19482D01*
X5771Y19548*
X5640*
X5575Y19482*
Y19220*
X5640Y19155*
X5771*
X5706Y19286D02*
X5837Y19155D01*
X5771D02*
X5837Y19220D01*
X5968Y19155D02*
Y19417D01*
X6034*
X6099Y19351*
Y19155*
Y19351*
X6165Y19417*
X6230Y19351*
Y19155*
X6362Y19482D02*
X6427Y19548D01*
X6558*
X6624Y19482*
Y19417*
X6558Y19351*
X6493*
X6558*
X6624Y19286*
Y19220*
X6558Y19155*
X6427*
X6362Y19220*
X6755Y19548D02*
Y19155D01*
X6952*
X7018Y19220*
Y19286*
X6952Y19351*
X6755*
X6952*
X7018Y19417*
Y19482*
X6952Y19548*
X6755*
X18110Y9842D02*
Y10236D01*
X18307*
X18372Y10170*
Y10039*
X18307Y9973*
X18110*
X18241D02*
X18372Y9842D01*
X18503D02*
X18635D01*
X18569*
Y10236*
X18503Y10170*
X19094D02*
X19028Y10236D01*
X18897*
X18831Y10170*
Y9908*
X18897Y9842*
X19028*
X19094Y9908*
X15157Y10826D02*
Y11220D01*
X15354*
X15419Y11154*
Y11023*
X15354Y10958*
X15157*
X15288D02*
X15419Y10826D01*
X15551D02*
X15682D01*
X15616*
Y11220*
X15551Y11154*
X16141Y11220D02*
X15879D01*
Y10826*
X16141*
X15879Y11023D02*
X16010D01*
X16535Y10629D02*
Y11023D01*
X16732*
X16797Y10957*
Y10826*
X16732Y10761*
X16535*
X16666D02*
X16797Y10629D01*
X16929D02*
X17060D01*
X16994*
Y11023*
X16929Y10957*
X17519Y11023D02*
X17257D01*
Y10826*
X17388*
X17257*
Y10629*
X12795Y14960D02*
Y15354D01*
X12992*
X13057Y15288*
Y15157*
X12992Y15091*
X12795*
X12926D02*
X13057Y14960D01*
X13451D02*
X13188D01*
X13451Y15223*
Y15288*
X13385Y15354*
X13254*
X13188Y15288*
X13582Y14960D02*
Y15223D01*
X13713Y15354*
X13844Y15223*
Y14960*
Y15157*
X13582*
X17126Y12007D02*
Y12401D01*
X17322*
X17388Y12335*
Y12204*
X17322Y12139*
X17126*
X17257D02*
X17388Y12007D01*
X17781D02*
X17519D01*
X17781Y12270*
Y12335*
X17716Y12401*
X17585*
X17519Y12335*
X17913Y12401D02*
Y12007D01*
X18109*
X18175Y12073*
Y12139*
X18109Y12204*
X17913*
X18109*
X18175Y12270*
Y12335*
X18109Y12401*
X17913*
X15551Y15551D02*
Y15944D01*
X15748*
X15813Y15879*
Y15748*
X15748Y15682*
X15551*
X15682D02*
X15813Y15551D01*
X16207D02*
X15944D01*
X16207Y15813*
Y15879*
X16141Y15944*
X16010*
X15944Y15879*
X16338Y15944D02*
Y15551D01*
X16535*
X16600Y15616*
Y15879*
X16535Y15944*
X16338*
X4330Y15748D02*
Y16141D01*
X4527*
X4593Y16076*
Y15944*
X4527Y15879*
X4330*
X4461D02*
X4593Y15748D01*
X4724Y16076D02*
X4789Y16141D01*
X4921*
X4986Y16076*
Y16010*
X4921Y15944*
X4855*
X4921*
X4986Y15879*
Y15813*
X4921Y15748*
X4789*
X4724Y15813*
X5117Y16141D02*
Y15748D01*
X5314*
X5380Y15813*
Y15879*
X5314Y15944*
X5117*
X5314*
X5380Y16010*
Y16076*
X5314Y16141*
X5117*
X1968Y16338D02*
Y16732D01*
X2165*
X2230Y16666*
Y16535*
X2165Y16469*
X1968*
X2099D02*
X2230Y16338D01*
X2362Y16666D02*
X2427Y16732D01*
X2558*
X2624Y16666*
Y16601*
X2558Y16535*
X2493*
X2558*
X2624Y16469*
Y16404*
X2558Y16338*
X2427*
X2362Y16404*
X3018Y16666D02*
X2952Y16732D01*
X2821*
X2755Y16666*
Y16404*
X2821Y16338*
X2952*
X3018Y16404*
X1968Y3543D02*
Y3936D01*
X2165*
X2230Y3871*
Y3740*
X2165Y3674*
X1968*
X2099D02*
X2230Y3543D01*
X2362Y3871D02*
X2427Y3936D01*
X2558*
X2624Y3871*
Y3805*
X2558Y3740*
X2493*
X2558*
X2624Y3674*
Y3608*
X2558Y3543*
X2427*
X2362Y3608*
X12401Y18700D02*
Y19094D01*
X12598*
X12664Y19028*
Y18897*
X12598Y18832*
X12401*
X12532D02*
X12664Y18700D01*
X12991D02*
Y19094D01*
X12795Y18897*
X13057*
X13451Y19028D02*
X13385Y19094D01*
X13254*
X13188Y19028*
Y18766*
X13254Y18700*
X13385*
X13451Y18766*
X997Y15652D02*
X931Y15718D01*
X800*
X735Y15652*
Y15390*
X800Y15325*
X931*
X997Y15390*
X1128Y15325D02*
Y15587D01*
X1259Y15718*
X1390Y15587*
Y15325*
Y15521*
X1128*
X1522Y15325D02*
Y15718D01*
X1784Y15325*
Y15718*
X1915Y15259D02*
X2178D01*
X2309Y15325D02*
Y15718D01*
X2506*
X2571Y15652*
Y15521*
X2506Y15456*
X2309*
X2702Y15718D02*
Y15325D01*
X2834Y15456*
X2965Y15325*
Y15718*
X3096Y15325D02*
Y15718D01*
X3293*
X3358Y15652*
Y15521*
X3293Y15456*
X3096*
X3227D02*
X3358Y15325D01*
G54D34*
X12674Y987D02*
X13007D01*
X12674Y654*
Y570*
X12757Y487*
X12924*
X13007Y570*
Y1987D02*
X12841D01*
X12924*
Y1487*
X13007Y1570*
X2407Y1987D02*
X2241D01*
X2324*
Y1487*
X2407Y1570*
X1991Y1904D02*
X1908Y1987D01*
X1741*
X1658Y1904*
Y1570*
X1741Y1487*
X1908*
X1991Y1570*
Y1654*
X1908Y1737*
X1658*
X2074Y987D02*
X2407D01*
X2074Y654*
Y570*
X2157Y487*
X2324*
X2407Y570*
X1908D02*
X1824Y487D01*
X1658*
X1574Y570*
Y904*
X1658Y987*
X1824*
X1908Y904*
Y570*
M02*