G04 Layer_Color=8388736*
%FSLAX24Y24*%
%MOIN*%
G70*
G01*
G75*
%ADD35R,0.0315X0.0492*%
%ADD36R,0.0315X0.0532*%
%ADD37R,0.0354X0.0433*%
%ADD38R,0.0433X0.0354*%
%ADD39R,0.1329X0.0528*%
%ADD40O,0.0787X0.0197*%
%ADD41O,0.0197X0.0787*%
%ADD42R,0.1898X0.1740*%
%ADD43R,0.0291X0.0217*%
%ADD44R,0.0299X0.0417*%
%ADD45R,0.0299X0.0496*%
%ADD46O,0.0787X0.0315*%
%ADD47R,0.0512X0.0748*%
%ADD48R,0.0748X0.0512*%
%ADD49R,0.0669X0.0669*%
%ADD50C,0.0669*%
%ADD51R,0.0669X0.0669*%
%ADD52C,0.0571*%
%ADD53C,0.0472*%
%ADD54C,0.2047*%
D35*
X6299Y18563D02*
D03*
X6673Y17657D02*
D03*
X5925D02*
D03*
X17087Y11831D02*
D03*
X16713Y12736D02*
D03*
X17461D02*
D03*
X14843Y7382D02*
D03*
X14468Y8287D02*
D03*
X15217D02*
D03*
X13346Y12421D02*
D03*
X12972Y13327D02*
D03*
X13720D02*
D03*
X18780Y6594D02*
D03*
X18406Y7500D02*
D03*
X19154D02*
D03*
X8858Y16240D02*
D03*
X8484Y17146D02*
D03*
X9232D02*
D03*
D36*
X3366Y20571D02*
D03*
X4114D02*
D03*
X3740Y21457D02*
D03*
X11909Y14469D02*
D03*
X11161D02*
D03*
X11535Y13583D02*
D03*
D37*
X12106Y18661D02*
D03*
X11516D02*
D03*
X16004Y13465D02*
D03*
X15413D02*
D03*
X14823D02*
D03*
X14232D02*
D03*
X16516Y8819D02*
D03*
X17106D02*
D03*
X5217Y16535D02*
D03*
X4626D02*
D03*
X3445D02*
D03*
X4035D02*
D03*
X10335Y18661D02*
D03*
X10925D02*
D03*
X3051Y2756D02*
D03*
X3642D02*
D03*
X17697Y8228D02*
D03*
X17106D02*
D03*
X16516D02*
D03*
X15925D02*
D03*
X2953Y3346D02*
D03*
X3543D02*
D03*
X14823Y14055D02*
D03*
X15413D02*
D03*
D38*
X17283Y13957D02*
D03*
Y13366D02*
D03*
X16693Y13957D02*
D03*
Y13366D02*
D03*
Y11201D02*
D03*
Y10610D02*
D03*
X18386Y8720D02*
D03*
Y8130D02*
D03*
X18976Y8720D02*
D03*
Y8130D02*
D03*
X2362Y3248D02*
D03*
Y2657D02*
D03*
X5906Y16437D02*
D03*
Y17028D02*
D03*
X18386Y5965D02*
D03*
Y5374D02*
D03*
X9252Y18366D02*
D03*
Y17776D02*
D03*
X10394Y4035D02*
D03*
Y3445D02*
D03*
X11693Y4232D02*
D03*
Y3642D02*
D03*
X12480Y4232D02*
D03*
Y3642D02*
D03*
X13937Y4232D02*
D03*
Y3642D02*
D03*
X13228Y4232D02*
D03*
Y3642D02*
D03*
D39*
X3387Y14386D02*
D03*
X1338D02*
D03*
X3387Y13386D02*
D03*
X1338D02*
D03*
Y12386D02*
D03*
X3387D02*
D03*
D40*
X9665Y4921D02*
D03*
Y5118D02*
D03*
Y5315D02*
D03*
Y5512D02*
D03*
Y5709D02*
D03*
Y5906D02*
D03*
Y6102D02*
D03*
Y6299D02*
D03*
Y6496D02*
D03*
Y6693D02*
D03*
Y6890D02*
D03*
Y7087D02*
D03*
Y7283D02*
D03*
Y7480D02*
D03*
Y7677D02*
D03*
Y7874D02*
D03*
Y8071D02*
D03*
Y8268D02*
D03*
Y8465D02*
D03*
Y8661D02*
D03*
Y8858D02*
D03*
Y9055D02*
D03*
Y9252D02*
D03*
Y9449D02*
D03*
Y9646D02*
D03*
X3720D02*
D03*
Y9449D02*
D03*
Y9252D02*
D03*
Y9055D02*
D03*
Y8858D02*
D03*
Y8661D02*
D03*
Y8465D02*
D03*
Y8268D02*
D03*
Y8071D02*
D03*
Y7874D02*
D03*
Y7677D02*
D03*
Y7480D02*
D03*
Y7283D02*
D03*
Y7087D02*
D03*
Y6890D02*
D03*
Y6693D02*
D03*
Y6496D02*
D03*
Y6299D02*
D03*
Y6102D02*
D03*
Y5906D02*
D03*
Y5709D02*
D03*
Y5512D02*
D03*
Y5315D02*
D03*
Y5118D02*
D03*
Y4921D02*
D03*
D41*
X9055Y10256D02*
D03*
X8858D02*
D03*
X8661D02*
D03*
X8465D02*
D03*
X8268D02*
D03*
X8071D02*
D03*
X7874D02*
D03*
X7677D02*
D03*
X7480D02*
D03*
X7283D02*
D03*
X7087D02*
D03*
X6890D02*
D03*
X6693D02*
D03*
X6496D02*
D03*
X6299D02*
D03*
X6102D02*
D03*
X5906D02*
D03*
X5709D02*
D03*
X5512D02*
D03*
X5315D02*
D03*
X5118D02*
D03*
X4921D02*
D03*
X4724D02*
D03*
X4528D02*
D03*
X4331D02*
D03*
Y4311D02*
D03*
X4528D02*
D03*
X4724D02*
D03*
X4921D02*
D03*
X5118D02*
D03*
X5315D02*
D03*
X5512D02*
D03*
X5709D02*
D03*
X5906D02*
D03*
X6102D02*
D03*
X6299D02*
D03*
X6496D02*
D03*
X6693D02*
D03*
X6890D02*
D03*
X7087D02*
D03*
X7283D02*
D03*
X7480D02*
D03*
X7677D02*
D03*
X7874D02*
D03*
X8071D02*
D03*
X8268D02*
D03*
X8465D02*
D03*
X8661D02*
D03*
X8858D02*
D03*
X9055D02*
D03*
D42*
X11380Y16315D02*
D03*
X4102Y18868D02*
D03*
X15283Y11526D02*
D03*
X16848Y6374D02*
D03*
D43*
X12396Y16876D02*
D03*
X10364D02*
D03*
X3087Y18307D02*
D03*
X5118D02*
D03*
X16299Y12087D02*
D03*
X14268D02*
D03*
X17864Y6935D02*
D03*
X15833D02*
D03*
D44*
X10630Y15315D02*
D03*
X11130D02*
D03*
X11630D02*
D03*
X12130D02*
D03*
X4852Y19868D02*
D03*
X4352D02*
D03*
X3852D02*
D03*
X3352D02*
D03*
X14533Y10526D02*
D03*
X15033D02*
D03*
X15533D02*
D03*
X16033D02*
D03*
X16098Y5374D02*
D03*
X16598D02*
D03*
X17098D02*
D03*
X17598D02*
D03*
D45*
X12130Y17579D02*
D03*
X11630D02*
D03*
X11130D02*
D03*
X10630D02*
D03*
X3352Y17604D02*
D03*
X3852D02*
D03*
X4352D02*
D03*
X4852D02*
D03*
X16033Y12789D02*
D03*
X15533D02*
D03*
X15033D02*
D03*
X14533D02*
D03*
X17598Y7638D02*
D03*
X17098D02*
D03*
X16598D02*
D03*
X16098D02*
D03*
D46*
X5669Y13152D02*
D03*
Y12652D02*
D03*
Y12152D02*
D03*
Y11652D02*
D03*
X7717Y13152D02*
D03*
Y12652D02*
D03*
Y12152D02*
D03*
Y11652D02*
D03*
D47*
X7421Y14173D02*
D03*
X6358D02*
D03*
D48*
X2559Y4390D02*
D03*
Y5453D02*
D03*
D49*
X8843Y14528D02*
D03*
X6709Y20669D02*
D03*
X12992Y1827D02*
D03*
D50*
X9843Y14528D02*
D03*
X5709Y20669D02*
D03*
X14843Y5457D02*
D03*
X13346Y10496D02*
D03*
X12992Y827D02*
D03*
X11992Y1827D02*
D03*
Y827D02*
D03*
X10992Y1827D02*
D03*
Y827D02*
D03*
X9992Y1827D02*
D03*
Y827D02*
D03*
X8992Y1827D02*
D03*
Y827D02*
D03*
X7992Y1827D02*
D03*
Y827D02*
D03*
X6992Y1827D02*
D03*
Y827D02*
D03*
X5992Y1827D02*
D03*
Y827D02*
D03*
X4992Y1827D02*
D03*
Y827D02*
D03*
X3992Y1827D02*
D03*
Y827D02*
D03*
X984Y4937D02*
D03*
Y5937D02*
D03*
Y6937D02*
D03*
Y7937D02*
D03*
Y8937D02*
D03*
Y9937D02*
D03*
Y10937D02*
D03*
D51*
X14843Y6457D02*
D03*
X13346Y11496D02*
D03*
X984Y3937D02*
D03*
D52*
X1575Y2992D02*
D03*
D53*
X11693Y2953D02*
D03*
X8661Y12598D02*
D03*
X19567Y6260D02*
D03*
X18189Y6457D02*
D03*
X14055Y7441D02*
D03*
X18268Y12283D02*
D03*
X17683Y11778D02*
D03*
X13918Y12480D02*
D03*
X9843Y16496D02*
D03*
X5315Y17323D02*
D03*
X4331Y17126D02*
D03*
Y13386D02*
D03*
Y12386D02*
D03*
X394Y12402D02*
D03*
X11220Y18071D02*
D03*
X14331Y14055D02*
D03*
X16102D02*
D03*
X17795Y8819D02*
D03*
X15630D02*
D03*
X6496Y9055D02*
D03*
X6693Y11220D02*
D03*
X3543Y4331D02*
D03*
X4921Y5118D02*
D03*
X394Y14370D02*
D03*
Y13386D02*
D03*
X11457Y6614D02*
D03*
X10394Y6575D02*
D03*
X8228Y6260D02*
D03*
X6693Y3348D02*
D03*
X13976Y2953D02*
D03*
X13268Y2992D02*
D03*
X12480D02*
D03*
X5827Y14134D02*
D03*
X4331Y14370D02*
D03*
D54*
X1378Y1378D02*
D03*
Y21102D02*
D03*
X21102Y1378D02*
D03*
M02*
