G04 Layer_Physical_Order=1*
G04 Layer_Color=255*
%FSLAX24Y24*%
%MOIN*%
G70*
G01*
G75*
%ADD10R,0.0236X0.0413*%
%ADD11R,0.0236X0.0453*%
%ADD12R,0.0276X0.0354*%
%ADD13R,0.0354X0.0276*%
%ADD14R,0.1250X0.0449*%
%ADD15O,0.0709X0.0118*%
%ADD16O,0.0118X0.0709*%
%ADD17R,0.1819X0.1661*%
%ADD18R,0.0213X0.0138*%
%ADD19R,0.0220X0.0339*%
%ADD20R,0.0220X0.0417*%
%ADD21O,0.0709X0.0236*%
%ADD22R,0.0433X0.0669*%
%ADD23R,0.0669X0.0433*%
%ADD24C,0.0098*%
%ADD25C,0.0197*%
%ADD26R,0.0591X0.0591*%
%ADD27C,0.0591*%
%ADD28R,0.0591X0.0591*%
%ADD29C,0.0492*%
%ADD30C,0.0394*%
%ADD31C,0.1969*%
G36*
X18455Y7785D02*
X18457Y7768D01*
X18459Y7753D01*
X18463Y7740D01*
X18467Y7729D01*
X18472Y7720D01*
X18479Y7713D01*
X18486Y7708D01*
X18495Y7705D01*
X18504Y7704D01*
X18307D01*
X18316Y7705D01*
X18325Y7708D01*
X18332Y7713D01*
X18339Y7720D01*
X18344Y7729D01*
X18348Y7740D01*
X18352Y7753D01*
X18354Y7768D01*
X18356Y7785D01*
X18356Y7804D01*
X18455D01*
X18455Y7785D01*
D02*
G37*
G36*
X19203D02*
X19205Y7768D01*
X19207Y7753D01*
X19211Y7740D01*
X19215Y7729D01*
X19220Y7720D01*
X19227Y7713D01*
X19234Y7708D01*
X19243Y7705D01*
X19252Y7704D01*
X19055D01*
X19064Y7705D01*
X19073Y7708D01*
X19080Y7713D01*
X19087Y7720D01*
X19092Y7729D01*
X19096Y7740D01*
X19100Y7753D01*
X19102Y7768D01*
X19104Y7785D01*
X19104Y7804D01*
X19203D01*
X19203Y7785D01*
D02*
G37*
G36*
X1225Y8114D02*
X1283Y8063D01*
X1310Y8043D01*
X1337Y8026D01*
X1362Y8011D01*
X1386Y8000D01*
X1409Y7993D01*
X1431Y7988D01*
X1453Y7986D01*
Y7888D01*
X1431Y7886D01*
X1409Y7882D01*
X1386Y7874D01*
X1362Y7863D01*
X1337Y7848D01*
X1310Y7831D01*
X1283Y7811D01*
X1225Y7760D01*
X1195Y7730D01*
Y8144D01*
X1225Y8114D01*
D02*
G37*
G36*
X14308Y7624D02*
X14297Y7612D01*
X14288Y7599D01*
X14279Y7584D01*
X14272Y7568D01*
X14265Y7550D01*
X14260Y7531D01*
X14257Y7511D01*
X14254Y7490D01*
X14252Y7467D01*
X14252Y7443D01*
X14057Y7638D01*
X14081Y7638D01*
X14126Y7642D01*
X14146Y7646D01*
X14164Y7651D01*
X14182Y7657D01*
X14198Y7665D01*
X14213Y7673D01*
X14226Y7683D01*
X14239Y7694D01*
X14308Y7624D01*
D02*
G37*
G36*
X18495Y7294D02*
X18486Y7291D01*
X18479Y7286D01*
X18472Y7279D01*
X18467Y7270D01*
X18463Y7259D01*
X18459Y7246D01*
X18457Y7232D01*
X18455Y7215D01*
X18455Y7196D01*
X18356D01*
X18356Y7215D01*
X18354Y7232D01*
X18352Y7246D01*
X18348Y7259D01*
X18344Y7270D01*
X18339Y7279D01*
X18332Y7286D01*
X18325Y7291D01*
X18316Y7294D01*
X18307Y7295D01*
X18504D01*
X18495Y7294D01*
D02*
G37*
G36*
X19243D02*
X19234Y7291D01*
X19227Y7286D01*
X19220Y7279D01*
X19215Y7270D01*
X19211Y7259D01*
X19207Y7246D01*
X19205Y7232D01*
X19203Y7215D01*
X19203Y7196D01*
X19104D01*
X19104Y7215D01*
X19102Y7232D01*
X19100Y7246D01*
X19096Y7259D01*
X19092Y7270D01*
X19087Y7279D01*
X19080Y7286D01*
X19073Y7291D01*
X19064Y7294D01*
X19055Y7295D01*
X19252D01*
X19243Y7294D01*
D02*
G37*
G36*
X9986Y7534D02*
X9990Y7533D01*
X9996Y7532D01*
X10014Y7531D01*
X10090Y7530D01*
X10090Y7431D01*
X9983Y7426D01*
Y7535D01*
X9986Y7534D01*
D02*
G37*
G36*
X16491Y7441D02*
X16489Y7460D01*
X16483Y7476D01*
X16473Y7491D01*
X16459Y7504D01*
X16441Y7515D01*
X16419Y7524D01*
X16394Y7531D01*
X16364Y7535D01*
X16348Y7537D01*
X16333Y7535D01*
X16303Y7531D01*
X16278Y7524D01*
X16256Y7515D01*
X16238Y7504D01*
X16224Y7491D01*
X16214Y7476D01*
X16208Y7460D01*
X16206Y7441D01*
Y7835D01*
X16208Y7816D01*
X16214Y7799D01*
X16224Y7784D01*
X16238Y7772D01*
X16256Y7761D01*
X16278Y7752D01*
X16303Y7745D01*
X16333Y7740D01*
X16348Y7739D01*
X16364Y7740D01*
X16394Y7745D01*
X16419Y7752D01*
X16441Y7761D01*
X16459Y7772D01*
X16473Y7784D01*
X16483Y7799D01*
X16489Y7816D01*
X16491Y7835D01*
Y7441D01*
D02*
G37*
G36*
X19151Y8034D02*
X19151Y8032D01*
X19152Y8030D01*
X19154Y8026D01*
X19157Y8022D01*
X19161Y8017D01*
X19173Y8004D01*
X19188Y7988D01*
X19113Y7924D01*
X19099Y7937D01*
X19038Y7991D01*
X19034Y7993D01*
X19032Y7993D01*
X19152Y8035D01*
X19151Y8034D01*
D02*
G37*
G36*
X17786Y8053D02*
X17778Y8050D01*
X17770Y8045D01*
X17764Y8038D01*
X17758Y8029D01*
X17754Y8018D01*
X17751Y8005D01*
X17748Y7990D01*
X17747Y7973D01*
X17746Y7954D01*
X17648D01*
X17647Y7973D01*
X17646Y7990D01*
X17643Y8005D01*
X17640Y8018D01*
X17635Y8029D01*
X17630Y8038D01*
X17624Y8045D01*
X17616Y8050D01*
X17608Y8053D01*
X17598Y8054D01*
X17795D01*
X17786Y8053D01*
D02*
G37*
G36*
X15333Y8317D02*
X15336Y8309D01*
X15341Y8302D01*
X15348Y8295D01*
X15357Y8290D01*
X15368Y8285D01*
X15381Y8282D01*
X15396Y8280D01*
X15413Y8278D01*
X15432Y8278D01*
Y8179D01*
X15413Y8179D01*
X15396Y8177D01*
X15381Y8175D01*
X15368Y8171D01*
X15357Y8167D01*
X15348Y8161D01*
X15341Y8155D01*
X15336Y8148D01*
X15333Y8139D01*
X15332Y8130D01*
Y8327D01*
X15333Y8317D01*
D02*
G37*
G36*
X18495Y7992D02*
X18486Y7989D01*
X18479Y7984D01*
X18472Y7978D01*
X18467Y7969D01*
X18463Y7958D01*
X18459Y7945D01*
X18457Y7930D01*
X18455Y7914D01*
X18455Y7895D01*
X18356D01*
X18356Y7914D01*
X18354Y7930D01*
X18352Y7945D01*
X18348Y7958D01*
X18344Y7969D01*
X18339Y7978D01*
X18332Y7984D01*
X18325Y7989D01*
X18316Y7992D01*
X18307Y7993D01*
X18504D01*
X18495Y7992D01*
D02*
G37*
G36*
X16991Y7441D02*
X16989Y7460D01*
X16983Y7476D01*
X16973Y7491D01*
X16959Y7504D01*
X16941Y7515D01*
X16919Y7524D01*
X16894Y7531D01*
X16864Y7535D01*
X16848Y7537D01*
X16833Y7535D01*
X16803Y7531D01*
X16778Y7524D01*
X16756Y7515D01*
X16738Y7504D01*
X16724Y7491D01*
X16714Y7476D01*
X16708Y7460D01*
X16706Y7441D01*
Y7835D01*
X16708Y7816D01*
X16714Y7799D01*
X16724Y7784D01*
X16738Y7772D01*
X16756Y7761D01*
X16778Y7752D01*
X16803Y7745D01*
X16833Y7740D01*
X16848Y7739D01*
X16864Y7740D01*
X16894Y7745D01*
X16919Y7752D01*
X16941Y7761D01*
X16959Y7772D01*
X16973Y7784D01*
X16983Y7799D01*
X16989Y7816D01*
X16991Y7835D01*
Y7441D01*
D02*
G37*
G36*
X17707Y7845D02*
X17598Y7844D01*
X17608Y7845D01*
X17616Y7848D01*
X17624Y7853D01*
X17630Y7860D01*
X17635Y7869D01*
X17640Y7880D01*
X17643Y7893D01*
X17646Y7908D01*
X17647Y7925D01*
X17648Y7944D01*
X17746D01*
X17707Y7845D01*
D02*
G37*
G36*
X16645Y8050D02*
X16639Y8045D01*
X16633Y8035D01*
X16628Y8021D01*
X16624Y8003D01*
X16620Y7982D01*
X16619Y7966D01*
X16623Y7942D01*
X16629Y7916D01*
X16638Y7894D01*
X16648Y7877D01*
X16660Y7863D01*
X16674Y7853D01*
X16690Y7847D01*
X16707Y7845D01*
X16489D01*
X16476Y7847D01*
X16463Y7853D01*
X16461Y7856D01*
X16417D01*
X16417Y7893D01*
X16411Y7982D01*
X16408Y8003D01*
X16404Y8021D01*
X16399Y8035D01*
X16393Y8045D01*
X16386Y8050D01*
X16379Y8052D01*
X16652D01*
X16645Y8050D01*
D02*
G37*
G36*
X1323Y7266D02*
X1308Y7249D01*
X1296Y7230D01*
X1286Y7208D01*
X1278Y7183D01*
X1272Y7156D01*
X1268Y7126D01*
X1267Y7094D01*
X1268Y7059D01*
X1271Y7022D01*
X1276Y6982D01*
X945Y7230D01*
X990Y7236D01*
X1105Y7260D01*
X1136Y7269D01*
X1164Y7279D01*
X1189Y7290D01*
X1211Y7301D01*
X1229Y7313D01*
X1243Y7326D01*
X1323Y7266D01*
D02*
G37*
G36*
X19396Y6502D02*
X19409Y6492D01*
X19424Y6484D01*
X19440Y6476D01*
X19458Y6470D01*
X19476Y6465D01*
X19497Y6461D01*
X19518Y6459D01*
X19541Y6457D01*
X19565Y6457D01*
X19370Y6262D01*
X19370Y6286D01*
X19366Y6330D01*
X19362Y6350D01*
X19357Y6369D01*
X19350Y6387D01*
X19343Y6403D01*
X19334Y6418D01*
X19325Y6431D01*
X19314Y6443D01*
X19383Y6513D01*
X19396Y6502D01*
D02*
G37*
G36*
X10515Y6417D02*
X10486Y6383D01*
X10475Y6366D01*
X10465Y6349D01*
X10457Y6332D01*
X10451Y6315D01*
X10446Y6299D01*
X10444Y6282D01*
X10443Y6266D01*
X10344D01*
X10344Y6282D01*
X10341Y6299D01*
X10337Y6315D01*
X10330Y6332D01*
X10322Y6349D01*
X10313Y6366D01*
X10301Y6383D01*
X10288Y6400D01*
X10273Y6417D01*
X10256Y6434D01*
X10532D01*
X10515Y6417D01*
D02*
G37*
G36*
X11455Y6417D02*
X11431Y6417D01*
X11386Y6413D01*
X11366Y6409D01*
X11347Y6404D01*
X11330Y6398D01*
X11314Y6390D01*
X11299Y6382D01*
X11285Y6372D01*
X11273Y6361D01*
X11204Y6431D01*
X11215Y6443D01*
X11224Y6456D01*
X11233Y6471D01*
X11240Y6487D01*
X11246Y6505D01*
X11251Y6524D01*
X11255Y6544D01*
X11258Y6565D01*
X11260Y6588D01*
X11260Y6612D01*
X11455Y6417D01*
D02*
G37*
G36*
X14550Y6260D02*
X14548Y6279D01*
X14542Y6295D01*
X14532Y6310D01*
X14518Y6323D01*
X14500Y6334D01*
X14478Y6343D01*
X14453Y6349D01*
X14423Y6354D01*
X14389Y6357D01*
X14352Y6358D01*
Y6555D01*
X14389Y6556D01*
X14423Y6559D01*
X14453Y6564D01*
X14478Y6571D01*
X14500Y6580D01*
X14518Y6591D01*
X14532Y6603D01*
X14542Y6618D01*
X14548Y6635D01*
X14550Y6654D01*
Y6260D01*
D02*
G37*
G36*
X8359Y6111D02*
X8352Y6101D01*
X8346Y6090D01*
X8341Y6077D01*
X8337Y6063D01*
X8333Y6047D01*
X8330Y6031D01*
X8328Y6012D01*
X8327Y5971D01*
X8130D01*
X8130Y5992D01*
X8126Y6031D01*
X8124Y6047D01*
X8120Y6063D01*
X8116Y6077D01*
X8111Y6090D01*
X8105Y6101D01*
X8098Y6111D01*
X8091Y6119D01*
X8366D01*
X8359Y6111D01*
D02*
G37*
G36*
X18631Y6141D02*
X18610Y6118D01*
X18577Y6080D01*
X18565Y6063D01*
X18556Y6048D01*
X18551Y6035D01*
X18549Y6024D01*
X18549Y6015D01*
X18553Y6007D01*
X18561Y6001D01*
X18383Y6100D01*
X18393Y6096D01*
X18403Y6095D01*
X18414Y6096D01*
X18427Y6100D01*
X18440Y6105D01*
X18454Y6114D01*
X18470Y6124D01*
X18486Y6137D01*
X18504Y6153D01*
X18522Y6171D01*
X18631Y6141D01*
D02*
G37*
G36*
X8327Y6527D02*
X8330Y6489D01*
X8333Y6472D01*
X8337Y6457D01*
X8341Y6443D01*
X8346Y6430D01*
X8352Y6419D01*
X8359Y6409D01*
X8360Y6407D01*
X8363Y6406D01*
X8371Y6403D01*
X8380Y6403D01*
X8390Y6405D01*
X8401Y6409D01*
X8412Y6415D01*
X8425Y6424D01*
X8439Y6434D01*
X8453Y6447D01*
X8469Y6462D01*
X8577Y6292D01*
X8394Y6153D01*
X8357Y6400D01*
X8091D01*
X8098Y6409D01*
X8105Y6419D01*
X8111Y6430D01*
X8116Y6443D01*
X8120Y6457D01*
X8124Y6472D01*
X8126Y6489D01*
X8128Y6507D01*
X8130Y6548D01*
X8327D01*
X8327Y6527D01*
D02*
G37*
G36*
X10222Y6817D02*
X10236Y6807D01*
X10251Y6799D01*
X10267Y6791D01*
X10284Y6785D01*
X10303Y6780D01*
X10323Y6776D01*
X10345Y6773D01*
X10368Y6772D01*
X10392Y6772D01*
X10197Y6577D01*
X10197Y6601D01*
X10192Y6645D01*
X10188Y6665D01*
X10183Y6684D01*
X10177Y6702D01*
X10170Y6718D01*
X10161Y6733D01*
X10152Y6746D01*
X10141Y6758D01*
X10210Y6828D01*
X10222Y6817D01*
D02*
G37*
G36*
X11507Y6907D02*
X11509Y6890D01*
X11514Y6874D01*
X11520Y6857D01*
X11528Y6840D01*
X11538Y6823D01*
X11549Y6806D01*
X11563Y6789D01*
X11578Y6772D01*
X11594Y6755D01*
X11319D01*
X11336Y6772D01*
X11364Y6806D01*
X11376Y6823D01*
X11385Y6840D01*
X11393Y6857D01*
X11400Y6874D01*
X11404Y6890D01*
X11407Y6907D01*
X11407Y6923D01*
X11506D01*
X11507Y6907D01*
D02*
G37*
G36*
X9986Y6943D02*
X9990Y6942D01*
X9995Y6942D01*
X10011Y6940D01*
X10062Y6939D01*
X10079Y6939D01*
Y6841D01*
X9983Y6835D01*
Y6944D01*
X9986Y6943D01*
D02*
G37*
G36*
X14956Y7174D02*
X14953Y7169D01*
X14950Y7159D01*
X14948Y7145D01*
X14946Y7127D01*
X14942Y7050D01*
X14941Y6980D01*
X14744D01*
X14744Y7017D01*
X14735Y7159D01*
X14732Y7169D01*
X14729Y7174D01*
X14726Y7176D01*
X14959D01*
X14956Y7174D01*
D02*
G37*
G36*
X14942Y6910D02*
X14945Y6876D01*
X14950Y6847D01*
X14957Y6821D01*
X14966Y6799D01*
X14976Y6781D01*
X14989Y6767D01*
X15004Y6757D01*
X15021Y6752D01*
X15039Y6750D01*
X14646D01*
X14664Y6752D01*
X14681Y6757D01*
X14696Y6767D01*
X14709Y6781D01*
X14719Y6799D01*
X14728Y6821D01*
X14735Y6847D01*
X14740Y6876D01*
X14743Y6910D01*
X14744Y6948D01*
X14941D01*
X14942Y6910D01*
D02*
G37*
G36*
X8915Y6759D02*
X8924Y6755D01*
X8936Y6752D01*
X8953Y6749D01*
X8995Y6745D01*
X9085Y6742D01*
X9121Y6742D01*
Y6644D01*
X9085Y6643D01*
X8936Y6634D01*
X8924Y6631D01*
X8915Y6627D01*
X8909Y6623D01*
Y6763D01*
X8915Y6759D01*
D02*
G37*
G36*
X9348Y6638D02*
X9345Y6639D01*
X9341Y6640D01*
X9335Y6641D01*
X9317Y6642D01*
X9241Y6644D01*
Y6742D01*
X9348Y6747D01*
Y6638D01*
D02*
G37*
G36*
X18440Y6638D02*
X18428Y6625D01*
X18418Y6612D01*
X18409Y6597D01*
X18401Y6581D01*
X18395Y6565D01*
X18390Y6548D01*
X18387Y6530D01*
X18385Y6512D01*
X18384Y6493D01*
X18385Y6472D01*
X18205Y6653D01*
X18225Y6652D01*
X18244Y6652D01*
X18263Y6654D01*
X18281Y6658D01*
X18298Y6663D01*
X18314Y6669D01*
X18329Y6676D01*
X18344Y6686D01*
X18358Y6696D01*
X18371Y6708D01*
X18440Y6638D01*
D02*
G37*
G36*
X6355Y8917D02*
X6347Y8925D01*
X6337Y8931D01*
X6326Y8937D01*
X6313Y8943D01*
X6299Y8947D01*
X6284Y8950D01*
X6267Y8953D01*
X6248Y8955D01*
X6207Y8957D01*
Y9154D01*
X6229Y9154D01*
X6267Y9157D01*
X6284Y9160D01*
X6299Y9163D01*
X6313Y9168D01*
X6326Y9173D01*
X6337Y9179D01*
X6347Y9185D01*
X6355Y9193D01*
Y8917D01*
D02*
G37*
G36*
X6645Y9185D02*
X6655Y9179D01*
X6666Y9173D01*
X6679Y9168D01*
X6693Y9163D01*
X6708Y9160D01*
X6725Y9157D01*
X6744Y9155D01*
X6785Y9154D01*
Y8957D01*
X6763Y8956D01*
X6725Y8953D01*
X6708Y8950D01*
X6693Y8947D01*
X6679Y8943D01*
X6666Y8937D01*
X6655Y8931D01*
X6645Y8925D01*
X6637Y8917D01*
Y9193D01*
X6645Y9185D01*
D02*
G37*
G36*
X3403Y9001D02*
X3403Y9000D01*
X3402Y8999D01*
X3399Y8998D01*
X3394Y8998D01*
X3379Y8997D01*
X3327Y8996D01*
X3284Y9094D01*
X3302Y9095D01*
X3362Y9098D01*
X3373Y9100D01*
X3391Y9104D01*
X3397Y9107D01*
X3403Y9110D01*
Y9001D01*
D02*
G37*
G36*
X18800Y8584D02*
X18798Y8591D01*
X18793Y8598D01*
X18783Y8603D01*
X18769Y8608D01*
X18751Y8613D01*
X18730Y8616D01*
X18704Y8619D01*
X18687Y8619D01*
X18633Y8616D01*
X18611Y8613D01*
X18593Y8608D01*
X18580Y8603D01*
X18570Y8598D01*
X18564Y8591D01*
X18562Y8584D01*
Y8857D01*
X18564Y8850D01*
X18570Y8843D01*
X18580Y8838D01*
X18593Y8833D01*
X18611Y8828D01*
X18633Y8825D01*
X18658Y8822D01*
X18675Y8822D01*
X18730Y8825D01*
X18751Y8828D01*
X18769Y8833D01*
X18783Y8838D01*
X18793Y8843D01*
X18798Y8850D01*
X18800Y8857D01*
Y8584D01*
D02*
G37*
G36*
X3403Y8804D02*
X3400Y8805D01*
X3396Y8806D01*
X3390Y8806D01*
X3372Y8808D01*
X3296Y8809D01*
Y8907D01*
X3403Y8913D01*
Y8804D01*
D02*
G37*
G36*
X9986Y8912D02*
X9990Y8911D01*
X9996Y8910D01*
X10014Y8909D01*
X10090Y8907D01*
Y8809D01*
X9983Y8804D01*
Y8913D01*
X9986Y8912D01*
D02*
G37*
G36*
X16952Y9043D02*
X16991Y9010D01*
X17008Y8998D01*
X17023Y8989D01*
X17036Y8984D01*
X17047Y8982D01*
X17056Y8982D01*
X17064Y8986D01*
X17070Y8994D01*
X16971Y8816D01*
X16975Y8826D01*
X16976Y8836D01*
X16975Y8847D01*
X16971Y8860D01*
X16965Y8873D01*
X16957Y8888D01*
X16946Y8903D01*
X16933Y8919D01*
X16918Y8937D01*
X16900Y8955D01*
X16930Y9064D01*
X16952Y9043D01*
D02*
G37*
G36*
X9986Y9109D02*
X9990Y9108D01*
X9996Y9107D01*
X10014Y9106D01*
X10090Y9104D01*
Y9006D01*
X9983Y9001D01*
Y9110D01*
X9986Y9109D01*
D02*
G37*
G36*
X4577Y10069D02*
X4587Y9921D01*
X4590Y9908D01*
X4593Y9899D01*
X4597Y9893D01*
X4578D01*
X4577Y9832D01*
X4478D01*
X4475Y9893D01*
X4458D01*
X4462Y9899D01*
X4465Y9908D01*
X4468Y9921D01*
X4471Y9937D01*
X4475Y9979D01*
X4478Y10069D01*
X4478Y10106D01*
X4577D01*
X4577Y10069D01*
D02*
G37*
G36*
X8908Y10069D02*
X8917Y9921D01*
X8921Y9908D01*
X8924Y9899D01*
X8928Y9893D01*
X8909D01*
X8907Y9832D01*
X8809D01*
X8806Y9893D01*
X8789D01*
X8793Y9899D01*
X8796Y9908D01*
X8799Y9921D01*
X8802Y9937D01*
X8806Y9979D01*
X8809Y10069D01*
X8809Y10106D01*
X8907D01*
X8908Y10069D01*
D02*
G37*
G36*
X13570Y10695D02*
X13664Y10628D01*
X13692Y10612D01*
X13719Y10598D01*
X13744Y10588D01*
X13767Y10581D01*
X13788Y10576D01*
X13808Y10575D01*
X13818Y10476D01*
X13796Y10475D01*
X13774Y10470D01*
X13751Y10462D01*
X13727Y10450D01*
X13703Y10435D01*
X13679Y10417D01*
X13654Y10396D01*
X13629Y10371D01*
X13603Y10343D01*
X13577Y10311D01*
X13536Y10723D01*
X13570Y10695D01*
D02*
G37*
G36*
X1225Y10114D02*
X1283Y10063D01*
X1310Y10043D01*
X1337Y10026D01*
X1362Y10011D01*
X1386Y10000D01*
X1409Y9993D01*
X1431Y9988D01*
X1453Y9986D01*
Y9888D01*
X1431Y9886D01*
X1409Y9882D01*
X1386Y9874D01*
X1362Y9863D01*
X1337Y9848D01*
X1310Y9831D01*
X1283Y9811D01*
X1225Y9760D01*
X1195Y9730D01*
Y10144D01*
X1225Y10114D01*
D02*
G37*
G36*
X3403Y9197D02*
X3403Y9197D01*
X3402Y9196D01*
X3399Y9195D01*
X3394Y9195D01*
X3379Y9194D01*
X3327Y9193D01*
X3284Y9291D01*
X3302Y9291D01*
X3362Y9295D01*
X3373Y9297D01*
X3391Y9301D01*
X3397Y9304D01*
X3403Y9306D01*
Y9197D01*
D02*
G37*
G36*
Y9394D02*
X3400Y9395D01*
X3396Y9396D01*
X3390Y9397D01*
X3372Y9398D01*
X3296Y9400D01*
Y9498D01*
X3403Y9503D01*
Y9394D01*
D02*
G37*
G36*
Y9591D02*
X3400Y9592D01*
X3396Y9593D01*
X3390Y9594D01*
X3372Y9595D01*
X3296Y9596D01*
Y9695D01*
X3403Y9700D01*
Y9591D01*
D02*
G37*
G36*
X1225Y9114D02*
X1283Y9063D01*
X1310Y9043D01*
X1337Y9026D01*
X1362Y9011D01*
X1386Y9000D01*
X1409Y8993D01*
X1431Y8988D01*
X1453Y8986D01*
Y8888D01*
X1431Y8886D01*
X1409Y8881D01*
X1386Y8874D01*
X1362Y8863D01*
X1337Y8848D01*
X1310Y8831D01*
X1283Y8811D01*
X1225Y8760D01*
X1195Y8730D01*
Y9144D01*
X1225Y9114D01*
D02*
G37*
G36*
X16379Y8643D02*
X16652D01*
X16645Y8641D01*
X16639Y8635D01*
X16633Y8625D01*
X16628Y8611D01*
X16624Y8594D01*
X16620Y8572D01*
X16618Y8546D01*
X16617Y8529D01*
X16620Y8475D01*
X16624Y8454D01*
X16628Y8436D01*
X16633Y8422D01*
X16639Y8412D01*
X16645Y8406D01*
X16652Y8404D01*
X16379D01*
X16386Y8406D01*
X16393Y8412D01*
X16399Y8422D01*
X16404Y8436D01*
X16408Y8454D01*
X16411Y8475D01*
X16414Y8501D01*
X16415Y8518D01*
X16411Y8572D01*
X16408Y8594D01*
X16404Y8611D01*
X16399Y8625D01*
X16393Y8635D01*
X16386Y8641D01*
X16379Y8643D01*
X16377Y8658D01*
X16371Y8671D01*
X16361Y8682D01*
X16348Y8693D01*
X16330Y8701D01*
X16308Y8708D01*
X16283Y8713D01*
X16253Y8717D01*
X16220Y8720D01*
X16182Y8720D01*
Y8917D01*
X16220Y8918D01*
X16283Y8924D01*
X16308Y8930D01*
X16330Y8937D01*
X16348Y8945D01*
X16361Y8955D01*
X16371Y8967D01*
X16377Y8980D01*
X16379Y8995D01*
Y8643D01*
D02*
G37*
G36*
X3403Y8410D02*
X3403Y8409D01*
X3402Y8408D01*
X3399Y8408D01*
X3394Y8407D01*
X3379Y8406D01*
X3327Y8406D01*
X3284Y8504D01*
X3302Y8504D01*
X3362Y8508D01*
X3373Y8509D01*
X3391Y8514D01*
X3397Y8516D01*
X3403Y8519D01*
Y8410D01*
D02*
G37*
G36*
X9986Y8518D02*
X9990Y8517D01*
X9996Y8516D01*
X10014Y8515D01*
X10090Y8514D01*
Y8415D01*
X9983Y8410D01*
Y8519D01*
X9986Y8518D01*
D02*
G37*
G36*
X17156Y8484D02*
X17157Y8467D01*
X17160Y8452D01*
X17163Y8439D01*
X17168Y8428D01*
X17173Y8419D01*
X17180Y8412D01*
X17187Y8407D01*
X17195Y8404D01*
X17205Y8403D01*
X17008D01*
X17017Y8404D01*
X17026Y8407D01*
X17033Y8412D01*
X17039Y8419D01*
X17045Y8428D01*
X17049Y8439D01*
X17053Y8452D01*
X17055Y8467D01*
X17057Y8484D01*
X17057Y8503D01*
X17156D01*
X17156Y8484D01*
D02*
G37*
G36*
X15789Y8130D02*
X15788Y8139D01*
X15785Y8148D01*
X15780Y8155D01*
X15773Y8161D01*
X15764Y8167D01*
X15753Y8171D01*
X15740Y8175D01*
X15726Y8177D01*
X15709Y8179D01*
X15690Y8179D01*
Y8278D01*
X15709Y8278D01*
X15726Y8280D01*
X15740Y8282D01*
X15753Y8285D01*
X15764Y8290D01*
X15773Y8295D01*
X15780Y8302D01*
X15785Y8309D01*
X15788Y8317D01*
X15789Y8327D01*
Y8130D01*
D02*
G37*
G36*
X3403Y8213D02*
X3400Y8214D01*
X3396Y8215D01*
X3390Y8216D01*
X3372Y8217D01*
X3296Y8219D01*
Y8317D01*
X3403Y8322D01*
Y8213D01*
D02*
G37*
G36*
X15101Y8237D02*
X15100Y8237D01*
X15099Y8237D01*
X15096Y8238D01*
X15059Y8238D01*
X15049Y8238D01*
Y8337D01*
X15101Y8338D01*
Y8237D01*
D02*
G37*
G36*
X10482Y8387D02*
X10483Y8367D01*
X10485Y8348D01*
X10489Y8330D01*
X10493Y8312D01*
X10500Y8295D01*
X10507Y8279D01*
X10516Y8263D01*
X10527Y8248D01*
X10539Y8233D01*
X10552Y8219D01*
X10398Y8233D01*
X10314Y8456D01*
X10327Y8444D01*
X10339Y8435D01*
X10350Y8429D01*
X10359Y8427D01*
X10366Y8429D01*
X10373Y8433D01*
X10378Y8441D01*
X10381Y8452D01*
X10383Y8467D01*
X10384Y8485D01*
X10482Y8387D01*
D02*
G37*
G36*
X3403Y8607D02*
X3403Y8606D01*
X3402Y8605D01*
X3399Y8605D01*
X3394Y8604D01*
X3379Y8603D01*
X3327Y8602D01*
X3284Y8701D01*
X3302Y8701D01*
X3362Y8705D01*
X3373Y8706D01*
X3391Y8710D01*
X3397Y8713D01*
X3403Y8716D01*
Y8607D01*
D02*
G37*
G36*
X15779Y8949D02*
X15789Y8943D01*
X15800Y8937D01*
X15813Y8931D01*
X15827Y8927D01*
X15842Y8924D01*
X15859Y8921D01*
X15878Y8919D01*
X15919Y8917D01*
Y8720D01*
X15897Y8720D01*
X15859Y8717D01*
X15842Y8714D01*
X15827Y8711D01*
X15813Y8706D01*
X15800Y8701D01*
X15789Y8695D01*
X15779Y8689D01*
X15770Y8681D01*
Y8957D01*
X15779Y8949D01*
D02*
G37*
G36*
X10433Y8858D02*
X10384Y8711D01*
X10383Y8729D01*
X10380Y8746D01*
X10375Y8761D01*
X10368Y8774D01*
X10359Y8784D01*
X10348Y8793D01*
X10336Y8800D01*
X10321Y8805D01*
X10304Y8808D01*
X10285Y8809D01*
X10216Y8907D01*
X10234Y8908D01*
X10248Y8910D01*
X10260Y8914D01*
X10268Y8919D01*
X10272Y8925D01*
X10273Y8933D01*
X10271Y8942D01*
X10266Y8952D01*
X10257Y8964D01*
X10245Y8977D01*
X10433Y8858D01*
D02*
G37*
G36*
X9308Y8727D02*
X9317Y8724D01*
X9330Y8721D01*
X9346Y8718D01*
X9389Y8714D01*
X9478Y8711D01*
X9515Y8711D01*
Y8612D01*
X9478Y8612D01*
X9330Y8602D01*
X9317Y8599D01*
X9308Y8596D01*
X9302Y8592D01*
Y8611D01*
X9241Y8612D01*
Y8711D01*
X9302Y8714D01*
Y8731D01*
X9308Y8727D01*
D02*
G37*
G36*
X14655Y8404D02*
X14642Y8390D01*
X14630Y8376D01*
X14619Y8362D01*
X14610Y8348D01*
X14602Y8334D01*
X14596Y8320D01*
X14591Y8307D01*
X14587Y8293D01*
X14585Y8279D01*
X14584Y8265D01*
X14585Y8493D01*
X14586Y8490D01*
X14588Y8489D01*
X14592Y8489D01*
X14597Y8492D01*
X14603Y8496D01*
X14610Y8502D01*
X14630Y8519D01*
X14655Y8544D01*
Y8404D01*
D02*
G37*
G36*
X17195Y8643D02*
X17187Y8640D01*
X17180Y8635D01*
X17173Y8628D01*
X17168Y8619D01*
X17163Y8608D01*
X17160Y8595D01*
X17157Y8580D01*
X17156Y8563D01*
X17156Y8545D01*
X17057D01*
X17057Y8563D01*
X17055Y8580D01*
X17053Y8595D01*
X17049Y8608D01*
X17045Y8619D01*
X17039Y8628D01*
X17033Y8635D01*
X17026Y8640D01*
X17017Y8643D01*
X17008Y8644D01*
X17205D01*
X17195Y8643D01*
D02*
G37*
G36*
X17989Y8859D02*
X17995Y8850D01*
X18002Y8843D01*
X18012Y8837D01*
X18023Y8831D01*
X18037Y8827D01*
X18052Y8823D01*
X18070Y8821D01*
X18072Y8821D01*
X18139Y8825D01*
X18161Y8828D01*
X18178Y8833D01*
X18192Y8838D01*
X18202Y8843D01*
X18208Y8850D01*
X18210Y8857D01*
Y8584D01*
X18208Y8591D01*
X18202Y8598D01*
X18192Y8603D01*
X18178Y8608D01*
X18161Y8613D01*
X18139Y8616D01*
X18113Y8619D01*
X18050Y8622D01*
X18013Y8622D01*
Y8625D01*
X17857Y8632D01*
X17986Y8868D01*
X17989Y8859D01*
D02*
G37*
G36*
X10218Y3308D02*
X10217Y3306D01*
X10214Y3304D01*
X10209Y3303D01*
X10202Y3301D01*
X10193Y3300D01*
X10170Y3298D01*
X10119Y3297D01*
Y3396D01*
X10138Y3396D01*
X10155Y3398D01*
X10170Y3400D01*
X10183Y3404D01*
X10194Y3408D01*
X10203Y3413D01*
X10210Y3420D01*
X10215Y3427D01*
X10218Y3436D01*
X10219Y3445D01*
X10218Y3308D01*
D02*
G37*
G36*
X11782Y3505D02*
X11774Y3502D01*
X11766Y3497D01*
X11760Y3490D01*
X11754Y3481D01*
X11750Y3470D01*
X11747Y3458D01*
X11744Y3443D01*
X11743Y3426D01*
X11742Y3407D01*
X11644D01*
X11643Y3426D01*
X11642Y3443D01*
X11639Y3458D01*
X11636Y3470D01*
X11631Y3481D01*
X11626Y3490D01*
X11620Y3497D01*
X11612Y3502D01*
X11604Y3505D01*
X11594Y3506D01*
X11791D01*
X11782Y3505D01*
D02*
G37*
G36*
X12569D02*
X12561Y3502D01*
X12554Y3497D01*
X12547Y3490D01*
X12542Y3481D01*
X12537Y3470D01*
X12534Y3458D01*
X12531Y3443D01*
X12530Y3426D01*
X12530Y3407D01*
X12431D01*
X12431Y3426D01*
X12429Y3443D01*
X12427Y3458D01*
X12423Y3470D01*
X12419Y3481D01*
X12413Y3490D01*
X12407Y3497D01*
X12400Y3502D01*
X12391Y3505D01*
X12382Y3506D01*
X12579D01*
X12569Y3505D01*
D02*
G37*
G36*
X3681Y3436D02*
X3684Y3427D01*
X3689Y3420D01*
X3696Y3413D01*
X3704Y3408D01*
X3715Y3404D01*
X3728Y3400D01*
X3743Y3398D01*
X3760Y3396D01*
X3778Y3396D01*
Y3297D01*
X3760Y3297D01*
X3743Y3295D01*
X3728Y3293D01*
X3715Y3289D01*
X3704Y3285D01*
X3696Y3280D01*
X3689Y3273D01*
X3684Y3266D01*
X3681Y3257D01*
X3680Y3248D01*
Y3445D01*
X3681Y3436D01*
D02*
G37*
G36*
X12530Y3285D02*
X12533Y3268D01*
X12537Y3252D01*
X12544Y3235D01*
X12552Y3218D01*
X12561Y3201D01*
X12573Y3184D01*
X12586Y3167D01*
X12601Y3150D01*
X12618Y3133D01*
X12343D01*
X12359Y3150D01*
X12388Y3184D01*
X12399Y3201D01*
X12409Y3218D01*
X12417Y3235D01*
X12423Y3252D01*
X12428Y3268D01*
X12430Y3285D01*
X12431Y3301D01*
X12530D01*
X12530Y3285D01*
D02*
G37*
G36*
X13318D02*
X13320Y3268D01*
X13325Y3252D01*
X13331Y3235D01*
X13339Y3218D01*
X13349Y3201D01*
X13360Y3184D01*
X13374Y3167D01*
X13389Y3150D01*
X13406Y3133D01*
X13130D01*
X13147Y3150D01*
X13175Y3184D01*
X13187Y3201D01*
X13196Y3218D01*
X13204Y3235D01*
X13211Y3252D01*
X13215Y3268D01*
X13218Y3285D01*
X13219Y3301D01*
X13317D01*
X13318Y3285D01*
D02*
G37*
G36*
X10483Y3308D02*
X10474Y3305D01*
X10467Y3301D01*
X10461Y3294D01*
X10455Y3285D01*
X10451Y3274D01*
X10447Y3261D01*
X10445Y3246D01*
X10443Y3229D01*
X10443Y3210D01*
X10344D01*
X10344Y3229D01*
X10343Y3246D01*
X10340Y3261D01*
X10337Y3274D01*
X10332Y3285D01*
X10327Y3294D01*
X10320Y3301D01*
X10313Y3305D01*
X10305Y3308D01*
X10295Y3309D01*
X10492D01*
X10483Y3308D01*
D02*
G37*
G36*
X13357Y3505D02*
X13348Y3502D01*
X13341Y3497D01*
X13335Y3490D01*
X13329Y3481D01*
X13325Y3470D01*
X13321Y3458D01*
X13319Y3443D01*
X13317Y3426D01*
X13317Y3407D01*
X13219D01*
X13218Y3426D01*
X13217Y3443D01*
X13214Y3458D01*
X13211Y3470D01*
X13206Y3481D01*
X13201Y3490D01*
X13194Y3497D01*
X13187Y3502D01*
X13179Y3505D01*
X13169Y3506D01*
X13366D01*
X13357Y3505D01*
D02*
G37*
G36*
X4581Y3991D02*
X4580Y3986D01*
X4579Y3980D01*
X4578Y3963D01*
X4577Y3887D01*
X4478D01*
X4473Y3993D01*
X4582D01*
X4581Y3991D01*
D02*
G37*
G36*
X6943D02*
X6942Y3986D01*
X6942Y3980D01*
X6940Y3963D01*
X6939Y3887D01*
X6841D01*
X6835Y3993D01*
X6944D01*
X6943Y3991D01*
D02*
G37*
G36*
X10156Y4205D02*
X10172Y4192D01*
X10179Y4187D01*
X10186Y4182D01*
X10193Y4179D01*
X10199Y4176D01*
X10206Y4174D01*
X10212Y4172D01*
X10218Y4172D01*
X10219Y3934D01*
X10218Y3948D01*
X10216Y3962D01*
X10212Y3976D01*
X10207Y3990D01*
X10201Y4004D01*
X10193Y4018D01*
X10184Y4031D01*
X10174Y4045D01*
X10162Y4060D01*
X10148Y4074D01*
Y4213D01*
X10156Y4205D01*
D02*
G37*
G36*
X4384Y3991D02*
X4383Y3986D01*
X4383Y3980D01*
X4381Y3963D01*
X4380Y3887D01*
X4282D01*
X4276Y3993D01*
X4385D01*
X4384Y3991D01*
D02*
G37*
G36*
X14065Y3505D02*
X14057Y3502D01*
X14050Y3497D01*
X14043Y3490D01*
X14038Y3481D01*
X14033Y3470D01*
X14030Y3458D01*
X14028Y3443D01*
X14026Y3426D01*
X14026Y3407D01*
X13927D01*
X13927Y3426D01*
X13925Y3443D01*
X13923Y3458D01*
X13919Y3470D01*
X13915Y3481D01*
X13909Y3490D01*
X13903Y3497D01*
X13896Y3502D01*
X13887Y3505D01*
X13878Y3506D01*
X14075D01*
X14065Y3505D01*
D02*
G37*
G36*
X6924Y3509D02*
X6913Y3498D01*
X6904Y3487D01*
X6896Y3476D01*
X6890Y3465D01*
X6885Y3455D01*
X6881Y3444D01*
X6879Y3434D01*
X6879Y3424D01*
X6880Y3414D01*
X6882Y3404D01*
X6749Y3537D01*
X6759Y3534D01*
X6769Y3534D01*
X6779Y3534D01*
X6789Y3536D01*
X6800Y3540D01*
X6810Y3545D01*
X6821Y3551D01*
X6832Y3559D01*
X6843Y3568D01*
X6854Y3579D01*
X6924Y3509D01*
D02*
G37*
G36*
X11192Y4097D02*
X11194Y4082D01*
X11197Y4071D01*
X11202Y4063D01*
X11208Y4058D01*
X11216Y4057D01*
X11225Y4059D01*
X11235Y4065D01*
X11247Y4074D01*
X11261Y4086D01*
Y3947D01*
X11247Y3933D01*
X11235Y3918D01*
X11225Y3902D01*
X11216Y3887D01*
X11208Y3870D01*
X11202Y3853D01*
X11197Y3835D01*
X11194Y3817D01*
X11192Y3798D01*
X11191Y3779D01*
X11093Y3898D01*
X11191Y4115D01*
X11192Y4097D01*
D02*
G37*
G36*
X2186Y3111D02*
X2184Y3119D01*
X2178Y3125D01*
X2169Y3131D01*
X2155Y3136D01*
X2137Y3140D01*
X2115Y3143D01*
X2090Y3146D01*
X2027Y3149D01*
X1989Y3150D01*
Y3346D01*
X2027Y3347D01*
X2115Y3353D01*
X2137Y3356D01*
X2155Y3360D01*
X2169Y3365D01*
X2178Y3371D01*
X2184Y3377D01*
X2186Y3385D01*
Y3111D01*
D02*
G37*
G36*
X11720Y1712D02*
X11714Y1724D01*
X11706Y1736D01*
X11698Y1745D01*
X11687Y1754D01*
X11676Y1761D01*
X11663Y1767D01*
X11649Y1772D01*
X11633Y1775D01*
X11617Y1777D01*
X11598Y1778D01*
Y1876D01*
X11617Y1877D01*
X11633Y1879D01*
X11649Y1882D01*
X11663Y1886D01*
X11676Y1892D01*
X11687Y1900D01*
X11698Y1908D01*
X11706Y1918D01*
X11714Y1929D01*
X11720Y1942D01*
Y1712D01*
D02*
G37*
G36*
X6277Y1907D02*
X6282Y1900D01*
X6287Y1895D01*
X6294Y1890D01*
X6302Y1885D01*
X6312Y1882D01*
X6322Y1879D01*
X6334Y1878D01*
X6348Y1876D01*
X6362Y1876D01*
Y1778D01*
X6348Y1777D01*
X6334Y1776D01*
X6322Y1774D01*
X6312Y1771D01*
X6302Y1768D01*
X6294Y1764D01*
X6287Y1759D01*
X6282Y1753D01*
X6277Y1747D01*
X6274Y1740D01*
Y1914D01*
X6277Y1907D01*
D02*
G37*
G36*
X4712Y2179D02*
X4731Y2167D01*
X4753Y2156D01*
X4778Y2146D01*
X4806Y2139D01*
X4836Y2132D01*
X4870Y2127D01*
X4947Y2122D01*
X4989Y2122D01*
X4697Y1830D01*
X4697Y1872D01*
X4691Y1949D01*
X4687Y1983D01*
X4680Y2013D01*
X4672Y2041D01*
X4663Y2066D01*
X4652Y2088D01*
X4640Y2107D01*
X4626Y2123D01*
X4696Y2193D01*
X4712Y2179D01*
D02*
G37*
G36*
X3781Y1620D02*
X3751Y1650D01*
X3693Y1700D01*
X3666Y1721D01*
X3640Y1738D01*
X3614Y1752D01*
X3590Y1763D01*
X3567Y1771D01*
X3545Y1776D01*
X3524Y1778D01*
Y1876D01*
X3545Y1878D01*
X3567Y1882D01*
X3590Y1890D01*
X3614Y1901D01*
X3640Y1915D01*
X3666Y1933D01*
X3693Y1953D01*
X3751Y2004D01*
X3781Y2033D01*
Y1620D01*
D02*
G37*
G36*
X13043Y1274D02*
X13048Y1252D01*
X13056Y1229D01*
X13067Y1204D01*
X13081Y1179D01*
X13098Y1153D01*
X13119Y1126D01*
X13169Y1068D01*
X13199Y1038D01*
X12785D01*
X12815Y1068D01*
X12866Y1126D01*
X12886Y1153D01*
X12904Y1179D01*
X12918Y1204D01*
X12929Y1229D01*
X12937Y1252D01*
X12941Y1274D01*
X12943Y1295D01*
X13041D01*
X13043Y1274D01*
D02*
G37*
G36*
X13081Y1532D02*
X13073Y1529D01*
X13065Y1524D01*
X13059Y1517D01*
X13054Y1508D01*
X13049Y1497D01*
X13046Y1484D01*
X13043Y1470D01*
X13042Y1453D01*
X13041Y1434D01*
X12943D01*
X12942Y1453D01*
X12941Y1470D01*
X12938Y1484D01*
X12935Y1497D01*
X12931Y1508D01*
X12925Y1517D01*
X12919Y1524D01*
X12911Y1529D01*
X12903Y1532D01*
X12894Y1533D01*
X13091D01*
X13081Y1532D01*
D02*
G37*
G36*
X9812Y1593D02*
X9785Y1612D01*
X9760Y1626D01*
X9736Y1637D01*
X9712Y1644D01*
X9689Y1647D01*
X9667Y1647D01*
X9646Y1642D01*
X9626Y1633D01*
X9606Y1621D01*
X9588Y1605D01*
X9540Y1696D01*
X9554Y1711D01*
X9587Y1751D01*
X9624Y1802D01*
X9714Y1939D01*
X9740Y1980D01*
X9812Y1593D01*
D02*
G37*
G36*
X7712Y2179D02*
X7731Y2167D01*
X7753Y2156D01*
X7778Y2146D01*
X7806Y2139D01*
X7836Y2132D01*
X7870Y2127D01*
X7947Y2122D01*
X7989Y2122D01*
X7697Y1830D01*
X7697Y1872D01*
X7691Y1949D01*
X7687Y1983D01*
X7680Y2013D01*
X7672Y2041D01*
X7663Y2066D01*
X7652Y2088D01*
X7640Y2107D01*
X7626Y2123D01*
X7696Y2193D01*
X7712Y2179D01*
D02*
G37*
G36*
X3779Y2806D02*
X3782Y2797D01*
X3787Y2790D01*
X3794Y2783D01*
X3803Y2778D01*
X3814Y2774D01*
X3827Y2770D01*
X3841Y2768D01*
X3858Y2766D01*
X3877Y2766D01*
Y2667D01*
X3858Y2667D01*
X3841Y2665D01*
X3827Y2663D01*
X3814Y2659D01*
X3803Y2655D01*
X3794Y2650D01*
X3787Y2643D01*
X3782Y2636D01*
X3779Y2627D01*
X3778Y2618D01*
Y2815D01*
X3779Y2806D01*
D02*
G37*
G36*
X2816Y3170D02*
X3089D01*
X3082Y3169D01*
X3076Y3163D01*
X3070Y3153D01*
X3065Y3139D01*
X3061Y3121D01*
X3057Y3100D01*
X3055Y3074D01*
X3054Y3067D01*
X3055Y3058D01*
X3060Y3028D01*
X3067Y3002D01*
X3076Y2980D01*
X3087Y2963D01*
X3099Y2949D01*
X3114Y2939D01*
X3131Y2933D01*
X3150Y2931D01*
X2915Y2932D01*
X2903Y2934D01*
X2893Y2940D01*
X2884Y2950D01*
X2876Y2963D01*
X2872Y2974D01*
X2854D01*
X2854Y3011D01*
X2848Y3100D01*
X2845Y3121D01*
X2841Y3139D01*
X2836Y3153D01*
X2830Y3163D01*
X2823Y3169D01*
X2816Y3170D01*
X2814Y3185D01*
X2808Y3198D01*
X2798Y3210D01*
X2785Y3220D01*
X2767Y3229D01*
X2745Y3236D01*
X2720Y3241D01*
X2690Y3245D01*
X2681Y3246D01*
X2664Y3244D01*
X2634Y3239D01*
X2609Y3232D01*
X2587Y3223D01*
X2569Y3213D01*
X2555Y3200D01*
X2545Y3185D01*
X2539Y3168D01*
X2537Y3150D01*
X2538Y3385D01*
X2540Y3396D01*
X2546Y3406D01*
X2556Y3415D01*
X2570Y3423D01*
X2587Y3430D01*
X2609Y3435D01*
X2619Y3437D01*
Y3445D01*
X2657Y3446D01*
X2720Y3452D01*
X2745Y3457D01*
X2767Y3464D01*
X2785Y3473D01*
X2798Y3483D01*
X2808Y3495D01*
X2814Y3508D01*
X2816Y3522D01*
Y3170D01*
D02*
G37*
G36*
X14026Y3245D02*
X14029Y3229D01*
X14034Y3212D01*
X14040Y3196D01*
X14048Y3179D01*
X14057Y3162D01*
X14069Y3145D01*
X14082Y3128D01*
X14097Y3111D01*
X14114Y3093D01*
X13839D01*
X13855Y3111D01*
X13884Y3145D01*
X13895Y3162D01*
X13905Y3179D01*
X13913Y3196D01*
X13919Y3212D01*
X13924Y3229D01*
X13926Y3245D01*
X13927Y3261D01*
X14026D01*
X14026Y3245D01*
D02*
G37*
G36*
X2531Y2615D02*
X2527Y2607D01*
X2526Y2598D01*
X2528Y2586D01*
X2533Y2573D01*
X2542Y2559D01*
X2554Y2542D01*
X2568Y2524D01*
X2608Y2482D01*
X2499Y2451D01*
X2480Y2469D01*
X2447Y2497D01*
X2431Y2508D01*
X2417Y2516D01*
X2403Y2522D01*
X2391Y2525D01*
X2379Y2526D01*
X2369Y2525D01*
X2360Y2521D01*
X2538Y2621D01*
X2531Y2615D01*
D02*
G37*
G36*
X10712Y2179D02*
X10731Y2167D01*
X10753Y2156D01*
X10778Y2146D01*
X10806Y2139D01*
X10836Y2132D01*
X10870Y2127D01*
X10947Y2122D01*
X10989Y2122D01*
X10697Y1830D01*
X10697Y1872D01*
X10691Y1949D01*
X10687Y1983D01*
X10680Y2013D01*
X10672Y2041D01*
X10663Y2066D01*
X10652Y2088D01*
X10640Y2107D01*
X10626Y2123D01*
X10696Y2193D01*
X10712Y2179D01*
D02*
G37*
G36*
X9073Y2288D02*
X9074Y2268D01*
X9079Y2247D01*
X9086Y2224D01*
X9096Y2199D01*
X9110Y2172D01*
X9126Y2144D01*
X9167Y2083D01*
X9192Y2049D01*
X9220Y2014D01*
X8809Y2058D01*
X8841Y2084D01*
X8893Y2135D01*
X8915Y2160D01*
X8933Y2184D01*
X8948Y2208D01*
X8960Y2231D01*
X8968Y2254D01*
X8973Y2277D01*
X8974Y2299D01*
X9073Y2288D01*
D02*
G37*
G36*
X13042Y2200D02*
X13043Y2183D01*
X13046Y2168D01*
X13049Y2156D01*
X13054Y2145D01*
X13059Y2136D01*
X13065Y2129D01*
X13073Y2124D01*
X13081Y2121D01*
X13091Y2120D01*
X12894D01*
X12903Y2121D01*
X12911Y2124D01*
X12919Y2129D01*
X12925Y2136D01*
X12931Y2145D01*
X12935Y2156D01*
X12938Y2168D01*
X12941Y2183D01*
X12942Y2200D01*
X12943Y2219D01*
X13041D01*
X13042Y2200D01*
D02*
G37*
G36*
X15991Y5276D02*
X15990Y5285D01*
X15987Y5293D01*
X15982Y5301D01*
X15975Y5307D01*
X15966Y5312D01*
X15955Y5317D01*
X15942Y5320D01*
X15927Y5323D01*
X15910Y5324D01*
X15891Y5325D01*
Y5423D01*
X15910Y5424D01*
X15927Y5425D01*
X15942Y5428D01*
X15955Y5431D01*
X15966Y5436D01*
X15975Y5441D01*
X15982Y5447D01*
X15987Y5455D01*
X15990Y5463D01*
X15991Y5472D01*
Y5276D01*
D02*
G37*
G36*
X16207Y5463D02*
X16210Y5455D01*
X16215Y5447D01*
X16222Y5441D01*
X16231Y5436D01*
X16242Y5431D01*
X16255Y5428D01*
X16270Y5425D01*
X16287Y5424D01*
X16306Y5423D01*
Y5325D01*
X16287Y5324D01*
X16270Y5323D01*
X16255Y5320D01*
X16242Y5317D01*
X16231Y5312D01*
X16222Y5307D01*
X16215Y5301D01*
X16210Y5293D01*
X16207Y5285D01*
X16206Y5276D01*
Y5472D01*
X16207Y5463D01*
D02*
G37*
G36*
X16491Y5276D02*
X16490Y5285D01*
X16487Y5293D01*
X16482Y5301D01*
X16475Y5307D01*
X16466Y5312D01*
X16455Y5317D01*
X16442Y5320D01*
X16427Y5323D01*
X16410Y5324D01*
X16391Y5325D01*
Y5423D01*
X16410Y5424D01*
X16427Y5425D01*
X16442Y5428D01*
X16455Y5431D01*
X16466Y5436D01*
X16475Y5441D01*
X16482Y5447D01*
X16487Y5455D01*
X16490Y5463D01*
X16491Y5472D01*
Y5276D01*
D02*
G37*
G36*
X3403Y5260D02*
X3400Y5261D01*
X3396Y5262D01*
X3390Y5263D01*
X3372Y5264D01*
X3296Y5266D01*
Y5364D01*
X3403Y5369D01*
Y5260D01*
D02*
G37*
G36*
X1350Y5233D02*
X1336Y5217D01*
X1324Y5198D01*
X1313Y5176D01*
X1304Y5151D01*
X1296Y5124D01*
X1290Y5093D01*
X1285Y5059D01*
X1280Y4983D01*
X1280Y4940D01*
X987Y5232D01*
X1030Y5233D01*
X1106Y5238D01*
X1140Y5243D01*
X1171Y5249D01*
X1199Y5257D01*
X1224Y5266D01*
X1246Y5277D01*
X1265Y5289D01*
X1281Y5303D01*
X1350Y5233D01*
D02*
G37*
G36*
X8367Y5111D02*
X8372Y5102D01*
X8378Y5091D01*
X8388Y5078D01*
X8415Y5045D01*
X8476Y4980D01*
X8502Y4953D01*
X8432Y4884D01*
X8406Y4910D01*
X8295Y5007D01*
X8291Y5009D01*
X8282Y5012D01*
X8268Y5014D01*
X8254Y5012D01*
X8244Y5009D01*
X8241Y5007D01*
X8228Y4998D01*
X8195Y4971D01*
X8129Y4910D01*
X8103Y4884D01*
X8033Y4953D01*
X8059Y4980D01*
X8157Y5091D01*
X8164Y5102D01*
X8168Y5111D01*
X8169Y5118D01*
X8191Y5097D01*
X8268Y5118D01*
X8301Y5053D01*
X8366Y5118D01*
X8367Y5111D01*
D02*
G37*
G36*
X15122Y5563D02*
X15141Y5534D01*
X15161Y5508D01*
X15181Y5485D01*
X15202Y5466D01*
X15223Y5451D01*
X15245Y5439D01*
X15267Y5430D01*
X15290Y5425D01*
X15313Y5423D01*
X15284Y5325D01*
X15268Y5324D01*
X15249Y5320D01*
X15226Y5314D01*
X15201Y5305D01*
X15142Y5280D01*
X15071Y5244D01*
X14987Y5199D01*
X15103Y5596D01*
X15122Y5563D01*
D02*
G37*
G36*
X16707Y5463D02*
X16710Y5455D01*
X16715Y5447D01*
X16722Y5441D01*
X16731Y5436D01*
X16742Y5431D01*
X16755Y5428D01*
X16770Y5425D01*
X16787Y5424D01*
X16806Y5423D01*
Y5325D01*
X16787Y5324D01*
X16770Y5323D01*
X16755Y5320D01*
X16742Y5317D01*
X16731Y5312D01*
X16722Y5307D01*
X16715Y5301D01*
X16710Y5293D01*
X16707Y5285D01*
X16706Y5276D01*
Y5472D01*
X16707Y5463D01*
D02*
G37*
G36*
X18211Y5276D02*
X18210Y5285D01*
X18207Y5293D01*
X18202Y5301D01*
X18195Y5307D01*
X18186Y5312D01*
X18175Y5317D01*
X18162Y5320D01*
X18147Y5323D01*
X18130Y5324D01*
X18111Y5325D01*
Y5423D01*
X18130Y5424D01*
X18147Y5425D01*
X18162Y5428D01*
X18175Y5431D01*
X18186Y5436D01*
X18195Y5441D01*
X18202Y5447D01*
X18207Y5455D01*
X18210Y5463D01*
X18211Y5472D01*
Y5276D01*
D02*
G37*
G36*
X2892Y5542D02*
X2895Y5533D01*
X2900Y5526D01*
X2907Y5520D01*
X2916Y5514D01*
X2927Y5510D01*
X2940Y5506D01*
X2955Y5504D01*
X2972Y5502D01*
X2991Y5502D01*
Y5404D01*
X2972Y5403D01*
X2955Y5402D01*
X2940Y5399D01*
X2927Y5396D01*
X2916Y5391D01*
X2907Y5386D01*
X2900Y5379D01*
X2895Y5372D01*
X2892Y5364D01*
X2891Y5354D01*
Y5551D01*
X2892Y5542D01*
D02*
G37*
G36*
X1250Y6069D02*
X1264Y6052D01*
X1279Y6036D01*
X1295Y6023D01*
X1311Y6012D01*
X1329Y6003D01*
X1348Y5995D01*
X1367Y5990D01*
X1388Y5987D01*
X1409Y5986D01*
Y5888D01*
X1388Y5887D01*
X1367Y5884D01*
X1348Y5879D01*
X1329Y5871D01*
X1311Y5862D01*
X1295Y5851D01*
X1279Y5838D01*
X1264Y5822D01*
X1250Y5805D01*
X1238Y5785D01*
Y6089D01*
X1250Y6069D01*
D02*
G37*
G36*
X17707Y5463D02*
X17710Y5455D01*
X17715Y5447D01*
X17722Y5441D01*
X17731Y5436D01*
X17742Y5431D01*
X17755Y5428D01*
X17770Y5425D01*
X17787Y5424D01*
X17806Y5423D01*
Y5325D01*
X17787Y5324D01*
X17770Y5323D01*
X17755Y5320D01*
X17742Y5317D01*
X17731Y5312D01*
X17722Y5307D01*
X17715Y5301D01*
X17710Y5293D01*
X17707Y5285D01*
X17706Y5276D01*
Y5472D01*
X17707Y5463D01*
D02*
G37*
G36*
X16991Y5276D02*
X16990Y5285D01*
X16987Y5293D01*
X16982Y5301D01*
X16975Y5307D01*
X16966Y5312D01*
X16955Y5317D01*
X16942Y5320D01*
X16927Y5323D01*
X16910Y5324D01*
X16891Y5325D01*
Y5423D01*
X16910Y5424D01*
X16927Y5425D01*
X16942Y5428D01*
X16955Y5431D01*
X16966Y5436D01*
X16975Y5441D01*
X16982Y5447D01*
X16987Y5455D01*
X16990Y5463D01*
X16991Y5472D01*
Y5276D01*
D02*
G37*
G36*
X17207Y5463D02*
X17210Y5455D01*
X17215Y5447D01*
X17222Y5441D01*
X17231Y5436D01*
X17242Y5431D01*
X17255Y5428D01*
X17270Y5425D01*
X17287Y5424D01*
X17306Y5423D01*
Y5325D01*
X17287Y5324D01*
X17270Y5323D01*
X17255Y5320D01*
X17242Y5317D01*
X17231Y5312D01*
X17222Y5307D01*
X17215Y5301D01*
X17210Y5293D01*
X17207Y5285D01*
X17206Y5276D01*
Y5472D01*
X17207Y5463D01*
D02*
G37*
G36*
X17491Y5276D02*
X17490Y5285D01*
X17487Y5293D01*
X17482Y5301D01*
X17475Y5307D01*
X17466Y5312D01*
X17455Y5317D01*
X17442Y5320D01*
X17427Y5323D01*
X17410Y5324D01*
X17391Y5325D01*
Y5423D01*
X17410Y5424D01*
X17427Y5425D01*
X17442Y5428D01*
X17455Y5431D01*
X17466Y5436D01*
X17475Y5441D01*
X17482Y5447D01*
X17487Y5455D01*
X17490Y5463D01*
X17491Y5472D01*
Y5276D01*
D02*
G37*
G36*
X4867Y4929D02*
X4857Y4931D01*
X4846Y4932D01*
X4836Y4931D01*
X4825Y4929D01*
X4815Y4926D01*
X4804Y4921D01*
X4793Y4914D01*
X4782Y4906D01*
X4771Y4897D01*
X4759Y4886D01*
X4690Y4956D01*
X4700Y4967D01*
X4710Y4979D01*
X4717Y4990D01*
X4724Y5001D01*
X4729Y5011D01*
X4732Y5022D01*
X4734Y5033D01*
X4735Y5043D01*
X4734Y5053D01*
X4732Y5064D01*
X4867Y4929D01*
D02*
G37*
G36*
X13404Y4321D02*
X13407Y4313D01*
X13412Y4306D01*
X13419Y4299D01*
X13428Y4294D01*
X13439Y4289D01*
X13452Y4286D01*
X13467Y4283D01*
X13484Y4282D01*
X13503Y4281D01*
Y4183D01*
X13484Y4183D01*
X13467Y4181D01*
X13452Y4179D01*
X13439Y4175D01*
X13428Y4171D01*
X13419Y4165D01*
X13412Y4159D01*
X13407Y4152D01*
X13404Y4143D01*
X13403Y4134D01*
Y4331D01*
X13404Y4321D01*
D02*
G37*
G36*
X13762Y4134D02*
X13761Y4143D01*
X13758Y4152D01*
X13753Y4159D01*
X13746Y4165D01*
X13737Y4171D01*
X13726Y4175D01*
X13713Y4179D01*
X13698Y4181D01*
X13682Y4183D01*
X13663Y4183D01*
Y4281D01*
X13682Y4282D01*
X13698Y4283D01*
X13713Y4286D01*
X13726Y4289D01*
X13737Y4294D01*
X13746Y4299D01*
X13753Y4306D01*
X13758Y4313D01*
X13761Y4321D01*
X13762Y4331D01*
Y4134D01*
D02*
G37*
G36*
X10120Y4381D02*
X10107Y4367D01*
X10097Y4353D01*
X10090Y4339D01*
X10086Y4325D01*
X10085Y4311D01*
X10086Y4297D01*
X10090Y4283D01*
X10097Y4269D01*
X10107Y4255D01*
X10120Y4241D01*
X10030Y4192D01*
X10015Y4205D01*
X10001Y4217D01*
X9985Y4228D01*
X9969Y4237D01*
X9953Y4244D01*
X9936Y4251D01*
X9918Y4256D01*
X9900Y4259D01*
X9881Y4261D01*
X9862Y4262D01*
Y4360D01*
X9881Y4361D01*
X9900Y4363D01*
X9918Y4367D01*
X9936Y4371D01*
X9953Y4378D01*
X9969Y4385D01*
X9985Y4394D01*
X10001Y4405D01*
X10015Y4417D01*
X10030Y4430D01*
X10120Y4381D01*
D02*
G37*
G36*
X13054Y4134D02*
X13053Y4143D01*
X13050Y4152D01*
X13045Y4159D01*
X13038Y4165D01*
X13029Y4171D01*
X13018Y4175D01*
X13005Y4179D01*
X12990Y4181D01*
X12973Y4183D01*
X12954Y4183D01*
Y4281D01*
X12973Y4282D01*
X12990Y4283D01*
X13005Y4286D01*
X13018Y4289D01*
X13029Y4294D01*
X13038Y4299D01*
X13045Y4306D01*
X13050Y4313D01*
X13053Y4321D01*
X13054Y4331D01*
Y4134D01*
D02*
G37*
G36*
X11869Y4321D02*
X11872Y4313D01*
X11877Y4306D01*
X11884Y4299D01*
X11893Y4294D01*
X11904Y4289D01*
X11916Y4286D01*
X11931Y4283D01*
X11948Y4282D01*
X11967Y4281D01*
Y4183D01*
X11948Y4183D01*
X11931Y4181D01*
X11916Y4179D01*
X11904Y4175D01*
X11893Y4171D01*
X11884Y4165D01*
X11877Y4159D01*
X11872Y4152D01*
X11869Y4143D01*
X11868Y4134D01*
Y4331D01*
X11869Y4321D01*
D02*
G37*
G36*
X12306Y4134D02*
X12305Y4143D01*
X12302Y4152D01*
X12297Y4159D01*
X12290Y4165D01*
X12281Y4171D01*
X12270Y4175D01*
X12257Y4179D01*
X12242Y4181D01*
X12225Y4183D01*
X12206Y4183D01*
Y4281D01*
X12225Y4282D01*
X12242Y4283D01*
X12257Y4286D01*
X12270Y4289D01*
X12281Y4294D01*
X12290Y4299D01*
X12297Y4306D01*
X12302Y4313D01*
X12305Y4321D01*
X12306Y4331D01*
Y4134D01*
D02*
G37*
G36*
X12656Y4321D02*
X12659Y4313D01*
X12664Y4306D01*
X12671Y4299D01*
X12680Y4294D01*
X12691Y4289D01*
X12704Y4286D01*
X12719Y4283D01*
X12736Y4282D01*
X12755Y4281D01*
Y4183D01*
X12736Y4183D01*
X12719Y4181D01*
X12704Y4179D01*
X12691Y4175D01*
X12680Y4171D01*
X12671Y4165D01*
X12664Y4159D01*
X12659Y4152D01*
X12656Y4143D01*
X12655Y4134D01*
Y4331D01*
X12656Y4321D01*
D02*
G37*
G36*
X9114Y4400D02*
X9117Y4392D01*
X9122Y4384D01*
X9129Y4378D01*
X9138Y4373D01*
X9149Y4368D01*
X9162Y4365D01*
X9177Y4362D01*
X9194Y4361D01*
X9213Y4360D01*
Y4262D01*
X9194Y4261D01*
X9177Y4260D01*
X9162Y4257D01*
X9149Y4254D01*
X9138Y4250D01*
X9129Y4244D01*
X9122Y4238D01*
X9117Y4230D01*
X9114Y4222D01*
X9113Y4213D01*
Y4409D01*
X9114Y4400D01*
D02*
G37*
G36*
X5566Y4629D02*
X5457D01*
X5458Y4631D01*
X5459Y4636D01*
X5460Y4642D01*
X5461Y4659D01*
X5463Y4735D01*
X5561D01*
X5566Y4629D01*
D02*
G37*
G36*
X7929D02*
X7820D01*
X7821Y4631D01*
X7821Y4635D01*
X7822Y4641D01*
X7823Y4657D01*
X7825Y4708D01*
X7825Y4724D01*
X7923D01*
X7929Y4629D01*
D02*
G37*
G36*
X4041Y4975D02*
X4045Y4974D01*
X4051Y4973D01*
X4069Y4972D01*
X4145Y4970D01*
Y4872D01*
X4038Y4867D01*
Y4976D01*
X4041Y4975D01*
D02*
G37*
G36*
X5369Y4629D02*
X5260D01*
X5261Y4631D01*
X5262Y4636D01*
X5263Y4642D01*
X5264Y4659D01*
X5266Y4735D01*
X5364D01*
X5369Y4629D01*
D02*
G37*
G36*
X1208Y4287D02*
X1198Y4275D01*
X1191Y4265D01*
X1187Y4255D01*
X1185Y4248D01*
X1187Y4241D01*
X1191Y4236D01*
X1198Y4233D01*
X1208Y4231D01*
X1221Y4230D01*
X942D01*
X956Y4231D01*
X970Y4233D01*
X984Y4236D01*
X997Y4241D01*
X1011Y4248D01*
X1025Y4255D01*
X1039Y4265D01*
X1053Y4275D01*
X1067Y4287D01*
X1081Y4301D01*
X1221D01*
X1208Y4287D01*
D02*
G37*
G36*
X3250Y4589D02*
X3256Y4555D01*
X3266Y4526D01*
X3280Y4500D01*
X3297Y4478D01*
X3319Y4461D01*
X3344Y4447D01*
X3358Y4442D01*
X3361Y4443D01*
X3373Y4448D01*
X3384Y4454D01*
X3394Y4461D01*
X3403Y4469D01*
Y4432D01*
X3407Y4431D01*
X3445Y4429D01*
X3403Y4401D01*
Y4193D01*
X3394Y4200D01*
X3384Y4207D01*
X3373Y4213D01*
X3361Y4218D01*
X3346Y4222D01*
X3331Y4226D01*
X3314Y4229D01*
X3296Y4231D01*
X3255Y4232D01*
Y4302D01*
X3150Y4232D01*
X3089Y4272D01*
Y4232D01*
X3052Y4232D01*
X2989Y4227D01*
X2963Y4223D01*
X2942Y4218D01*
X2924Y4211D01*
X2910Y4204D01*
X2900Y4195D01*
X2894Y4185D01*
X2893Y4174D01*
X2892Y4404D01*
X2854Y4429D01*
X2892Y4431D01*
X2891Y4528D01*
X2893Y4509D01*
X2899Y4492D01*
X2909Y4477D01*
X2923Y4465D01*
X2941Y4454D01*
X2956Y4448D01*
X2980Y4461D01*
X3002Y4478D01*
X3020Y4500D01*
X3033Y4526D01*
X3043Y4555D01*
X3049Y4589D01*
X3051Y4626D01*
X3248D01*
X3250Y4589D01*
D02*
G37*
G36*
X8898Y4729D02*
X8901Y4670D01*
X8903Y4659D01*
X8907Y4641D01*
X8910Y4634D01*
X8913Y4629D01*
X8804D01*
X8803Y4628D01*
X8802Y4630D01*
X8801Y4633D01*
X8801Y4638D01*
X8800Y4653D01*
X8799Y4705D01*
X8898Y4748D01*
X8898Y4729D01*
D02*
G37*
G36*
X3495Y16791D02*
X3496Y16774D01*
X3499Y16759D01*
X3502Y16746D01*
X3506Y16735D01*
X3512Y16726D01*
X3518Y16719D01*
X3526Y16714D01*
X3534Y16711D01*
X3543Y16710D01*
X3346D01*
X3356Y16711D01*
X3364Y16714D01*
X3372Y16719D01*
X3378Y16726D01*
X3383Y16735D01*
X3388Y16746D01*
X3391Y16759D01*
X3394Y16774D01*
X3395Y16791D01*
X3396Y16810D01*
X3494D01*
X3495Y16791D01*
D02*
G37*
G36*
X5315Y16808D02*
X5320Y16740D01*
X5322Y16729D01*
X5325Y16721D01*
X5328Y16715D01*
X5332Y16711D01*
X5336Y16710D01*
X5097D01*
X5101Y16711D01*
X5105Y16715D01*
X5108Y16721D01*
X5111Y16729D01*
X5113Y16740D01*
X5115Y16754D01*
X5117Y16787D01*
X5118Y16831D01*
X5315D01*
X5315Y16808D01*
D02*
G37*
G36*
X9349Y17154D02*
X9351Y17140D01*
X9355Y17127D01*
X9359Y17113D01*
X9366Y17099D01*
X9374Y17085D01*
X9383Y17071D01*
X9393Y17057D01*
X9405Y17043D01*
X9419Y17029D01*
Y16890D01*
X9409Y16899D01*
X9376Y16928D01*
X9369Y16932D01*
X9363Y16936D01*
X9358Y16938D01*
X9353Y16940D01*
X9349Y16940D01*
X9348Y17168D01*
X9349Y17154D01*
D02*
G37*
G36*
X9697Y16752D02*
X9710Y16742D01*
X9724Y16733D01*
X9741Y16725D01*
X9758Y16718D01*
X9777Y16711D01*
X9798Y16705D01*
X9843Y16695D01*
X9868Y16691D01*
X9648Y16526D01*
X9651Y16549D01*
X9652Y16570D01*
X9652Y16591D01*
X9650Y16610D01*
X9646Y16628D01*
X9641Y16646D01*
X9635Y16662D01*
X9627Y16676D01*
X9617Y16690D01*
X9606Y16703D01*
X9685Y16762D01*
X9697Y16752D01*
D02*
G37*
G36*
X4489Y16437D02*
X4488Y16446D01*
X4485Y16455D01*
X4481Y16462D01*
X4474Y16468D01*
X4465Y16474D01*
X4454Y16478D01*
X4441Y16482D01*
X4426Y16484D01*
X4410Y16486D01*
X4391Y16486D01*
Y16585D01*
X4410Y16585D01*
X4426Y16587D01*
X4441Y16589D01*
X4454Y16593D01*
X4465Y16597D01*
X4474Y16602D01*
X4481Y16609D01*
X4485Y16616D01*
X4488Y16625D01*
X4489Y16634D01*
Y16437D01*
D02*
G37*
G36*
X7580Y16931D02*
X7584Y16893D01*
X7591Y16857D01*
X7601Y16822D01*
X7614Y16787D01*
X7629Y16754D01*
X7647Y16723D01*
X7668Y16692D01*
X7691Y16662D01*
X7718Y16634D01*
X7620Y16454D01*
X7592Y16479D01*
X7564Y16498D01*
X7536Y16512D01*
X7508Y16521D01*
X7480Y16523D01*
X7452Y16521D01*
X7425Y16512D01*
X7397Y16498D01*
X7369Y16479D01*
X7341Y16454D01*
X7243Y16634D01*
X7269Y16662D01*
X7293Y16692D01*
X7314Y16723D01*
X7332Y16754D01*
X7347Y16787D01*
X7360Y16822D01*
X7369Y16857D01*
X7376Y16893D01*
X7380Y16931D01*
X7382Y16970D01*
X7579D01*
X7580Y16931D01*
D02*
G37*
G36*
X4173Y16625D02*
X4176Y16616D01*
X4181Y16609D01*
X4188Y16602D01*
X4197Y16597D01*
X4207Y16593D01*
X4220Y16589D01*
X4235Y16587D01*
X4252Y16585D01*
X4270Y16585D01*
Y16486D01*
X4252Y16486D01*
X4235Y16484D01*
X4220Y16482D01*
X4207Y16478D01*
X4197Y16474D01*
X4188Y16468D01*
X4185Y16466D01*
X4196Y16451D01*
X4209Y16435D01*
X4224Y16417D01*
X4242Y16399D01*
X4211Y16290D01*
X4189Y16311D01*
X4151Y16344D01*
X4134Y16356D01*
X4119Y16364D01*
X4106Y16370D01*
X4095Y16372D01*
X4086Y16371D01*
X4078Y16367D01*
X4072Y16359D01*
X4172Y16538D01*
X4168Y16529D01*
X4167Y16518D01*
X4168Y16507D01*
X4171Y16494D01*
X4172Y16492D01*
Y16634D01*
X4173Y16625D01*
D02*
G37*
G36*
X5731Y16929D02*
X5730Y16939D01*
X5727Y16947D01*
X5722Y16954D01*
X5715Y16961D01*
X5706Y16966D01*
X5695Y16970D01*
X5682Y16974D01*
X5667Y16976D01*
X5650Y16978D01*
X5631Y16978D01*
Y17077D01*
X5650Y17077D01*
X5667Y17079D01*
X5682Y17081D01*
X5695Y17085D01*
X5706Y17089D01*
X5715Y17095D01*
X5722Y17101D01*
X5727Y17108D01*
X5730Y17117D01*
X5731Y17126D01*
Y16929D01*
D02*
G37*
G36*
X8514Y17431D02*
X8516Y17414D01*
X8518Y17399D01*
X8522Y17386D01*
X8526Y17375D01*
X8532Y17366D01*
X8538Y17359D01*
X8545Y17354D01*
X8554Y17351D01*
X8563Y17350D01*
X8367Y17351D01*
X8376Y17352D01*
X8385Y17355D01*
X8392Y17360D01*
X8398Y17367D01*
X8403Y17376D01*
X8408Y17387D01*
X8411Y17399D01*
X8413Y17414D01*
X8415Y17431D01*
X8415Y17450D01*
X8514D01*
X8514Y17431D01*
D02*
G37*
G36*
X9272Y17431D02*
X9274Y17414D01*
X9276Y17399D01*
X9279Y17386D01*
X9284Y17375D01*
X9289Y17366D01*
X9296Y17359D01*
X9303Y17354D01*
X9311Y17351D01*
X9321Y17350D01*
X9124D01*
X9133Y17351D01*
X9142Y17354D01*
X9149Y17359D01*
X9155Y17366D01*
X9161Y17375D01*
X9165Y17386D01*
X9169Y17399D01*
X9171Y17414D01*
X9173Y17431D01*
X9173Y17450D01*
X9272D01*
X9272Y17431D01*
D02*
G37*
G36*
X6014Y17452D02*
X6006Y17449D01*
X5999Y17444D01*
X5992Y17437D01*
X5987Y17428D01*
X5982Y17417D01*
X5979Y17404D01*
X5976Y17389D01*
X5975Y17372D01*
X5974Y17354D01*
X5876D01*
X5875Y17372D01*
X5874Y17389D01*
X5872Y17404D01*
X5868Y17417D01*
X5864Y17428D01*
X5858Y17437D01*
X5852Y17444D01*
X5844Y17449D01*
X5836Y17452D01*
X5827Y17453D01*
X6024D01*
X6014Y17452D01*
D02*
G37*
G36*
X3461Y17397D02*
X3468Y17396D01*
X3473Y17393D01*
X3478Y17388D01*
X3482Y17381D01*
X3486Y17372D01*
X3489Y17361D01*
X3491Y17349D01*
X3493Y17334D01*
X3494Y17298D01*
X3396D01*
X3395Y17317D01*
X3394Y17334D01*
X3391Y17349D01*
X3388Y17362D01*
X3383Y17373D01*
X3378Y17382D01*
X3372Y17389D01*
X3364Y17394D01*
X3356Y17397D01*
X3346Y17398D01*
X3461Y17397D01*
D02*
G37*
G36*
X5512Y17297D02*
X5516Y17252D01*
X5520Y17232D01*
X5525Y17213D01*
X5531Y17196D01*
X5539Y17180D01*
X5547Y17165D01*
X5557Y17152D01*
X5568Y17139D01*
X5498Y17070D01*
X5486Y17081D01*
X5473Y17090D01*
X5458Y17099D01*
X5442Y17106D01*
X5424Y17113D01*
X5406Y17118D01*
X5385Y17121D01*
X5364Y17124D01*
X5341Y17126D01*
X5317Y17126D01*
X5512Y17321D01*
X5512Y17297D01*
D02*
G37*
G36*
X5975Y17244D02*
X5976Y17227D01*
X5979Y17212D01*
X5982Y17200D01*
X5987Y17189D01*
X5992Y17180D01*
X5999Y17173D01*
X6006Y17168D01*
X6014Y17165D01*
X6024Y17164D01*
X5827D01*
X5836Y17165D01*
X5844Y17168D01*
X5852Y17173D01*
X5858Y17180D01*
X5864Y17189D01*
X5868Y17200D01*
X5872Y17212D01*
X5874Y17227D01*
X5875Y17244D01*
X5876Y17263D01*
X5974D01*
X5975Y17244D01*
D02*
G37*
G36*
X4959Y17395D02*
X4958Y17389D01*
X4956Y17379D01*
X4955Y17365D01*
X4952Y17300D01*
X4951Y17200D01*
X4754D01*
X4743Y17397D01*
X4961D01*
X4959Y17395D01*
D02*
G37*
G36*
X5355Y16697D02*
X5361Y16683D01*
X5371Y16672D01*
X5385Y16662D01*
X5402Y16653D01*
X5424Y16646D01*
X5450Y16641D01*
X5479Y16637D01*
X5513Y16635D01*
X5550Y16634D01*
Y16629D01*
X5730Y16574D01*
X5731Y16339D01*
X5729Y16357D01*
X5723Y16374D01*
X5713Y16389D01*
X5699Y16402D01*
X5681Y16412D01*
X5659Y16421D01*
X5634Y16428D01*
X5604Y16433D01*
X5570Y16436D01*
X5540Y16437D01*
X5513Y16436D01*
X5450Y16430D01*
X5424Y16425D01*
X5402Y16418D01*
X5385Y16409D01*
X5371Y16399D01*
X5361Y16387D01*
X5355Y16374D01*
X5353Y16359D01*
Y16711D01*
X5355Y16697D01*
D02*
G37*
G36*
X8942Y14981D02*
X8945Y14947D01*
X8950Y14917D01*
X8957Y14892D01*
X8966Y14870D01*
X8976Y14852D01*
X8989Y14838D01*
X9004Y14828D01*
X9021Y14822D01*
X9039Y14820D01*
X8646D01*
X8664Y14822D01*
X8681Y14828D01*
X8696Y14838D01*
X8709Y14852D01*
X8719Y14870D01*
X8728Y14892D01*
X8735Y14917D01*
X8740Y14947D01*
X8743Y14981D01*
X8744Y15018D01*
X8941D01*
X8942Y14981D01*
D02*
G37*
G36*
X12219Y15147D02*
X12211Y15144D01*
X12203Y15139D01*
X12197Y15132D01*
X12191Y15123D01*
X12187Y15112D01*
X12184Y15099D01*
X12181Y15084D01*
X12180Y15067D01*
X12179Y15048D01*
X12081D01*
X12080Y15067D01*
X12079Y15084D01*
X12076Y15099D01*
X12073Y15112D01*
X12068Y15123D01*
X12063Y15132D01*
X12057Y15139D01*
X12049Y15144D01*
X12041Y15147D01*
X12032Y15148D01*
X12228D01*
X12219Y15147D01*
D02*
G37*
G36*
X10601Y15148D02*
X10596Y15156D01*
X10589Y15161D01*
X10580Y15162D01*
X10569Y15160D01*
X10556Y15155D01*
X10542Y15146D01*
X10525Y15134D01*
X10506Y15118D01*
X10462Y15077D01*
X10451Y15206D01*
X10468Y15224D01*
X10496Y15256D01*
X10506Y15272D01*
X10514Y15286D01*
X10520Y15299D01*
X10524Y15312D01*
X10526Y15324D01*
X10525Y15335D01*
X10522Y15345D01*
X10601Y15148D01*
D02*
G37*
G36*
X12096Y14585D02*
X12083Y14571D01*
X12071Y14557D01*
X12060Y14543D01*
X12051Y14529D01*
X12043Y14515D01*
X12037Y14501D01*
X12032Y14488D01*
X12028Y14474D01*
X12026Y14460D01*
X12025Y14446D01*
X12026Y14694D01*
X12027Y14687D01*
X12029Y14683D01*
X12033Y14680D01*
X12037Y14680D01*
X12044Y14682D01*
X12051Y14686D01*
X12060Y14692D01*
X12070Y14701D01*
X12095Y14724D01*
X12096Y14585D01*
D02*
G37*
G36*
X715Y14189D02*
X713Y14208D01*
X707Y14224D01*
X697Y14239D01*
X684Y14252D01*
X666Y14263D01*
X644Y14272D01*
X618Y14279D01*
X611Y14280D01*
X599Y14277D01*
X586Y14272D01*
X573Y14266D01*
X562Y14260D01*
X553Y14252D01*
X545Y14244D01*
X541Y14287D01*
X517Y14287D01*
Y14484D01*
X526Y14484D01*
X523Y14519D01*
X531Y14512D01*
X541Y14506D01*
X553Y14501D01*
X566Y14497D01*
X580Y14493D01*
X596Y14490D01*
X597Y14490D01*
X618Y14493D01*
X644Y14500D01*
X666Y14509D01*
X684Y14520D01*
X697Y14532D01*
X707Y14547D01*
X713Y14564D01*
X715Y14583D01*
Y14189D01*
D02*
G37*
G36*
X10208Y14824D02*
X10195Y14808D01*
X10182Y14789D01*
X10171Y14767D01*
X10162Y14742D01*
X10154Y14714D01*
X10148Y14683D01*
X10143Y14650D01*
X10138Y14573D01*
X10138Y14531D01*
X9845Y14823D01*
X9888Y14823D01*
X9964Y14828D01*
X9998Y14833D01*
X10029Y14839D01*
X10057Y14847D01*
X10082Y14857D01*
X10104Y14867D01*
X10123Y14880D01*
X10139Y14893D01*
X10208Y14824D01*
D02*
G37*
G36*
X1437Y14768D02*
X1440Y14735D01*
X1445Y14705D01*
X1452Y14679D01*
X1461Y14657D01*
X1472Y14640D01*
X1484Y14626D01*
X1499Y14616D01*
X1516Y14610D01*
X1535Y14608D01*
X1141D01*
X1160Y14610D01*
X1176Y14616D01*
X1191Y14626D01*
X1204Y14640D01*
X1215Y14657D01*
X1224Y14679D01*
X1231Y14705D01*
X1235Y14735D01*
X1238Y14768D01*
X1239Y14806D01*
X1436D01*
X1437Y14768D01*
D02*
G37*
G36*
X10739Y15410D02*
X10742Y15402D01*
X10747Y15395D01*
X10754Y15388D01*
X10763Y15383D01*
X10774Y15378D01*
X10787Y15375D01*
X10802Y15372D01*
X10818Y15371D01*
X10837Y15370D01*
Y15272D01*
X10818Y15271D01*
X10802Y15270D01*
X10787Y15268D01*
X10774Y15264D01*
X10763Y15260D01*
X10754Y15254D01*
X10747Y15248D01*
X10742Y15240D01*
X10739Y15232D01*
X10738Y15223D01*
Y15420D01*
X10739Y15410D01*
D02*
G37*
G36*
X12022Y15223D02*
X12021Y15232D01*
X12018Y15240D01*
X12013Y15248D01*
X12006Y15254D01*
X11997Y15260D01*
X11986Y15264D01*
X11973Y15268D01*
X11958Y15270D01*
X11941Y15271D01*
X11922Y15272D01*
Y15370D01*
X11941Y15371D01*
X11958Y15372D01*
X11973Y15375D01*
X11986Y15378D01*
X11997Y15383D01*
X12006Y15388D01*
X12013Y15395D01*
X12018Y15402D01*
X12021Y15410D01*
X12022Y15420D01*
Y15223D01*
D02*
G37*
G36*
X8941Y15370D02*
X8744Y15132D01*
X8743Y15171D01*
X8739Y15209D01*
X8732Y15245D01*
X8722Y15281D01*
X8709Y15315D01*
X8694Y15348D01*
X8676Y15380D01*
X8655Y15411D01*
X8631Y15440D01*
X8605Y15468D01*
Y15747D01*
X8631Y15722D01*
X8655Y15705D01*
X8676Y15694D01*
X8694Y15689D01*
X8709Y15692D01*
X8722Y15701D01*
X8732Y15717D01*
X8739Y15739D01*
X8743Y15769D01*
X8744Y15805D01*
X8941Y15370D01*
D02*
G37*
G36*
X8969Y16033D02*
X8963Y16027D01*
X8958Y16017D01*
X8953Y16003D01*
X8949Y15985D01*
X8946Y15964D01*
X8942Y15909D01*
X8941Y15838D01*
X8744D01*
X8741Y16035D01*
X8975D01*
X8969Y16033D01*
D02*
G37*
G36*
X11739Y15410D02*
X11742Y15402D01*
X11747Y15395D01*
X11754Y15388D01*
X11763Y15383D01*
X11774Y15378D01*
X11787Y15375D01*
X11802Y15372D01*
X11818Y15371D01*
X11837Y15370D01*
Y15272D01*
X11818Y15271D01*
X11802Y15270D01*
X11787Y15268D01*
X11774Y15264D01*
X11763Y15260D01*
X11754Y15254D01*
X11747Y15248D01*
X11742Y15240D01*
X11739Y15232D01*
X11738Y15223D01*
Y15420D01*
X11739Y15410D01*
D02*
G37*
G36*
X11022Y15223D02*
X11021Y15232D01*
X11018Y15240D01*
X11013Y15248D01*
X11006Y15254D01*
X10997Y15260D01*
X10986Y15264D01*
X10973Y15268D01*
X10958Y15270D01*
X10941Y15271D01*
X10922Y15272D01*
Y15370D01*
X10941Y15371D01*
X10958Y15372D01*
X10973Y15375D01*
X10986Y15378D01*
X10997Y15383D01*
X11006Y15388D01*
X11013Y15395D01*
X11018Y15402D01*
X11021Y15410D01*
X11022Y15420D01*
Y15223D01*
D02*
G37*
G36*
X11239Y15410D02*
X11242Y15402D01*
X11247Y15395D01*
X11254Y15388D01*
X11263Y15383D01*
X11274Y15378D01*
X11287Y15375D01*
X11302Y15372D01*
X11318Y15371D01*
X11337Y15370D01*
Y15272D01*
X11318Y15271D01*
X11302Y15270D01*
X11287Y15268D01*
X11274Y15264D01*
X11263Y15260D01*
X11254Y15254D01*
X11247Y15248D01*
X11242Y15240D01*
X11239Y15232D01*
X11238Y15223D01*
Y15420D01*
X11239Y15410D01*
D02*
G37*
G36*
X11522Y15223D02*
X11521Y15232D01*
X11518Y15240D01*
X11513Y15248D01*
X11506Y15254D01*
X11497Y15260D01*
X11486Y15264D01*
X11473Y15268D01*
X11458Y15270D01*
X11441Y15271D01*
X11422Y15272D01*
Y15370D01*
X11441Y15371D01*
X11458Y15372D01*
X11473Y15375D01*
X11486Y15378D01*
X11497Y15383D01*
X11506Y15388D01*
X11513Y15395D01*
X11518Y15402D01*
X11521Y15410D01*
X11522Y15420D01*
Y15223D01*
D02*
G37*
G36*
X3961Y19957D02*
X3964Y19949D01*
X3969Y19941D01*
X3976Y19935D01*
X3985Y19930D01*
X3996Y19925D01*
X4009Y19922D01*
X4024Y19919D01*
X4041Y19918D01*
X4060Y19917D01*
Y19819D01*
X4041Y19818D01*
X4024Y19817D01*
X4009Y19814D01*
X3996Y19811D01*
X3985Y19807D01*
X3976Y19801D01*
X3969Y19795D01*
X3964Y19787D01*
X3961Y19779D01*
X3960Y19770D01*
Y19967D01*
X3961Y19957D01*
D02*
G37*
G36*
X4245Y19770D02*
X4244Y19779D01*
X4241Y19787D01*
X4236Y19795D01*
X4229Y19801D01*
X4220Y19807D01*
X4209Y19811D01*
X4196Y19814D01*
X4181Y19817D01*
X4164Y19818D01*
X4145Y19819D01*
Y19917D01*
X4164Y19918D01*
X4181Y19919D01*
X4196Y19922D01*
X4209Y19925D01*
X4220Y19930D01*
X4229Y19935D01*
X4236Y19941D01*
X4241Y19949D01*
X4244Y19957D01*
X4245Y19967D01*
Y19770D01*
D02*
G37*
G36*
X4461Y19957D02*
X4464Y19949D01*
X4469Y19941D01*
X4476Y19935D01*
X4485Y19930D01*
X4496Y19925D01*
X4509Y19922D01*
X4524Y19919D01*
X4541Y19918D01*
X4560Y19917D01*
Y19819D01*
X4541Y19818D01*
X4524Y19817D01*
X4509Y19814D01*
X4496Y19811D01*
X4485Y19807D01*
X4476Y19801D01*
X4469Y19795D01*
X4464Y19787D01*
X4461Y19779D01*
X4460Y19770D01*
Y19967D01*
X4461Y19957D01*
D02*
G37*
G36*
X3745Y19770D02*
X3744Y19779D01*
X3741Y19787D01*
X3736Y19795D01*
X3729Y19801D01*
X3720Y19807D01*
X3709Y19811D01*
X3696Y19814D01*
X3681Y19817D01*
X3664Y19818D01*
X3645Y19819D01*
Y19917D01*
X3664Y19918D01*
X3681Y19919D01*
X3696Y19922D01*
X3709Y19925D01*
X3720Y19930D01*
X3729Y19935D01*
X3736Y19941D01*
X3741Y19949D01*
X3744Y19957D01*
X3745Y19967D01*
Y19770D01*
D02*
G37*
G36*
X10771Y18886D02*
X10810Y18852D01*
X10827Y18841D01*
X10841Y18832D01*
X10854Y18826D01*
X10866Y18824D01*
X10875Y18825D01*
X10883Y18829D01*
X10888Y18836D01*
X10790Y18659D01*
X10793Y18668D01*
X10795Y18678D01*
X10794Y18690D01*
X10790Y18702D01*
X10784Y18716D01*
X10776Y18730D01*
X10765Y18745D01*
X10752Y18762D01*
X10737Y18779D01*
X10719Y18798D01*
X10749Y18907D01*
X10771Y18886D01*
D02*
G37*
G36*
X3902Y19777D02*
X3904Y19760D01*
X3906Y19745D01*
X3909Y19732D01*
X3914Y19721D01*
X3919Y19712D01*
X3926Y19705D01*
X3933Y19700D01*
X3934Y19700D01*
X3951D01*
X3941Y19699D01*
X3939Y19698D01*
X3941Y19697D01*
X3951Y19696D01*
X3934D01*
X3933Y19696D01*
X3926Y19691D01*
X3919Y19684D01*
X3914Y19675D01*
X3909Y19665D01*
X3906Y19652D01*
X3904Y19637D01*
X3902Y19620D01*
X3902Y19602D01*
X3803D01*
X3803Y19620D01*
X3801Y19637D01*
X3799Y19652D01*
X3795Y19665D01*
X3791Y19675D01*
X3785Y19684D01*
X3779Y19691D01*
X3772Y19696D01*
X3771Y19696D01*
X3754D01*
X3763Y19697D01*
X3766Y19698D01*
X3763Y19699D01*
X3754Y19700D01*
X3771D01*
X3772Y19700D01*
X3779Y19705D01*
X3785Y19712D01*
X3791Y19721D01*
X3795Y19732D01*
X3799Y19745D01*
X3801Y19760D01*
X3803Y19777D01*
X3803Y19796D01*
X3902D01*
X3902Y19777D01*
D02*
G37*
G36*
X3461Y19957D02*
X3464Y19949D01*
X3469Y19941D01*
X3476Y19935D01*
X3485Y19930D01*
X3496Y19925D01*
X3509Y19922D01*
X3524Y19919D01*
X3541Y19918D01*
X3560Y19917D01*
Y19819D01*
X3541Y19818D01*
X3524Y19817D01*
X3509Y19814D01*
X3496Y19811D01*
X3485Y19807D01*
X3476Y19801D01*
X3469Y19795D01*
X3464Y19787D01*
X3461Y19779D01*
X3460Y19770D01*
Y19967D01*
X3461Y19957D01*
D02*
G37*
G36*
X4745Y19770D02*
X4744Y19779D01*
X4741Y19787D01*
X4736Y19795D01*
X4729Y19801D01*
X4720Y19807D01*
X4709Y19811D01*
X4696Y19814D01*
X4681Y19817D01*
X4664Y19818D01*
X4645Y19819D01*
Y19917D01*
X4664Y19918D01*
X4681Y19919D01*
X4696Y19922D01*
X4709Y19925D01*
X4720Y19930D01*
X4729Y19935D01*
X4736Y19941D01*
X4741Y19949D01*
X4744Y19957D01*
X4745Y19967D01*
Y19770D01*
D02*
G37*
G36*
X5706Y20374D02*
X5663Y20374D01*
X5587Y20369D01*
X5553Y20364D01*
X5522Y20357D01*
X5494Y20350D01*
X5469Y20340D01*
X5447Y20329D01*
X5428Y20317D01*
X5412Y20303D01*
X5343Y20373D01*
X5357Y20389D01*
X5369Y20408D01*
X5380Y20430D01*
X5389Y20455D01*
X5397Y20483D01*
X5403Y20514D01*
X5408Y20547D01*
X5413Y20624D01*
X5413Y20666D01*
X5706Y20374D01*
D02*
G37*
G36*
X6455Y21063D02*
X6528Y21002D01*
X6560Y20980D01*
X6589Y20963D01*
X6615Y20952D01*
X6639Y20946D01*
X6660Y20946D01*
X6678Y20951D01*
X6693Y20962D01*
X6416Y20685D01*
X6427Y20700D01*
X6432Y20718D01*
X6432Y20739D01*
X6426Y20763D01*
X6415Y20789D01*
X6398Y20818D01*
X6376Y20850D01*
X6348Y20885D01*
X6275Y20963D01*
X6415Y21103D01*
X6455Y21063D01*
D02*
G37*
G36*
X3858Y21635D02*
X3864Y21618D01*
X3874Y21603D01*
X3888Y21591D01*
X3905Y21580D01*
X3927Y21571D01*
X3953Y21564D01*
X3983Y21559D01*
X4016Y21556D01*
X4054Y21555D01*
Y21358D01*
X4016Y21357D01*
X3983Y21354D01*
X3953Y21349D01*
X3927Y21343D01*
X3905Y21334D01*
X3888Y21323D01*
X3874Y21310D01*
X3864Y21295D01*
X3858Y21279D01*
X3856Y21260D01*
Y21654D01*
X3858Y21635D01*
D02*
G37*
G36*
X3455Y20346D02*
X3447Y20343D01*
X3439Y20338D01*
X3433Y20331D01*
X3428Y20322D01*
X3423Y20311D01*
X3420Y20298D01*
X3417Y20283D01*
X3416Y20266D01*
X3415Y20247D01*
X3317D01*
X3316Y20266D01*
X3315Y20283D01*
X3313Y20298D01*
X3309Y20311D01*
X3305Y20322D01*
X3299Y20331D01*
X3293Y20338D01*
X3285Y20343D01*
X3277Y20346D01*
X3268Y20347D01*
X3465D01*
X3455Y20346D01*
D02*
G37*
G36*
X5031Y19922D02*
X5018Y19908D01*
X5006Y19894D01*
X4995Y19880D01*
X4986Y19866D01*
X4978Y19852D01*
X4972Y19838D01*
X4967Y19824D01*
X4963Y19810D01*
X4961Y19797D01*
X4960Y19783D01*
X4961Y20036D01*
X4962Y20028D01*
X4964Y20023D01*
X4968Y20020D01*
X4973Y20019D01*
X4979Y20020D01*
X4986Y20024D01*
X4996Y20030D01*
X5006Y20038D01*
X5018Y20048D01*
X5031Y20061D01*
Y19922D01*
D02*
G37*
G36*
X3416Y20116D02*
X3417Y20099D01*
X3419Y20084D01*
X3423Y20072D01*
X3427Y20061D01*
X3432Y20052D01*
X3438Y20045D01*
X3445Y20040D01*
X3453Y20037D01*
X3461Y20036D01*
X3268Y20035D01*
X3277Y20036D01*
X3285Y20039D01*
X3293Y20044D01*
X3299Y20051D01*
X3305Y20060D01*
X3309Y20071D01*
X3313Y20084D01*
X3315Y20099D01*
X3316Y20116D01*
X3317Y20135D01*
X3415D01*
X3416Y20116D01*
D02*
G37*
G36*
X7000Y20373D02*
X6998Y20367D01*
X6995Y20357D01*
X6993Y20344D01*
X6991Y20304D01*
X6988Y20178D01*
X6791D01*
X6790Y20216D01*
X6787Y20249D01*
X6782Y20279D01*
X6776Y20304D01*
X6767Y20326D01*
X6756Y20344D01*
X6743Y20357D01*
X6728Y20367D01*
X6712Y20373D01*
X6693Y20375D01*
X7003D01*
X7000Y20373D01*
D02*
G37*
G36*
X6990Y19096D02*
X6994Y19059D01*
X7001Y19022D01*
X7010Y18987D01*
X7023Y18953D01*
X7038Y18920D01*
X7056Y18888D01*
X7077Y18857D01*
X7101Y18828D01*
X7127Y18799D01*
X7029Y18619D01*
X7001Y18644D01*
X6973Y18664D01*
X6945Y18678D01*
X6918Y18686D01*
X6890Y18689D01*
X6862Y18686D01*
X6834Y18678D01*
X6806Y18664D01*
X6778Y18644D01*
X6751Y18619D01*
X6652Y18799D01*
X6679Y18828D01*
X6702Y18857D01*
X6723Y18888D01*
X6741Y18920D01*
X6757Y18953D01*
X6769Y18987D01*
X6779Y19022D01*
X6786Y19059D01*
X6790Y19096D01*
X6791Y19135D01*
X6988D01*
X6990Y19096D01*
D02*
G37*
G36*
X4245Y17415D02*
X4429D01*
X4429Y17397D01*
X4461D01*
X4455Y17395D01*
X4450Y17389D01*
X4445Y17379D01*
X4441Y17365D01*
X4437Y17348D01*
X4436Y17337D01*
X4439Y17323D01*
X4443Y17309D01*
X4448Y17296D01*
X4454Y17285D01*
X4461Y17275D01*
X4469Y17267D01*
X4430D01*
X4429Y17200D01*
X4232D01*
X4236Y17267D01*
X4193D01*
X4200Y17275D01*
X4207Y17285D01*
X4213Y17296D01*
X4218Y17309D01*
X4222Y17323D01*
X4226Y17338D01*
X4229Y17355D01*
X4231Y17374D01*
X4232Y17415D01*
X4244D01*
X4243Y17426D01*
X4237Y17443D01*
X4227Y17458D01*
X4213Y17470D01*
X4195Y17481D01*
X4173Y17490D01*
X4147Y17497D01*
X4118Y17502D01*
X4102Y17503D01*
X4087Y17502D01*
X4057Y17497D01*
X4031Y17490D01*
X4010Y17481D01*
X3992Y17470D01*
X3978Y17458D01*
X3968Y17443D01*
X3962Y17426D01*
X3960Y17407D01*
Y17801D01*
X3962Y17782D01*
X3968Y17766D01*
X3978Y17751D01*
X3992Y17738D01*
X4010Y17727D01*
X4031Y17719D01*
X4057Y17712D01*
X4087Y17707D01*
X4102Y17705D01*
X4118Y17707D01*
X4147Y17712D01*
X4173Y17719D01*
X4195Y17727D01*
X4213Y17738D01*
X4227Y17751D01*
X4237Y17766D01*
X4243Y17782D01*
X4245Y17801D01*
Y17415D01*
D02*
G37*
G36*
X4745Y17407D02*
X4743Y17426D01*
X4737Y17443D01*
X4727Y17458D01*
X4713Y17470D01*
X4695Y17481D01*
X4673Y17490D01*
X4647Y17497D01*
X4618Y17502D01*
X4602Y17503D01*
X4587Y17502D01*
X4557Y17497D01*
X4531Y17490D01*
X4510Y17481D01*
X4492Y17470D01*
X4478Y17458D01*
X4468Y17443D01*
X4462Y17426D01*
X4460Y17407D01*
Y17801D01*
X4462Y17782D01*
X4468Y17766D01*
X4478Y17751D01*
X4492Y17738D01*
X4510Y17727D01*
X4531Y17719D01*
X4557Y17712D01*
X4587Y17707D01*
X4602Y17705D01*
X4618Y17707D01*
X4647Y17712D01*
X4673Y17719D01*
X4695Y17727D01*
X4713Y17738D01*
X4727Y17751D01*
X4737Y17766D01*
X4743Y17782D01*
X4745Y17801D01*
Y17407D01*
D02*
G37*
G36*
X11083Y17980D02*
X11228D01*
X11232Y17906D01*
X11278Y17883D01*
X11269Y17879D01*
X11260Y17873D01*
X11253Y17865D01*
X11246Y17855D01*
X11241Y17843D01*
X11237Y17830D01*
X11239Y17786D01*
X11230D01*
X11229Y17777D01*
X11228Y17756D01*
X11032Y17778D01*
X11032Y17786D01*
X11021D01*
X11023Y17788D01*
X11025Y17794D01*
X11026Y17804D01*
X11028Y17817D01*
X11031Y17881D01*
X11032Y17980D01*
X11035D01*
X11035Y18004D01*
X11083Y17980D01*
D02*
G37*
G36*
X11522Y17382D02*
X11520Y17401D01*
X11514Y17417D01*
X11504Y17432D01*
X11490Y17445D01*
X11473Y17456D01*
X11451Y17465D01*
X11425Y17471D01*
X11395Y17476D01*
X11380Y17478D01*
X11365Y17476D01*
X11335Y17471D01*
X11309Y17465D01*
X11287Y17456D01*
X11269Y17445D01*
X11256Y17432D01*
X11246Y17417D01*
X11240Y17401D01*
X11238Y17382D01*
Y17776D01*
X11240Y17757D01*
X11246Y17740D01*
X11256Y17725D01*
X11269Y17713D01*
X11287Y17702D01*
X11309Y17693D01*
X11335Y17686D01*
X11365Y17681D01*
X11380Y17680D01*
X11395Y17681D01*
X11425Y17686D01*
X11451Y17693D01*
X11473Y17702D01*
X11490Y17713D01*
X11504Y17725D01*
X11514Y17740D01*
X11520Y17757D01*
X11522Y17776D01*
Y17382D01*
D02*
G37*
G36*
X6762Y17452D02*
X6754Y17449D01*
X6747Y17444D01*
X6740Y17437D01*
X6735Y17428D01*
X6730Y17417D01*
X6727Y17404D01*
X6724Y17389D01*
X6723Y17372D01*
X6722Y17354D01*
X6624D01*
X6624Y17372D01*
X6622Y17389D01*
X6620Y17404D01*
X6616Y17417D01*
X6612Y17428D01*
X6606Y17437D01*
X6600Y17444D01*
X6593Y17449D01*
X6584Y17452D01*
X6575Y17453D01*
X6772D01*
X6762Y17452D01*
D02*
G37*
G36*
X9311Y17638D02*
X9303Y17635D01*
X9296Y17630D01*
X9289Y17623D01*
X9284Y17614D01*
X9279Y17604D01*
X9276Y17591D01*
X9274Y17576D01*
X9272Y17559D01*
X9272Y17541D01*
X9173D01*
X9173Y17559D01*
X9171Y17576D01*
X9169Y17591D01*
X9165Y17604D01*
X9161Y17614D01*
X9155Y17623D01*
X9149Y17630D01*
X9142Y17635D01*
X9133Y17638D01*
X9124Y17639D01*
X9321D01*
X9311Y17638D01*
D02*
G37*
G36*
X11022Y17382D02*
X11020Y17401D01*
X11014Y17417D01*
X11004Y17432D01*
X10990Y17445D01*
X10973Y17456D01*
X10951Y17465D01*
X10925Y17471D01*
X10895Y17476D01*
X10880Y17478D01*
X10865Y17476D01*
X10835Y17471D01*
X10809Y17465D01*
X10787Y17456D01*
X10769Y17445D01*
X10756Y17432D01*
X10746Y17417D01*
X10740Y17401D01*
X10738Y17382D01*
Y17776D01*
X10740Y17757D01*
X10746Y17740D01*
X10756Y17725D01*
X10769Y17713D01*
X10787Y17702D01*
X10809Y17693D01*
X10835Y17686D01*
X10865Y17681D01*
X10880Y17680D01*
X10895Y17681D01*
X10925Y17686D01*
X10951Y17693D01*
X10973Y17702D01*
X10990Y17713D01*
X11004Y17725D01*
X11014Y17740D01*
X11020Y17757D01*
X11022Y17776D01*
Y17382D01*
D02*
G37*
G36*
X12180Y17866D02*
X12181Y17849D01*
X12184Y17834D01*
X12187Y17821D01*
X12191Y17810D01*
X12197Y17801D01*
X12203Y17794D01*
X12211Y17789D01*
X12219Y17786D01*
X12228Y17785D01*
X12032D01*
X12041Y17786D01*
X12049Y17789D01*
X12057Y17794D01*
X12063Y17801D01*
X12068Y17810D01*
X12073Y17821D01*
X12076Y17834D01*
X12079Y17849D01*
X12080Y17866D01*
X12081Y17885D01*
X12179D01*
X12180Y17866D01*
D02*
G37*
G36*
X9567Y18542D02*
X9526Y18500D01*
X9462Y18425D01*
X9439Y18392D01*
X9422Y18363D01*
X9411Y18337D01*
X9406Y18314D01*
X9407Y18294D01*
X9414Y18277D01*
X9427Y18264D01*
X9110Y18502D01*
X9127Y18492D01*
X9147Y18488D01*
X9168Y18489D01*
X9193Y18496D01*
X9219Y18507D01*
X9248Y18524D01*
X9280Y18545D01*
X9314Y18572D01*
X9350Y18605D01*
X9389Y18642D01*
X9567Y18542D01*
D02*
G37*
G36*
X11063Y18750D02*
X11066Y18742D01*
X11071Y18735D01*
X11078Y18728D01*
X11086Y18723D01*
X11097Y18719D01*
X11110Y18715D01*
X11125Y18713D01*
X11142Y18711D01*
X11160Y18711D01*
Y18612D01*
X11142Y18612D01*
X11125Y18610D01*
X11110Y18608D01*
X11097Y18604D01*
X11086Y18600D01*
X11078Y18594D01*
X11071Y18588D01*
X11066Y18581D01*
X11063Y18572D01*
X11062Y18563D01*
Y18760D01*
X11063Y18750D01*
D02*
G37*
G36*
X11379Y18563D02*
X11378Y18572D01*
X11375Y18581D01*
X11370Y18588D01*
X11363Y18594D01*
X11355Y18600D01*
X11344Y18604D01*
X11331Y18608D01*
X11316Y18610D01*
X11299Y18612D01*
X11281Y18612D01*
Y18711D01*
X11299Y18711D01*
X11316Y18713D01*
X11331Y18715D01*
X11344Y18719D01*
X11355Y18723D01*
X11363Y18728D01*
X11370Y18735D01*
X11375Y18742D01*
X11378Y18750D01*
X11379Y18760D01*
Y18563D01*
D02*
G37*
G36*
X10198Y18485D02*
X10196Y18500D01*
X10190Y18513D01*
X10180Y18525D01*
X10167Y18535D01*
X10149Y18544D01*
X10127Y18551D01*
X10102Y18556D01*
X10072Y18560D01*
X10039Y18562D01*
X10001Y18563D01*
Y18760D01*
X10039Y18761D01*
X10102Y18767D01*
X10127Y18772D01*
X10149Y18779D01*
X10167Y18788D01*
X10180Y18798D01*
X10190Y18809D01*
X10196Y18823D01*
X10198Y18837D01*
Y18485D01*
D02*
G37*
G36*
X10739Y17786D02*
X10521D01*
X10523Y17788D01*
X10525Y17794D01*
X10526Y17804D01*
X10528Y17818D01*
X10531Y17883D01*
X10532Y17983D01*
X10728D01*
X10739Y17786D01*
D02*
G37*
G36*
X5010Y18396D02*
X5013Y18388D01*
X5018Y18380D01*
X5025Y18374D01*
X5034Y18369D01*
X5045Y18364D01*
X5058Y18361D01*
X5073Y18358D01*
X5090Y18357D01*
X5109Y18356D01*
Y18258D01*
X5090Y18257D01*
X5073Y18256D01*
X5058Y18253D01*
X5045Y18250D01*
X5034Y18246D01*
X5025Y18240D01*
X5018Y18234D01*
X5013Y18226D01*
X5010Y18218D01*
X5009Y18209D01*
Y18246D01*
X5009Y18246D01*
X5004Y18249D01*
X4997Y18251D01*
X4988Y18253D01*
X4978Y18255D01*
X4950Y18257D01*
X4915Y18258D01*
Y18356D01*
X4933Y18356D01*
X4978Y18359D01*
X4988Y18361D01*
X4997Y18363D01*
X5004Y18365D01*
X5009Y18368D01*
X5009Y18368D01*
Y18406D01*
X5010Y18396D01*
D02*
G37*
G36*
X6416Y18694D02*
X6421Y18687D01*
X6428Y18681D01*
X6437Y18676D01*
X6450Y18672D01*
X6465Y18668D01*
X6484Y18665D01*
X6505Y18663D01*
X6555Y18661D01*
Y18465D01*
X6528Y18464D01*
X6484Y18461D01*
X6465Y18458D01*
X6450Y18454D01*
X6437Y18450D01*
X6428Y18445D01*
X6421Y18439D01*
X6416Y18432D01*
X6415Y18424D01*
Y18702D01*
X6416Y18694D01*
D02*
G37*
G36*
X18127Y12146D02*
X18110Y12162D01*
X18076Y12191D01*
X18059Y12202D01*
X18042Y12212D01*
X18025Y12220D01*
X18008Y12226D01*
X17992Y12231D01*
X17975Y12233D01*
X17959Y12234D01*
Y12333D01*
X17975Y12334D01*
X17992Y12336D01*
X18008Y12341D01*
X18025Y12347D01*
X18042Y12355D01*
X18059Y12365D01*
X18076Y12376D01*
X18093Y12389D01*
X18110Y12404D01*
X18127Y12421D01*
Y12146D01*
D02*
G37*
G36*
X12274Y12668D02*
X12312Y12352D01*
X12303Y12164D01*
X12106Y12361D01*
X12105Y12400D01*
X12101Y12437D01*
X12094Y12474D01*
X12084Y12509D01*
X12071Y12543D01*
X12056Y12576D01*
X12038Y12608D01*
X12017Y12639D01*
X11994Y12668D01*
X11967Y12697D01*
X12274Y12668D01*
D02*
G37*
G36*
X13231Y12224D02*
X13229Y12243D01*
X13223Y12260D01*
X13213Y12275D01*
X13199Y12287D01*
X13181Y12298D01*
X13159Y12307D01*
X13134Y12314D01*
X13104Y12319D01*
X13070Y12322D01*
X13033Y12323D01*
Y12520D01*
X13070Y12521D01*
X13104Y12524D01*
X13134Y12529D01*
X13159Y12535D01*
X13181Y12544D01*
X13199Y12555D01*
X13213Y12568D01*
X13223Y12583D01*
X13229Y12599D01*
X13231Y12618D01*
Y12224D01*
D02*
G37*
G36*
X8017Y12240D02*
X8021Y12232D01*
X8029Y12224D01*
X8038Y12218D01*
X8051Y12213D01*
X8067Y12209D01*
X8085Y12205D01*
X8106Y12203D01*
X8130Y12201D01*
X8157Y12201D01*
Y12102D01*
X8130Y12102D01*
X8085Y12098D01*
X8067Y12095D01*
X8051Y12090D01*
X8038Y12085D01*
X8029Y12079D01*
X8021Y12071D01*
X8017Y12063D01*
X8016Y12054D01*
Y12249D01*
X8017Y12240D01*
D02*
G37*
G36*
X17510Y12019D02*
X17524Y12009D01*
X17539Y12001D01*
X17555Y11993D01*
X17572Y11987D01*
X17591Y11982D01*
X17611Y11979D01*
X17633Y11976D01*
X17656Y11975D01*
X17680Y11974D01*
X17486Y11778D01*
X17486Y11802D01*
X17481Y11847D01*
X17477Y11867D01*
X17472Y11886D01*
X17466Y11903D01*
X17458Y11919D01*
X17450Y11934D01*
X17440Y11947D01*
X17429Y11960D01*
X17498Y12030D01*
X17510Y12019D01*
D02*
G37*
G36*
X13446Y11949D02*
X13449Y11916D01*
X13454Y11886D01*
X13461Y11860D01*
X13469Y11838D01*
X13480Y11821D01*
X13493Y11807D01*
X13508Y11797D01*
X13525Y11791D01*
X13543Y11789D01*
X13150D01*
X13168Y11791D01*
X13185Y11797D01*
X13200Y11807D01*
X13213Y11821D01*
X13223Y11838D01*
X13232Y11860D01*
X13239Y11886D01*
X13244Y11916D01*
X13247Y11949D01*
X13248Y11987D01*
X13445D01*
X13446Y11949D01*
D02*
G37*
G36*
X13460Y12214D02*
X13457Y12208D01*
X13454Y12198D01*
X13452Y12184D01*
X13449Y12167D01*
X13446Y12090D01*
X13445Y12019D01*
X13248D01*
X13248Y12056D01*
X13239Y12198D01*
X13236Y12208D01*
X13233Y12214D01*
X13230Y12216D01*
X13463D01*
X13460Y12214D01*
D02*
G37*
G36*
X4489Y12507D02*
X4523Y12478D01*
X4540Y12467D01*
X4557Y12457D01*
X4573Y12449D01*
X4590Y12443D01*
X4607Y12439D01*
X4623Y12436D01*
X4639Y12435D01*
Y12337D01*
X4623Y12336D01*
X4607Y12333D01*
X4590Y12329D01*
X4573Y12322D01*
X4557Y12314D01*
X4540Y12305D01*
X4523Y12293D01*
X4506Y12280D01*
X4489Y12265D01*
X4471Y12248D01*
Y12524D01*
X4489Y12507D01*
D02*
G37*
G36*
X17577Y12745D02*
X17579Y12731D01*
X17583Y12717D01*
X17588Y12703D01*
X17594Y12689D01*
X17602Y12675D01*
X17611Y12661D01*
X17622Y12647D01*
X17634Y12633D01*
X17647Y12619D01*
Y12480D01*
X17637Y12490D01*
X17604Y12518D01*
X17598Y12523D01*
X17592Y12526D01*
X17586Y12529D01*
X17582Y12530D01*
X17578Y12531D01*
X17576Y12759D01*
X17577Y12745D01*
D02*
G37*
G36*
X16829Y12745D02*
X16831Y12732D01*
X16835Y12718D01*
X16840Y12704D01*
X16846Y12690D01*
X16854Y12676D01*
X16863Y12663D01*
X16874Y12649D01*
X16886Y12635D01*
X16900Y12621D01*
Y12482D01*
X16890Y12492D01*
X16865Y12513D01*
X16858Y12519D01*
X16851Y12523D01*
X16845Y12526D01*
X16839Y12529D01*
X16834Y12530D01*
X16830Y12531D01*
X16828Y12759D01*
X16829Y12745D01*
D02*
G37*
G36*
X2066Y12429D02*
X2046Y12409D01*
X2013Y12370D01*
X1999Y12352D01*
X1988Y12334D01*
X1978Y12317D01*
X1971Y12300D01*
X1966Y12285D01*
X1963Y12270D01*
X1962Y12255D01*
Y12534D01*
X1962Y12521D01*
X1964Y12512D01*
X1968Y12505D01*
X1973Y12500D01*
X1979Y12499D01*
X1987Y12500D01*
X1996Y12505D01*
X2006Y12512D01*
X2018Y12521D01*
X2031Y12534D01*
X2066Y12429D01*
D02*
G37*
G36*
X4190Y12248D02*
X4173Y12265D01*
X4139Y12293D01*
X4122Y12305D01*
X4105Y12314D01*
X4088Y12322D01*
X4071Y12329D01*
X4059Y12332D01*
X4046Y12329D01*
X4035Y12324D01*
X4027Y12319D01*
X4020Y12312D01*
X4015Y12305D01*
X4012Y12297D01*
X4011Y12287D01*
Y12484D01*
X4012Y12475D01*
X4015Y12467D01*
X4020Y12459D01*
X4027Y12453D01*
X4035Y12447D01*
X4046Y12443D01*
X4059Y12440D01*
X4071Y12443D01*
X4088Y12449D01*
X4105Y12457D01*
X4122Y12467D01*
X4139Y12478D01*
X4156Y12492D01*
X4173Y12507D01*
X4190Y12524D01*
Y12248D01*
D02*
G37*
G36*
X5566Y12326D02*
X5580Y12313D01*
X5594Y12303D01*
X5608Y12293D01*
X5622Y12286D01*
X5636Y12279D01*
X5650Y12274D01*
X5663Y12271D01*
X5677Y12269D01*
X5691Y12268D01*
X5415Y12266D01*
X5427Y12267D01*
X5437Y12269D01*
X5444Y12273D01*
X5448Y12278D01*
X5449Y12284D01*
X5447Y12293D01*
X5443Y12302D01*
X5436Y12313D01*
X5425Y12325D01*
X5412Y12339D01*
X5551D01*
X5566Y12326D01*
D02*
G37*
G36*
X552Y12523D02*
X586Y12494D01*
X603Y12483D01*
X620Y12473D01*
X636Y12465D01*
X653Y12459D01*
X666Y12455D01*
X666Y12455D01*
X679Y12459D01*
X690Y12463D01*
X699Y12469D01*
X706Y12475D01*
X711Y12482D01*
X714Y12491D01*
X715Y12500D01*
Y12303D01*
X714Y12313D01*
X711Y12321D01*
X706Y12328D01*
X699Y12335D01*
X690Y12340D01*
X679Y12344D01*
X666Y12348D01*
X666Y12348D01*
X653Y12344D01*
X636Y12338D01*
X620Y12330D01*
X603Y12320D01*
X586Y12309D01*
X569Y12296D01*
X552Y12281D01*
X534Y12264D01*
Y12539D01*
X552Y12523D01*
D02*
G37*
G36*
X8659Y12402D02*
X8635Y12401D01*
X8591Y12397D01*
X8571Y12393D01*
X8552Y12388D01*
X8535Y12382D01*
X8518Y12375D01*
X8504Y12366D01*
X8490Y12356D01*
X8478Y12345D01*
X8408Y12415D01*
X8419Y12427D01*
X8429Y12441D01*
X8438Y12455D01*
X8445Y12472D01*
X8451Y12489D01*
X8456Y12508D01*
X8460Y12528D01*
X8463Y12550D01*
X8464Y12572D01*
X8465Y12596D01*
X8659Y12402D01*
D02*
G37*
G36*
X16970Y11625D02*
X16966Y11625D01*
X16961Y11623D01*
X16955Y11621D01*
X16949Y11617D01*
X16943Y11613D01*
X16928Y11600D01*
X16910Y11584D01*
X16900Y11575D01*
Y11714D01*
X16913Y11728D01*
X16925Y11742D01*
X16936Y11756D01*
X16945Y11770D01*
X16953Y11784D01*
X16959Y11798D01*
X16964Y11812D01*
X16968Y11825D01*
X16970Y11839D01*
X16971Y11853D01*
X16970Y11625D01*
D02*
G37*
G36*
X15426Y10427D02*
X15425Y10437D01*
X15422Y10445D01*
X15417Y10452D01*
X15410Y10459D01*
X15401Y10464D01*
X15390Y10469D01*
X15377Y10472D01*
X15362Y10474D01*
X15345Y10476D01*
X15326Y10476D01*
Y10575D01*
X15345Y10575D01*
X15362Y10577D01*
X15377Y10579D01*
X15390Y10583D01*
X15401Y10587D01*
X15410Y10593D01*
X15417Y10599D01*
X15422Y10606D01*
X15425Y10615D01*
X15426Y10624D01*
Y10427D01*
D02*
G37*
G36*
X15642Y10615D02*
X15645Y10606D01*
X15650Y10599D01*
X15657Y10593D01*
X15666Y10587D01*
X15677Y10583D01*
X15690Y10579D01*
X15705Y10577D01*
X15722Y10575D01*
X15741Y10575D01*
Y10476D01*
X15722Y10476D01*
X15705Y10474D01*
X15690Y10472D01*
X15677Y10469D01*
X15666Y10464D01*
X15657Y10459D01*
X15650Y10452D01*
X15645Y10445D01*
X15642Y10437D01*
X15641Y10427D01*
Y10624D01*
X15642Y10615D01*
D02*
G37*
G36*
X15926Y10427D02*
X15925Y10437D01*
X15922Y10445D01*
X15917Y10452D01*
X15910Y10459D01*
X15901Y10464D01*
X15890Y10469D01*
X15877Y10472D01*
X15862Y10474D01*
X15845Y10476D01*
X15826Y10476D01*
Y10575D01*
X15845Y10575D01*
X15862Y10577D01*
X15877Y10579D01*
X15890Y10583D01*
X15901Y10587D01*
X15910Y10593D01*
X15917Y10599D01*
X15922Y10606D01*
X15925Y10615D01*
X15926Y10624D01*
Y10427D01*
D02*
G37*
G36*
X15142Y10615D02*
X15145Y10606D01*
X15150Y10599D01*
X15157Y10593D01*
X15166Y10587D01*
X15177Y10583D01*
X15190Y10579D01*
X15205Y10577D01*
X15222Y10575D01*
X15241Y10575D01*
Y10476D01*
X15222Y10476D01*
X15205Y10474D01*
X15190Y10472D01*
X15177Y10469D01*
X15166Y10464D01*
X15157Y10459D01*
X15150Y10452D01*
X15145Y10445D01*
X15142Y10437D01*
X15141Y10427D01*
Y10624D01*
X15142Y10615D01*
D02*
G37*
G36*
X14426Y10427D02*
X14425Y10437D01*
X14422Y10445D01*
X14417Y10452D01*
X14410Y10459D01*
X14401Y10464D01*
X14390Y10469D01*
X14377Y10472D01*
X14362Y10474D01*
X14345Y10476D01*
X14326Y10476D01*
Y10575D01*
X14345Y10575D01*
X14362Y10577D01*
X14377Y10579D01*
X14390Y10583D01*
X14401Y10587D01*
X14410Y10593D01*
X14417Y10599D01*
X14422Y10606D01*
X14425Y10615D01*
X14426Y10624D01*
Y10427D01*
D02*
G37*
G36*
X14642Y10615D02*
X14645Y10606D01*
X14650Y10599D01*
X14657Y10593D01*
X14666Y10587D01*
X14677Y10583D01*
X14690Y10579D01*
X14705Y10577D01*
X14722Y10575D01*
X14741Y10575D01*
Y10476D01*
X14722Y10476D01*
X14705Y10474D01*
X14690Y10472D01*
X14677Y10469D01*
X14666Y10464D01*
X14657Y10459D01*
X14650Y10452D01*
X14645Y10445D01*
X14642Y10437D01*
X14641Y10427D01*
Y10624D01*
X14642Y10615D01*
D02*
G37*
G36*
X14926Y10427D02*
X14925Y10437D01*
X14922Y10445D01*
X14917Y10452D01*
X14910Y10459D01*
X14901Y10464D01*
X14890Y10469D01*
X14877Y10472D01*
X14862Y10474D01*
X14845Y10476D01*
X14826Y10476D01*
Y10575D01*
X14845Y10575D01*
X14862Y10577D01*
X14877Y10579D01*
X14890Y10583D01*
X14901Y10587D01*
X14910Y10593D01*
X14917Y10599D01*
X14922Y10606D01*
X14925Y10615D01*
X14926Y10624D01*
Y10427D01*
D02*
G37*
G36*
X16143Y10686D02*
X16146Y10680D01*
X16151Y10674D01*
X16158Y10669D01*
X16167Y10665D01*
X16178Y10662D01*
X16191Y10659D01*
X16206Y10657D01*
X16222Y10656D01*
X16241Y10656D01*
Y10557D01*
X16222Y10557D01*
X16205Y10555D01*
X16190Y10553D01*
X16177Y10549D01*
X16166Y10545D01*
X16157Y10539D01*
X16150Y10533D01*
X16145Y10526D01*
X16142Y10517D01*
X16141Y10508D01*
X16143Y10694D01*
X16143Y10686D01*
D02*
G37*
G36*
X16743Y11417D02*
X16744Y11400D01*
X16747Y11385D01*
X16750Y11372D01*
X16754Y11361D01*
X16760Y11352D01*
X16766Y11345D01*
X16774Y11340D01*
X16782Y11337D01*
X16791Y11336D01*
X16594D01*
X16604Y11337D01*
X16612Y11340D01*
X16620Y11345D01*
X16626Y11352D01*
X16631Y11361D01*
X16636Y11372D01*
X16639Y11385D01*
X16642Y11400D01*
X16643Y11417D01*
X16644Y11436D01*
X16742D01*
X16743Y11417D01*
D02*
G37*
G36*
X5967Y11753D02*
X5973Y11752D01*
X5995Y11751D01*
X6140Y11750D01*
Y11553D01*
X5964Y11549D01*
Y11754D01*
X5967Y11753D01*
D02*
G37*
G36*
X8017Y11740D02*
X8021Y11732D01*
X8029Y11724D01*
X8038Y11718D01*
X8051Y11713D01*
X8067Y11709D01*
X8085Y11705D01*
X8106Y11703D01*
X8130Y11701D01*
X8157Y11701D01*
Y11602D01*
X8130Y11602D01*
X8085Y11598D01*
X8067Y11595D01*
X8051Y11590D01*
X8038Y11585D01*
X8029Y11579D01*
X8021Y11571D01*
X8017Y11563D01*
X8016Y11554D01*
Y11749D01*
X8017Y11740D01*
D02*
G37*
G36*
X6706Y10932D02*
X6697Y10921D01*
X6691Y10910D01*
X6689Y10901D01*
X6690Y10893D01*
X6695Y10887D01*
X6703Y10882D01*
X6714Y10879D01*
X6729Y10877D01*
X6747Y10876D01*
X6529Y10778D01*
X6411Y10876D01*
X6430Y10877D01*
X6449Y10879D01*
X6467Y10882D01*
X6485Y10887D01*
X6502Y10893D01*
X6518Y10901D01*
X6534Y10910D01*
X6550Y10921D01*
X6564Y10932D01*
X6579Y10946D01*
X6718D01*
X6706Y10932D01*
D02*
G37*
G36*
X16518Y10508D02*
X16517Y10517D01*
X16514Y10526D01*
X16509Y10533D01*
X16502Y10539D01*
X16493Y10545D01*
X16482Y10549D01*
X16469Y10553D01*
X16454Y10555D01*
X16437Y10557D01*
X16419Y10557D01*
Y10656D01*
X16437Y10656D01*
X16454Y10657D01*
X16469Y10660D01*
X16482Y10663D01*
X16493Y10668D01*
X16502Y10673D01*
X16509Y10680D01*
X16514Y10687D01*
X16517Y10695D01*
X16518Y10705D01*
Y10508D01*
D02*
G37*
G36*
X4390Y10650D02*
X4390Y10634D01*
X4386Y10573D01*
X4385Y10574D01*
X4276D01*
X4279Y10579D01*
X4282Y10586D01*
X4284Y10594D01*
X4286Y10604D01*
X4289Y10627D01*
X4291Y10657D01*
X4291Y10693D01*
X4390Y10650D01*
D02*
G37*
G36*
X1225Y11114D02*
X1283Y11063D01*
X1310Y11043D01*
X1337Y11026D01*
X1362Y11011D01*
X1386Y11000D01*
X1409Y10993D01*
X1431Y10988D01*
X1453Y10986D01*
Y10888D01*
X1431Y10886D01*
X1409Y10882D01*
X1386Y10874D01*
X1362Y10863D01*
X1337Y10848D01*
X1310Y10831D01*
X1283Y10811D01*
X1225Y10760D01*
X1195Y10730D01*
Y11144D01*
X1225Y11114D01*
D02*
G37*
G36*
X15502Y13879D02*
X15494Y13876D01*
X15487Y13871D01*
X15480Y13864D01*
X15475Y13855D01*
X15470Y13844D01*
X15467Y13832D01*
X15465Y13817D01*
X15463Y13800D01*
X15463Y13781D01*
X15364D01*
X15364Y13800D01*
X15362Y13817D01*
X15360Y13832D01*
X15356Y13844D01*
X15352Y13855D01*
X15346Y13864D01*
X15340Y13871D01*
X15333Y13876D01*
X15324Y13879D01*
X15315Y13880D01*
X15512D01*
X15502Y13879D01*
D02*
G37*
G36*
X7637Y14083D02*
X7639Y14069D01*
X7643Y14055D01*
X7648Y14041D01*
X7654Y14028D01*
X7662Y14014D01*
X7671Y14000D01*
X7681Y13986D01*
X7693Y13972D01*
X7706Y13958D01*
Y13819D01*
X7693Y13831D01*
X7671Y13850D01*
X7662Y13855D01*
X7654Y13859D01*
X7648Y13860D01*
X7643Y13858D01*
X7639Y13854D01*
X7637Y13848D01*
X7637Y13840D01*
Y14097D01*
X7637Y14083D01*
D02*
G37*
G36*
X16297Y14095D02*
X16302Y14087D01*
X16309Y14079D01*
X16319Y14073D01*
X16330Y14067D01*
X16344Y14063D01*
X16359Y14060D01*
X16377Y14057D01*
X16379Y14057D01*
X16446Y14061D01*
X16468Y14065D01*
X16485Y14069D01*
X16499Y14074D01*
X16509Y14080D01*
X16515Y14086D01*
X16517Y14093D01*
Y13820D01*
X16515Y13827D01*
X16509Y13834D01*
X16499Y13840D01*
X16485Y13845D01*
X16468Y13849D01*
X16446Y13852D01*
X16420Y13855D01*
X16358Y13858D01*
X16320Y13858D01*
Y13861D01*
X16164Y13868D01*
X16293Y14104D01*
X16297Y14095D01*
D02*
G37*
G36*
X6536Y13839D02*
X6520Y13833D01*
X6505Y13823D01*
X6492Y13809D01*
X6481Y13791D01*
X6472Y13770D01*
X6466Y13744D01*
X6461Y13714D01*
X6458Y13681D01*
X6457Y13643D01*
X6260D01*
X6259Y13681D01*
X6256Y13714D01*
X6251Y13744D01*
X6244Y13770D01*
X6235Y13791D01*
X6224Y13809D01*
X6212Y13823D01*
X6197Y13833D01*
X6180Y13839D01*
X6161Y13841D01*
X6555D01*
X6536Y13839D01*
D02*
G37*
G36*
X13159Y13444D02*
X13146Y13430D01*
X13134Y13416D01*
X13123Y13402D01*
X13114Y13388D01*
X13106Y13374D01*
X13100Y13360D01*
X13095Y13346D01*
X13091Y13332D01*
X13089Y13318D01*
X13088Y13304D01*
X13089Y13532D01*
X13090Y13529D01*
X13092Y13528D01*
X13096Y13529D01*
X13100Y13531D01*
X13107Y13535D01*
X13114Y13541D01*
X13134Y13559D01*
X13159Y13583D01*
Y13444D01*
D02*
G37*
G36*
X1924Y13665D02*
X1915Y13653D01*
X1907Y13643D01*
X1903Y13633D01*
X1902Y13626D01*
X1903Y13619D01*
X1907Y13614D01*
X1915Y13611D01*
X1924Y13609D01*
X1937Y13608D01*
X1659D01*
X1673Y13609D01*
X1686Y13611D01*
X1700Y13614D01*
X1714Y13619D01*
X1728Y13626D01*
X1742Y13633D01*
X1756Y13643D01*
X1770Y13653D01*
X1784Y13665D01*
X1798Y13679D01*
X1937D01*
X1924Y13665D01*
D02*
G37*
G36*
X15463Y13720D02*
X15465Y13703D01*
X15467Y13688D01*
X15470Y13675D01*
X15475Y13664D01*
X15480Y13655D01*
X15487Y13648D01*
X15494Y13643D01*
X15502Y13640D01*
X15512Y13639D01*
X15315D01*
X15324Y13640D01*
X15333Y13643D01*
X15340Y13648D01*
X15346Y13655D01*
X15352Y13664D01*
X15356Y13675D01*
X15360Y13688D01*
X15362Y13703D01*
X15364Y13720D01*
X15364Y13739D01*
X15463D01*
X15463Y13720D01*
D02*
G37*
G36*
X5985Y14255D02*
X6019Y14226D01*
X6036Y14215D01*
X6053Y14205D01*
X6070Y14197D01*
X6086Y14191D01*
X6097Y14188D01*
X6108Y14191D01*
X6119Y14195D01*
X6128Y14201D01*
X6135Y14207D01*
X6140Y14215D01*
X6143Y14223D01*
X6144Y14232D01*
Y14035D01*
X6143Y14045D01*
X6140Y14053D01*
X6135Y14061D01*
X6128Y14067D01*
X6119Y14072D01*
X6108Y14077D01*
X6097Y14080D01*
X6086Y14077D01*
X6070Y14070D01*
X6053Y14062D01*
X6036Y14053D01*
X6019Y14041D01*
X6002Y14028D01*
X5985Y14013D01*
X5967Y13996D01*
Y14272D01*
X5985Y14255D01*
D02*
G37*
G36*
X14686Y13879D02*
X14959D01*
X14952Y13877D01*
X14946Y13871D01*
X14940Y13861D01*
X14935Y13848D01*
X14931Y13830D01*
X14927Y13808D01*
X14925Y13783D01*
X14924Y13766D01*
X14927Y13711D01*
X14931Y13690D01*
X14935Y13672D01*
X14940Y13658D01*
X14946Y13648D01*
X14952Y13642D01*
X14959Y13641D01*
X14686D01*
X14693Y13642D01*
X14700Y13648D01*
X14706Y13658D01*
X14711Y13672D01*
X14715Y13690D01*
X14718Y13711D01*
X14721Y13737D01*
X14722Y13754D01*
X14718Y13808D01*
X14715Y13830D01*
X14711Y13848D01*
X14706Y13861D01*
X14700Y13871D01*
X14693Y13877D01*
X14686Y13879D01*
X14684Y13894D01*
X14678Y13907D01*
X14669Y13919D01*
X14655Y13929D01*
X14637Y13937D01*
X14615Y13944D01*
X14590Y13950D01*
X14562Y13953D01*
X14560Y13953D01*
X14543Y13950D01*
X14528Y13947D01*
X14513Y13943D01*
X14501Y13937D01*
X14490Y13931D01*
X14480Y13925D01*
X14471Y13917D01*
X14471Y14193D01*
X14480Y14185D01*
X14490Y14179D01*
X14501Y14173D01*
X14513Y14168D01*
X14528Y14163D01*
X14543Y14160D01*
X14558Y14157D01*
X14590Y14161D01*
X14615Y14166D01*
X14637Y14173D01*
X14655Y14181D01*
X14669Y14192D01*
X14678Y14203D01*
X14684Y14216D01*
X14686Y14231D01*
Y13879D01*
D02*
G37*
G36*
X7141Y14524D02*
X7146Y14520D01*
X7151Y14517D01*
X7158Y14514D01*
X7164Y14512D01*
X7171Y14510D01*
X7179Y14509D01*
X7188Y14508D01*
X7196Y14507D01*
X7206Y14507D01*
X7207Y14249D01*
X7206Y14263D01*
X7204Y14277D01*
X7201Y14291D01*
X7196Y14305D01*
X7189Y14319D01*
X7181Y14332D01*
X7172Y14346D01*
X7162Y14360D01*
X7150Y14374D01*
X7136Y14389D01*
Y14528D01*
X7141Y14524D01*
D02*
G37*
G36*
X4190Y14232D02*
X4173Y14249D01*
X4139Y14277D01*
X4122Y14289D01*
X4105Y14299D01*
X4088Y14307D01*
X4071Y14313D01*
X4059Y14316D01*
X4046Y14313D01*
X4035Y14309D01*
X4027Y14303D01*
X4020Y14297D01*
X4015Y14289D01*
X4012Y14281D01*
X4011Y14272D01*
Y14468D01*
X4012Y14459D01*
X4015Y14451D01*
X4020Y14443D01*
X4027Y14437D01*
X4035Y14432D01*
X4046Y14427D01*
X4059Y14424D01*
X4071Y14427D01*
X4088Y14433D01*
X4105Y14441D01*
X4122Y14451D01*
X4139Y14463D01*
X4156Y14476D01*
X4173Y14491D01*
X4190Y14508D01*
Y14232D01*
D02*
G37*
G36*
X9125Y14497D02*
X9120Y14478D01*
Y14458D01*
X9125Y14434D01*
X9137Y14407D01*
X9153Y14378D01*
X9176Y14346D01*
X9203Y14311D01*
X9276Y14233D01*
X9137Y14094D01*
X9096Y14133D01*
X9024Y14195D01*
X8992Y14217D01*
X8963Y14233D01*
X8936Y14245D01*
X8912Y14250D01*
X8892D01*
X8874Y14245D01*
X8858Y14233D01*
X9137Y14512D01*
X9125Y14497D01*
D02*
G37*
G36*
X15259Y14279D02*
X15298Y14246D01*
X15315Y14234D01*
X15330Y14226D01*
X15343Y14220D01*
X15354Y14218D01*
X15363Y14219D01*
X15371Y14223D01*
X15377Y14230D01*
X15278Y14053D01*
X15282Y14062D01*
X15283Y14072D01*
X15282Y14084D01*
X15278Y14096D01*
X15273Y14109D01*
X15264Y14124D01*
X15254Y14139D01*
X15241Y14156D01*
X15225Y14173D01*
X15207Y14192D01*
X15237Y14301D01*
X15259Y14279D01*
D02*
G37*
G36*
X17107Y13820D02*
X17106Y13827D01*
X17100Y13834D01*
X17090Y13840D01*
X17076Y13845D01*
X17058Y13849D01*
X17037Y13852D01*
X17011Y13855D01*
X16994Y13856D01*
X16940Y13852D01*
X16918Y13849D01*
X16900Y13845D01*
X16887Y13840D01*
X16877Y13834D01*
X16871Y13827D01*
X16869Y13820D01*
Y14093D01*
X16871Y14086D01*
X16877Y14080D01*
X16887Y14074D01*
X16900Y14069D01*
X16918Y14065D01*
X16940Y14061D01*
X16965Y14059D01*
X16982Y14058D01*
X17037Y14061D01*
X17058Y14065D01*
X17076Y14069D01*
X17090Y14074D01*
X17100Y14080D01*
X17106Y14086D01*
X17107Y14093D01*
Y13820D01*
D02*
G37*
G36*
X4452Y14212D02*
X4423Y14178D01*
X4412Y14161D01*
X4402Y14144D01*
X4394Y14127D01*
X4388Y14111D01*
X4383Y14094D01*
X4381Y14078D01*
X4380Y14061D01*
X4281D01*
X4281Y14078D01*
X4278Y14094D01*
X4274Y14111D01*
X4267Y14127D01*
X4259Y14144D01*
X4250Y14161D01*
X4238Y14178D01*
X4225Y14195D01*
X4210Y14212D01*
X4193Y14230D01*
X4469D01*
X4452Y14212D01*
D02*
G37*
G36*
X11419Y13357D02*
X11417Y13374D01*
X11411Y13389D01*
X11401Y13402D01*
X11387Y13413D01*
X11369Y13423D01*
X11348Y13431D01*
X11322Y13437D01*
X11293Y13441D01*
X11259Y13444D01*
X11222Y13445D01*
Y13642D01*
X11259Y13643D01*
X11293Y13646D01*
X11323Y13651D01*
X11348Y13657D01*
X11370Y13666D01*
X11388Y13677D01*
X11402Y13690D01*
X11412Y13705D01*
X11418Y13721D01*
X11420Y13740D01*
X11419Y13357D01*
D02*
G37*
G36*
X16762Y13021D02*
X16764Y13004D01*
X16766Y12989D01*
X16770Y12976D01*
X16774Y12965D01*
X16780Y12956D01*
X16786Y12949D01*
X16793Y12945D01*
X16802Y12942D01*
X16811Y12941D01*
X16614D01*
X16624Y12942D01*
X16632Y12945D01*
X16639Y12949D01*
X16646Y12956D01*
X16651Y12965D01*
X16656Y12976D01*
X16659Y12989D01*
X16661Y13004D01*
X16663Y13021D01*
X16663Y13040D01*
X16762D01*
X16762Y13021D01*
D02*
G37*
G36*
X14952Y13287D02*
X14946Y13281D01*
X14940Y13271D01*
X14935Y13257D01*
X14931Y13239D01*
X14927Y13218D01*
X14925Y13192D01*
X14922Y13129D01*
X14921Y13092D01*
X14749D01*
X14782Y12898D01*
X14775Y12891D01*
X14783Y12890D01*
X14799Y12892D01*
X14829Y12897D01*
X14854Y12904D01*
X14876Y12912D01*
X14894Y12923D01*
X14908Y12936D01*
X14918Y12951D01*
X14924Y12968D01*
X14926Y12986D01*
Y12593D01*
X14924Y12611D01*
X14918Y12628D01*
X14908Y12643D01*
X14894Y12656D01*
X14876Y12666D01*
X14854Y12675D01*
X14829Y12682D01*
X14799Y12687D01*
X14783Y12688D01*
X14768Y12687D01*
X14738Y12682D01*
X14713Y12675D01*
X14691Y12666D01*
X14673Y12656D01*
X14659Y12643D01*
X14649Y12628D01*
X14643Y12611D01*
X14641Y12593D01*
Y12706D01*
X14635Y12684D01*
X14633Y12661D01*
X14635Y12640D01*
X14641Y12620D01*
X14463Y12996D01*
X14473Y12980D01*
X14488Y12971D01*
X14506Y12969D01*
X14528Y12973D01*
X14554Y12984D01*
X14584Y13001D01*
X14618Y13025D01*
X14655Y13056D01*
X14724Y13120D01*
X14724Y13129D01*
X14718Y13218D01*
X14715Y13239D01*
X14711Y13257D01*
X14706Y13271D01*
X14700Y13281D01*
X14693Y13287D01*
X14686Y13289D01*
X14959D01*
X14952Y13287D01*
D02*
G37*
G36*
X16054Y13076D02*
X16055Y13060D01*
X16058Y13045D01*
X16061Y13032D01*
X16065Y13021D01*
X16071Y13012D01*
X16077Y13005D01*
X16085Y13000D01*
X16093Y12997D01*
X16102Y12996D01*
X15924Y12997D01*
X15930Y12998D01*
X15935Y13001D01*
X15940Y13006D01*
X15944Y13013D01*
X15947Y13021D01*
X15950Y13032D01*
X15952Y13045D01*
X15954Y13060D01*
X15955Y13095D01*
X16053D01*
X16054Y13076D01*
D02*
G37*
G36*
X15426Y12593D02*
X15424Y12611D01*
X15418Y12628D01*
X15408Y12643D01*
X15394Y12656D01*
X15376Y12666D01*
X15354Y12675D01*
X15329Y12682D01*
X15299Y12687D01*
X15283Y12688D01*
X15268Y12687D01*
X15238Y12682D01*
X15213Y12675D01*
X15191Y12666D01*
X15173Y12656D01*
X15159Y12643D01*
X15149Y12628D01*
X15143Y12611D01*
X15141Y12593D01*
Y12986D01*
X15143Y12968D01*
X15149Y12951D01*
X15159Y12936D01*
X15173Y12923D01*
X15191Y12912D01*
X15213Y12904D01*
X15238Y12897D01*
X15268Y12892D01*
X15283Y12890D01*
X15299Y12892D01*
X15329Y12897D01*
X15354Y12904D01*
X15376Y12912D01*
X15394Y12923D01*
X15408Y12936D01*
X15418Y12951D01*
X15424Y12968D01*
X15426Y12986D01*
Y12593D01*
D02*
G37*
G36*
X17320Y12947D02*
X17321Y12946D01*
X17323Y12945D01*
X17325Y12944D01*
X17328Y12943D01*
X17331Y12943D01*
X17333Y12942D01*
X17340Y12942D01*
X17344Y12942D01*
X17345Y12733D01*
X17344Y12743D01*
X17342Y12753D01*
X17338Y12764D01*
X17333Y12776D01*
X17327Y12788D01*
X17319Y12800D01*
X17310Y12813D01*
X17300Y12826D01*
X17274Y12853D01*
X17318Y12948D01*
X17320Y12947D01*
D02*
G37*
G36*
X5483Y12824D02*
X5512Y12800D01*
X5527Y12790D01*
X5541Y12782D01*
X5555Y12776D01*
X5568Y12772D01*
X5581Y12769D01*
X5594Y12768D01*
X5606Y12768D01*
X5358Y12740D01*
X5369Y12742D01*
X5377Y12746D01*
X5382Y12751D01*
X5384Y12758D01*
X5383Y12767D01*
X5379Y12777D01*
X5372Y12789D01*
X5361Y12803D01*
X5348Y12818D01*
X5332Y12835D01*
X5467Y12839D01*
X5483Y12824D01*
D02*
G37*
G36*
X8125Y12780D02*
X8107Y12761D01*
X8079Y12728D01*
X8070Y12713D01*
X8063Y12700D01*
X8058Y12689D01*
X8057Y12678D01*
X8058Y12669D01*
X8062Y12662D01*
X8069Y12655D01*
X7906Y12768D01*
X7915Y12764D01*
X7924Y12762D01*
X7935Y12763D01*
X7947Y12766D01*
X7960Y12771D01*
X7974Y12779D01*
X7990Y12790D01*
X8006Y12803D01*
X8024Y12818D01*
X8042Y12836D01*
X8125Y12780D01*
D02*
G37*
G36*
X13810Y13120D02*
X13801Y13117D01*
X13794Y13112D01*
X13787Y13106D01*
X13782Y13097D01*
X13778Y13086D01*
X13774Y13073D01*
X13772Y13058D01*
X13770Y13042D01*
X13770Y13023D01*
X13671D01*
X13671Y13042D01*
X13669Y13058D01*
X13667Y13073D01*
X13663Y13086D01*
X13659Y13097D01*
X13654Y13106D01*
X13647Y13112D01*
X13640Y13117D01*
X13631Y13120D01*
X13622Y13121D01*
X13819D01*
X13810Y13120D01*
D02*
G37*
G36*
X4013Y13564D02*
X4019Y13547D01*
X4029Y13532D01*
X4042Y13520D01*
X4060Y13509D01*
X4082Y13500D01*
X4107Y13493D01*
X4120Y13491D01*
X4134Y13494D01*
X4148Y13498D01*
X4161Y13504D01*
X4172Y13509D01*
X4182Y13516D01*
X4190Y13524D01*
Y13485D01*
X4208Y13484D01*
Y13287D01*
X4190Y13287D01*
Y13248D01*
X4182Y13256D01*
X4172Y13262D01*
X4161Y13268D01*
X4148Y13273D01*
X4134Y13278D01*
X4120Y13281D01*
X4107Y13279D01*
X4082Y13272D01*
X4060Y13263D01*
X4042Y13252D01*
X4029Y13239D01*
X4019Y13224D01*
X4013Y13208D01*
X4011Y13189D01*
Y13583D01*
X4013Y13564D01*
D02*
G37*
G36*
X5566Y13326D02*
X5580Y13313D01*
X5594Y13303D01*
X5608Y13293D01*
X5622Y13286D01*
X5636Y13279D01*
X5650Y13274D01*
X5663Y13271D01*
X5677Y13269D01*
X5691Y13268D01*
X5415Y13266D01*
X5427Y13267D01*
X5437Y13269D01*
X5444Y13273D01*
X5448Y13278D01*
X5449Y13284D01*
X5447Y13293D01*
X5443Y13302D01*
X5436Y13313D01*
X5425Y13325D01*
X5412Y13339D01*
X5551D01*
X5566Y13326D01*
D02*
G37*
G36*
X552Y13507D02*
X586Y13478D01*
X603Y13467D01*
X620Y13457D01*
X636Y13449D01*
X653Y13443D01*
X666Y13439D01*
X666Y13439D01*
X679Y13443D01*
X690Y13447D01*
X699Y13453D01*
X706Y13459D01*
X711Y13467D01*
X714Y13475D01*
X715Y13484D01*
Y13287D01*
X714Y13297D01*
X711Y13305D01*
X706Y13312D01*
X699Y13319D01*
X690Y13324D01*
X679Y13329D01*
X666Y13332D01*
X666Y13332D01*
X653Y13329D01*
X636Y13322D01*
X620Y13314D01*
X603Y13305D01*
X586Y13293D01*
X569Y13280D01*
X552Y13265D01*
X534Y13248D01*
Y13524D01*
X552Y13507D01*
D02*
G37*
G36*
X13837Y13416D02*
X13840Y13407D01*
X13845Y13400D01*
X13852Y13394D01*
X13861Y13388D01*
X13872Y13384D01*
X13885Y13380D01*
X13900Y13378D01*
X13917Y13376D01*
X13936Y13376D01*
Y13278D01*
X13917Y13277D01*
X13900Y13276D01*
X13885Y13273D01*
X13872Y13270D01*
X13861Y13265D01*
X13852Y13260D01*
X13845Y13253D01*
X13840Y13246D01*
X13837Y13238D01*
X13836Y13228D01*
Y13425D01*
X13837Y13416D01*
D02*
G37*
G36*
X16802Y13229D02*
X16793Y13226D01*
X16786Y13221D01*
X16780Y13214D01*
X16774Y13205D01*
X16770Y13194D01*
X16766Y13181D01*
X16764Y13167D01*
X16762Y13150D01*
X16762Y13131D01*
X16663D01*
X16663Y13150D01*
X16661Y13167D01*
X16659Y13181D01*
X16656Y13194D01*
X16651Y13205D01*
X16646Y13214D01*
X16639Y13221D01*
X16632Y13226D01*
X16624Y13229D01*
X16614Y13230D01*
X16811D01*
X16802Y13229D01*
D02*
G37*
G36*
X17373D02*
X17364Y13226D01*
X17357Y13221D01*
X17350Y13214D01*
X17345Y13205D01*
X17341Y13194D01*
X17337Y13181D01*
X17335Y13167D01*
X17333Y13150D01*
X17333Y13131D01*
X17234D01*
X17234Y13150D01*
X17232Y13167D01*
X17230Y13181D01*
X17226Y13194D01*
X17222Y13205D01*
X17217Y13214D01*
X17210Y13221D01*
X17203Y13226D01*
X17194Y13229D01*
X17185Y13230D01*
X17382D01*
X17373Y13229D01*
D02*
G37*
G36*
X16093Y13289D02*
X16085Y13286D01*
X16077Y13281D01*
X16071Y13274D01*
X16065Y13265D01*
X16061Y13254D01*
X16058Y13241D01*
X16055Y13226D01*
X16054Y13209D01*
X16053Y13190D01*
X15955D01*
X15954Y13209D01*
X15953Y13226D01*
X15950Y13241D01*
X15947Y13254D01*
X15942Y13265D01*
X15937Y13274D01*
X15931Y13281D01*
X15923Y13286D01*
X15915Y13289D01*
X15906Y13290D01*
X16102D01*
X16093Y13289D01*
D02*
G37*
D10*
X6299Y18563D02*
D03*
X6673Y17657D02*
D03*
X5925D02*
D03*
X17087Y11831D02*
D03*
X16713Y12736D02*
D03*
X17461D02*
D03*
X14843Y7382D02*
D03*
X14468Y8287D02*
D03*
X15217D02*
D03*
X13346Y12421D02*
D03*
X12972Y13327D02*
D03*
X13720D02*
D03*
X18780Y6594D02*
D03*
X18406Y7500D02*
D03*
X19154D02*
D03*
X8858Y16240D02*
D03*
X8484Y17146D02*
D03*
X9232D02*
D03*
D11*
X3366Y20571D02*
D03*
X4114D02*
D03*
X3740Y21457D02*
D03*
X11909Y14469D02*
D03*
X11161D02*
D03*
X11535Y13583D02*
D03*
D12*
X12106Y18661D02*
D03*
X11516D02*
D03*
X16004Y13465D02*
D03*
X15413D02*
D03*
X14823D02*
D03*
X14232D02*
D03*
X16516Y8819D02*
D03*
X17106D02*
D03*
X5217Y16535D02*
D03*
X4626D02*
D03*
X3445D02*
D03*
X4035D02*
D03*
X10335Y18661D02*
D03*
X10925D02*
D03*
X3051Y2756D02*
D03*
X3642D02*
D03*
X17697Y8228D02*
D03*
X17106D02*
D03*
X16516D02*
D03*
X15925D02*
D03*
X2953Y3346D02*
D03*
X3543D02*
D03*
X14823Y14055D02*
D03*
X15413D02*
D03*
D13*
X17283Y13957D02*
D03*
Y13366D02*
D03*
X16693Y13957D02*
D03*
Y13366D02*
D03*
Y11201D02*
D03*
Y10610D02*
D03*
X18386Y8720D02*
D03*
Y8130D02*
D03*
X18976Y8720D02*
D03*
Y8130D02*
D03*
X2362Y3248D02*
D03*
Y2657D02*
D03*
X5906Y16437D02*
D03*
Y17028D02*
D03*
X18386Y5965D02*
D03*
Y5374D02*
D03*
X9252Y18366D02*
D03*
Y17776D02*
D03*
X10394Y4035D02*
D03*
Y3445D02*
D03*
X11693Y4232D02*
D03*
Y3642D02*
D03*
X12480Y4232D02*
D03*
Y3642D02*
D03*
X13937Y4232D02*
D03*
Y3642D02*
D03*
X13228Y4232D02*
D03*
Y3642D02*
D03*
D14*
X3387Y14386D02*
D03*
X1338D02*
D03*
X3387Y13386D02*
D03*
X1338D02*
D03*
Y12386D02*
D03*
X3387D02*
D03*
D15*
X9665Y4921D02*
D03*
Y5118D02*
D03*
Y5315D02*
D03*
Y5512D02*
D03*
Y5709D02*
D03*
Y5906D02*
D03*
Y6102D02*
D03*
Y6299D02*
D03*
Y6496D02*
D03*
Y6693D02*
D03*
Y6890D02*
D03*
Y7087D02*
D03*
Y7283D02*
D03*
Y7480D02*
D03*
Y7677D02*
D03*
Y7874D02*
D03*
Y8071D02*
D03*
Y8268D02*
D03*
Y8465D02*
D03*
Y8661D02*
D03*
Y8858D02*
D03*
Y9055D02*
D03*
Y9252D02*
D03*
Y9449D02*
D03*
Y9646D02*
D03*
X3720D02*
D03*
Y9449D02*
D03*
Y9252D02*
D03*
Y9055D02*
D03*
Y8858D02*
D03*
Y8661D02*
D03*
Y8465D02*
D03*
Y8268D02*
D03*
Y8071D02*
D03*
Y7874D02*
D03*
Y7677D02*
D03*
Y7480D02*
D03*
Y7283D02*
D03*
Y7087D02*
D03*
Y6890D02*
D03*
Y6693D02*
D03*
Y6496D02*
D03*
Y6299D02*
D03*
Y6102D02*
D03*
Y5906D02*
D03*
Y5709D02*
D03*
Y5512D02*
D03*
Y5315D02*
D03*
Y5118D02*
D03*
Y4921D02*
D03*
D16*
X9055Y10256D02*
D03*
X8858D02*
D03*
X8661D02*
D03*
X8465D02*
D03*
X8268D02*
D03*
X8071D02*
D03*
X7874D02*
D03*
X7677D02*
D03*
X7480D02*
D03*
X7283D02*
D03*
X7087D02*
D03*
X6890D02*
D03*
X6693D02*
D03*
X6496D02*
D03*
X6299D02*
D03*
X6102D02*
D03*
X5906D02*
D03*
X5709D02*
D03*
X5512D02*
D03*
X5315D02*
D03*
X5118D02*
D03*
X4921D02*
D03*
X4724D02*
D03*
X4528D02*
D03*
X4331D02*
D03*
Y4311D02*
D03*
X4528D02*
D03*
X4724D02*
D03*
X4921D02*
D03*
X5118D02*
D03*
X5315D02*
D03*
X5512D02*
D03*
X5709D02*
D03*
X5906D02*
D03*
X6102D02*
D03*
X6299D02*
D03*
X6496D02*
D03*
X6693D02*
D03*
X6890D02*
D03*
X7087D02*
D03*
X7283D02*
D03*
X7480D02*
D03*
X7677D02*
D03*
X7874D02*
D03*
X8071D02*
D03*
X8268D02*
D03*
X8465D02*
D03*
X8661D02*
D03*
X8858D02*
D03*
X9055D02*
D03*
D17*
X11380Y16315D02*
D03*
X4102Y18868D02*
D03*
X15283Y11526D02*
D03*
X16848Y6374D02*
D03*
D18*
X12396Y16876D02*
D03*
X10364D02*
D03*
X3087Y18307D02*
D03*
X5118D02*
D03*
X16299Y12087D02*
D03*
X14268D02*
D03*
X17864Y6935D02*
D03*
X15833D02*
D03*
D19*
X10630Y15315D02*
D03*
X11130D02*
D03*
X11630D02*
D03*
X12130D02*
D03*
X4852Y19868D02*
D03*
X4352D02*
D03*
X3852D02*
D03*
X3352D02*
D03*
X14533Y10526D02*
D03*
X15033D02*
D03*
X15533D02*
D03*
X16033D02*
D03*
X16098Y5374D02*
D03*
X16598D02*
D03*
X17098D02*
D03*
X17598D02*
D03*
D20*
X12130Y17579D02*
D03*
X11630D02*
D03*
X11130D02*
D03*
X10630D02*
D03*
X3352Y17604D02*
D03*
X3852D02*
D03*
X4352D02*
D03*
X4852D02*
D03*
X16033Y12789D02*
D03*
X15533D02*
D03*
X15033D02*
D03*
X14533D02*
D03*
X17598Y7638D02*
D03*
X17098D02*
D03*
X16598D02*
D03*
X16098D02*
D03*
D21*
X5669Y13152D02*
D03*
Y12652D02*
D03*
Y12152D02*
D03*
Y11652D02*
D03*
X7717Y13152D02*
D03*
Y12652D02*
D03*
Y12152D02*
D03*
Y11652D02*
D03*
D22*
X7421Y14173D02*
D03*
X6358D02*
D03*
D23*
X2559Y4390D02*
D03*
Y5453D02*
D03*
D24*
X9024Y1811D02*
Y2433D01*
X9724Y1811D02*
X10024D01*
X10630Y15321D02*
X12130D01*
X394Y13386D02*
X1575D01*
X4102Y18868D02*
X4663Y18307D01*
X5118D01*
X3852Y19118D02*
X4102Y18868D01*
X3852Y19118D02*
Y19868D01*
X4848Y2382D02*
X7437D01*
X7992Y1827D01*
X8110Y2559D02*
X8504Y2165D01*
X5315Y2756D02*
X8701D01*
X9024Y2433D01*
X9866Y2953D02*
X10992Y1827D01*
X10394Y3031D02*
Y3445D01*
Y3031D02*
X11598Y1827D01*
X11992D01*
X7707Y404D02*
X8566D01*
X7407Y703D02*
X7707Y404D01*
X8566D02*
X8743Y226D01*
X10827Y2899D02*
X11364Y2362D01*
X11417Y2559D02*
X12717D01*
X11162Y2814D02*
X11417Y2559D01*
X11162Y2814D02*
Y2829D01*
X11142Y2849D02*
X11162Y2829D01*
X11142Y2849D02*
Y3898D01*
X11772Y1339D02*
X12244D01*
X11496Y1063D02*
X11772Y1339D01*
X11496Y551D02*
Y1063D01*
X11171Y226D02*
X11496Y551D01*
X8743Y226D02*
X11171D01*
X12244Y2362D02*
X12480Y2126D01*
X11364Y2362D02*
X12244D01*
X10827Y2899D02*
Y6890D01*
X12992Y1827D02*
Y2283D01*
X12717Y2559D02*
X12992Y2283D01*
X6939Y1250D02*
X7167D01*
X6362Y1827D02*
X6939Y1250D01*
X5992Y1827D02*
X6362D01*
X3642Y2756D02*
X3681Y2717D01*
X4102D01*
X4992Y1827D01*
X3193D02*
X3992D01*
X11909Y14469D02*
X12130Y14689D01*
Y15315D01*
X7717Y12152D02*
X8215D01*
X8661Y12598D01*
X19154Y6673D02*
X19567Y6260D01*
X19154Y6673D02*
Y7500D01*
X18189Y6457D02*
X18406Y6673D01*
Y7500D01*
X14055Y7441D02*
X14567Y7953D01*
X14715D01*
X15049Y8287D01*
X15217D01*
X17913Y12283D02*
X18268D01*
X17461Y12736D02*
X17913Y12283D01*
X16713Y12736D02*
X17683Y11778D01*
X13918Y12480D02*
Y12696D01*
X13720Y12894D02*
X13918Y12696D01*
X13720Y12894D02*
Y13327D01*
X9843Y16496D02*
Y16535D01*
X9232Y17146D02*
X9843Y16535D01*
X3711Y9242D02*
X3720Y9252D01*
X2728Y9242D02*
X3711D01*
X2423Y8937D02*
X2728Y9242D01*
X984Y8937D02*
X2423D01*
X3711Y9045D02*
X3720Y9055D01*
X2782Y9045D02*
X3711D01*
X1674Y7937D02*
X2782Y9045D01*
X984Y7937D02*
X1674D01*
X3720Y8858D02*
X3720Y8858D01*
X2845Y8858D02*
X3720D01*
X984Y6997D02*
X2845Y8858D01*
X984Y6937D02*
Y6997D01*
X3720Y8652D02*
Y8661D01*
X2889Y8652D02*
X3720D01*
X2008Y7770D02*
X2889Y8652D01*
X2008Y6535D02*
Y7770D01*
X1409Y5937D02*
X2008Y6535D01*
X984Y5937D02*
X1409D01*
X984Y4937D02*
X1378Y5331D01*
Y5655D01*
X2185Y6462D01*
Y7697D01*
X2943Y8455D01*
X3711D01*
X3006Y8268D02*
X3720D01*
X2362Y7623D02*
X3006Y8268D01*
X984Y4134D02*
X1771Y4921D01*
X984Y3937D02*
Y4134D01*
X2953Y9449D02*
X3720D01*
X2465Y9937D02*
X2953Y9449D01*
X984Y9937D02*
X2465D01*
X984Y10937D02*
X1858D01*
X3150Y9646D01*
X3720D01*
X5315Y17323D02*
X5610Y17028D01*
X5906D01*
X12992Y827D02*
Y1827D01*
X4528Y3794D02*
Y4311D01*
Y3794D02*
X5369Y2953D01*
X3543Y3346D02*
X3883D01*
X7415Y703D02*
Y1002D01*
X7167Y1250D02*
X7415Y1002D01*
X3711Y5108D02*
X3720Y5118D01*
X3328Y5108D02*
X3711D01*
X3328Y5089D02*
Y5108D01*
X3258Y5089D02*
X3328D01*
X7874Y4311D02*
X7874Y4311D01*
X9665Y6693D02*
X9665Y6693D01*
X8839Y6693D02*
X9665D01*
X9665Y8661D02*
X9665Y8661D01*
X9233Y8661D02*
X9665D01*
X9665Y8465D02*
X10236D01*
X10531Y19055D02*
X10925Y18661D01*
X8858Y19055D02*
X10531D01*
X8465Y18661D02*
X8858Y19055D01*
X10925Y18661D02*
X11516D01*
X8858Y10256D02*
X8858Y10256D01*
X8858Y9823D02*
Y10256D01*
X4528Y9823D02*
Y10256D01*
Y9823D02*
X4528Y9823D01*
X8652Y10266D02*
X8661Y10256D01*
X8652Y10266D02*
Y10629D01*
X8465Y10816D02*
X8652Y10629D01*
X8465Y10816D02*
Y10827D01*
X4341Y10714D02*
X4453Y10827D01*
X4341Y10266D02*
Y10714D01*
X4331Y10256D02*
X4341Y10266D01*
X7321Y13152D02*
X7717D01*
X6102Y11220D02*
X6693Y11811D01*
Y12524D01*
X7321Y13152D01*
X5585Y12652D02*
X5669D01*
X4331Y13906D02*
X5585Y12652D01*
X7717D02*
X7927D01*
X8268Y12992D01*
Y13327D01*
X7421Y14173D02*
X8268Y13327D01*
X3366Y19882D02*
Y20571D01*
X3352Y19868D02*
X3366Y19882D01*
X4907Y19868D02*
X5709Y20669D01*
X4852Y19868D02*
X4907D01*
X3352D02*
X3852D01*
X4352D02*
X4852D01*
X3852D02*
X4352D01*
X10992Y1827D02*
X11024Y1811D01*
X9992Y1827D02*
X10024Y1811D01*
X4331Y3740D02*
Y4311D01*
Y3740D02*
X5315Y2756D01*
X8992Y1827D02*
X9024Y1811D01*
X6992Y1827D02*
X7024Y1811D01*
X9665Y7480D02*
X10236Y7480D01*
X5992Y1827D02*
X6024Y1811D01*
X3352Y17604D02*
X3445Y17512D01*
Y16535D02*
Y17512D01*
X5925Y17036D02*
Y17657D01*
X4035Y16535D02*
X4626D01*
X6673Y16654D02*
Y17657D01*
X6164Y16145D02*
X6673Y16654D01*
X4426Y16145D02*
X6164D01*
X4035Y16535D02*
X4426Y16145D01*
X9232Y17146D02*
Y17231D01*
X9222Y17241D02*
X9232Y17231D01*
X9222Y17241D02*
Y17776D01*
X9252D01*
X12130Y17579D02*
Y17911D01*
X12106Y17935D02*
X12130Y17911D01*
X12106Y17935D02*
Y18465D01*
X8465Y17165D02*
Y18661D01*
Y17165D02*
X8484Y17146D01*
X9843Y14528D02*
X10630Y15315D01*
Y15321D01*
X19154Y7500D02*
Y7953D01*
X18976Y8130D02*
X19154Y7953D01*
X18406Y7500D02*
Y8110D01*
X18386Y8130D02*
X18406Y8110D01*
X18780Y6358D02*
Y6594D01*
X18386Y5965D02*
X18780Y6358D01*
X17106Y8228D02*
Y8819D01*
X17106Y8228D02*
X17106Y8228D01*
X15276Y8228D02*
X15925D01*
X15217Y8287D02*
X15276Y8228D01*
X14468Y8287D02*
X15394Y9213D01*
X16713D01*
X17106Y8819D01*
X14843Y5457D02*
X14925Y5374D01*
X16098D01*
X16598D01*
X17098D01*
X17598D01*
X18386D01*
X18386Y5374D01*
X17697Y7736D02*
Y8228D01*
X17598Y7638D02*
X17697Y7736D01*
X17283Y12913D02*
Y13366D01*
Y12913D02*
X17461Y12736D01*
X16713D02*
Y13346D01*
X16693Y13366D02*
X16713Y13346D01*
X16693Y11437D02*
X17087Y11831D01*
X16693Y11201D02*
Y11437D01*
X16689Y10606D02*
X16693Y10610D01*
X16114Y10606D02*
X16689D01*
X16033Y10526D02*
X16114Y10606D01*
X14533Y10526D02*
X15033D01*
X15533D01*
X16033D01*
X13376D02*
X14533D01*
X13346Y10496D02*
X13376Y10526D01*
X13720Y13327D02*
X14094D01*
X14232Y13465D01*
X15413D02*
Y14055D01*
X15413Y14055D01*
X12972Y13327D02*
X14094Y14449D01*
X15020D01*
X15413Y14055D01*
X16004Y12819D02*
Y13465D01*
Y12819D02*
X16033Y12789D01*
X3387Y14386D02*
X3935D01*
X3387D02*
X3403Y14370D01*
X3387Y12386D02*
X4331D01*
X5435D01*
X5669Y12152D01*
X394Y12402D02*
X1322D01*
X1338Y12386D01*
X3992Y1827D02*
Y2051D01*
X2362Y2657D02*
X3193Y1827D01*
X5512Y4311D02*
Y5512D01*
X4331Y10256D02*
Y10563D01*
X6693Y10990D02*
Y11220D01*
X6529Y10827D02*
X6693Y10990D01*
X4453Y10827D02*
X6529D01*
X8465D01*
X3720Y4921D02*
X4724D01*
X4921Y5118D01*
X9665Y9055D02*
X10236D01*
X10433Y8858D01*
Y8268D02*
Y8858D01*
X10236Y8465D02*
X10433Y8268D01*
X9665Y8858D02*
X10433D01*
X9665Y8858D02*
X9665Y8858D01*
X7717Y11652D02*
X8821D01*
X3346Y5512D02*
X3720D01*
X1771Y4921D02*
Y5797D01*
X2362Y6389D01*
Y7623D01*
X1969Y3937D02*
Y5709D01*
X2362Y6102D01*
X2756D01*
X3346Y5512D01*
X3150Y5315D02*
X3720D01*
X3012Y5453D02*
X3150Y5315D01*
X2559Y5453D02*
X3012D01*
X1969Y3937D02*
X2165Y3740D01*
X3740D01*
X7874Y4311D02*
Y4724D01*
X8848Y4321D02*
Y4769D01*
X8824Y4793D02*
X8848Y4769D01*
X8593Y4793D02*
X8824D01*
X8268Y5118D02*
X8593Y4793D01*
X8848Y4321D02*
X8858Y4311D01*
X7874Y4724D02*
X8268Y5118D01*
X9449Y9989D02*
Y11024D01*
X8821Y11652D02*
X9449Y11024D01*
X5512Y5512D02*
X8858Y8858D01*
Y9398D01*
X9449Y9989D01*
X3740Y10186D02*
X5315Y8611D01*
Y4311D02*
Y8611D01*
X3740Y10186D02*
Y10630D01*
X4331Y11220D01*
X6102D01*
X10433Y8268D02*
X11457Y7244D01*
Y6614D02*
Y7244D01*
X11142Y6299D02*
X11457Y6614D01*
X9665Y6890D02*
X10079D01*
X10394Y6575D01*
Y4724D02*
Y6575D01*
X10236Y7480D02*
X10827Y6890D01*
X9055Y4311D02*
X9980D01*
X10394Y4724D01*
X6889Y3544D02*
Y3740D01*
X6693Y3348D02*
X6889Y3544D01*
X9252Y1339D02*
X9724Y1811D01*
X8780Y1339D02*
X9252D01*
X8504Y1614D02*
X8780Y1339D01*
X8504Y1614D02*
Y2165D01*
X11992Y1827D02*
Y1984D01*
X12244Y1339D02*
X12480Y1575D01*
Y2126D01*
X3883Y3346D02*
X4848Y2382D01*
X3740Y3740D02*
X4921Y2559D01*
X6890Y3740D02*
Y4311D01*
X4921Y2559D02*
X8110D01*
X5369Y2953D02*
X9866D01*
X7087Y3937D02*
Y4311D01*
Y3937D02*
X7677Y3346D01*
X10295D01*
X10394Y3445D01*
X10256Y4035D02*
X10394D01*
X9980Y4311D02*
X10256Y4035D01*
X11142Y3898D02*
X11476Y4232D01*
X11693D01*
X11142Y3898D02*
Y6299D01*
X11693Y4232D02*
X12480D01*
X13228D01*
X13937D01*
X11693Y3189D02*
Y3642D01*
X13937D02*
X13976Y3602D01*
Y2953D02*
Y3602D01*
X13228Y3642D02*
X13268Y3602D01*
Y2992D02*
Y3602D01*
X12480Y3642D02*
X12480Y3642D01*
Y2992D02*
Y3642D01*
X5827Y14134D02*
X6319D01*
X6358Y14173D01*
X1575Y13386D02*
X2126Y13937D01*
Y14606D01*
X2598Y15079D01*
X6516D01*
X7421Y14173D01*
X1338Y12386D02*
X1953D01*
X2402Y12835D01*
Y14488D01*
X2815Y14902D01*
X3403Y14370D02*
X4331D01*
Y13906D02*
Y14370D01*
X2815Y14902D02*
X4705D01*
X5039Y14567D01*
Y13782D02*
Y14567D01*
Y13782D02*
X5669Y13152D01*
D25*
X1575Y2992D02*
X1614D01*
X1673Y3051D01*
X1575Y2992D02*
Y3150D01*
X1673Y3248D01*
X12382Y12421D02*
X13346D01*
X12205Y12598D02*
X12382Y12421D01*
X11535Y13543D02*
Y13583D01*
Y13268D02*
Y13543D01*
Y13268D02*
X12205Y12598D01*
Y8307D02*
Y12598D01*
X3150Y4331D02*
X3543D01*
X2697D02*
X3150D01*
Y4980D02*
X3258Y5089D01*
X3150Y4331D02*
Y4980D01*
X10335Y18465D02*
X10630Y18169D01*
X10335Y18465D02*
Y18661D01*
X10335Y18661D02*
X10335Y18661D01*
X9547Y18661D02*
X10335D01*
X9252Y18366D02*
X9547Y18661D01*
X5669Y11652D02*
X6140D01*
X6358Y11870D01*
Y14173D01*
X1338Y14386D02*
Y14920D01*
X7480Y16732D02*
Y18307D01*
X6890Y18898D02*
X7480Y18307D01*
X6890Y18898D02*
Y20488D01*
X6299Y18563D02*
X6555D01*
X6890Y18898D01*
X7480Y16732D02*
X8843Y15370D01*
Y14528D02*
X9827Y13543D01*
X11535D01*
X8843Y14543D02*
Y16224D01*
X12205Y8307D02*
X14055Y6457D01*
X14843D01*
X13346Y11496D02*
Y12421D01*
X14843Y6457D02*
Y7382D01*
X6102Y15354D02*
X7480Y16732D01*
X1338Y14920D02*
X1772Y15354D01*
X6102D01*
X5921Y21457D02*
X6709Y20669D01*
X3740Y21457D02*
X5921D01*
X1673Y3248D02*
X2362D01*
X14823Y13079D02*
Y13465D01*
X14533Y12789D02*
X14823Y13079D01*
X14823Y13465D02*
Y14055D01*
Y13465D02*
X14823Y13465D01*
X14331Y14055D02*
X14823D01*
X14331Y14055D02*
X14331Y14055D01*
X16693Y13957D02*
X17283D01*
X16201D02*
X16693D01*
X16102Y14055D02*
X16201Y13957D01*
X18386Y8720D02*
X18976D01*
X17894D02*
X18386D01*
X17795Y8819D02*
X17894Y8720D01*
X16516Y8228D02*
Y8819D01*
Y8228D02*
X16516Y8228D01*
Y7720D02*
Y8228D01*
Y7720D02*
X16598Y7638D01*
X16098D02*
X16598D01*
X17098D01*
X14533Y12789D02*
X15033D01*
X15533D01*
X10630Y17579D02*
X11130D01*
X11630D01*
X10630D02*
Y18169D01*
X11130Y17579D02*
Y17980D01*
X11220Y18071D01*
X4331Y17126D02*
Y17583D01*
X4352Y17604D01*
X3852D02*
X4352D01*
X4843D01*
X4852Y17195D02*
X5217Y16831D01*
Y16535D02*
Y16831D01*
X4852Y17195D02*
Y17595D01*
X5217Y16535D02*
X5807D01*
X5906Y16437D01*
X15630Y8819D02*
X16516D01*
X3387Y13386D02*
X4331D01*
X3387Y13386D02*
X3387Y13386D01*
X3287Y13386D02*
X3387D01*
X409Y14386D02*
X1338D01*
X394Y14370D02*
X409Y14386D01*
X6496Y9055D02*
X8090D01*
X8858Y9823D01*
X4528D02*
X5296Y9055D01*
X6496D01*
X2953Y2854D02*
X3051Y2756D01*
X2953Y2854D02*
Y3346D01*
X2362Y3248D02*
X2461Y3346D01*
X2953D01*
X8406Y6260D02*
X8839Y6693D01*
X8228Y6260D02*
X8406D01*
X8228D02*
Y7657D01*
Y5157D02*
X8268Y5118D01*
X8228Y5157D02*
Y6260D01*
Y7657D02*
X9233Y8661D01*
D26*
X8843Y14528D02*
D03*
X6709Y20669D02*
D03*
X12992Y1827D02*
D03*
D27*
X9843Y14528D02*
D03*
X5709Y20669D02*
D03*
X14843Y5457D02*
D03*
X13346Y10496D02*
D03*
X12992Y827D02*
D03*
X11992Y1827D02*
D03*
Y827D02*
D03*
X10992Y1827D02*
D03*
Y827D02*
D03*
X9992Y1827D02*
D03*
Y827D02*
D03*
X8992Y1827D02*
D03*
Y827D02*
D03*
X7992Y1827D02*
D03*
Y827D02*
D03*
X6992Y1827D02*
D03*
Y827D02*
D03*
X5992Y1827D02*
D03*
Y827D02*
D03*
X4992Y1827D02*
D03*
Y827D02*
D03*
X3992Y1827D02*
D03*
Y827D02*
D03*
X984Y4937D02*
D03*
Y5937D02*
D03*
Y6937D02*
D03*
Y7937D02*
D03*
Y8937D02*
D03*
Y9937D02*
D03*
Y10937D02*
D03*
D28*
X14843Y6457D02*
D03*
X13346Y11496D02*
D03*
X984Y3937D02*
D03*
D29*
X1575Y2992D02*
D03*
D30*
X11693Y2953D02*
D03*
X8661Y12598D02*
D03*
X19567Y6260D02*
D03*
X18189Y6457D02*
D03*
X14055Y7441D02*
D03*
X18268Y12283D02*
D03*
X17683Y11778D02*
D03*
X13918Y12480D02*
D03*
X9843Y16496D02*
D03*
X5315Y17323D02*
D03*
X4331Y17126D02*
D03*
Y13386D02*
D03*
Y12386D02*
D03*
X394Y12402D02*
D03*
X11220Y18071D02*
D03*
X14331Y14055D02*
D03*
X16102D02*
D03*
X17795Y8819D02*
D03*
X15630D02*
D03*
X6496Y9055D02*
D03*
X6693Y11220D02*
D03*
X3543Y4331D02*
D03*
X4921Y5118D02*
D03*
X394Y14370D02*
D03*
Y13386D02*
D03*
X11457Y6614D02*
D03*
X10394Y6575D02*
D03*
X8228Y6260D02*
D03*
X6693Y3348D02*
D03*
X13976Y2953D02*
D03*
X13268Y2992D02*
D03*
X12480D02*
D03*
X5827Y14134D02*
D03*
X4331Y14370D02*
D03*
D31*
X1378Y1378D02*
D03*
Y21102D02*
D03*
X21102Y1378D02*
D03*
M02*
