G04 Layer_Color=65535*
%FSLAX24Y24*%
%MOIN*%
G70*
G01*
G75*
%ADD24C,0.0098*%
%ADD32C,0.0236*%
%ADD33C,0.0079*%
%ADD34C,0.0080*%
D24*
X5640Y17657D02*
G03*
X5640Y17657I-49J0D01*
G01*
X3081Y20571D02*
G03*
X3081Y20571I-49J0D01*
G01*
X17844Y12736D02*
G03*
X17844Y12736I-49J0D01*
G01*
X15600Y8287D02*
G03*
X15600Y8287I-49J0D01*
G01*
X14104Y13327D02*
G03*
X14104Y13327I-49J0D01*
G01*
X3462Y11636D02*
G03*
X3462Y11636I-49J0D01*
G01*
X9715Y4646D02*
G03*
X9715Y4646I-49J0D01*
G01*
X10280Y17847D02*
G03*
X10280Y17847I-49J0D01*
G01*
X5301Y17336D02*
G03*
X5301Y17336I-49J0D01*
G01*
X14183Y13057D02*
G03*
X14183Y13057I-49J0D01*
G01*
X19537Y7500D02*
G03*
X19537Y7500I-49J0D01*
G01*
X15748Y7906D02*
G03*
X15748Y7906I-49J0D01*
G01*
X12293Y14469D02*
G03*
X12293Y14469I-49J0D01*
G01*
X7766Y11317D02*
G03*
X7766Y11317I-49J0D01*
G01*
X9616Y17146D02*
G03*
X9616Y17146I-49J0D01*
G01*
D32*
X8878Y5217D02*
G03*
X8878Y5217I-118J0D01*
G01*
X6929Y11811D02*
G03*
X6929Y11811I-118J0D01*
G01*
D33*
X10343Y14028D02*
Y15028D01*
X8343Y14028D02*
X10343D01*
X8343D02*
Y15028D01*
X10343D01*
X6575Y18386D02*
X6890D01*
Y18032D02*
Y18386D01*
X5709D02*
X6024D01*
X5709Y18032D02*
Y18386D01*
X5209Y20169D02*
Y21169D01*
X7209D01*
Y20169D02*
Y21169D01*
X5209Y20169D02*
X7209D01*
X3150Y20935D02*
Y21289D01*
X3465D01*
X4331Y20935D02*
Y21289D01*
X4016D02*
X4331D01*
X11732Y18524D02*
X11890D01*
X11732Y18799D02*
X11890D01*
X15630Y13327D02*
X15787D01*
X15630Y13602D02*
X15787D01*
X14449Y13327D02*
X14606D01*
X14449Y13602D02*
X14606D01*
X16496Y12008D02*
X16811D01*
X16496D02*
Y12362D01*
X17362Y12008D02*
X17677D01*
Y12362D01*
X17421Y13583D02*
Y13740D01*
X17146Y13583D02*
Y13740D01*
X16831Y13583D02*
Y13740D01*
X16555Y13583D02*
Y13740D01*
X16831Y10827D02*
Y10984D01*
X16555Y10827D02*
Y10984D01*
X18524Y8346D02*
Y8504D01*
X18248Y8346D02*
Y8504D01*
X19114Y8346D02*
Y8504D01*
X18839Y8346D02*
Y8504D01*
X14343Y4957D02*
X15343D01*
X14343D02*
Y6957D01*
X15343D01*
Y4957D02*
Y6957D01*
X14252Y7559D02*
X14567D01*
X14252D02*
Y7913D01*
X15118Y7559D02*
X15433D01*
Y7913D01*
X16732Y8957D02*
X16890D01*
X16732Y8681D02*
X16890D01*
X12846Y9996D02*
X13846D01*
X12846D02*
Y11996D01*
X13846D01*
Y9996D02*
Y11996D01*
X12756Y12598D02*
X13071D01*
X12756D02*
Y12953D01*
X13622Y12598D02*
X13937D01*
Y12953D01*
X4843Y16398D02*
X5000D01*
X4843Y16673D02*
X5000D01*
X3661D02*
X3819D01*
X3661Y16398D02*
X3819D01*
X2500Y2874D02*
Y3031D01*
X2224Y2874D02*
Y3031D01*
X1362Y14886D02*
X3362D01*
Y14768D02*
Y14886D01*
X1362Y14768D02*
Y14886D01*
X3362Y11886D02*
Y12004D01*
X1362Y11886D02*
Y12004D01*
Y11886D02*
X3362D01*
X9154Y4823D02*
Y9744D01*
X4232Y4823D02*
Y9744D01*
Y4823D02*
X9154D01*
X4232Y9744D02*
X9154D01*
X10551Y18799D02*
X10709D01*
X10551Y18524D02*
X10709D01*
X5768Y16654D02*
Y16811D01*
X6043Y16654D02*
Y16811D01*
X3268Y2894D02*
X3425D01*
X3268Y2618D02*
X3425D01*
X17323Y8091D02*
X17480D01*
X17323Y8366D02*
X17480D01*
X18524Y5591D02*
Y5748D01*
X18248Y5591D02*
Y5748D01*
X16142Y8091D02*
X16299D01*
X16142Y8366D02*
X16299D01*
X18189Y6772D02*
X18504D01*
X18189D02*
Y7126D01*
X19055Y6772D02*
X19370D01*
Y7126D01*
X3492Y327D02*
Y2327D01*
X12742D02*
X13492D01*
Y327D02*
Y2327D01*
X12742Y327D02*
X13492D01*
X3492D02*
X12742D01*
X3492Y2327D02*
X12742D01*
X12126Y13750D02*
Y14104D01*
X11811Y13750D02*
X12126D01*
X10945D02*
Y14104D01*
Y13750D02*
X11260D01*
X6181Y13386D02*
X7205D01*
X6181Y11417D02*
X7205D01*
X6181D02*
Y13386D01*
X7205Y11417D02*
Y13386D01*
X6732Y13878D02*
X7047D01*
X6732Y14469D02*
X7047D01*
X3169Y3484D02*
X3327D01*
X3169Y3209D02*
X3327D01*
X2264Y4764D02*
Y5079D01*
X2854Y4764D02*
Y5079D01*
X9390Y17992D02*
Y18150D01*
X9114Y17992D02*
Y18150D01*
X8268Y16417D02*
X8583D01*
X8268D02*
Y16772D01*
X9134Y16417D02*
X9449D01*
Y16772D01*
X15039Y14193D02*
X15197D01*
X15039Y13917D02*
X15197D01*
X484Y11437D02*
X1484D01*
Y3437D02*
Y11437D01*
X484Y3437D02*
X1484D01*
X484D02*
Y11437D01*
X10532Y3661D02*
Y3819D01*
X10256Y3661D02*
Y3819D01*
X11831Y3858D02*
Y4016D01*
X11555Y3858D02*
Y4016D01*
X12618Y3858D02*
Y4016D01*
X12343Y3858D02*
Y4016D01*
X14075Y3858D02*
Y4016D01*
X13799Y3858D02*
Y4016D01*
X13366Y3858D02*
Y4016D01*
X13091Y3858D02*
Y4016D01*
X8583Y13346D02*
Y13609D01*
X8714Y13740D01*
X8845Y13609D01*
Y13346D01*
Y13543D01*
X8583D01*
X9239Y13674D02*
X9173Y13740D01*
X9042D01*
X8976Y13674D01*
Y13412D01*
X9042Y13346D01*
X9173D01*
X9239Y13412D01*
X9370Y13740D02*
X9632D01*
X9501D01*
Y13346D01*
X10026D02*
X9763D01*
X10026Y13609D01*
Y13674D01*
X9960Y13740D01*
X9829D01*
X9763Y13674D01*
X6719Y16837D02*
Y17100D01*
X6653Y17165D01*
X6522D01*
X6457Y17100D01*
Y16837D01*
X6522Y16772D01*
X6653D01*
X6588Y16903D02*
X6719Y16772D01*
X6653D02*
X6719Y16837D01*
X6850Y16772D02*
Y17034D01*
X6916D01*
X6981Y16968D01*
Y16772D01*
Y16968D01*
X7047Y17034D01*
X7113Y16968D01*
Y16772D01*
X7244Y17100D02*
X7309Y17165D01*
X7441D01*
X7506Y17100D01*
Y17034D01*
X7441Y16968D01*
X7375D01*
X7441D01*
X7506Y16903D01*
Y16837D01*
X7441Y16772D01*
X7309D01*
X7244Y16837D01*
X7637Y17165D02*
Y16772D01*
X7834D01*
X7900Y16837D01*
Y16903D01*
X7834Y16968D01*
X7637D01*
X7834D01*
X7900Y17034D01*
Y17100D01*
X7834Y17165D01*
X7637D01*
X5512Y19567D02*
Y19829D01*
X5643Y19961D01*
X5774Y19829D01*
Y19567D01*
Y19764D01*
X5512D01*
X6168Y19895D02*
X6102Y19961D01*
X5971D01*
X5905Y19895D01*
Y19633D01*
X5971Y19567D01*
X6102D01*
X6168Y19633D01*
X6299Y19961D02*
X6561D01*
X6430D01*
Y19567D01*
X6693D02*
X6824D01*
X6758D01*
Y19961D01*
X6693Y19895D01*
X2835Y21929D02*
Y21535D01*
X3031D01*
X3097Y21601D01*
Y21863D01*
X3031Y21929D01*
X2835D01*
X3228Y21535D02*
X3359D01*
X3294D01*
Y21929D01*
X3228Y21863D01*
X997Y15653D02*
X932Y15719D01*
X801D01*
X735Y15653D01*
Y15391D01*
X801Y15325D01*
X932D01*
X997Y15391D01*
X1129Y15325D02*
Y15587D01*
X1260Y15719D01*
X1391Y15587D01*
Y15325D01*
Y15522D01*
X1129D01*
X1522Y15325D02*
Y15719D01*
X1784Y15325D01*
Y15719D01*
X1916Y15259D02*
X2178D01*
X2309Y15325D02*
Y15719D01*
X2506D01*
X2572Y15653D01*
Y15522D01*
X2506Y15456D01*
X2309D01*
X2703Y15719D02*
Y15325D01*
X2834Y15456D01*
X2965Y15325D01*
Y15719D01*
X3096Y15325D02*
Y15719D01*
X3293D01*
X3359Y15653D01*
Y15522D01*
X3293Y15456D01*
X3096D01*
X3228D02*
X3359Y15325D01*
X10079Y19094D02*
Y19488D01*
X10276D01*
X10341Y19422D01*
Y19291D01*
X10276Y19226D01*
X10079D01*
X10210D02*
X10341Y19094D01*
X10669D02*
Y19488D01*
X10472Y19291D01*
X10735D01*
X11128Y19422D02*
X11063Y19488D01*
X10931D01*
X10866Y19422D01*
Y19160D01*
X10931Y19094D01*
X11063D01*
X11128Y19160D01*
X8425Y18898D02*
Y19291D01*
X8622D01*
X8688Y19226D01*
Y19094D01*
X8622Y19029D01*
X8425D01*
X8556D02*
X8688Y18898D01*
X9016D02*
Y19291D01*
X8819Y19094D01*
X9081D01*
X9212Y18898D02*
Y19160D01*
X9344Y19291D01*
X9475Y19160D01*
Y18898D01*
Y19094D01*
X9212D01*
X1969Y3543D02*
Y3937D01*
X2165D01*
X2231Y3871D01*
Y3740D01*
X2165Y3674D01*
X1969D01*
X2100D02*
X2231Y3543D01*
X2362Y3871D02*
X2428Y3937D01*
X2559D01*
X2624Y3871D01*
Y3806D01*
X2559Y3740D01*
X2493D01*
X2559D01*
X2624Y3674D01*
Y3609D01*
X2559Y3543D01*
X2428D01*
X2362Y3609D01*
X1969Y16339D02*
Y16732D01*
X2165D01*
X2231Y16667D01*
Y16535D01*
X2165Y16470D01*
X1969D01*
X2100D02*
X2231Y16339D01*
X2362Y16667D02*
X2428Y16732D01*
X2559D01*
X2624Y16667D01*
Y16601D01*
X2559Y16535D01*
X2493D01*
X2559D01*
X2624Y16470D01*
Y16404D01*
X2559Y16339D01*
X2428D01*
X2362Y16404D01*
X3018Y16667D02*
X2952Y16732D01*
X2821D01*
X2756Y16667D01*
Y16404D01*
X2821Y16339D01*
X2952D01*
X3018Y16404D01*
X4331Y15748D02*
Y16142D01*
X4527D01*
X4593Y16076D01*
Y15945D01*
X4527Y15879D01*
X4331D01*
X4462D02*
X4593Y15748D01*
X4724Y16076D02*
X4790Y16142D01*
X4921D01*
X4987Y16076D01*
Y16010D01*
X4921Y15945D01*
X4855D01*
X4921D01*
X4987Y15879D01*
Y15814D01*
X4921Y15748D01*
X4790D01*
X4724Y15814D01*
X5118Y16142D02*
Y15748D01*
X5315D01*
X5380Y15814D01*
Y15879D01*
X5315Y15945D01*
X5118D01*
X5315D01*
X5380Y16010D01*
Y16076D01*
X5315Y16142D01*
X5118D01*
X14094Y14449D02*
Y14842D01*
X14291D01*
X14357Y14777D01*
Y14646D01*
X14291Y14580D01*
X14094D01*
X14226D02*
X14357Y14449D01*
X14750D02*
X14488D01*
X14750Y14711D01*
Y14777D01*
X14685Y14842D01*
X14554D01*
X14488Y14777D01*
X15144Y14842D02*
X14882D01*
Y14449D01*
X15144D01*
X14882Y14646D02*
X15013D01*
X15512Y14449D02*
Y14842D01*
X15709D01*
X15774Y14777D01*
Y14646D01*
X15709Y14580D01*
X15512D01*
X15643D02*
X15774Y14449D01*
X16168D02*
X15905D01*
X16168Y14711D01*
Y14777D01*
X16102Y14842D01*
X15971D01*
X15905Y14777D01*
X16299Y14842D02*
Y14449D01*
X16496D01*
X16561Y14514D01*
Y14777D01*
X16496Y14842D01*
X16299D01*
X17087Y10906D02*
Y11299D01*
X17283D01*
X17349Y11233D01*
Y11102D01*
X17283Y11037D01*
X17087D01*
X17218D02*
X17349Y10906D01*
X17743D02*
X17480D01*
X17743Y11168D01*
Y11233D01*
X17677Y11299D01*
X17546D01*
X17480Y11233D01*
X17874Y11299D02*
Y10906D01*
X18071D01*
X18136Y10971D01*
Y11037D01*
X18071Y11102D01*
X17874D01*
X18071D01*
X18136Y11168D01*
Y11233D01*
X18071Y11299D01*
X17874D01*
X12756Y13858D02*
Y14252D01*
X12953D01*
X13018Y14186D01*
Y14055D01*
X12953Y13989D01*
X12756D01*
X12887D02*
X13018Y13858D01*
X13412D02*
X13149D01*
X13412Y14121D01*
Y14186D01*
X13346Y14252D01*
X13215D01*
X13149Y14186D01*
X13543Y13858D02*
Y14121D01*
X13674Y14252D01*
X13805Y14121D01*
Y13858D01*
Y14055D01*
X13543D01*
X3937Y3150D02*
Y3543D01*
X4134D01*
X4199Y3478D01*
Y3346D01*
X4134Y3281D01*
X3937D01*
X4068D02*
X4199Y3150D01*
X4331D02*
X4462D01*
X4396D01*
Y3543D01*
X4331Y3478D01*
X18032Y9173D02*
Y9567D01*
X18228D01*
X18294Y9501D01*
Y9370D01*
X18228Y9304D01*
X18032D01*
X18163D02*
X18294Y9173D01*
X18425D02*
X18556D01*
X18491D01*
Y9567D01*
X18425Y9501D01*
X19015Y9567D02*
X18753D01*
Y9370D01*
X18884D01*
X18753D01*
Y9173D01*
X16417Y9213D02*
Y9606D01*
X16614D01*
X16680Y9541D01*
Y9409D01*
X16614Y9344D01*
X16417D01*
X16549D02*
X16680Y9213D01*
X16811D02*
X16942D01*
X16876D01*
Y9606D01*
X16811Y9541D01*
X17401Y9606D02*
X17139D01*
Y9213D01*
X17401D01*
X17139Y9409D02*
X17270D01*
X19370Y8228D02*
Y8622D01*
X19567D01*
X19632Y8556D01*
Y8425D01*
X19567Y8360D01*
X19370D01*
X19501D02*
X19632Y8228D01*
X19764D02*
X19895D01*
X19829D01*
Y8622D01*
X19764Y8556D01*
X20354D02*
X20288Y8622D01*
X20157D01*
X20092Y8556D01*
Y8294D01*
X20157Y8228D01*
X20288D01*
X20354Y8294D01*
X7546Y17546D02*
Y17808D01*
X7480Y17874D01*
X7349D01*
X7283Y17808D01*
Y17546D01*
X7349Y17480D01*
X7480D01*
X7415Y17612D02*
X7546Y17480D01*
X7480D02*
X7546Y17546D01*
X7677Y17480D02*
Y17743D01*
X7743D01*
X7808Y17677D01*
Y17480D01*
Y17677D01*
X7874Y17743D01*
X7939Y17677D01*
Y17480D01*
X8267D02*
Y17874D01*
X8071Y17677D01*
X8333D01*
X8464Y17874D02*
Y17480D01*
X8661D01*
X8727Y17546D01*
Y17612D01*
X8661Y17677D01*
X8464D01*
X8661D01*
X8727Y17743D01*
Y17808D01*
X8661Y17874D01*
X8464D01*
X11247Y12310D02*
Y12572D01*
X11181Y12638D01*
X11050D01*
X10984Y12572D01*
Y12310D01*
X11050Y12244D01*
X11181D01*
X11115Y12375D02*
X11247Y12244D01*
X11181D02*
X11247Y12310D01*
X11378Y12244D02*
Y12506D01*
X11443D01*
X11509Y12441D01*
Y12244D01*
Y12441D01*
X11575Y12506D01*
X11640Y12441D01*
Y12244D01*
X12034D02*
X11771D01*
X12034Y12506D01*
Y12572D01*
X11968Y12638D01*
X11837D01*
X11771Y12572D01*
X12165Y12638D02*
Y12244D01*
X12362D01*
X12427Y12310D01*
Y12375D01*
X12362Y12441D01*
X12165D01*
X12362D01*
X12427Y12506D01*
Y12572D01*
X12362Y12638D01*
X12165D01*
X14121Y8688D02*
Y8950D01*
X14055Y9016D01*
X13924D01*
X13858Y8950D01*
Y8688D01*
X13924Y8622D01*
X14055D01*
X13989Y8753D02*
X14121Y8622D01*
X14055D02*
X14121Y8688D01*
X14252Y8622D02*
Y8884D01*
X14317D01*
X14383Y8819D01*
Y8622D01*
Y8819D01*
X14449Y8884D01*
X14514Y8819D01*
Y8622D01*
X14645D02*
X14777D01*
X14711D01*
Y9016D01*
X14645Y8950D01*
X14973Y9016D02*
Y8622D01*
X15170D01*
X15236Y8688D01*
Y8753D01*
X15170Y8819D01*
X14973D01*
X15170D01*
X15236Y8884D01*
Y8950D01*
X15170Y9016D01*
X14973D01*
X11575Y11102D02*
X11706D01*
X11640D01*
Y10709D01*
X11575D01*
X11706D01*
X12165Y11037D02*
X12100Y11102D01*
X11968D01*
X11903Y11037D01*
Y10774D01*
X11968Y10709D01*
X12100D01*
X12165Y10774D01*
Y10905D01*
X12034D01*
X12559Y10709D02*
X12296D01*
X12559Y10971D01*
Y11037D01*
X12493Y11102D01*
X12362D01*
X12296Y11037D01*
X13268Y5866D02*
X13399D01*
X13333D01*
Y5472D01*
X13268D01*
X13399D01*
X13858Y5800D02*
X13792Y5866D01*
X13661D01*
X13596Y5800D01*
Y5538D01*
X13661Y5472D01*
X13792D01*
X13858Y5538D01*
Y5669D01*
X13727D01*
X13989Y5472D02*
X14120D01*
X14055D01*
Y5866D01*
X13989Y5800D01*
X6427Y15173D02*
X6362Y15239D01*
X6231D01*
X6165Y15173D01*
Y14911D01*
X6231Y14845D01*
X6362D01*
X6427Y14911D01*
X6821Y14845D02*
X6559D01*
X6821Y15107D01*
Y15173D01*
X6755Y15239D01*
X6624D01*
X6559Y15173D01*
X2625Y6627D02*
X2559Y6693D01*
X2428D01*
X2362Y6627D01*
Y6365D01*
X2428Y6299D01*
X2559D01*
X2625Y6365D01*
X2756Y6299D02*
X2887D01*
X2821D01*
Y6693D01*
X2756Y6627D01*
X11260Y4606D02*
Y5000D01*
X11457D01*
X11522Y4934D01*
Y4803D01*
X11457Y4737D01*
X11260D01*
X11391D02*
X11522Y4606D01*
X11850D02*
Y5000D01*
X11653Y4803D01*
X11916D01*
X12165Y4606D02*
Y5000D01*
X12362D01*
X12428Y4934D01*
Y4803D01*
X12362Y4737D01*
X12165D01*
X12297D02*
X12428Y4606D01*
X12821Y5000D02*
X12559D01*
Y4803D01*
X12690Y4869D01*
X12756D01*
X12821Y4803D01*
Y4672D01*
X12756Y4606D01*
X12625D01*
X12559Y4672D01*
X13071Y4606D02*
Y5000D01*
X13268D01*
X13333Y4934D01*
Y4803D01*
X13268Y4737D01*
X13071D01*
X13202D02*
X13333Y4606D01*
X13727Y5000D02*
X13596Y4934D01*
X13464Y4803D01*
Y4672D01*
X13530Y4606D01*
X13661D01*
X13727Y4672D01*
Y4737D01*
X13661Y4803D01*
X13464D01*
X14370Y3740D02*
Y4134D01*
X14567D01*
X14632Y4068D01*
Y3937D01*
X14567Y3871D01*
X14370D01*
X14501D02*
X14632Y3740D01*
X14764Y4134D02*
X15026D01*
Y4068D01*
X14764Y3806D01*
Y3740D01*
X9016Y3189D02*
Y3583D01*
X9213D01*
X9278Y3517D01*
Y3386D01*
X9213Y3320D01*
X9016D01*
X9147D02*
X9278Y3189D01*
X9409Y3517D02*
X9475Y3583D01*
X9606D01*
X9672Y3517D01*
Y3451D01*
X9606Y3386D01*
X9672Y3320D01*
Y3255D01*
X9606Y3189D01*
X9475D01*
X9409Y3255D01*
Y3320D01*
X9475Y3386D01*
X9409Y3451D01*
Y3517D01*
X9475Y3386D02*
X9606D01*
D34*
X13992Y2027D02*
X13826D01*
X13909D01*
Y1527D01*
X13992Y1610D01*
X13659Y1027D02*
X13992D01*
X13659Y694D01*
Y610D01*
X13742Y527D01*
X13909D01*
X13992Y610D01*
M02*
