G04 Layer_Color=16711935*
%FSLAX24Y24*%
%MOIN*%
G70*
G01*
G75*
%ADD49R,0.0669X0.0669*%
%ADD50C,0.0669*%
%ADD51R,0.0669X0.0669*%
%ADD52C,0.0571*%
%ADD53C,0.0472*%
%ADD54C,0.2047*%
D49*
X8843Y14528D02*
D03*
X6709Y20669D02*
D03*
X12992Y1827D02*
D03*
D50*
X9843Y14528D02*
D03*
X5709Y20669D02*
D03*
X14843Y5457D02*
D03*
X13346Y10496D02*
D03*
X12992Y827D02*
D03*
X11992Y1827D02*
D03*
Y827D02*
D03*
X10992Y1827D02*
D03*
Y827D02*
D03*
X9992Y1827D02*
D03*
Y827D02*
D03*
X8992Y1827D02*
D03*
Y827D02*
D03*
X7992Y1827D02*
D03*
Y827D02*
D03*
X6992Y1827D02*
D03*
Y827D02*
D03*
X5992Y1827D02*
D03*
Y827D02*
D03*
X4992Y1827D02*
D03*
Y827D02*
D03*
X3992Y1827D02*
D03*
Y827D02*
D03*
X984Y4937D02*
D03*
Y5937D02*
D03*
Y6937D02*
D03*
Y7937D02*
D03*
Y8937D02*
D03*
Y9937D02*
D03*
Y10937D02*
D03*
D51*
X14843Y6457D02*
D03*
X13346Y11496D02*
D03*
X984Y3937D02*
D03*
D52*
X1575Y2992D02*
D03*
D53*
X11693Y2953D02*
D03*
X8661Y12598D02*
D03*
X19567Y6260D02*
D03*
X18189Y6457D02*
D03*
X14055Y7441D02*
D03*
X18268Y12283D02*
D03*
X17683Y11778D02*
D03*
X13918Y12480D02*
D03*
X9843Y16496D02*
D03*
X5315Y17323D02*
D03*
X4331Y17126D02*
D03*
Y13386D02*
D03*
Y12386D02*
D03*
X394Y12402D02*
D03*
X11220Y18071D02*
D03*
X14331Y14055D02*
D03*
X16102D02*
D03*
X17795Y8819D02*
D03*
X15630D02*
D03*
X6496Y9055D02*
D03*
X6693Y11220D02*
D03*
X3543Y4331D02*
D03*
X4921Y5118D02*
D03*
X394Y14370D02*
D03*
Y13386D02*
D03*
X11457Y6614D02*
D03*
X10394Y6575D02*
D03*
X8228Y6260D02*
D03*
X6693Y3348D02*
D03*
X13976Y2953D02*
D03*
X13268Y2992D02*
D03*
X12480D02*
D03*
X5827Y14134D02*
D03*
X4331Y14370D02*
D03*
D54*
X1378Y1378D02*
D03*
Y21102D02*
D03*
X21102Y1378D02*
D03*
M02*
