G04 Layer_Physical_Order=2*
G04 Layer_Color=16711680*
%FSLAX24Y24*%
%MOIN*%
G70*
G01*
G75*
%ADD24C,0.0098*%
%ADD26R,0.0591X0.0591*%
%ADD27C,0.0591*%
%ADD28R,0.0591X0.0591*%
%ADD29C,0.0492*%
%ADD30C,0.0394*%
%ADD31C,0.1969*%
G36*
X1345Y22799D02*
X2239Y22729D01*
X3129Y22624D01*
X4015Y22483D01*
X4895Y22308D01*
X5767Y22099D01*
X6630Y21856D01*
X7483Y21578D01*
X8324Y21268D01*
X9153Y20925D01*
X9967Y20549D01*
X10766Y20142D01*
X11549Y19704D01*
X12313Y19235D01*
X13059Y18737D01*
X13785Y18210D01*
X14489Y17655D01*
X15171Y17072D01*
X15829Y16464D01*
X16464Y15829D01*
X17072Y15171D01*
X17655Y14489D01*
X18210Y13785D01*
X18737Y13059D01*
X19235Y12313D01*
X19704Y11549D01*
X20142Y10766D01*
X20549Y9967D01*
X20925Y9153D01*
X21268Y8324D01*
X21578Y7483D01*
X21856Y6630D01*
X22099Y5767D01*
X22308Y4895D01*
X22483Y4015D01*
X22624Y3129D01*
X22729Y2239D01*
X22799Y1345D01*
X22835Y448D01*
X22835Y-0D01*
X0Y0D01*
X-0Y22835D01*
X448Y22835D01*
X1345Y22799D01*
D02*
G37*
%LPC*%
G36*
X12041Y1217D02*
Y876D01*
X12383D01*
X12376Y930D01*
X12336Y1025D01*
X12273Y1108D01*
X12191Y1171D01*
X12095Y1210D01*
X12041Y1217D01*
D02*
G37*
G36*
X10041D02*
Y876D01*
X10383D01*
X10376Y930D01*
X10336Y1025D01*
X10273Y1108D01*
X10191Y1171D01*
X10095Y1210D01*
X10041Y1217D01*
D02*
G37*
G36*
X8041D02*
Y876D01*
X8383D01*
X8376Y930D01*
X8336Y1025D01*
X8273Y1108D01*
X8191Y1171D01*
X8095Y1210D01*
X8041Y1217D01*
D02*
G37*
G36*
X3992Y2204D02*
X3895Y2191D01*
X3804Y2153D01*
X3725Y2094D01*
X3665Y2015D01*
X3628Y1924D01*
X3615Y1827D01*
X3628Y1729D01*
X3665Y1638D01*
X3725Y1560D01*
X3804Y1500D01*
X3895Y1462D01*
X3992Y1450D01*
X4090Y1462D01*
X4181Y1500D01*
X4259Y1560D01*
X4319Y1638D01*
X4357Y1729D01*
X4369Y1827D01*
X4357Y1924D01*
X4319Y2015D01*
X4259Y2094D01*
X4181Y2153D01*
X4090Y2191D01*
X3992Y2204D01*
D02*
G37*
G36*
X11041Y1217D02*
Y876D01*
X11383D01*
X11376Y930D01*
X11336Y1025D01*
X11273Y1108D01*
X11191Y1171D01*
X11095Y1210D01*
X11041Y1217D01*
D02*
G37*
G36*
X7041D02*
Y876D01*
X7383D01*
X7376Y930D01*
X7336Y1025D01*
X7273Y1108D01*
X7191Y1171D01*
X7095Y1210D01*
X7041Y1217D01*
D02*
G37*
G36*
X6041D02*
Y876D01*
X6383D01*
X6376Y930D01*
X6336Y1025D01*
X6273Y1108D01*
X6191Y1171D01*
X6095Y1210D01*
X6041Y1217D01*
D02*
G37*
G36*
X10943D02*
X10889Y1210D01*
X10794Y1171D01*
X10711Y1108D01*
X10648Y1025D01*
X10609Y930D01*
X10602Y876D01*
X10943D01*
Y1217D01*
D02*
G37*
G36*
X11943D02*
X11889Y1210D01*
X11794Y1171D01*
X11711Y1108D01*
X11648Y1025D01*
X11609Y930D01*
X11602Y876D01*
X11943D01*
Y1217D01*
D02*
G37*
G36*
X9943D02*
X9889Y1210D01*
X9794Y1171D01*
X9711Y1108D01*
X9648Y1025D01*
X9609Y930D01*
X9602Y876D01*
X9943D01*
Y1217D01*
D02*
G37*
G36*
X4041D02*
Y876D01*
X4383D01*
X4376Y930D01*
X4336Y1025D01*
X4273Y1108D01*
X4191Y1171D01*
X4095Y1210D01*
X4041Y1217D01*
D02*
G37*
G36*
X9041D02*
Y876D01*
X9383D01*
X9376Y930D01*
X9336Y1025D01*
X9273Y1108D01*
X9191Y1171D01*
X9095Y1210D01*
X9041Y1217D01*
D02*
G37*
G36*
X5041D02*
Y876D01*
X5383D01*
X5376Y930D01*
X5336Y1025D01*
X5273Y1108D01*
X5191Y1171D01*
X5095Y1210D01*
X5041Y1217D01*
D02*
G37*
G36*
X4992Y2204D02*
X4895Y2191D01*
X4804Y2153D01*
X4725Y2094D01*
X4665Y2015D01*
X4628Y1924D01*
X4615Y1827D01*
X4628Y1729D01*
X4665Y1638D01*
X4725Y1560D01*
X4804Y1500D01*
X4895Y1462D01*
X4992Y1450D01*
X5090Y1462D01*
X5181Y1500D01*
X5259Y1560D01*
X5319Y1638D01*
X5357Y1729D01*
X5369Y1827D01*
X5357Y1924D01*
X5319Y2015D01*
X5259Y2094D01*
X5181Y2153D01*
X5090Y2191D01*
X4992Y2204D01*
D02*
G37*
G36*
X3835Y4281D02*
X3593D01*
Y4039D01*
X3620Y4043D01*
X3692Y4073D01*
X3754Y4120D01*
X3801Y4182D01*
X3831Y4254D01*
X3835Y4281D01*
D02*
G37*
G36*
X3494D02*
X3252D01*
X3256Y4254D01*
X3285Y4182D01*
X3333Y4120D01*
X3394Y4073D01*
X3466Y4043D01*
X3494Y4039D01*
Y4281D01*
D02*
G37*
G36*
X12992Y3674D02*
X6888D01*
X6838Y3664D01*
X6796Y3636D01*
X6773Y3613D01*
X6765Y3616D01*
X6693Y3626D01*
X6621Y3616D01*
X6554Y3589D01*
X6496Y3544D01*
X6452Y3487D01*
X6424Y3420D01*
X6415Y3348D01*
X6424Y3276D01*
X6452Y3209D01*
X6496Y3151D01*
X6554Y3107D01*
X6621Y3079D01*
X6693Y3070D01*
X6765Y3079D01*
X6773Y3083D01*
X6838Y3018D01*
Y2168D01*
X6804Y2153D01*
X6725Y2094D01*
X6665Y2015D01*
X6628Y1924D01*
X6615Y1827D01*
X6628Y1729D01*
X6665Y1638D01*
X6725Y1560D01*
X6804Y1500D01*
X6895Y1462D01*
X6992Y1450D01*
X7090Y1462D01*
X7181Y1500D01*
X7259Y1560D01*
X7319Y1638D01*
X7357Y1729D01*
X7369Y1827D01*
X7357Y1924D01*
X7319Y2015D01*
X7259Y2094D01*
X7181Y2153D01*
X7099Y2187D01*
Y3072D01*
X7089Y3122D01*
X7061Y3164D01*
X6958Y3267D01*
X6961Y3276D01*
X6971Y3348D01*
X6967Y3375D01*
X7000Y3413D01*
X12938D01*
X13096Y3255D01*
X13093Y3205D01*
X13071Y3189D01*
X13027Y3131D01*
X12999Y3064D01*
X12990Y2992D01*
X12999Y2920D01*
X13027Y2853D01*
X13071Y2796D01*
X13129Y2751D01*
X13196Y2724D01*
X13268Y2714D01*
X13340Y2724D01*
X13407Y2751D01*
X13464Y2796D01*
X13508Y2853D01*
X13536Y2920D01*
X13546Y2992D01*
X13536Y3064D01*
X13508Y3131D01*
X13464Y3189D01*
X13407Y3233D01*
X13398Y3236D01*
Y3268D01*
X13388Y3318D01*
X13360Y3360D01*
X13084Y3636D01*
X13042Y3664D01*
X13034Y3665D01*
X12992Y3674D01*
D02*
G37*
G36*
X14843Y5834D02*
X14745Y5821D01*
X14654Y5783D01*
X14576Y5723D01*
X14516Y5645D01*
X14478Y5554D01*
X14465Y5457D01*
X14478Y5359D01*
X14516Y5268D01*
X14576Y5190D01*
X14654Y5130D01*
X14745Y5092D01*
X14843Y5079D01*
X14940Y5092D01*
X15031Y5130D01*
X15109Y5190D01*
X15169Y5268D01*
X15207Y5359D01*
X15220Y5457D01*
X15207Y5554D01*
X15169Y5645D01*
X15109Y5723D01*
X15031Y5783D01*
X14940Y5821D01*
X14843Y5834D01*
D02*
G37*
G36*
X3593Y4622D02*
Y4380D01*
X3835D01*
X3831Y4408D01*
X3801Y4480D01*
X3754Y4541D01*
X3692Y4589D01*
X3620Y4618D01*
X3593Y4622D01*
D02*
G37*
G36*
X3494D02*
X3466Y4618D01*
X3394Y4589D01*
X3333Y4541D01*
X3285Y4480D01*
X3256Y4408D01*
X3252Y4380D01*
X3494D01*
Y4622D01*
D02*
G37*
G36*
X1624Y3333D02*
Y3041D01*
X1916D01*
X1910Y3082D01*
X1876Y3166D01*
X1820Y3238D01*
X1749Y3293D01*
X1665Y3328D01*
X1624Y3333D01*
D02*
G37*
G36*
X1526Y2943D02*
X1234D01*
X1239Y2902D01*
X1274Y2818D01*
X1329Y2746D01*
X1401Y2691D01*
X1485Y2657D01*
X1526Y2651D01*
Y2943D01*
D02*
G37*
G36*
X7992Y2204D02*
X7894Y2191D01*
X7804Y2153D01*
X7725Y2094D01*
X7665Y2015D01*
X7628Y1924D01*
X7615Y1827D01*
X7628Y1729D01*
X7665Y1638D01*
X7725Y1560D01*
X7804Y1500D01*
X7894Y1462D01*
X7992Y1450D01*
X8090Y1462D01*
X8181Y1500D01*
X8259Y1560D01*
X8319Y1638D01*
X8357Y1729D01*
X8369Y1827D01*
X8357Y1924D01*
X8319Y2015D01*
X8259Y2094D01*
X8181Y2153D01*
X8090Y2191D01*
X7992Y2204D01*
D02*
G37*
G36*
X5992D02*
X5895Y2191D01*
X5804Y2153D01*
X5725Y2094D01*
X5665Y2015D01*
X5628Y1924D01*
X5615Y1827D01*
X5628Y1729D01*
X5665Y1638D01*
X5725Y1560D01*
X5804Y1500D01*
X5895Y1462D01*
X5992Y1450D01*
X6090Y1462D01*
X6181Y1500D01*
X6259Y1560D01*
X6319Y1638D01*
X6357Y1729D01*
X6369Y1827D01*
X6357Y1924D01*
X6319Y2015D01*
X6259Y2094D01*
X6181Y2153D01*
X6090Y2191D01*
X5992Y2204D01*
D02*
G37*
G36*
X1526Y3333D02*
X1485Y3328D01*
X1401Y3293D01*
X1329Y3238D01*
X1274Y3166D01*
X1239Y3082D01*
X1234Y3041D01*
X1526D01*
Y3333D01*
D02*
G37*
G36*
X12480Y3270D02*
X12408Y3261D01*
X12341Y3233D01*
X12284Y3189D01*
X12240Y3131D01*
X12212Y3064D01*
X12202Y2992D01*
X12212Y2920D01*
X12215Y2912D01*
X11993Y2690D01*
X11885D01*
X11868Y2740D01*
X11889Y2756D01*
X11934Y2814D01*
X11961Y2881D01*
X11971Y2953D01*
X11961Y3025D01*
X11934Y3092D01*
X11889Y3149D01*
X11832Y3193D01*
X11765Y3221D01*
X11693Y3231D01*
X11621Y3221D01*
X11554Y3193D01*
X11496Y3149D01*
X11452Y3092D01*
X11449Y3083D01*
X9646D01*
X9596Y3073D01*
X9553Y3045D01*
X8900Y2391D01*
X8872Y2349D01*
X8862Y2299D01*
Y2178D01*
X8804Y2153D01*
X8725Y2094D01*
X8665Y2015D01*
X8628Y1924D01*
X8615Y1827D01*
X8628Y1729D01*
X8665Y1638D01*
X8725Y1560D01*
X8804Y1500D01*
X8895Y1462D01*
X8992Y1450D01*
X9090Y1462D01*
X9181Y1500D01*
X9259Y1560D01*
X9319Y1638D01*
X9357Y1729D01*
X9369Y1827D01*
X9357Y1924D01*
X9319Y2015D01*
X9259Y2094D01*
X9181Y2153D01*
X9123Y2178D01*
Y2245D01*
X9700Y2822D01*
X11449D01*
X11452Y2814D01*
X11496Y2756D01*
X11518Y2740D01*
X11501Y2690D01*
X10276D01*
X10226Y2680D01*
X10183Y2651D01*
X9900Y2368D01*
X9872Y2326D01*
X9862Y2276D01*
Y2178D01*
X9804Y2153D01*
X9725Y2094D01*
X9665Y2015D01*
X9628Y1924D01*
X9615Y1827D01*
X9628Y1729D01*
X9665Y1638D01*
X9725Y1560D01*
X9804Y1500D01*
X9894Y1462D01*
X9992Y1450D01*
X10090Y1462D01*
X10181Y1500D01*
X10259Y1560D01*
X10319Y1638D01*
X10357Y1729D01*
X10369Y1827D01*
X10357Y1924D01*
X10319Y2015D01*
X10259Y2094D01*
X10181Y2153D01*
X10130Y2175D01*
X10125Y2224D01*
X10330Y2429D01*
X11391D01*
X11410Y2382D01*
X11181Y2153D01*
X11181Y2153D01*
X11090Y2191D01*
X10992Y2204D01*
X10895Y2191D01*
X10804Y2153D01*
X10725Y2094D01*
X10665Y2015D01*
X10628Y1924D01*
X10615Y1827D01*
X10628Y1729D01*
X10665Y1638D01*
X10725Y1560D01*
X10804Y1500D01*
X10895Y1462D01*
X10992Y1450D01*
X11090Y1462D01*
X11181Y1500D01*
X11259Y1560D01*
X11319Y1638D01*
X11357Y1729D01*
X11369Y1827D01*
X11357Y1924D01*
X11346Y1949D01*
X11629Y2232D01*
X11862D01*
X11872Y2182D01*
X11804Y2153D01*
X11725Y2094D01*
X11665Y2015D01*
X11628Y1924D01*
X11615Y1827D01*
X11628Y1729D01*
X11665Y1638D01*
X11725Y1560D01*
X11804Y1500D01*
X11895Y1462D01*
X11992Y1450D01*
X12090Y1462D01*
X12181Y1500D01*
X12259Y1560D01*
X12319Y1638D01*
X12357Y1729D01*
X12369Y1827D01*
X12357Y1924D01*
X12319Y2015D01*
X12259Y2094D01*
X12181Y2153D01*
X12112Y2182D01*
X12122Y2232D01*
X12581D01*
X12618Y2201D01*
Y1453D01*
X13366D01*
Y2196D01*
X13396Y2202D01*
X13439Y2231D01*
X13478Y2270D01*
X13478Y2270D01*
X13896Y2688D01*
X13904Y2684D01*
X13976Y2675D01*
X14048Y2684D01*
X14115Y2712D01*
X14173Y2756D01*
X14217Y2814D01*
X14245Y2881D01*
X14254Y2953D01*
X14245Y3025D01*
X14217Y3092D01*
X14173Y3149D01*
X14115Y3193D01*
X14048Y3221D01*
X13976Y3231D01*
X13904Y3221D01*
X13837Y3193D01*
X13780Y3149D01*
X13736Y3092D01*
X13708Y3025D01*
X13698Y2953D01*
X13708Y2881D01*
X13711Y2872D01*
X13332Y2493D01*
X12231D01*
X12212Y2539D01*
X12400Y2727D01*
X12408Y2724D01*
X12480Y2714D01*
X12552Y2724D01*
X12619Y2751D01*
X12677Y2796D01*
X12721Y2853D01*
X12749Y2920D01*
X12758Y2992D01*
X12749Y3064D01*
X12721Y3131D01*
X12677Y3189D01*
X12619Y3233D01*
X12552Y3261D01*
X12480Y3270D01*
D02*
G37*
G36*
X1916Y2943D02*
X1624D01*
Y2651D01*
X1665Y2657D01*
X1749Y2691D01*
X1820Y2746D01*
X1876Y2818D01*
X1910Y2902D01*
X1916Y2943D01*
D02*
G37*
G36*
X10943Y778D02*
X10602D01*
X10609Y724D01*
X10648Y628D01*
X10711Y546D01*
X10794Y483D01*
X10889Y443D01*
X10943Y436D01*
Y778D01*
D02*
G37*
G36*
X9943D02*
X9602D01*
X9609Y724D01*
X9648Y628D01*
X9711Y546D01*
X9794Y483D01*
X9889Y443D01*
X9943Y436D01*
Y778D01*
D02*
G37*
G36*
X8943D02*
X8602D01*
X8609Y724D01*
X8648Y628D01*
X8711Y546D01*
X8794Y483D01*
X8889Y443D01*
X8943Y436D01*
Y778D01*
D02*
G37*
G36*
X5383D02*
X5041D01*
Y436D01*
X5095Y443D01*
X5191Y483D01*
X5273Y546D01*
X5336Y628D01*
X5376Y724D01*
X5383Y778D01*
D02*
G37*
G36*
X4383D02*
X4041D01*
Y436D01*
X4095Y443D01*
X4191Y483D01*
X4273Y546D01*
X4336Y628D01*
X4376Y724D01*
X4383Y778D01*
D02*
G37*
G36*
X11943D02*
X11602D01*
X11609Y724D01*
X11648Y628D01*
X11711Y546D01*
X11794Y483D01*
X11889Y443D01*
X11943Y436D01*
Y778D01*
D02*
G37*
G36*
X7943D02*
X7602D01*
X7609Y724D01*
X7648Y628D01*
X7711Y546D01*
X7794Y483D01*
X7889Y443D01*
X7943Y436D01*
Y778D01*
D02*
G37*
G36*
X3943D02*
X3602D01*
X3609Y724D01*
X3648Y628D01*
X3711Y546D01*
X3794Y483D01*
X3889Y443D01*
X3943Y436D01*
Y778D01*
D02*
G37*
G36*
X21102Y2444D02*
X20936Y2431D01*
X20773Y2392D01*
X20618Y2328D01*
X20476Y2241D01*
X20348Y2132D01*
X20240Y2005D01*
X20152Y1862D01*
X20088Y1707D01*
X20049Y1545D01*
X20036Y1378D01*
X20049Y1211D01*
X20088Y1048D01*
X20152Y894D01*
X20240Y751D01*
X20348Y624D01*
X20476Y515D01*
X20618Y428D01*
X20773Y364D01*
X20936Y325D01*
X21102Y312D01*
X21269Y325D01*
X21432Y364D01*
X21586Y428D01*
X21729Y515D01*
X21856Y624D01*
X21965Y751D01*
X22052Y894D01*
X22116Y1048D01*
X22156Y1211D01*
X22169Y1378D01*
X22156Y1545D01*
X22116Y1707D01*
X22052Y1862D01*
X21965Y2005D01*
X21856Y2132D01*
X21729Y2241D01*
X21586Y2328D01*
X21432Y2392D01*
X21269Y2431D01*
X21102Y2444D01*
D02*
G37*
G36*
X1378D02*
X1211Y2431D01*
X1048Y2392D01*
X894Y2328D01*
X751Y2241D01*
X624Y2132D01*
X515Y2005D01*
X428Y1862D01*
X364Y1707D01*
X325Y1545D01*
X312Y1378D01*
X325Y1211D01*
X364Y1048D01*
X428Y894D01*
X515Y751D01*
X624Y624D01*
X751Y515D01*
X894Y428D01*
X1048Y364D01*
X1211Y325D01*
X1378Y312D01*
X1545Y325D01*
X1707Y364D01*
X1862Y428D01*
X2005Y515D01*
X2132Y624D01*
X2241Y751D01*
X2328Y894D01*
X2392Y1048D01*
X2431Y1211D01*
X2444Y1378D01*
X2431Y1545D01*
X2392Y1707D01*
X2328Y1862D01*
X2241Y2005D01*
X2132Y2132D01*
X2005Y2241D01*
X1862Y2328D01*
X1707Y2392D01*
X1545Y2431D01*
X1378Y2444D01*
D02*
G37*
G36*
X6943Y778D02*
X6602D01*
X6609Y724D01*
X6648Y628D01*
X6711Y546D01*
X6794Y483D01*
X6889Y443D01*
X6943Y436D01*
Y778D01*
D02*
G37*
G36*
X5943D02*
X5602D01*
X5609Y724D01*
X5648Y628D01*
X5711Y546D01*
X5794Y483D01*
X5889Y443D01*
X5943Y436D01*
Y778D01*
D02*
G37*
G36*
X4943D02*
X4602D01*
X4609Y724D01*
X4648Y628D01*
X4711Y546D01*
X4794Y483D01*
X4889Y443D01*
X4943Y436D01*
Y778D01*
D02*
G37*
G36*
X6383D02*
X6041D01*
Y436D01*
X6095Y443D01*
X6191Y483D01*
X6273Y546D01*
X6336Y628D01*
X6376Y724D01*
X6383Y778D01*
D02*
G37*
G36*
X5943Y1217D02*
X5889Y1210D01*
X5794Y1171D01*
X5711Y1108D01*
X5648Y1025D01*
X5609Y930D01*
X5602Y876D01*
X5943D01*
Y1217D01*
D02*
G37*
G36*
X3943D02*
X3889Y1210D01*
X3794Y1171D01*
X3711Y1108D01*
X3648Y1025D01*
X3609Y930D01*
X3602Y876D01*
X3943D01*
Y1217D01*
D02*
G37*
G36*
X4943D02*
X4889Y1210D01*
X4794Y1171D01*
X4711Y1108D01*
X4648Y1025D01*
X4609Y930D01*
X4602Y876D01*
X4943D01*
Y1217D01*
D02*
G37*
G36*
X6943D02*
X6889Y1210D01*
X6794Y1171D01*
X6711Y1108D01*
X6648Y1025D01*
X6609Y930D01*
X6602Y876D01*
X6943D01*
Y1217D01*
D02*
G37*
G36*
X8943D02*
X8889Y1210D01*
X8794Y1171D01*
X8711Y1108D01*
X8648Y1025D01*
X8609Y930D01*
X8602Y876D01*
X8943D01*
Y1217D01*
D02*
G37*
G36*
X7943D02*
X7889Y1210D01*
X7794Y1171D01*
X7711Y1108D01*
X7648Y1025D01*
X7609Y930D01*
X7602Y876D01*
X7943D01*
Y1217D01*
D02*
G37*
G36*
X12992Y1204D02*
X12895Y1191D01*
X12804Y1153D01*
X12725Y1094D01*
X12665Y1015D01*
X12628Y924D01*
X12615Y827D01*
X12628Y729D01*
X12665Y638D01*
X12725Y560D01*
X12804Y500D01*
X12895Y462D01*
X12992Y450D01*
X13090Y462D01*
X13181Y500D01*
X13259Y560D01*
X13319Y638D01*
X13357Y729D01*
X13369Y827D01*
X13357Y924D01*
X13319Y1015D01*
X13259Y1094D01*
X13181Y1153D01*
X13090Y1191D01*
X12992Y1204D01*
D02*
G37*
G36*
X9383Y778D02*
X9041D01*
Y436D01*
X9095Y443D01*
X9191Y483D01*
X9273Y546D01*
X9336Y628D01*
X9376Y724D01*
X9383Y778D01*
D02*
G37*
G36*
X8383D02*
X8041D01*
Y436D01*
X8095Y443D01*
X8191Y483D01*
X8273Y546D01*
X8336Y628D01*
X8376Y724D01*
X8383Y778D01*
D02*
G37*
G36*
X7383D02*
X7041D01*
Y436D01*
X7095Y443D01*
X7191Y483D01*
X7273Y546D01*
X7336Y628D01*
X7376Y724D01*
X7383Y778D01*
D02*
G37*
G36*
X12383D02*
X12041D01*
Y436D01*
X12095Y443D01*
X12191Y483D01*
X12273Y546D01*
X12336Y628D01*
X12376Y724D01*
X12383Y778D01*
D02*
G37*
G36*
X11383D02*
X11041D01*
Y436D01*
X11095Y443D01*
X11191Y483D01*
X11273Y546D01*
X11336Y628D01*
X11376Y724D01*
X11383Y778D01*
D02*
G37*
G36*
X10383D02*
X10041D01*
Y436D01*
X10095Y443D01*
X10191Y483D01*
X10273Y546D01*
X10336Y628D01*
X10376Y724D01*
X10383Y778D01*
D02*
G37*
G36*
X16053Y14346D02*
X16025Y14343D01*
X15953Y14313D01*
X15892Y14266D01*
X15844Y14204D01*
X15815Y14132D01*
X15811Y14104D01*
X16053D01*
Y14346D01*
D02*
G37*
G36*
X14380D02*
Y14104D01*
X14622D01*
X14618Y14132D01*
X14589Y14204D01*
X14541Y14266D01*
X14480Y14313D01*
X14408Y14343D01*
X14380Y14346D01*
D02*
G37*
G36*
X14282D02*
X14254Y14343D01*
X14182Y14313D01*
X14120Y14266D01*
X14073Y14204D01*
X14043Y14132D01*
X14039Y14104D01*
X14282D01*
Y14346D01*
D02*
G37*
G36*
X9217Y14902D02*
X8469D01*
Y14154D01*
X9217D01*
Y14902D01*
D02*
G37*
G36*
X9843Y14905D02*
X9745Y14892D01*
X9654Y14854D01*
X9576Y14794D01*
X9516Y14716D01*
X9478Y14625D01*
X9465Y14528D01*
X9478Y14430D01*
X9516Y14339D01*
X9576Y14261D01*
X9654Y14201D01*
X9745Y14163D01*
X9843Y14150D01*
X9940Y14163D01*
X10031Y14201D01*
X10109Y14261D01*
X10169Y14339D01*
X10207Y14430D01*
X10220Y14528D01*
X10207Y14625D01*
X10169Y14716D01*
X10109Y14794D01*
X10031Y14854D01*
X9940Y14892D01*
X9843Y14905D01*
D02*
G37*
G36*
X16152Y14346D02*
Y14104D01*
X16394D01*
X16390Y14132D01*
X16360Y14204D01*
X16313Y14266D01*
X16251Y14313D01*
X16179Y14343D01*
X16152Y14346D01*
D02*
G37*
G36*
X4331Y14648D02*
X4259Y14639D01*
X4192Y14611D01*
X4134Y14567D01*
X4090Y14509D01*
X4062Y14442D01*
X4053Y14370D01*
X4062Y14298D01*
X4090Y14231D01*
X4134Y14174D01*
X4192Y14129D01*
X4259Y14102D01*
X4331Y14092D01*
X4403Y14102D01*
X4470Y14129D01*
X4527Y14174D01*
X4571Y14231D01*
X4599Y14298D01*
X4609Y14370D01*
X4599Y14442D01*
X4571Y14509D01*
X4527Y14567D01*
X4470Y14611D01*
X4403Y14639D01*
X4331Y14648D01*
D02*
G37*
G36*
X16394Y14006D02*
X16152D01*
Y13764D01*
X16179Y13767D01*
X16251Y13797D01*
X16313Y13845D01*
X16360Y13906D01*
X16390Y13978D01*
X16394Y14006D01*
D02*
G37*
G36*
X16053D02*
X15811D01*
X15815Y13978D01*
X15844Y13906D01*
X15892Y13845D01*
X15953Y13797D01*
X16025Y13767D01*
X16053Y13764D01*
Y14006D01*
D02*
G37*
G36*
X14622D02*
X14380D01*
Y13764D01*
X14408Y13767D01*
X14480Y13797D01*
X14541Y13845D01*
X14589Y13906D01*
X14618Y13978D01*
X14622Y14006D01*
D02*
G37*
G36*
X394Y14648D02*
X322Y14639D01*
X255Y14611D01*
X197Y14567D01*
X153Y14509D01*
X125Y14442D01*
X116Y14370D01*
X125Y14298D01*
X153Y14231D01*
X197Y14174D01*
X255Y14129D01*
X322Y14102D01*
X394Y14092D01*
X466Y14102D01*
X533Y14129D01*
X590Y14174D01*
X634Y14231D01*
X662Y14298D01*
X672Y14370D01*
X662Y14442D01*
X634Y14509D01*
X590Y14567D01*
X533Y14611D01*
X466Y14639D01*
X394Y14648D01*
D02*
G37*
G36*
X6118Y14085D02*
X5876D01*
Y13843D01*
X5904Y13846D01*
X5976Y13876D01*
X6037Y13923D01*
X6085Y13985D01*
X6114Y14057D01*
X6118Y14085D01*
D02*
G37*
G36*
X5778D02*
X5535D01*
X5539Y14057D01*
X5569Y13985D01*
X5616Y13923D01*
X5678Y13876D01*
X5750Y13846D01*
X5778Y13843D01*
Y14085D01*
D02*
G37*
G36*
Y14425D02*
X5750Y14422D01*
X5678Y14392D01*
X5616Y14344D01*
X5569Y14283D01*
X5539Y14211D01*
X5535Y14183D01*
X5778D01*
Y14425D01*
D02*
G37*
G36*
X11270Y18362D02*
Y18120D01*
X11512D01*
X11508Y18148D01*
X11478Y18220D01*
X11431Y18281D01*
X11369Y18329D01*
X11298Y18359D01*
X11270Y18362D01*
D02*
G37*
G36*
X11171D02*
X11143Y18359D01*
X11072Y18329D01*
X11010Y18281D01*
X10963Y18220D01*
X10933Y18148D01*
X10929Y18120D01*
X11171D01*
Y18362D01*
D02*
G37*
G36*
X11512Y18022D02*
X11270D01*
Y17780D01*
X11298Y17783D01*
X11369Y17813D01*
X11431Y17860D01*
X11478Y17922D01*
X11508Y17994D01*
X11512Y18022D01*
D02*
G37*
G36*
X7083Y21043D02*
X6335D01*
Y20295D01*
X7083D01*
Y21043D01*
D02*
G37*
G36*
X5709Y21047D02*
X5611Y21034D01*
X5520Y20996D01*
X5442Y20936D01*
X5382Y20858D01*
X5344Y20767D01*
X5331Y20669D01*
X5344Y20572D01*
X5382Y20481D01*
X5442Y20403D01*
X5520Y20343D01*
X5611Y20305D01*
X5709Y20292D01*
X5806Y20305D01*
X5897Y20343D01*
X5975Y20403D01*
X6035Y20481D01*
X6073Y20572D01*
X6086Y20669D01*
X6073Y20767D01*
X6035Y20858D01*
X5975Y20936D01*
X5897Y20996D01*
X5806Y21034D01*
X5709Y21047D01*
D02*
G37*
G36*
X1378Y22169D02*
X1211Y22156D01*
X1048Y22116D01*
X894Y22052D01*
X751Y21965D01*
X624Y21856D01*
X515Y21729D01*
X428Y21586D01*
X364Y21432D01*
X325Y21269D01*
X312Y21102D01*
X325Y20936D01*
X364Y20773D01*
X428Y20618D01*
X515Y20476D01*
X624Y20348D01*
X751Y20240D01*
X894Y20152D01*
X1048Y20088D01*
X1211Y20049D01*
X1378Y20036D01*
X1545Y20049D01*
X1707Y20088D01*
X1862Y20152D01*
X2005Y20240D01*
X2132Y20348D01*
X2241Y20476D01*
X2328Y20618D01*
X2392Y20773D01*
X2431Y20936D01*
X2444Y21102D01*
X2431Y21269D01*
X2392Y21432D01*
X2328Y21586D01*
X2241Y21729D01*
X2132Y21856D01*
X2005Y21965D01*
X1862Y22052D01*
X1707Y22116D01*
X1545Y22156D01*
X1378Y22169D01*
D02*
G37*
G36*
X11171Y18022D02*
X10929D01*
X10933Y17994D01*
X10963Y17922D01*
X11010Y17860D01*
X11072Y17813D01*
X11143Y17783D01*
X11171Y17780D01*
Y18022D01*
D02*
G37*
G36*
X4281Y17077D02*
X4039D01*
X4043Y17049D01*
X4073Y16977D01*
X4120Y16915D01*
X4182Y16868D01*
X4254Y16838D01*
X4281Y16835D01*
Y17077D01*
D02*
G37*
G36*
X5315Y17601D02*
X5243Y17591D01*
X5176Y17564D01*
X5118Y17519D01*
X5074Y17462D01*
X5046Y17395D01*
X5037Y17323D01*
X5046Y17251D01*
X5074Y17184D01*
X5118Y17126D01*
X5176Y17082D01*
X5185Y17079D01*
Y13189D01*
X5194Y13139D01*
X5223Y13097D01*
X6784Y11535D01*
X6770Y11501D01*
X6759Y11490D01*
X6693Y11498D01*
X6621Y11489D01*
X6554Y11461D01*
X6496Y11417D01*
X6452Y11359D01*
X6449Y11351D01*
X1629D01*
X659Y12321D01*
X662Y12330D01*
X672Y12402D01*
X662Y12474D01*
X634Y12541D01*
X590Y12598D01*
X533Y12642D01*
X466Y12670D01*
X394Y12680D01*
X322Y12670D01*
X255Y12642D01*
X197Y12598D01*
X153Y12541D01*
X125Y12474D01*
X116Y12402D01*
X125Y12330D01*
X153Y12263D01*
X197Y12205D01*
X255Y12161D01*
X263Y12157D01*
Y3543D01*
X273Y3493D01*
X301Y3451D01*
X498Y3254D01*
X541Y3226D01*
X591Y3216D01*
X1181D01*
X1231Y3226D01*
X1273Y3254D01*
X1629Y3610D01*
X2165D01*
X2215Y3620D01*
X2258Y3648D01*
X3597Y4988D01*
X4677D01*
X4681Y4979D01*
X4725Y4922D01*
X4782Y4877D01*
X4849Y4850D01*
X4921Y4840D01*
X4993Y4850D01*
X5060Y4877D01*
X5118Y4922D01*
X5162Y4979D01*
X5170Y4999D01*
X5210Y5026D01*
X7101Y6917D01*
X9867D01*
X10129Y6655D01*
X10125Y6647D01*
X10116Y6575D01*
X10125Y6503D01*
X10153Y6436D01*
X10197Y6378D01*
X10255Y6334D01*
X10322Y6306D01*
X10394Y6297D01*
X10466Y6306D01*
X10533Y6334D01*
X10590Y6378D01*
X10634Y6436D01*
X10638Y6444D01*
X11240D01*
X11260Y6418D01*
X11318Y6373D01*
X11385Y6346D01*
X11457Y6336D01*
X11529Y6346D01*
X11596Y6373D01*
X11653Y6418D01*
X11697Y6475D01*
X11725Y6542D01*
X11735Y6614D01*
X11725Y6686D01*
X11711Y6720D01*
X11753Y6748D01*
X13889Y4612D01*
X13932Y4584D01*
X13982Y4574D01*
X18012D01*
X18062Y4584D01*
X18104Y4612D01*
X19486Y5995D01*
X19495Y5991D01*
X19567Y5982D01*
X19639Y5991D01*
X19706Y6019D01*
X19763Y6063D01*
X19808Y6121D01*
X19835Y6188D01*
X19845Y6260D01*
X19835Y6332D01*
X19808Y6399D01*
X19763Y6456D01*
X19706Y6501D01*
X19639Y6528D01*
X19567Y6538D01*
X19495Y6528D01*
X19428Y6501D01*
X19370Y6456D01*
X19326Y6399D01*
X19298Y6332D01*
X19289Y6260D01*
X19298Y6188D01*
X19302Y6179D01*
X17958Y4835D01*
X16817D01*
X16798Y4881D01*
X18109Y6192D01*
X18117Y6188D01*
X18189Y6179D01*
X18261Y6188D01*
X18328Y6216D01*
X18386Y6260D01*
X18430Y6318D01*
X18457Y6385D01*
X18467Y6457D01*
X18457Y6529D01*
X18430Y6596D01*
X18386Y6653D01*
X18328Y6697D01*
X18261Y6725D01*
X18189Y6735D01*
X18117Y6725D01*
X18050Y6697D01*
X17992Y6653D01*
X17948Y6596D01*
X17920Y6529D01*
X17911Y6457D01*
X17920Y6385D01*
X17924Y6376D01*
X16560Y5012D01*
X14109D01*
X11621Y7501D01*
X11640Y7547D01*
X13750D01*
X13760Y7537D01*
X13786Y7505D01*
X13777Y7441D01*
X13787Y7369D01*
X13814Y7302D01*
X13859Y7244D01*
X13916Y7200D01*
X13983Y7172D01*
X14055Y7163D01*
X14127Y7172D01*
X14194Y7200D01*
X14252Y7244D01*
X14296Y7302D01*
X14324Y7369D01*
X14333Y7441D01*
X14324Y7513D01*
X14296Y7580D01*
X14252Y7638D01*
X14194Y7682D01*
X14127Y7709D01*
X14055Y7719D01*
X13983Y7709D01*
X13975Y7706D01*
X13911Y7769D01*
X13869Y7798D01*
X13819Y7808D01*
X6693D01*
X6683Y7806D01*
X6658Y7852D01*
X8400Y9594D01*
X16089D01*
X16139Y9604D01*
X16182Y9632D01*
X18163Y11614D01*
X18191Y11656D01*
X18201Y11706D01*
Y11976D01*
X18239Y12009D01*
X18268Y12005D01*
X18340Y12015D01*
X18407Y12043D01*
X18464Y12087D01*
X18508Y12144D01*
X18536Y12212D01*
X18546Y12283D01*
X18536Y12355D01*
X18508Y12422D01*
X18464Y12480D01*
X18407Y12524D01*
X18340Y12552D01*
X18268Y12561D01*
X18196Y12552D01*
X18129Y12524D01*
X18071Y12480D01*
X18027Y12422D01*
X17999Y12355D01*
X17990Y12283D01*
X17999Y12212D01*
X18003Y12203D01*
X17979Y12179D01*
X17950Y12137D01*
X17940Y12087D01*
Y11977D01*
X17890Y11960D01*
X17880Y11974D01*
X17822Y12018D01*
X17755Y12046D01*
X17683Y12056D01*
X17611Y12046D01*
X17544Y12018D01*
X17487Y11974D01*
X17442Y11917D01*
X17415Y11849D01*
X17405Y11778D01*
X17415Y11706D01*
X17418Y11697D01*
X15812Y10091D01*
X13477D01*
X13467Y10141D01*
X13535Y10169D01*
X13613Y10229D01*
X13673Y10307D01*
X13711Y10398D01*
X13724Y10496D01*
X13711Y10594D01*
X13673Y10685D01*
X13613Y10763D01*
X13535Y10823D01*
X13444Y10860D01*
X13346Y10873D01*
X13249Y10860D01*
X13158Y10823D01*
X13080Y10763D01*
X13020Y10685D01*
X12982Y10594D01*
X12969Y10496D01*
X12982Y10398D01*
X13020Y10307D01*
X13080Y10229D01*
X13158Y10169D01*
X13226Y10141D01*
X13216Y10091D01*
X8189D01*
X8139Y10081D01*
X8097Y10053D01*
X6111Y8067D01*
X1335D01*
X1311Y8126D01*
X1251Y8204D01*
X1173Y8264D01*
X1082Y8301D01*
X984Y8314D01*
X887Y8301D01*
X796Y8264D01*
X718Y8204D01*
X658Y8126D01*
X620Y8035D01*
X607Y7937D01*
X620Y7839D01*
X658Y7748D01*
X718Y7670D01*
X796Y7610D01*
X887Y7573D01*
X984Y7560D01*
X1082Y7573D01*
X1173Y7610D01*
X1251Y7670D01*
X1311Y7748D01*
X1335Y7807D01*
X6165D01*
X6175Y7809D01*
X6200Y7762D01*
X5505Y7067D01*
X1335D01*
X1311Y7126D01*
X1251Y7204D01*
X1173Y7264D01*
X1082Y7301D01*
X984Y7314D01*
X887Y7301D01*
X796Y7264D01*
X718Y7204D01*
X658Y7126D01*
X620Y7035D01*
X607Y6937D01*
X620Y6839D01*
X658Y6748D01*
X718Y6670D01*
X796Y6610D01*
X887Y6573D01*
X984Y6560D01*
X1082Y6573D01*
X1173Y6610D01*
X1251Y6670D01*
X1311Y6748D01*
X1335Y6807D01*
X5559D01*
X5569Y6809D01*
X5594Y6762D01*
X5458Y6627D01*
X1969D01*
X1919Y6617D01*
X1876Y6588D01*
X1379Y6091D01*
X1320Y6103D01*
X1311Y6126D01*
X1251Y6204D01*
X1173Y6264D01*
X1082Y6301D01*
X984Y6314D01*
X887Y6301D01*
X796Y6264D01*
X718Y6204D01*
X658Y6126D01*
X620Y6035D01*
X607Y5937D01*
X620Y5839D01*
X658Y5748D01*
X718Y5670D01*
X796Y5610D01*
X887Y5573D01*
X984Y5560D01*
X1082Y5573D01*
X1173Y5610D01*
X1251Y5670D01*
X1311Y5748D01*
X1335Y5807D01*
X1409D01*
X1459Y5816D01*
X1502Y5845D01*
X2023Y6366D01*
X2376D01*
X2395Y6319D01*
X1277Y5202D01*
X1251Y5204D01*
X1173Y5264D01*
X1082Y5301D01*
X984Y5314D01*
X887Y5301D01*
X796Y5264D01*
X718Y5204D01*
X658Y5126D01*
X620Y5035D01*
X607Y4937D01*
X620Y4839D01*
X658Y4748D01*
X718Y4670D01*
X796Y4610D01*
X887Y4573D01*
X984Y4560D01*
X1082Y4573D01*
X1173Y4610D01*
X1251Y4670D01*
X1311Y4748D01*
X1349Y4839D01*
X1358Y4914D01*
X2633Y6188D01*
X2986D01*
X3005Y6142D01*
X1174Y4311D01*
X610D01*
Y3609D01*
X610Y3582D01*
X561Y3560D01*
X524Y3597D01*
Y12021D01*
X570Y12040D01*
X1483Y11128D01*
X1525Y11100D01*
X1575Y11090D01*
X6449D01*
X6452Y11081D01*
X6496Y11024D01*
X6518Y11007D01*
X6501Y10957D01*
X1359D01*
X1349Y11035D01*
X1311Y11126D01*
X1251Y11204D01*
X1173Y11264D01*
X1082Y11301D01*
X984Y11314D01*
X887Y11301D01*
X796Y11264D01*
X718Y11204D01*
X658Y11126D01*
X620Y11035D01*
X607Y10937D01*
X620Y10839D01*
X658Y10748D01*
X718Y10670D01*
X796Y10610D01*
X887Y10573D01*
X984Y10560D01*
X1082Y10573D01*
X1173Y10610D01*
X1251Y10670D01*
X1271Y10696D01*
X6706D01*
X6725Y10650D01*
X6143Y10067D01*
X1335D01*
X1311Y10126D01*
X1251Y10204D01*
X1173Y10264D01*
X1082Y10301D01*
X984Y10314D01*
X887Y10301D01*
X796Y10264D01*
X718Y10204D01*
X658Y10126D01*
X620Y10035D01*
X607Y9937D01*
X620Y9839D01*
X658Y9748D01*
X718Y9670D01*
X796Y9610D01*
X887Y9573D01*
X984Y9560D01*
X1082Y9573D01*
X1173Y9610D01*
X1251Y9670D01*
X1311Y9748D01*
X1335Y9807D01*
X6197D01*
X6207Y9809D01*
X6232Y9762D01*
X6048Y9579D01*
X1575D01*
X1525Y9569D01*
X1483Y9541D01*
X1191Y9250D01*
X1173Y9264D01*
X1082Y9301D01*
X984Y9314D01*
X887Y9301D01*
X796Y9264D01*
X718Y9204D01*
X658Y9126D01*
X620Y9035D01*
X607Y8937D01*
X620Y8839D01*
X658Y8748D01*
X718Y8670D01*
X796Y8610D01*
X887Y8573D01*
X984Y8560D01*
X1082Y8573D01*
X1173Y8610D01*
X1251Y8670D01*
X1311Y8748D01*
X1349Y8839D01*
X1361Y8937D01*
X1349Y9035D01*
X1348Y9037D01*
X1629Y9318D01*
X6102D01*
X6152Y9328D01*
X6195Y9357D01*
X9188Y12350D01*
X13674D01*
X13678Y12341D01*
X13722Y12284D01*
X13779Y12240D01*
X13846Y12212D01*
X13918Y12202D01*
X13990Y12212D01*
X14057Y12240D01*
X14115Y12284D01*
X14159Y12341D01*
X14187Y12408D01*
X14196Y12480D01*
X14187Y12552D01*
X14159Y12619D01*
X14115Y12677D01*
X14057Y12721D01*
X13990Y12749D01*
X13918Y12758D01*
X13846Y12749D01*
X13779Y12721D01*
X13722Y12677D01*
X13678Y12619D01*
X13674Y12611D01*
X9134D01*
X9084Y12601D01*
X9042Y12573D01*
X9001Y12532D01*
X8966Y12549D01*
X8711D01*
Y12294D01*
X8728Y12259D01*
X7444Y10975D01*
X7394Y10996D01*
Y15123D01*
X8637Y16366D01*
X9598D01*
X9602Y16357D01*
X9646Y16300D01*
X9704Y16255D01*
X9771Y16228D01*
X9843Y16218D01*
X9914Y16228D01*
X9981Y16255D01*
X10039Y16300D01*
X10083Y16357D01*
X10111Y16424D01*
X10120Y16496D01*
X10111Y16568D01*
X10083Y16635D01*
X10039Y16693D01*
X9981Y16737D01*
X9914Y16765D01*
X9843Y16774D01*
X9771Y16765D01*
X9704Y16737D01*
X9646Y16693D01*
X9602Y16635D01*
X9598Y16627D01*
X8583D01*
X8533Y16617D01*
X8490Y16588D01*
X7172Y15269D01*
X7143Y15227D01*
X7133Y15177D01*
Y11620D01*
X7087Y11601D01*
X5445Y13243D01*
Y17079D01*
X5454Y17082D01*
X5512Y17126D01*
X5556Y17184D01*
X5583Y17251D01*
X5593Y17323D01*
X5583Y17395D01*
X5556Y17462D01*
X5512Y17519D01*
X5454Y17564D01*
X5387Y17591D01*
X5315Y17601D01*
D02*
G37*
G36*
X5876Y14425D02*
Y14183D01*
X6118D01*
X6114Y14211D01*
X6085Y14283D01*
X6037Y14344D01*
X5976Y14392D01*
X5904Y14422D01*
X5876Y14425D01*
D02*
G37*
G36*
X4380Y17417D02*
Y17175D01*
X4622D01*
X4618Y17203D01*
X4589Y17275D01*
X4541Y17337D01*
X4480Y17384D01*
X4408Y17414D01*
X4380Y17417D01*
D02*
G37*
G36*
X4281D02*
X4254Y17414D01*
X4182Y17384D01*
X4120Y17337D01*
X4073Y17275D01*
X4043Y17203D01*
X4039Y17175D01*
X4281D01*
Y17417D01*
D02*
G37*
G36*
X4622Y17077D02*
X4380D01*
Y16835D01*
X4408Y16838D01*
X4480Y16868D01*
X4541Y16915D01*
X4589Y16977D01*
X4618Y17049D01*
X4622Y17077D01*
D02*
G37*
G36*
X14282Y14006D02*
X14039D01*
X14043Y13978D01*
X14073Y13906D01*
X14120Y13845D01*
X14182Y13797D01*
X14254Y13767D01*
X14282Y13764D01*
Y14006D01*
D02*
G37*
G36*
X6447Y9006D02*
X6205D01*
X6208Y8978D01*
X6238Y8906D01*
X6285Y8845D01*
X6347Y8797D01*
X6419Y8767D01*
X6447Y8764D01*
Y9006D01*
D02*
G37*
G36*
X18087Y8770D02*
X17844D01*
Y8528D01*
X17872Y8531D01*
X17944Y8561D01*
X18006Y8608D01*
X18053Y8670D01*
X18083Y8742D01*
X18087Y8770D01*
D02*
G37*
G36*
X17746D02*
X17504D01*
X17508Y8742D01*
X17537Y8670D01*
X17585Y8608D01*
X17646Y8561D01*
X17718Y8531D01*
X17746Y8528D01*
Y8770D01*
D02*
G37*
G36*
X15679Y9110D02*
Y8868D01*
X15921D01*
X15918Y8896D01*
X15888Y8968D01*
X15841Y9029D01*
X15779Y9077D01*
X15707Y9107D01*
X15679Y9110D01*
D02*
G37*
G36*
X15581D02*
X15553Y9107D01*
X15481Y9077D01*
X15419Y9029D01*
X15372Y8968D01*
X15342Y8896D01*
X15339Y8868D01*
X15581D01*
Y9110D01*
D02*
G37*
G36*
X6787Y9006D02*
X6545D01*
Y8764D01*
X6573Y8767D01*
X6645Y8797D01*
X6707Y8845D01*
X6754Y8906D01*
X6784Y8978D01*
X6787Y9006D01*
D02*
G37*
G36*
X15921Y8770D02*
X15679D01*
Y8528D01*
X15707Y8531D01*
X15779Y8561D01*
X15841Y8608D01*
X15888Y8670D01*
X15918Y8742D01*
X15921Y8770D01*
D02*
G37*
G36*
X15217Y6831D02*
X14469D01*
Y6083D01*
X15217D01*
Y6831D01*
D02*
G37*
G36*
X8520Y6211D02*
X8278D01*
Y5968D01*
X8305Y5972D01*
X8377Y6002D01*
X8439Y6049D01*
X8486Y6111D01*
X8516Y6183D01*
X8520Y6211D01*
D02*
G37*
G36*
X8179D02*
X7937D01*
X7941Y6183D01*
X7970Y6111D01*
X8018Y6049D01*
X8079Y6002D01*
X8151Y5972D01*
X8179Y5968D01*
Y6211D01*
D02*
G37*
G36*
X15581Y8770D02*
X15339D01*
X15342Y8742D01*
X15372Y8670D01*
X15419Y8608D01*
X15481Y8561D01*
X15553Y8531D01*
X15581Y8528D01*
Y8770D01*
D02*
G37*
G36*
X8278Y6551D02*
Y6309D01*
X8520D01*
X8516Y6337D01*
X8486Y6409D01*
X8439Y6470D01*
X8377Y6518D01*
X8305Y6548D01*
X8278Y6551D01*
D02*
G37*
G36*
X8179D02*
X8151Y6548D01*
X8079Y6518D01*
X8018Y6470D01*
X7970Y6409D01*
X7941Y6337D01*
X7937Y6309D01*
X8179D01*
Y6551D01*
D02*
G37*
G36*
X17746Y9110D02*
X17718Y9107D01*
X17646Y9077D01*
X17585Y9029D01*
X17537Y8968D01*
X17508Y8896D01*
X17504Y8868D01*
X17746D01*
Y9110D01*
D02*
G37*
G36*
X4622Y13337D02*
X4380D01*
Y13094D01*
X4408Y13098D01*
X4480Y13128D01*
X4541Y13175D01*
X4589Y13237D01*
X4618Y13309D01*
X4622Y13337D01*
D02*
G37*
G36*
X4281D02*
X4039D01*
X4043Y13309D01*
X4073Y13237D01*
X4120Y13175D01*
X4182Y13128D01*
X4254Y13098D01*
X4281Y13094D01*
Y13337D01*
D02*
G37*
G36*
X8711Y12890D02*
Y12648D01*
X8953D01*
X8949Y12676D01*
X8919Y12747D01*
X8872Y12809D01*
X8810Y12856D01*
X8738Y12886D01*
X8711Y12890D01*
D02*
G37*
G36*
X4380Y13677D02*
Y13435D01*
X4622D01*
X4618Y13463D01*
X4589Y13535D01*
X4541Y13596D01*
X4480Y13644D01*
X4408Y13673D01*
X4380Y13677D01*
D02*
G37*
G36*
X4281D02*
X4254Y13673D01*
X4182Y13644D01*
X4120Y13596D01*
X4073Y13535D01*
X4043Y13463D01*
X4039Y13435D01*
X4281D01*
Y13677D01*
D02*
G37*
G36*
X394Y13664D02*
X322Y13654D01*
X255Y13627D01*
X197Y13582D01*
X153Y13525D01*
X125Y13458D01*
X116Y13386D01*
X125Y13314D01*
X153Y13247D01*
X197Y13189D01*
X255Y13145D01*
X322Y13117D01*
X394Y13108D01*
X466Y13117D01*
X533Y13145D01*
X590Y13189D01*
X634Y13247D01*
X662Y13314D01*
X672Y13386D01*
X662Y13458D01*
X634Y13525D01*
X590Y13582D01*
X533Y13627D01*
X466Y13654D01*
X394Y13664D01*
D02*
G37*
G36*
X8612Y12890D02*
X8584Y12886D01*
X8512Y12856D01*
X8451Y12809D01*
X8403Y12747D01*
X8374Y12676D01*
X8370Y12648D01*
X8612D01*
Y12890D01*
D02*
G37*
G36*
X6545Y9346D02*
Y9104D01*
X6787D01*
X6784Y9132D01*
X6754Y9204D01*
X6707Y9266D01*
X6645Y9313D01*
X6573Y9343D01*
X6545Y9346D01*
D02*
G37*
G36*
X6447D02*
X6419Y9343D01*
X6347Y9313D01*
X6285Y9266D01*
X6238Y9204D01*
X6208Y9132D01*
X6205Y9104D01*
X6447D01*
Y9346D01*
D02*
G37*
G36*
X17844Y9110D02*
Y8868D01*
X18087D01*
X18083Y8896D01*
X18053Y8968D01*
X18006Y9029D01*
X17944Y9077D01*
X17872Y9107D01*
X17844Y9110D01*
D02*
G37*
G36*
X8612Y12549D02*
X8370D01*
X8374Y12521D01*
X8403Y12450D01*
X8451Y12388D01*
X8512Y12341D01*
X8584Y12311D01*
X8612Y12307D01*
Y12549D01*
D02*
G37*
G36*
X4331Y12664D02*
X4259Y12654D01*
X4192Y12627D01*
X4134Y12582D01*
X4090Y12525D01*
X4062Y12458D01*
X4053Y12386D01*
X4062Y12314D01*
X4090Y12247D01*
X4134Y12189D01*
X4192Y12145D01*
X4259Y12117D01*
X4331Y12108D01*
X4403Y12117D01*
X4470Y12145D01*
X4527Y12189D01*
X4571Y12247D01*
X4599Y12314D01*
X4609Y12386D01*
X4599Y12458D01*
X4571Y12525D01*
X4527Y12582D01*
X4470Y12627D01*
X4403Y12654D01*
X4331Y12664D01*
D02*
G37*
G36*
X13720Y11870D02*
X12972D01*
Y11122D01*
X13720D01*
Y11870D01*
D02*
G37*
%LPD*%
D24*
X6969Y1787D02*
Y3072D01*
X6693Y3348D02*
X6969Y3072D01*
X9646Y2953D02*
X11693D01*
X8992Y2299D02*
X9646Y2953D01*
X8992Y1827D02*
Y2299D01*
X9992Y2276D02*
X10276Y2559D01*
X13386Y2362D02*
X13976Y2953D01*
X13346Y2323D02*
X13386Y2362D01*
X11575D02*
X13386D01*
X13918Y12480D02*
X13958D01*
X9134D02*
X13918D01*
X6102Y9449D02*
X9134Y12480D01*
X18071Y12087D02*
X18268Y12283D01*
X18071Y11706D02*
Y12087D01*
X16089Y9724D02*
X18071Y11706D01*
X15866Y9961D02*
X17683Y11778D01*
X8346Y9724D02*
X16089D01*
X8189Y9961D02*
X15866D01*
X6165Y7937D02*
X8189Y9961D01*
X5559Y6937D02*
X8346Y9724D01*
X13819Y7677D02*
X14055Y7441D01*
X11370Y7317D02*
X13982Y4705D01*
X6834Y7317D02*
X11370D01*
X11443Y7494D02*
X14055Y4882D01*
X6760Y7494D02*
X11443D01*
X7264Y15177D02*
X8583Y16496D01*
X984Y4937D02*
X1197D01*
X984Y5937D02*
X1409D01*
X1969Y6496D01*
X5512D01*
X984Y6937D02*
X5559D01*
X984Y7937D02*
X6165D01*
X13918Y12480D02*
X13918Y12480D01*
X8583Y16496D02*
X9843D01*
X984Y8937D02*
X1063D01*
X1575Y9449D01*
X6102D01*
X984Y9937D02*
X6197D01*
X6909Y10650D01*
X6963D01*
X7264Y10950D01*
Y15177D01*
X984Y10937D02*
X1094Y10827D01*
X6890D01*
X7087Y11024D01*
X1575Y3740D02*
X2165D01*
X1181Y3346D02*
X1575Y3740D01*
X591Y3346D02*
X1181D01*
X394Y3543D02*
X591Y3346D01*
X3543Y5118D02*
X4921D01*
X2165Y3740D02*
X3543Y5118D01*
X394Y3543D02*
Y12402D01*
X7087Y11024D02*
Y11417D01*
X5315Y13189D02*
X7087Y11417D01*
X5315Y13189D02*
Y17323D01*
X394Y12402D02*
X1575Y11220D01*
X12992Y1827D02*
Y2008D01*
X1575Y11220D02*
X6693D01*
X5512Y6496D02*
X6693Y7677D01*
X13819D01*
X1197Y4937D02*
X2579Y6319D01*
X5585D01*
X6760Y7494D01*
X16614Y4882D02*
X18189Y6457D01*
X14055Y4882D02*
X16614D01*
X984Y3937D02*
X3189Y6142D01*
X5659D01*
X6834Y7317D01*
X13982Y4705D02*
X18012D01*
X19567Y6260D01*
X10394Y6575D02*
X11417D01*
X11457Y6614D01*
X4921Y5118D02*
X5118D01*
X7047Y7047D01*
X9921D01*
X10394Y6575D01*
X9992Y1827D02*
Y2276D01*
X10276Y2559D02*
X12047D01*
X12480Y2992D01*
X10992Y1827D02*
X11039D01*
X11575Y2362D01*
X13268Y2992D02*
Y3268D01*
X6693Y3348D02*
X6888Y3543D01*
X12992D01*
X13268Y3268D01*
D26*
X8843Y14528D02*
D03*
X6709Y20669D02*
D03*
X12992Y1827D02*
D03*
D27*
X9843Y14528D02*
D03*
X5709Y20669D02*
D03*
X14843Y5457D02*
D03*
X13346Y10496D02*
D03*
X12992Y827D02*
D03*
X11992Y1827D02*
D03*
Y827D02*
D03*
X10992Y1827D02*
D03*
Y827D02*
D03*
X9992Y1827D02*
D03*
Y827D02*
D03*
X8992Y1827D02*
D03*
Y827D02*
D03*
X7992Y1827D02*
D03*
Y827D02*
D03*
X6992Y1827D02*
D03*
Y827D02*
D03*
X5992Y1827D02*
D03*
Y827D02*
D03*
X4992Y1827D02*
D03*
Y827D02*
D03*
X3992Y1827D02*
D03*
Y827D02*
D03*
X984Y4937D02*
D03*
Y5937D02*
D03*
Y6937D02*
D03*
Y7937D02*
D03*
Y8937D02*
D03*
Y9937D02*
D03*
Y10937D02*
D03*
D28*
X14843Y6457D02*
D03*
X13346Y11496D02*
D03*
X984Y3937D02*
D03*
D29*
X1575Y2992D02*
D03*
D30*
X11693Y2953D02*
D03*
X8661Y12598D02*
D03*
X19567Y6260D02*
D03*
X18189Y6457D02*
D03*
X14055Y7441D02*
D03*
X18268Y12283D02*
D03*
X17683Y11778D02*
D03*
X13918Y12480D02*
D03*
X9843Y16496D02*
D03*
X5315Y17323D02*
D03*
X4331Y17126D02*
D03*
Y13386D02*
D03*
Y12386D02*
D03*
X394Y12402D02*
D03*
X11220Y18071D02*
D03*
X14331Y14055D02*
D03*
X16102D02*
D03*
X17795Y8819D02*
D03*
X15630D02*
D03*
X6496Y9055D02*
D03*
X6693Y11220D02*
D03*
X3543Y4331D02*
D03*
X4921Y5118D02*
D03*
X394Y14370D02*
D03*
Y13386D02*
D03*
X11457Y6614D02*
D03*
X10394Y6575D02*
D03*
X8228Y6260D02*
D03*
X6693Y3348D02*
D03*
X13976Y2953D02*
D03*
X13268Y2992D02*
D03*
X12480D02*
D03*
X5827Y14134D02*
D03*
X4331Y14370D02*
D03*
D31*
X1378Y1378D02*
D03*
Y21102D02*
D03*
X21102Y1378D02*
D03*
M02*
